G04 #@! TF.FileFunction,Copper,L2,Bot,Signal*
%FSLAX46Y46*%
G04 Gerber Fmt 4.6, Leading zero omitted, Abs format (unit mm)*
G04 Created by KiCad (PCBNEW 4.0.7) date 01/14/21 23:37:04*
%MOMM*%
%LPD*%
G01*
G04 APERTURE LIST*
%ADD10C,0.100000*%
%ADD11O,2.500000X3.500000*%
%ADD12O,3.500000X2.500000*%
%ADD13C,1.600000*%
%ADD14C,1.520000*%
%ADD15C,2.700000*%
%ADD16R,3.000000X3.000000*%
%ADD17C,3.000000*%
%ADD18O,1.600000X1.600000*%
%ADD19R,1.700000X1.700000*%
%ADD20O,1.700000X1.700000*%
%ADD21C,4.064000*%
%ADD22R,2.000000X2.000000*%
%ADD23C,2.000000*%
%ADD24R,3.500000X3.500000*%
%ADD25C,0.600000*%
%ADD26C,0.500000*%
%ADD27C,0.350000*%
G04 APERTURE END LIST*
D10*
D11*
X36000000Y-71750000D03*
D12*
X41000000Y-71750000D03*
D13*
X53700000Y-114600000D03*
X58700000Y-114600000D03*
X75600000Y-115300000D03*
X75600000Y-110300000D03*
D14*
X110540000Y-37500000D03*
X108000000Y-37500000D03*
X108000000Y-35500000D03*
X110540000Y-35500000D03*
D15*
X115270000Y-32800000D03*
X103270000Y-32800000D03*
D16*
X100600000Y-125700000D03*
D17*
X95520000Y-125700000D03*
D13*
X53500000Y-106200000D03*
D18*
X61120000Y-106200000D03*
D13*
X79500000Y-115300000D03*
D18*
X79500000Y-107680000D03*
D13*
X61500000Y-110400000D03*
D18*
X69120000Y-110400000D03*
D13*
X55300000Y-93500000D03*
X60300000Y-93500000D03*
X74900000Y-97400000D03*
X74900000Y-102400000D03*
D16*
X122250000Y-99750000D03*
D17*
X122250000Y-104830000D03*
D13*
X53500000Y-101900000D03*
D18*
X61120000Y-101900000D03*
D13*
X79000000Y-96000000D03*
D18*
X79000000Y-103620000D03*
D13*
X61100000Y-98200000D03*
D18*
X68720000Y-98200000D03*
D13*
X46800000Y-106100000D03*
D18*
X46800000Y-113720000D03*
D13*
X62600000Y-120900000D03*
D18*
X70220000Y-120900000D03*
D13*
X82200000Y-120800000D03*
D18*
X74580000Y-120800000D03*
D13*
X82200000Y-124300000D03*
D18*
X74580000Y-124300000D03*
D13*
X38100000Y-120900000D03*
D18*
X38100000Y-113280000D03*
D16*
X38000000Y-51000000D03*
D17*
X38000000Y-45920000D03*
D19*
X85032000Y-64854000D03*
D20*
X85032000Y-62314000D03*
X85032000Y-59774000D03*
D13*
X56632000Y-48204000D03*
D18*
X56632000Y-55824000D03*
D13*
X66232000Y-64404000D03*
D18*
X58612000Y-64404000D03*
D16*
X37250000Y-85500000D03*
D17*
X37250000Y-80420000D03*
D19*
X85032000Y-76104000D03*
D20*
X85032000Y-73564000D03*
X85032000Y-71024000D03*
D13*
X61932000Y-79104000D03*
D18*
X61932000Y-71484000D03*
D13*
X58432000Y-71004000D03*
D18*
X50812000Y-71004000D03*
D21*
X33000000Y-33000000D03*
X127000000Y-33000000D03*
X127000000Y-127000000D03*
X33000000Y-127000000D03*
D13*
X72782000Y-48104000D03*
D18*
X72782000Y-55724000D03*
D13*
X69282000Y-74604000D03*
D18*
X76902000Y-74604000D03*
D13*
X80232000Y-64604000D03*
D18*
X80232000Y-72224000D03*
D13*
X77032000Y-71104000D03*
D18*
X69412000Y-71104000D03*
D19*
X63832000Y-60704000D03*
D20*
X63832000Y-58164000D03*
D19*
X53132000Y-78304000D03*
D20*
X55672000Y-78304000D03*
D19*
X85132000Y-49704000D03*
D20*
X85132000Y-52244000D03*
D19*
X85090000Y-81788000D03*
D20*
X82550000Y-81788000D03*
D19*
X98700000Y-66500000D03*
D20*
X98700000Y-69040000D03*
D13*
X60800000Y-126300000D03*
D18*
X53180000Y-126300000D03*
D11*
X36250000Y-60250000D03*
D12*
X41250000Y-60250000D03*
D11*
X36400000Y-94300000D03*
D12*
X41400000Y-94300000D03*
D11*
X36200000Y-106500000D03*
D12*
X41200000Y-106500000D03*
D11*
X122800000Y-90800000D03*
D12*
X117800000Y-90800000D03*
D11*
X122900000Y-78100000D03*
D12*
X117900000Y-78100000D03*
D11*
X123500000Y-113750000D03*
D12*
X118500000Y-113750000D03*
X110500000Y-124000000D03*
D11*
X110500000Y-119000000D03*
D22*
X42000000Y-36250000D03*
D23*
X47000000Y-36250000D03*
D22*
X53250000Y-36000000D03*
D23*
X58250000Y-36000000D03*
D24*
X68500000Y-41250000D03*
X68500000Y-35250000D03*
X63800000Y-38250000D03*
D19*
X99250000Y-36000000D03*
D20*
X99250000Y-38540000D03*
X99250000Y-41080000D03*
D25*
X89600000Y-115100000D03*
X93900000Y-115200000D03*
X70782000Y-57354000D03*
X70282000Y-53854000D03*
X67250000Y-46250000D03*
X67250000Y-44250000D03*
X91500000Y-40750000D03*
X95000000Y-41250000D03*
X93750000Y-32750000D03*
X75000000Y-36500000D03*
X83250000Y-36250000D03*
X70250000Y-49750000D03*
X70250000Y-48000000D03*
X64250000Y-49000000D03*
X64000000Y-47750000D03*
X104300000Y-75800000D03*
X103900000Y-74900000D03*
X104100000Y-78100000D03*
X103700000Y-79300000D03*
X99300000Y-84400000D03*
X99600000Y-81900000D03*
X121000000Y-59400000D03*
X119600000Y-57200000D03*
X53432000Y-50604000D03*
X51632000Y-49304000D03*
X44100000Y-93500000D03*
X45800000Y-93100000D03*
X40700000Y-123200000D03*
X50900000Y-125300000D03*
X50800000Y-123700000D03*
X49700000Y-118400000D03*
X50900000Y-116800000D03*
X109700000Y-42100000D03*
X112500000Y-57700000D03*
X118900000Y-64700000D03*
X118900000Y-68000000D03*
X109800000Y-57800000D03*
X107200000Y-57800000D03*
X62832000Y-77004000D03*
X66732000Y-79904000D03*
X89100000Y-112000000D03*
X82800000Y-101000000D03*
X112900000Y-54100000D03*
X111600000Y-54200000D03*
X55532000Y-62404000D03*
X56532000Y-66204000D03*
X96100000Y-51900000D03*
X67032000Y-54854000D03*
X75782000Y-65604000D03*
X74282000Y-65854000D03*
X70032000Y-76104000D03*
X68282000Y-78854000D03*
X68532000Y-54604000D03*
X80282000Y-49354000D03*
X80782000Y-51354000D03*
X45632000Y-60004000D03*
X47732000Y-59704000D03*
X96800000Y-55000000D03*
X93400000Y-104300000D03*
X92600000Y-102100000D03*
X98100000Y-109400000D03*
X37800000Y-125800000D03*
X94200000Y-111200000D03*
X66000000Y-95400000D03*
X67800000Y-93100000D03*
X66300000Y-114100000D03*
X66000000Y-116100000D03*
X72400000Y-105300000D03*
X73300000Y-104300000D03*
X81300000Y-101600000D03*
X87500000Y-110500000D03*
X112600000Y-45600000D03*
X119700000Y-46800000D03*
X114000000Y-45200000D03*
X108400000Y-41900000D03*
X115300000Y-69800000D03*
X113900000Y-72500000D03*
X116200000Y-72600000D03*
X105900000Y-67500000D03*
X104000000Y-68100000D03*
X108200000Y-54300000D03*
X107600000Y-49700000D03*
X110000000Y-66800000D03*
X105900000Y-68500000D03*
X49400000Y-116900000D03*
X48300000Y-115800000D03*
X65000000Y-51000000D03*
X68250000Y-51000000D03*
X70612000Y-84582000D03*
X70612000Y-86614000D03*
X96500000Y-50400000D03*
X96600000Y-47900000D03*
X66832000Y-74904000D03*
X85200000Y-106400000D03*
X86400000Y-104300000D03*
X89662000Y-65278000D03*
X88138000Y-67056000D03*
X95500000Y-43000000D03*
D26*
X93800000Y-115100000D02*
X89600000Y-115100000D01*
X93900000Y-115200000D02*
X93800000Y-115100000D01*
D27*
X70782000Y-54354000D02*
X70782000Y-57354000D01*
X70282000Y-53854000D02*
X70782000Y-54354000D01*
X93400000Y-104300000D02*
X93500000Y-104400000D01*
X68250000Y-51000000D02*
X65000000Y-51000000D01*
X70612000Y-86614000D02*
X70612000Y-84582000D01*
X96500000Y-48000000D02*
X96500000Y-50400000D01*
X96600000Y-47900000D02*
X96500000Y-48000000D01*
X69282000Y-74604000D02*
X67132000Y-74604000D01*
X67132000Y-74604000D02*
X66832000Y-74904000D01*
X79500000Y-107680000D02*
X80420000Y-107680000D01*
X81700000Y-106400000D02*
X85200000Y-106400000D01*
X80420000Y-107680000D02*
X81700000Y-106400000D01*
X79000000Y-103620000D02*
X79520000Y-103620000D01*
X79520000Y-103620000D02*
X80200000Y-104300000D01*
X80200000Y-104300000D02*
X86400000Y-104300000D01*
X89662000Y-65532000D02*
X89662000Y-65278000D01*
X88138000Y-67056000D02*
X89662000Y-65532000D01*
D26*
X99250000Y-41080000D02*
X97420000Y-41080000D01*
X97420000Y-41080000D02*
X95500000Y-43000000D01*
G36*
X102446301Y-31021706D02*
X103270000Y-31845406D01*
X104093699Y-31021706D01*
X103969250Y-30825000D01*
X114570750Y-30825000D01*
X114446301Y-31021706D01*
X115270000Y-31845406D01*
X116093699Y-31021706D01*
X115969250Y-30825000D01*
X125241019Y-30825000D01*
X124642910Y-31422066D01*
X124218484Y-32444198D01*
X124217518Y-33550946D01*
X124640160Y-34573818D01*
X125422066Y-35357090D01*
X126444198Y-35781516D01*
X127550946Y-35782482D01*
X128573818Y-35359840D01*
X129175000Y-34759706D01*
X129175000Y-125241019D01*
X128577934Y-124642910D01*
X127555802Y-124218484D01*
X126449054Y-124217518D01*
X125426182Y-124640160D01*
X124642910Y-125422066D01*
X124218484Y-126444198D01*
X124217518Y-127550946D01*
X124640160Y-128573818D01*
X125240294Y-129175000D01*
X115411335Y-129175000D01*
X115703981Y-129116789D01*
X116271722Y-128737437D01*
X116651074Y-128169696D01*
X116784285Y-127500000D01*
X116651074Y-126830304D01*
X116271722Y-126262563D01*
X115703981Y-125883211D01*
X115034285Y-125750000D01*
X114965715Y-125750000D01*
X114296019Y-125883211D01*
X113728278Y-126262563D01*
X113348926Y-126830304D01*
X113215715Y-127500000D01*
X113348926Y-128169696D01*
X113728278Y-128737437D01*
X114296019Y-129116789D01*
X114588665Y-129175000D01*
X106411335Y-129175000D01*
X106703981Y-129116789D01*
X107271722Y-128737437D01*
X107651074Y-128169696D01*
X107784285Y-127500000D01*
X107651074Y-126830304D01*
X107271722Y-126262563D01*
X106703981Y-125883211D01*
X106034285Y-125750000D01*
X105965715Y-125750000D01*
X105296019Y-125883211D01*
X104728278Y-126262563D01*
X104348926Y-126830304D01*
X104215715Y-127500000D01*
X104348926Y-128169696D01*
X104728278Y-128737437D01*
X105296019Y-129116789D01*
X105588665Y-129175000D01*
X34758981Y-129175000D01*
X35357090Y-128577934D01*
X35781516Y-127555802D01*
X35782482Y-126449054D01*
X35720895Y-126300000D01*
X51599634Y-126300000D01*
X51717621Y-126893159D01*
X52053618Y-127396016D01*
X52556475Y-127732013D01*
X53149634Y-127850000D01*
X53210366Y-127850000D01*
X53803525Y-127732013D01*
X54306382Y-127396016D01*
X54642379Y-126893159D01*
X54699307Y-126606961D01*
X59249732Y-126606961D01*
X59485208Y-127176857D01*
X59920849Y-127613260D01*
X60490333Y-127849730D01*
X61106961Y-127850268D01*
X61647405Y-127626961D01*
X94653699Y-127626961D01*
X94847361Y-127901784D01*
X95741149Y-127991592D01*
X96192639Y-127901784D01*
X96386301Y-127626961D01*
X95520000Y-126760660D01*
X94653699Y-127626961D01*
X61647405Y-127626961D01*
X61676857Y-127614792D01*
X62113260Y-127179151D01*
X62349730Y-126609667D01*
X62350268Y-125993039D01*
X62320564Y-125921149D01*
X93228408Y-125921149D01*
X93318216Y-126372639D01*
X93593039Y-126566301D01*
X94459340Y-125700000D01*
X96580660Y-125700000D01*
X97446961Y-126566301D01*
X97721784Y-126372639D01*
X97811592Y-125478851D01*
X97721784Y-125027361D01*
X97446961Y-124833699D01*
X96580660Y-125700000D01*
X94459340Y-125700000D01*
X93593039Y-124833699D01*
X93318216Y-125027361D01*
X93228408Y-125921149D01*
X62320564Y-125921149D01*
X62114792Y-125423143D01*
X61679151Y-124986740D01*
X61109667Y-124750270D01*
X60493039Y-124749732D01*
X59923143Y-124985208D01*
X59486740Y-125420849D01*
X59250270Y-125990333D01*
X59249732Y-126606961D01*
X54699307Y-126606961D01*
X54760366Y-126300000D01*
X54642379Y-125706841D01*
X54306382Y-125203984D01*
X53803525Y-124867987D01*
X53210366Y-124750000D01*
X53149634Y-124750000D01*
X52556475Y-124867987D01*
X52053618Y-125203984D01*
X51717621Y-125706841D01*
X51599634Y-126300000D01*
X35720895Y-126300000D01*
X35359840Y-125426182D01*
X34577934Y-124642910D01*
X33752115Y-124300000D01*
X72999634Y-124300000D01*
X73117621Y-124893159D01*
X73453618Y-125396016D01*
X73956475Y-125732013D01*
X74549634Y-125850000D01*
X74610366Y-125850000D01*
X75203525Y-125732013D01*
X75706382Y-125396016D01*
X76042379Y-124893159D01*
X76099307Y-124606961D01*
X80649732Y-124606961D01*
X80885208Y-125176857D01*
X81320849Y-125613260D01*
X81890333Y-125849730D01*
X82506961Y-125850268D01*
X83076857Y-125614792D01*
X83513260Y-125179151D01*
X83749730Y-124609667D01*
X83750268Y-123993039D01*
X83659366Y-123773039D01*
X94653699Y-123773039D01*
X95520000Y-124639340D01*
X95959340Y-124200000D01*
X98335307Y-124200000D01*
X98335307Y-127200000D01*
X98387604Y-127477933D01*
X98551862Y-127733198D01*
X98802492Y-127904446D01*
X99100000Y-127964693D01*
X102100000Y-127964693D01*
X102377933Y-127912396D01*
X102633198Y-127748138D01*
X102804446Y-127497508D01*
X102864693Y-127200000D01*
X102864693Y-124915822D01*
X108213010Y-124915822D01*
X108674668Y-125445041D01*
X109328546Y-125842226D01*
X109625000Y-125735084D01*
X109625000Y-124625000D01*
X111375000Y-124625000D01*
X111375000Y-125735084D01*
X111671454Y-125842226D01*
X112325332Y-125445041D01*
X112786990Y-124915822D01*
X112707723Y-124625000D01*
X111375000Y-124625000D01*
X109625000Y-124625000D01*
X108292277Y-124625000D01*
X108213010Y-124915822D01*
X102864693Y-124915822D01*
X102864693Y-124200000D01*
X102812396Y-123922067D01*
X102648138Y-123666802D01*
X102397508Y-123495554D01*
X102100000Y-123435307D01*
X99100000Y-123435307D01*
X98822067Y-123487604D01*
X98566802Y-123651862D01*
X98395554Y-123902492D01*
X98335307Y-124200000D01*
X95959340Y-124200000D01*
X96386301Y-123773039D01*
X96192639Y-123498216D01*
X95298851Y-123408408D01*
X94847361Y-123498216D01*
X94653699Y-123773039D01*
X83659366Y-123773039D01*
X83514792Y-123423143D01*
X83176419Y-123084178D01*
X108213010Y-123084178D01*
X108292277Y-123375000D01*
X109625000Y-123375000D01*
X109625000Y-122264916D01*
X111375000Y-122264916D01*
X111375000Y-123375000D01*
X112707723Y-123375000D01*
X112786990Y-123084178D01*
X112325332Y-122554959D01*
X111671454Y-122157774D01*
X111375000Y-122264916D01*
X109625000Y-122264916D01*
X109328546Y-122157774D01*
X108674668Y-122554959D01*
X108213010Y-123084178D01*
X83176419Y-123084178D01*
X83079151Y-122986740D01*
X82509667Y-122750270D01*
X81893039Y-122749732D01*
X81323143Y-122985208D01*
X80886740Y-123420849D01*
X80650270Y-123990333D01*
X80649732Y-124606961D01*
X76099307Y-124606961D01*
X76160366Y-124300000D01*
X76042379Y-123706841D01*
X75706382Y-123203984D01*
X75203525Y-122867987D01*
X74610366Y-122750000D01*
X74549634Y-122750000D01*
X73956475Y-122867987D01*
X73453618Y-123203984D01*
X73117621Y-123706841D01*
X72999634Y-124300000D01*
X33752115Y-124300000D01*
X33555802Y-124218484D01*
X32449054Y-124217518D01*
X31426182Y-124640160D01*
X30825000Y-125240294D01*
X30825000Y-121206961D01*
X36549732Y-121206961D01*
X36785208Y-121776857D01*
X37220849Y-122213260D01*
X37790333Y-122449730D01*
X38406961Y-122450268D01*
X38976857Y-122214792D01*
X39413260Y-121779151D01*
X39649730Y-121209667D01*
X39649732Y-121206961D01*
X61049732Y-121206961D01*
X61285208Y-121776857D01*
X61720849Y-122213260D01*
X62290333Y-122449730D01*
X62906961Y-122450268D01*
X63476857Y-122214792D01*
X63913260Y-121779151D01*
X64149730Y-121209667D01*
X64150000Y-120900000D01*
X68639634Y-120900000D01*
X68757621Y-121493159D01*
X69093618Y-121996016D01*
X69596475Y-122332013D01*
X70189634Y-122450000D01*
X70250366Y-122450000D01*
X70843525Y-122332013D01*
X71346382Y-121996016D01*
X71682379Y-121493159D01*
X71800366Y-120900000D01*
X71780475Y-120800000D01*
X72999634Y-120800000D01*
X73117621Y-121393159D01*
X73453618Y-121896016D01*
X73956475Y-122232013D01*
X74549634Y-122350000D01*
X74610366Y-122350000D01*
X75203525Y-122232013D01*
X75706382Y-121896016D01*
X76042379Y-121393159D01*
X76099307Y-121106961D01*
X80649732Y-121106961D01*
X80885208Y-121676857D01*
X81320849Y-122113260D01*
X81890333Y-122349730D01*
X82506961Y-122350268D01*
X83076857Y-122114792D01*
X83513260Y-121679151D01*
X83749730Y-121109667D01*
X83750268Y-120493039D01*
X83514792Y-119923143D01*
X83079151Y-119486740D01*
X82509667Y-119250270D01*
X81893039Y-119249732D01*
X81323143Y-119485208D01*
X80886740Y-119920849D01*
X80650270Y-120490333D01*
X80649732Y-121106961D01*
X76099307Y-121106961D01*
X76160366Y-120800000D01*
X76042379Y-120206841D01*
X75706382Y-119703984D01*
X75203525Y-119367987D01*
X74610366Y-119250000D01*
X74549634Y-119250000D01*
X73956475Y-119367987D01*
X73453618Y-119703984D01*
X73117621Y-120206841D01*
X72999634Y-120800000D01*
X71780475Y-120800000D01*
X71682379Y-120306841D01*
X71346382Y-119803984D01*
X70843525Y-119467987D01*
X70250366Y-119350000D01*
X70189634Y-119350000D01*
X69596475Y-119467987D01*
X69093618Y-119803984D01*
X68757621Y-120306841D01*
X68639634Y-120900000D01*
X64150000Y-120900000D01*
X64150268Y-120593039D01*
X63914792Y-120023143D01*
X63479151Y-119586740D01*
X62909667Y-119350270D01*
X62293039Y-119349732D01*
X61723143Y-119585208D01*
X61286740Y-120020849D01*
X61050270Y-120590333D01*
X61049732Y-121206961D01*
X39649732Y-121206961D01*
X39650268Y-120593039D01*
X39414792Y-120023143D01*
X38979151Y-119586740D01*
X38409667Y-119350270D01*
X37793039Y-119349732D01*
X37223143Y-119585208D01*
X36786740Y-120020849D01*
X36550270Y-120590333D01*
X36549732Y-121206961D01*
X30825000Y-121206961D01*
X30825000Y-118451022D01*
X108500000Y-118451022D01*
X108500000Y-119548978D01*
X108652241Y-120314345D01*
X109085786Y-120963192D01*
X109734633Y-121396737D01*
X110500000Y-121548978D01*
X111265367Y-121396737D01*
X111914214Y-120963192D01*
X112347759Y-120314345D01*
X112500000Y-119548978D01*
X112500000Y-118451022D01*
X112453195Y-118215715D01*
X125250000Y-118215715D01*
X125250000Y-118284285D01*
X125383211Y-118953981D01*
X125762563Y-119521722D01*
X126330304Y-119901074D01*
X127000000Y-120034285D01*
X127669696Y-119901074D01*
X128237437Y-119521722D01*
X128616789Y-118953981D01*
X128750000Y-118284285D01*
X128750000Y-118215715D01*
X128616789Y-117546019D01*
X128237437Y-116978278D01*
X127669696Y-116598926D01*
X127000000Y-116465715D01*
X126330304Y-116598926D01*
X125762563Y-116978278D01*
X125383211Y-117546019D01*
X125250000Y-118215715D01*
X112453195Y-118215715D01*
X112347759Y-117685655D01*
X111914214Y-117036808D01*
X111265367Y-116603263D01*
X110500000Y-116451022D01*
X109734633Y-116603263D01*
X109085786Y-117036808D01*
X108652241Y-117685655D01*
X108500000Y-118451022D01*
X30825000Y-118451022D01*
X30825000Y-115830805D01*
X53034881Y-115830805D01*
X53119983Y-116078846D01*
X53730064Y-116188239D01*
X54280017Y-116078846D01*
X54365119Y-115830805D01*
X53700000Y-115165685D01*
X53034881Y-115830805D01*
X30825000Y-115830805D01*
X30825000Y-113249634D01*
X36550000Y-113249634D01*
X36550000Y-113310366D01*
X36667987Y-113903525D01*
X37003984Y-114406382D01*
X37506841Y-114742379D01*
X38100000Y-114860366D01*
X38693159Y-114742379D01*
X39196016Y-114406382D01*
X39532013Y-113903525D01*
X39574558Y-113689634D01*
X45250000Y-113689634D01*
X45250000Y-113750366D01*
X45367987Y-114343525D01*
X45703984Y-114846382D01*
X46206841Y-115182379D01*
X46800000Y-115300366D01*
X47393159Y-115182379D01*
X47896016Y-114846382D01*
X48040554Y-114630064D01*
X52111761Y-114630064D01*
X52221154Y-115180017D01*
X52469195Y-115265119D01*
X53134315Y-114600000D01*
X54265685Y-114600000D01*
X54930805Y-115265119D01*
X55178846Y-115180017D01*
X55227807Y-114906961D01*
X57149732Y-114906961D01*
X57385208Y-115476857D01*
X57820849Y-115913260D01*
X58390333Y-116149730D01*
X59006961Y-116150268D01*
X59576857Y-115914792D01*
X59885226Y-115606961D01*
X74049732Y-115606961D01*
X74285208Y-116176857D01*
X74720849Y-116613260D01*
X75290333Y-116849730D01*
X75906961Y-116850268D01*
X76476857Y-116614792D01*
X76913260Y-116179151D01*
X77149730Y-115609667D01*
X77149732Y-115606961D01*
X77949732Y-115606961D01*
X78185208Y-116176857D01*
X78620849Y-116613260D01*
X79190333Y-116849730D01*
X79806961Y-116850268D01*
X80376857Y-116614792D01*
X80813260Y-116179151D01*
X81049730Y-115609667D01*
X81049993Y-115307942D01*
X88549818Y-115307942D01*
X88709334Y-115694000D01*
X89004446Y-115989628D01*
X89390226Y-116149818D01*
X89807942Y-116150182D01*
X89929392Y-116100000D01*
X93329425Y-116100000D01*
X93690226Y-116249818D01*
X94107942Y-116250182D01*
X94494000Y-116090666D01*
X94789628Y-115795554D01*
X94949818Y-115409774D01*
X94950182Y-114992058D01*
X94790666Y-114606000D01*
X94495554Y-114310372D01*
X94199830Y-114187576D01*
X94182684Y-114176120D01*
X94162636Y-114172132D01*
X94109774Y-114150182D01*
X94052031Y-114150132D01*
X93800000Y-114100000D01*
X89929749Y-114100000D01*
X89809774Y-114050182D01*
X89392058Y-114049818D01*
X89006000Y-114209334D01*
X88710372Y-114504446D01*
X88550182Y-114890226D01*
X88549818Y-115307942D01*
X81049993Y-115307942D01*
X81050268Y-114993039D01*
X80814792Y-114423143D01*
X80379151Y-113986740D01*
X79809667Y-113750270D01*
X79500207Y-113750000D01*
X115951022Y-113750000D01*
X116103263Y-114515367D01*
X116536808Y-115164214D01*
X117185655Y-115597759D01*
X117951022Y-115750000D01*
X119048978Y-115750000D01*
X119814345Y-115597759D01*
X120463192Y-115164214D01*
X120625398Y-114921454D01*
X121657774Y-114921454D01*
X122054959Y-115575332D01*
X122584178Y-116036990D01*
X122875000Y-115957723D01*
X122875000Y-114625000D01*
X124125000Y-114625000D01*
X124125000Y-115957723D01*
X124415822Y-116036990D01*
X124945041Y-115575332D01*
X125342226Y-114921454D01*
X125235084Y-114625000D01*
X124125000Y-114625000D01*
X122875000Y-114625000D01*
X121764916Y-114625000D01*
X121657774Y-114921454D01*
X120625398Y-114921454D01*
X120896737Y-114515367D01*
X121048978Y-113750000D01*
X120896737Y-112984633D01*
X120625399Y-112578546D01*
X121657774Y-112578546D01*
X121764916Y-112875000D01*
X122875000Y-112875000D01*
X122875000Y-111542277D01*
X124125000Y-111542277D01*
X124125000Y-112875000D01*
X125235084Y-112875000D01*
X125342226Y-112578546D01*
X124945041Y-111924668D01*
X124415822Y-111463010D01*
X124125000Y-111542277D01*
X122875000Y-111542277D01*
X122584178Y-111463010D01*
X122054959Y-111924668D01*
X121657774Y-112578546D01*
X120625399Y-112578546D01*
X120463192Y-112335786D01*
X119814345Y-111902241D01*
X119048978Y-111750000D01*
X117951022Y-111750000D01*
X117185655Y-111902241D01*
X116536808Y-112335786D01*
X116103263Y-112984633D01*
X115951022Y-113750000D01*
X79500207Y-113750000D01*
X79193039Y-113749732D01*
X78623143Y-113985208D01*
X78186740Y-114420849D01*
X77950270Y-114990333D01*
X77949732Y-115606961D01*
X77149732Y-115606961D01*
X77150268Y-114993039D01*
X76914792Y-114423143D01*
X76479151Y-113986740D01*
X75909667Y-113750270D01*
X75293039Y-113749732D01*
X74723143Y-113985208D01*
X74286740Y-114420849D01*
X74050270Y-114990333D01*
X74049732Y-115606961D01*
X59885226Y-115606961D01*
X60013260Y-115479151D01*
X60249730Y-114909667D01*
X60250268Y-114293039D01*
X60014792Y-113723143D01*
X59579151Y-113286740D01*
X59009667Y-113050270D01*
X58393039Y-113049732D01*
X57823143Y-113285208D01*
X57386740Y-113720849D01*
X57150270Y-114290333D01*
X57149732Y-114906961D01*
X55227807Y-114906961D01*
X55288239Y-114569936D01*
X55178846Y-114019983D01*
X54930805Y-113934881D01*
X54265685Y-114600000D01*
X53134315Y-114600000D01*
X52469195Y-113934881D01*
X52221154Y-114019983D01*
X52111761Y-114630064D01*
X48040554Y-114630064D01*
X48232013Y-114343525D01*
X48350000Y-113750366D01*
X48350000Y-113689634D01*
X48286261Y-113369195D01*
X53034881Y-113369195D01*
X53700000Y-114034315D01*
X54365119Y-113369195D01*
X54280017Y-113121154D01*
X53669936Y-113011761D01*
X53119983Y-113121154D01*
X53034881Y-113369195D01*
X48286261Y-113369195D01*
X48232013Y-113096475D01*
X47896016Y-112593618D01*
X47393159Y-112257621D01*
X46800000Y-112139634D01*
X46206841Y-112257621D01*
X45703984Y-112593618D01*
X45367987Y-113096475D01*
X45250000Y-113689634D01*
X39574558Y-113689634D01*
X39650000Y-113310366D01*
X39650000Y-113249634D01*
X39532013Y-112656475D01*
X39196016Y-112153618D01*
X38693159Y-111817621D01*
X38100000Y-111699634D01*
X37506841Y-111817621D01*
X37003984Y-112153618D01*
X36667987Y-112656475D01*
X36550000Y-113249634D01*
X30825000Y-113249634D01*
X30825000Y-110965715D01*
X30950000Y-110965715D01*
X30950000Y-111034285D01*
X31083211Y-111703981D01*
X31462563Y-112271722D01*
X32030304Y-112651074D01*
X32700000Y-112784285D01*
X33369696Y-112651074D01*
X33937437Y-112271722D01*
X34316789Y-111703981D01*
X34450000Y-111034285D01*
X34450000Y-110965715D01*
X34398531Y-110706961D01*
X59949732Y-110706961D01*
X60185208Y-111276857D01*
X60620849Y-111713260D01*
X61190333Y-111949730D01*
X61806961Y-111950268D01*
X62376857Y-111714792D01*
X62813260Y-111279151D01*
X63049730Y-110709667D01*
X63050000Y-110400000D01*
X67539634Y-110400000D01*
X67657621Y-110993159D01*
X67993618Y-111496016D01*
X68496475Y-111832013D01*
X69089634Y-111950000D01*
X69150366Y-111950000D01*
X69743525Y-111832013D01*
X70246382Y-111496016D01*
X70582379Y-110993159D01*
X70659198Y-110606961D01*
X74049732Y-110606961D01*
X74285208Y-111176857D01*
X74720849Y-111613260D01*
X75290333Y-111849730D01*
X75906961Y-111850268D01*
X76476857Y-111614792D01*
X76913260Y-111179151D01*
X77149730Y-110609667D01*
X77150268Y-109993039D01*
X76914792Y-109423143D01*
X76479151Y-108986740D01*
X75909667Y-108750270D01*
X75293039Y-108749732D01*
X74723143Y-108985208D01*
X74286740Y-109420849D01*
X74050270Y-109990333D01*
X74049732Y-110606961D01*
X70659198Y-110606961D01*
X70700366Y-110400000D01*
X70582379Y-109806841D01*
X70246382Y-109303984D01*
X69743525Y-108967987D01*
X69150366Y-108850000D01*
X69089634Y-108850000D01*
X68496475Y-108967987D01*
X67993618Y-109303984D01*
X67657621Y-109806841D01*
X67539634Y-110400000D01*
X63050000Y-110400000D01*
X63050268Y-110093039D01*
X62814792Y-109523143D01*
X62379151Y-109086740D01*
X61809667Y-108850270D01*
X61193039Y-108849732D01*
X60623143Y-109085208D01*
X60186740Y-109520849D01*
X59950270Y-110090333D01*
X59949732Y-110706961D01*
X34398531Y-110706961D01*
X34316789Y-110296019D01*
X33937437Y-109728278D01*
X33369696Y-109348926D01*
X32700000Y-109215715D01*
X32030304Y-109348926D01*
X31462563Y-109728278D01*
X31083211Y-110296019D01*
X30950000Y-110965715D01*
X30825000Y-110965715D01*
X30825000Y-107671454D01*
X34357774Y-107671454D01*
X34754959Y-108325332D01*
X35284178Y-108786990D01*
X35575000Y-108707723D01*
X35575000Y-107375000D01*
X36825000Y-107375000D01*
X36825000Y-108707723D01*
X37115822Y-108786990D01*
X37645041Y-108325332D01*
X38042226Y-107671454D01*
X37935084Y-107375000D01*
X36825000Y-107375000D01*
X35575000Y-107375000D01*
X34464916Y-107375000D01*
X34357774Y-107671454D01*
X30825000Y-107671454D01*
X30825000Y-106500000D01*
X38651022Y-106500000D01*
X38803263Y-107265367D01*
X39236808Y-107914214D01*
X39885655Y-108347759D01*
X40651022Y-108500000D01*
X41748978Y-108500000D01*
X42514345Y-108347759D01*
X43163192Y-107914214D01*
X43596737Y-107265367D01*
X43748978Y-106500000D01*
X43730472Y-106406961D01*
X45249732Y-106406961D01*
X45485208Y-106976857D01*
X45920849Y-107413260D01*
X46490333Y-107649730D01*
X47106961Y-107650268D01*
X47676857Y-107414792D01*
X48113260Y-106979151D01*
X48309330Y-106506961D01*
X51949732Y-106506961D01*
X52185208Y-107076857D01*
X52620849Y-107513260D01*
X53190333Y-107749730D01*
X53806961Y-107750268D01*
X54376857Y-107514792D01*
X54813260Y-107079151D01*
X55049730Y-106509667D01*
X55050000Y-106200000D01*
X59539634Y-106200000D01*
X59657621Y-106793159D01*
X59993618Y-107296016D01*
X60496475Y-107632013D01*
X61089634Y-107750000D01*
X61150366Y-107750000D01*
X61654938Y-107649634D01*
X77950000Y-107649634D01*
X77950000Y-107710366D01*
X78067987Y-108303525D01*
X78403984Y-108806382D01*
X78906841Y-109142379D01*
X79500000Y-109260366D01*
X79724475Y-109215715D01*
X125250000Y-109215715D01*
X125250000Y-109284285D01*
X125383211Y-109953981D01*
X125762563Y-110521722D01*
X126330304Y-110901074D01*
X127000000Y-111034285D01*
X127669696Y-110901074D01*
X128237437Y-110521722D01*
X128616789Y-109953981D01*
X128750000Y-109284285D01*
X128750000Y-109215715D01*
X128616789Y-108546019D01*
X128237437Y-107978278D01*
X127669696Y-107598926D01*
X127000000Y-107465715D01*
X126330304Y-107598926D01*
X125762563Y-107978278D01*
X125383211Y-108546019D01*
X125250000Y-109215715D01*
X79724475Y-109215715D01*
X80093159Y-109142379D01*
X80596016Y-108806382D01*
X80780556Y-108530197D01*
X81074074Y-108334074D01*
X82083148Y-107325000D01*
X84689631Y-107325000D01*
X84990226Y-107449818D01*
X85407942Y-107450182D01*
X85794000Y-107290666D01*
X86089628Y-106995554D01*
X86188700Y-106756961D01*
X121383699Y-106756961D01*
X121577361Y-107031784D01*
X122471149Y-107121592D01*
X122922639Y-107031784D01*
X123116301Y-106756961D01*
X122250000Y-105890660D01*
X121383699Y-106756961D01*
X86188700Y-106756961D01*
X86249818Y-106609774D01*
X86250182Y-106192058D01*
X86090666Y-105806000D01*
X85795554Y-105510372D01*
X85409774Y-105350182D01*
X84992058Y-105349818D01*
X84689095Y-105475000D01*
X81700000Y-105475000D01*
X81346018Y-105545411D01*
X81226905Y-105625000D01*
X81045926Y-105745926D01*
X80381541Y-106410311D01*
X80093159Y-106217621D01*
X79500000Y-106099634D01*
X78906841Y-106217621D01*
X78403984Y-106553618D01*
X78067987Y-107056475D01*
X77950000Y-107649634D01*
X61654938Y-107649634D01*
X61743525Y-107632013D01*
X62246382Y-107296016D01*
X62582379Y-106793159D01*
X62700366Y-106200000D01*
X62582379Y-105606841D01*
X62246382Y-105103984D01*
X61743525Y-104767987D01*
X61150366Y-104650000D01*
X61089634Y-104650000D01*
X60496475Y-104767987D01*
X59993618Y-105103984D01*
X59657621Y-105606841D01*
X59539634Y-106200000D01*
X55050000Y-106200000D01*
X55050268Y-105893039D01*
X54814792Y-105323143D01*
X54379151Y-104886740D01*
X53809667Y-104650270D01*
X53193039Y-104649732D01*
X52623143Y-104885208D01*
X52186740Y-105320849D01*
X51950270Y-105890333D01*
X51949732Y-106506961D01*
X48309330Y-106506961D01*
X48349730Y-106409667D01*
X48350268Y-105793039D01*
X48114792Y-105223143D01*
X47679151Y-104786740D01*
X47109667Y-104550270D01*
X46493039Y-104549732D01*
X45923143Y-104785208D01*
X45486740Y-105220849D01*
X45250270Y-105790333D01*
X45249732Y-106406961D01*
X43730472Y-106406961D01*
X43596737Y-105734633D01*
X43163192Y-105085786D01*
X42514345Y-104652241D01*
X41748978Y-104500000D01*
X40651022Y-104500000D01*
X39885655Y-104652241D01*
X39236808Y-105085786D01*
X38803263Y-105734633D01*
X38651022Y-106500000D01*
X30825000Y-106500000D01*
X30825000Y-105328546D01*
X34357774Y-105328546D01*
X34464916Y-105625000D01*
X35575000Y-105625000D01*
X35575000Y-104292277D01*
X36825000Y-104292277D01*
X36825000Y-105625000D01*
X37935084Y-105625000D01*
X38042226Y-105328546D01*
X37645041Y-104674668D01*
X37115822Y-104213010D01*
X36825000Y-104292277D01*
X35575000Y-104292277D01*
X35284178Y-104213010D01*
X34754959Y-104674668D01*
X34357774Y-105328546D01*
X30825000Y-105328546D01*
X30825000Y-101965715D01*
X30950000Y-101965715D01*
X30950000Y-102034285D01*
X31083211Y-102703981D01*
X31462563Y-103271722D01*
X32030304Y-103651074D01*
X32700000Y-103784285D01*
X33369696Y-103651074D01*
X33937437Y-103271722D01*
X34316789Y-102703981D01*
X34415652Y-102206961D01*
X51949732Y-102206961D01*
X52185208Y-102776857D01*
X52620849Y-103213260D01*
X53190333Y-103449730D01*
X53806961Y-103450268D01*
X54376857Y-103214792D01*
X54813260Y-102779151D01*
X55049730Y-102209667D01*
X55050000Y-101900000D01*
X59539634Y-101900000D01*
X59657621Y-102493159D01*
X59993618Y-102996016D01*
X60496475Y-103332013D01*
X61089634Y-103450000D01*
X61150366Y-103450000D01*
X61743525Y-103332013D01*
X62246382Y-102996016D01*
X62439521Y-102706961D01*
X73349732Y-102706961D01*
X73585208Y-103276857D01*
X74020849Y-103713260D01*
X74590333Y-103949730D01*
X75206961Y-103950268D01*
X75776857Y-103714792D01*
X75902233Y-103589634D01*
X77450000Y-103589634D01*
X77450000Y-103650366D01*
X77567987Y-104243525D01*
X77903984Y-104746382D01*
X78406841Y-105082379D01*
X79000000Y-105200366D01*
X79593159Y-105082379D01*
X79665553Y-105034007D01*
X79846017Y-105154589D01*
X80200000Y-105225000D01*
X85889631Y-105225000D01*
X86190226Y-105349818D01*
X86607942Y-105350182D01*
X86994000Y-105190666D01*
X87133760Y-105051149D01*
X119958408Y-105051149D01*
X120048216Y-105502639D01*
X120323039Y-105696301D01*
X121189340Y-104830000D01*
X123310660Y-104830000D01*
X124176961Y-105696301D01*
X124451784Y-105502639D01*
X124541592Y-104608851D01*
X124451784Y-104157361D01*
X124176961Y-103963699D01*
X123310660Y-104830000D01*
X121189340Y-104830000D01*
X120323039Y-103963699D01*
X120048216Y-104157361D01*
X119958408Y-105051149D01*
X87133760Y-105051149D01*
X87289628Y-104895554D01*
X87449818Y-104509774D01*
X87450182Y-104092058D01*
X87290666Y-103706000D01*
X86995554Y-103410372D01*
X86609774Y-103250182D01*
X86192058Y-103249818D01*
X85889095Y-103375000D01*
X80583148Y-103375000D01*
X80488475Y-103280327D01*
X80432013Y-102996475D01*
X80369582Y-102903039D01*
X121383699Y-102903039D01*
X122250000Y-103769340D01*
X123116301Y-102903039D01*
X122922639Y-102628216D01*
X122028851Y-102538408D01*
X121577361Y-102628216D01*
X121383699Y-102903039D01*
X80369582Y-102903039D01*
X80096016Y-102493618D01*
X79593159Y-102157621D01*
X79000000Y-102039634D01*
X78406841Y-102157621D01*
X77903984Y-102493618D01*
X77567987Y-102996475D01*
X77450000Y-103589634D01*
X75902233Y-103589634D01*
X76213260Y-103279151D01*
X76449730Y-102709667D01*
X76450268Y-102093039D01*
X76214792Y-101523143D01*
X75779151Y-101086740D01*
X75209667Y-100850270D01*
X74593039Y-100849732D01*
X74023143Y-101085208D01*
X73586740Y-101520849D01*
X73350270Y-102090333D01*
X73349732Y-102706961D01*
X62439521Y-102706961D01*
X62582379Y-102493159D01*
X62700366Y-101900000D01*
X62582379Y-101306841D01*
X62246382Y-100803984D01*
X61743525Y-100467987D01*
X61150366Y-100350000D01*
X61089634Y-100350000D01*
X60496475Y-100467987D01*
X59993618Y-100803984D01*
X59657621Y-101306841D01*
X59539634Y-101900000D01*
X55050000Y-101900000D01*
X55050268Y-101593039D01*
X54814792Y-101023143D01*
X54379151Y-100586740D01*
X53809667Y-100350270D01*
X53193039Y-100349732D01*
X52623143Y-100585208D01*
X52186740Y-101020849D01*
X51950270Y-101590333D01*
X51949732Y-102206961D01*
X34415652Y-102206961D01*
X34450000Y-102034285D01*
X34450000Y-101965715D01*
X34316789Y-101296019D01*
X33937437Y-100728278D01*
X33533382Y-100458297D01*
X33569696Y-100451074D01*
X34137437Y-100071722D01*
X34516789Y-99503981D01*
X34650000Y-98834285D01*
X34650000Y-98765715D01*
X34598531Y-98506961D01*
X59549732Y-98506961D01*
X59785208Y-99076857D01*
X60220849Y-99513260D01*
X60790333Y-99749730D01*
X61406961Y-99750268D01*
X61976857Y-99514792D01*
X62413260Y-99079151D01*
X62649730Y-98509667D01*
X62650000Y-98200000D01*
X67139634Y-98200000D01*
X67257621Y-98793159D01*
X67593618Y-99296016D01*
X68096475Y-99632013D01*
X68689634Y-99750000D01*
X68750366Y-99750000D01*
X69343525Y-99632013D01*
X69846382Y-99296016D01*
X70182379Y-98793159D01*
X70300366Y-98200000D01*
X70202295Y-97706961D01*
X73349732Y-97706961D01*
X73585208Y-98276857D01*
X74020849Y-98713260D01*
X74590333Y-98949730D01*
X75206961Y-98950268D01*
X75776857Y-98714792D01*
X76213260Y-98279151D01*
X76225364Y-98250000D01*
X119985307Y-98250000D01*
X119985307Y-101250000D01*
X120037604Y-101527933D01*
X120201862Y-101783198D01*
X120452492Y-101954446D01*
X120750000Y-102014693D01*
X123750000Y-102014693D01*
X124027933Y-101962396D01*
X124283198Y-101798138D01*
X124454446Y-101547508D01*
X124514693Y-101250000D01*
X124514693Y-98250000D01*
X124462396Y-97972067D01*
X124298138Y-97716802D01*
X124047508Y-97545554D01*
X123750000Y-97485307D01*
X120750000Y-97485307D01*
X120472067Y-97537604D01*
X120216802Y-97701862D01*
X120045554Y-97952492D01*
X119985307Y-98250000D01*
X76225364Y-98250000D01*
X76449730Y-97709667D01*
X76450268Y-97093039D01*
X76214792Y-96523143D01*
X75998988Y-96306961D01*
X77449732Y-96306961D01*
X77685208Y-96876857D01*
X78120849Y-97313260D01*
X78690333Y-97549730D01*
X79306961Y-97550268D01*
X79876857Y-97314792D01*
X80313260Y-96879151D01*
X80549730Y-96309667D01*
X80550268Y-95693039D01*
X80373702Y-95265715D01*
X124550000Y-95265715D01*
X124550000Y-95334285D01*
X124683211Y-96003981D01*
X125062563Y-96571722D01*
X125630304Y-96951074D01*
X126300000Y-97084285D01*
X126969696Y-96951074D01*
X127537437Y-96571722D01*
X127916789Y-96003981D01*
X128050000Y-95334285D01*
X128050000Y-95265715D01*
X127916789Y-94596019D01*
X127537437Y-94028278D01*
X126969696Y-93648926D01*
X126300000Y-93515715D01*
X125630304Y-93648926D01*
X125062563Y-94028278D01*
X124683211Y-94596019D01*
X124550000Y-95265715D01*
X80373702Y-95265715D01*
X80314792Y-95123143D01*
X79879151Y-94686740D01*
X79309667Y-94450270D01*
X78693039Y-94449732D01*
X78123143Y-94685208D01*
X77686740Y-95120849D01*
X77450270Y-95690333D01*
X77449732Y-96306961D01*
X75998988Y-96306961D01*
X75779151Y-96086740D01*
X75209667Y-95850270D01*
X74593039Y-95849732D01*
X74023143Y-96085208D01*
X73586740Y-96520849D01*
X73350270Y-97090333D01*
X73349732Y-97706961D01*
X70202295Y-97706961D01*
X70182379Y-97606841D01*
X69846382Y-97103984D01*
X69343525Y-96767987D01*
X68750366Y-96650000D01*
X68689634Y-96650000D01*
X68096475Y-96767987D01*
X67593618Y-97103984D01*
X67257621Y-97606841D01*
X67139634Y-98200000D01*
X62650000Y-98200000D01*
X62650268Y-97893039D01*
X62414792Y-97323143D01*
X61979151Y-96886740D01*
X61409667Y-96650270D01*
X60793039Y-96649732D01*
X60223143Y-96885208D01*
X59786740Y-97320849D01*
X59550270Y-97890333D01*
X59549732Y-98506961D01*
X34598531Y-98506961D01*
X34516789Y-98096019D01*
X34137437Y-97528278D01*
X33569696Y-97148926D01*
X32900000Y-97015715D01*
X32230304Y-97148926D01*
X31662563Y-97528278D01*
X31283211Y-98096019D01*
X31150000Y-98765715D01*
X31150000Y-98834285D01*
X31283211Y-99503981D01*
X31662563Y-100071722D01*
X32066618Y-100341703D01*
X32030304Y-100348926D01*
X31462563Y-100728278D01*
X31083211Y-101296019D01*
X30950000Y-101965715D01*
X30825000Y-101965715D01*
X30825000Y-95471454D01*
X34557774Y-95471454D01*
X34954959Y-96125332D01*
X35484178Y-96586990D01*
X35775000Y-96507723D01*
X35775000Y-95175000D01*
X37025000Y-95175000D01*
X37025000Y-96507723D01*
X37315822Y-96586990D01*
X37845041Y-96125332D01*
X38242226Y-95471454D01*
X38135084Y-95175000D01*
X37025000Y-95175000D01*
X35775000Y-95175000D01*
X34664916Y-95175000D01*
X34557774Y-95471454D01*
X30825000Y-95471454D01*
X30825000Y-94300000D01*
X38851022Y-94300000D01*
X39003263Y-95065367D01*
X39436808Y-95714214D01*
X40085655Y-96147759D01*
X40851022Y-96300000D01*
X41948978Y-96300000D01*
X42714345Y-96147759D01*
X43363192Y-95714214D01*
X43796737Y-95065367D01*
X43863285Y-94730805D01*
X54634881Y-94730805D01*
X54719983Y-94978846D01*
X55330064Y-95088239D01*
X55880017Y-94978846D01*
X55965119Y-94730805D01*
X55300000Y-94065685D01*
X54634881Y-94730805D01*
X43863285Y-94730805D01*
X43948978Y-94300000D01*
X43796737Y-93534633D01*
X43793685Y-93530064D01*
X53711761Y-93530064D01*
X53821154Y-94080017D01*
X54069195Y-94165119D01*
X54734315Y-93500000D01*
X55865685Y-93500000D01*
X56530805Y-94165119D01*
X56778846Y-94080017D01*
X56827807Y-93806961D01*
X58749732Y-93806961D01*
X58985208Y-94376857D01*
X59420849Y-94813260D01*
X59990333Y-95049730D01*
X60606961Y-95050268D01*
X61176857Y-94814792D01*
X61613260Y-94379151D01*
X61849730Y-93809667D01*
X61850268Y-93193039D01*
X61614792Y-92623143D01*
X61179151Y-92186740D01*
X60609667Y-91950270D01*
X59993039Y-91949732D01*
X59423143Y-92185208D01*
X58986740Y-92620849D01*
X58750270Y-93190333D01*
X58749732Y-93806961D01*
X56827807Y-93806961D01*
X56888239Y-93469936D01*
X56778846Y-92919983D01*
X56530805Y-92834881D01*
X55865685Y-93500000D01*
X54734315Y-93500000D01*
X54069195Y-92834881D01*
X53821154Y-92919983D01*
X53711761Y-93530064D01*
X43793685Y-93530064D01*
X43363192Y-92885786D01*
X42714345Y-92452241D01*
X41948978Y-92300000D01*
X40851022Y-92300000D01*
X40085655Y-92452241D01*
X39436808Y-92885786D01*
X39003263Y-93534633D01*
X38851022Y-94300000D01*
X30825000Y-94300000D01*
X30825000Y-93128546D01*
X34557774Y-93128546D01*
X34664916Y-93425000D01*
X35775000Y-93425000D01*
X35775000Y-92092277D01*
X37025000Y-92092277D01*
X37025000Y-93425000D01*
X38135084Y-93425000D01*
X38242226Y-93128546D01*
X37845041Y-92474668D01*
X37609499Y-92269195D01*
X54634881Y-92269195D01*
X55300000Y-92934315D01*
X55965119Y-92269195D01*
X55880017Y-92021154D01*
X55269936Y-91911761D01*
X54719983Y-92021154D01*
X54634881Y-92269195D01*
X37609499Y-92269195D01*
X37315822Y-92013010D01*
X37025000Y-92092277D01*
X35775000Y-92092277D01*
X35484178Y-92013010D01*
X34954959Y-92474668D01*
X34557774Y-93128546D01*
X30825000Y-93128546D01*
X30825000Y-89765715D01*
X31150000Y-89765715D01*
X31150000Y-89834285D01*
X31283211Y-90503981D01*
X31662563Y-91071722D01*
X32230304Y-91451074D01*
X32900000Y-91584285D01*
X33569696Y-91451074D01*
X34137437Y-91071722D01*
X34318995Y-90800000D01*
X115251022Y-90800000D01*
X115403263Y-91565367D01*
X115836808Y-92214214D01*
X116485655Y-92647759D01*
X117251022Y-92800000D01*
X118348978Y-92800000D01*
X119114345Y-92647759D01*
X119763192Y-92214214D01*
X119925398Y-91971454D01*
X120957774Y-91971454D01*
X121354959Y-92625332D01*
X121884178Y-93086990D01*
X122175000Y-93007723D01*
X122175000Y-91675000D01*
X123425000Y-91675000D01*
X123425000Y-93007723D01*
X123715822Y-93086990D01*
X124245041Y-92625332D01*
X124642226Y-91971454D01*
X124535084Y-91675000D01*
X123425000Y-91675000D01*
X122175000Y-91675000D01*
X121064916Y-91675000D01*
X120957774Y-91971454D01*
X119925398Y-91971454D01*
X120196737Y-91565367D01*
X120348978Y-90800000D01*
X120196737Y-90034633D01*
X119925399Y-89628546D01*
X120957774Y-89628546D01*
X121064916Y-89925000D01*
X122175000Y-89925000D01*
X122175000Y-88592277D01*
X123425000Y-88592277D01*
X123425000Y-89925000D01*
X124535084Y-89925000D01*
X124642226Y-89628546D01*
X124245041Y-88974668D01*
X123715822Y-88513010D01*
X123425000Y-88592277D01*
X122175000Y-88592277D01*
X121884178Y-88513010D01*
X121354959Y-88974668D01*
X120957774Y-89628546D01*
X119925399Y-89628546D01*
X119763192Y-89385786D01*
X119114345Y-88952241D01*
X118348978Y-88800000D01*
X117251022Y-88800000D01*
X116485655Y-88952241D01*
X115836808Y-89385786D01*
X115403263Y-90034633D01*
X115251022Y-90800000D01*
X34318995Y-90800000D01*
X34516789Y-90503981D01*
X34650000Y-89834285D01*
X34650000Y-89765715D01*
X34516789Y-89096019D01*
X34137437Y-88528278D01*
X33569696Y-88148926D01*
X32900000Y-88015715D01*
X32230304Y-88148926D01*
X31662563Y-88528278D01*
X31283211Y-89096019D01*
X31150000Y-89765715D01*
X30825000Y-89765715D01*
X30825000Y-84000000D01*
X34985307Y-84000000D01*
X34985307Y-87000000D01*
X35037604Y-87277933D01*
X35201862Y-87533198D01*
X35452492Y-87704446D01*
X35750000Y-87764693D01*
X38750000Y-87764693D01*
X39027933Y-87712396D01*
X39283198Y-87548138D01*
X39454446Y-87297508D01*
X39514693Y-87000000D01*
X39514693Y-84789942D01*
X69561818Y-84789942D01*
X69687000Y-85092905D01*
X69687000Y-86103631D01*
X69562182Y-86404226D01*
X69561818Y-86821942D01*
X69721334Y-87208000D01*
X70016446Y-87503628D01*
X70402226Y-87663818D01*
X70819942Y-87664182D01*
X71206000Y-87504666D01*
X71501628Y-87209554D01*
X71661818Y-86823774D01*
X71662182Y-86406058D01*
X71604194Y-86265715D01*
X124550000Y-86265715D01*
X124550000Y-86334285D01*
X124683211Y-87003981D01*
X125062563Y-87571722D01*
X125630304Y-87951074D01*
X126300000Y-88084285D01*
X126969696Y-87951074D01*
X127537437Y-87571722D01*
X127916789Y-87003981D01*
X128050000Y-86334285D01*
X128050000Y-86265715D01*
X127916789Y-85596019D01*
X127537437Y-85028278D01*
X126969696Y-84648926D01*
X126300000Y-84515715D01*
X125630304Y-84648926D01*
X125062563Y-85028278D01*
X124683211Y-85596019D01*
X124550000Y-86265715D01*
X71604194Y-86265715D01*
X71537000Y-86103095D01*
X71537000Y-85092369D01*
X71661818Y-84791774D01*
X71662182Y-84374058D01*
X71502666Y-83988000D01*
X71207554Y-83692372D01*
X70821774Y-83532182D01*
X70404058Y-83531818D01*
X70018000Y-83691334D01*
X69722372Y-83986446D01*
X69562182Y-84372226D01*
X69561818Y-84789942D01*
X39514693Y-84789942D01*
X39514693Y-84000000D01*
X39462396Y-83722067D01*
X39298138Y-83466802D01*
X39047508Y-83295554D01*
X38750000Y-83235307D01*
X35750000Y-83235307D01*
X35472067Y-83287604D01*
X35216802Y-83451862D01*
X35045554Y-83702492D01*
X34985307Y-84000000D01*
X30825000Y-84000000D01*
X30825000Y-82346961D01*
X36383699Y-82346961D01*
X36577361Y-82621784D01*
X37471149Y-82711592D01*
X37922639Y-82621784D01*
X38116301Y-82346961D01*
X37525994Y-81756654D01*
X80950000Y-81756654D01*
X80950000Y-81819346D01*
X81071793Y-82431639D01*
X81418629Y-82950717D01*
X81937707Y-83297553D01*
X82550000Y-83419346D01*
X83162293Y-83297553D01*
X83589491Y-83012109D01*
X83691862Y-83171198D01*
X83942492Y-83342446D01*
X84240000Y-83402693D01*
X85940000Y-83402693D01*
X86217933Y-83350396D01*
X86473198Y-83186138D01*
X86644446Y-82935508D01*
X86704693Y-82638000D01*
X86704693Y-82565715D01*
X124650000Y-82565715D01*
X124650000Y-82634285D01*
X124783211Y-83303981D01*
X125162563Y-83871722D01*
X125730304Y-84251074D01*
X126400000Y-84384285D01*
X127069696Y-84251074D01*
X127637437Y-83871722D01*
X128016789Y-83303981D01*
X128150000Y-82634285D01*
X128150000Y-82565715D01*
X128016789Y-81896019D01*
X127637437Y-81328278D01*
X127069696Y-80948926D01*
X126400000Y-80815715D01*
X125730304Y-80948926D01*
X125162563Y-81328278D01*
X124783211Y-81896019D01*
X124650000Y-82565715D01*
X86704693Y-82565715D01*
X86704693Y-80938000D01*
X86652396Y-80660067D01*
X86488138Y-80404802D01*
X86237508Y-80233554D01*
X85940000Y-80173307D01*
X84240000Y-80173307D01*
X83962067Y-80225604D01*
X83706802Y-80389862D01*
X83588394Y-80563158D01*
X83162293Y-80278447D01*
X82550000Y-80156654D01*
X81937707Y-80278447D01*
X81418629Y-80625283D01*
X81071793Y-81144361D01*
X80950000Y-81756654D01*
X37525994Y-81756654D01*
X37250000Y-81480660D01*
X36383699Y-82346961D01*
X30825000Y-82346961D01*
X30825000Y-80641149D01*
X34958408Y-80641149D01*
X35048216Y-81092639D01*
X35323039Y-81286301D01*
X36189340Y-80420000D01*
X38310660Y-80420000D01*
X39176961Y-81286301D01*
X39451784Y-81092639D01*
X39541592Y-80198851D01*
X39451784Y-79747361D01*
X39176961Y-79553699D01*
X38310660Y-80420000D01*
X36189340Y-80420000D01*
X35323039Y-79553699D01*
X35048216Y-79747361D01*
X34958408Y-80641149D01*
X30825000Y-80641149D01*
X30825000Y-78493039D01*
X36383699Y-78493039D01*
X37250000Y-79359340D01*
X38116301Y-78493039D01*
X37922639Y-78218216D01*
X37028851Y-78128408D01*
X36577361Y-78218216D01*
X36383699Y-78493039D01*
X30825000Y-78493039D01*
X30825000Y-76661335D01*
X30883211Y-76953981D01*
X31262563Y-77521722D01*
X31830304Y-77901074D01*
X32500000Y-78034285D01*
X33169696Y-77901074D01*
X33737437Y-77521722D01*
X33782687Y-77454000D01*
X51517307Y-77454000D01*
X51517307Y-79154000D01*
X51569604Y-79431933D01*
X51733862Y-79687198D01*
X51984492Y-79858446D01*
X52282000Y-79918693D01*
X53982000Y-79918693D01*
X54259933Y-79866396D01*
X54515198Y-79702138D01*
X54633606Y-79528842D01*
X55059707Y-79813553D01*
X55672000Y-79935346D01*
X56284293Y-79813553D01*
X56803371Y-79466717D01*
X56840625Y-79410961D01*
X60381732Y-79410961D01*
X60617208Y-79980857D01*
X61052849Y-80417260D01*
X61622333Y-80653730D01*
X62238961Y-80654268D01*
X62808857Y-80418792D01*
X63245260Y-79983151D01*
X63481730Y-79413667D01*
X63482268Y-78797039D01*
X63246792Y-78227143D01*
X63119872Y-78100000D01*
X115351022Y-78100000D01*
X115503263Y-78865367D01*
X115936808Y-79514214D01*
X116585655Y-79947759D01*
X117351022Y-80100000D01*
X118448978Y-80100000D01*
X119214345Y-79947759D01*
X119863192Y-79514214D01*
X120025398Y-79271454D01*
X121057774Y-79271454D01*
X121454959Y-79925332D01*
X121984178Y-80386990D01*
X122275000Y-80307723D01*
X122275000Y-78975000D01*
X123525000Y-78975000D01*
X123525000Y-80307723D01*
X123815822Y-80386990D01*
X124345041Y-79925332D01*
X124742226Y-79271454D01*
X124635084Y-78975000D01*
X123525000Y-78975000D01*
X122275000Y-78975000D01*
X121164916Y-78975000D01*
X121057774Y-79271454D01*
X120025398Y-79271454D01*
X120296737Y-78865367D01*
X120448978Y-78100000D01*
X120296737Y-77334633D01*
X120025399Y-76928546D01*
X121057774Y-76928546D01*
X121164916Y-77225000D01*
X122275000Y-77225000D01*
X122275000Y-75892277D01*
X123525000Y-75892277D01*
X123525000Y-77225000D01*
X124635084Y-77225000D01*
X124742226Y-76928546D01*
X124345041Y-76274668D01*
X123815822Y-75813010D01*
X123525000Y-75892277D01*
X122275000Y-75892277D01*
X121984178Y-75813010D01*
X121454959Y-76274668D01*
X121057774Y-76928546D01*
X120025399Y-76928546D01*
X119863192Y-76685786D01*
X119214345Y-76252241D01*
X118448978Y-76100000D01*
X117351022Y-76100000D01*
X116585655Y-76252241D01*
X115936808Y-76685786D01*
X115503263Y-77334633D01*
X115351022Y-78100000D01*
X63119872Y-78100000D01*
X62811151Y-77790740D01*
X62241667Y-77554270D01*
X61625039Y-77553732D01*
X61055143Y-77789208D01*
X60618740Y-78224849D01*
X60382270Y-78794333D01*
X60381732Y-79410961D01*
X56840625Y-79410961D01*
X57150207Y-78947639D01*
X57272000Y-78335346D01*
X57272000Y-78272654D01*
X57150207Y-77660361D01*
X56803371Y-77141283D01*
X56284293Y-76794447D01*
X55672000Y-76672654D01*
X55059707Y-76794447D01*
X54632509Y-77079891D01*
X54530138Y-76920802D01*
X54279508Y-76749554D01*
X53982000Y-76689307D01*
X52282000Y-76689307D01*
X52004067Y-76741604D01*
X51748802Y-76905862D01*
X51577554Y-77156492D01*
X51517307Y-77454000D01*
X33782687Y-77454000D01*
X34116789Y-76953981D01*
X34250000Y-76284285D01*
X34250000Y-76215715D01*
X34116789Y-75546019D01*
X33826749Y-75111942D01*
X65781818Y-75111942D01*
X65941334Y-75498000D01*
X66236446Y-75793628D01*
X66622226Y-75953818D01*
X67039942Y-75954182D01*
X67426000Y-75794666D01*
X67692131Y-75529000D01*
X68015267Y-75529000D01*
X68402849Y-75917260D01*
X68972333Y-76153730D01*
X69588961Y-76154268D01*
X70158857Y-75918792D01*
X70595260Y-75483151D01*
X70831730Y-74913667D01*
X70832000Y-74604000D01*
X75321634Y-74604000D01*
X75439621Y-75197159D01*
X75775618Y-75700016D01*
X76278475Y-76036013D01*
X76871634Y-76154000D01*
X76932366Y-76154000D01*
X77525525Y-76036013D01*
X78028382Y-75700016D01*
X78364379Y-75197159D01*
X78482366Y-74604000D01*
X78364379Y-74010841D01*
X78028382Y-73507984D01*
X77525525Y-73171987D01*
X76932366Y-73054000D01*
X76871634Y-73054000D01*
X76278475Y-73171987D01*
X75775618Y-73507984D01*
X75439621Y-74010841D01*
X75321634Y-74604000D01*
X70832000Y-74604000D01*
X70832268Y-74297039D01*
X70596792Y-73727143D01*
X70161151Y-73290740D01*
X69591667Y-73054270D01*
X68975039Y-73053732D01*
X68405143Y-73289208D01*
X68014669Y-73679000D01*
X67132000Y-73679000D01*
X66778017Y-73749411D01*
X66618040Y-73856305D01*
X66238000Y-74013334D01*
X65942372Y-74308446D01*
X65782182Y-74694226D01*
X65781818Y-75111942D01*
X33826749Y-75111942D01*
X33737437Y-74978278D01*
X33169696Y-74598926D01*
X32500000Y-74465715D01*
X31830304Y-74598926D01*
X31262563Y-74978278D01*
X30883211Y-75546019D01*
X30825000Y-75838665D01*
X30825000Y-72921454D01*
X34157774Y-72921454D01*
X34554959Y-73575332D01*
X35084178Y-74036990D01*
X35375000Y-73957723D01*
X35375000Y-72625000D01*
X36625000Y-72625000D01*
X36625000Y-73957723D01*
X36915822Y-74036990D01*
X37445041Y-73575332D01*
X37842226Y-72921454D01*
X37735084Y-72625000D01*
X36625000Y-72625000D01*
X35375000Y-72625000D01*
X34264916Y-72625000D01*
X34157774Y-72921454D01*
X30825000Y-72921454D01*
X30825000Y-71750000D01*
X38451022Y-71750000D01*
X38603263Y-72515367D01*
X39036808Y-73164214D01*
X39685655Y-73597759D01*
X40451022Y-73750000D01*
X41548978Y-73750000D01*
X42314345Y-73597759D01*
X42963192Y-73164214D01*
X43396737Y-72515367D01*
X43548978Y-71750000D01*
X43400590Y-71004000D01*
X49231634Y-71004000D01*
X49349621Y-71597159D01*
X49685618Y-72100016D01*
X50188475Y-72436013D01*
X50781634Y-72554000D01*
X50842366Y-72554000D01*
X51435525Y-72436013D01*
X51938382Y-72100016D01*
X52274379Y-71597159D01*
X52331307Y-71310961D01*
X56881732Y-71310961D01*
X57117208Y-71880857D01*
X57552849Y-72317260D01*
X58122333Y-72553730D01*
X58738961Y-72554268D01*
X59308857Y-72318792D01*
X59745260Y-71883151D01*
X59923610Y-71453634D01*
X60382000Y-71453634D01*
X60382000Y-71514366D01*
X60499987Y-72107525D01*
X60835984Y-72610382D01*
X61338841Y-72946379D01*
X61932000Y-73064366D01*
X62525159Y-72946379D01*
X63028016Y-72610382D01*
X63364013Y-72107525D01*
X63482000Y-71514366D01*
X63482000Y-71453634D01*
X63412454Y-71104000D01*
X67831634Y-71104000D01*
X67949621Y-71697159D01*
X68285618Y-72200016D01*
X68788475Y-72536013D01*
X69381634Y-72654000D01*
X69442366Y-72654000D01*
X70035525Y-72536013D01*
X70538382Y-72200016D01*
X70874379Y-71697159D01*
X70931307Y-71410961D01*
X75481732Y-71410961D01*
X75717208Y-71980857D01*
X76152849Y-72417260D01*
X76722333Y-72653730D01*
X77338961Y-72654268D01*
X77908857Y-72418792D01*
X78134408Y-72193634D01*
X78682000Y-72193634D01*
X78682000Y-72254366D01*
X78799987Y-72847525D01*
X79135984Y-73350382D01*
X79638841Y-73686379D01*
X80232000Y-73804366D01*
X80825159Y-73686379D01*
X81328016Y-73350382D01*
X81664013Y-72847525D01*
X81782000Y-72254366D01*
X81782000Y-72193634D01*
X81664013Y-71600475D01*
X81328016Y-71097618D01*
X81217839Y-71024000D01*
X83400654Y-71024000D01*
X83522447Y-71636293D01*
X83869283Y-72155371D01*
X84076756Y-72294000D01*
X83869283Y-72432629D01*
X83522447Y-72951707D01*
X83400654Y-73564000D01*
X83522447Y-74176293D01*
X83807891Y-74603491D01*
X83648802Y-74705862D01*
X83477554Y-74956492D01*
X83417307Y-75254000D01*
X83417307Y-76954000D01*
X83469604Y-77231933D01*
X83633862Y-77487198D01*
X83884492Y-77658446D01*
X84182000Y-77718693D01*
X85882000Y-77718693D01*
X86159933Y-77666396D01*
X86415198Y-77502138D01*
X86586446Y-77251508D01*
X86646693Y-76954000D01*
X86646693Y-75254000D01*
X86594396Y-74976067D01*
X86430138Y-74720802D01*
X86256842Y-74602394D01*
X86541553Y-74176293D01*
X86663004Y-73565715D01*
X124650000Y-73565715D01*
X124650000Y-73634285D01*
X124783211Y-74303981D01*
X125162563Y-74871722D01*
X125730304Y-75251074D01*
X126400000Y-75384285D01*
X127069696Y-75251074D01*
X127637437Y-74871722D01*
X128016789Y-74303981D01*
X128150000Y-73634285D01*
X128150000Y-73565715D01*
X128016789Y-72896019D01*
X127637437Y-72328278D01*
X127069696Y-71948926D01*
X126400000Y-71815715D01*
X125730304Y-71948926D01*
X125162563Y-72328278D01*
X124783211Y-72896019D01*
X124650000Y-73565715D01*
X86663004Y-73565715D01*
X86663346Y-73564000D01*
X86541553Y-72951707D01*
X86194717Y-72432629D01*
X85987244Y-72294000D01*
X86194717Y-72155371D01*
X86541553Y-71636293D01*
X86663346Y-71024000D01*
X86541553Y-70411707D01*
X86194717Y-69892629D01*
X85675639Y-69545793D01*
X85063346Y-69424000D01*
X85000654Y-69424000D01*
X84388361Y-69545793D01*
X83869283Y-69892629D01*
X83522447Y-70411707D01*
X83400654Y-71024000D01*
X81217839Y-71024000D01*
X80825159Y-70761621D01*
X80232000Y-70643634D01*
X79638841Y-70761621D01*
X79135984Y-71097618D01*
X78799987Y-71600475D01*
X78682000Y-72193634D01*
X78134408Y-72193634D01*
X78345260Y-71983151D01*
X78581730Y-71413667D01*
X78582268Y-70797039D01*
X78346792Y-70227143D01*
X77911151Y-69790740D01*
X77341667Y-69554270D01*
X76725039Y-69553732D01*
X76155143Y-69789208D01*
X75718740Y-70224849D01*
X75482270Y-70794333D01*
X75481732Y-71410961D01*
X70931307Y-71410961D01*
X70992366Y-71104000D01*
X70874379Y-70510841D01*
X70538382Y-70007984D01*
X70035525Y-69671987D01*
X69442366Y-69554000D01*
X69381634Y-69554000D01*
X68788475Y-69671987D01*
X68285618Y-70007984D01*
X67949621Y-70510841D01*
X67831634Y-71104000D01*
X63412454Y-71104000D01*
X63364013Y-70860475D01*
X63028016Y-70357618D01*
X62525159Y-70021621D01*
X61932000Y-69903634D01*
X61338841Y-70021621D01*
X60835984Y-70357618D01*
X60499987Y-70860475D01*
X60382000Y-71453634D01*
X59923610Y-71453634D01*
X59981730Y-71313667D01*
X59982268Y-70697039D01*
X59746792Y-70127143D01*
X59311151Y-69690740D01*
X58741667Y-69454270D01*
X58125039Y-69453732D01*
X57555143Y-69689208D01*
X57118740Y-70124849D01*
X56882270Y-70694333D01*
X56881732Y-71310961D01*
X52331307Y-71310961D01*
X52392366Y-71004000D01*
X52274379Y-70410841D01*
X51938382Y-69907984D01*
X51435525Y-69571987D01*
X50842366Y-69454000D01*
X50781634Y-69454000D01*
X50188475Y-69571987D01*
X49685618Y-69907984D01*
X49349621Y-70410841D01*
X49231634Y-71004000D01*
X43400590Y-71004000D01*
X43396737Y-70984633D01*
X42963192Y-70335786D01*
X42314345Y-69902241D01*
X41548978Y-69750000D01*
X40451022Y-69750000D01*
X39685655Y-69902241D01*
X39036808Y-70335786D01*
X38603263Y-70984633D01*
X38451022Y-71750000D01*
X30825000Y-71750000D01*
X30825000Y-70578546D01*
X34157774Y-70578546D01*
X34264916Y-70875000D01*
X35375000Y-70875000D01*
X35375000Y-69542277D01*
X36625000Y-69542277D01*
X36625000Y-70875000D01*
X37735084Y-70875000D01*
X37842226Y-70578546D01*
X37445041Y-69924668D01*
X36915822Y-69463010D01*
X36625000Y-69542277D01*
X35375000Y-69542277D01*
X35084178Y-69463010D01*
X34554959Y-69924668D01*
X34157774Y-70578546D01*
X30825000Y-70578546D01*
X30825000Y-69040000D01*
X97068654Y-69040000D01*
X97190447Y-69652293D01*
X97537283Y-70171371D01*
X98056361Y-70518207D01*
X98668654Y-70640000D01*
X98731346Y-70640000D01*
X99343639Y-70518207D01*
X99862717Y-70171371D01*
X100209553Y-69652293D01*
X100331346Y-69040000D01*
X100209553Y-68427707D01*
X99950002Y-68039261D01*
X99950002Y-68004767D01*
X99979373Y-67992601D01*
X100192602Y-67779372D01*
X100308000Y-67500775D01*
X100308000Y-67114500D01*
X100118500Y-66925000D01*
X99125000Y-66925000D01*
X99125000Y-67350000D01*
X98275000Y-67350000D01*
X98275000Y-66925000D01*
X97281500Y-66925000D01*
X97092000Y-67114500D01*
X97092000Y-67500775D01*
X97207398Y-67779372D01*
X97420627Y-67992601D01*
X97449998Y-68004767D01*
X97449998Y-68039261D01*
X97190447Y-68427707D01*
X97068654Y-69040000D01*
X30825000Y-69040000D01*
X30825000Y-67661335D01*
X30883211Y-67953981D01*
X31262563Y-68521722D01*
X31830304Y-68901074D01*
X32500000Y-69034285D01*
X33169696Y-68901074D01*
X33737437Y-68521722D01*
X34116789Y-67953981D01*
X34250000Y-67284285D01*
X34250000Y-67263942D01*
X87087818Y-67263942D01*
X87247334Y-67650000D01*
X87542446Y-67945628D01*
X87928226Y-68105818D01*
X88345942Y-68106182D01*
X88732000Y-67946666D01*
X89027628Y-67651554D01*
X89153339Y-67348809D01*
X90316071Y-66186076D01*
X90316074Y-66186074D01*
X90471340Y-65953702D01*
X90551628Y-65873554D01*
X90707063Y-65499225D01*
X97092000Y-65499225D01*
X97092000Y-65885500D01*
X97281500Y-66075000D01*
X98275000Y-66075000D01*
X98275000Y-65081500D01*
X99125000Y-65081500D01*
X99125000Y-66075000D01*
X100118500Y-66075000D01*
X100308000Y-65885500D01*
X100308000Y-65499225D01*
X100192602Y-65220628D01*
X99979373Y-65007399D01*
X99700776Y-64892000D01*
X99314500Y-64892000D01*
X99125000Y-65081500D01*
X98275000Y-65081500D01*
X98085500Y-64892000D01*
X97699224Y-64892000D01*
X97420627Y-65007399D01*
X97207398Y-65220628D01*
X97092000Y-65499225D01*
X90707063Y-65499225D01*
X90711818Y-65487774D01*
X90712182Y-65070058D01*
X90552666Y-64684000D01*
X90257554Y-64388372D01*
X89871774Y-64228182D01*
X89454058Y-64227818D01*
X89068000Y-64387334D01*
X88772372Y-64682446D01*
X88612182Y-65068226D01*
X88612003Y-65273850D01*
X87844811Y-66041041D01*
X87544000Y-66165334D01*
X87248372Y-66460446D01*
X87088182Y-66846226D01*
X87087818Y-67263942D01*
X34250000Y-67263942D01*
X34250000Y-67215715D01*
X34116789Y-66546019D01*
X33834670Y-66123798D01*
X33987437Y-66021722D01*
X34366789Y-65453981D01*
X34500000Y-64784285D01*
X34500000Y-64715715D01*
X34437996Y-64404000D01*
X57031634Y-64404000D01*
X57149621Y-64997159D01*
X57485618Y-65500016D01*
X57988475Y-65836013D01*
X58581634Y-65954000D01*
X58642366Y-65954000D01*
X59235525Y-65836013D01*
X59738382Y-65500016D01*
X60074379Y-64997159D01*
X60131307Y-64710961D01*
X64681732Y-64710961D01*
X64917208Y-65280857D01*
X65352849Y-65717260D01*
X65922333Y-65953730D01*
X66538961Y-65954268D01*
X67108857Y-65718792D01*
X67545260Y-65283151D01*
X67699806Y-64910961D01*
X78681732Y-64910961D01*
X78917208Y-65480857D01*
X79352849Y-65917260D01*
X79922333Y-66153730D01*
X80538961Y-66154268D01*
X81108857Y-65918792D01*
X81545260Y-65483151D01*
X81781730Y-64913667D01*
X81782268Y-64297039D01*
X81546792Y-63727143D01*
X81111151Y-63290740D01*
X80541667Y-63054270D01*
X79925039Y-63053732D01*
X79355143Y-63289208D01*
X78918740Y-63724849D01*
X78682270Y-64294333D01*
X78681732Y-64910961D01*
X67699806Y-64910961D01*
X67781730Y-64713667D01*
X67782268Y-64097039D01*
X67546792Y-63527143D01*
X67111151Y-63090740D01*
X66541667Y-62854270D01*
X65925039Y-62853732D01*
X65355143Y-63089208D01*
X64918740Y-63524849D01*
X64682270Y-64094333D01*
X64681732Y-64710961D01*
X60131307Y-64710961D01*
X60192366Y-64404000D01*
X60074379Y-63810841D01*
X59738382Y-63307984D01*
X59235525Y-62971987D01*
X58642366Y-62854000D01*
X58581634Y-62854000D01*
X57988475Y-62971987D01*
X57485618Y-63307984D01*
X57149621Y-63810841D01*
X57031634Y-64404000D01*
X34437996Y-64404000D01*
X34366789Y-64046019D01*
X33987437Y-63478278D01*
X33419696Y-63098926D01*
X32750000Y-62965715D01*
X32080304Y-63098926D01*
X31512563Y-63478278D01*
X31133211Y-64046019D01*
X31000000Y-64715715D01*
X31000000Y-64784285D01*
X31133211Y-65453981D01*
X31415330Y-65876202D01*
X31262563Y-65978278D01*
X30883211Y-66546019D01*
X30825000Y-66838665D01*
X30825000Y-61421454D01*
X34407774Y-61421454D01*
X34804959Y-62075332D01*
X35334178Y-62536990D01*
X35625000Y-62457723D01*
X35625000Y-61125000D01*
X36875000Y-61125000D01*
X36875000Y-62457723D01*
X37165822Y-62536990D01*
X37695041Y-62075332D01*
X38092226Y-61421454D01*
X37985084Y-61125000D01*
X36875000Y-61125000D01*
X35625000Y-61125000D01*
X34514916Y-61125000D01*
X34407774Y-61421454D01*
X30825000Y-61421454D01*
X30825000Y-60250000D01*
X38701022Y-60250000D01*
X38853263Y-61015367D01*
X39286808Y-61664214D01*
X39935655Y-62097759D01*
X40701022Y-62250000D01*
X41798978Y-62250000D01*
X42564345Y-62097759D01*
X43213192Y-61664214D01*
X43646737Y-61015367D01*
X43798978Y-60250000D01*
X43646737Y-59484633D01*
X43213192Y-58835786D01*
X42564345Y-58402241D01*
X41798978Y-58250000D01*
X40701022Y-58250000D01*
X39935655Y-58402241D01*
X39286808Y-58835786D01*
X38853263Y-59484633D01*
X38701022Y-60250000D01*
X30825000Y-60250000D01*
X30825000Y-59078546D01*
X34407774Y-59078546D01*
X34514916Y-59375000D01*
X35625000Y-59375000D01*
X35625000Y-58042277D01*
X36875000Y-58042277D01*
X36875000Y-59375000D01*
X37985084Y-59375000D01*
X38092226Y-59078546D01*
X37695041Y-58424668D01*
X37396226Y-58164000D01*
X62200654Y-58164000D01*
X62322447Y-58776293D01*
X62607891Y-59203491D01*
X62448802Y-59305862D01*
X62277554Y-59556492D01*
X62217307Y-59854000D01*
X62217307Y-61554000D01*
X62269604Y-61831933D01*
X62433862Y-62087198D01*
X62684492Y-62258446D01*
X62982000Y-62318693D01*
X64682000Y-62318693D01*
X64959933Y-62266396D01*
X65215198Y-62102138D01*
X65386446Y-61851508D01*
X65446693Y-61554000D01*
X65446693Y-59854000D01*
X65431640Y-59774000D01*
X83400654Y-59774000D01*
X83522447Y-60386293D01*
X83869283Y-60905371D01*
X84076756Y-61044000D01*
X83869283Y-61182629D01*
X83522447Y-61701707D01*
X83400654Y-62314000D01*
X83522447Y-62926293D01*
X83807891Y-63353491D01*
X83648802Y-63455862D01*
X83477554Y-63706492D01*
X83417307Y-64004000D01*
X83417307Y-65704000D01*
X83469604Y-65981933D01*
X83633862Y-66237198D01*
X83884492Y-66408446D01*
X84182000Y-66468693D01*
X85882000Y-66468693D01*
X86159933Y-66416396D01*
X86415198Y-66252138D01*
X86586446Y-66001508D01*
X86646693Y-65704000D01*
X86646693Y-64004000D01*
X86594396Y-63726067D01*
X86430138Y-63470802D01*
X86256842Y-63352394D01*
X86541553Y-62926293D01*
X86663346Y-62314000D01*
X86541553Y-61701707D01*
X86194717Y-61182629D01*
X85987244Y-61044000D01*
X86194717Y-60905371D01*
X86541553Y-60386293D01*
X86663346Y-59774000D01*
X86541553Y-59161707D01*
X86194717Y-58642629D01*
X85675639Y-58295793D01*
X85063346Y-58174000D01*
X85000654Y-58174000D01*
X84388361Y-58295793D01*
X83869283Y-58642629D01*
X83522447Y-59161707D01*
X83400654Y-59774000D01*
X65431640Y-59774000D01*
X65394396Y-59576067D01*
X65230138Y-59320802D01*
X65056842Y-59202394D01*
X65341553Y-58776293D01*
X65463346Y-58164000D01*
X65341553Y-57551707D01*
X64994717Y-57032629D01*
X64475639Y-56685793D01*
X63863346Y-56564000D01*
X63800654Y-56564000D01*
X63188361Y-56685793D01*
X62669283Y-57032629D01*
X62322447Y-57551707D01*
X62200654Y-58164000D01*
X37396226Y-58164000D01*
X37165822Y-57963010D01*
X36875000Y-58042277D01*
X35625000Y-58042277D01*
X35334178Y-57963010D01*
X34804959Y-58424668D01*
X34407774Y-59078546D01*
X30825000Y-59078546D01*
X30825000Y-55715715D01*
X31000000Y-55715715D01*
X31000000Y-55784285D01*
X31133211Y-56453981D01*
X31512563Y-57021722D01*
X32080304Y-57401074D01*
X32750000Y-57534285D01*
X33419696Y-57401074D01*
X33987437Y-57021722D01*
X34366789Y-56453981D01*
X34498140Y-55793634D01*
X55082000Y-55793634D01*
X55082000Y-55854366D01*
X55199987Y-56447525D01*
X55535984Y-56950382D01*
X56038841Y-57286379D01*
X56632000Y-57404366D01*
X57225159Y-57286379D01*
X57728016Y-56950382D01*
X58064013Y-56447525D01*
X58182000Y-55854366D01*
X58182000Y-55793634D01*
X58064013Y-55200475D01*
X57728016Y-54697618D01*
X57225159Y-54361621D01*
X56632000Y-54243634D01*
X56038841Y-54361621D01*
X55535984Y-54697618D01*
X55199987Y-55200475D01*
X55082000Y-55793634D01*
X34498140Y-55793634D01*
X34500000Y-55784285D01*
X34500000Y-55715715D01*
X34366789Y-55046019D01*
X33987437Y-54478278D01*
X33419696Y-54098926D01*
X33233766Y-54061942D01*
X69231818Y-54061942D01*
X69391334Y-54448000D01*
X69686446Y-54743628D01*
X69857000Y-54814448D01*
X69857000Y-56843631D01*
X69732182Y-57144226D01*
X69731818Y-57561942D01*
X69891334Y-57948000D01*
X70186446Y-58243628D01*
X70572226Y-58403818D01*
X70989942Y-58404182D01*
X71376000Y-58244666D01*
X71671628Y-57949554D01*
X71831818Y-57563774D01*
X71832182Y-57146058D01*
X71719174Y-56872559D01*
X72188841Y-57186379D01*
X72782000Y-57304366D01*
X73375159Y-57186379D01*
X73878016Y-56850382D01*
X74214013Y-56347525D01*
X74332000Y-55754366D01*
X74332000Y-55693634D01*
X74214013Y-55100475D01*
X73878016Y-54597618D01*
X73375159Y-54261621D01*
X72782000Y-54143634D01*
X72188841Y-54261621D01*
X71707000Y-54583576D01*
X71707000Y-54354000D01*
X71636589Y-54000018D01*
X71436074Y-53699926D01*
X71296958Y-53560810D01*
X71172666Y-53260000D01*
X70877554Y-52964372D01*
X70491774Y-52804182D01*
X70074058Y-52803818D01*
X69688000Y-52963334D01*
X69392372Y-53258446D01*
X69232182Y-53644226D01*
X69231818Y-54061942D01*
X33233766Y-54061942D01*
X32750000Y-53965715D01*
X32080304Y-54098926D01*
X31512563Y-54478278D01*
X31133211Y-55046019D01*
X31000000Y-55715715D01*
X30825000Y-55715715D01*
X30825000Y-49500000D01*
X35735307Y-49500000D01*
X35735307Y-52500000D01*
X35787604Y-52777933D01*
X35951862Y-53033198D01*
X36202492Y-53204446D01*
X36500000Y-53264693D01*
X39500000Y-53264693D01*
X39777933Y-53212396D01*
X40033198Y-53048138D01*
X40204446Y-52797508D01*
X40264693Y-52500000D01*
X40264693Y-52244000D01*
X83500654Y-52244000D01*
X83622447Y-52856293D01*
X83969283Y-53375371D01*
X84488361Y-53722207D01*
X85100654Y-53844000D01*
X85163346Y-53844000D01*
X85775639Y-53722207D01*
X86294717Y-53375371D01*
X86641553Y-52856293D01*
X86763346Y-52244000D01*
X86641553Y-51631707D01*
X86356109Y-51204509D01*
X86515198Y-51102138D01*
X86686446Y-50851508D01*
X86735769Y-50607942D01*
X95449818Y-50607942D01*
X95609334Y-50994000D01*
X95904446Y-51289628D01*
X96290226Y-51449818D01*
X96707942Y-51450182D01*
X97094000Y-51290666D01*
X97389628Y-50995554D01*
X97549818Y-50609774D01*
X97550182Y-50192058D01*
X97425000Y-49889095D01*
X97425000Y-48560069D01*
X97489628Y-48495554D01*
X97649818Y-48109774D01*
X97650182Y-47692058D01*
X97490666Y-47306000D01*
X97195554Y-47010372D01*
X96809774Y-46850182D01*
X96392058Y-46849818D01*
X96006000Y-47009334D01*
X95710372Y-47304446D01*
X95550182Y-47690226D01*
X95549818Y-48107942D01*
X95575000Y-48168887D01*
X95575000Y-49889631D01*
X95450182Y-50190226D01*
X95449818Y-50607942D01*
X86735769Y-50607942D01*
X86746693Y-50554000D01*
X86746693Y-48854000D01*
X86694396Y-48576067D01*
X86530138Y-48320802D01*
X86279508Y-48149554D01*
X85982000Y-48089307D01*
X84282000Y-48089307D01*
X84004067Y-48141604D01*
X83748802Y-48305862D01*
X83577554Y-48556492D01*
X83517307Y-48854000D01*
X83517307Y-50554000D01*
X83569604Y-50831933D01*
X83733862Y-51087198D01*
X83907158Y-51205606D01*
X83622447Y-51631707D01*
X83500654Y-52244000D01*
X40264693Y-52244000D01*
X40264693Y-51207942D01*
X63949818Y-51207942D01*
X64109334Y-51594000D01*
X64404446Y-51889628D01*
X64790226Y-52049818D01*
X65207942Y-52050182D01*
X65510905Y-51925000D01*
X67739631Y-51925000D01*
X68040226Y-52049818D01*
X68457942Y-52050182D01*
X68844000Y-51890666D01*
X69139628Y-51595554D01*
X69299818Y-51209774D01*
X69300182Y-50792058D01*
X69140666Y-50406000D01*
X68845554Y-50110372D01*
X68459774Y-49950182D01*
X68042058Y-49949818D01*
X67739095Y-50075000D01*
X65510369Y-50075000D01*
X65209774Y-49950182D01*
X64792058Y-49949818D01*
X64406000Y-50109334D01*
X64110372Y-50404446D01*
X63950182Y-50790226D01*
X63949818Y-51207942D01*
X40264693Y-51207942D01*
X40264693Y-49500000D01*
X40212396Y-49222067D01*
X40048138Y-48966802D01*
X39797508Y-48795554D01*
X39500000Y-48735307D01*
X36500000Y-48735307D01*
X36222067Y-48787604D01*
X35966802Y-48951862D01*
X35795554Y-49202492D01*
X35735307Y-49500000D01*
X30825000Y-49500000D01*
X30825000Y-48510961D01*
X55081732Y-48510961D01*
X55317208Y-49080857D01*
X55752849Y-49517260D01*
X56322333Y-49753730D01*
X56938961Y-49754268D01*
X57508857Y-49518792D01*
X57945260Y-49083151D01*
X58181730Y-48513667D01*
X58181819Y-48410961D01*
X71231732Y-48410961D01*
X71467208Y-48980857D01*
X71902849Y-49417260D01*
X72472333Y-49653730D01*
X73088961Y-49654268D01*
X73658857Y-49418792D01*
X74095260Y-48983151D01*
X74331730Y-48413667D01*
X74332268Y-47797039D01*
X74096792Y-47227143D01*
X73661151Y-46790740D01*
X73091667Y-46554270D01*
X72475039Y-46553732D01*
X71905143Y-46789208D01*
X71468740Y-47224849D01*
X71232270Y-47794333D01*
X71231732Y-48410961D01*
X58181819Y-48410961D01*
X58182268Y-47897039D01*
X57946792Y-47327143D01*
X57511151Y-46890740D01*
X56941667Y-46654270D01*
X56325039Y-46653732D01*
X55755143Y-46889208D01*
X55318740Y-47324849D01*
X55082270Y-47894333D01*
X55081732Y-48510961D01*
X30825000Y-48510961D01*
X30825000Y-47846961D01*
X37133699Y-47846961D01*
X37327361Y-48121784D01*
X38221149Y-48211592D01*
X38672639Y-48121784D01*
X38866301Y-47846961D01*
X38000000Y-46980660D01*
X37133699Y-47846961D01*
X30825000Y-47846961D01*
X30825000Y-46141149D01*
X35708408Y-46141149D01*
X35798216Y-46592639D01*
X36073039Y-46786301D01*
X36939340Y-45920000D01*
X39060660Y-45920000D01*
X39926961Y-46786301D01*
X40201784Y-46592639D01*
X40291592Y-45698851D01*
X40201784Y-45247361D01*
X39926961Y-45053699D01*
X39060660Y-45920000D01*
X36939340Y-45920000D01*
X36073039Y-45053699D01*
X35798216Y-45247361D01*
X35708408Y-46141149D01*
X30825000Y-46141149D01*
X30825000Y-43993039D01*
X37133699Y-43993039D01*
X38000000Y-44859340D01*
X38866301Y-43993039D01*
X38672639Y-43718216D01*
X37778851Y-43628408D01*
X37327361Y-43718216D01*
X37133699Y-43993039D01*
X30825000Y-43993039D01*
X30825000Y-34758981D01*
X31422066Y-35357090D01*
X32444198Y-35781516D01*
X33550946Y-35782482D01*
X34573818Y-35359840D01*
X34683849Y-35250000D01*
X40235307Y-35250000D01*
X40235307Y-37250000D01*
X40287604Y-37527933D01*
X40451862Y-37783198D01*
X40702492Y-37954446D01*
X41000000Y-38014693D01*
X43000000Y-38014693D01*
X43277933Y-37962396D01*
X43533198Y-37798138D01*
X43613609Y-37680452D01*
X46276655Y-37680452D01*
X46392759Y-37936448D01*
X47084358Y-38040455D01*
X47607241Y-37936448D01*
X47723345Y-37680452D01*
X47000000Y-36957107D01*
X46276655Y-37680452D01*
X43613609Y-37680452D01*
X43704446Y-37547508D01*
X43764693Y-37250000D01*
X43764693Y-36334358D01*
X45209545Y-36334358D01*
X45313552Y-36857241D01*
X45569548Y-36973345D01*
X46292893Y-36250000D01*
X47707107Y-36250000D01*
X48430452Y-36973345D01*
X48686448Y-36857241D01*
X48790455Y-36165642D01*
X48686448Y-35642759D01*
X48430452Y-35526655D01*
X47707107Y-36250000D01*
X46292893Y-36250000D01*
X45569548Y-35526655D01*
X45313552Y-35642759D01*
X45209545Y-36334358D01*
X43764693Y-36334358D01*
X43764693Y-35250000D01*
X43712396Y-34972067D01*
X43614254Y-34819548D01*
X46276655Y-34819548D01*
X47000000Y-35542893D01*
X47542893Y-35000000D01*
X51485307Y-35000000D01*
X51485307Y-37000000D01*
X51537604Y-37277933D01*
X51701862Y-37533198D01*
X51952492Y-37704446D01*
X52250000Y-37764693D01*
X54250000Y-37764693D01*
X54527933Y-37712396D01*
X54783198Y-37548138D01*
X54863609Y-37430452D01*
X57526655Y-37430452D01*
X57642759Y-37686448D01*
X58334358Y-37790455D01*
X58857241Y-37686448D01*
X58973345Y-37430452D01*
X58250000Y-36707107D01*
X57526655Y-37430452D01*
X54863609Y-37430452D01*
X54954446Y-37297508D01*
X55014693Y-37000000D01*
X55014693Y-36084358D01*
X56459545Y-36084358D01*
X56563552Y-36607241D01*
X56819548Y-36723345D01*
X57542893Y-36000000D01*
X58957107Y-36000000D01*
X59680452Y-36723345D01*
X59936448Y-36607241D01*
X59952575Y-36500000D01*
X61285307Y-36500000D01*
X61285307Y-40000000D01*
X61337604Y-40277933D01*
X61501862Y-40533198D01*
X61752492Y-40704446D01*
X62050000Y-40764693D01*
X65550000Y-40764693D01*
X65827933Y-40712396D01*
X65985307Y-40611129D01*
X65985307Y-43000000D01*
X66037604Y-43277933D01*
X66201862Y-43533198D01*
X66452492Y-43704446D01*
X66750000Y-43764693D01*
X70250000Y-43764693D01*
X70527933Y-43712396D01*
X70783198Y-43548138D01*
X70954446Y-43297508D01*
X70972583Y-43207942D01*
X94449818Y-43207942D01*
X94609334Y-43594000D01*
X94904446Y-43889628D01*
X95290226Y-44049818D01*
X95707942Y-44050182D01*
X96094000Y-43890666D01*
X96389628Y-43595554D01*
X96440022Y-43474192D01*
X97834214Y-42080000D01*
X97999504Y-42080000D01*
X98087283Y-42211371D01*
X98606361Y-42558207D01*
X99218654Y-42680000D01*
X99281346Y-42680000D01*
X99893639Y-42558207D01*
X100412717Y-42211371D01*
X100759553Y-41692293D01*
X100881346Y-41080000D01*
X100759553Y-40467707D01*
X100412717Y-39948629D01*
X100205244Y-39810000D01*
X100412717Y-39671371D01*
X100759553Y-39152293D01*
X100881346Y-38540000D01*
X100759553Y-37927707D01*
X100474109Y-37500509D01*
X100633198Y-37398138D01*
X100804446Y-37147508D01*
X100864693Y-36850000D01*
X100864693Y-35707069D01*
X106025161Y-35707069D01*
X106841235Y-36523143D01*
X106720630Y-36643537D01*
X106490262Y-37198325D01*
X106489738Y-37799040D01*
X106719138Y-38354229D01*
X107143537Y-38779370D01*
X107698325Y-39009738D01*
X108299040Y-39010262D01*
X108854229Y-38780862D01*
X109270353Y-38365464D01*
X109683537Y-38779370D01*
X110238325Y-39009738D01*
X110839040Y-39010262D01*
X111394229Y-38780862D01*
X111819370Y-38356463D01*
X112049738Y-37801675D01*
X112050262Y-37200960D01*
X111820862Y-36645771D01*
X111675464Y-36500118D01*
X111819370Y-36356463D01*
X112049738Y-35801675D01*
X112050262Y-35200960D01*
X111820862Y-34645771D01*
X111753503Y-34578294D01*
X114446301Y-34578294D01*
X114616679Y-34847597D01*
X115449992Y-34941748D01*
X115923321Y-34847597D01*
X116093699Y-34578294D01*
X115270000Y-33754594D01*
X114446301Y-34578294D01*
X111753503Y-34578294D01*
X111396463Y-34220630D01*
X110841675Y-33990262D01*
X110240960Y-33989738D01*
X109685771Y-34219138D01*
X109260630Y-34643537D01*
X109166022Y-34871379D01*
X108537401Y-35500000D01*
X108806102Y-35768701D01*
X108501546Y-36073256D01*
X108301675Y-35990262D01*
X107700960Y-35989738D01*
X107498564Y-36073366D01*
X107193899Y-35768701D01*
X107462599Y-35500000D01*
X106809233Y-34846634D01*
X106562821Y-34925534D01*
X106507089Y-35225141D01*
X106025161Y-35707069D01*
X100864693Y-35707069D01*
X100864693Y-35150000D01*
X100812396Y-34872067D01*
X100648138Y-34616802D01*
X100591780Y-34578294D01*
X102446301Y-34578294D01*
X102616679Y-34847597D01*
X103449992Y-34941748D01*
X103923321Y-34847597D01*
X104093699Y-34578294D01*
X103824639Y-34309233D01*
X107346634Y-34309233D01*
X108000000Y-34962599D01*
X108653366Y-34309233D01*
X108574466Y-34062821D01*
X107980753Y-33952381D01*
X107425534Y-34062821D01*
X107346634Y-34309233D01*
X103824639Y-34309233D01*
X103270000Y-33754594D01*
X102446301Y-34578294D01*
X100591780Y-34578294D01*
X100397508Y-34445554D01*
X100100000Y-34385307D01*
X98400000Y-34385307D01*
X98122067Y-34437604D01*
X97866802Y-34601862D01*
X97695554Y-34852492D01*
X97635307Y-35150000D01*
X97635307Y-36850000D01*
X97687604Y-37127933D01*
X97851862Y-37383198D01*
X98025158Y-37501606D01*
X97740447Y-37927707D01*
X97618654Y-38540000D01*
X97740447Y-39152293D01*
X98087283Y-39671371D01*
X98294756Y-39810000D01*
X98087283Y-39948629D01*
X97999504Y-40080000D01*
X97420000Y-40080000D01*
X97037316Y-40156120D01*
X96712893Y-40372893D01*
X95026060Y-42059726D01*
X94906000Y-42109334D01*
X94610372Y-42404446D01*
X94450182Y-42790226D01*
X94449818Y-43207942D01*
X70972583Y-43207942D01*
X71014693Y-43000000D01*
X71014693Y-39500000D01*
X70962396Y-39222067D01*
X70798138Y-38966802D01*
X70547508Y-38795554D01*
X70250000Y-38735307D01*
X66750000Y-38735307D01*
X66472067Y-38787604D01*
X66314693Y-38888871D01*
X66314693Y-37636667D01*
X66320628Y-37642602D01*
X66599225Y-37758000D01*
X67435500Y-37758000D01*
X67625000Y-37568500D01*
X67625000Y-36125000D01*
X69375000Y-36125000D01*
X69375000Y-37568500D01*
X69564500Y-37758000D01*
X70400775Y-37758000D01*
X70679372Y-37642602D01*
X70892601Y-37429373D01*
X71008000Y-37150776D01*
X71008000Y-36314500D01*
X70818500Y-36125000D01*
X69375000Y-36125000D01*
X67625000Y-36125000D01*
X66199935Y-36125000D01*
X66098138Y-35966802D01*
X65847508Y-35795554D01*
X65550000Y-35735307D01*
X62050000Y-35735307D01*
X61772067Y-35787604D01*
X61516802Y-35951862D01*
X61345554Y-36202492D01*
X61285307Y-36500000D01*
X59952575Y-36500000D01*
X60040455Y-35915642D01*
X59936448Y-35392759D01*
X59680452Y-35276655D01*
X58957107Y-36000000D01*
X57542893Y-36000000D01*
X56819548Y-35276655D01*
X56563552Y-35392759D01*
X56459545Y-36084358D01*
X55014693Y-36084358D01*
X55014693Y-35000000D01*
X54962396Y-34722067D01*
X54864254Y-34569548D01*
X57526655Y-34569548D01*
X58250000Y-35292893D01*
X58973345Y-34569548D01*
X58857241Y-34313552D01*
X58165642Y-34209545D01*
X57642759Y-34313552D01*
X57526655Y-34569548D01*
X54864254Y-34569548D01*
X54798138Y-34466802D01*
X54547508Y-34295554D01*
X54250000Y-34235307D01*
X52250000Y-34235307D01*
X51972067Y-34287604D01*
X51716802Y-34451862D01*
X51545554Y-34702492D01*
X51485307Y-35000000D01*
X47542893Y-35000000D01*
X47723345Y-34819548D01*
X47607241Y-34563552D01*
X46915642Y-34459545D01*
X46392759Y-34563552D01*
X46276655Y-34819548D01*
X43614254Y-34819548D01*
X43548138Y-34716802D01*
X43297508Y-34545554D01*
X43000000Y-34485307D01*
X41000000Y-34485307D01*
X40722067Y-34537604D01*
X40466802Y-34701862D01*
X40295554Y-34952492D01*
X40235307Y-35250000D01*
X34683849Y-35250000D01*
X35357090Y-34577934D01*
X35781516Y-33555802D01*
X35781696Y-33349224D01*
X65992000Y-33349224D01*
X65992000Y-34185500D01*
X66181500Y-34375000D01*
X67625000Y-34375000D01*
X67625000Y-32931500D01*
X69375000Y-32931500D01*
X69375000Y-34375000D01*
X70818500Y-34375000D01*
X71008000Y-34185500D01*
X71008000Y-33349224D01*
X70892601Y-33070627D01*
X70801966Y-32979992D01*
X101128252Y-32979992D01*
X101222403Y-33453321D01*
X101491706Y-33623699D01*
X102315406Y-32800000D01*
X104224594Y-32800000D01*
X105048294Y-33623699D01*
X105317597Y-33453321D01*
X105371075Y-32979992D01*
X113128252Y-32979992D01*
X113222403Y-33453321D01*
X113491706Y-33623699D01*
X114315406Y-32800000D01*
X116224594Y-32800000D01*
X117048294Y-33623699D01*
X117317597Y-33453321D01*
X117411748Y-32620008D01*
X117317597Y-32146679D01*
X117048294Y-31976301D01*
X116224594Y-32800000D01*
X114315406Y-32800000D01*
X113491706Y-31976301D01*
X113222403Y-32146679D01*
X113128252Y-32979992D01*
X105371075Y-32979992D01*
X105411748Y-32620008D01*
X105317597Y-32146679D01*
X105048294Y-31976301D01*
X104224594Y-32800000D01*
X102315406Y-32800000D01*
X101491706Y-31976301D01*
X101222403Y-32146679D01*
X101128252Y-32979992D01*
X70801966Y-32979992D01*
X70679372Y-32857398D01*
X70400775Y-32742000D01*
X69564500Y-32742000D01*
X69375000Y-32931500D01*
X67625000Y-32931500D01*
X67435500Y-32742000D01*
X66599225Y-32742000D01*
X66320628Y-32857398D01*
X66107399Y-33070627D01*
X65992000Y-33349224D01*
X35781696Y-33349224D01*
X35782482Y-32449054D01*
X35359840Y-31426182D01*
X34759706Y-30825000D01*
X102570750Y-30825000D01*
X102446301Y-31021706D01*
X102446301Y-31021706D01*
G37*
X102446301Y-31021706D02*
X103270000Y-31845406D01*
X104093699Y-31021706D01*
X103969250Y-30825000D01*
X114570750Y-30825000D01*
X114446301Y-31021706D01*
X115270000Y-31845406D01*
X116093699Y-31021706D01*
X115969250Y-30825000D01*
X125241019Y-30825000D01*
X124642910Y-31422066D01*
X124218484Y-32444198D01*
X124217518Y-33550946D01*
X124640160Y-34573818D01*
X125422066Y-35357090D01*
X126444198Y-35781516D01*
X127550946Y-35782482D01*
X128573818Y-35359840D01*
X129175000Y-34759706D01*
X129175000Y-125241019D01*
X128577934Y-124642910D01*
X127555802Y-124218484D01*
X126449054Y-124217518D01*
X125426182Y-124640160D01*
X124642910Y-125422066D01*
X124218484Y-126444198D01*
X124217518Y-127550946D01*
X124640160Y-128573818D01*
X125240294Y-129175000D01*
X115411335Y-129175000D01*
X115703981Y-129116789D01*
X116271722Y-128737437D01*
X116651074Y-128169696D01*
X116784285Y-127500000D01*
X116651074Y-126830304D01*
X116271722Y-126262563D01*
X115703981Y-125883211D01*
X115034285Y-125750000D01*
X114965715Y-125750000D01*
X114296019Y-125883211D01*
X113728278Y-126262563D01*
X113348926Y-126830304D01*
X113215715Y-127500000D01*
X113348926Y-128169696D01*
X113728278Y-128737437D01*
X114296019Y-129116789D01*
X114588665Y-129175000D01*
X106411335Y-129175000D01*
X106703981Y-129116789D01*
X107271722Y-128737437D01*
X107651074Y-128169696D01*
X107784285Y-127500000D01*
X107651074Y-126830304D01*
X107271722Y-126262563D01*
X106703981Y-125883211D01*
X106034285Y-125750000D01*
X105965715Y-125750000D01*
X105296019Y-125883211D01*
X104728278Y-126262563D01*
X104348926Y-126830304D01*
X104215715Y-127500000D01*
X104348926Y-128169696D01*
X104728278Y-128737437D01*
X105296019Y-129116789D01*
X105588665Y-129175000D01*
X34758981Y-129175000D01*
X35357090Y-128577934D01*
X35781516Y-127555802D01*
X35782482Y-126449054D01*
X35720895Y-126300000D01*
X51599634Y-126300000D01*
X51717621Y-126893159D01*
X52053618Y-127396016D01*
X52556475Y-127732013D01*
X53149634Y-127850000D01*
X53210366Y-127850000D01*
X53803525Y-127732013D01*
X54306382Y-127396016D01*
X54642379Y-126893159D01*
X54699307Y-126606961D01*
X59249732Y-126606961D01*
X59485208Y-127176857D01*
X59920849Y-127613260D01*
X60490333Y-127849730D01*
X61106961Y-127850268D01*
X61647405Y-127626961D01*
X94653699Y-127626961D01*
X94847361Y-127901784D01*
X95741149Y-127991592D01*
X96192639Y-127901784D01*
X96386301Y-127626961D01*
X95520000Y-126760660D01*
X94653699Y-127626961D01*
X61647405Y-127626961D01*
X61676857Y-127614792D01*
X62113260Y-127179151D01*
X62349730Y-126609667D01*
X62350268Y-125993039D01*
X62320564Y-125921149D01*
X93228408Y-125921149D01*
X93318216Y-126372639D01*
X93593039Y-126566301D01*
X94459340Y-125700000D01*
X96580660Y-125700000D01*
X97446961Y-126566301D01*
X97721784Y-126372639D01*
X97811592Y-125478851D01*
X97721784Y-125027361D01*
X97446961Y-124833699D01*
X96580660Y-125700000D01*
X94459340Y-125700000D01*
X93593039Y-124833699D01*
X93318216Y-125027361D01*
X93228408Y-125921149D01*
X62320564Y-125921149D01*
X62114792Y-125423143D01*
X61679151Y-124986740D01*
X61109667Y-124750270D01*
X60493039Y-124749732D01*
X59923143Y-124985208D01*
X59486740Y-125420849D01*
X59250270Y-125990333D01*
X59249732Y-126606961D01*
X54699307Y-126606961D01*
X54760366Y-126300000D01*
X54642379Y-125706841D01*
X54306382Y-125203984D01*
X53803525Y-124867987D01*
X53210366Y-124750000D01*
X53149634Y-124750000D01*
X52556475Y-124867987D01*
X52053618Y-125203984D01*
X51717621Y-125706841D01*
X51599634Y-126300000D01*
X35720895Y-126300000D01*
X35359840Y-125426182D01*
X34577934Y-124642910D01*
X33752115Y-124300000D01*
X72999634Y-124300000D01*
X73117621Y-124893159D01*
X73453618Y-125396016D01*
X73956475Y-125732013D01*
X74549634Y-125850000D01*
X74610366Y-125850000D01*
X75203525Y-125732013D01*
X75706382Y-125396016D01*
X76042379Y-124893159D01*
X76099307Y-124606961D01*
X80649732Y-124606961D01*
X80885208Y-125176857D01*
X81320849Y-125613260D01*
X81890333Y-125849730D01*
X82506961Y-125850268D01*
X83076857Y-125614792D01*
X83513260Y-125179151D01*
X83749730Y-124609667D01*
X83750268Y-123993039D01*
X83659366Y-123773039D01*
X94653699Y-123773039D01*
X95520000Y-124639340D01*
X95959340Y-124200000D01*
X98335307Y-124200000D01*
X98335307Y-127200000D01*
X98387604Y-127477933D01*
X98551862Y-127733198D01*
X98802492Y-127904446D01*
X99100000Y-127964693D01*
X102100000Y-127964693D01*
X102377933Y-127912396D01*
X102633198Y-127748138D01*
X102804446Y-127497508D01*
X102864693Y-127200000D01*
X102864693Y-124915822D01*
X108213010Y-124915822D01*
X108674668Y-125445041D01*
X109328546Y-125842226D01*
X109625000Y-125735084D01*
X109625000Y-124625000D01*
X111375000Y-124625000D01*
X111375000Y-125735084D01*
X111671454Y-125842226D01*
X112325332Y-125445041D01*
X112786990Y-124915822D01*
X112707723Y-124625000D01*
X111375000Y-124625000D01*
X109625000Y-124625000D01*
X108292277Y-124625000D01*
X108213010Y-124915822D01*
X102864693Y-124915822D01*
X102864693Y-124200000D01*
X102812396Y-123922067D01*
X102648138Y-123666802D01*
X102397508Y-123495554D01*
X102100000Y-123435307D01*
X99100000Y-123435307D01*
X98822067Y-123487604D01*
X98566802Y-123651862D01*
X98395554Y-123902492D01*
X98335307Y-124200000D01*
X95959340Y-124200000D01*
X96386301Y-123773039D01*
X96192639Y-123498216D01*
X95298851Y-123408408D01*
X94847361Y-123498216D01*
X94653699Y-123773039D01*
X83659366Y-123773039D01*
X83514792Y-123423143D01*
X83176419Y-123084178D01*
X108213010Y-123084178D01*
X108292277Y-123375000D01*
X109625000Y-123375000D01*
X109625000Y-122264916D01*
X111375000Y-122264916D01*
X111375000Y-123375000D01*
X112707723Y-123375000D01*
X112786990Y-123084178D01*
X112325332Y-122554959D01*
X111671454Y-122157774D01*
X111375000Y-122264916D01*
X109625000Y-122264916D01*
X109328546Y-122157774D01*
X108674668Y-122554959D01*
X108213010Y-123084178D01*
X83176419Y-123084178D01*
X83079151Y-122986740D01*
X82509667Y-122750270D01*
X81893039Y-122749732D01*
X81323143Y-122985208D01*
X80886740Y-123420849D01*
X80650270Y-123990333D01*
X80649732Y-124606961D01*
X76099307Y-124606961D01*
X76160366Y-124300000D01*
X76042379Y-123706841D01*
X75706382Y-123203984D01*
X75203525Y-122867987D01*
X74610366Y-122750000D01*
X74549634Y-122750000D01*
X73956475Y-122867987D01*
X73453618Y-123203984D01*
X73117621Y-123706841D01*
X72999634Y-124300000D01*
X33752115Y-124300000D01*
X33555802Y-124218484D01*
X32449054Y-124217518D01*
X31426182Y-124640160D01*
X30825000Y-125240294D01*
X30825000Y-121206961D01*
X36549732Y-121206961D01*
X36785208Y-121776857D01*
X37220849Y-122213260D01*
X37790333Y-122449730D01*
X38406961Y-122450268D01*
X38976857Y-122214792D01*
X39413260Y-121779151D01*
X39649730Y-121209667D01*
X39649732Y-121206961D01*
X61049732Y-121206961D01*
X61285208Y-121776857D01*
X61720849Y-122213260D01*
X62290333Y-122449730D01*
X62906961Y-122450268D01*
X63476857Y-122214792D01*
X63913260Y-121779151D01*
X64149730Y-121209667D01*
X64150000Y-120900000D01*
X68639634Y-120900000D01*
X68757621Y-121493159D01*
X69093618Y-121996016D01*
X69596475Y-122332013D01*
X70189634Y-122450000D01*
X70250366Y-122450000D01*
X70843525Y-122332013D01*
X71346382Y-121996016D01*
X71682379Y-121493159D01*
X71800366Y-120900000D01*
X71780475Y-120800000D01*
X72999634Y-120800000D01*
X73117621Y-121393159D01*
X73453618Y-121896016D01*
X73956475Y-122232013D01*
X74549634Y-122350000D01*
X74610366Y-122350000D01*
X75203525Y-122232013D01*
X75706382Y-121896016D01*
X76042379Y-121393159D01*
X76099307Y-121106961D01*
X80649732Y-121106961D01*
X80885208Y-121676857D01*
X81320849Y-122113260D01*
X81890333Y-122349730D01*
X82506961Y-122350268D01*
X83076857Y-122114792D01*
X83513260Y-121679151D01*
X83749730Y-121109667D01*
X83750268Y-120493039D01*
X83514792Y-119923143D01*
X83079151Y-119486740D01*
X82509667Y-119250270D01*
X81893039Y-119249732D01*
X81323143Y-119485208D01*
X80886740Y-119920849D01*
X80650270Y-120490333D01*
X80649732Y-121106961D01*
X76099307Y-121106961D01*
X76160366Y-120800000D01*
X76042379Y-120206841D01*
X75706382Y-119703984D01*
X75203525Y-119367987D01*
X74610366Y-119250000D01*
X74549634Y-119250000D01*
X73956475Y-119367987D01*
X73453618Y-119703984D01*
X73117621Y-120206841D01*
X72999634Y-120800000D01*
X71780475Y-120800000D01*
X71682379Y-120306841D01*
X71346382Y-119803984D01*
X70843525Y-119467987D01*
X70250366Y-119350000D01*
X70189634Y-119350000D01*
X69596475Y-119467987D01*
X69093618Y-119803984D01*
X68757621Y-120306841D01*
X68639634Y-120900000D01*
X64150000Y-120900000D01*
X64150268Y-120593039D01*
X63914792Y-120023143D01*
X63479151Y-119586740D01*
X62909667Y-119350270D01*
X62293039Y-119349732D01*
X61723143Y-119585208D01*
X61286740Y-120020849D01*
X61050270Y-120590333D01*
X61049732Y-121206961D01*
X39649732Y-121206961D01*
X39650268Y-120593039D01*
X39414792Y-120023143D01*
X38979151Y-119586740D01*
X38409667Y-119350270D01*
X37793039Y-119349732D01*
X37223143Y-119585208D01*
X36786740Y-120020849D01*
X36550270Y-120590333D01*
X36549732Y-121206961D01*
X30825000Y-121206961D01*
X30825000Y-118451022D01*
X108500000Y-118451022D01*
X108500000Y-119548978D01*
X108652241Y-120314345D01*
X109085786Y-120963192D01*
X109734633Y-121396737D01*
X110500000Y-121548978D01*
X111265367Y-121396737D01*
X111914214Y-120963192D01*
X112347759Y-120314345D01*
X112500000Y-119548978D01*
X112500000Y-118451022D01*
X112453195Y-118215715D01*
X125250000Y-118215715D01*
X125250000Y-118284285D01*
X125383211Y-118953981D01*
X125762563Y-119521722D01*
X126330304Y-119901074D01*
X127000000Y-120034285D01*
X127669696Y-119901074D01*
X128237437Y-119521722D01*
X128616789Y-118953981D01*
X128750000Y-118284285D01*
X128750000Y-118215715D01*
X128616789Y-117546019D01*
X128237437Y-116978278D01*
X127669696Y-116598926D01*
X127000000Y-116465715D01*
X126330304Y-116598926D01*
X125762563Y-116978278D01*
X125383211Y-117546019D01*
X125250000Y-118215715D01*
X112453195Y-118215715D01*
X112347759Y-117685655D01*
X111914214Y-117036808D01*
X111265367Y-116603263D01*
X110500000Y-116451022D01*
X109734633Y-116603263D01*
X109085786Y-117036808D01*
X108652241Y-117685655D01*
X108500000Y-118451022D01*
X30825000Y-118451022D01*
X30825000Y-115830805D01*
X53034881Y-115830805D01*
X53119983Y-116078846D01*
X53730064Y-116188239D01*
X54280017Y-116078846D01*
X54365119Y-115830805D01*
X53700000Y-115165685D01*
X53034881Y-115830805D01*
X30825000Y-115830805D01*
X30825000Y-113249634D01*
X36550000Y-113249634D01*
X36550000Y-113310366D01*
X36667987Y-113903525D01*
X37003984Y-114406382D01*
X37506841Y-114742379D01*
X38100000Y-114860366D01*
X38693159Y-114742379D01*
X39196016Y-114406382D01*
X39532013Y-113903525D01*
X39574558Y-113689634D01*
X45250000Y-113689634D01*
X45250000Y-113750366D01*
X45367987Y-114343525D01*
X45703984Y-114846382D01*
X46206841Y-115182379D01*
X46800000Y-115300366D01*
X47393159Y-115182379D01*
X47896016Y-114846382D01*
X48040554Y-114630064D01*
X52111761Y-114630064D01*
X52221154Y-115180017D01*
X52469195Y-115265119D01*
X53134315Y-114600000D01*
X54265685Y-114600000D01*
X54930805Y-115265119D01*
X55178846Y-115180017D01*
X55227807Y-114906961D01*
X57149732Y-114906961D01*
X57385208Y-115476857D01*
X57820849Y-115913260D01*
X58390333Y-116149730D01*
X59006961Y-116150268D01*
X59576857Y-115914792D01*
X59885226Y-115606961D01*
X74049732Y-115606961D01*
X74285208Y-116176857D01*
X74720849Y-116613260D01*
X75290333Y-116849730D01*
X75906961Y-116850268D01*
X76476857Y-116614792D01*
X76913260Y-116179151D01*
X77149730Y-115609667D01*
X77149732Y-115606961D01*
X77949732Y-115606961D01*
X78185208Y-116176857D01*
X78620849Y-116613260D01*
X79190333Y-116849730D01*
X79806961Y-116850268D01*
X80376857Y-116614792D01*
X80813260Y-116179151D01*
X81049730Y-115609667D01*
X81049993Y-115307942D01*
X88549818Y-115307942D01*
X88709334Y-115694000D01*
X89004446Y-115989628D01*
X89390226Y-116149818D01*
X89807942Y-116150182D01*
X89929392Y-116100000D01*
X93329425Y-116100000D01*
X93690226Y-116249818D01*
X94107942Y-116250182D01*
X94494000Y-116090666D01*
X94789628Y-115795554D01*
X94949818Y-115409774D01*
X94950182Y-114992058D01*
X94790666Y-114606000D01*
X94495554Y-114310372D01*
X94199830Y-114187576D01*
X94182684Y-114176120D01*
X94162636Y-114172132D01*
X94109774Y-114150182D01*
X94052031Y-114150132D01*
X93800000Y-114100000D01*
X89929749Y-114100000D01*
X89809774Y-114050182D01*
X89392058Y-114049818D01*
X89006000Y-114209334D01*
X88710372Y-114504446D01*
X88550182Y-114890226D01*
X88549818Y-115307942D01*
X81049993Y-115307942D01*
X81050268Y-114993039D01*
X80814792Y-114423143D01*
X80379151Y-113986740D01*
X79809667Y-113750270D01*
X79500207Y-113750000D01*
X115951022Y-113750000D01*
X116103263Y-114515367D01*
X116536808Y-115164214D01*
X117185655Y-115597759D01*
X117951022Y-115750000D01*
X119048978Y-115750000D01*
X119814345Y-115597759D01*
X120463192Y-115164214D01*
X120625398Y-114921454D01*
X121657774Y-114921454D01*
X122054959Y-115575332D01*
X122584178Y-116036990D01*
X122875000Y-115957723D01*
X122875000Y-114625000D01*
X124125000Y-114625000D01*
X124125000Y-115957723D01*
X124415822Y-116036990D01*
X124945041Y-115575332D01*
X125342226Y-114921454D01*
X125235084Y-114625000D01*
X124125000Y-114625000D01*
X122875000Y-114625000D01*
X121764916Y-114625000D01*
X121657774Y-114921454D01*
X120625398Y-114921454D01*
X120896737Y-114515367D01*
X121048978Y-113750000D01*
X120896737Y-112984633D01*
X120625399Y-112578546D01*
X121657774Y-112578546D01*
X121764916Y-112875000D01*
X122875000Y-112875000D01*
X122875000Y-111542277D01*
X124125000Y-111542277D01*
X124125000Y-112875000D01*
X125235084Y-112875000D01*
X125342226Y-112578546D01*
X124945041Y-111924668D01*
X124415822Y-111463010D01*
X124125000Y-111542277D01*
X122875000Y-111542277D01*
X122584178Y-111463010D01*
X122054959Y-111924668D01*
X121657774Y-112578546D01*
X120625399Y-112578546D01*
X120463192Y-112335786D01*
X119814345Y-111902241D01*
X119048978Y-111750000D01*
X117951022Y-111750000D01*
X117185655Y-111902241D01*
X116536808Y-112335786D01*
X116103263Y-112984633D01*
X115951022Y-113750000D01*
X79500207Y-113750000D01*
X79193039Y-113749732D01*
X78623143Y-113985208D01*
X78186740Y-114420849D01*
X77950270Y-114990333D01*
X77949732Y-115606961D01*
X77149732Y-115606961D01*
X77150268Y-114993039D01*
X76914792Y-114423143D01*
X76479151Y-113986740D01*
X75909667Y-113750270D01*
X75293039Y-113749732D01*
X74723143Y-113985208D01*
X74286740Y-114420849D01*
X74050270Y-114990333D01*
X74049732Y-115606961D01*
X59885226Y-115606961D01*
X60013260Y-115479151D01*
X60249730Y-114909667D01*
X60250268Y-114293039D01*
X60014792Y-113723143D01*
X59579151Y-113286740D01*
X59009667Y-113050270D01*
X58393039Y-113049732D01*
X57823143Y-113285208D01*
X57386740Y-113720849D01*
X57150270Y-114290333D01*
X57149732Y-114906961D01*
X55227807Y-114906961D01*
X55288239Y-114569936D01*
X55178846Y-114019983D01*
X54930805Y-113934881D01*
X54265685Y-114600000D01*
X53134315Y-114600000D01*
X52469195Y-113934881D01*
X52221154Y-114019983D01*
X52111761Y-114630064D01*
X48040554Y-114630064D01*
X48232013Y-114343525D01*
X48350000Y-113750366D01*
X48350000Y-113689634D01*
X48286261Y-113369195D01*
X53034881Y-113369195D01*
X53700000Y-114034315D01*
X54365119Y-113369195D01*
X54280017Y-113121154D01*
X53669936Y-113011761D01*
X53119983Y-113121154D01*
X53034881Y-113369195D01*
X48286261Y-113369195D01*
X48232013Y-113096475D01*
X47896016Y-112593618D01*
X47393159Y-112257621D01*
X46800000Y-112139634D01*
X46206841Y-112257621D01*
X45703984Y-112593618D01*
X45367987Y-113096475D01*
X45250000Y-113689634D01*
X39574558Y-113689634D01*
X39650000Y-113310366D01*
X39650000Y-113249634D01*
X39532013Y-112656475D01*
X39196016Y-112153618D01*
X38693159Y-111817621D01*
X38100000Y-111699634D01*
X37506841Y-111817621D01*
X37003984Y-112153618D01*
X36667987Y-112656475D01*
X36550000Y-113249634D01*
X30825000Y-113249634D01*
X30825000Y-110965715D01*
X30950000Y-110965715D01*
X30950000Y-111034285D01*
X31083211Y-111703981D01*
X31462563Y-112271722D01*
X32030304Y-112651074D01*
X32700000Y-112784285D01*
X33369696Y-112651074D01*
X33937437Y-112271722D01*
X34316789Y-111703981D01*
X34450000Y-111034285D01*
X34450000Y-110965715D01*
X34398531Y-110706961D01*
X59949732Y-110706961D01*
X60185208Y-111276857D01*
X60620849Y-111713260D01*
X61190333Y-111949730D01*
X61806961Y-111950268D01*
X62376857Y-111714792D01*
X62813260Y-111279151D01*
X63049730Y-110709667D01*
X63050000Y-110400000D01*
X67539634Y-110400000D01*
X67657621Y-110993159D01*
X67993618Y-111496016D01*
X68496475Y-111832013D01*
X69089634Y-111950000D01*
X69150366Y-111950000D01*
X69743525Y-111832013D01*
X70246382Y-111496016D01*
X70582379Y-110993159D01*
X70659198Y-110606961D01*
X74049732Y-110606961D01*
X74285208Y-111176857D01*
X74720849Y-111613260D01*
X75290333Y-111849730D01*
X75906961Y-111850268D01*
X76476857Y-111614792D01*
X76913260Y-111179151D01*
X77149730Y-110609667D01*
X77150268Y-109993039D01*
X76914792Y-109423143D01*
X76479151Y-108986740D01*
X75909667Y-108750270D01*
X75293039Y-108749732D01*
X74723143Y-108985208D01*
X74286740Y-109420849D01*
X74050270Y-109990333D01*
X74049732Y-110606961D01*
X70659198Y-110606961D01*
X70700366Y-110400000D01*
X70582379Y-109806841D01*
X70246382Y-109303984D01*
X69743525Y-108967987D01*
X69150366Y-108850000D01*
X69089634Y-108850000D01*
X68496475Y-108967987D01*
X67993618Y-109303984D01*
X67657621Y-109806841D01*
X67539634Y-110400000D01*
X63050000Y-110400000D01*
X63050268Y-110093039D01*
X62814792Y-109523143D01*
X62379151Y-109086740D01*
X61809667Y-108850270D01*
X61193039Y-108849732D01*
X60623143Y-109085208D01*
X60186740Y-109520849D01*
X59950270Y-110090333D01*
X59949732Y-110706961D01*
X34398531Y-110706961D01*
X34316789Y-110296019D01*
X33937437Y-109728278D01*
X33369696Y-109348926D01*
X32700000Y-109215715D01*
X32030304Y-109348926D01*
X31462563Y-109728278D01*
X31083211Y-110296019D01*
X30950000Y-110965715D01*
X30825000Y-110965715D01*
X30825000Y-107671454D01*
X34357774Y-107671454D01*
X34754959Y-108325332D01*
X35284178Y-108786990D01*
X35575000Y-108707723D01*
X35575000Y-107375000D01*
X36825000Y-107375000D01*
X36825000Y-108707723D01*
X37115822Y-108786990D01*
X37645041Y-108325332D01*
X38042226Y-107671454D01*
X37935084Y-107375000D01*
X36825000Y-107375000D01*
X35575000Y-107375000D01*
X34464916Y-107375000D01*
X34357774Y-107671454D01*
X30825000Y-107671454D01*
X30825000Y-106500000D01*
X38651022Y-106500000D01*
X38803263Y-107265367D01*
X39236808Y-107914214D01*
X39885655Y-108347759D01*
X40651022Y-108500000D01*
X41748978Y-108500000D01*
X42514345Y-108347759D01*
X43163192Y-107914214D01*
X43596737Y-107265367D01*
X43748978Y-106500000D01*
X43730472Y-106406961D01*
X45249732Y-106406961D01*
X45485208Y-106976857D01*
X45920849Y-107413260D01*
X46490333Y-107649730D01*
X47106961Y-107650268D01*
X47676857Y-107414792D01*
X48113260Y-106979151D01*
X48309330Y-106506961D01*
X51949732Y-106506961D01*
X52185208Y-107076857D01*
X52620849Y-107513260D01*
X53190333Y-107749730D01*
X53806961Y-107750268D01*
X54376857Y-107514792D01*
X54813260Y-107079151D01*
X55049730Y-106509667D01*
X55050000Y-106200000D01*
X59539634Y-106200000D01*
X59657621Y-106793159D01*
X59993618Y-107296016D01*
X60496475Y-107632013D01*
X61089634Y-107750000D01*
X61150366Y-107750000D01*
X61654938Y-107649634D01*
X77950000Y-107649634D01*
X77950000Y-107710366D01*
X78067987Y-108303525D01*
X78403984Y-108806382D01*
X78906841Y-109142379D01*
X79500000Y-109260366D01*
X79724475Y-109215715D01*
X125250000Y-109215715D01*
X125250000Y-109284285D01*
X125383211Y-109953981D01*
X125762563Y-110521722D01*
X126330304Y-110901074D01*
X127000000Y-111034285D01*
X127669696Y-110901074D01*
X128237437Y-110521722D01*
X128616789Y-109953981D01*
X128750000Y-109284285D01*
X128750000Y-109215715D01*
X128616789Y-108546019D01*
X128237437Y-107978278D01*
X127669696Y-107598926D01*
X127000000Y-107465715D01*
X126330304Y-107598926D01*
X125762563Y-107978278D01*
X125383211Y-108546019D01*
X125250000Y-109215715D01*
X79724475Y-109215715D01*
X80093159Y-109142379D01*
X80596016Y-108806382D01*
X80780556Y-108530197D01*
X81074074Y-108334074D01*
X82083148Y-107325000D01*
X84689631Y-107325000D01*
X84990226Y-107449818D01*
X85407942Y-107450182D01*
X85794000Y-107290666D01*
X86089628Y-106995554D01*
X86188700Y-106756961D01*
X121383699Y-106756961D01*
X121577361Y-107031784D01*
X122471149Y-107121592D01*
X122922639Y-107031784D01*
X123116301Y-106756961D01*
X122250000Y-105890660D01*
X121383699Y-106756961D01*
X86188700Y-106756961D01*
X86249818Y-106609774D01*
X86250182Y-106192058D01*
X86090666Y-105806000D01*
X85795554Y-105510372D01*
X85409774Y-105350182D01*
X84992058Y-105349818D01*
X84689095Y-105475000D01*
X81700000Y-105475000D01*
X81346018Y-105545411D01*
X81226905Y-105625000D01*
X81045926Y-105745926D01*
X80381541Y-106410311D01*
X80093159Y-106217621D01*
X79500000Y-106099634D01*
X78906841Y-106217621D01*
X78403984Y-106553618D01*
X78067987Y-107056475D01*
X77950000Y-107649634D01*
X61654938Y-107649634D01*
X61743525Y-107632013D01*
X62246382Y-107296016D01*
X62582379Y-106793159D01*
X62700366Y-106200000D01*
X62582379Y-105606841D01*
X62246382Y-105103984D01*
X61743525Y-104767987D01*
X61150366Y-104650000D01*
X61089634Y-104650000D01*
X60496475Y-104767987D01*
X59993618Y-105103984D01*
X59657621Y-105606841D01*
X59539634Y-106200000D01*
X55050000Y-106200000D01*
X55050268Y-105893039D01*
X54814792Y-105323143D01*
X54379151Y-104886740D01*
X53809667Y-104650270D01*
X53193039Y-104649732D01*
X52623143Y-104885208D01*
X52186740Y-105320849D01*
X51950270Y-105890333D01*
X51949732Y-106506961D01*
X48309330Y-106506961D01*
X48349730Y-106409667D01*
X48350268Y-105793039D01*
X48114792Y-105223143D01*
X47679151Y-104786740D01*
X47109667Y-104550270D01*
X46493039Y-104549732D01*
X45923143Y-104785208D01*
X45486740Y-105220849D01*
X45250270Y-105790333D01*
X45249732Y-106406961D01*
X43730472Y-106406961D01*
X43596737Y-105734633D01*
X43163192Y-105085786D01*
X42514345Y-104652241D01*
X41748978Y-104500000D01*
X40651022Y-104500000D01*
X39885655Y-104652241D01*
X39236808Y-105085786D01*
X38803263Y-105734633D01*
X38651022Y-106500000D01*
X30825000Y-106500000D01*
X30825000Y-105328546D01*
X34357774Y-105328546D01*
X34464916Y-105625000D01*
X35575000Y-105625000D01*
X35575000Y-104292277D01*
X36825000Y-104292277D01*
X36825000Y-105625000D01*
X37935084Y-105625000D01*
X38042226Y-105328546D01*
X37645041Y-104674668D01*
X37115822Y-104213010D01*
X36825000Y-104292277D01*
X35575000Y-104292277D01*
X35284178Y-104213010D01*
X34754959Y-104674668D01*
X34357774Y-105328546D01*
X30825000Y-105328546D01*
X30825000Y-101965715D01*
X30950000Y-101965715D01*
X30950000Y-102034285D01*
X31083211Y-102703981D01*
X31462563Y-103271722D01*
X32030304Y-103651074D01*
X32700000Y-103784285D01*
X33369696Y-103651074D01*
X33937437Y-103271722D01*
X34316789Y-102703981D01*
X34415652Y-102206961D01*
X51949732Y-102206961D01*
X52185208Y-102776857D01*
X52620849Y-103213260D01*
X53190333Y-103449730D01*
X53806961Y-103450268D01*
X54376857Y-103214792D01*
X54813260Y-102779151D01*
X55049730Y-102209667D01*
X55050000Y-101900000D01*
X59539634Y-101900000D01*
X59657621Y-102493159D01*
X59993618Y-102996016D01*
X60496475Y-103332013D01*
X61089634Y-103450000D01*
X61150366Y-103450000D01*
X61743525Y-103332013D01*
X62246382Y-102996016D01*
X62439521Y-102706961D01*
X73349732Y-102706961D01*
X73585208Y-103276857D01*
X74020849Y-103713260D01*
X74590333Y-103949730D01*
X75206961Y-103950268D01*
X75776857Y-103714792D01*
X75902233Y-103589634D01*
X77450000Y-103589634D01*
X77450000Y-103650366D01*
X77567987Y-104243525D01*
X77903984Y-104746382D01*
X78406841Y-105082379D01*
X79000000Y-105200366D01*
X79593159Y-105082379D01*
X79665553Y-105034007D01*
X79846017Y-105154589D01*
X80200000Y-105225000D01*
X85889631Y-105225000D01*
X86190226Y-105349818D01*
X86607942Y-105350182D01*
X86994000Y-105190666D01*
X87133760Y-105051149D01*
X119958408Y-105051149D01*
X120048216Y-105502639D01*
X120323039Y-105696301D01*
X121189340Y-104830000D01*
X123310660Y-104830000D01*
X124176961Y-105696301D01*
X124451784Y-105502639D01*
X124541592Y-104608851D01*
X124451784Y-104157361D01*
X124176961Y-103963699D01*
X123310660Y-104830000D01*
X121189340Y-104830000D01*
X120323039Y-103963699D01*
X120048216Y-104157361D01*
X119958408Y-105051149D01*
X87133760Y-105051149D01*
X87289628Y-104895554D01*
X87449818Y-104509774D01*
X87450182Y-104092058D01*
X87290666Y-103706000D01*
X86995554Y-103410372D01*
X86609774Y-103250182D01*
X86192058Y-103249818D01*
X85889095Y-103375000D01*
X80583148Y-103375000D01*
X80488475Y-103280327D01*
X80432013Y-102996475D01*
X80369582Y-102903039D01*
X121383699Y-102903039D01*
X122250000Y-103769340D01*
X123116301Y-102903039D01*
X122922639Y-102628216D01*
X122028851Y-102538408D01*
X121577361Y-102628216D01*
X121383699Y-102903039D01*
X80369582Y-102903039D01*
X80096016Y-102493618D01*
X79593159Y-102157621D01*
X79000000Y-102039634D01*
X78406841Y-102157621D01*
X77903984Y-102493618D01*
X77567987Y-102996475D01*
X77450000Y-103589634D01*
X75902233Y-103589634D01*
X76213260Y-103279151D01*
X76449730Y-102709667D01*
X76450268Y-102093039D01*
X76214792Y-101523143D01*
X75779151Y-101086740D01*
X75209667Y-100850270D01*
X74593039Y-100849732D01*
X74023143Y-101085208D01*
X73586740Y-101520849D01*
X73350270Y-102090333D01*
X73349732Y-102706961D01*
X62439521Y-102706961D01*
X62582379Y-102493159D01*
X62700366Y-101900000D01*
X62582379Y-101306841D01*
X62246382Y-100803984D01*
X61743525Y-100467987D01*
X61150366Y-100350000D01*
X61089634Y-100350000D01*
X60496475Y-100467987D01*
X59993618Y-100803984D01*
X59657621Y-101306841D01*
X59539634Y-101900000D01*
X55050000Y-101900000D01*
X55050268Y-101593039D01*
X54814792Y-101023143D01*
X54379151Y-100586740D01*
X53809667Y-100350270D01*
X53193039Y-100349732D01*
X52623143Y-100585208D01*
X52186740Y-101020849D01*
X51950270Y-101590333D01*
X51949732Y-102206961D01*
X34415652Y-102206961D01*
X34450000Y-102034285D01*
X34450000Y-101965715D01*
X34316789Y-101296019D01*
X33937437Y-100728278D01*
X33533382Y-100458297D01*
X33569696Y-100451074D01*
X34137437Y-100071722D01*
X34516789Y-99503981D01*
X34650000Y-98834285D01*
X34650000Y-98765715D01*
X34598531Y-98506961D01*
X59549732Y-98506961D01*
X59785208Y-99076857D01*
X60220849Y-99513260D01*
X60790333Y-99749730D01*
X61406961Y-99750268D01*
X61976857Y-99514792D01*
X62413260Y-99079151D01*
X62649730Y-98509667D01*
X62650000Y-98200000D01*
X67139634Y-98200000D01*
X67257621Y-98793159D01*
X67593618Y-99296016D01*
X68096475Y-99632013D01*
X68689634Y-99750000D01*
X68750366Y-99750000D01*
X69343525Y-99632013D01*
X69846382Y-99296016D01*
X70182379Y-98793159D01*
X70300366Y-98200000D01*
X70202295Y-97706961D01*
X73349732Y-97706961D01*
X73585208Y-98276857D01*
X74020849Y-98713260D01*
X74590333Y-98949730D01*
X75206961Y-98950268D01*
X75776857Y-98714792D01*
X76213260Y-98279151D01*
X76225364Y-98250000D01*
X119985307Y-98250000D01*
X119985307Y-101250000D01*
X120037604Y-101527933D01*
X120201862Y-101783198D01*
X120452492Y-101954446D01*
X120750000Y-102014693D01*
X123750000Y-102014693D01*
X124027933Y-101962396D01*
X124283198Y-101798138D01*
X124454446Y-101547508D01*
X124514693Y-101250000D01*
X124514693Y-98250000D01*
X124462396Y-97972067D01*
X124298138Y-97716802D01*
X124047508Y-97545554D01*
X123750000Y-97485307D01*
X120750000Y-97485307D01*
X120472067Y-97537604D01*
X120216802Y-97701862D01*
X120045554Y-97952492D01*
X119985307Y-98250000D01*
X76225364Y-98250000D01*
X76449730Y-97709667D01*
X76450268Y-97093039D01*
X76214792Y-96523143D01*
X75998988Y-96306961D01*
X77449732Y-96306961D01*
X77685208Y-96876857D01*
X78120849Y-97313260D01*
X78690333Y-97549730D01*
X79306961Y-97550268D01*
X79876857Y-97314792D01*
X80313260Y-96879151D01*
X80549730Y-96309667D01*
X80550268Y-95693039D01*
X80373702Y-95265715D01*
X124550000Y-95265715D01*
X124550000Y-95334285D01*
X124683211Y-96003981D01*
X125062563Y-96571722D01*
X125630304Y-96951074D01*
X126300000Y-97084285D01*
X126969696Y-96951074D01*
X127537437Y-96571722D01*
X127916789Y-96003981D01*
X128050000Y-95334285D01*
X128050000Y-95265715D01*
X127916789Y-94596019D01*
X127537437Y-94028278D01*
X126969696Y-93648926D01*
X126300000Y-93515715D01*
X125630304Y-93648926D01*
X125062563Y-94028278D01*
X124683211Y-94596019D01*
X124550000Y-95265715D01*
X80373702Y-95265715D01*
X80314792Y-95123143D01*
X79879151Y-94686740D01*
X79309667Y-94450270D01*
X78693039Y-94449732D01*
X78123143Y-94685208D01*
X77686740Y-95120849D01*
X77450270Y-95690333D01*
X77449732Y-96306961D01*
X75998988Y-96306961D01*
X75779151Y-96086740D01*
X75209667Y-95850270D01*
X74593039Y-95849732D01*
X74023143Y-96085208D01*
X73586740Y-96520849D01*
X73350270Y-97090333D01*
X73349732Y-97706961D01*
X70202295Y-97706961D01*
X70182379Y-97606841D01*
X69846382Y-97103984D01*
X69343525Y-96767987D01*
X68750366Y-96650000D01*
X68689634Y-96650000D01*
X68096475Y-96767987D01*
X67593618Y-97103984D01*
X67257621Y-97606841D01*
X67139634Y-98200000D01*
X62650000Y-98200000D01*
X62650268Y-97893039D01*
X62414792Y-97323143D01*
X61979151Y-96886740D01*
X61409667Y-96650270D01*
X60793039Y-96649732D01*
X60223143Y-96885208D01*
X59786740Y-97320849D01*
X59550270Y-97890333D01*
X59549732Y-98506961D01*
X34598531Y-98506961D01*
X34516789Y-98096019D01*
X34137437Y-97528278D01*
X33569696Y-97148926D01*
X32900000Y-97015715D01*
X32230304Y-97148926D01*
X31662563Y-97528278D01*
X31283211Y-98096019D01*
X31150000Y-98765715D01*
X31150000Y-98834285D01*
X31283211Y-99503981D01*
X31662563Y-100071722D01*
X32066618Y-100341703D01*
X32030304Y-100348926D01*
X31462563Y-100728278D01*
X31083211Y-101296019D01*
X30950000Y-101965715D01*
X30825000Y-101965715D01*
X30825000Y-95471454D01*
X34557774Y-95471454D01*
X34954959Y-96125332D01*
X35484178Y-96586990D01*
X35775000Y-96507723D01*
X35775000Y-95175000D01*
X37025000Y-95175000D01*
X37025000Y-96507723D01*
X37315822Y-96586990D01*
X37845041Y-96125332D01*
X38242226Y-95471454D01*
X38135084Y-95175000D01*
X37025000Y-95175000D01*
X35775000Y-95175000D01*
X34664916Y-95175000D01*
X34557774Y-95471454D01*
X30825000Y-95471454D01*
X30825000Y-94300000D01*
X38851022Y-94300000D01*
X39003263Y-95065367D01*
X39436808Y-95714214D01*
X40085655Y-96147759D01*
X40851022Y-96300000D01*
X41948978Y-96300000D01*
X42714345Y-96147759D01*
X43363192Y-95714214D01*
X43796737Y-95065367D01*
X43863285Y-94730805D01*
X54634881Y-94730805D01*
X54719983Y-94978846D01*
X55330064Y-95088239D01*
X55880017Y-94978846D01*
X55965119Y-94730805D01*
X55300000Y-94065685D01*
X54634881Y-94730805D01*
X43863285Y-94730805D01*
X43948978Y-94300000D01*
X43796737Y-93534633D01*
X43793685Y-93530064D01*
X53711761Y-93530064D01*
X53821154Y-94080017D01*
X54069195Y-94165119D01*
X54734315Y-93500000D01*
X55865685Y-93500000D01*
X56530805Y-94165119D01*
X56778846Y-94080017D01*
X56827807Y-93806961D01*
X58749732Y-93806961D01*
X58985208Y-94376857D01*
X59420849Y-94813260D01*
X59990333Y-95049730D01*
X60606961Y-95050268D01*
X61176857Y-94814792D01*
X61613260Y-94379151D01*
X61849730Y-93809667D01*
X61850268Y-93193039D01*
X61614792Y-92623143D01*
X61179151Y-92186740D01*
X60609667Y-91950270D01*
X59993039Y-91949732D01*
X59423143Y-92185208D01*
X58986740Y-92620849D01*
X58750270Y-93190333D01*
X58749732Y-93806961D01*
X56827807Y-93806961D01*
X56888239Y-93469936D01*
X56778846Y-92919983D01*
X56530805Y-92834881D01*
X55865685Y-93500000D01*
X54734315Y-93500000D01*
X54069195Y-92834881D01*
X53821154Y-92919983D01*
X53711761Y-93530064D01*
X43793685Y-93530064D01*
X43363192Y-92885786D01*
X42714345Y-92452241D01*
X41948978Y-92300000D01*
X40851022Y-92300000D01*
X40085655Y-92452241D01*
X39436808Y-92885786D01*
X39003263Y-93534633D01*
X38851022Y-94300000D01*
X30825000Y-94300000D01*
X30825000Y-93128546D01*
X34557774Y-93128546D01*
X34664916Y-93425000D01*
X35775000Y-93425000D01*
X35775000Y-92092277D01*
X37025000Y-92092277D01*
X37025000Y-93425000D01*
X38135084Y-93425000D01*
X38242226Y-93128546D01*
X37845041Y-92474668D01*
X37609499Y-92269195D01*
X54634881Y-92269195D01*
X55300000Y-92934315D01*
X55965119Y-92269195D01*
X55880017Y-92021154D01*
X55269936Y-91911761D01*
X54719983Y-92021154D01*
X54634881Y-92269195D01*
X37609499Y-92269195D01*
X37315822Y-92013010D01*
X37025000Y-92092277D01*
X35775000Y-92092277D01*
X35484178Y-92013010D01*
X34954959Y-92474668D01*
X34557774Y-93128546D01*
X30825000Y-93128546D01*
X30825000Y-89765715D01*
X31150000Y-89765715D01*
X31150000Y-89834285D01*
X31283211Y-90503981D01*
X31662563Y-91071722D01*
X32230304Y-91451074D01*
X32900000Y-91584285D01*
X33569696Y-91451074D01*
X34137437Y-91071722D01*
X34318995Y-90800000D01*
X115251022Y-90800000D01*
X115403263Y-91565367D01*
X115836808Y-92214214D01*
X116485655Y-92647759D01*
X117251022Y-92800000D01*
X118348978Y-92800000D01*
X119114345Y-92647759D01*
X119763192Y-92214214D01*
X119925398Y-91971454D01*
X120957774Y-91971454D01*
X121354959Y-92625332D01*
X121884178Y-93086990D01*
X122175000Y-93007723D01*
X122175000Y-91675000D01*
X123425000Y-91675000D01*
X123425000Y-93007723D01*
X123715822Y-93086990D01*
X124245041Y-92625332D01*
X124642226Y-91971454D01*
X124535084Y-91675000D01*
X123425000Y-91675000D01*
X122175000Y-91675000D01*
X121064916Y-91675000D01*
X120957774Y-91971454D01*
X119925398Y-91971454D01*
X120196737Y-91565367D01*
X120348978Y-90800000D01*
X120196737Y-90034633D01*
X119925399Y-89628546D01*
X120957774Y-89628546D01*
X121064916Y-89925000D01*
X122175000Y-89925000D01*
X122175000Y-88592277D01*
X123425000Y-88592277D01*
X123425000Y-89925000D01*
X124535084Y-89925000D01*
X124642226Y-89628546D01*
X124245041Y-88974668D01*
X123715822Y-88513010D01*
X123425000Y-88592277D01*
X122175000Y-88592277D01*
X121884178Y-88513010D01*
X121354959Y-88974668D01*
X120957774Y-89628546D01*
X119925399Y-89628546D01*
X119763192Y-89385786D01*
X119114345Y-88952241D01*
X118348978Y-88800000D01*
X117251022Y-88800000D01*
X116485655Y-88952241D01*
X115836808Y-89385786D01*
X115403263Y-90034633D01*
X115251022Y-90800000D01*
X34318995Y-90800000D01*
X34516789Y-90503981D01*
X34650000Y-89834285D01*
X34650000Y-89765715D01*
X34516789Y-89096019D01*
X34137437Y-88528278D01*
X33569696Y-88148926D01*
X32900000Y-88015715D01*
X32230304Y-88148926D01*
X31662563Y-88528278D01*
X31283211Y-89096019D01*
X31150000Y-89765715D01*
X30825000Y-89765715D01*
X30825000Y-84000000D01*
X34985307Y-84000000D01*
X34985307Y-87000000D01*
X35037604Y-87277933D01*
X35201862Y-87533198D01*
X35452492Y-87704446D01*
X35750000Y-87764693D01*
X38750000Y-87764693D01*
X39027933Y-87712396D01*
X39283198Y-87548138D01*
X39454446Y-87297508D01*
X39514693Y-87000000D01*
X39514693Y-84789942D01*
X69561818Y-84789942D01*
X69687000Y-85092905D01*
X69687000Y-86103631D01*
X69562182Y-86404226D01*
X69561818Y-86821942D01*
X69721334Y-87208000D01*
X70016446Y-87503628D01*
X70402226Y-87663818D01*
X70819942Y-87664182D01*
X71206000Y-87504666D01*
X71501628Y-87209554D01*
X71661818Y-86823774D01*
X71662182Y-86406058D01*
X71604194Y-86265715D01*
X124550000Y-86265715D01*
X124550000Y-86334285D01*
X124683211Y-87003981D01*
X125062563Y-87571722D01*
X125630304Y-87951074D01*
X126300000Y-88084285D01*
X126969696Y-87951074D01*
X127537437Y-87571722D01*
X127916789Y-87003981D01*
X128050000Y-86334285D01*
X128050000Y-86265715D01*
X127916789Y-85596019D01*
X127537437Y-85028278D01*
X126969696Y-84648926D01*
X126300000Y-84515715D01*
X125630304Y-84648926D01*
X125062563Y-85028278D01*
X124683211Y-85596019D01*
X124550000Y-86265715D01*
X71604194Y-86265715D01*
X71537000Y-86103095D01*
X71537000Y-85092369D01*
X71661818Y-84791774D01*
X71662182Y-84374058D01*
X71502666Y-83988000D01*
X71207554Y-83692372D01*
X70821774Y-83532182D01*
X70404058Y-83531818D01*
X70018000Y-83691334D01*
X69722372Y-83986446D01*
X69562182Y-84372226D01*
X69561818Y-84789942D01*
X39514693Y-84789942D01*
X39514693Y-84000000D01*
X39462396Y-83722067D01*
X39298138Y-83466802D01*
X39047508Y-83295554D01*
X38750000Y-83235307D01*
X35750000Y-83235307D01*
X35472067Y-83287604D01*
X35216802Y-83451862D01*
X35045554Y-83702492D01*
X34985307Y-84000000D01*
X30825000Y-84000000D01*
X30825000Y-82346961D01*
X36383699Y-82346961D01*
X36577361Y-82621784D01*
X37471149Y-82711592D01*
X37922639Y-82621784D01*
X38116301Y-82346961D01*
X37525994Y-81756654D01*
X80950000Y-81756654D01*
X80950000Y-81819346D01*
X81071793Y-82431639D01*
X81418629Y-82950717D01*
X81937707Y-83297553D01*
X82550000Y-83419346D01*
X83162293Y-83297553D01*
X83589491Y-83012109D01*
X83691862Y-83171198D01*
X83942492Y-83342446D01*
X84240000Y-83402693D01*
X85940000Y-83402693D01*
X86217933Y-83350396D01*
X86473198Y-83186138D01*
X86644446Y-82935508D01*
X86704693Y-82638000D01*
X86704693Y-82565715D01*
X124650000Y-82565715D01*
X124650000Y-82634285D01*
X124783211Y-83303981D01*
X125162563Y-83871722D01*
X125730304Y-84251074D01*
X126400000Y-84384285D01*
X127069696Y-84251074D01*
X127637437Y-83871722D01*
X128016789Y-83303981D01*
X128150000Y-82634285D01*
X128150000Y-82565715D01*
X128016789Y-81896019D01*
X127637437Y-81328278D01*
X127069696Y-80948926D01*
X126400000Y-80815715D01*
X125730304Y-80948926D01*
X125162563Y-81328278D01*
X124783211Y-81896019D01*
X124650000Y-82565715D01*
X86704693Y-82565715D01*
X86704693Y-80938000D01*
X86652396Y-80660067D01*
X86488138Y-80404802D01*
X86237508Y-80233554D01*
X85940000Y-80173307D01*
X84240000Y-80173307D01*
X83962067Y-80225604D01*
X83706802Y-80389862D01*
X83588394Y-80563158D01*
X83162293Y-80278447D01*
X82550000Y-80156654D01*
X81937707Y-80278447D01*
X81418629Y-80625283D01*
X81071793Y-81144361D01*
X80950000Y-81756654D01*
X37525994Y-81756654D01*
X37250000Y-81480660D01*
X36383699Y-82346961D01*
X30825000Y-82346961D01*
X30825000Y-80641149D01*
X34958408Y-80641149D01*
X35048216Y-81092639D01*
X35323039Y-81286301D01*
X36189340Y-80420000D01*
X38310660Y-80420000D01*
X39176961Y-81286301D01*
X39451784Y-81092639D01*
X39541592Y-80198851D01*
X39451784Y-79747361D01*
X39176961Y-79553699D01*
X38310660Y-80420000D01*
X36189340Y-80420000D01*
X35323039Y-79553699D01*
X35048216Y-79747361D01*
X34958408Y-80641149D01*
X30825000Y-80641149D01*
X30825000Y-78493039D01*
X36383699Y-78493039D01*
X37250000Y-79359340D01*
X38116301Y-78493039D01*
X37922639Y-78218216D01*
X37028851Y-78128408D01*
X36577361Y-78218216D01*
X36383699Y-78493039D01*
X30825000Y-78493039D01*
X30825000Y-76661335D01*
X30883211Y-76953981D01*
X31262563Y-77521722D01*
X31830304Y-77901074D01*
X32500000Y-78034285D01*
X33169696Y-77901074D01*
X33737437Y-77521722D01*
X33782687Y-77454000D01*
X51517307Y-77454000D01*
X51517307Y-79154000D01*
X51569604Y-79431933D01*
X51733862Y-79687198D01*
X51984492Y-79858446D01*
X52282000Y-79918693D01*
X53982000Y-79918693D01*
X54259933Y-79866396D01*
X54515198Y-79702138D01*
X54633606Y-79528842D01*
X55059707Y-79813553D01*
X55672000Y-79935346D01*
X56284293Y-79813553D01*
X56803371Y-79466717D01*
X56840625Y-79410961D01*
X60381732Y-79410961D01*
X60617208Y-79980857D01*
X61052849Y-80417260D01*
X61622333Y-80653730D01*
X62238961Y-80654268D01*
X62808857Y-80418792D01*
X63245260Y-79983151D01*
X63481730Y-79413667D01*
X63482268Y-78797039D01*
X63246792Y-78227143D01*
X63119872Y-78100000D01*
X115351022Y-78100000D01*
X115503263Y-78865367D01*
X115936808Y-79514214D01*
X116585655Y-79947759D01*
X117351022Y-80100000D01*
X118448978Y-80100000D01*
X119214345Y-79947759D01*
X119863192Y-79514214D01*
X120025398Y-79271454D01*
X121057774Y-79271454D01*
X121454959Y-79925332D01*
X121984178Y-80386990D01*
X122275000Y-80307723D01*
X122275000Y-78975000D01*
X123525000Y-78975000D01*
X123525000Y-80307723D01*
X123815822Y-80386990D01*
X124345041Y-79925332D01*
X124742226Y-79271454D01*
X124635084Y-78975000D01*
X123525000Y-78975000D01*
X122275000Y-78975000D01*
X121164916Y-78975000D01*
X121057774Y-79271454D01*
X120025398Y-79271454D01*
X120296737Y-78865367D01*
X120448978Y-78100000D01*
X120296737Y-77334633D01*
X120025399Y-76928546D01*
X121057774Y-76928546D01*
X121164916Y-77225000D01*
X122275000Y-77225000D01*
X122275000Y-75892277D01*
X123525000Y-75892277D01*
X123525000Y-77225000D01*
X124635084Y-77225000D01*
X124742226Y-76928546D01*
X124345041Y-76274668D01*
X123815822Y-75813010D01*
X123525000Y-75892277D01*
X122275000Y-75892277D01*
X121984178Y-75813010D01*
X121454959Y-76274668D01*
X121057774Y-76928546D01*
X120025399Y-76928546D01*
X119863192Y-76685786D01*
X119214345Y-76252241D01*
X118448978Y-76100000D01*
X117351022Y-76100000D01*
X116585655Y-76252241D01*
X115936808Y-76685786D01*
X115503263Y-77334633D01*
X115351022Y-78100000D01*
X63119872Y-78100000D01*
X62811151Y-77790740D01*
X62241667Y-77554270D01*
X61625039Y-77553732D01*
X61055143Y-77789208D01*
X60618740Y-78224849D01*
X60382270Y-78794333D01*
X60381732Y-79410961D01*
X56840625Y-79410961D01*
X57150207Y-78947639D01*
X57272000Y-78335346D01*
X57272000Y-78272654D01*
X57150207Y-77660361D01*
X56803371Y-77141283D01*
X56284293Y-76794447D01*
X55672000Y-76672654D01*
X55059707Y-76794447D01*
X54632509Y-77079891D01*
X54530138Y-76920802D01*
X54279508Y-76749554D01*
X53982000Y-76689307D01*
X52282000Y-76689307D01*
X52004067Y-76741604D01*
X51748802Y-76905862D01*
X51577554Y-77156492D01*
X51517307Y-77454000D01*
X33782687Y-77454000D01*
X34116789Y-76953981D01*
X34250000Y-76284285D01*
X34250000Y-76215715D01*
X34116789Y-75546019D01*
X33826749Y-75111942D01*
X65781818Y-75111942D01*
X65941334Y-75498000D01*
X66236446Y-75793628D01*
X66622226Y-75953818D01*
X67039942Y-75954182D01*
X67426000Y-75794666D01*
X67692131Y-75529000D01*
X68015267Y-75529000D01*
X68402849Y-75917260D01*
X68972333Y-76153730D01*
X69588961Y-76154268D01*
X70158857Y-75918792D01*
X70595260Y-75483151D01*
X70831730Y-74913667D01*
X70832000Y-74604000D01*
X75321634Y-74604000D01*
X75439621Y-75197159D01*
X75775618Y-75700016D01*
X76278475Y-76036013D01*
X76871634Y-76154000D01*
X76932366Y-76154000D01*
X77525525Y-76036013D01*
X78028382Y-75700016D01*
X78364379Y-75197159D01*
X78482366Y-74604000D01*
X78364379Y-74010841D01*
X78028382Y-73507984D01*
X77525525Y-73171987D01*
X76932366Y-73054000D01*
X76871634Y-73054000D01*
X76278475Y-73171987D01*
X75775618Y-73507984D01*
X75439621Y-74010841D01*
X75321634Y-74604000D01*
X70832000Y-74604000D01*
X70832268Y-74297039D01*
X70596792Y-73727143D01*
X70161151Y-73290740D01*
X69591667Y-73054270D01*
X68975039Y-73053732D01*
X68405143Y-73289208D01*
X68014669Y-73679000D01*
X67132000Y-73679000D01*
X66778017Y-73749411D01*
X66618040Y-73856305D01*
X66238000Y-74013334D01*
X65942372Y-74308446D01*
X65782182Y-74694226D01*
X65781818Y-75111942D01*
X33826749Y-75111942D01*
X33737437Y-74978278D01*
X33169696Y-74598926D01*
X32500000Y-74465715D01*
X31830304Y-74598926D01*
X31262563Y-74978278D01*
X30883211Y-75546019D01*
X30825000Y-75838665D01*
X30825000Y-72921454D01*
X34157774Y-72921454D01*
X34554959Y-73575332D01*
X35084178Y-74036990D01*
X35375000Y-73957723D01*
X35375000Y-72625000D01*
X36625000Y-72625000D01*
X36625000Y-73957723D01*
X36915822Y-74036990D01*
X37445041Y-73575332D01*
X37842226Y-72921454D01*
X37735084Y-72625000D01*
X36625000Y-72625000D01*
X35375000Y-72625000D01*
X34264916Y-72625000D01*
X34157774Y-72921454D01*
X30825000Y-72921454D01*
X30825000Y-71750000D01*
X38451022Y-71750000D01*
X38603263Y-72515367D01*
X39036808Y-73164214D01*
X39685655Y-73597759D01*
X40451022Y-73750000D01*
X41548978Y-73750000D01*
X42314345Y-73597759D01*
X42963192Y-73164214D01*
X43396737Y-72515367D01*
X43548978Y-71750000D01*
X43400590Y-71004000D01*
X49231634Y-71004000D01*
X49349621Y-71597159D01*
X49685618Y-72100016D01*
X50188475Y-72436013D01*
X50781634Y-72554000D01*
X50842366Y-72554000D01*
X51435525Y-72436013D01*
X51938382Y-72100016D01*
X52274379Y-71597159D01*
X52331307Y-71310961D01*
X56881732Y-71310961D01*
X57117208Y-71880857D01*
X57552849Y-72317260D01*
X58122333Y-72553730D01*
X58738961Y-72554268D01*
X59308857Y-72318792D01*
X59745260Y-71883151D01*
X59923610Y-71453634D01*
X60382000Y-71453634D01*
X60382000Y-71514366D01*
X60499987Y-72107525D01*
X60835984Y-72610382D01*
X61338841Y-72946379D01*
X61932000Y-73064366D01*
X62525159Y-72946379D01*
X63028016Y-72610382D01*
X63364013Y-72107525D01*
X63482000Y-71514366D01*
X63482000Y-71453634D01*
X63412454Y-71104000D01*
X67831634Y-71104000D01*
X67949621Y-71697159D01*
X68285618Y-72200016D01*
X68788475Y-72536013D01*
X69381634Y-72654000D01*
X69442366Y-72654000D01*
X70035525Y-72536013D01*
X70538382Y-72200016D01*
X70874379Y-71697159D01*
X70931307Y-71410961D01*
X75481732Y-71410961D01*
X75717208Y-71980857D01*
X76152849Y-72417260D01*
X76722333Y-72653730D01*
X77338961Y-72654268D01*
X77908857Y-72418792D01*
X78134408Y-72193634D01*
X78682000Y-72193634D01*
X78682000Y-72254366D01*
X78799987Y-72847525D01*
X79135984Y-73350382D01*
X79638841Y-73686379D01*
X80232000Y-73804366D01*
X80825159Y-73686379D01*
X81328016Y-73350382D01*
X81664013Y-72847525D01*
X81782000Y-72254366D01*
X81782000Y-72193634D01*
X81664013Y-71600475D01*
X81328016Y-71097618D01*
X81217839Y-71024000D01*
X83400654Y-71024000D01*
X83522447Y-71636293D01*
X83869283Y-72155371D01*
X84076756Y-72294000D01*
X83869283Y-72432629D01*
X83522447Y-72951707D01*
X83400654Y-73564000D01*
X83522447Y-74176293D01*
X83807891Y-74603491D01*
X83648802Y-74705862D01*
X83477554Y-74956492D01*
X83417307Y-75254000D01*
X83417307Y-76954000D01*
X83469604Y-77231933D01*
X83633862Y-77487198D01*
X83884492Y-77658446D01*
X84182000Y-77718693D01*
X85882000Y-77718693D01*
X86159933Y-77666396D01*
X86415198Y-77502138D01*
X86586446Y-77251508D01*
X86646693Y-76954000D01*
X86646693Y-75254000D01*
X86594396Y-74976067D01*
X86430138Y-74720802D01*
X86256842Y-74602394D01*
X86541553Y-74176293D01*
X86663004Y-73565715D01*
X124650000Y-73565715D01*
X124650000Y-73634285D01*
X124783211Y-74303981D01*
X125162563Y-74871722D01*
X125730304Y-75251074D01*
X126400000Y-75384285D01*
X127069696Y-75251074D01*
X127637437Y-74871722D01*
X128016789Y-74303981D01*
X128150000Y-73634285D01*
X128150000Y-73565715D01*
X128016789Y-72896019D01*
X127637437Y-72328278D01*
X127069696Y-71948926D01*
X126400000Y-71815715D01*
X125730304Y-71948926D01*
X125162563Y-72328278D01*
X124783211Y-72896019D01*
X124650000Y-73565715D01*
X86663004Y-73565715D01*
X86663346Y-73564000D01*
X86541553Y-72951707D01*
X86194717Y-72432629D01*
X85987244Y-72294000D01*
X86194717Y-72155371D01*
X86541553Y-71636293D01*
X86663346Y-71024000D01*
X86541553Y-70411707D01*
X86194717Y-69892629D01*
X85675639Y-69545793D01*
X85063346Y-69424000D01*
X85000654Y-69424000D01*
X84388361Y-69545793D01*
X83869283Y-69892629D01*
X83522447Y-70411707D01*
X83400654Y-71024000D01*
X81217839Y-71024000D01*
X80825159Y-70761621D01*
X80232000Y-70643634D01*
X79638841Y-70761621D01*
X79135984Y-71097618D01*
X78799987Y-71600475D01*
X78682000Y-72193634D01*
X78134408Y-72193634D01*
X78345260Y-71983151D01*
X78581730Y-71413667D01*
X78582268Y-70797039D01*
X78346792Y-70227143D01*
X77911151Y-69790740D01*
X77341667Y-69554270D01*
X76725039Y-69553732D01*
X76155143Y-69789208D01*
X75718740Y-70224849D01*
X75482270Y-70794333D01*
X75481732Y-71410961D01*
X70931307Y-71410961D01*
X70992366Y-71104000D01*
X70874379Y-70510841D01*
X70538382Y-70007984D01*
X70035525Y-69671987D01*
X69442366Y-69554000D01*
X69381634Y-69554000D01*
X68788475Y-69671987D01*
X68285618Y-70007984D01*
X67949621Y-70510841D01*
X67831634Y-71104000D01*
X63412454Y-71104000D01*
X63364013Y-70860475D01*
X63028016Y-70357618D01*
X62525159Y-70021621D01*
X61932000Y-69903634D01*
X61338841Y-70021621D01*
X60835984Y-70357618D01*
X60499987Y-70860475D01*
X60382000Y-71453634D01*
X59923610Y-71453634D01*
X59981730Y-71313667D01*
X59982268Y-70697039D01*
X59746792Y-70127143D01*
X59311151Y-69690740D01*
X58741667Y-69454270D01*
X58125039Y-69453732D01*
X57555143Y-69689208D01*
X57118740Y-70124849D01*
X56882270Y-70694333D01*
X56881732Y-71310961D01*
X52331307Y-71310961D01*
X52392366Y-71004000D01*
X52274379Y-70410841D01*
X51938382Y-69907984D01*
X51435525Y-69571987D01*
X50842366Y-69454000D01*
X50781634Y-69454000D01*
X50188475Y-69571987D01*
X49685618Y-69907984D01*
X49349621Y-70410841D01*
X49231634Y-71004000D01*
X43400590Y-71004000D01*
X43396737Y-70984633D01*
X42963192Y-70335786D01*
X42314345Y-69902241D01*
X41548978Y-69750000D01*
X40451022Y-69750000D01*
X39685655Y-69902241D01*
X39036808Y-70335786D01*
X38603263Y-70984633D01*
X38451022Y-71750000D01*
X30825000Y-71750000D01*
X30825000Y-70578546D01*
X34157774Y-70578546D01*
X34264916Y-70875000D01*
X35375000Y-70875000D01*
X35375000Y-69542277D01*
X36625000Y-69542277D01*
X36625000Y-70875000D01*
X37735084Y-70875000D01*
X37842226Y-70578546D01*
X37445041Y-69924668D01*
X36915822Y-69463010D01*
X36625000Y-69542277D01*
X35375000Y-69542277D01*
X35084178Y-69463010D01*
X34554959Y-69924668D01*
X34157774Y-70578546D01*
X30825000Y-70578546D01*
X30825000Y-69040000D01*
X97068654Y-69040000D01*
X97190447Y-69652293D01*
X97537283Y-70171371D01*
X98056361Y-70518207D01*
X98668654Y-70640000D01*
X98731346Y-70640000D01*
X99343639Y-70518207D01*
X99862717Y-70171371D01*
X100209553Y-69652293D01*
X100331346Y-69040000D01*
X100209553Y-68427707D01*
X99950002Y-68039261D01*
X99950002Y-68004767D01*
X99979373Y-67992601D01*
X100192602Y-67779372D01*
X100308000Y-67500775D01*
X100308000Y-67114500D01*
X100118500Y-66925000D01*
X99125000Y-66925000D01*
X99125000Y-67350000D01*
X98275000Y-67350000D01*
X98275000Y-66925000D01*
X97281500Y-66925000D01*
X97092000Y-67114500D01*
X97092000Y-67500775D01*
X97207398Y-67779372D01*
X97420627Y-67992601D01*
X97449998Y-68004767D01*
X97449998Y-68039261D01*
X97190447Y-68427707D01*
X97068654Y-69040000D01*
X30825000Y-69040000D01*
X30825000Y-67661335D01*
X30883211Y-67953981D01*
X31262563Y-68521722D01*
X31830304Y-68901074D01*
X32500000Y-69034285D01*
X33169696Y-68901074D01*
X33737437Y-68521722D01*
X34116789Y-67953981D01*
X34250000Y-67284285D01*
X34250000Y-67263942D01*
X87087818Y-67263942D01*
X87247334Y-67650000D01*
X87542446Y-67945628D01*
X87928226Y-68105818D01*
X88345942Y-68106182D01*
X88732000Y-67946666D01*
X89027628Y-67651554D01*
X89153339Y-67348809D01*
X90316071Y-66186076D01*
X90316074Y-66186074D01*
X90471340Y-65953702D01*
X90551628Y-65873554D01*
X90707063Y-65499225D01*
X97092000Y-65499225D01*
X97092000Y-65885500D01*
X97281500Y-66075000D01*
X98275000Y-66075000D01*
X98275000Y-65081500D01*
X99125000Y-65081500D01*
X99125000Y-66075000D01*
X100118500Y-66075000D01*
X100308000Y-65885500D01*
X100308000Y-65499225D01*
X100192602Y-65220628D01*
X99979373Y-65007399D01*
X99700776Y-64892000D01*
X99314500Y-64892000D01*
X99125000Y-65081500D01*
X98275000Y-65081500D01*
X98085500Y-64892000D01*
X97699224Y-64892000D01*
X97420627Y-65007399D01*
X97207398Y-65220628D01*
X97092000Y-65499225D01*
X90707063Y-65499225D01*
X90711818Y-65487774D01*
X90712182Y-65070058D01*
X90552666Y-64684000D01*
X90257554Y-64388372D01*
X89871774Y-64228182D01*
X89454058Y-64227818D01*
X89068000Y-64387334D01*
X88772372Y-64682446D01*
X88612182Y-65068226D01*
X88612003Y-65273850D01*
X87844811Y-66041041D01*
X87544000Y-66165334D01*
X87248372Y-66460446D01*
X87088182Y-66846226D01*
X87087818Y-67263942D01*
X34250000Y-67263942D01*
X34250000Y-67215715D01*
X34116789Y-66546019D01*
X33834670Y-66123798D01*
X33987437Y-66021722D01*
X34366789Y-65453981D01*
X34500000Y-64784285D01*
X34500000Y-64715715D01*
X34437996Y-64404000D01*
X57031634Y-64404000D01*
X57149621Y-64997159D01*
X57485618Y-65500016D01*
X57988475Y-65836013D01*
X58581634Y-65954000D01*
X58642366Y-65954000D01*
X59235525Y-65836013D01*
X59738382Y-65500016D01*
X60074379Y-64997159D01*
X60131307Y-64710961D01*
X64681732Y-64710961D01*
X64917208Y-65280857D01*
X65352849Y-65717260D01*
X65922333Y-65953730D01*
X66538961Y-65954268D01*
X67108857Y-65718792D01*
X67545260Y-65283151D01*
X67699806Y-64910961D01*
X78681732Y-64910961D01*
X78917208Y-65480857D01*
X79352849Y-65917260D01*
X79922333Y-66153730D01*
X80538961Y-66154268D01*
X81108857Y-65918792D01*
X81545260Y-65483151D01*
X81781730Y-64913667D01*
X81782268Y-64297039D01*
X81546792Y-63727143D01*
X81111151Y-63290740D01*
X80541667Y-63054270D01*
X79925039Y-63053732D01*
X79355143Y-63289208D01*
X78918740Y-63724849D01*
X78682270Y-64294333D01*
X78681732Y-64910961D01*
X67699806Y-64910961D01*
X67781730Y-64713667D01*
X67782268Y-64097039D01*
X67546792Y-63527143D01*
X67111151Y-63090740D01*
X66541667Y-62854270D01*
X65925039Y-62853732D01*
X65355143Y-63089208D01*
X64918740Y-63524849D01*
X64682270Y-64094333D01*
X64681732Y-64710961D01*
X60131307Y-64710961D01*
X60192366Y-64404000D01*
X60074379Y-63810841D01*
X59738382Y-63307984D01*
X59235525Y-62971987D01*
X58642366Y-62854000D01*
X58581634Y-62854000D01*
X57988475Y-62971987D01*
X57485618Y-63307984D01*
X57149621Y-63810841D01*
X57031634Y-64404000D01*
X34437996Y-64404000D01*
X34366789Y-64046019D01*
X33987437Y-63478278D01*
X33419696Y-63098926D01*
X32750000Y-62965715D01*
X32080304Y-63098926D01*
X31512563Y-63478278D01*
X31133211Y-64046019D01*
X31000000Y-64715715D01*
X31000000Y-64784285D01*
X31133211Y-65453981D01*
X31415330Y-65876202D01*
X31262563Y-65978278D01*
X30883211Y-66546019D01*
X30825000Y-66838665D01*
X30825000Y-61421454D01*
X34407774Y-61421454D01*
X34804959Y-62075332D01*
X35334178Y-62536990D01*
X35625000Y-62457723D01*
X35625000Y-61125000D01*
X36875000Y-61125000D01*
X36875000Y-62457723D01*
X37165822Y-62536990D01*
X37695041Y-62075332D01*
X38092226Y-61421454D01*
X37985084Y-61125000D01*
X36875000Y-61125000D01*
X35625000Y-61125000D01*
X34514916Y-61125000D01*
X34407774Y-61421454D01*
X30825000Y-61421454D01*
X30825000Y-60250000D01*
X38701022Y-60250000D01*
X38853263Y-61015367D01*
X39286808Y-61664214D01*
X39935655Y-62097759D01*
X40701022Y-62250000D01*
X41798978Y-62250000D01*
X42564345Y-62097759D01*
X43213192Y-61664214D01*
X43646737Y-61015367D01*
X43798978Y-60250000D01*
X43646737Y-59484633D01*
X43213192Y-58835786D01*
X42564345Y-58402241D01*
X41798978Y-58250000D01*
X40701022Y-58250000D01*
X39935655Y-58402241D01*
X39286808Y-58835786D01*
X38853263Y-59484633D01*
X38701022Y-60250000D01*
X30825000Y-60250000D01*
X30825000Y-59078546D01*
X34407774Y-59078546D01*
X34514916Y-59375000D01*
X35625000Y-59375000D01*
X35625000Y-58042277D01*
X36875000Y-58042277D01*
X36875000Y-59375000D01*
X37985084Y-59375000D01*
X38092226Y-59078546D01*
X37695041Y-58424668D01*
X37396226Y-58164000D01*
X62200654Y-58164000D01*
X62322447Y-58776293D01*
X62607891Y-59203491D01*
X62448802Y-59305862D01*
X62277554Y-59556492D01*
X62217307Y-59854000D01*
X62217307Y-61554000D01*
X62269604Y-61831933D01*
X62433862Y-62087198D01*
X62684492Y-62258446D01*
X62982000Y-62318693D01*
X64682000Y-62318693D01*
X64959933Y-62266396D01*
X65215198Y-62102138D01*
X65386446Y-61851508D01*
X65446693Y-61554000D01*
X65446693Y-59854000D01*
X65431640Y-59774000D01*
X83400654Y-59774000D01*
X83522447Y-60386293D01*
X83869283Y-60905371D01*
X84076756Y-61044000D01*
X83869283Y-61182629D01*
X83522447Y-61701707D01*
X83400654Y-62314000D01*
X83522447Y-62926293D01*
X83807891Y-63353491D01*
X83648802Y-63455862D01*
X83477554Y-63706492D01*
X83417307Y-64004000D01*
X83417307Y-65704000D01*
X83469604Y-65981933D01*
X83633862Y-66237198D01*
X83884492Y-66408446D01*
X84182000Y-66468693D01*
X85882000Y-66468693D01*
X86159933Y-66416396D01*
X86415198Y-66252138D01*
X86586446Y-66001508D01*
X86646693Y-65704000D01*
X86646693Y-64004000D01*
X86594396Y-63726067D01*
X86430138Y-63470802D01*
X86256842Y-63352394D01*
X86541553Y-62926293D01*
X86663346Y-62314000D01*
X86541553Y-61701707D01*
X86194717Y-61182629D01*
X85987244Y-61044000D01*
X86194717Y-60905371D01*
X86541553Y-60386293D01*
X86663346Y-59774000D01*
X86541553Y-59161707D01*
X86194717Y-58642629D01*
X85675639Y-58295793D01*
X85063346Y-58174000D01*
X85000654Y-58174000D01*
X84388361Y-58295793D01*
X83869283Y-58642629D01*
X83522447Y-59161707D01*
X83400654Y-59774000D01*
X65431640Y-59774000D01*
X65394396Y-59576067D01*
X65230138Y-59320802D01*
X65056842Y-59202394D01*
X65341553Y-58776293D01*
X65463346Y-58164000D01*
X65341553Y-57551707D01*
X64994717Y-57032629D01*
X64475639Y-56685793D01*
X63863346Y-56564000D01*
X63800654Y-56564000D01*
X63188361Y-56685793D01*
X62669283Y-57032629D01*
X62322447Y-57551707D01*
X62200654Y-58164000D01*
X37396226Y-58164000D01*
X37165822Y-57963010D01*
X36875000Y-58042277D01*
X35625000Y-58042277D01*
X35334178Y-57963010D01*
X34804959Y-58424668D01*
X34407774Y-59078546D01*
X30825000Y-59078546D01*
X30825000Y-55715715D01*
X31000000Y-55715715D01*
X31000000Y-55784285D01*
X31133211Y-56453981D01*
X31512563Y-57021722D01*
X32080304Y-57401074D01*
X32750000Y-57534285D01*
X33419696Y-57401074D01*
X33987437Y-57021722D01*
X34366789Y-56453981D01*
X34498140Y-55793634D01*
X55082000Y-55793634D01*
X55082000Y-55854366D01*
X55199987Y-56447525D01*
X55535984Y-56950382D01*
X56038841Y-57286379D01*
X56632000Y-57404366D01*
X57225159Y-57286379D01*
X57728016Y-56950382D01*
X58064013Y-56447525D01*
X58182000Y-55854366D01*
X58182000Y-55793634D01*
X58064013Y-55200475D01*
X57728016Y-54697618D01*
X57225159Y-54361621D01*
X56632000Y-54243634D01*
X56038841Y-54361621D01*
X55535984Y-54697618D01*
X55199987Y-55200475D01*
X55082000Y-55793634D01*
X34498140Y-55793634D01*
X34500000Y-55784285D01*
X34500000Y-55715715D01*
X34366789Y-55046019D01*
X33987437Y-54478278D01*
X33419696Y-54098926D01*
X33233766Y-54061942D01*
X69231818Y-54061942D01*
X69391334Y-54448000D01*
X69686446Y-54743628D01*
X69857000Y-54814448D01*
X69857000Y-56843631D01*
X69732182Y-57144226D01*
X69731818Y-57561942D01*
X69891334Y-57948000D01*
X70186446Y-58243628D01*
X70572226Y-58403818D01*
X70989942Y-58404182D01*
X71376000Y-58244666D01*
X71671628Y-57949554D01*
X71831818Y-57563774D01*
X71832182Y-57146058D01*
X71719174Y-56872559D01*
X72188841Y-57186379D01*
X72782000Y-57304366D01*
X73375159Y-57186379D01*
X73878016Y-56850382D01*
X74214013Y-56347525D01*
X74332000Y-55754366D01*
X74332000Y-55693634D01*
X74214013Y-55100475D01*
X73878016Y-54597618D01*
X73375159Y-54261621D01*
X72782000Y-54143634D01*
X72188841Y-54261621D01*
X71707000Y-54583576D01*
X71707000Y-54354000D01*
X71636589Y-54000018D01*
X71436074Y-53699926D01*
X71296958Y-53560810D01*
X71172666Y-53260000D01*
X70877554Y-52964372D01*
X70491774Y-52804182D01*
X70074058Y-52803818D01*
X69688000Y-52963334D01*
X69392372Y-53258446D01*
X69232182Y-53644226D01*
X69231818Y-54061942D01*
X33233766Y-54061942D01*
X32750000Y-53965715D01*
X32080304Y-54098926D01*
X31512563Y-54478278D01*
X31133211Y-55046019D01*
X31000000Y-55715715D01*
X30825000Y-55715715D01*
X30825000Y-49500000D01*
X35735307Y-49500000D01*
X35735307Y-52500000D01*
X35787604Y-52777933D01*
X35951862Y-53033198D01*
X36202492Y-53204446D01*
X36500000Y-53264693D01*
X39500000Y-53264693D01*
X39777933Y-53212396D01*
X40033198Y-53048138D01*
X40204446Y-52797508D01*
X40264693Y-52500000D01*
X40264693Y-52244000D01*
X83500654Y-52244000D01*
X83622447Y-52856293D01*
X83969283Y-53375371D01*
X84488361Y-53722207D01*
X85100654Y-53844000D01*
X85163346Y-53844000D01*
X85775639Y-53722207D01*
X86294717Y-53375371D01*
X86641553Y-52856293D01*
X86763346Y-52244000D01*
X86641553Y-51631707D01*
X86356109Y-51204509D01*
X86515198Y-51102138D01*
X86686446Y-50851508D01*
X86735769Y-50607942D01*
X95449818Y-50607942D01*
X95609334Y-50994000D01*
X95904446Y-51289628D01*
X96290226Y-51449818D01*
X96707942Y-51450182D01*
X97094000Y-51290666D01*
X97389628Y-50995554D01*
X97549818Y-50609774D01*
X97550182Y-50192058D01*
X97425000Y-49889095D01*
X97425000Y-48560069D01*
X97489628Y-48495554D01*
X97649818Y-48109774D01*
X97650182Y-47692058D01*
X97490666Y-47306000D01*
X97195554Y-47010372D01*
X96809774Y-46850182D01*
X96392058Y-46849818D01*
X96006000Y-47009334D01*
X95710372Y-47304446D01*
X95550182Y-47690226D01*
X95549818Y-48107942D01*
X95575000Y-48168887D01*
X95575000Y-49889631D01*
X95450182Y-50190226D01*
X95449818Y-50607942D01*
X86735769Y-50607942D01*
X86746693Y-50554000D01*
X86746693Y-48854000D01*
X86694396Y-48576067D01*
X86530138Y-48320802D01*
X86279508Y-48149554D01*
X85982000Y-48089307D01*
X84282000Y-48089307D01*
X84004067Y-48141604D01*
X83748802Y-48305862D01*
X83577554Y-48556492D01*
X83517307Y-48854000D01*
X83517307Y-50554000D01*
X83569604Y-50831933D01*
X83733862Y-51087198D01*
X83907158Y-51205606D01*
X83622447Y-51631707D01*
X83500654Y-52244000D01*
X40264693Y-52244000D01*
X40264693Y-51207942D01*
X63949818Y-51207942D01*
X64109334Y-51594000D01*
X64404446Y-51889628D01*
X64790226Y-52049818D01*
X65207942Y-52050182D01*
X65510905Y-51925000D01*
X67739631Y-51925000D01*
X68040226Y-52049818D01*
X68457942Y-52050182D01*
X68844000Y-51890666D01*
X69139628Y-51595554D01*
X69299818Y-51209774D01*
X69300182Y-50792058D01*
X69140666Y-50406000D01*
X68845554Y-50110372D01*
X68459774Y-49950182D01*
X68042058Y-49949818D01*
X67739095Y-50075000D01*
X65510369Y-50075000D01*
X65209774Y-49950182D01*
X64792058Y-49949818D01*
X64406000Y-50109334D01*
X64110372Y-50404446D01*
X63950182Y-50790226D01*
X63949818Y-51207942D01*
X40264693Y-51207942D01*
X40264693Y-49500000D01*
X40212396Y-49222067D01*
X40048138Y-48966802D01*
X39797508Y-48795554D01*
X39500000Y-48735307D01*
X36500000Y-48735307D01*
X36222067Y-48787604D01*
X35966802Y-48951862D01*
X35795554Y-49202492D01*
X35735307Y-49500000D01*
X30825000Y-49500000D01*
X30825000Y-48510961D01*
X55081732Y-48510961D01*
X55317208Y-49080857D01*
X55752849Y-49517260D01*
X56322333Y-49753730D01*
X56938961Y-49754268D01*
X57508857Y-49518792D01*
X57945260Y-49083151D01*
X58181730Y-48513667D01*
X58181819Y-48410961D01*
X71231732Y-48410961D01*
X71467208Y-48980857D01*
X71902849Y-49417260D01*
X72472333Y-49653730D01*
X73088961Y-49654268D01*
X73658857Y-49418792D01*
X74095260Y-48983151D01*
X74331730Y-48413667D01*
X74332268Y-47797039D01*
X74096792Y-47227143D01*
X73661151Y-46790740D01*
X73091667Y-46554270D01*
X72475039Y-46553732D01*
X71905143Y-46789208D01*
X71468740Y-47224849D01*
X71232270Y-47794333D01*
X71231732Y-48410961D01*
X58181819Y-48410961D01*
X58182268Y-47897039D01*
X57946792Y-47327143D01*
X57511151Y-46890740D01*
X56941667Y-46654270D01*
X56325039Y-46653732D01*
X55755143Y-46889208D01*
X55318740Y-47324849D01*
X55082270Y-47894333D01*
X55081732Y-48510961D01*
X30825000Y-48510961D01*
X30825000Y-47846961D01*
X37133699Y-47846961D01*
X37327361Y-48121784D01*
X38221149Y-48211592D01*
X38672639Y-48121784D01*
X38866301Y-47846961D01*
X38000000Y-46980660D01*
X37133699Y-47846961D01*
X30825000Y-47846961D01*
X30825000Y-46141149D01*
X35708408Y-46141149D01*
X35798216Y-46592639D01*
X36073039Y-46786301D01*
X36939340Y-45920000D01*
X39060660Y-45920000D01*
X39926961Y-46786301D01*
X40201784Y-46592639D01*
X40291592Y-45698851D01*
X40201784Y-45247361D01*
X39926961Y-45053699D01*
X39060660Y-45920000D01*
X36939340Y-45920000D01*
X36073039Y-45053699D01*
X35798216Y-45247361D01*
X35708408Y-46141149D01*
X30825000Y-46141149D01*
X30825000Y-43993039D01*
X37133699Y-43993039D01*
X38000000Y-44859340D01*
X38866301Y-43993039D01*
X38672639Y-43718216D01*
X37778851Y-43628408D01*
X37327361Y-43718216D01*
X37133699Y-43993039D01*
X30825000Y-43993039D01*
X30825000Y-34758981D01*
X31422066Y-35357090D01*
X32444198Y-35781516D01*
X33550946Y-35782482D01*
X34573818Y-35359840D01*
X34683849Y-35250000D01*
X40235307Y-35250000D01*
X40235307Y-37250000D01*
X40287604Y-37527933D01*
X40451862Y-37783198D01*
X40702492Y-37954446D01*
X41000000Y-38014693D01*
X43000000Y-38014693D01*
X43277933Y-37962396D01*
X43533198Y-37798138D01*
X43613609Y-37680452D01*
X46276655Y-37680452D01*
X46392759Y-37936448D01*
X47084358Y-38040455D01*
X47607241Y-37936448D01*
X47723345Y-37680452D01*
X47000000Y-36957107D01*
X46276655Y-37680452D01*
X43613609Y-37680452D01*
X43704446Y-37547508D01*
X43764693Y-37250000D01*
X43764693Y-36334358D01*
X45209545Y-36334358D01*
X45313552Y-36857241D01*
X45569548Y-36973345D01*
X46292893Y-36250000D01*
X47707107Y-36250000D01*
X48430452Y-36973345D01*
X48686448Y-36857241D01*
X48790455Y-36165642D01*
X48686448Y-35642759D01*
X48430452Y-35526655D01*
X47707107Y-36250000D01*
X46292893Y-36250000D01*
X45569548Y-35526655D01*
X45313552Y-35642759D01*
X45209545Y-36334358D01*
X43764693Y-36334358D01*
X43764693Y-35250000D01*
X43712396Y-34972067D01*
X43614254Y-34819548D01*
X46276655Y-34819548D01*
X47000000Y-35542893D01*
X47542893Y-35000000D01*
X51485307Y-35000000D01*
X51485307Y-37000000D01*
X51537604Y-37277933D01*
X51701862Y-37533198D01*
X51952492Y-37704446D01*
X52250000Y-37764693D01*
X54250000Y-37764693D01*
X54527933Y-37712396D01*
X54783198Y-37548138D01*
X54863609Y-37430452D01*
X57526655Y-37430452D01*
X57642759Y-37686448D01*
X58334358Y-37790455D01*
X58857241Y-37686448D01*
X58973345Y-37430452D01*
X58250000Y-36707107D01*
X57526655Y-37430452D01*
X54863609Y-37430452D01*
X54954446Y-37297508D01*
X55014693Y-37000000D01*
X55014693Y-36084358D01*
X56459545Y-36084358D01*
X56563552Y-36607241D01*
X56819548Y-36723345D01*
X57542893Y-36000000D01*
X58957107Y-36000000D01*
X59680452Y-36723345D01*
X59936448Y-36607241D01*
X59952575Y-36500000D01*
X61285307Y-36500000D01*
X61285307Y-40000000D01*
X61337604Y-40277933D01*
X61501862Y-40533198D01*
X61752492Y-40704446D01*
X62050000Y-40764693D01*
X65550000Y-40764693D01*
X65827933Y-40712396D01*
X65985307Y-40611129D01*
X65985307Y-43000000D01*
X66037604Y-43277933D01*
X66201862Y-43533198D01*
X66452492Y-43704446D01*
X66750000Y-43764693D01*
X70250000Y-43764693D01*
X70527933Y-43712396D01*
X70783198Y-43548138D01*
X70954446Y-43297508D01*
X70972583Y-43207942D01*
X94449818Y-43207942D01*
X94609334Y-43594000D01*
X94904446Y-43889628D01*
X95290226Y-44049818D01*
X95707942Y-44050182D01*
X96094000Y-43890666D01*
X96389628Y-43595554D01*
X96440022Y-43474192D01*
X97834214Y-42080000D01*
X97999504Y-42080000D01*
X98087283Y-42211371D01*
X98606361Y-42558207D01*
X99218654Y-42680000D01*
X99281346Y-42680000D01*
X99893639Y-42558207D01*
X100412717Y-42211371D01*
X100759553Y-41692293D01*
X100881346Y-41080000D01*
X100759553Y-40467707D01*
X100412717Y-39948629D01*
X100205244Y-39810000D01*
X100412717Y-39671371D01*
X100759553Y-39152293D01*
X100881346Y-38540000D01*
X100759553Y-37927707D01*
X100474109Y-37500509D01*
X100633198Y-37398138D01*
X100804446Y-37147508D01*
X100864693Y-36850000D01*
X100864693Y-35707069D01*
X106025161Y-35707069D01*
X106841235Y-36523143D01*
X106720630Y-36643537D01*
X106490262Y-37198325D01*
X106489738Y-37799040D01*
X106719138Y-38354229D01*
X107143537Y-38779370D01*
X107698325Y-39009738D01*
X108299040Y-39010262D01*
X108854229Y-38780862D01*
X109270353Y-38365464D01*
X109683537Y-38779370D01*
X110238325Y-39009738D01*
X110839040Y-39010262D01*
X111394229Y-38780862D01*
X111819370Y-38356463D01*
X112049738Y-37801675D01*
X112050262Y-37200960D01*
X111820862Y-36645771D01*
X111675464Y-36500118D01*
X111819370Y-36356463D01*
X112049738Y-35801675D01*
X112050262Y-35200960D01*
X111820862Y-34645771D01*
X111753503Y-34578294D01*
X114446301Y-34578294D01*
X114616679Y-34847597D01*
X115449992Y-34941748D01*
X115923321Y-34847597D01*
X116093699Y-34578294D01*
X115270000Y-33754594D01*
X114446301Y-34578294D01*
X111753503Y-34578294D01*
X111396463Y-34220630D01*
X110841675Y-33990262D01*
X110240960Y-33989738D01*
X109685771Y-34219138D01*
X109260630Y-34643537D01*
X109166022Y-34871379D01*
X108537401Y-35500000D01*
X108806102Y-35768701D01*
X108501546Y-36073256D01*
X108301675Y-35990262D01*
X107700960Y-35989738D01*
X107498564Y-36073366D01*
X107193899Y-35768701D01*
X107462599Y-35500000D01*
X106809233Y-34846634D01*
X106562821Y-34925534D01*
X106507089Y-35225141D01*
X106025161Y-35707069D01*
X100864693Y-35707069D01*
X100864693Y-35150000D01*
X100812396Y-34872067D01*
X100648138Y-34616802D01*
X100591780Y-34578294D01*
X102446301Y-34578294D01*
X102616679Y-34847597D01*
X103449992Y-34941748D01*
X103923321Y-34847597D01*
X104093699Y-34578294D01*
X103824639Y-34309233D01*
X107346634Y-34309233D01*
X108000000Y-34962599D01*
X108653366Y-34309233D01*
X108574466Y-34062821D01*
X107980753Y-33952381D01*
X107425534Y-34062821D01*
X107346634Y-34309233D01*
X103824639Y-34309233D01*
X103270000Y-33754594D01*
X102446301Y-34578294D01*
X100591780Y-34578294D01*
X100397508Y-34445554D01*
X100100000Y-34385307D01*
X98400000Y-34385307D01*
X98122067Y-34437604D01*
X97866802Y-34601862D01*
X97695554Y-34852492D01*
X97635307Y-35150000D01*
X97635307Y-36850000D01*
X97687604Y-37127933D01*
X97851862Y-37383198D01*
X98025158Y-37501606D01*
X97740447Y-37927707D01*
X97618654Y-38540000D01*
X97740447Y-39152293D01*
X98087283Y-39671371D01*
X98294756Y-39810000D01*
X98087283Y-39948629D01*
X97999504Y-40080000D01*
X97420000Y-40080000D01*
X97037316Y-40156120D01*
X96712893Y-40372893D01*
X95026060Y-42059726D01*
X94906000Y-42109334D01*
X94610372Y-42404446D01*
X94450182Y-42790226D01*
X94449818Y-43207942D01*
X70972583Y-43207942D01*
X71014693Y-43000000D01*
X71014693Y-39500000D01*
X70962396Y-39222067D01*
X70798138Y-38966802D01*
X70547508Y-38795554D01*
X70250000Y-38735307D01*
X66750000Y-38735307D01*
X66472067Y-38787604D01*
X66314693Y-38888871D01*
X66314693Y-37636667D01*
X66320628Y-37642602D01*
X66599225Y-37758000D01*
X67435500Y-37758000D01*
X67625000Y-37568500D01*
X67625000Y-36125000D01*
X69375000Y-36125000D01*
X69375000Y-37568500D01*
X69564500Y-37758000D01*
X70400775Y-37758000D01*
X70679372Y-37642602D01*
X70892601Y-37429373D01*
X71008000Y-37150776D01*
X71008000Y-36314500D01*
X70818500Y-36125000D01*
X69375000Y-36125000D01*
X67625000Y-36125000D01*
X66199935Y-36125000D01*
X66098138Y-35966802D01*
X65847508Y-35795554D01*
X65550000Y-35735307D01*
X62050000Y-35735307D01*
X61772067Y-35787604D01*
X61516802Y-35951862D01*
X61345554Y-36202492D01*
X61285307Y-36500000D01*
X59952575Y-36500000D01*
X60040455Y-35915642D01*
X59936448Y-35392759D01*
X59680452Y-35276655D01*
X58957107Y-36000000D01*
X57542893Y-36000000D01*
X56819548Y-35276655D01*
X56563552Y-35392759D01*
X56459545Y-36084358D01*
X55014693Y-36084358D01*
X55014693Y-35000000D01*
X54962396Y-34722067D01*
X54864254Y-34569548D01*
X57526655Y-34569548D01*
X58250000Y-35292893D01*
X58973345Y-34569548D01*
X58857241Y-34313552D01*
X58165642Y-34209545D01*
X57642759Y-34313552D01*
X57526655Y-34569548D01*
X54864254Y-34569548D01*
X54798138Y-34466802D01*
X54547508Y-34295554D01*
X54250000Y-34235307D01*
X52250000Y-34235307D01*
X51972067Y-34287604D01*
X51716802Y-34451862D01*
X51545554Y-34702492D01*
X51485307Y-35000000D01*
X47542893Y-35000000D01*
X47723345Y-34819548D01*
X47607241Y-34563552D01*
X46915642Y-34459545D01*
X46392759Y-34563552D01*
X46276655Y-34819548D01*
X43614254Y-34819548D01*
X43548138Y-34716802D01*
X43297508Y-34545554D01*
X43000000Y-34485307D01*
X41000000Y-34485307D01*
X40722067Y-34537604D01*
X40466802Y-34701862D01*
X40295554Y-34952492D01*
X40235307Y-35250000D01*
X34683849Y-35250000D01*
X35357090Y-34577934D01*
X35781516Y-33555802D01*
X35781696Y-33349224D01*
X65992000Y-33349224D01*
X65992000Y-34185500D01*
X66181500Y-34375000D01*
X67625000Y-34375000D01*
X67625000Y-32931500D01*
X69375000Y-32931500D01*
X69375000Y-34375000D01*
X70818500Y-34375000D01*
X71008000Y-34185500D01*
X71008000Y-33349224D01*
X70892601Y-33070627D01*
X70801966Y-32979992D01*
X101128252Y-32979992D01*
X101222403Y-33453321D01*
X101491706Y-33623699D01*
X102315406Y-32800000D01*
X104224594Y-32800000D01*
X105048294Y-33623699D01*
X105317597Y-33453321D01*
X105371075Y-32979992D01*
X113128252Y-32979992D01*
X113222403Y-33453321D01*
X113491706Y-33623699D01*
X114315406Y-32800000D01*
X116224594Y-32800000D01*
X117048294Y-33623699D01*
X117317597Y-33453321D01*
X117411748Y-32620008D01*
X117317597Y-32146679D01*
X117048294Y-31976301D01*
X116224594Y-32800000D01*
X114315406Y-32800000D01*
X113491706Y-31976301D01*
X113222403Y-32146679D01*
X113128252Y-32979992D01*
X105371075Y-32979992D01*
X105411748Y-32620008D01*
X105317597Y-32146679D01*
X105048294Y-31976301D01*
X104224594Y-32800000D01*
X102315406Y-32800000D01*
X101491706Y-31976301D01*
X101222403Y-32146679D01*
X101128252Y-32979992D01*
X70801966Y-32979992D01*
X70679372Y-32857398D01*
X70400775Y-32742000D01*
X69564500Y-32742000D01*
X69375000Y-32931500D01*
X67625000Y-32931500D01*
X67435500Y-32742000D01*
X66599225Y-32742000D01*
X66320628Y-32857398D01*
X66107399Y-33070627D01*
X65992000Y-33349224D01*
X35781696Y-33349224D01*
X35782482Y-32449054D01*
X35359840Y-31426182D01*
X34759706Y-30825000D01*
X102570750Y-30825000D01*
X102446301Y-31021706D01*
M02*
