M48
;DRILL file {KiCad 4.0.7} date 01/17/21 13:37:07
;FORMAT={-:-/ absolute / metric / decimal}
FMAT,2
METRIC,TZ
T1C0.400
T2C0.800
T3C0.810
T4C1.000
T5C1.500
T6C1.520
T7C2.300
%
G90
G05
M71
T1
X38.5Y-123.3
X41.5Y-116.7
X44.Y-119.
X47.4Y-116.1
X48.4Y-126.47
X48.8Y-89.5
X49.4Y-123.3
X58.7Y-48.5
X61.1Y-43.7
X61.6Y-61.4
X62.2Y-44.9
X62.7Y-61.3
X71.4Y-120.
X71.6Y-44.3
X76.1Y-44.7
X78.1Y-48.8
X79.4Y-47.5
X81.4Y-61.6
X82.5Y-61.4
X91.5Y-126.9
X92.4Y-65.6
X94.1Y-64.9
X95.3Y-66.2
X95.5Y-43.
X96.Y-51.9
X96.8Y-55.1
X97.3Y-105.9
X97.4Y-107.3
X103.9Y-68.1
X104.9Y-69.2
X105.3Y-101.2
X106.Y-68.
X106.4Y-76.8
X106.6Y-115.7
X106.7Y-43.2
X107.6Y-54.5
X107.6Y-57.7
X109.3Y-41.9
X110.3Y-58.
X111.1Y-79.
X111.1Y-95.9
X111.1Y-107.7
X111.2Y-66.9
X111.3Y-111.5
X112.3Y-54.5
X112.6Y-57.8
X113.3Y-113.94
X114.Y-45.3
X114.1Y-72.4
X115.17Y-114.86
X117.5Y-71.9
X119.1Y-64.5
X119.7Y-46.6
X119.9Y-57.6
X120.7Y-59.4
T2
X49.6Y-55.6
X49.6Y-63.22
X50.3Y-45.
X50.3Y-52.62
X50.8Y-66.7
X50.8Y-74.32
X53.24Y-127.26
X54.2Y-66.68
X54.2Y-74.3
X57.38Y-70.3
X60.86Y-127.26
X64.6Y-65.8
X65.Y-70.3
X65.94Y-122.43
X66.8Y-47.88
X66.8Y-55.5
X68.2Y-69.9
X68.2Y-77.52
X70.18Y-115.98
X70.6Y-47.9
X70.6Y-55.52
X70.94Y-122.43
X71.9Y-69.8
X71.9Y-77.42
X72.22Y-65.8
X73.99Y-126.03
X74.1Y-122.68
X77.69Y-111.94
X77.8Y-115.98
X79.28Y-68.1
X81.61Y-126.03
X81.72Y-122.68
X82.67Y-104.8
X85.31Y-111.94
X85.7Y-53.6
X85.7Y-61.22
X86.68Y-115.48
X86.9Y-68.1
X87.4Y-108.13
X88.88Y-92.93
X88.88Y-97.93
X90.29Y-104.8
X92.62Y-93.92
X92.62Y-101.54
X94.3Y-115.48
X95.02Y-108.13
X96.76Y-100.75
X98.4Y-116.73
X101.76Y-100.75
X103.4Y-116.73
T3
X108.Y-35.5
X108.Y-37.5
X110.54Y-35.5
X110.54Y-37.5
T4
X42.Y-36.25
X46.41Y-45.47
X46.41Y-48.01
X47.Y-36.25
X50.12Y-82.48
X50.12Y-85.02
X53.2Y-56.6
X53.2Y-59.14
X53.25Y-36.
X57.9Y-74.26
X57.9Y-76.8
X58.25Y-36.
X72.9Y-59.06
X72.9Y-61.6
X76.Y-68.7
X76.Y-71.24
X89.7Y-58.12
X89.7Y-60.66
X89.7Y-63.2
X89.8Y-69.72
X89.8Y-72.26
X89.8Y-74.8
X98.6Y-81.16
X98.6Y-83.7
X99.25Y-36.
X99.25Y-38.54
X99.25Y-41.08
T6
X37.25Y-80.42
X37.25Y-85.5
X38.Y-45.92
X38.Y-51.
X95.52Y-125.7
X100.6Y-125.7
X122.25Y-99.75
X122.25Y-104.83
T7
X103.27Y-32.8
X115.27Y-32.8
T4
X63.8Y-37.25G85X63.8Y-39.25
G05
X69.5Y-35.25G85X67.5Y-35.25
G05
X69.5Y-41.25G85X67.5Y-41.25
G05
T5
X36.Y-72.25G85X36.Y-71.25
G05
X36.2Y-107.G85X36.2Y-106.
G05
X36.25Y-60.75G85X36.25Y-59.75
G05
X36.4Y-94.8G85X36.4Y-93.8
G05
X40.5Y-71.75G85X41.5Y-71.75
G05
X40.7Y-106.5G85X41.7Y-106.5
G05
X40.75Y-60.25G85X41.75Y-60.25
G05
X40.9Y-94.3G85X41.9Y-94.3
G05
X110.5Y-119.5G85X110.5Y-118.5
G05
X111.Y-124.G85X110.Y-124.
G05
X118.3Y-90.8G85X117.3Y-90.8
G05
X118.4Y-78.1G85X117.4Y-78.1
G05
X119.Y-113.75G85X118.Y-113.75
G05
X122.8Y-90.3G85X122.8Y-91.3
G05
X122.9Y-77.6G85X122.9Y-78.6
G05
X123.5Y-113.25G85X123.5Y-114.25
G05
T0
M30
