G04 #@! TF.FileFunction,Copper,L2,Bot,Signal*
%FSLAX46Y46*%
G04 Gerber Fmt 4.6, Leading zero omitted, Abs format (unit mm)*
G04 Created by KiCad (PCBNEW 4.0.7) date 12/28/20 23:57:47*
%MOMM*%
%LPD*%
G01*
G04 APERTURE LIST*
%ADD10C,0.100000*%
%ADD11C,1.600000*%
%ADD12C,1.520000*%
%ADD13C,2.700000*%
%ADD14R,3.000000X3.000000*%
%ADD15C,3.000000*%
%ADD16O,1.600000X1.600000*%
%ADD17O,2.500000X3.500000*%
%ADD18O,3.500000X2.500000*%
%ADD19R,1.700000X1.700000*%
%ADD20O,1.700000X1.700000*%
%ADD21C,4.064000*%
%ADD22C,0.600000*%
%ADD23C,0.500000*%
%ADD24C,0.350000*%
G04 APERTURE END LIST*
D10*
D11*
X68800000Y-114200000D03*
X73800000Y-114200000D03*
X90700000Y-114900000D03*
X90700000Y-109900000D03*
D12*
X110540000Y-37500000D03*
X108000000Y-37500000D03*
X108000000Y-35500000D03*
X110540000Y-35500000D03*
D13*
X115270000Y-32800000D03*
X103270000Y-32800000D03*
D14*
X124500000Y-99000000D03*
D15*
X124500000Y-104080000D03*
D11*
X68600000Y-105800000D03*
D16*
X76220000Y-105800000D03*
D11*
X94600000Y-114900000D03*
D16*
X94600000Y-107280000D03*
D11*
X76600000Y-110000000D03*
D16*
X84220000Y-110000000D03*
D17*
X124300000Y-113700000D03*
D18*
X119300000Y-113700000D03*
D11*
X70400000Y-93100000D03*
X75400000Y-93100000D03*
X90000000Y-97000000D03*
X90000000Y-102000000D03*
D17*
X123900000Y-87900000D03*
D18*
X118900000Y-87900000D03*
D14*
X124800000Y-73000000D03*
D15*
X124800000Y-78080000D03*
D11*
X68600000Y-101500000D03*
D16*
X76220000Y-101500000D03*
D11*
X94100000Y-95600000D03*
D16*
X94100000Y-103220000D03*
D11*
X76200000Y-97800000D03*
D16*
X83820000Y-97800000D03*
D11*
X61900000Y-105700000D03*
D16*
X61900000Y-113320000D03*
D11*
X77700000Y-120500000D03*
D16*
X85320000Y-120500000D03*
D11*
X97300000Y-120400000D03*
D16*
X89680000Y-120400000D03*
D11*
X97300000Y-123900000D03*
D16*
X89680000Y-123900000D03*
D11*
X51000000Y-109500000D03*
D16*
X58620000Y-109500000D03*
D14*
X36800000Y-54100000D03*
D15*
X36800000Y-49020000D03*
D19*
X69400000Y-58600000D03*
D20*
X69400000Y-56060000D03*
X69400000Y-53520000D03*
D11*
X54600000Y-41600000D03*
D16*
X54600000Y-49220000D03*
D11*
X65500000Y-56300000D03*
D16*
X57880000Y-56300000D03*
D14*
X36800000Y-74700000D03*
D15*
X36800000Y-69620000D03*
D19*
X69500000Y-70300000D03*
D20*
X69500000Y-67760000D03*
X69500000Y-65220000D03*
D11*
X59700000Y-68700000D03*
D16*
X59700000Y-61080000D03*
D11*
X56400000Y-64400000D03*
D16*
X48780000Y-64400000D03*
D21*
X33000000Y-33000000D03*
X127000000Y-33000000D03*
X127000000Y-127000000D03*
X33000000Y-127000000D03*
D22*
X104700000Y-114700000D03*
X109000000Y-114800000D03*
X43600000Y-53400000D03*
X45700000Y-53100000D03*
X60900000Y-66900000D03*
X64200000Y-65500000D03*
X48800000Y-37900000D03*
X52100000Y-38000000D03*
X62100000Y-42400000D03*
X63000000Y-44000000D03*
X95400000Y-51700000D03*
X96800000Y-55000000D03*
X55300000Y-58100000D03*
X54500000Y-59600000D03*
X108500000Y-103900000D03*
X107700000Y-101700000D03*
X113200000Y-109000000D03*
X55600000Y-118500000D03*
X52900000Y-125400000D03*
X53600000Y-122300000D03*
X66500000Y-124400000D03*
X64100000Y-122000000D03*
X66600000Y-121800000D03*
X66100000Y-118700000D03*
X109300000Y-110800000D03*
X99000000Y-42800000D03*
X100900000Y-41100000D03*
X95300000Y-32900000D03*
X91200000Y-32400000D03*
X81100000Y-95000000D03*
X82900000Y-92700000D03*
X81400000Y-113700000D03*
X81100000Y-115700000D03*
X87500000Y-104900000D03*
X88400000Y-103900000D03*
X96400000Y-101200000D03*
X102600000Y-110100000D03*
X112600000Y-45600000D03*
X119700000Y-46800000D03*
X114000000Y-45200000D03*
X107000000Y-43300000D03*
X108400000Y-41900000D03*
X115300000Y-68600000D03*
X113900000Y-71300000D03*
X116200000Y-71400000D03*
X105900000Y-66300000D03*
X104000000Y-66900000D03*
X108200000Y-54300000D03*
X107600000Y-49700000D03*
X120700000Y-65200000D03*
X120500000Y-61300000D03*
X119600000Y-58600000D03*
X112500000Y-57800000D03*
X111200000Y-57700000D03*
X109700000Y-57700000D03*
X110000000Y-65600000D03*
X105900000Y-67300000D03*
X107300000Y-57700000D03*
X64500000Y-116500000D03*
X63400000Y-115400000D03*
X100300000Y-106000000D03*
X101500000Y-103900000D03*
X73000000Y-60100000D03*
X73400000Y-56200000D03*
D23*
X108900000Y-114700000D02*
X104700000Y-114700000D01*
X109000000Y-114800000D02*
X108900000Y-114700000D01*
D24*
X108600000Y-104000000D02*
X108600000Y-104800000D01*
X108500000Y-103900000D02*
X108600000Y-104000000D01*
X94600000Y-107280000D02*
X95520000Y-107280000D01*
X96800000Y-106000000D02*
X100300000Y-106000000D01*
X95520000Y-107280000D02*
X96800000Y-106000000D01*
X94100000Y-103220000D02*
X94620000Y-103220000D01*
X94620000Y-103220000D02*
X95300000Y-103900000D01*
X95300000Y-103900000D02*
X101500000Y-103900000D01*
X73300000Y-59800000D02*
X73000000Y-60100000D01*
X73300000Y-56300000D02*
X73300000Y-59800000D01*
X73400000Y-56200000D02*
X73300000Y-56300000D01*
D23*
G36*
X102446301Y-31021706D02*
X103270000Y-31845406D01*
X104093699Y-31021706D01*
X103969250Y-30825000D01*
X114570750Y-30825000D01*
X114446301Y-31021706D01*
X115270000Y-31845406D01*
X116093699Y-31021706D01*
X115969250Y-30825000D01*
X125241019Y-30825000D01*
X124642910Y-31422066D01*
X124218484Y-32444198D01*
X124217518Y-33550946D01*
X124640160Y-34573818D01*
X125422066Y-35357090D01*
X126444198Y-35781516D01*
X127550946Y-35782482D01*
X128573818Y-35359840D01*
X129175000Y-34759706D01*
X129175000Y-108134156D01*
X129037437Y-107928278D01*
X128469696Y-107548926D01*
X127800000Y-107415715D01*
X127130304Y-107548926D01*
X126562563Y-107928278D01*
X126183211Y-108496019D01*
X126050000Y-109165715D01*
X126050000Y-109234285D01*
X126183211Y-109903981D01*
X126562563Y-110471722D01*
X127130304Y-110851074D01*
X127800000Y-110984285D01*
X128469696Y-110851074D01*
X129037437Y-110471722D01*
X129175000Y-110265844D01*
X129175000Y-117134156D01*
X129037437Y-116928278D01*
X128469696Y-116548926D01*
X127800000Y-116415715D01*
X127130304Y-116548926D01*
X126562563Y-116928278D01*
X126183211Y-117496019D01*
X126050000Y-118165715D01*
X126050000Y-118234285D01*
X126183211Y-118903981D01*
X126562563Y-119471722D01*
X127130304Y-119851074D01*
X127800000Y-119984285D01*
X128469696Y-119851074D01*
X129037437Y-119471722D01*
X129175000Y-119265844D01*
X129175000Y-125241019D01*
X128577934Y-124642910D01*
X127555802Y-124218484D01*
X126449054Y-124217518D01*
X125426182Y-124640160D01*
X124642910Y-125422066D01*
X124218484Y-126444198D01*
X124217518Y-127550946D01*
X124640160Y-128573818D01*
X125240294Y-129175000D01*
X34758981Y-129175000D01*
X35357090Y-128577934D01*
X35781516Y-127555802D01*
X35782482Y-126449054D01*
X35359840Y-125426182D01*
X34577934Y-124642910D01*
X33555802Y-124218484D01*
X32449054Y-124217518D01*
X31426182Y-124640160D01*
X30825000Y-125240294D01*
X30825000Y-123900000D01*
X88099634Y-123900000D01*
X88217621Y-124493159D01*
X88553618Y-124996016D01*
X89056475Y-125332013D01*
X89649634Y-125450000D01*
X89710366Y-125450000D01*
X90303525Y-125332013D01*
X90806382Y-124996016D01*
X91142379Y-124493159D01*
X91199307Y-124206961D01*
X95749732Y-124206961D01*
X95985208Y-124776857D01*
X96420849Y-125213260D01*
X96990333Y-125449730D01*
X97606961Y-125450268D01*
X98176857Y-125214792D01*
X98613260Y-124779151D01*
X98849730Y-124209667D01*
X98850268Y-123593039D01*
X98614792Y-123023143D01*
X98179151Y-122586740D01*
X97609667Y-122350270D01*
X96993039Y-122349732D01*
X96423143Y-122585208D01*
X95986740Y-123020849D01*
X95750270Y-123590333D01*
X95749732Y-124206961D01*
X91199307Y-124206961D01*
X91260366Y-123900000D01*
X91142379Y-123306841D01*
X90806382Y-122803984D01*
X90303525Y-122467987D01*
X89710366Y-122350000D01*
X89649634Y-122350000D01*
X89056475Y-122467987D01*
X88553618Y-122803984D01*
X88217621Y-123306841D01*
X88099634Y-123900000D01*
X30825000Y-123900000D01*
X30825000Y-120806961D01*
X76149732Y-120806961D01*
X76385208Y-121376857D01*
X76820849Y-121813260D01*
X77390333Y-122049730D01*
X78006961Y-122050268D01*
X78576857Y-121814792D01*
X79013260Y-121379151D01*
X79249730Y-120809667D01*
X79250000Y-120500000D01*
X83739634Y-120500000D01*
X83857621Y-121093159D01*
X84193618Y-121596016D01*
X84696475Y-121932013D01*
X85289634Y-122050000D01*
X85350366Y-122050000D01*
X85943525Y-121932013D01*
X86446382Y-121596016D01*
X86782379Y-121093159D01*
X86900366Y-120500000D01*
X86880475Y-120400000D01*
X88099634Y-120400000D01*
X88217621Y-120993159D01*
X88553618Y-121496016D01*
X89056475Y-121832013D01*
X89649634Y-121950000D01*
X89710366Y-121950000D01*
X90303525Y-121832013D01*
X90806382Y-121496016D01*
X91142379Y-120993159D01*
X91199307Y-120706961D01*
X95749732Y-120706961D01*
X95985208Y-121276857D01*
X96420849Y-121713260D01*
X96990333Y-121949730D01*
X97606961Y-121950268D01*
X98176857Y-121714792D01*
X98613260Y-121279151D01*
X98849730Y-120709667D01*
X98850268Y-120093039D01*
X98614792Y-119523143D01*
X98179151Y-119086740D01*
X97609667Y-118850270D01*
X96993039Y-118849732D01*
X96423143Y-119085208D01*
X95986740Y-119520849D01*
X95750270Y-120090333D01*
X95749732Y-120706961D01*
X91199307Y-120706961D01*
X91260366Y-120400000D01*
X91142379Y-119806841D01*
X90806382Y-119303984D01*
X90303525Y-118967987D01*
X89710366Y-118850000D01*
X89649634Y-118850000D01*
X89056475Y-118967987D01*
X88553618Y-119303984D01*
X88217621Y-119806841D01*
X88099634Y-120400000D01*
X86880475Y-120400000D01*
X86782379Y-119906841D01*
X86446382Y-119403984D01*
X85943525Y-119067987D01*
X85350366Y-118950000D01*
X85289634Y-118950000D01*
X84696475Y-119067987D01*
X84193618Y-119403984D01*
X83857621Y-119906841D01*
X83739634Y-120500000D01*
X79250000Y-120500000D01*
X79250268Y-120193039D01*
X79014792Y-119623143D01*
X78579151Y-119186740D01*
X78009667Y-118950270D01*
X77393039Y-118949732D01*
X76823143Y-119185208D01*
X76386740Y-119620849D01*
X76150270Y-120190333D01*
X76149732Y-120806961D01*
X30825000Y-120806961D01*
X30825000Y-115430805D01*
X68134881Y-115430805D01*
X68219983Y-115678846D01*
X68830064Y-115788239D01*
X69380017Y-115678846D01*
X69465119Y-115430805D01*
X68800000Y-114765685D01*
X68134881Y-115430805D01*
X30825000Y-115430805D01*
X30825000Y-113289634D01*
X60350000Y-113289634D01*
X60350000Y-113350366D01*
X60467987Y-113943525D01*
X60803984Y-114446382D01*
X61306841Y-114782379D01*
X61900000Y-114900366D01*
X62493159Y-114782379D01*
X62996016Y-114446382D01*
X63140554Y-114230064D01*
X67211761Y-114230064D01*
X67321154Y-114780017D01*
X67569195Y-114865119D01*
X68234315Y-114200000D01*
X69365685Y-114200000D01*
X70030805Y-114865119D01*
X70278846Y-114780017D01*
X70327807Y-114506961D01*
X72249732Y-114506961D01*
X72485208Y-115076857D01*
X72920849Y-115513260D01*
X73490333Y-115749730D01*
X74106961Y-115750268D01*
X74676857Y-115514792D01*
X74985226Y-115206961D01*
X89149732Y-115206961D01*
X89385208Y-115776857D01*
X89820849Y-116213260D01*
X90390333Y-116449730D01*
X91006961Y-116450268D01*
X91576857Y-116214792D01*
X92013260Y-115779151D01*
X92249730Y-115209667D01*
X92249732Y-115206961D01*
X93049732Y-115206961D01*
X93285208Y-115776857D01*
X93720849Y-116213260D01*
X94290333Y-116449730D01*
X94906961Y-116450268D01*
X95476857Y-116214792D01*
X95913260Y-115779151D01*
X96149730Y-115209667D01*
X96149993Y-114907942D01*
X103649818Y-114907942D01*
X103809334Y-115294000D01*
X104104446Y-115589628D01*
X104490226Y-115749818D01*
X104907942Y-115750182D01*
X105029392Y-115700000D01*
X108429425Y-115700000D01*
X108790226Y-115849818D01*
X109207942Y-115850182D01*
X109594000Y-115690666D01*
X109889628Y-115395554D01*
X110049818Y-115009774D01*
X110050161Y-114615822D01*
X117013010Y-114615822D01*
X117474668Y-115145041D01*
X118128546Y-115542226D01*
X118425000Y-115435084D01*
X118425000Y-114325000D01*
X120175000Y-114325000D01*
X120175000Y-115435084D01*
X120471454Y-115542226D01*
X121125332Y-115145041D01*
X121586990Y-114615822D01*
X121507723Y-114325000D01*
X120175000Y-114325000D01*
X118425000Y-114325000D01*
X117092277Y-114325000D01*
X117013010Y-114615822D01*
X110050161Y-114615822D01*
X110050182Y-114592058D01*
X109890666Y-114206000D01*
X109595554Y-113910372D01*
X109299830Y-113787576D01*
X109282684Y-113776120D01*
X109262636Y-113772132D01*
X109209774Y-113750182D01*
X109152031Y-113750132D01*
X108900000Y-113700000D01*
X105029749Y-113700000D01*
X104909774Y-113650182D01*
X104492058Y-113649818D01*
X104106000Y-113809334D01*
X103810372Y-114104446D01*
X103650182Y-114490226D01*
X103649818Y-114907942D01*
X96149993Y-114907942D01*
X96150268Y-114593039D01*
X95914792Y-114023143D01*
X95479151Y-113586740D01*
X94909667Y-113350270D01*
X94293039Y-113349732D01*
X93723143Y-113585208D01*
X93286740Y-114020849D01*
X93050270Y-114590333D01*
X93049732Y-115206961D01*
X92249732Y-115206961D01*
X92250268Y-114593039D01*
X92014792Y-114023143D01*
X91579151Y-113586740D01*
X91009667Y-113350270D01*
X90393039Y-113349732D01*
X89823143Y-113585208D01*
X89386740Y-114020849D01*
X89150270Y-114590333D01*
X89149732Y-115206961D01*
X74985226Y-115206961D01*
X75113260Y-115079151D01*
X75349730Y-114509667D01*
X75350268Y-113893039D01*
X75114792Y-113323143D01*
X74942972Y-113151022D01*
X122300000Y-113151022D01*
X122300000Y-114248978D01*
X122452241Y-115014345D01*
X122885786Y-115663192D01*
X123534633Y-116096737D01*
X124300000Y-116248978D01*
X125065367Y-116096737D01*
X125714214Y-115663192D01*
X126147759Y-115014345D01*
X126300000Y-114248978D01*
X126300000Y-113151022D01*
X126147759Y-112385655D01*
X125714214Y-111736808D01*
X125065367Y-111303263D01*
X124300000Y-111151022D01*
X123534633Y-111303263D01*
X122885786Y-111736808D01*
X122452241Y-112385655D01*
X122300000Y-113151022D01*
X74942972Y-113151022D01*
X74679151Y-112886740D01*
X74432154Y-112784178D01*
X117013010Y-112784178D01*
X117092277Y-113075000D01*
X118425000Y-113075000D01*
X118425000Y-111964916D01*
X120175000Y-111964916D01*
X120175000Y-113075000D01*
X121507723Y-113075000D01*
X121586990Y-112784178D01*
X121125332Y-112254959D01*
X120471454Y-111857774D01*
X120175000Y-111964916D01*
X118425000Y-111964916D01*
X118128546Y-111857774D01*
X117474668Y-112254959D01*
X117013010Y-112784178D01*
X74432154Y-112784178D01*
X74109667Y-112650270D01*
X73493039Y-112649732D01*
X72923143Y-112885208D01*
X72486740Y-113320849D01*
X72250270Y-113890333D01*
X72249732Y-114506961D01*
X70327807Y-114506961D01*
X70388239Y-114169936D01*
X70278846Y-113619983D01*
X70030805Y-113534881D01*
X69365685Y-114200000D01*
X68234315Y-114200000D01*
X67569195Y-113534881D01*
X67321154Y-113619983D01*
X67211761Y-114230064D01*
X63140554Y-114230064D01*
X63332013Y-113943525D01*
X63450000Y-113350366D01*
X63450000Y-113289634D01*
X63386261Y-112969195D01*
X68134881Y-112969195D01*
X68800000Y-113634315D01*
X69465119Y-112969195D01*
X69380017Y-112721154D01*
X68769936Y-112611761D01*
X68219983Y-112721154D01*
X68134881Y-112969195D01*
X63386261Y-112969195D01*
X63332013Y-112696475D01*
X62996016Y-112193618D01*
X62493159Y-111857621D01*
X61900000Y-111739634D01*
X61306841Y-111857621D01*
X60803984Y-112193618D01*
X60467987Y-112696475D01*
X60350000Y-113289634D01*
X30825000Y-113289634D01*
X30825000Y-109806961D01*
X49449732Y-109806961D01*
X49685208Y-110376857D01*
X50120849Y-110813260D01*
X50690333Y-111049730D01*
X51306961Y-111050268D01*
X51876857Y-110814792D01*
X52313260Y-110379151D01*
X52549730Y-109809667D01*
X52550000Y-109500000D01*
X57039634Y-109500000D01*
X57157621Y-110093159D01*
X57493618Y-110596016D01*
X57996475Y-110932013D01*
X58589634Y-111050000D01*
X58650366Y-111050000D01*
X59243525Y-110932013D01*
X59746382Y-110596016D01*
X59939521Y-110306961D01*
X75049732Y-110306961D01*
X75285208Y-110876857D01*
X75720849Y-111313260D01*
X76290333Y-111549730D01*
X76906961Y-111550268D01*
X77476857Y-111314792D01*
X77913260Y-110879151D01*
X78149730Y-110309667D01*
X78150000Y-110000000D01*
X82639634Y-110000000D01*
X82757621Y-110593159D01*
X83093618Y-111096016D01*
X83596475Y-111432013D01*
X84189634Y-111550000D01*
X84250366Y-111550000D01*
X84843525Y-111432013D01*
X85346382Y-111096016D01*
X85682379Y-110593159D01*
X85759198Y-110206961D01*
X89149732Y-110206961D01*
X89385208Y-110776857D01*
X89820849Y-111213260D01*
X90390333Y-111449730D01*
X91006961Y-111450268D01*
X91576857Y-111214792D01*
X92013260Y-110779151D01*
X92249730Y-110209667D01*
X92250268Y-109593039D01*
X92014792Y-109023143D01*
X91579151Y-108586740D01*
X91009667Y-108350270D01*
X90393039Y-108349732D01*
X89823143Y-108585208D01*
X89386740Y-109020849D01*
X89150270Y-109590333D01*
X89149732Y-110206961D01*
X85759198Y-110206961D01*
X85800366Y-110000000D01*
X85682379Y-109406841D01*
X85346382Y-108903984D01*
X84843525Y-108567987D01*
X84250366Y-108450000D01*
X84189634Y-108450000D01*
X83596475Y-108567987D01*
X83093618Y-108903984D01*
X82757621Y-109406841D01*
X82639634Y-110000000D01*
X78150000Y-110000000D01*
X78150268Y-109693039D01*
X77914792Y-109123143D01*
X77479151Y-108686740D01*
X76909667Y-108450270D01*
X76293039Y-108449732D01*
X75723143Y-108685208D01*
X75286740Y-109120849D01*
X75050270Y-109690333D01*
X75049732Y-110306961D01*
X59939521Y-110306961D01*
X60082379Y-110093159D01*
X60200366Y-109500000D01*
X60082379Y-108906841D01*
X59746382Y-108403984D01*
X59243525Y-108067987D01*
X58650366Y-107950000D01*
X58589634Y-107950000D01*
X57996475Y-108067987D01*
X57493618Y-108403984D01*
X57157621Y-108906841D01*
X57039634Y-109500000D01*
X52550000Y-109500000D01*
X52550268Y-109193039D01*
X52314792Y-108623143D01*
X51879151Y-108186740D01*
X51309667Y-107950270D01*
X50693039Y-107949732D01*
X50123143Y-108185208D01*
X49686740Y-108620849D01*
X49450270Y-109190333D01*
X49449732Y-109806961D01*
X30825000Y-109806961D01*
X30825000Y-106006961D01*
X60349732Y-106006961D01*
X60585208Y-106576857D01*
X61020849Y-107013260D01*
X61590333Y-107249730D01*
X62206961Y-107250268D01*
X62776857Y-107014792D01*
X63213260Y-106579151D01*
X63409330Y-106106961D01*
X67049732Y-106106961D01*
X67285208Y-106676857D01*
X67720849Y-107113260D01*
X68290333Y-107349730D01*
X68906961Y-107350268D01*
X69476857Y-107114792D01*
X69913260Y-106679151D01*
X70149730Y-106109667D01*
X70150000Y-105800000D01*
X74639634Y-105800000D01*
X74757621Y-106393159D01*
X75093618Y-106896016D01*
X75596475Y-107232013D01*
X76189634Y-107350000D01*
X76250366Y-107350000D01*
X76754938Y-107249634D01*
X93050000Y-107249634D01*
X93050000Y-107310366D01*
X93167987Y-107903525D01*
X93503984Y-108406382D01*
X94006841Y-108742379D01*
X94600000Y-108860366D01*
X95193159Y-108742379D01*
X95696016Y-108406382D01*
X95880556Y-108130197D01*
X96174074Y-107934074D01*
X97183148Y-106925000D01*
X99789631Y-106925000D01*
X100090226Y-107049818D01*
X100507942Y-107050182D01*
X100894000Y-106890666D01*
X101189628Y-106595554D01*
X101349818Y-106209774D01*
X101349994Y-106006961D01*
X123633699Y-106006961D01*
X123827361Y-106281784D01*
X124721149Y-106371592D01*
X125172639Y-106281784D01*
X125366301Y-106006961D01*
X124500000Y-105140660D01*
X123633699Y-106006961D01*
X101349994Y-106006961D01*
X101350182Y-105792058D01*
X101190666Y-105406000D01*
X100895554Y-105110372D01*
X100509774Y-104950182D01*
X100092058Y-104949818D01*
X99789095Y-105075000D01*
X96800000Y-105075000D01*
X96446018Y-105145411D01*
X96145926Y-105345926D01*
X95481541Y-106010311D01*
X95193159Y-105817621D01*
X94600000Y-105699634D01*
X94006841Y-105817621D01*
X93503984Y-106153618D01*
X93167987Y-106656475D01*
X93050000Y-107249634D01*
X76754938Y-107249634D01*
X76843525Y-107232013D01*
X77346382Y-106896016D01*
X77682379Y-106393159D01*
X77800366Y-105800000D01*
X77682379Y-105206841D01*
X77346382Y-104703984D01*
X76843525Y-104367987D01*
X76250366Y-104250000D01*
X76189634Y-104250000D01*
X75596475Y-104367987D01*
X75093618Y-104703984D01*
X74757621Y-105206841D01*
X74639634Y-105800000D01*
X70150000Y-105800000D01*
X70150268Y-105493039D01*
X69914792Y-104923143D01*
X69479151Y-104486740D01*
X68909667Y-104250270D01*
X68293039Y-104249732D01*
X67723143Y-104485208D01*
X67286740Y-104920849D01*
X67050270Y-105490333D01*
X67049732Y-106106961D01*
X63409330Y-106106961D01*
X63449730Y-106009667D01*
X63450268Y-105393039D01*
X63214792Y-104823143D01*
X62779151Y-104386740D01*
X62209667Y-104150270D01*
X61593039Y-104149732D01*
X61023143Y-104385208D01*
X60586740Y-104820849D01*
X60350270Y-105390333D01*
X60349732Y-106006961D01*
X30825000Y-106006961D01*
X30825000Y-101806961D01*
X67049732Y-101806961D01*
X67285208Y-102376857D01*
X67720849Y-102813260D01*
X68290333Y-103049730D01*
X68906961Y-103050268D01*
X69476857Y-102814792D01*
X69913260Y-102379151D01*
X70149730Y-101809667D01*
X70150000Y-101500000D01*
X74639634Y-101500000D01*
X74757621Y-102093159D01*
X75093618Y-102596016D01*
X75596475Y-102932013D01*
X76189634Y-103050000D01*
X76250366Y-103050000D01*
X76843525Y-102932013D01*
X77346382Y-102596016D01*
X77539521Y-102306961D01*
X88449732Y-102306961D01*
X88685208Y-102876857D01*
X89120849Y-103313260D01*
X89690333Y-103549730D01*
X90306961Y-103550268D01*
X90876857Y-103314792D01*
X91002233Y-103189634D01*
X92550000Y-103189634D01*
X92550000Y-103250366D01*
X92667987Y-103843525D01*
X93003984Y-104346382D01*
X93506841Y-104682379D01*
X94100000Y-104800366D01*
X94693159Y-104682379D01*
X94765553Y-104634007D01*
X94946017Y-104754589D01*
X95300000Y-104825000D01*
X100989631Y-104825000D01*
X101290226Y-104949818D01*
X101707942Y-104950182D01*
X102094000Y-104790666D01*
X102389628Y-104495554D01*
X102470352Y-104301149D01*
X122208408Y-104301149D01*
X122298216Y-104752639D01*
X122573039Y-104946301D01*
X123439340Y-104080000D01*
X125560660Y-104080000D01*
X126426961Y-104946301D01*
X126701784Y-104752639D01*
X126791592Y-103858851D01*
X126701784Y-103407361D01*
X126426961Y-103213699D01*
X125560660Y-104080000D01*
X123439340Y-104080000D01*
X122573039Y-103213699D01*
X122298216Y-103407361D01*
X122208408Y-104301149D01*
X102470352Y-104301149D01*
X102549818Y-104109774D01*
X102550182Y-103692058D01*
X102390666Y-103306000D01*
X102095554Y-103010372D01*
X101709774Y-102850182D01*
X101292058Y-102849818D01*
X100989095Y-102975000D01*
X95683148Y-102975000D01*
X95588475Y-102880327D01*
X95532013Y-102596475D01*
X95235720Y-102153039D01*
X123633699Y-102153039D01*
X124500000Y-103019340D01*
X125366301Y-102153039D01*
X125172639Y-101878216D01*
X124278851Y-101788408D01*
X123827361Y-101878216D01*
X123633699Y-102153039D01*
X95235720Y-102153039D01*
X95196016Y-102093618D01*
X94693159Y-101757621D01*
X94100000Y-101639634D01*
X93506841Y-101757621D01*
X93003984Y-102093618D01*
X92667987Y-102596475D01*
X92550000Y-103189634D01*
X91002233Y-103189634D01*
X91313260Y-102879151D01*
X91549730Y-102309667D01*
X91550268Y-101693039D01*
X91314792Y-101123143D01*
X90879151Y-100686740D01*
X90309667Y-100450270D01*
X89693039Y-100449732D01*
X89123143Y-100685208D01*
X88686740Y-101120849D01*
X88450270Y-101690333D01*
X88449732Y-102306961D01*
X77539521Y-102306961D01*
X77682379Y-102093159D01*
X77800366Y-101500000D01*
X77682379Y-100906841D01*
X77346382Y-100403984D01*
X76843525Y-100067987D01*
X76250366Y-99950000D01*
X76189634Y-99950000D01*
X75596475Y-100067987D01*
X75093618Y-100403984D01*
X74757621Y-100906841D01*
X74639634Y-101500000D01*
X70150000Y-101500000D01*
X70150268Y-101193039D01*
X69914792Y-100623143D01*
X69479151Y-100186740D01*
X68909667Y-99950270D01*
X68293039Y-99949732D01*
X67723143Y-100185208D01*
X67286740Y-100620849D01*
X67050270Y-101190333D01*
X67049732Y-101806961D01*
X30825000Y-101806961D01*
X30825000Y-98106961D01*
X74649732Y-98106961D01*
X74885208Y-98676857D01*
X75320849Y-99113260D01*
X75890333Y-99349730D01*
X76506961Y-99350268D01*
X77076857Y-99114792D01*
X77513260Y-98679151D01*
X77749730Y-98109667D01*
X77750000Y-97800000D01*
X82239634Y-97800000D01*
X82357621Y-98393159D01*
X82693618Y-98896016D01*
X83196475Y-99232013D01*
X83789634Y-99350000D01*
X83850366Y-99350000D01*
X84443525Y-99232013D01*
X84946382Y-98896016D01*
X85282379Y-98393159D01*
X85400366Y-97800000D01*
X85302295Y-97306961D01*
X88449732Y-97306961D01*
X88685208Y-97876857D01*
X89120849Y-98313260D01*
X89690333Y-98549730D01*
X90306961Y-98550268D01*
X90876857Y-98314792D01*
X91313260Y-97879151D01*
X91470696Y-97500000D01*
X122235307Y-97500000D01*
X122235307Y-100500000D01*
X122287604Y-100777933D01*
X122451862Y-101033198D01*
X122702492Y-101204446D01*
X123000000Y-101264693D01*
X126000000Y-101264693D01*
X126277933Y-101212396D01*
X126533198Y-101048138D01*
X126704446Y-100797508D01*
X126764693Y-100500000D01*
X126764693Y-97500000D01*
X126712396Y-97222067D01*
X126548138Y-96966802D01*
X126297508Y-96795554D01*
X126000000Y-96735307D01*
X123000000Y-96735307D01*
X122722067Y-96787604D01*
X122466802Y-96951862D01*
X122295554Y-97202492D01*
X122235307Y-97500000D01*
X91470696Y-97500000D01*
X91549730Y-97309667D01*
X91550268Y-96693039D01*
X91314792Y-96123143D01*
X91098988Y-95906961D01*
X92549732Y-95906961D01*
X92785208Y-96476857D01*
X93220849Y-96913260D01*
X93790333Y-97149730D01*
X94406961Y-97150268D01*
X94976857Y-96914792D01*
X95413260Y-96479151D01*
X95649730Y-95909667D01*
X95650268Y-95293039D01*
X95414792Y-94723143D01*
X94979151Y-94286740D01*
X94409667Y-94050270D01*
X93793039Y-94049732D01*
X93223143Y-94285208D01*
X92786740Y-94720849D01*
X92550270Y-95290333D01*
X92549732Y-95906961D01*
X91098988Y-95906961D01*
X90879151Y-95686740D01*
X90309667Y-95450270D01*
X89693039Y-95449732D01*
X89123143Y-95685208D01*
X88686740Y-96120849D01*
X88450270Y-96690333D01*
X88449732Y-97306961D01*
X85302295Y-97306961D01*
X85282379Y-97206841D01*
X84946382Y-96703984D01*
X84443525Y-96367987D01*
X83850366Y-96250000D01*
X83789634Y-96250000D01*
X83196475Y-96367987D01*
X82693618Y-96703984D01*
X82357621Y-97206841D01*
X82239634Y-97800000D01*
X77750000Y-97800000D01*
X77750268Y-97493039D01*
X77514792Y-96923143D01*
X77079151Y-96486740D01*
X76509667Y-96250270D01*
X75893039Y-96249732D01*
X75323143Y-96485208D01*
X74886740Y-96920849D01*
X74650270Y-97490333D01*
X74649732Y-98106961D01*
X30825000Y-98106961D01*
X30825000Y-94330805D01*
X69734881Y-94330805D01*
X69819983Y-94578846D01*
X70430064Y-94688239D01*
X70980017Y-94578846D01*
X71065119Y-94330805D01*
X70400000Y-93665685D01*
X69734881Y-94330805D01*
X30825000Y-94330805D01*
X30825000Y-93130064D01*
X68811761Y-93130064D01*
X68921154Y-93680017D01*
X69169195Y-93765119D01*
X69834315Y-93100000D01*
X70965685Y-93100000D01*
X71630805Y-93765119D01*
X71878846Y-93680017D01*
X71927807Y-93406961D01*
X73849732Y-93406961D01*
X74085208Y-93976857D01*
X74520849Y-94413260D01*
X75090333Y-94649730D01*
X75706961Y-94650268D01*
X76276857Y-94414792D01*
X76713260Y-93979151D01*
X76949730Y-93409667D01*
X76950268Y-92793039D01*
X76773702Y-92365715D01*
X125650000Y-92365715D01*
X125650000Y-92434285D01*
X125783211Y-93103981D01*
X126162563Y-93671722D01*
X126730304Y-94051074D01*
X127400000Y-94184285D01*
X128069696Y-94051074D01*
X128637437Y-93671722D01*
X129016789Y-93103981D01*
X129150000Y-92434285D01*
X129150000Y-92365715D01*
X129016789Y-91696019D01*
X128637437Y-91128278D01*
X128069696Y-90748926D01*
X127400000Y-90615715D01*
X126730304Y-90748926D01*
X126162563Y-91128278D01*
X125783211Y-91696019D01*
X125650000Y-92365715D01*
X76773702Y-92365715D01*
X76714792Y-92223143D01*
X76279151Y-91786740D01*
X75709667Y-91550270D01*
X75093039Y-91549732D01*
X74523143Y-91785208D01*
X74086740Y-92220849D01*
X73850270Y-92790333D01*
X73849732Y-93406961D01*
X71927807Y-93406961D01*
X71988239Y-93069936D01*
X71878846Y-92519983D01*
X71630805Y-92434881D01*
X70965685Y-93100000D01*
X69834315Y-93100000D01*
X69169195Y-92434881D01*
X68921154Y-92519983D01*
X68811761Y-93130064D01*
X30825000Y-93130064D01*
X30825000Y-91869195D01*
X69734881Y-91869195D01*
X70400000Y-92534315D01*
X71065119Y-91869195D01*
X70980017Y-91621154D01*
X70369936Y-91511761D01*
X69819983Y-91621154D01*
X69734881Y-91869195D01*
X30825000Y-91869195D01*
X30825000Y-88815822D01*
X116613010Y-88815822D01*
X117074668Y-89345041D01*
X117728546Y-89742226D01*
X118025000Y-89635084D01*
X118025000Y-88525000D01*
X119775000Y-88525000D01*
X119775000Y-89635084D01*
X120071454Y-89742226D01*
X120725332Y-89345041D01*
X121186990Y-88815822D01*
X121107723Y-88525000D01*
X119775000Y-88525000D01*
X118025000Y-88525000D01*
X116692277Y-88525000D01*
X116613010Y-88815822D01*
X30825000Y-88815822D01*
X30825000Y-87351022D01*
X121900000Y-87351022D01*
X121900000Y-88448978D01*
X122052241Y-89214345D01*
X122485786Y-89863192D01*
X123134633Y-90296737D01*
X123900000Y-90448978D01*
X124665367Y-90296737D01*
X125314214Y-89863192D01*
X125747759Y-89214345D01*
X125900000Y-88448978D01*
X125900000Y-87351022D01*
X125747759Y-86585655D01*
X125314214Y-85936808D01*
X124665367Y-85503263D01*
X123900000Y-85351022D01*
X123134633Y-85503263D01*
X122485786Y-85936808D01*
X122052241Y-86585655D01*
X121900000Y-87351022D01*
X30825000Y-87351022D01*
X30825000Y-86984178D01*
X116613010Y-86984178D01*
X116692277Y-87275000D01*
X118025000Y-87275000D01*
X118025000Y-86164916D01*
X119775000Y-86164916D01*
X119775000Y-87275000D01*
X121107723Y-87275000D01*
X121186990Y-86984178D01*
X120725332Y-86454959D01*
X120071454Y-86057774D01*
X119775000Y-86164916D01*
X118025000Y-86164916D01*
X117728546Y-86057774D01*
X117074668Y-86454959D01*
X116613010Y-86984178D01*
X30825000Y-86984178D01*
X30825000Y-83365715D01*
X125650000Y-83365715D01*
X125650000Y-83434285D01*
X125783211Y-84103981D01*
X126162563Y-84671722D01*
X126730304Y-85051074D01*
X127400000Y-85184285D01*
X128069696Y-85051074D01*
X128637437Y-84671722D01*
X129016789Y-84103981D01*
X129150000Y-83434285D01*
X129150000Y-83365715D01*
X129016789Y-82696019D01*
X128637437Y-82128278D01*
X128069696Y-81748926D01*
X127400000Y-81615715D01*
X126730304Y-81748926D01*
X126162563Y-82128278D01*
X125783211Y-82696019D01*
X125650000Y-83365715D01*
X30825000Y-83365715D01*
X30825000Y-80006961D01*
X123933699Y-80006961D01*
X124127361Y-80281784D01*
X125021149Y-80371592D01*
X125472639Y-80281784D01*
X125666301Y-80006961D01*
X124800000Y-79140660D01*
X123933699Y-80006961D01*
X30825000Y-80006961D01*
X30825000Y-78301149D01*
X122508408Y-78301149D01*
X122598216Y-78752639D01*
X122873039Y-78946301D01*
X123739340Y-78080000D01*
X125860660Y-78080000D01*
X126726961Y-78946301D01*
X127001784Y-78752639D01*
X127091592Y-77858851D01*
X127001784Y-77407361D01*
X126726961Y-77213699D01*
X125860660Y-78080000D01*
X123739340Y-78080000D01*
X122873039Y-77213699D01*
X122598216Y-77407361D01*
X122508408Y-78301149D01*
X30825000Y-78301149D01*
X30825000Y-73200000D01*
X34535307Y-73200000D01*
X34535307Y-76200000D01*
X34587604Y-76477933D01*
X34751862Y-76733198D01*
X35002492Y-76904446D01*
X35300000Y-76964693D01*
X38300000Y-76964693D01*
X38577933Y-76912396D01*
X38833198Y-76748138D01*
X39004446Y-76497508D01*
X39064693Y-76200000D01*
X39064693Y-76153039D01*
X123933699Y-76153039D01*
X124800000Y-77019340D01*
X125666301Y-76153039D01*
X125472639Y-75878216D01*
X124578851Y-75788408D01*
X124127361Y-75878216D01*
X123933699Y-76153039D01*
X39064693Y-76153039D01*
X39064693Y-73200000D01*
X39012396Y-72922067D01*
X38848138Y-72666802D01*
X38597508Y-72495554D01*
X38300000Y-72435307D01*
X35300000Y-72435307D01*
X35022067Y-72487604D01*
X34766802Y-72651862D01*
X34595554Y-72902492D01*
X34535307Y-73200000D01*
X30825000Y-73200000D01*
X30825000Y-71546961D01*
X35933699Y-71546961D01*
X36127361Y-71821784D01*
X37021149Y-71911592D01*
X37472639Y-71821784D01*
X37666301Y-71546961D01*
X36800000Y-70680660D01*
X35933699Y-71546961D01*
X30825000Y-71546961D01*
X30825000Y-69841149D01*
X34508408Y-69841149D01*
X34598216Y-70292639D01*
X34873039Y-70486301D01*
X35739340Y-69620000D01*
X37860660Y-69620000D01*
X38726961Y-70486301D01*
X39001784Y-70292639D01*
X39091592Y-69398851D01*
X39013640Y-69006961D01*
X58149732Y-69006961D01*
X58385208Y-69576857D01*
X58820849Y-70013260D01*
X59390333Y-70249730D01*
X60006961Y-70250268D01*
X60576857Y-70014792D01*
X61013260Y-69579151D01*
X61249730Y-69009667D01*
X61250268Y-68393039D01*
X61014792Y-67823143D01*
X60579151Y-67386740D01*
X60009667Y-67150270D01*
X59393039Y-67149732D01*
X58823143Y-67385208D01*
X58386740Y-67820849D01*
X58150270Y-68390333D01*
X58149732Y-69006961D01*
X39013640Y-69006961D01*
X39001784Y-68947361D01*
X38726961Y-68753699D01*
X37860660Y-69620000D01*
X35739340Y-69620000D01*
X34873039Y-68753699D01*
X34598216Y-68947361D01*
X34508408Y-69841149D01*
X30825000Y-69841149D01*
X30825000Y-67693039D01*
X35933699Y-67693039D01*
X36800000Y-68559340D01*
X37666301Y-67693039D01*
X37472639Y-67418216D01*
X36578851Y-67328408D01*
X36127361Y-67418216D01*
X35933699Y-67693039D01*
X30825000Y-67693039D01*
X30825000Y-64400000D01*
X47199634Y-64400000D01*
X47317621Y-64993159D01*
X47653618Y-65496016D01*
X48156475Y-65832013D01*
X48749634Y-65950000D01*
X48810366Y-65950000D01*
X49403525Y-65832013D01*
X49906382Y-65496016D01*
X50242379Y-64993159D01*
X50299307Y-64706961D01*
X54849732Y-64706961D01*
X55085208Y-65276857D01*
X55520849Y-65713260D01*
X56090333Y-65949730D01*
X56706961Y-65950268D01*
X57276857Y-65714792D01*
X57713260Y-65279151D01*
X57737821Y-65220000D01*
X67868654Y-65220000D01*
X67990447Y-65832293D01*
X68337283Y-66351371D01*
X68544756Y-66490000D01*
X68337283Y-66628629D01*
X67990447Y-67147707D01*
X67868654Y-67760000D01*
X67990447Y-68372293D01*
X68275891Y-68799491D01*
X68116802Y-68901862D01*
X67945554Y-69152492D01*
X67885307Y-69450000D01*
X67885307Y-71150000D01*
X67937604Y-71427933D01*
X68101862Y-71683198D01*
X68352492Y-71854446D01*
X68650000Y-71914693D01*
X70350000Y-71914693D01*
X70627933Y-71862396D01*
X70883198Y-71698138D01*
X71018579Y-71500000D01*
X122535307Y-71500000D01*
X122535307Y-74500000D01*
X122587604Y-74777933D01*
X122751862Y-75033198D01*
X123002492Y-75204446D01*
X123300000Y-75264693D01*
X126300000Y-75264693D01*
X126577933Y-75212396D01*
X126833198Y-75048138D01*
X127004446Y-74797508D01*
X127064693Y-74500000D01*
X127064693Y-71500000D01*
X127012396Y-71222067D01*
X126848138Y-70966802D01*
X126597508Y-70795554D01*
X126300000Y-70735307D01*
X123300000Y-70735307D01*
X123022067Y-70787604D01*
X122766802Y-70951862D01*
X122595554Y-71202492D01*
X122535307Y-71500000D01*
X71018579Y-71500000D01*
X71054446Y-71447508D01*
X71114693Y-71150000D01*
X71114693Y-69450000D01*
X71062396Y-69172067D01*
X70898138Y-68916802D01*
X70724842Y-68798394D01*
X71009553Y-68372293D01*
X71131346Y-67760000D01*
X71009553Y-67147707D01*
X70662717Y-66628629D01*
X70455244Y-66490000D01*
X70662717Y-66351371D01*
X71009553Y-65832293D01*
X71131346Y-65220000D01*
X71009553Y-64607707D01*
X70662717Y-64088629D01*
X70143639Y-63741793D01*
X69531346Y-63620000D01*
X69468654Y-63620000D01*
X68856361Y-63741793D01*
X68337283Y-64088629D01*
X67990447Y-64607707D01*
X67868654Y-65220000D01*
X57737821Y-65220000D01*
X57949730Y-64709667D01*
X57950268Y-64093039D01*
X57714792Y-63523143D01*
X57279151Y-63086740D01*
X56709667Y-62850270D01*
X56093039Y-62849732D01*
X55523143Y-63085208D01*
X55086740Y-63520849D01*
X54850270Y-64090333D01*
X54849732Y-64706961D01*
X50299307Y-64706961D01*
X50360366Y-64400000D01*
X50242379Y-63806841D01*
X49906382Y-63303984D01*
X49403525Y-62967987D01*
X48810366Y-62850000D01*
X48749634Y-62850000D01*
X48156475Y-62967987D01*
X47653618Y-63303984D01*
X47317621Y-63806841D01*
X47199634Y-64400000D01*
X30825000Y-64400000D01*
X30825000Y-61049634D01*
X58150000Y-61049634D01*
X58150000Y-61110366D01*
X58267987Y-61703525D01*
X58603984Y-62206382D01*
X59106841Y-62542379D01*
X59700000Y-62660366D01*
X60293159Y-62542379D01*
X60796016Y-62206382D01*
X61132013Y-61703525D01*
X61250000Y-61110366D01*
X61250000Y-61049634D01*
X61132013Y-60456475D01*
X61032767Y-60307942D01*
X71949818Y-60307942D01*
X72109334Y-60694000D01*
X72404446Y-60989628D01*
X72790226Y-61149818D01*
X73207942Y-61150182D01*
X73594000Y-60990666D01*
X73889628Y-60695554D01*
X74048711Y-60312440D01*
X74154589Y-60153983D01*
X74225000Y-59800000D01*
X74225000Y-56860069D01*
X74289628Y-56795554D01*
X74449818Y-56409774D01*
X74450182Y-55992058D01*
X74290666Y-55606000D01*
X73995554Y-55310372D01*
X73609774Y-55150182D01*
X73192058Y-55149818D01*
X72806000Y-55309334D01*
X72510372Y-55604446D01*
X72350182Y-55990226D01*
X72349818Y-56407942D01*
X72375000Y-56468887D01*
X72375000Y-59240280D01*
X72110372Y-59504446D01*
X71950182Y-59890226D01*
X71949818Y-60307942D01*
X61032767Y-60307942D01*
X60796016Y-59953618D01*
X60293159Y-59617621D01*
X59700000Y-59499634D01*
X59106841Y-59617621D01*
X58603984Y-59953618D01*
X58267987Y-60456475D01*
X58150000Y-61049634D01*
X30825000Y-61049634D01*
X30825000Y-52600000D01*
X34535307Y-52600000D01*
X34535307Y-55600000D01*
X34587604Y-55877933D01*
X34751862Y-56133198D01*
X35002492Y-56304446D01*
X35300000Y-56364693D01*
X38300000Y-56364693D01*
X38577933Y-56312396D01*
X38597196Y-56300000D01*
X56299634Y-56300000D01*
X56417621Y-56893159D01*
X56753618Y-57396016D01*
X57256475Y-57732013D01*
X57849634Y-57850000D01*
X57910366Y-57850000D01*
X58503525Y-57732013D01*
X59006382Y-57396016D01*
X59342379Y-56893159D01*
X59399307Y-56606961D01*
X63949732Y-56606961D01*
X64185208Y-57176857D01*
X64620849Y-57613260D01*
X65190333Y-57849730D01*
X65806961Y-57850268D01*
X66376857Y-57614792D01*
X66813260Y-57179151D01*
X67049730Y-56609667D01*
X67050268Y-55993039D01*
X66814792Y-55423143D01*
X66379151Y-54986740D01*
X65809667Y-54750270D01*
X65193039Y-54749732D01*
X64623143Y-54985208D01*
X64186740Y-55420849D01*
X63950270Y-55990333D01*
X63949732Y-56606961D01*
X59399307Y-56606961D01*
X59460366Y-56300000D01*
X59342379Y-55706841D01*
X59006382Y-55203984D01*
X58503525Y-54867987D01*
X57910366Y-54750000D01*
X57849634Y-54750000D01*
X57256475Y-54867987D01*
X56753618Y-55203984D01*
X56417621Y-55706841D01*
X56299634Y-56300000D01*
X38597196Y-56300000D01*
X38833198Y-56148138D01*
X39004446Y-55897508D01*
X39064693Y-55600000D01*
X39064693Y-53520000D01*
X67768654Y-53520000D01*
X67890447Y-54132293D01*
X68237283Y-54651371D01*
X68444756Y-54790000D01*
X68237283Y-54928629D01*
X67890447Y-55447707D01*
X67768654Y-56060000D01*
X67890447Y-56672293D01*
X68175891Y-57099491D01*
X68016802Y-57201862D01*
X67845554Y-57452492D01*
X67785307Y-57750000D01*
X67785307Y-59450000D01*
X67837604Y-59727933D01*
X68001862Y-59983198D01*
X68252492Y-60154446D01*
X68550000Y-60214693D01*
X70250000Y-60214693D01*
X70527933Y-60162396D01*
X70783198Y-59998138D01*
X70954446Y-59747508D01*
X71014693Y-59450000D01*
X71014693Y-57750000D01*
X70962396Y-57472067D01*
X70798138Y-57216802D01*
X70624842Y-57098394D01*
X70909553Y-56672293D01*
X71031346Y-56060000D01*
X70909553Y-55447707D01*
X70562717Y-54928629D01*
X70355244Y-54790000D01*
X70562717Y-54651371D01*
X70909553Y-54132293D01*
X71031346Y-53520000D01*
X70909553Y-52907707D01*
X70562717Y-52388629D01*
X70043639Y-52041793D01*
X69431346Y-51920000D01*
X69368654Y-51920000D01*
X68756361Y-52041793D01*
X68237283Y-52388629D01*
X67890447Y-52907707D01*
X67768654Y-53520000D01*
X39064693Y-53520000D01*
X39064693Y-52600000D01*
X39012396Y-52322067D01*
X38848138Y-52066802D01*
X38597508Y-51895554D01*
X38300000Y-51835307D01*
X35300000Y-51835307D01*
X35022067Y-51887604D01*
X34766802Y-52051862D01*
X34595554Y-52302492D01*
X34535307Y-52600000D01*
X30825000Y-52600000D01*
X30825000Y-50946961D01*
X35933699Y-50946961D01*
X36127361Y-51221784D01*
X37021149Y-51311592D01*
X37472639Y-51221784D01*
X37666301Y-50946961D01*
X36800000Y-50080660D01*
X35933699Y-50946961D01*
X30825000Y-50946961D01*
X30825000Y-49241149D01*
X34508408Y-49241149D01*
X34598216Y-49692639D01*
X34873039Y-49886301D01*
X35739340Y-49020000D01*
X37860660Y-49020000D01*
X38726961Y-49886301D01*
X39001784Y-49692639D01*
X39052326Y-49189634D01*
X53050000Y-49189634D01*
X53050000Y-49250366D01*
X53167987Y-49843525D01*
X53503984Y-50346382D01*
X54006841Y-50682379D01*
X54600000Y-50800366D01*
X55193159Y-50682379D01*
X55696016Y-50346382D01*
X56032013Y-49843525D01*
X56150000Y-49250366D01*
X56150000Y-49189634D01*
X56032013Y-48596475D01*
X55696016Y-48093618D01*
X55193159Y-47757621D01*
X54600000Y-47639634D01*
X54006841Y-47757621D01*
X53503984Y-48093618D01*
X53167987Y-48596475D01*
X53050000Y-49189634D01*
X39052326Y-49189634D01*
X39091592Y-48798851D01*
X39001784Y-48347361D01*
X38726961Y-48153699D01*
X37860660Y-49020000D01*
X35739340Y-49020000D01*
X34873039Y-48153699D01*
X34598216Y-48347361D01*
X34508408Y-49241149D01*
X30825000Y-49241149D01*
X30825000Y-47093039D01*
X35933699Y-47093039D01*
X36800000Y-47959340D01*
X37666301Y-47093039D01*
X37472639Y-46818216D01*
X36578851Y-46728408D01*
X36127361Y-46818216D01*
X35933699Y-47093039D01*
X30825000Y-47093039D01*
X30825000Y-41906961D01*
X53049732Y-41906961D01*
X53285208Y-42476857D01*
X53720849Y-42913260D01*
X54290333Y-43149730D01*
X54906961Y-43150268D01*
X55476857Y-42914792D01*
X55913260Y-42479151D01*
X56149730Y-41909667D01*
X56150268Y-41293039D01*
X55914792Y-40723143D01*
X55479151Y-40286740D01*
X54909667Y-40050270D01*
X54293039Y-40049732D01*
X53723143Y-40285208D01*
X53286740Y-40720849D01*
X53050270Y-41290333D01*
X53049732Y-41906961D01*
X30825000Y-41906961D01*
X30825000Y-34758981D01*
X31422066Y-35357090D01*
X32444198Y-35781516D01*
X33550946Y-35782482D01*
X33733459Y-35707069D01*
X106025161Y-35707069D01*
X106841235Y-36523143D01*
X106720630Y-36643537D01*
X106490262Y-37198325D01*
X106489738Y-37799040D01*
X106719138Y-38354229D01*
X107143537Y-38779370D01*
X107698325Y-39009738D01*
X108299040Y-39010262D01*
X108854229Y-38780862D01*
X109270353Y-38365464D01*
X109683537Y-38779370D01*
X110238325Y-39009738D01*
X110839040Y-39010262D01*
X111394229Y-38780862D01*
X111819370Y-38356463D01*
X112049738Y-37801675D01*
X112050262Y-37200960D01*
X111820862Y-36645771D01*
X111675464Y-36500118D01*
X111819370Y-36356463D01*
X112049738Y-35801675D01*
X112050262Y-35200960D01*
X111820862Y-34645771D01*
X111753503Y-34578294D01*
X114446301Y-34578294D01*
X114616679Y-34847597D01*
X115449992Y-34941748D01*
X115923321Y-34847597D01*
X116093699Y-34578294D01*
X115270000Y-33754594D01*
X114446301Y-34578294D01*
X111753503Y-34578294D01*
X111396463Y-34220630D01*
X110841675Y-33990262D01*
X110240960Y-33989738D01*
X109685771Y-34219138D01*
X109260630Y-34643537D01*
X109166022Y-34871379D01*
X108537401Y-35500000D01*
X108806102Y-35768701D01*
X108501546Y-36073256D01*
X108301675Y-35990262D01*
X107700960Y-35989738D01*
X107498564Y-36073366D01*
X107193899Y-35768701D01*
X107462599Y-35500000D01*
X106809233Y-34846634D01*
X106562821Y-34925534D01*
X106507089Y-35225141D01*
X106025161Y-35707069D01*
X33733459Y-35707069D01*
X34573818Y-35359840D01*
X35356729Y-34578294D01*
X102446301Y-34578294D01*
X102616679Y-34847597D01*
X103449992Y-34941748D01*
X103923321Y-34847597D01*
X104093699Y-34578294D01*
X103824639Y-34309233D01*
X107346634Y-34309233D01*
X108000000Y-34962599D01*
X108653366Y-34309233D01*
X108574466Y-34062821D01*
X107980753Y-33952381D01*
X107425534Y-34062821D01*
X107346634Y-34309233D01*
X103824639Y-34309233D01*
X103270000Y-33754594D01*
X102446301Y-34578294D01*
X35356729Y-34578294D01*
X35357090Y-34577934D01*
X35781516Y-33555802D01*
X35782018Y-32979992D01*
X101128252Y-32979992D01*
X101222403Y-33453321D01*
X101491706Y-33623699D01*
X102315406Y-32800000D01*
X104224594Y-32800000D01*
X105048294Y-33623699D01*
X105317597Y-33453321D01*
X105371075Y-32979992D01*
X113128252Y-32979992D01*
X113222403Y-33453321D01*
X113491706Y-33623699D01*
X114315406Y-32800000D01*
X116224594Y-32800000D01*
X117048294Y-33623699D01*
X117317597Y-33453321D01*
X117411748Y-32620008D01*
X117317597Y-32146679D01*
X117048294Y-31976301D01*
X116224594Y-32800000D01*
X114315406Y-32800000D01*
X113491706Y-31976301D01*
X113222403Y-32146679D01*
X113128252Y-32979992D01*
X105371075Y-32979992D01*
X105411748Y-32620008D01*
X105317597Y-32146679D01*
X105048294Y-31976301D01*
X104224594Y-32800000D01*
X102315406Y-32800000D01*
X101491706Y-31976301D01*
X101222403Y-32146679D01*
X101128252Y-32979992D01*
X35782018Y-32979992D01*
X35782482Y-32449054D01*
X35359840Y-31426182D01*
X34759706Y-30825000D01*
X102570750Y-30825000D01*
X102446301Y-31021706D01*
X102446301Y-31021706D01*
G37*
X102446301Y-31021706D02*
X103270000Y-31845406D01*
X104093699Y-31021706D01*
X103969250Y-30825000D01*
X114570750Y-30825000D01*
X114446301Y-31021706D01*
X115270000Y-31845406D01*
X116093699Y-31021706D01*
X115969250Y-30825000D01*
X125241019Y-30825000D01*
X124642910Y-31422066D01*
X124218484Y-32444198D01*
X124217518Y-33550946D01*
X124640160Y-34573818D01*
X125422066Y-35357090D01*
X126444198Y-35781516D01*
X127550946Y-35782482D01*
X128573818Y-35359840D01*
X129175000Y-34759706D01*
X129175000Y-108134156D01*
X129037437Y-107928278D01*
X128469696Y-107548926D01*
X127800000Y-107415715D01*
X127130304Y-107548926D01*
X126562563Y-107928278D01*
X126183211Y-108496019D01*
X126050000Y-109165715D01*
X126050000Y-109234285D01*
X126183211Y-109903981D01*
X126562563Y-110471722D01*
X127130304Y-110851074D01*
X127800000Y-110984285D01*
X128469696Y-110851074D01*
X129037437Y-110471722D01*
X129175000Y-110265844D01*
X129175000Y-117134156D01*
X129037437Y-116928278D01*
X128469696Y-116548926D01*
X127800000Y-116415715D01*
X127130304Y-116548926D01*
X126562563Y-116928278D01*
X126183211Y-117496019D01*
X126050000Y-118165715D01*
X126050000Y-118234285D01*
X126183211Y-118903981D01*
X126562563Y-119471722D01*
X127130304Y-119851074D01*
X127800000Y-119984285D01*
X128469696Y-119851074D01*
X129037437Y-119471722D01*
X129175000Y-119265844D01*
X129175000Y-125241019D01*
X128577934Y-124642910D01*
X127555802Y-124218484D01*
X126449054Y-124217518D01*
X125426182Y-124640160D01*
X124642910Y-125422066D01*
X124218484Y-126444198D01*
X124217518Y-127550946D01*
X124640160Y-128573818D01*
X125240294Y-129175000D01*
X34758981Y-129175000D01*
X35357090Y-128577934D01*
X35781516Y-127555802D01*
X35782482Y-126449054D01*
X35359840Y-125426182D01*
X34577934Y-124642910D01*
X33555802Y-124218484D01*
X32449054Y-124217518D01*
X31426182Y-124640160D01*
X30825000Y-125240294D01*
X30825000Y-123900000D01*
X88099634Y-123900000D01*
X88217621Y-124493159D01*
X88553618Y-124996016D01*
X89056475Y-125332013D01*
X89649634Y-125450000D01*
X89710366Y-125450000D01*
X90303525Y-125332013D01*
X90806382Y-124996016D01*
X91142379Y-124493159D01*
X91199307Y-124206961D01*
X95749732Y-124206961D01*
X95985208Y-124776857D01*
X96420849Y-125213260D01*
X96990333Y-125449730D01*
X97606961Y-125450268D01*
X98176857Y-125214792D01*
X98613260Y-124779151D01*
X98849730Y-124209667D01*
X98850268Y-123593039D01*
X98614792Y-123023143D01*
X98179151Y-122586740D01*
X97609667Y-122350270D01*
X96993039Y-122349732D01*
X96423143Y-122585208D01*
X95986740Y-123020849D01*
X95750270Y-123590333D01*
X95749732Y-124206961D01*
X91199307Y-124206961D01*
X91260366Y-123900000D01*
X91142379Y-123306841D01*
X90806382Y-122803984D01*
X90303525Y-122467987D01*
X89710366Y-122350000D01*
X89649634Y-122350000D01*
X89056475Y-122467987D01*
X88553618Y-122803984D01*
X88217621Y-123306841D01*
X88099634Y-123900000D01*
X30825000Y-123900000D01*
X30825000Y-120806961D01*
X76149732Y-120806961D01*
X76385208Y-121376857D01*
X76820849Y-121813260D01*
X77390333Y-122049730D01*
X78006961Y-122050268D01*
X78576857Y-121814792D01*
X79013260Y-121379151D01*
X79249730Y-120809667D01*
X79250000Y-120500000D01*
X83739634Y-120500000D01*
X83857621Y-121093159D01*
X84193618Y-121596016D01*
X84696475Y-121932013D01*
X85289634Y-122050000D01*
X85350366Y-122050000D01*
X85943525Y-121932013D01*
X86446382Y-121596016D01*
X86782379Y-121093159D01*
X86900366Y-120500000D01*
X86880475Y-120400000D01*
X88099634Y-120400000D01*
X88217621Y-120993159D01*
X88553618Y-121496016D01*
X89056475Y-121832013D01*
X89649634Y-121950000D01*
X89710366Y-121950000D01*
X90303525Y-121832013D01*
X90806382Y-121496016D01*
X91142379Y-120993159D01*
X91199307Y-120706961D01*
X95749732Y-120706961D01*
X95985208Y-121276857D01*
X96420849Y-121713260D01*
X96990333Y-121949730D01*
X97606961Y-121950268D01*
X98176857Y-121714792D01*
X98613260Y-121279151D01*
X98849730Y-120709667D01*
X98850268Y-120093039D01*
X98614792Y-119523143D01*
X98179151Y-119086740D01*
X97609667Y-118850270D01*
X96993039Y-118849732D01*
X96423143Y-119085208D01*
X95986740Y-119520849D01*
X95750270Y-120090333D01*
X95749732Y-120706961D01*
X91199307Y-120706961D01*
X91260366Y-120400000D01*
X91142379Y-119806841D01*
X90806382Y-119303984D01*
X90303525Y-118967987D01*
X89710366Y-118850000D01*
X89649634Y-118850000D01*
X89056475Y-118967987D01*
X88553618Y-119303984D01*
X88217621Y-119806841D01*
X88099634Y-120400000D01*
X86880475Y-120400000D01*
X86782379Y-119906841D01*
X86446382Y-119403984D01*
X85943525Y-119067987D01*
X85350366Y-118950000D01*
X85289634Y-118950000D01*
X84696475Y-119067987D01*
X84193618Y-119403984D01*
X83857621Y-119906841D01*
X83739634Y-120500000D01*
X79250000Y-120500000D01*
X79250268Y-120193039D01*
X79014792Y-119623143D01*
X78579151Y-119186740D01*
X78009667Y-118950270D01*
X77393039Y-118949732D01*
X76823143Y-119185208D01*
X76386740Y-119620849D01*
X76150270Y-120190333D01*
X76149732Y-120806961D01*
X30825000Y-120806961D01*
X30825000Y-115430805D01*
X68134881Y-115430805D01*
X68219983Y-115678846D01*
X68830064Y-115788239D01*
X69380017Y-115678846D01*
X69465119Y-115430805D01*
X68800000Y-114765685D01*
X68134881Y-115430805D01*
X30825000Y-115430805D01*
X30825000Y-113289634D01*
X60350000Y-113289634D01*
X60350000Y-113350366D01*
X60467987Y-113943525D01*
X60803984Y-114446382D01*
X61306841Y-114782379D01*
X61900000Y-114900366D01*
X62493159Y-114782379D01*
X62996016Y-114446382D01*
X63140554Y-114230064D01*
X67211761Y-114230064D01*
X67321154Y-114780017D01*
X67569195Y-114865119D01*
X68234315Y-114200000D01*
X69365685Y-114200000D01*
X70030805Y-114865119D01*
X70278846Y-114780017D01*
X70327807Y-114506961D01*
X72249732Y-114506961D01*
X72485208Y-115076857D01*
X72920849Y-115513260D01*
X73490333Y-115749730D01*
X74106961Y-115750268D01*
X74676857Y-115514792D01*
X74985226Y-115206961D01*
X89149732Y-115206961D01*
X89385208Y-115776857D01*
X89820849Y-116213260D01*
X90390333Y-116449730D01*
X91006961Y-116450268D01*
X91576857Y-116214792D01*
X92013260Y-115779151D01*
X92249730Y-115209667D01*
X92249732Y-115206961D01*
X93049732Y-115206961D01*
X93285208Y-115776857D01*
X93720849Y-116213260D01*
X94290333Y-116449730D01*
X94906961Y-116450268D01*
X95476857Y-116214792D01*
X95913260Y-115779151D01*
X96149730Y-115209667D01*
X96149993Y-114907942D01*
X103649818Y-114907942D01*
X103809334Y-115294000D01*
X104104446Y-115589628D01*
X104490226Y-115749818D01*
X104907942Y-115750182D01*
X105029392Y-115700000D01*
X108429425Y-115700000D01*
X108790226Y-115849818D01*
X109207942Y-115850182D01*
X109594000Y-115690666D01*
X109889628Y-115395554D01*
X110049818Y-115009774D01*
X110050161Y-114615822D01*
X117013010Y-114615822D01*
X117474668Y-115145041D01*
X118128546Y-115542226D01*
X118425000Y-115435084D01*
X118425000Y-114325000D01*
X120175000Y-114325000D01*
X120175000Y-115435084D01*
X120471454Y-115542226D01*
X121125332Y-115145041D01*
X121586990Y-114615822D01*
X121507723Y-114325000D01*
X120175000Y-114325000D01*
X118425000Y-114325000D01*
X117092277Y-114325000D01*
X117013010Y-114615822D01*
X110050161Y-114615822D01*
X110050182Y-114592058D01*
X109890666Y-114206000D01*
X109595554Y-113910372D01*
X109299830Y-113787576D01*
X109282684Y-113776120D01*
X109262636Y-113772132D01*
X109209774Y-113750182D01*
X109152031Y-113750132D01*
X108900000Y-113700000D01*
X105029749Y-113700000D01*
X104909774Y-113650182D01*
X104492058Y-113649818D01*
X104106000Y-113809334D01*
X103810372Y-114104446D01*
X103650182Y-114490226D01*
X103649818Y-114907942D01*
X96149993Y-114907942D01*
X96150268Y-114593039D01*
X95914792Y-114023143D01*
X95479151Y-113586740D01*
X94909667Y-113350270D01*
X94293039Y-113349732D01*
X93723143Y-113585208D01*
X93286740Y-114020849D01*
X93050270Y-114590333D01*
X93049732Y-115206961D01*
X92249732Y-115206961D01*
X92250268Y-114593039D01*
X92014792Y-114023143D01*
X91579151Y-113586740D01*
X91009667Y-113350270D01*
X90393039Y-113349732D01*
X89823143Y-113585208D01*
X89386740Y-114020849D01*
X89150270Y-114590333D01*
X89149732Y-115206961D01*
X74985226Y-115206961D01*
X75113260Y-115079151D01*
X75349730Y-114509667D01*
X75350268Y-113893039D01*
X75114792Y-113323143D01*
X74942972Y-113151022D01*
X122300000Y-113151022D01*
X122300000Y-114248978D01*
X122452241Y-115014345D01*
X122885786Y-115663192D01*
X123534633Y-116096737D01*
X124300000Y-116248978D01*
X125065367Y-116096737D01*
X125714214Y-115663192D01*
X126147759Y-115014345D01*
X126300000Y-114248978D01*
X126300000Y-113151022D01*
X126147759Y-112385655D01*
X125714214Y-111736808D01*
X125065367Y-111303263D01*
X124300000Y-111151022D01*
X123534633Y-111303263D01*
X122885786Y-111736808D01*
X122452241Y-112385655D01*
X122300000Y-113151022D01*
X74942972Y-113151022D01*
X74679151Y-112886740D01*
X74432154Y-112784178D01*
X117013010Y-112784178D01*
X117092277Y-113075000D01*
X118425000Y-113075000D01*
X118425000Y-111964916D01*
X120175000Y-111964916D01*
X120175000Y-113075000D01*
X121507723Y-113075000D01*
X121586990Y-112784178D01*
X121125332Y-112254959D01*
X120471454Y-111857774D01*
X120175000Y-111964916D01*
X118425000Y-111964916D01*
X118128546Y-111857774D01*
X117474668Y-112254959D01*
X117013010Y-112784178D01*
X74432154Y-112784178D01*
X74109667Y-112650270D01*
X73493039Y-112649732D01*
X72923143Y-112885208D01*
X72486740Y-113320849D01*
X72250270Y-113890333D01*
X72249732Y-114506961D01*
X70327807Y-114506961D01*
X70388239Y-114169936D01*
X70278846Y-113619983D01*
X70030805Y-113534881D01*
X69365685Y-114200000D01*
X68234315Y-114200000D01*
X67569195Y-113534881D01*
X67321154Y-113619983D01*
X67211761Y-114230064D01*
X63140554Y-114230064D01*
X63332013Y-113943525D01*
X63450000Y-113350366D01*
X63450000Y-113289634D01*
X63386261Y-112969195D01*
X68134881Y-112969195D01*
X68800000Y-113634315D01*
X69465119Y-112969195D01*
X69380017Y-112721154D01*
X68769936Y-112611761D01*
X68219983Y-112721154D01*
X68134881Y-112969195D01*
X63386261Y-112969195D01*
X63332013Y-112696475D01*
X62996016Y-112193618D01*
X62493159Y-111857621D01*
X61900000Y-111739634D01*
X61306841Y-111857621D01*
X60803984Y-112193618D01*
X60467987Y-112696475D01*
X60350000Y-113289634D01*
X30825000Y-113289634D01*
X30825000Y-109806961D01*
X49449732Y-109806961D01*
X49685208Y-110376857D01*
X50120849Y-110813260D01*
X50690333Y-111049730D01*
X51306961Y-111050268D01*
X51876857Y-110814792D01*
X52313260Y-110379151D01*
X52549730Y-109809667D01*
X52550000Y-109500000D01*
X57039634Y-109500000D01*
X57157621Y-110093159D01*
X57493618Y-110596016D01*
X57996475Y-110932013D01*
X58589634Y-111050000D01*
X58650366Y-111050000D01*
X59243525Y-110932013D01*
X59746382Y-110596016D01*
X59939521Y-110306961D01*
X75049732Y-110306961D01*
X75285208Y-110876857D01*
X75720849Y-111313260D01*
X76290333Y-111549730D01*
X76906961Y-111550268D01*
X77476857Y-111314792D01*
X77913260Y-110879151D01*
X78149730Y-110309667D01*
X78150000Y-110000000D01*
X82639634Y-110000000D01*
X82757621Y-110593159D01*
X83093618Y-111096016D01*
X83596475Y-111432013D01*
X84189634Y-111550000D01*
X84250366Y-111550000D01*
X84843525Y-111432013D01*
X85346382Y-111096016D01*
X85682379Y-110593159D01*
X85759198Y-110206961D01*
X89149732Y-110206961D01*
X89385208Y-110776857D01*
X89820849Y-111213260D01*
X90390333Y-111449730D01*
X91006961Y-111450268D01*
X91576857Y-111214792D01*
X92013260Y-110779151D01*
X92249730Y-110209667D01*
X92250268Y-109593039D01*
X92014792Y-109023143D01*
X91579151Y-108586740D01*
X91009667Y-108350270D01*
X90393039Y-108349732D01*
X89823143Y-108585208D01*
X89386740Y-109020849D01*
X89150270Y-109590333D01*
X89149732Y-110206961D01*
X85759198Y-110206961D01*
X85800366Y-110000000D01*
X85682379Y-109406841D01*
X85346382Y-108903984D01*
X84843525Y-108567987D01*
X84250366Y-108450000D01*
X84189634Y-108450000D01*
X83596475Y-108567987D01*
X83093618Y-108903984D01*
X82757621Y-109406841D01*
X82639634Y-110000000D01*
X78150000Y-110000000D01*
X78150268Y-109693039D01*
X77914792Y-109123143D01*
X77479151Y-108686740D01*
X76909667Y-108450270D01*
X76293039Y-108449732D01*
X75723143Y-108685208D01*
X75286740Y-109120849D01*
X75050270Y-109690333D01*
X75049732Y-110306961D01*
X59939521Y-110306961D01*
X60082379Y-110093159D01*
X60200366Y-109500000D01*
X60082379Y-108906841D01*
X59746382Y-108403984D01*
X59243525Y-108067987D01*
X58650366Y-107950000D01*
X58589634Y-107950000D01*
X57996475Y-108067987D01*
X57493618Y-108403984D01*
X57157621Y-108906841D01*
X57039634Y-109500000D01*
X52550000Y-109500000D01*
X52550268Y-109193039D01*
X52314792Y-108623143D01*
X51879151Y-108186740D01*
X51309667Y-107950270D01*
X50693039Y-107949732D01*
X50123143Y-108185208D01*
X49686740Y-108620849D01*
X49450270Y-109190333D01*
X49449732Y-109806961D01*
X30825000Y-109806961D01*
X30825000Y-106006961D01*
X60349732Y-106006961D01*
X60585208Y-106576857D01*
X61020849Y-107013260D01*
X61590333Y-107249730D01*
X62206961Y-107250268D01*
X62776857Y-107014792D01*
X63213260Y-106579151D01*
X63409330Y-106106961D01*
X67049732Y-106106961D01*
X67285208Y-106676857D01*
X67720849Y-107113260D01*
X68290333Y-107349730D01*
X68906961Y-107350268D01*
X69476857Y-107114792D01*
X69913260Y-106679151D01*
X70149730Y-106109667D01*
X70150000Y-105800000D01*
X74639634Y-105800000D01*
X74757621Y-106393159D01*
X75093618Y-106896016D01*
X75596475Y-107232013D01*
X76189634Y-107350000D01*
X76250366Y-107350000D01*
X76754938Y-107249634D01*
X93050000Y-107249634D01*
X93050000Y-107310366D01*
X93167987Y-107903525D01*
X93503984Y-108406382D01*
X94006841Y-108742379D01*
X94600000Y-108860366D01*
X95193159Y-108742379D01*
X95696016Y-108406382D01*
X95880556Y-108130197D01*
X96174074Y-107934074D01*
X97183148Y-106925000D01*
X99789631Y-106925000D01*
X100090226Y-107049818D01*
X100507942Y-107050182D01*
X100894000Y-106890666D01*
X101189628Y-106595554D01*
X101349818Y-106209774D01*
X101349994Y-106006961D01*
X123633699Y-106006961D01*
X123827361Y-106281784D01*
X124721149Y-106371592D01*
X125172639Y-106281784D01*
X125366301Y-106006961D01*
X124500000Y-105140660D01*
X123633699Y-106006961D01*
X101349994Y-106006961D01*
X101350182Y-105792058D01*
X101190666Y-105406000D01*
X100895554Y-105110372D01*
X100509774Y-104950182D01*
X100092058Y-104949818D01*
X99789095Y-105075000D01*
X96800000Y-105075000D01*
X96446018Y-105145411D01*
X96145926Y-105345926D01*
X95481541Y-106010311D01*
X95193159Y-105817621D01*
X94600000Y-105699634D01*
X94006841Y-105817621D01*
X93503984Y-106153618D01*
X93167987Y-106656475D01*
X93050000Y-107249634D01*
X76754938Y-107249634D01*
X76843525Y-107232013D01*
X77346382Y-106896016D01*
X77682379Y-106393159D01*
X77800366Y-105800000D01*
X77682379Y-105206841D01*
X77346382Y-104703984D01*
X76843525Y-104367987D01*
X76250366Y-104250000D01*
X76189634Y-104250000D01*
X75596475Y-104367987D01*
X75093618Y-104703984D01*
X74757621Y-105206841D01*
X74639634Y-105800000D01*
X70150000Y-105800000D01*
X70150268Y-105493039D01*
X69914792Y-104923143D01*
X69479151Y-104486740D01*
X68909667Y-104250270D01*
X68293039Y-104249732D01*
X67723143Y-104485208D01*
X67286740Y-104920849D01*
X67050270Y-105490333D01*
X67049732Y-106106961D01*
X63409330Y-106106961D01*
X63449730Y-106009667D01*
X63450268Y-105393039D01*
X63214792Y-104823143D01*
X62779151Y-104386740D01*
X62209667Y-104150270D01*
X61593039Y-104149732D01*
X61023143Y-104385208D01*
X60586740Y-104820849D01*
X60350270Y-105390333D01*
X60349732Y-106006961D01*
X30825000Y-106006961D01*
X30825000Y-101806961D01*
X67049732Y-101806961D01*
X67285208Y-102376857D01*
X67720849Y-102813260D01*
X68290333Y-103049730D01*
X68906961Y-103050268D01*
X69476857Y-102814792D01*
X69913260Y-102379151D01*
X70149730Y-101809667D01*
X70150000Y-101500000D01*
X74639634Y-101500000D01*
X74757621Y-102093159D01*
X75093618Y-102596016D01*
X75596475Y-102932013D01*
X76189634Y-103050000D01*
X76250366Y-103050000D01*
X76843525Y-102932013D01*
X77346382Y-102596016D01*
X77539521Y-102306961D01*
X88449732Y-102306961D01*
X88685208Y-102876857D01*
X89120849Y-103313260D01*
X89690333Y-103549730D01*
X90306961Y-103550268D01*
X90876857Y-103314792D01*
X91002233Y-103189634D01*
X92550000Y-103189634D01*
X92550000Y-103250366D01*
X92667987Y-103843525D01*
X93003984Y-104346382D01*
X93506841Y-104682379D01*
X94100000Y-104800366D01*
X94693159Y-104682379D01*
X94765553Y-104634007D01*
X94946017Y-104754589D01*
X95300000Y-104825000D01*
X100989631Y-104825000D01*
X101290226Y-104949818D01*
X101707942Y-104950182D01*
X102094000Y-104790666D01*
X102389628Y-104495554D01*
X102470352Y-104301149D01*
X122208408Y-104301149D01*
X122298216Y-104752639D01*
X122573039Y-104946301D01*
X123439340Y-104080000D01*
X125560660Y-104080000D01*
X126426961Y-104946301D01*
X126701784Y-104752639D01*
X126791592Y-103858851D01*
X126701784Y-103407361D01*
X126426961Y-103213699D01*
X125560660Y-104080000D01*
X123439340Y-104080000D01*
X122573039Y-103213699D01*
X122298216Y-103407361D01*
X122208408Y-104301149D01*
X102470352Y-104301149D01*
X102549818Y-104109774D01*
X102550182Y-103692058D01*
X102390666Y-103306000D01*
X102095554Y-103010372D01*
X101709774Y-102850182D01*
X101292058Y-102849818D01*
X100989095Y-102975000D01*
X95683148Y-102975000D01*
X95588475Y-102880327D01*
X95532013Y-102596475D01*
X95235720Y-102153039D01*
X123633699Y-102153039D01*
X124500000Y-103019340D01*
X125366301Y-102153039D01*
X125172639Y-101878216D01*
X124278851Y-101788408D01*
X123827361Y-101878216D01*
X123633699Y-102153039D01*
X95235720Y-102153039D01*
X95196016Y-102093618D01*
X94693159Y-101757621D01*
X94100000Y-101639634D01*
X93506841Y-101757621D01*
X93003984Y-102093618D01*
X92667987Y-102596475D01*
X92550000Y-103189634D01*
X91002233Y-103189634D01*
X91313260Y-102879151D01*
X91549730Y-102309667D01*
X91550268Y-101693039D01*
X91314792Y-101123143D01*
X90879151Y-100686740D01*
X90309667Y-100450270D01*
X89693039Y-100449732D01*
X89123143Y-100685208D01*
X88686740Y-101120849D01*
X88450270Y-101690333D01*
X88449732Y-102306961D01*
X77539521Y-102306961D01*
X77682379Y-102093159D01*
X77800366Y-101500000D01*
X77682379Y-100906841D01*
X77346382Y-100403984D01*
X76843525Y-100067987D01*
X76250366Y-99950000D01*
X76189634Y-99950000D01*
X75596475Y-100067987D01*
X75093618Y-100403984D01*
X74757621Y-100906841D01*
X74639634Y-101500000D01*
X70150000Y-101500000D01*
X70150268Y-101193039D01*
X69914792Y-100623143D01*
X69479151Y-100186740D01*
X68909667Y-99950270D01*
X68293039Y-99949732D01*
X67723143Y-100185208D01*
X67286740Y-100620849D01*
X67050270Y-101190333D01*
X67049732Y-101806961D01*
X30825000Y-101806961D01*
X30825000Y-98106961D01*
X74649732Y-98106961D01*
X74885208Y-98676857D01*
X75320849Y-99113260D01*
X75890333Y-99349730D01*
X76506961Y-99350268D01*
X77076857Y-99114792D01*
X77513260Y-98679151D01*
X77749730Y-98109667D01*
X77750000Y-97800000D01*
X82239634Y-97800000D01*
X82357621Y-98393159D01*
X82693618Y-98896016D01*
X83196475Y-99232013D01*
X83789634Y-99350000D01*
X83850366Y-99350000D01*
X84443525Y-99232013D01*
X84946382Y-98896016D01*
X85282379Y-98393159D01*
X85400366Y-97800000D01*
X85302295Y-97306961D01*
X88449732Y-97306961D01*
X88685208Y-97876857D01*
X89120849Y-98313260D01*
X89690333Y-98549730D01*
X90306961Y-98550268D01*
X90876857Y-98314792D01*
X91313260Y-97879151D01*
X91470696Y-97500000D01*
X122235307Y-97500000D01*
X122235307Y-100500000D01*
X122287604Y-100777933D01*
X122451862Y-101033198D01*
X122702492Y-101204446D01*
X123000000Y-101264693D01*
X126000000Y-101264693D01*
X126277933Y-101212396D01*
X126533198Y-101048138D01*
X126704446Y-100797508D01*
X126764693Y-100500000D01*
X126764693Y-97500000D01*
X126712396Y-97222067D01*
X126548138Y-96966802D01*
X126297508Y-96795554D01*
X126000000Y-96735307D01*
X123000000Y-96735307D01*
X122722067Y-96787604D01*
X122466802Y-96951862D01*
X122295554Y-97202492D01*
X122235307Y-97500000D01*
X91470696Y-97500000D01*
X91549730Y-97309667D01*
X91550268Y-96693039D01*
X91314792Y-96123143D01*
X91098988Y-95906961D01*
X92549732Y-95906961D01*
X92785208Y-96476857D01*
X93220849Y-96913260D01*
X93790333Y-97149730D01*
X94406961Y-97150268D01*
X94976857Y-96914792D01*
X95413260Y-96479151D01*
X95649730Y-95909667D01*
X95650268Y-95293039D01*
X95414792Y-94723143D01*
X94979151Y-94286740D01*
X94409667Y-94050270D01*
X93793039Y-94049732D01*
X93223143Y-94285208D01*
X92786740Y-94720849D01*
X92550270Y-95290333D01*
X92549732Y-95906961D01*
X91098988Y-95906961D01*
X90879151Y-95686740D01*
X90309667Y-95450270D01*
X89693039Y-95449732D01*
X89123143Y-95685208D01*
X88686740Y-96120849D01*
X88450270Y-96690333D01*
X88449732Y-97306961D01*
X85302295Y-97306961D01*
X85282379Y-97206841D01*
X84946382Y-96703984D01*
X84443525Y-96367987D01*
X83850366Y-96250000D01*
X83789634Y-96250000D01*
X83196475Y-96367987D01*
X82693618Y-96703984D01*
X82357621Y-97206841D01*
X82239634Y-97800000D01*
X77750000Y-97800000D01*
X77750268Y-97493039D01*
X77514792Y-96923143D01*
X77079151Y-96486740D01*
X76509667Y-96250270D01*
X75893039Y-96249732D01*
X75323143Y-96485208D01*
X74886740Y-96920849D01*
X74650270Y-97490333D01*
X74649732Y-98106961D01*
X30825000Y-98106961D01*
X30825000Y-94330805D01*
X69734881Y-94330805D01*
X69819983Y-94578846D01*
X70430064Y-94688239D01*
X70980017Y-94578846D01*
X71065119Y-94330805D01*
X70400000Y-93665685D01*
X69734881Y-94330805D01*
X30825000Y-94330805D01*
X30825000Y-93130064D01*
X68811761Y-93130064D01*
X68921154Y-93680017D01*
X69169195Y-93765119D01*
X69834315Y-93100000D01*
X70965685Y-93100000D01*
X71630805Y-93765119D01*
X71878846Y-93680017D01*
X71927807Y-93406961D01*
X73849732Y-93406961D01*
X74085208Y-93976857D01*
X74520849Y-94413260D01*
X75090333Y-94649730D01*
X75706961Y-94650268D01*
X76276857Y-94414792D01*
X76713260Y-93979151D01*
X76949730Y-93409667D01*
X76950268Y-92793039D01*
X76773702Y-92365715D01*
X125650000Y-92365715D01*
X125650000Y-92434285D01*
X125783211Y-93103981D01*
X126162563Y-93671722D01*
X126730304Y-94051074D01*
X127400000Y-94184285D01*
X128069696Y-94051074D01*
X128637437Y-93671722D01*
X129016789Y-93103981D01*
X129150000Y-92434285D01*
X129150000Y-92365715D01*
X129016789Y-91696019D01*
X128637437Y-91128278D01*
X128069696Y-90748926D01*
X127400000Y-90615715D01*
X126730304Y-90748926D01*
X126162563Y-91128278D01*
X125783211Y-91696019D01*
X125650000Y-92365715D01*
X76773702Y-92365715D01*
X76714792Y-92223143D01*
X76279151Y-91786740D01*
X75709667Y-91550270D01*
X75093039Y-91549732D01*
X74523143Y-91785208D01*
X74086740Y-92220849D01*
X73850270Y-92790333D01*
X73849732Y-93406961D01*
X71927807Y-93406961D01*
X71988239Y-93069936D01*
X71878846Y-92519983D01*
X71630805Y-92434881D01*
X70965685Y-93100000D01*
X69834315Y-93100000D01*
X69169195Y-92434881D01*
X68921154Y-92519983D01*
X68811761Y-93130064D01*
X30825000Y-93130064D01*
X30825000Y-91869195D01*
X69734881Y-91869195D01*
X70400000Y-92534315D01*
X71065119Y-91869195D01*
X70980017Y-91621154D01*
X70369936Y-91511761D01*
X69819983Y-91621154D01*
X69734881Y-91869195D01*
X30825000Y-91869195D01*
X30825000Y-88815822D01*
X116613010Y-88815822D01*
X117074668Y-89345041D01*
X117728546Y-89742226D01*
X118025000Y-89635084D01*
X118025000Y-88525000D01*
X119775000Y-88525000D01*
X119775000Y-89635084D01*
X120071454Y-89742226D01*
X120725332Y-89345041D01*
X121186990Y-88815822D01*
X121107723Y-88525000D01*
X119775000Y-88525000D01*
X118025000Y-88525000D01*
X116692277Y-88525000D01*
X116613010Y-88815822D01*
X30825000Y-88815822D01*
X30825000Y-87351022D01*
X121900000Y-87351022D01*
X121900000Y-88448978D01*
X122052241Y-89214345D01*
X122485786Y-89863192D01*
X123134633Y-90296737D01*
X123900000Y-90448978D01*
X124665367Y-90296737D01*
X125314214Y-89863192D01*
X125747759Y-89214345D01*
X125900000Y-88448978D01*
X125900000Y-87351022D01*
X125747759Y-86585655D01*
X125314214Y-85936808D01*
X124665367Y-85503263D01*
X123900000Y-85351022D01*
X123134633Y-85503263D01*
X122485786Y-85936808D01*
X122052241Y-86585655D01*
X121900000Y-87351022D01*
X30825000Y-87351022D01*
X30825000Y-86984178D01*
X116613010Y-86984178D01*
X116692277Y-87275000D01*
X118025000Y-87275000D01*
X118025000Y-86164916D01*
X119775000Y-86164916D01*
X119775000Y-87275000D01*
X121107723Y-87275000D01*
X121186990Y-86984178D01*
X120725332Y-86454959D01*
X120071454Y-86057774D01*
X119775000Y-86164916D01*
X118025000Y-86164916D01*
X117728546Y-86057774D01*
X117074668Y-86454959D01*
X116613010Y-86984178D01*
X30825000Y-86984178D01*
X30825000Y-83365715D01*
X125650000Y-83365715D01*
X125650000Y-83434285D01*
X125783211Y-84103981D01*
X126162563Y-84671722D01*
X126730304Y-85051074D01*
X127400000Y-85184285D01*
X128069696Y-85051074D01*
X128637437Y-84671722D01*
X129016789Y-84103981D01*
X129150000Y-83434285D01*
X129150000Y-83365715D01*
X129016789Y-82696019D01*
X128637437Y-82128278D01*
X128069696Y-81748926D01*
X127400000Y-81615715D01*
X126730304Y-81748926D01*
X126162563Y-82128278D01*
X125783211Y-82696019D01*
X125650000Y-83365715D01*
X30825000Y-83365715D01*
X30825000Y-80006961D01*
X123933699Y-80006961D01*
X124127361Y-80281784D01*
X125021149Y-80371592D01*
X125472639Y-80281784D01*
X125666301Y-80006961D01*
X124800000Y-79140660D01*
X123933699Y-80006961D01*
X30825000Y-80006961D01*
X30825000Y-78301149D01*
X122508408Y-78301149D01*
X122598216Y-78752639D01*
X122873039Y-78946301D01*
X123739340Y-78080000D01*
X125860660Y-78080000D01*
X126726961Y-78946301D01*
X127001784Y-78752639D01*
X127091592Y-77858851D01*
X127001784Y-77407361D01*
X126726961Y-77213699D01*
X125860660Y-78080000D01*
X123739340Y-78080000D01*
X122873039Y-77213699D01*
X122598216Y-77407361D01*
X122508408Y-78301149D01*
X30825000Y-78301149D01*
X30825000Y-73200000D01*
X34535307Y-73200000D01*
X34535307Y-76200000D01*
X34587604Y-76477933D01*
X34751862Y-76733198D01*
X35002492Y-76904446D01*
X35300000Y-76964693D01*
X38300000Y-76964693D01*
X38577933Y-76912396D01*
X38833198Y-76748138D01*
X39004446Y-76497508D01*
X39064693Y-76200000D01*
X39064693Y-76153039D01*
X123933699Y-76153039D01*
X124800000Y-77019340D01*
X125666301Y-76153039D01*
X125472639Y-75878216D01*
X124578851Y-75788408D01*
X124127361Y-75878216D01*
X123933699Y-76153039D01*
X39064693Y-76153039D01*
X39064693Y-73200000D01*
X39012396Y-72922067D01*
X38848138Y-72666802D01*
X38597508Y-72495554D01*
X38300000Y-72435307D01*
X35300000Y-72435307D01*
X35022067Y-72487604D01*
X34766802Y-72651862D01*
X34595554Y-72902492D01*
X34535307Y-73200000D01*
X30825000Y-73200000D01*
X30825000Y-71546961D01*
X35933699Y-71546961D01*
X36127361Y-71821784D01*
X37021149Y-71911592D01*
X37472639Y-71821784D01*
X37666301Y-71546961D01*
X36800000Y-70680660D01*
X35933699Y-71546961D01*
X30825000Y-71546961D01*
X30825000Y-69841149D01*
X34508408Y-69841149D01*
X34598216Y-70292639D01*
X34873039Y-70486301D01*
X35739340Y-69620000D01*
X37860660Y-69620000D01*
X38726961Y-70486301D01*
X39001784Y-70292639D01*
X39091592Y-69398851D01*
X39013640Y-69006961D01*
X58149732Y-69006961D01*
X58385208Y-69576857D01*
X58820849Y-70013260D01*
X59390333Y-70249730D01*
X60006961Y-70250268D01*
X60576857Y-70014792D01*
X61013260Y-69579151D01*
X61249730Y-69009667D01*
X61250268Y-68393039D01*
X61014792Y-67823143D01*
X60579151Y-67386740D01*
X60009667Y-67150270D01*
X59393039Y-67149732D01*
X58823143Y-67385208D01*
X58386740Y-67820849D01*
X58150270Y-68390333D01*
X58149732Y-69006961D01*
X39013640Y-69006961D01*
X39001784Y-68947361D01*
X38726961Y-68753699D01*
X37860660Y-69620000D01*
X35739340Y-69620000D01*
X34873039Y-68753699D01*
X34598216Y-68947361D01*
X34508408Y-69841149D01*
X30825000Y-69841149D01*
X30825000Y-67693039D01*
X35933699Y-67693039D01*
X36800000Y-68559340D01*
X37666301Y-67693039D01*
X37472639Y-67418216D01*
X36578851Y-67328408D01*
X36127361Y-67418216D01*
X35933699Y-67693039D01*
X30825000Y-67693039D01*
X30825000Y-64400000D01*
X47199634Y-64400000D01*
X47317621Y-64993159D01*
X47653618Y-65496016D01*
X48156475Y-65832013D01*
X48749634Y-65950000D01*
X48810366Y-65950000D01*
X49403525Y-65832013D01*
X49906382Y-65496016D01*
X50242379Y-64993159D01*
X50299307Y-64706961D01*
X54849732Y-64706961D01*
X55085208Y-65276857D01*
X55520849Y-65713260D01*
X56090333Y-65949730D01*
X56706961Y-65950268D01*
X57276857Y-65714792D01*
X57713260Y-65279151D01*
X57737821Y-65220000D01*
X67868654Y-65220000D01*
X67990447Y-65832293D01*
X68337283Y-66351371D01*
X68544756Y-66490000D01*
X68337283Y-66628629D01*
X67990447Y-67147707D01*
X67868654Y-67760000D01*
X67990447Y-68372293D01*
X68275891Y-68799491D01*
X68116802Y-68901862D01*
X67945554Y-69152492D01*
X67885307Y-69450000D01*
X67885307Y-71150000D01*
X67937604Y-71427933D01*
X68101862Y-71683198D01*
X68352492Y-71854446D01*
X68650000Y-71914693D01*
X70350000Y-71914693D01*
X70627933Y-71862396D01*
X70883198Y-71698138D01*
X71018579Y-71500000D01*
X122535307Y-71500000D01*
X122535307Y-74500000D01*
X122587604Y-74777933D01*
X122751862Y-75033198D01*
X123002492Y-75204446D01*
X123300000Y-75264693D01*
X126300000Y-75264693D01*
X126577933Y-75212396D01*
X126833198Y-75048138D01*
X127004446Y-74797508D01*
X127064693Y-74500000D01*
X127064693Y-71500000D01*
X127012396Y-71222067D01*
X126848138Y-70966802D01*
X126597508Y-70795554D01*
X126300000Y-70735307D01*
X123300000Y-70735307D01*
X123022067Y-70787604D01*
X122766802Y-70951862D01*
X122595554Y-71202492D01*
X122535307Y-71500000D01*
X71018579Y-71500000D01*
X71054446Y-71447508D01*
X71114693Y-71150000D01*
X71114693Y-69450000D01*
X71062396Y-69172067D01*
X70898138Y-68916802D01*
X70724842Y-68798394D01*
X71009553Y-68372293D01*
X71131346Y-67760000D01*
X71009553Y-67147707D01*
X70662717Y-66628629D01*
X70455244Y-66490000D01*
X70662717Y-66351371D01*
X71009553Y-65832293D01*
X71131346Y-65220000D01*
X71009553Y-64607707D01*
X70662717Y-64088629D01*
X70143639Y-63741793D01*
X69531346Y-63620000D01*
X69468654Y-63620000D01*
X68856361Y-63741793D01*
X68337283Y-64088629D01*
X67990447Y-64607707D01*
X67868654Y-65220000D01*
X57737821Y-65220000D01*
X57949730Y-64709667D01*
X57950268Y-64093039D01*
X57714792Y-63523143D01*
X57279151Y-63086740D01*
X56709667Y-62850270D01*
X56093039Y-62849732D01*
X55523143Y-63085208D01*
X55086740Y-63520849D01*
X54850270Y-64090333D01*
X54849732Y-64706961D01*
X50299307Y-64706961D01*
X50360366Y-64400000D01*
X50242379Y-63806841D01*
X49906382Y-63303984D01*
X49403525Y-62967987D01*
X48810366Y-62850000D01*
X48749634Y-62850000D01*
X48156475Y-62967987D01*
X47653618Y-63303984D01*
X47317621Y-63806841D01*
X47199634Y-64400000D01*
X30825000Y-64400000D01*
X30825000Y-61049634D01*
X58150000Y-61049634D01*
X58150000Y-61110366D01*
X58267987Y-61703525D01*
X58603984Y-62206382D01*
X59106841Y-62542379D01*
X59700000Y-62660366D01*
X60293159Y-62542379D01*
X60796016Y-62206382D01*
X61132013Y-61703525D01*
X61250000Y-61110366D01*
X61250000Y-61049634D01*
X61132013Y-60456475D01*
X61032767Y-60307942D01*
X71949818Y-60307942D01*
X72109334Y-60694000D01*
X72404446Y-60989628D01*
X72790226Y-61149818D01*
X73207942Y-61150182D01*
X73594000Y-60990666D01*
X73889628Y-60695554D01*
X74048711Y-60312440D01*
X74154589Y-60153983D01*
X74225000Y-59800000D01*
X74225000Y-56860069D01*
X74289628Y-56795554D01*
X74449818Y-56409774D01*
X74450182Y-55992058D01*
X74290666Y-55606000D01*
X73995554Y-55310372D01*
X73609774Y-55150182D01*
X73192058Y-55149818D01*
X72806000Y-55309334D01*
X72510372Y-55604446D01*
X72350182Y-55990226D01*
X72349818Y-56407942D01*
X72375000Y-56468887D01*
X72375000Y-59240280D01*
X72110372Y-59504446D01*
X71950182Y-59890226D01*
X71949818Y-60307942D01*
X61032767Y-60307942D01*
X60796016Y-59953618D01*
X60293159Y-59617621D01*
X59700000Y-59499634D01*
X59106841Y-59617621D01*
X58603984Y-59953618D01*
X58267987Y-60456475D01*
X58150000Y-61049634D01*
X30825000Y-61049634D01*
X30825000Y-52600000D01*
X34535307Y-52600000D01*
X34535307Y-55600000D01*
X34587604Y-55877933D01*
X34751862Y-56133198D01*
X35002492Y-56304446D01*
X35300000Y-56364693D01*
X38300000Y-56364693D01*
X38577933Y-56312396D01*
X38597196Y-56300000D01*
X56299634Y-56300000D01*
X56417621Y-56893159D01*
X56753618Y-57396016D01*
X57256475Y-57732013D01*
X57849634Y-57850000D01*
X57910366Y-57850000D01*
X58503525Y-57732013D01*
X59006382Y-57396016D01*
X59342379Y-56893159D01*
X59399307Y-56606961D01*
X63949732Y-56606961D01*
X64185208Y-57176857D01*
X64620849Y-57613260D01*
X65190333Y-57849730D01*
X65806961Y-57850268D01*
X66376857Y-57614792D01*
X66813260Y-57179151D01*
X67049730Y-56609667D01*
X67050268Y-55993039D01*
X66814792Y-55423143D01*
X66379151Y-54986740D01*
X65809667Y-54750270D01*
X65193039Y-54749732D01*
X64623143Y-54985208D01*
X64186740Y-55420849D01*
X63950270Y-55990333D01*
X63949732Y-56606961D01*
X59399307Y-56606961D01*
X59460366Y-56300000D01*
X59342379Y-55706841D01*
X59006382Y-55203984D01*
X58503525Y-54867987D01*
X57910366Y-54750000D01*
X57849634Y-54750000D01*
X57256475Y-54867987D01*
X56753618Y-55203984D01*
X56417621Y-55706841D01*
X56299634Y-56300000D01*
X38597196Y-56300000D01*
X38833198Y-56148138D01*
X39004446Y-55897508D01*
X39064693Y-55600000D01*
X39064693Y-53520000D01*
X67768654Y-53520000D01*
X67890447Y-54132293D01*
X68237283Y-54651371D01*
X68444756Y-54790000D01*
X68237283Y-54928629D01*
X67890447Y-55447707D01*
X67768654Y-56060000D01*
X67890447Y-56672293D01*
X68175891Y-57099491D01*
X68016802Y-57201862D01*
X67845554Y-57452492D01*
X67785307Y-57750000D01*
X67785307Y-59450000D01*
X67837604Y-59727933D01*
X68001862Y-59983198D01*
X68252492Y-60154446D01*
X68550000Y-60214693D01*
X70250000Y-60214693D01*
X70527933Y-60162396D01*
X70783198Y-59998138D01*
X70954446Y-59747508D01*
X71014693Y-59450000D01*
X71014693Y-57750000D01*
X70962396Y-57472067D01*
X70798138Y-57216802D01*
X70624842Y-57098394D01*
X70909553Y-56672293D01*
X71031346Y-56060000D01*
X70909553Y-55447707D01*
X70562717Y-54928629D01*
X70355244Y-54790000D01*
X70562717Y-54651371D01*
X70909553Y-54132293D01*
X71031346Y-53520000D01*
X70909553Y-52907707D01*
X70562717Y-52388629D01*
X70043639Y-52041793D01*
X69431346Y-51920000D01*
X69368654Y-51920000D01*
X68756361Y-52041793D01*
X68237283Y-52388629D01*
X67890447Y-52907707D01*
X67768654Y-53520000D01*
X39064693Y-53520000D01*
X39064693Y-52600000D01*
X39012396Y-52322067D01*
X38848138Y-52066802D01*
X38597508Y-51895554D01*
X38300000Y-51835307D01*
X35300000Y-51835307D01*
X35022067Y-51887604D01*
X34766802Y-52051862D01*
X34595554Y-52302492D01*
X34535307Y-52600000D01*
X30825000Y-52600000D01*
X30825000Y-50946961D01*
X35933699Y-50946961D01*
X36127361Y-51221784D01*
X37021149Y-51311592D01*
X37472639Y-51221784D01*
X37666301Y-50946961D01*
X36800000Y-50080660D01*
X35933699Y-50946961D01*
X30825000Y-50946961D01*
X30825000Y-49241149D01*
X34508408Y-49241149D01*
X34598216Y-49692639D01*
X34873039Y-49886301D01*
X35739340Y-49020000D01*
X37860660Y-49020000D01*
X38726961Y-49886301D01*
X39001784Y-49692639D01*
X39052326Y-49189634D01*
X53050000Y-49189634D01*
X53050000Y-49250366D01*
X53167987Y-49843525D01*
X53503984Y-50346382D01*
X54006841Y-50682379D01*
X54600000Y-50800366D01*
X55193159Y-50682379D01*
X55696016Y-50346382D01*
X56032013Y-49843525D01*
X56150000Y-49250366D01*
X56150000Y-49189634D01*
X56032013Y-48596475D01*
X55696016Y-48093618D01*
X55193159Y-47757621D01*
X54600000Y-47639634D01*
X54006841Y-47757621D01*
X53503984Y-48093618D01*
X53167987Y-48596475D01*
X53050000Y-49189634D01*
X39052326Y-49189634D01*
X39091592Y-48798851D01*
X39001784Y-48347361D01*
X38726961Y-48153699D01*
X37860660Y-49020000D01*
X35739340Y-49020000D01*
X34873039Y-48153699D01*
X34598216Y-48347361D01*
X34508408Y-49241149D01*
X30825000Y-49241149D01*
X30825000Y-47093039D01*
X35933699Y-47093039D01*
X36800000Y-47959340D01*
X37666301Y-47093039D01*
X37472639Y-46818216D01*
X36578851Y-46728408D01*
X36127361Y-46818216D01*
X35933699Y-47093039D01*
X30825000Y-47093039D01*
X30825000Y-41906961D01*
X53049732Y-41906961D01*
X53285208Y-42476857D01*
X53720849Y-42913260D01*
X54290333Y-43149730D01*
X54906961Y-43150268D01*
X55476857Y-42914792D01*
X55913260Y-42479151D01*
X56149730Y-41909667D01*
X56150268Y-41293039D01*
X55914792Y-40723143D01*
X55479151Y-40286740D01*
X54909667Y-40050270D01*
X54293039Y-40049732D01*
X53723143Y-40285208D01*
X53286740Y-40720849D01*
X53050270Y-41290333D01*
X53049732Y-41906961D01*
X30825000Y-41906961D01*
X30825000Y-34758981D01*
X31422066Y-35357090D01*
X32444198Y-35781516D01*
X33550946Y-35782482D01*
X33733459Y-35707069D01*
X106025161Y-35707069D01*
X106841235Y-36523143D01*
X106720630Y-36643537D01*
X106490262Y-37198325D01*
X106489738Y-37799040D01*
X106719138Y-38354229D01*
X107143537Y-38779370D01*
X107698325Y-39009738D01*
X108299040Y-39010262D01*
X108854229Y-38780862D01*
X109270353Y-38365464D01*
X109683537Y-38779370D01*
X110238325Y-39009738D01*
X110839040Y-39010262D01*
X111394229Y-38780862D01*
X111819370Y-38356463D01*
X112049738Y-37801675D01*
X112050262Y-37200960D01*
X111820862Y-36645771D01*
X111675464Y-36500118D01*
X111819370Y-36356463D01*
X112049738Y-35801675D01*
X112050262Y-35200960D01*
X111820862Y-34645771D01*
X111753503Y-34578294D01*
X114446301Y-34578294D01*
X114616679Y-34847597D01*
X115449992Y-34941748D01*
X115923321Y-34847597D01*
X116093699Y-34578294D01*
X115270000Y-33754594D01*
X114446301Y-34578294D01*
X111753503Y-34578294D01*
X111396463Y-34220630D01*
X110841675Y-33990262D01*
X110240960Y-33989738D01*
X109685771Y-34219138D01*
X109260630Y-34643537D01*
X109166022Y-34871379D01*
X108537401Y-35500000D01*
X108806102Y-35768701D01*
X108501546Y-36073256D01*
X108301675Y-35990262D01*
X107700960Y-35989738D01*
X107498564Y-36073366D01*
X107193899Y-35768701D01*
X107462599Y-35500000D01*
X106809233Y-34846634D01*
X106562821Y-34925534D01*
X106507089Y-35225141D01*
X106025161Y-35707069D01*
X33733459Y-35707069D01*
X34573818Y-35359840D01*
X35356729Y-34578294D01*
X102446301Y-34578294D01*
X102616679Y-34847597D01*
X103449992Y-34941748D01*
X103923321Y-34847597D01*
X104093699Y-34578294D01*
X103824639Y-34309233D01*
X107346634Y-34309233D01*
X108000000Y-34962599D01*
X108653366Y-34309233D01*
X108574466Y-34062821D01*
X107980753Y-33952381D01*
X107425534Y-34062821D01*
X107346634Y-34309233D01*
X103824639Y-34309233D01*
X103270000Y-33754594D01*
X102446301Y-34578294D01*
X35356729Y-34578294D01*
X35357090Y-34577934D01*
X35781516Y-33555802D01*
X35782018Y-32979992D01*
X101128252Y-32979992D01*
X101222403Y-33453321D01*
X101491706Y-33623699D01*
X102315406Y-32800000D01*
X104224594Y-32800000D01*
X105048294Y-33623699D01*
X105317597Y-33453321D01*
X105371075Y-32979992D01*
X113128252Y-32979992D01*
X113222403Y-33453321D01*
X113491706Y-33623699D01*
X114315406Y-32800000D01*
X116224594Y-32800000D01*
X117048294Y-33623699D01*
X117317597Y-33453321D01*
X117411748Y-32620008D01*
X117317597Y-32146679D01*
X117048294Y-31976301D01*
X116224594Y-32800000D01*
X114315406Y-32800000D01*
X113491706Y-31976301D01*
X113222403Y-32146679D01*
X113128252Y-32979992D01*
X105371075Y-32979992D01*
X105411748Y-32620008D01*
X105317597Y-32146679D01*
X105048294Y-31976301D01*
X104224594Y-32800000D01*
X102315406Y-32800000D01*
X101491706Y-31976301D01*
X101222403Y-32146679D01*
X101128252Y-32979992D01*
X35782018Y-32979992D01*
X35782482Y-32449054D01*
X35359840Y-31426182D01*
X34759706Y-30825000D01*
X102570750Y-30825000D01*
X102446301Y-31021706D01*
M02*
