G04 #@! TF.FileFunction,Copper,L1,Top,Signal*
%FSLAX46Y46*%
G04 Gerber Fmt 4.6, Leading zero omitted, Abs format (unit mm)*
G04 Created by KiCad (PCBNEW 4.0.7) date 12/28/20 23:57:47*
%MOMM*%
%LPD*%
G01*
G04 APERTURE LIST*
%ADD10C,0.100000*%
%ADD11R,2.000000X1.600000*%
%ADD12R,1.600000X2.000000*%
%ADD13R,1.250000X1.500000*%
%ADD14R,1.500000X1.250000*%
%ADD15C,1.600000*%
%ADD16R,1.300000X1.500000*%
%ADD17C,1.520000*%
%ADD18C,2.700000*%
%ADD19R,3.000000X3.000000*%
%ADD20C,3.000000*%
%ADD21R,0.800000X0.900000*%
%ADD22R,1.500000X1.300000*%
%ADD23O,1.600000X1.600000*%
%ADD24R,2.000000X3.800000*%
%ADD25R,2.000000X1.500000*%
%ADD26R,0.450000X1.750000*%
%ADD27R,0.600000X1.550000*%
%ADD28R,2.100000X1.800000*%
%ADD29O,2.500000X3.500000*%
%ADD30O,3.500000X2.500000*%
%ADD31R,1.550000X0.600000*%
%ADD32R,1.700000X1.700000*%
%ADD33O,1.700000X1.700000*%
%ADD34C,4.064000*%
%ADD35C,0.600000*%
%ADD36C,0.350000*%
%ADD37C,0.500000*%
%ADD38C,1.000000*%
%ADD39C,0.250000*%
G04 APERTURE END LIST*
D10*
D11*
X97500000Y-33000000D03*
X93500000Y-33000000D03*
D12*
X108500000Y-48000000D03*
X108500000Y-44000000D03*
D13*
X113500000Y-49250000D03*
X113500000Y-46750000D03*
D11*
X42600000Y-48300000D03*
X46600000Y-48300000D03*
X101000000Y-53700000D03*
X97000000Y-53700000D03*
D13*
X104000000Y-65250000D03*
X104000000Y-62750000D03*
D14*
X116750000Y-60000000D03*
X119250000Y-60000000D03*
X119250000Y-64000000D03*
X116750000Y-64000000D03*
D13*
X107500000Y-65250000D03*
X107500000Y-62750000D03*
X116500000Y-67250000D03*
X116500000Y-69750000D03*
X107500000Y-70250000D03*
X107500000Y-67750000D03*
D14*
X79550000Y-114100000D03*
X77050000Y-114100000D03*
D15*
X68800000Y-114200000D03*
X73800000Y-114200000D03*
D13*
X87100000Y-112550000D03*
X87100000Y-110050000D03*
D15*
X90700000Y-114900000D03*
X90700000Y-109900000D03*
D11*
X104300000Y-113200000D03*
X108300000Y-113200000D03*
D13*
X103900000Y-110350000D03*
X103900000Y-107850000D03*
D11*
X110400000Y-116500000D03*
X114400000Y-116500000D03*
D16*
X123500000Y-41150000D03*
X123500000Y-43850000D03*
D17*
X110540000Y-37500000D03*
X108000000Y-37500000D03*
X108000000Y-35500000D03*
X110540000Y-35500000D03*
D18*
X115270000Y-32800000D03*
X103270000Y-32800000D03*
D19*
X124500000Y-99000000D03*
D20*
X124500000Y-104080000D03*
D21*
X118050000Y-50000000D03*
X119950000Y-50000000D03*
X119000000Y-48000000D03*
D22*
X118650000Y-35500000D03*
X121350000Y-35500000D03*
D16*
X112500000Y-43850000D03*
X112500000Y-41150000D03*
X119500000Y-43850000D03*
X119500000Y-41150000D03*
X116000000Y-43850000D03*
X116000000Y-41150000D03*
X118000000Y-55850000D03*
X118000000Y-53150000D03*
D22*
X110150000Y-64000000D03*
X112850000Y-64000000D03*
D16*
X123500000Y-47650000D03*
X123500000Y-50350000D03*
D15*
X68600000Y-105800000D03*
D23*
X76220000Y-105800000D03*
D22*
X70850000Y-109500000D03*
X73550000Y-109500000D03*
D15*
X94600000Y-114900000D03*
D23*
X94600000Y-107280000D03*
D22*
X97750000Y-114600000D03*
X100450000Y-114600000D03*
X79550000Y-105300000D03*
X82250000Y-105300000D03*
D15*
X76600000Y-110000000D03*
D23*
X84220000Y-110000000D03*
D22*
X104350000Y-116400000D03*
X107050000Y-116400000D03*
D24*
X92350000Y-38500000D03*
D25*
X98650000Y-38500000D03*
X98650000Y-36200000D03*
X98650000Y-40800000D03*
D26*
X114225000Y-52400000D03*
X113575000Y-52400000D03*
X112925000Y-52400000D03*
X112275000Y-52400000D03*
X111625000Y-52400000D03*
X110975000Y-52400000D03*
X110325000Y-52400000D03*
X109675000Y-52400000D03*
X109025000Y-52400000D03*
X108375000Y-52400000D03*
X107725000Y-52400000D03*
X107075000Y-52400000D03*
X106425000Y-52400000D03*
X105775000Y-52400000D03*
X105775000Y-59600000D03*
X106425000Y-59600000D03*
X107075000Y-59600000D03*
X107725000Y-59600000D03*
X108375000Y-59600000D03*
X109025000Y-59600000D03*
X109675000Y-59600000D03*
X110325000Y-59600000D03*
X110975000Y-59600000D03*
X111625000Y-59600000D03*
X112275000Y-59600000D03*
X112925000Y-59600000D03*
X113575000Y-59600000D03*
X114225000Y-59600000D03*
D27*
X101605000Y-102200000D03*
X100335000Y-102200000D03*
X99065000Y-102200000D03*
X97795000Y-102200000D03*
X97795000Y-107600000D03*
X99065000Y-107600000D03*
X100335000Y-107600000D03*
X101605000Y-107600000D03*
D28*
X113450000Y-67350000D03*
X110550000Y-67350000D03*
X110550000Y-69650000D03*
X113450000Y-69650000D03*
D29*
X124300000Y-113700000D03*
D30*
X119300000Y-113700000D03*
D14*
X81250000Y-93600000D03*
X78750000Y-93600000D03*
D15*
X70400000Y-93100000D03*
X75400000Y-93100000D03*
D13*
X86700000Y-97050000D03*
X86700000Y-99550000D03*
D15*
X90000000Y-97000000D03*
X90000000Y-102000000D03*
D11*
X110200000Y-99000000D03*
X114200000Y-99000000D03*
D29*
X123900000Y-87900000D03*
D30*
X118900000Y-87900000D03*
D19*
X124800000Y-73000000D03*
D20*
X124800000Y-78080000D03*
D15*
X68600000Y-101500000D03*
D23*
X76220000Y-101500000D03*
D22*
X70850000Y-98200000D03*
X73550000Y-98200000D03*
D15*
X94100000Y-95600000D03*
D23*
X94100000Y-103220000D03*
D22*
X97950000Y-96200000D03*
X100650000Y-96200000D03*
X79650000Y-101400000D03*
X82350000Y-101400000D03*
D15*
X76200000Y-97800000D03*
D23*
X83820000Y-97800000D03*
D22*
X104050000Y-99000000D03*
X106750000Y-99000000D03*
D14*
X88850000Y-105300000D03*
X91350000Y-105300000D03*
X67050000Y-120300000D03*
X69550000Y-120300000D03*
D11*
X60200000Y-124100000D03*
X64200000Y-124100000D03*
D14*
X54350000Y-124100000D03*
X56850000Y-124100000D03*
D15*
X61900000Y-105700000D03*
D23*
X61900000Y-113320000D03*
D16*
X66100000Y-113150000D03*
X66100000Y-110450000D03*
D15*
X77700000Y-120500000D03*
D23*
X85320000Y-120500000D03*
D22*
X74750000Y-120400000D03*
X72050000Y-120400000D03*
X102850000Y-120400000D03*
X100150000Y-120400000D03*
D15*
X97300000Y-120400000D03*
D23*
X89680000Y-120400000D03*
D15*
X97300000Y-123900000D03*
D23*
X89680000Y-123900000D03*
D22*
X102850000Y-124000000D03*
X100150000Y-124000000D03*
D15*
X51000000Y-109500000D03*
D23*
X58620000Y-109500000D03*
D22*
X58450000Y-113500000D03*
X55750000Y-113500000D03*
D31*
X62300000Y-120705000D03*
X62300000Y-119435000D03*
X62300000Y-118165000D03*
X62300000Y-116895000D03*
X56900000Y-116895000D03*
X56900000Y-118165000D03*
X56900000Y-119435000D03*
X56900000Y-120705000D03*
D19*
X36800000Y-54100000D03*
D20*
X36800000Y-49020000D03*
D16*
X114700000Y-110250000D03*
X114700000Y-112950000D03*
D22*
X109750000Y-102100000D03*
X112450000Y-102100000D03*
D14*
X60750000Y-44100000D03*
X58250000Y-44100000D03*
D12*
X50400000Y-42900000D03*
X50400000Y-38900000D03*
D32*
X69400000Y-58600000D03*
D33*
X69400000Y-56060000D03*
X69400000Y-53520000D03*
D22*
X43250000Y-44600000D03*
X45950000Y-44600000D03*
D16*
X60900000Y-49250000D03*
X60900000Y-46550000D03*
X57600000Y-49150000D03*
X57600000Y-46450000D03*
D15*
X54600000Y-41600000D03*
D23*
X54600000Y-49220000D03*
D22*
X60450000Y-53200000D03*
X63150000Y-53200000D03*
D15*
X65500000Y-56300000D03*
D23*
X57880000Y-56300000D03*
D27*
X49895000Y-57300000D03*
X51165000Y-57300000D03*
X52435000Y-57300000D03*
X53705000Y-57300000D03*
X53705000Y-51900000D03*
X52435000Y-51900000D03*
X51165000Y-51900000D03*
X49895000Y-51900000D03*
D14*
X44650000Y-51800000D03*
X47150000Y-51800000D03*
D11*
X43300000Y-69100000D03*
X47300000Y-69100000D03*
D13*
X62700000Y-66150000D03*
X62700000Y-68650000D03*
D19*
X36800000Y-74700000D03*
D20*
X36800000Y-69620000D03*
D32*
X69500000Y-70300000D03*
D33*
X69500000Y-67760000D03*
X69500000Y-65220000D03*
D22*
X42750000Y-65000000D03*
X45450000Y-65000000D03*
D16*
X62700000Y-61250000D03*
X62700000Y-63950000D03*
D22*
X59850000Y-70900000D03*
X62550000Y-70900000D03*
D15*
X59700000Y-68700000D03*
D23*
X59700000Y-61080000D03*
D22*
X49650000Y-61500000D03*
X52350000Y-61500000D03*
D15*
X56400000Y-64400000D03*
D23*
X48780000Y-64400000D03*
D34*
X33000000Y-33000000D03*
X127000000Y-33000000D03*
X127000000Y-127000000D03*
X33000000Y-127000000D03*
D35*
X104700000Y-114700000D03*
X109000000Y-114800000D03*
X43600000Y-53400000D03*
X45700000Y-53100000D03*
X60900000Y-66900000D03*
X64200000Y-65500000D03*
X48800000Y-37900000D03*
X52100000Y-38000000D03*
X62100000Y-42400000D03*
X63000000Y-44000000D03*
X95400000Y-51700000D03*
X96800000Y-55000000D03*
X55300000Y-58100000D03*
X54500000Y-59600000D03*
X108500000Y-103900000D03*
X107700000Y-101700000D03*
X113200000Y-109000000D03*
X55600000Y-118500000D03*
X52900000Y-125400000D03*
X53600000Y-122300000D03*
X66500000Y-124400000D03*
X64100000Y-122000000D03*
X66600000Y-121800000D03*
X66100000Y-118700000D03*
X109300000Y-110800000D03*
X99000000Y-42800000D03*
X100900000Y-41100000D03*
X95300000Y-32900000D03*
X91200000Y-32400000D03*
X81100000Y-95000000D03*
X82900000Y-92700000D03*
X81400000Y-113700000D03*
X81100000Y-115700000D03*
X87500000Y-104900000D03*
X88400000Y-103900000D03*
X96400000Y-101200000D03*
X102600000Y-110100000D03*
X112600000Y-45600000D03*
X119700000Y-46800000D03*
X114000000Y-45200000D03*
X107000000Y-43300000D03*
X108400000Y-41900000D03*
X115300000Y-68600000D03*
X113900000Y-71300000D03*
X116200000Y-71400000D03*
X105900000Y-66300000D03*
X104000000Y-66900000D03*
X108200000Y-54300000D03*
X107600000Y-49700000D03*
X120700000Y-65200000D03*
X120500000Y-61300000D03*
X119600000Y-58600000D03*
X112500000Y-57800000D03*
X111200000Y-57700000D03*
X109700000Y-57700000D03*
X110000000Y-65600000D03*
X105900000Y-67300000D03*
X107300000Y-57700000D03*
X64500000Y-116500000D03*
X63400000Y-115400000D03*
X100300000Y-106000000D03*
X101500000Y-103900000D03*
X73000000Y-60100000D03*
X73400000Y-56200000D03*
D36*
X45450000Y-65000000D02*
X45450000Y-55850000D01*
X47150000Y-54150000D02*
X47150000Y-51800000D01*
X45450000Y-55850000D02*
X47150000Y-54150000D01*
X45950000Y-44600000D02*
X45900000Y-44600000D01*
X45900000Y-44600000D02*
X44800000Y-45700000D01*
X44800000Y-49600000D02*
X47000000Y-51800000D01*
X44800000Y-45700000D02*
X44800000Y-49600000D01*
X47000000Y-51800000D02*
X47150000Y-51800000D01*
X45950000Y-44600000D02*
X45950000Y-44850000D01*
X49895000Y-51900000D02*
X47250000Y-51900000D01*
X47250000Y-51900000D02*
X47150000Y-51800000D01*
D37*
X50400000Y-42900000D02*
X50300000Y-42900000D01*
X50300000Y-42900000D02*
X47900000Y-40500000D01*
X97500000Y-31700000D02*
X97500000Y-33000000D01*
X97000000Y-31200000D02*
X97500000Y-31700000D01*
X52100000Y-31200000D02*
X97000000Y-31200000D01*
X47900000Y-35400000D02*
X52100000Y-31200000D01*
X47900000Y-40500000D02*
X47900000Y-35400000D01*
D36*
X45950000Y-44600000D02*
X45950000Y-44550000D01*
X45950000Y-44550000D02*
X47600000Y-42900000D01*
X47600000Y-42900000D02*
X50400000Y-42900000D01*
D37*
X123500000Y-41150000D02*
X123500000Y-33100000D01*
X123500000Y-33100000D02*
X121000000Y-30600000D01*
X129600000Y-111900000D02*
X129600000Y-112800000D01*
X129600000Y-112800000D02*
X121400000Y-121000000D01*
X129600000Y-111900000D02*
X129600000Y-105100000D01*
X113700000Y-104100000D02*
X122600000Y-95200000D01*
X128700000Y-93800000D02*
X129400000Y-93800000D01*
X127300000Y-95200000D02*
X128700000Y-93800000D01*
X122600000Y-95200000D02*
X127300000Y-95200000D01*
X113700000Y-104100000D02*
X113500000Y-104100000D01*
X113500000Y-104100000D02*
X110300000Y-107300000D01*
X129600000Y-105100000D02*
X129600000Y-104100000D01*
X129600000Y-104100000D02*
X129600000Y-102100000D01*
X129600000Y-102100000D02*
X129400000Y-101900000D01*
D36*
X56900000Y-120705000D02*
X56900000Y-124050000D01*
X56900000Y-124050000D02*
X56850000Y-124100000D01*
D37*
X60200000Y-124100000D02*
X60200000Y-125000000D01*
X110300000Y-121000000D02*
X121400000Y-121000000D01*
X103500000Y-127800000D02*
X110300000Y-121000000D01*
X99000000Y-127800000D02*
X103500000Y-127800000D01*
X97300000Y-126100000D02*
X99000000Y-127800000D01*
X61300000Y-126100000D02*
X97300000Y-126100000D01*
X60200000Y-125000000D02*
X61300000Y-126100000D01*
X109900000Y-114600000D02*
X109200000Y-114600000D01*
X104300000Y-114300000D02*
X104300000Y-113200000D01*
X104700000Y-114700000D02*
X104300000Y-114300000D01*
X109200000Y-114600000D02*
X109000000Y-114800000D01*
X106200000Y-37500000D02*
X106200000Y-32600000D01*
X106200000Y-32600000D02*
X108200000Y-30600000D01*
X108200000Y-30600000D02*
X121000000Y-30600000D01*
X109800000Y-114700000D02*
X109900000Y-114600000D01*
X109900000Y-114600000D02*
X110300000Y-114200000D01*
X110300000Y-114200000D02*
X110300000Y-107300000D01*
X129400000Y-42800000D02*
X127750000Y-41150000D01*
X129400000Y-93800000D02*
X129400000Y-42800000D01*
X129400000Y-101900000D02*
X129400000Y-93800000D01*
X127750000Y-41150000D02*
X123500000Y-41150000D01*
D36*
X104000000Y-113200000D02*
X101605000Y-110805000D01*
X101605000Y-110805000D02*
X101605000Y-107600000D01*
X101605000Y-107600000D02*
X103650000Y-107600000D01*
X103650000Y-107600000D02*
X103900000Y-107850000D01*
X104300000Y-113200000D02*
X104000000Y-113200000D01*
X123900000Y-40750000D02*
X123500000Y-41150000D01*
X108000000Y-37500000D02*
X108000000Y-38700000D01*
X110450000Y-41150000D02*
X112500000Y-41150000D01*
X108000000Y-38700000D02*
X110450000Y-41150000D01*
D38*
X108000000Y-37500000D02*
X106200000Y-37500000D01*
X106200000Y-37500000D02*
X105600000Y-37500000D01*
X105600000Y-37500000D02*
X103500000Y-37500000D01*
X102200000Y-36200000D02*
X98650000Y-36200000D01*
X103500000Y-37500000D02*
X102200000Y-36200000D01*
X97500000Y-33000000D02*
X97500000Y-35050000D01*
X97500000Y-35050000D02*
X98650000Y-36200000D01*
D37*
X60200000Y-124100000D02*
X56850000Y-124100000D01*
X56900000Y-124050000D02*
X56850000Y-124100000D01*
D36*
X56900000Y-120705000D02*
X55305000Y-120705000D01*
X55505000Y-116895000D02*
X56900000Y-116895000D01*
X54800000Y-117600000D02*
X55505000Y-116895000D01*
X54800000Y-120200000D02*
X54800000Y-117600000D01*
X55305000Y-120705000D02*
X54800000Y-120200000D01*
X44650000Y-51800000D02*
X44650000Y-52350000D01*
X44650000Y-52350000D02*
X43600000Y-53400000D01*
X44650000Y-51800000D02*
X44650000Y-52050000D01*
X44650000Y-52050000D02*
X45700000Y-53100000D01*
X62700000Y-66150000D02*
X61650000Y-66150000D01*
X61650000Y-66150000D02*
X60900000Y-66900000D01*
X62700000Y-66150000D02*
X63550000Y-66150000D01*
X63550000Y-66150000D02*
X64200000Y-65500000D01*
X50400000Y-38900000D02*
X49800000Y-38900000D01*
X49800000Y-38900000D02*
X48800000Y-37900000D01*
X50400000Y-38900000D02*
X51200000Y-38900000D01*
X51200000Y-38900000D02*
X52100000Y-38000000D01*
X60750000Y-44100000D02*
X60750000Y-43750000D01*
X60750000Y-43750000D02*
X62100000Y-42400000D01*
X60750000Y-44100000D02*
X62900000Y-44100000D01*
X62900000Y-44100000D02*
X63000000Y-44000000D01*
X97000000Y-53700000D02*
X97000000Y-53300000D01*
X97000000Y-53300000D02*
X95400000Y-51700000D01*
X97000000Y-53700000D02*
X97000000Y-54800000D01*
X97000000Y-54800000D02*
X96800000Y-55000000D01*
X53705000Y-57300000D02*
X54500000Y-57300000D01*
X54500000Y-57300000D02*
X55300000Y-58100000D01*
X53705000Y-57300000D02*
X53705000Y-58805000D01*
X53705000Y-58805000D02*
X54500000Y-59600000D01*
X109750000Y-102100000D02*
X109750000Y-102650000D01*
X109750000Y-102650000D02*
X108500000Y-103900000D01*
X109750000Y-102100000D02*
X108100000Y-102100000D01*
X108100000Y-102100000D02*
X107700000Y-101700000D01*
X114700000Y-110250000D02*
X114450000Y-110250000D01*
X114450000Y-110250000D02*
X113200000Y-109000000D01*
X56900000Y-118165000D02*
X55935000Y-118165000D01*
X55935000Y-118165000D02*
X55600000Y-118500000D01*
X54350000Y-124100000D02*
X54200000Y-124100000D01*
X54200000Y-124100000D02*
X52900000Y-125400000D01*
X54350000Y-124100000D02*
X54350000Y-123050000D01*
X54350000Y-123050000D02*
X53600000Y-122300000D01*
X64200000Y-124100000D02*
X66200000Y-124100000D01*
X66200000Y-124100000D02*
X66500000Y-124400000D01*
X64200000Y-124100000D02*
X64200000Y-122100000D01*
X64200000Y-122100000D02*
X64100000Y-122000000D01*
X67050000Y-120300000D02*
X67050000Y-121350000D01*
X67050000Y-121350000D02*
X66600000Y-121800000D01*
X67050000Y-120300000D02*
X67050000Y-120450000D01*
X67050000Y-120300000D02*
X67050000Y-119650000D01*
X67050000Y-119650000D02*
X66100000Y-118700000D01*
X108300000Y-113200000D02*
X108300000Y-111800000D01*
X108300000Y-111800000D02*
X109300000Y-110800000D01*
X98650000Y-40800000D02*
X98650000Y-42450000D01*
X98650000Y-42450000D02*
X99000000Y-42800000D01*
X98650000Y-40800000D02*
X100600000Y-40800000D01*
X100600000Y-40800000D02*
X100900000Y-41100000D01*
X93500000Y-33000000D02*
X95200000Y-33000000D01*
X95200000Y-33000000D02*
X95300000Y-32900000D01*
X93500000Y-33000000D02*
X91800000Y-33000000D01*
X91800000Y-33000000D02*
X91200000Y-32400000D01*
X81250000Y-93600000D02*
X81250000Y-94850000D01*
X81250000Y-94850000D02*
X81100000Y-95000000D01*
X81250000Y-93600000D02*
X82000000Y-93600000D01*
X82000000Y-93600000D02*
X82900000Y-92700000D01*
X79550000Y-114100000D02*
X81000000Y-114100000D01*
X81000000Y-114100000D02*
X81400000Y-113700000D01*
X79550000Y-114100000D02*
X79550000Y-114150000D01*
X79550000Y-114150000D02*
X81100000Y-115700000D01*
X88850000Y-105300000D02*
X87900000Y-105300000D01*
X87900000Y-105300000D02*
X87500000Y-104900000D01*
X88850000Y-105300000D02*
X88850000Y-104350000D01*
X88850000Y-104350000D02*
X88400000Y-103900000D01*
X97795000Y-102200000D02*
X97400000Y-102200000D01*
X97400000Y-102200000D02*
X96400000Y-101200000D01*
X103900000Y-110350000D02*
X102850000Y-110350000D01*
X102850000Y-110350000D02*
X102600000Y-110100000D01*
X113500000Y-46750000D02*
X113500000Y-46500000D01*
X113500000Y-46500000D02*
X112600000Y-45600000D01*
X119000000Y-48000000D02*
X119000000Y-47500000D01*
X119000000Y-47500000D02*
X119700000Y-46800000D01*
X113500000Y-46750000D02*
X113500000Y-45700000D01*
X113500000Y-45700000D02*
X114000000Y-45200000D01*
X108500000Y-44000000D02*
X107700000Y-44000000D01*
X107700000Y-44000000D02*
X107000000Y-43300000D01*
X108500000Y-44000000D02*
X108500000Y-42000000D01*
X108500000Y-42000000D02*
X108400000Y-41900000D01*
X116500000Y-69750000D02*
X116450000Y-69750000D01*
X116450000Y-69750000D02*
X115300000Y-68600000D01*
X113450000Y-69650000D02*
X113450000Y-70850000D01*
X113450000Y-70850000D02*
X113900000Y-71300000D01*
X116500000Y-69750000D02*
X116500000Y-71100000D01*
X116500000Y-71100000D02*
X116200000Y-71400000D01*
X107500000Y-65250000D02*
X106950000Y-65250000D01*
X106950000Y-65250000D02*
X105900000Y-66300000D01*
X104000000Y-65250000D02*
X104000000Y-66900000D01*
X107725000Y-52400000D02*
X107725000Y-53825000D01*
X107725000Y-53825000D02*
X108200000Y-54300000D01*
X107725000Y-52400000D02*
X107725000Y-50125000D01*
X107725000Y-50125000D02*
X107600000Y-49700000D01*
D39*
X119250000Y-64000000D02*
X119500000Y-64000000D01*
X119500000Y-64000000D02*
X120700000Y-65200000D01*
X119250000Y-60000000D02*
X119250000Y-60050000D01*
X119250000Y-60050000D02*
X120500000Y-61300000D01*
X119250000Y-60000000D02*
X119250000Y-58950000D01*
X119250000Y-58950000D02*
X119600000Y-58600000D01*
X112925000Y-59600000D02*
X112925000Y-58225000D01*
X112925000Y-58225000D02*
X112500000Y-57800000D01*
X111625000Y-59600000D02*
X111625000Y-58125000D01*
X111625000Y-58125000D02*
X111200000Y-57700000D01*
X110325000Y-59600000D02*
X110325000Y-58325000D01*
X110325000Y-58325000D02*
X109700000Y-57700000D01*
X110550000Y-67350000D02*
X110550000Y-66150000D01*
X110550000Y-66150000D02*
X110000000Y-65600000D01*
X107500000Y-67750000D02*
X106350000Y-67750000D01*
X106350000Y-67750000D02*
X105900000Y-67300000D01*
X107725000Y-59600000D02*
X107725000Y-58125000D01*
X107725000Y-58125000D02*
X107300000Y-57700000D01*
D36*
X62300000Y-116895000D02*
X64105000Y-116895000D01*
X64105000Y-116895000D02*
X64500000Y-116500000D01*
X62300000Y-116895000D02*
X62300000Y-116500000D01*
X62300000Y-116500000D02*
X63400000Y-115400000D01*
X108375000Y-52400000D02*
X108375000Y-48125000D01*
X108375000Y-48125000D02*
X108500000Y-48000000D01*
D39*
X108375000Y-48125000D02*
X108500000Y-48000000D01*
D38*
X108500000Y-48000000D02*
X104000000Y-43500000D01*
X102000000Y-39000000D02*
X99150000Y-39000000D01*
X104000000Y-41000000D02*
X102000000Y-39000000D01*
X104000000Y-43500000D02*
X104000000Y-41000000D01*
X99150000Y-39000000D02*
X98650000Y-38500000D01*
X98650000Y-38500000D02*
X92350000Y-38500000D01*
D36*
X112925000Y-52400000D02*
X112925000Y-49825000D01*
X112925000Y-49825000D02*
X113500000Y-49250000D01*
X112500000Y-43850000D02*
X112500000Y-44500000D01*
X112500000Y-44500000D02*
X111800000Y-45200000D01*
X111800000Y-45200000D02*
X111800000Y-47550000D01*
X111800000Y-47550000D02*
X113500000Y-49250000D01*
X43250000Y-44600000D02*
X43250000Y-47650000D01*
X43250000Y-47650000D02*
X42600000Y-48300000D01*
X42600000Y-48300000D02*
X42600000Y-51900000D01*
X40300000Y-54200000D02*
X36800000Y-54100000D01*
X42600000Y-51900000D02*
X40300000Y-54200000D01*
X66100000Y-110450000D02*
X66100000Y-110300000D01*
X66100000Y-110300000D02*
X67450000Y-108950000D01*
X93300000Y-57300000D02*
X95350000Y-59350000D01*
X67750000Y-57650000D02*
X68100000Y-57300000D01*
X68100000Y-57300000D02*
X93300000Y-57300000D01*
X66950000Y-46550000D02*
X60900000Y-46550000D01*
X91400000Y-85500000D02*
X91400000Y-63300000D01*
X95350000Y-59350000D02*
X91400000Y-63300000D01*
X67750000Y-57650000D02*
X67750000Y-55350000D01*
X67750000Y-55350000D02*
X68300000Y-54800000D01*
X68300000Y-54800000D02*
X70500000Y-54800000D01*
X70500000Y-54800000D02*
X71300000Y-54000000D01*
X71300000Y-54000000D02*
X71300000Y-50900000D01*
X71300000Y-50900000D02*
X66950000Y-46550000D01*
X62700000Y-63950000D02*
X64750000Y-63950000D01*
X67100000Y-58300000D02*
X67750000Y-57650000D01*
X67100000Y-61600000D02*
X67100000Y-58300000D01*
X64750000Y-63950000D02*
X67100000Y-61600000D01*
X59700000Y-68700000D02*
X59700000Y-66200000D01*
X61950000Y-63950000D02*
X62700000Y-63950000D01*
X59700000Y-66200000D02*
X61950000Y-63950000D01*
X62700000Y-68650000D02*
X62700000Y-70950000D01*
X62700000Y-68650000D02*
X59750000Y-68650000D01*
X59750000Y-68650000D02*
X59700000Y-68700000D01*
X60900000Y-46550000D02*
X57700000Y-46550000D01*
X57700000Y-46550000D02*
X57600000Y-46450000D01*
X58250000Y-44100000D02*
X58250000Y-45800000D01*
X58250000Y-45800000D02*
X57600000Y-46450000D01*
X54600000Y-41600000D02*
X55750000Y-41600000D01*
X55750000Y-41600000D02*
X58250000Y-44100000D01*
X65000000Y-105600000D02*
X62000000Y-105600000D01*
X62000000Y-105600000D02*
X61900000Y-105700000D01*
X72050000Y-118400000D02*
X75600000Y-118400000D01*
X75600000Y-118400000D02*
X77700000Y-120500000D01*
X72050000Y-120400000D02*
X72050000Y-118400000D01*
X72050000Y-118400000D02*
X72050000Y-111550000D01*
X72050000Y-111550000D02*
X71900000Y-111400000D01*
X72050000Y-120400000D02*
X69650000Y-120400000D01*
X69650000Y-120400000D02*
X69550000Y-120300000D01*
X77700000Y-120500000D02*
X77700000Y-121300000D01*
X91350000Y-105300000D02*
X91350000Y-106050000D01*
X91350000Y-106050000D02*
X90100000Y-107300000D01*
X90100000Y-107300000D02*
X87900000Y-107300000D01*
X87900000Y-107300000D02*
X84500000Y-103900000D01*
X84500000Y-103900000D02*
X74200000Y-103900000D01*
X74200000Y-103900000D02*
X72200000Y-105900000D01*
X72200000Y-105900000D02*
X72200000Y-111100000D01*
X72200000Y-111100000D02*
X71900000Y-111400000D01*
X101000000Y-56600000D02*
X101000000Y-53700000D01*
X100300000Y-57300000D02*
X101000000Y-56600000D01*
X97400000Y-57300000D02*
X100300000Y-57300000D01*
X95350000Y-59350000D02*
X97400000Y-57300000D01*
X71900000Y-111400000D02*
X69900000Y-111400000D01*
X69900000Y-111400000D02*
X67450000Y-108950000D01*
X67450000Y-108950000D02*
X65000000Y-106500000D01*
X65000000Y-106500000D02*
X65000000Y-105600000D01*
X65000000Y-105600000D02*
X65000000Y-91900000D01*
X65000000Y-91900000D02*
X69200000Y-87700000D01*
X69200000Y-87700000D02*
X89200000Y-87700000D01*
X89200000Y-87700000D02*
X91400000Y-85500000D01*
X91350000Y-105300000D02*
X97600000Y-105300000D01*
X97600000Y-105300000D02*
X97950000Y-105650000D01*
X97795000Y-107600000D02*
X97795000Y-105805000D01*
X99065000Y-104535000D02*
X99065000Y-102200000D01*
X97795000Y-105805000D02*
X97950000Y-105650000D01*
X97950000Y-105650000D02*
X99065000Y-104535000D01*
X105775000Y-52400000D02*
X102300000Y-52400000D01*
X102300000Y-52400000D02*
X101000000Y-53700000D01*
X107075000Y-59600000D02*
X107075000Y-61025000D01*
X105350000Y-62750000D02*
X104000000Y-62750000D01*
X107075000Y-61025000D02*
X105350000Y-62750000D01*
X109675000Y-52400000D02*
X109675000Y-50025000D01*
X121350000Y-42350000D02*
X121350000Y-35500000D01*
X121500000Y-42500000D02*
X121350000Y-42350000D01*
X111300000Y-42500000D02*
X121500000Y-42500000D01*
X110500000Y-43300000D02*
X111300000Y-42500000D01*
X110500000Y-49200000D02*
X110500000Y-43300000D01*
X109675000Y-50025000D02*
X110500000Y-49200000D01*
X113575000Y-59600000D02*
X113575000Y-56475000D01*
X109675000Y-54475000D02*
X109675000Y-52400000D01*
X110500000Y-55300000D02*
X109675000Y-54475000D01*
X112400000Y-55300000D02*
X110500000Y-55300000D01*
X113575000Y-56475000D02*
X112400000Y-55300000D01*
X109675000Y-52400000D02*
X109025000Y-52400000D01*
X116750000Y-60000000D02*
X116750000Y-60650000D01*
X113575000Y-60675000D02*
X113575000Y-59600000D01*
X114100000Y-61200000D02*
X113575000Y-60675000D01*
X116200000Y-61200000D02*
X114100000Y-61200000D01*
X116750000Y-60650000D02*
X116200000Y-61200000D01*
D39*
X116750000Y-60000000D02*
X116750000Y-60550000D01*
D36*
X110975000Y-59600000D02*
X110975000Y-61175000D01*
X115500000Y-64000000D02*
X116750000Y-64000000D01*
X113300000Y-61800000D02*
X115500000Y-64000000D01*
X111600000Y-61800000D02*
X113300000Y-61800000D01*
X110975000Y-61175000D02*
X111600000Y-61800000D01*
X108375000Y-59600000D02*
X108375000Y-61875000D01*
X108375000Y-61875000D02*
X107500000Y-62750000D01*
X68600000Y-101500000D02*
X68600000Y-101100000D01*
X68600000Y-101100000D02*
X67400000Y-99900000D01*
X95700000Y-86900000D02*
X95700000Y-64600000D01*
X91900000Y-90700000D02*
X95700000Y-86900000D01*
X70200000Y-90700000D02*
X91900000Y-90700000D01*
X67400000Y-93500000D02*
X70200000Y-90700000D01*
X67400000Y-99900000D02*
X67400000Y-93500000D01*
X106425000Y-59600000D02*
X106425000Y-60775000D01*
X99000000Y-61300000D02*
X95700000Y-64600000D01*
X95700000Y-64600000D02*
X95600000Y-64700000D01*
X105900000Y-61300000D02*
X99000000Y-61300000D01*
X106425000Y-60775000D02*
X105900000Y-61300000D01*
X68600000Y-101500000D02*
X70000000Y-101500000D01*
X70850000Y-100650000D02*
X70850000Y-98200000D01*
X70000000Y-101500000D02*
X70850000Y-100650000D01*
X116500000Y-67250000D02*
X113550000Y-67250000D01*
X113550000Y-67250000D02*
X113450000Y-67350000D01*
X112850000Y-64000000D02*
X112850000Y-66750000D01*
X112850000Y-66750000D02*
X113450000Y-67350000D01*
X109675000Y-59600000D02*
X109675000Y-61375000D01*
X112000000Y-62500000D02*
X112850000Y-63350000D01*
X110800000Y-62500000D02*
X112000000Y-62500000D01*
X109675000Y-61375000D02*
X110800000Y-62500000D01*
X112850000Y-63350000D02*
X112850000Y-64000000D01*
D39*
X116400000Y-67350000D02*
X116500000Y-67250000D01*
X112850000Y-66750000D02*
X113450000Y-67350000D01*
D36*
X107500000Y-70250000D02*
X106950000Y-70250000D01*
X110550000Y-69650000D02*
X108100000Y-69650000D01*
X108100000Y-69650000D02*
X107500000Y-70250000D01*
X110150000Y-64000000D02*
X110150000Y-64050000D01*
X110150000Y-64050000D02*
X108800000Y-65400000D01*
X109250000Y-69650000D02*
X110550000Y-69650000D01*
X108800000Y-69200000D02*
X109250000Y-69650000D01*
X108800000Y-65400000D02*
X108800000Y-69200000D01*
X109025000Y-59600000D02*
X109025000Y-62875000D01*
X109025000Y-62875000D02*
X110150000Y-64000000D01*
D39*
X110150000Y-64000000D02*
X109900000Y-64000000D01*
D36*
X94600000Y-114900000D02*
X97450000Y-114900000D01*
X97450000Y-114900000D02*
X97750000Y-114600000D01*
X97750000Y-114600000D02*
X97750000Y-115550000D01*
X76600000Y-117000000D02*
X73800000Y-114200000D01*
X96300000Y-117000000D02*
X76600000Y-117000000D01*
X97750000Y-115550000D02*
X96300000Y-117000000D01*
X73800000Y-114200000D02*
X73800000Y-109750000D01*
X73800000Y-109750000D02*
X73550000Y-109500000D01*
X77050000Y-114100000D02*
X77050000Y-110450000D01*
X77050000Y-110450000D02*
X76600000Y-110000000D01*
X79550000Y-105300000D02*
X76720000Y-105300000D01*
X76720000Y-105300000D02*
X76220000Y-105800000D01*
X76600000Y-110000000D02*
X76600000Y-106180000D01*
X76600000Y-106180000D02*
X76220000Y-105800000D01*
X73550000Y-109500000D02*
X76100000Y-109500000D01*
X76100000Y-109500000D02*
X76600000Y-110000000D01*
X99065000Y-107600000D02*
X99065000Y-109135000D01*
X99065000Y-109135000D02*
X96900000Y-111300000D01*
X96900000Y-111300000D02*
X94300000Y-111300000D01*
X94300000Y-111300000D02*
X90700000Y-114900000D01*
X90700000Y-114900000D02*
X91500000Y-114900000D01*
X90700000Y-114900000D02*
X88800000Y-114900000D01*
X88800000Y-114900000D02*
X87100000Y-113200000D01*
X87100000Y-113200000D02*
X87100000Y-112550000D01*
X87100000Y-112550000D02*
X85450000Y-112550000D01*
X84220000Y-111320000D02*
X84220000Y-110000000D01*
X85450000Y-112550000D02*
X84220000Y-111320000D01*
X84220000Y-110000000D02*
X83000000Y-110000000D01*
X82250000Y-109250000D02*
X82250000Y-105300000D01*
X83000000Y-110000000D02*
X82250000Y-109250000D01*
X102850000Y-120400000D02*
X102850000Y-119550000D01*
X99200000Y-118500000D02*
X97300000Y-120400000D01*
X101800000Y-118500000D02*
X99200000Y-118500000D01*
X102850000Y-119550000D02*
X101800000Y-118500000D01*
X104350000Y-116400000D02*
X104350000Y-118900000D01*
X104350000Y-118900000D02*
X102850000Y-120400000D01*
X100335000Y-106035000D02*
X100335000Y-107600000D01*
X100300000Y-106000000D02*
X100335000Y-106035000D01*
X104350000Y-116400000D02*
X102250000Y-116400000D01*
X102250000Y-116400000D02*
X100450000Y-114600000D01*
X100335000Y-107600000D02*
X100335000Y-114485000D01*
X100335000Y-114485000D02*
X100450000Y-114600000D01*
X90700000Y-109900000D02*
X90700000Y-108500000D01*
X91920000Y-107280000D02*
X94600000Y-107280000D01*
X90700000Y-108500000D02*
X91920000Y-107280000D01*
X87100000Y-110050000D02*
X90550000Y-110050000D01*
X90550000Y-110050000D02*
X90700000Y-109900000D01*
X110400000Y-116500000D02*
X107150000Y-116500000D01*
X107150000Y-116500000D02*
X107050000Y-116400000D01*
X114700000Y-112950000D02*
X114700000Y-116200000D01*
X114700000Y-116200000D02*
X114400000Y-116500000D01*
D37*
X124500000Y-99000000D02*
X123600000Y-99000000D01*
X123600000Y-99000000D02*
X122100000Y-100500000D01*
X122100000Y-100500000D02*
X122100000Y-111500000D01*
X122100000Y-111500000D02*
X124300000Y-113700000D01*
X114400000Y-116500000D02*
X121500000Y-116500000D01*
X121500000Y-116500000D02*
X124300000Y-113700000D01*
D36*
X123500000Y-47650000D02*
X123500000Y-43850000D01*
X110540000Y-37500000D02*
X113000000Y-37500000D01*
X113000000Y-37500000D02*
X116000000Y-40500000D01*
X116000000Y-40500000D02*
X116000000Y-41150000D01*
X118650000Y-35500000D02*
X110540000Y-35500000D01*
X119500000Y-41150000D02*
X119500000Y-36350000D01*
X119500000Y-36350000D02*
X118650000Y-35500000D01*
X118050000Y-50000000D02*
X118050000Y-53100000D01*
X118050000Y-53100000D02*
X118000000Y-53150000D01*
X123500000Y-50350000D02*
X120300000Y-50350000D01*
X120300000Y-50350000D02*
X119950000Y-50000000D01*
X119500000Y-43850000D02*
X119500000Y-45400000D01*
X115800000Y-52400000D02*
X114225000Y-52400000D01*
X116000000Y-52200000D02*
X115800000Y-52400000D01*
X116000000Y-47200000D02*
X116000000Y-52200000D01*
X116600000Y-46600000D02*
X116000000Y-47200000D01*
X118300000Y-46600000D02*
X116600000Y-46600000D01*
X119500000Y-45400000D02*
X118300000Y-46600000D01*
X113575000Y-52400000D02*
X113575000Y-51325000D01*
X116000000Y-45700000D02*
X116000000Y-43850000D01*
X115100000Y-46600000D02*
X116000000Y-45700000D01*
X115100000Y-50400000D02*
X115100000Y-46600000D01*
X114600000Y-50900000D02*
X115100000Y-50400000D01*
X114000000Y-50900000D02*
X114600000Y-50900000D01*
X113575000Y-51325000D02*
X114000000Y-50900000D01*
X114225000Y-59600000D02*
X114225000Y-58475000D01*
X118000000Y-57600000D02*
X118000000Y-55850000D01*
X117500000Y-58100000D02*
X118000000Y-57600000D01*
X114600000Y-58100000D02*
X117500000Y-58100000D01*
X114225000Y-58475000D02*
X114600000Y-58100000D01*
X66400000Y-103700000D02*
X66500000Y-103700000D01*
X66500000Y-103700000D02*
X68600000Y-105800000D01*
X93500000Y-64600000D02*
X98500000Y-59600000D01*
X98500000Y-59600000D02*
X105775000Y-59600000D01*
X93500000Y-86300000D02*
X93500000Y-64600000D01*
X90400000Y-89400000D02*
X93500000Y-86300000D01*
X70200000Y-89400000D02*
X90400000Y-89400000D01*
X66400000Y-93200000D02*
X70200000Y-89400000D01*
X66400000Y-103700000D02*
X66400000Y-93200000D01*
X70850000Y-109500000D02*
X70850000Y-108050000D01*
X70850000Y-108050000D02*
X68600000Y-105800000D01*
X94100000Y-95600000D02*
X97350000Y-95600000D01*
X97350000Y-95600000D02*
X97950000Y-96200000D01*
X97950000Y-96200000D02*
X97950000Y-95050000D01*
X78100000Y-95900000D02*
X76200000Y-97800000D01*
X81800000Y-95900000D02*
X78100000Y-95900000D01*
X84300000Y-93400000D02*
X81800000Y-95900000D01*
X96300000Y-93400000D02*
X84300000Y-93400000D01*
X97950000Y-95050000D02*
X96300000Y-93400000D01*
X75400000Y-93100000D02*
X78250000Y-93100000D01*
X78250000Y-93100000D02*
X78750000Y-93600000D01*
X76200000Y-97800000D02*
X76200000Y-93900000D01*
X76200000Y-93900000D02*
X75400000Y-93100000D01*
X73550000Y-98200000D02*
X75800000Y-98200000D01*
X75800000Y-98200000D02*
X76200000Y-97800000D01*
X76200000Y-97800000D02*
X76200000Y-101480000D01*
X76200000Y-101480000D02*
X76220000Y-101500000D01*
X76220000Y-101500000D02*
X79550000Y-101500000D01*
X79550000Y-101500000D02*
X79650000Y-101400000D01*
X100335000Y-102200000D02*
X100335000Y-100835000D01*
X91800000Y-98800000D02*
X90000000Y-97000000D01*
X98300000Y-98800000D02*
X91800000Y-98800000D01*
X100335000Y-100835000D02*
X98300000Y-98800000D01*
X86700000Y-97050000D02*
X89950000Y-97050000D01*
X89950000Y-97050000D02*
X90000000Y-97000000D01*
X86700000Y-97050000D02*
X84570000Y-97050000D01*
X84570000Y-97050000D02*
X83820000Y-97800000D01*
X82350000Y-101400000D02*
X82350000Y-99270000D01*
X82350000Y-99270000D02*
X83820000Y-97800000D01*
X102850000Y-124000000D02*
X103900000Y-124000000D01*
X104200000Y-102200000D02*
X101605000Y-102200000D01*
X106200000Y-104200000D02*
X104200000Y-102200000D01*
X106200000Y-114900000D02*
X106200000Y-104200000D01*
X105600000Y-115500000D02*
X106200000Y-114900000D01*
X105600000Y-122300000D02*
X105600000Y-115500000D01*
X103900000Y-124000000D02*
X105600000Y-122300000D01*
X102850000Y-124000000D02*
X102850000Y-125450000D01*
X99600000Y-126200000D02*
X97300000Y-123900000D01*
X102100000Y-126200000D02*
X99600000Y-126200000D01*
X102850000Y-125450000D02*
X102100000Y-126200000D01*
X94100000Y-103220000D02*
X91220000Y-103220000D01*
X91220000Y-103220000D02*
X90000000Y-102000000D01*
X101605000Y-103795000D02*
X101605000Y-102200000D01*
X101500000Y-103900000D02*
X101605000Y-103795000D01*
X101400000Y-100000000D02*
X101600000Y-100000000D01*
X102600000Y-99000000D02*
X104050000Y-99000000D01*
X101600000Y-100000000D02*
X102600000Y-99000000D01*
X101605000Y-102200000D02*
X101605000Y-100205000D01*
X101605000Y-100205000D02*
X101400000Y-100000000D01*
X100650000Y-99250000D02*
X100650000Y-96200000D01*
X101400000Y-100000000D02*
X100650000Y-99250000D01*
X86700000Y-99550000D02*
X87550000Y-99550000D01*
X87550000Y-99550000D02*
X90000000Y-102000000D01*
X110200000Y-99000000D02*
X106750000Y-99000000D01*
X114200000Y-99000000D02*
X114200000Y-100350000D01*
X114200000Y-100350000D02*
X112450000Y-102100000D01*
D37*
X124800000Y-73000000D02*
X124300000Y-73000000D01*
X124300000Y-73000000D02*
X121900000Y-75400000D01*
X121900000Y-75400000D02*
X121900000Y-85900000D01*
X121900000Y-85900000D02*
X123900000Y-87900000D01*
X114200000Y-99000000D02*
X115000000Y-99000000D01*
X115000000Y-99000000D02*
X123900000Y-90100000D01*
X123900000Y-90100000D02*
X123900000Y-87900000D01*
D36*
X60900000Y-49250000D02*
X60900000Y-48600000D01*
X60900000Y-48600000D02*
X60000000Y-47700000D01*
X60000000Y-47700000D02*
X47200000Y-47700000D01*
X47200000Y-47700000D02*
X46600000Y-48300000D01*
X60900000Y-49250000D02*
X60650000Y-49250000D01*
X60650000Y-49250000D02*
X59000000Y-50900000D01*
X59000000Y-50900000D02*
X57700000Y-50900000D01*
X57700000Y-50900000D02*
X56700000Y-51900000D01*
X56700000Y-51900000D02*
X53705000Y-51900000D01*
X47200000Y-47700000D02*
X46600000Y-48300000D01*
X46600000Y-48300000D02*
X47200000Y-48300000D01*
X77000000Y-122000000D02*
X76500000Y-122000000D01*
X63235000Y-118165000D02*
X62300000Y-118165000D01*
X63600000Y-117800000D02*
X63235000Y-118165000D01*
X67300000Y-117800000D02*
X63600000Y-117800000D01*
X68300000Y-118800000D02*
X67300000Y-117800000D01*
X68300000Y-122300000D02*
X68300000Y-118800000D01*
X68500000Y-122500000D02*
X68300000Y-122300000D01*
X76000000Y-122500000D02*
X68500000Y-122500000D01*
X76500000Y-122000000D02*
X76000000Y-122500000D01*
X85320000Y-120500000D02*
X85320000Y-121280000D01*
X85320000Y-121280000D02*
X84600000Y-122000000D01*
X76350000Y-122000000D02*
X74750000Y-120400000D01*
X84600000Y-122000000D02*
X77000000Y-122000000D01*
X77000000Y-122000000D02*
X76350000Y-122000000D01*
X89680000Y-120400000D02*
X85420000Y-120400000D01*
X85420000Y-120400000D02*
X85320000Y-120500000D01*
X89680000Y-120400000D02*
X89400000Y-120400000D01*
X91100000Y-121600000D02*
X91100000Y-122500000D01*
X91100000Y-122500000D02*
X91080000Y-122500000D01*
X100150000Y-124000000D02*
X100150000Y-123450000D01*
X100150000Y-123450000D02*
X99200000Y-122500000D01*
X99200000Y-122500000D02*
X91080000Y-122500000D01*
X91080000Y-122500000D02*
X89680000Y-123900000D01*
X100150000Y-120400000D02*
X100150000Y-120950000D01*
X100150000Y-120950000D02*
X99500000Y-121600000D01*
X99500000Y-121600000D02*
X91100000Y-121600000D01*
X91100000Y-121600000D02*
X90880000Y-121600000D01*
X90880000Y-121600000D02*
X89680000Y-120400000D01*
X55750000Y-113500000D02*
X55750000Y-113550000D01*
X55750000Y-113550000D02*
X57800000Y-115600000D01*
X59705000Y-120705000D02*
X62300000Y-120705000D01*
X59000000Y-120000000D02*
X59705000Y-120705000D01*
X59000000Y-116100000D02*
X59000000Y-120000000D01*
X58500000Y-115600000D02*
X59000000Y-116100000D01*
X57800000Y-115600000D02*
X58500000Y-115600000D01*
X51000000Y-109500000D02*
X53700000Y-109500000D01*
X55750000Y-111550000D02*
X55750000Y-113500000D01*
X53700000Y-109500000D02*
X55750000Y-111550000D01*
X107075000Y-52400000D02*
X107075000Y-50375000D01*
X107075000Y-50375000D02*
X105500000Y-48800000D01*
X105500000Y-48800000D02*
X73800000Y-48800000D01*
X73800000Y-48800000D02*
X72500000Y-50100000D01*
X72500000Y-50100000D02*
X72500000Y-54600000D01*
X72500000Y-54600000D02*
X71040000Y-56060000D01*
X71040000Y-56060000D02*
X69400000Y-56060000D01*
X106425000Y-52400000D02*
X106425000Y-51325000D01*
X72840000Y-67760000D02*
X69500000Y-67760000D01*
X73000000Y-67600000D02*
X72840000Y-67760000D01*
X73000000Y-60100000D02*
X73000000Y-67600000D01*
X73400000Y-55100000D02*
X73400000Y-56200000D01*
X78800000Y-49700000D02*
X73400000Y-55100000D01*
X104800000Y-49700000D02*
X78800000Y-49700000D01*
X106425000Y-51325000D02*
X104800000Y-49700000D01*
X69500000Y-70300000D02*
X87600000Y-70300000D01*
X88400000Y-58600000D02*
X69400000Y-58600000D01*
X89200000Y-59400000D02*
X88400000Y-58600000D01*
X87600000Y-70300000D02*
X89200000Y-71900000D01*
X61900000Y-113320000D02*
X61900000Y-109400000D01*
X89200000Y-83500000D02*
X89200000Y-71900000D01*
X89200000Y-71900000D02*
X89200000Y-59400000D01*
X86600000Y-86100000D02*
X89200000Y-83500000D01*
X67000000Y-86100000D02*
X86600000Y-86100000D01*
X62700000Y-90400000D02*
X67000000Y-86100000D01*
X62700000Y-102600000D02*
X62700000Y-90400000D01*
X59500000Y-105800000D02*
X62700000Y-102600000D01*
X59500000Y-107000000D02*
X59500000Y-105800000D01*
X61900000Y-109400000D02*
X59500000Y-107000000D01*
X62300000Y-119435000D02*
X60835000Y-119435000D01*
X60400000Y-114820000D02*
X61900000Y-113320000D01*
X60400000Y-119000000D02*
X60400000Y-114820000D01*
X60835000Y-119435000D02*
X60400000Y-119000000D01*
X61900000Y-113320000D02*
X58630000Y-113320000D01*
X58630000Y-113320000D02*
X58450000Y-113500000D01*
X58620000Y-109500000D02*
X58620000Y-113330000D01*
X58620000Y-113330000D02*
X58450000Y-113500000D01*
X66100000Y-113150000D02*
X62070000Y-113150000D01*
X62070000Y-113150000D02*
X61900000Y-113320000D01*
X65900000Y-58400000D02*
X66000000Y-58400000D01*
X67980000Y-53520000D02*
X69400000Y-53520000D01*
X66800000Y-54700000D02*
X67980000Y-53520000D01*
X66800000Y-57600000D02*
X66800000Y-54700000D01*
X66000000Y-58400000D02*
X66800000Y-57600000D01*
X69400000Y-53520000D02*
X68780000Y-53520000D01*
X65900000Y-58400000D02*
X59980000Y-58400000D01*
X59980000Y-58400000D02*
X57880000Y-56300000D01*
X51165000Y-51900000D02*
X51165000Y-52965000D01*
X56180000Y-54600000D02*
X57880000Y-56300000D01*
X52800000Y-54600000D02*
X56180000Y-54600000D01*
X51165000Y-52965000D02*
X52800000Y-54600000D01*
X60450000Y-53200000D02*
X60450000Y-53730000D01*
X60450000Y-53730000D02*
X57880000Y-56300000D01*
X60150000Y-53500000D02*
X60450000Y-53200000D01*
X52435000Y-51900000D02*
X52435000Y-52635000D01*
X52435000Y-52635000D02*
X52900000Y-53100000D01*
X61650000Y-51700000D02*
X63150000Y-53200000D01*
X59300000Y-51700000D02*
X61650000Y-51700000D01*
X57900000Y-53100000D02*
X59300000Y-51700000D01*
X52900000Y-53100000D02*
X57900000Y-53100000D01*
X63150000Y-53200000D02*
X63150000Y-53327820D01*
X63150000Y-53327820D02*
X65811090Y-55988910D01*
X65811090Y-55988910D02*
X65500000Y-56300000D01*
X57600000Y-49150000D02*
X54670000Y-49150000D01*
X54670000Y-49150000D02*
X54600000Y-49220000D01*
X52435000Y-51900000D02*
X52435000Y-51385000D01*
X52435000Y-51385000D02*
X54600000Y-49220000D01*
X42750000Y-65000000D02*
X42750000Y-68550000D01*
X42750000Y-68550000D02*
X43300000Y-69100000D01*
X43450000Y-68950000D02*
X43300000Y-69100000D01*
X43300000Y-69100000D02*
X43300000Y-72400000D01*
X41000000Y-74700000D02*
X36800000Y-74700000D01*
X43300000Y-72400000D02*
X41000000Y-74700000D01*
X52435000Y-57300000D02*
X52435000Y-58835000D01*
X61600000Y-59800000D02*
X62700000Y-60500000D01*
X57800000Y-59800000D02*
X61600000Y-59800000D01*
X56300000Y-60900000D02*
X57800000Y-59800000D01*
X54500000Y-60900000D02*
X56300000Y-60900000D01*
X52435000Y-58835000D02*
X54500000Y-60900000D01*
X62700000Y-60500000D02*
X62700000Y-61250000D01*
X47300000Y-69100000D02*
X47300000Y-66800000D01*
X52435000Y-55935000D02*
X52435000Y-57300000D01*
X52100000Y-55600000D02*
X52435000Y-55935000D01*
X48700000Y-55600000D02*
X52100000Y-55600000D01*
X47100000Y-57200000D02*
X48700000Y-55600000D01*
X47100000Y-66600000D02*
X47100000Y-57200000D01*
X47300000Y-66800000D02*
X47100000Y-66600000D01*
X69500000Y-65220000D02*
X66080000Y-65220000D01*
X64800000Y-71600000D02*
X63400000Y-73000000D01*
X66080000Y-65220000D02*
X64800000Y-66500000D01*
X64800000Y-66500000D02*
X64800000Y-71600000D01*
X51600000Y-64400000D02*
X48780000Y-64400000D01*
X52700000Y-65500000D02*
X51600000Y-64400000D01*
X52700000Y-66800000D02*
X52700000Y-65500000D01*
X58900000Y-73000000D02*
X52700000Y-66800000D01*
X63400000Y-73000000D02*
X58900000Y-73000000D01*
X49650000Y-61500000D02*
X49650000Y-63530000D01*
X49650000Y-63530000D02*
X48780000Y-64400000D01*
X49895000Y-57300000D02*
X49895000Y-61255000D01*
X49895000Y-61255000D02*
X49650000Y-61500000D01*
X56400000Y-64400000D02*
X56400000Y-68900000D01*
X58400000Y-70900000D02*
X59850000Y-70900000D01*
X56400000Y-68900000D02*
X58400000Y-70900000D01*
X59700000Y-61080000D02*
X59700000Y-63900000D01*
X59200000Y-64400000D02*
X56400000Y-64400000D01*
X59700000Y-63900000D02*
X59200000Y-64400000D01*
X52350000Y-61500000D02*
X53500000Y-61500000D01*
X53500000Y-61500000D02*
X56400000Y-64400000D01*
X51165000Y-57300000D02*
X51165000Y-60315000D01*
X51165000Y-60315000D02*
X52350000Y-61500000D01*
X52765000Y-61085000D02*
X52350000Y-61500000D01*
D37*
G36*
X47192893Y-34692893D02*
X46976120Y-35017316D01*
X46969619Y-35050000D01*
X46900000Y-35400000D01*
X46900000Y-40500000D01*
X46976120Y-40882684D01*
X47192893Y-41207107D01*
X47960786Y-41975000D01*
X47600000Y-41975000D01*
X47246018Y-42045411D01*
X47047685Y-42177933D01*
X46945926Y-42245926D01*
X46006545Y-43185307D01*
X45200000Y-43185307D01*
X44922067Y-43237604D01*
X44666802Y-43401862D01*
X44600740Y-43498548D01*
X44548138Y-43416802D01*
X44297508Y-43245554D01*
X44000000Y-43185307D01*
X42500000Y-43185307D01*
X42222067Y-43237604D01*
X41966802Y-43401862D01*
X41795554Y-43652492D01*
X41735307Y-43950000D01*
X41735307Y-45250000D01*
X41787604Y-45527933D01*
X41951862Y-45783198D01*
X42202492Y-45954446D01*
X42325000Y-45979255D01*
X42325000Y-46735307D01*
X41600000Y-46735307D01*
X41322067Y-46787604D01*
X41066802Y-46951862D01*
X40895554Y-47202492D01*
X40835307Y-47500000D01*
X40835307Y-49100000D01*
X40887604Y-49377933D01*
X41051862Y-49633198D01*
X41302492Y-49804446D01*
X41600000Y-49864693D01*
X41675000Y-49864693D01*
X41675000Y-51516852D01*
X39927862Y-53263990D01*
X39064693Y-53239328D01*
X39064693Y-52600000D01*
X39012396Y-52322067D01*
X38848138Y-52066802D01*
X38597508Y-51895554D01*
X38300000Y-51835307D01*
X35300000Y-51835307D01*
X35022067Y-51887604D01*
X34766802Y-52051862D01*
X34595554Y-52302492D01*
X34535307Y-52600000D01*
X34535307Y-55600000D01*
X34587604Y-55877933D01*
X34751862Y-56133198D01*
X35002492Y-56304446D01*
X35300000Y-56364693D01*
X38300000Y-56364693D01*
X38577933Y-56312396D01*
X38833198Y-56148138D01*
X39004446Y-55897508D01*
X39064693Y-55600000D01*
X39064693Y-55090083D01*
X40273582Y-55124623D01*
X40286827Y-55122380D01*
X40300000Y-55125000D01*
X40464283Y-55092322D01*
X40629430Y-55064350D01*
X40640806Y-55057210D01*
X40653983Y-55054589D01*
X40793274Y-54961518D01*
X40935127Y-54872487D01*
X40942905Y-54861537D01*
X40954074Y-54854074D01*
X43142000Y-52666148D01*
X43142000Y-53050002D01*
X43453028Y-53050002D01*
X43470627Y-53067601D01*
X43749224Y-53183000D01*
X44085500Y-53183000D01*
X44275000Y-52993500D01*
X44275000Y-52112500D01*
X43900000Y-52112500D01*
X43900000Y-51487500D01*
X44275000Y-51487500D01*
X44275000Y-51175000D01*
X45025000Y-51175000D01*
X45025000Y-51487500D01*
X45379352Y-51487500D01*
X45400000Y-51508148D01*
X45400000Y-52112500D01*
X45025000Y-52112500D01*
X45025000Y-52993500D01*
X45214500Y-53183000D01*
X45550776Y-53183000D01*
X45829373Y-53067601D01*
X45846972Y-53050002D01*
X45986222Y-53050002D01*
X46102492Y-53129446D01*
X46225000Y-53154255D01*
X46225000Y-53766852D01*
X44795926Y-55195926D01*
X44595411Y-55496017D01*
X44563990Y-55653982D01*
X44525000Y-55850000D01*
X44525000Y-63618236D01*
X44422067Y-63637604D01*
X44166802Y-63801862D01*
X44100740Y-63898548D01*
X44048138Y-63816802D01*
X43797508Y-63645554D01*
X43500000Y-63585307D01*
X42000000Y-63585307D01*
X41722067Y-63637604D01*
X41466802Y-63801862D01*
X41295554Y-64052492D01*
X41235307Y-64350000D01*
X41235307Y-65650000D01*
X41287604Y-65927933D01*
X41451862Y-66183198D01*
X41702492Y-66354446D01*
X41825000Y-66379255D01*
X41825000Y-67714413D01*
X41766802Y-67751862D01*
X41595554Y-68002492D01*
X41535307Y-68300000D01*
X41535307Y-69900000D01*
X41587604Y-70177933D01*
X41751862Y-70433198D01*
X42002492Y-70604446D01*
X42300000Y-70664693D01*
X42375000Y-70664693D01*
X42375000Y-72016852D01*
X40616852Y-73775000D01*
X39064693Y-73775000D01*
X39064693Y-73200000D01*
X39012396Y-72922067D01*
X38848138Y-72666802D01*
X38597508Y-72495554D01*
X38300000Y-72435307D01*
X35300000Y-72435307D01*
X35022067Y-72487604D01*
X34766802Y-72651862D01*
X34595554Y-72902492D01*
X34535307Y-73200000D01*
X34535307Y-76200000D01*
X34587604Y-76477933D01*
X34751862Y-76733198D01*
X35002492Y-76904446D01*
X35300000Y-76964693D01*
X38300000Y-76964693D01*
X38577933Y-76912396D01*
X38833198Y-76748138D01*
X39004446Y-76497508D01*
X39064693Y-76200000D01*
X39064693Y-75625000D01*
X41000000Y-75625000D01*
X41353983Y-75554589D01*
X41654074Y-75354074D01*
X43954074Y-73054074D01*
X44154589Y-72753983D01*
X44225000Y-72400000D01*
X44225000Y-70664693D01*
X44300000Y-70664693D01*
X44577933Y-70612396D01*
X44833198Y-70448138D01*
X45004446Y-70197508D01*
X45064693Y-69900000D01*
X45064693Y-68300000D01*
X45012396Y-68022067D01*
X44848138Y-67766802D01*
X44597508Y-67595554D01*
X44300000Y-67535307D01*
X43675000Y-67535307D01*
X43675000Y-66381764D01*
X43777933Y-66362396D01*
X44033198Y-66198138D01*
X44099260Y-66101452D01*
X44151862Y-66183198D01*
X44402492Y-66354446D01*
X44700000Y-66414693D01*
X46175000Y-66414693D01*
X46175000Y-66600000D01*
X46245411Y-66953983D01*
X46375000Y-67147926D01*
X46375000Y-67535307D01*
X46300000Y-67535307D01*
X46022067Y-67587604D01*
X45766802Y-67751862D01*
X45595554Y-68002492D01*
X45535307Y-68300000D01*
X45535307Y-69900000D01*
X45587604Y-70177933D01*
X45751862Y-70433198D01*
X46002492Y-70604446D01*
X46300000Y-70664693D01*
X48300000Y-70664693D01*
X48577933Y-70612396D01*
X48833198Y-70448138D01*
X49004446Y-70197508D01*
X49064693Y-69900000D01*
X49064693Y-68300000D01*
X49012396Y-68022067D01*
X48848138Y-67766802D01*
X48597508Y-67595554D01*
X48300000Y-67535307D01*
X48225000Y-67535307D01*
X48225000Y-66800005D01*
X48225001Y-66800000D01*
X48154589Y-66446018D01*
X48025000Y-66252074D01*
X48025000Y-65744165D01*
X48156475Y-65832013D01*
X48749634Y-65950000D01*
X48810366Y-65950000D01*
X49403525Y-65832013D01*
X49906382Y-65496016D01*
X50020651Y-65325000D01*
X51216852Y-65325000D01*
X51775000Y-65883148D01*
X51775000Y-66800000D01*
X51845411Y-67153983D01*
X52045926Y-67454074D01*
X58245926Y-73654074D01*
X58546017Y-73854589D01*
X58900000Y-73925000D01*
X63400000Y-73925000D01*
X63753983Y-73854589D01*
X64054074Y-73654074D01*
X65454074Y-72254074D01*
X65654589Y-71953983D01*
X65725000Y-71600000D01*
X65725000Y-66883148D01*
X66463148Y-66145000D01*
X68199391Y-66145000D01*
X68337283Y-66351371D01*
X68544756Y-66490000D01*
X68337283Y-66628629D01*
X67990447Y-67147707D01*
X67868654Y-67760000D01*
X67990447Y-68372293D01*
X68275891Y-68799491D01*
X68116802Y-68901862D01*
X67945554Y-69152492D01*
X67885307Y-69450000D01*
X67885307Y-71150000D01*
X67937604Y-71427933D01*
X68101862Y-71683198D01*
X68352492Y-71854446D01*
X68650000Y-71914693D01*
X70350000Y-71914693D01*
X70627933Y-71862396D01*
X70883198Y-71698138D01*
X71054446Y-71447508D01*
X71099505Y-71225000D01*
X87216852Y-71225000D01*
X88275000Y-72283148D01*
X88275000Y-83116852D01*
X86216852Y-85175000D01*
X67000000Y-85175000D01*
X66646017Y-85245411D01*
X66345926Y-85445926D01*
X62045926Y-89745926D01*
X61845411Y-90046017D01*
X61834673Y-90100000D01*
X61775000Y-90400000D01*
X61775000Y-102216853D01*
X58845926Y-105145926D01*
X58645411Y-105446017D01*
X58644416Y-105451018D01*
X58575000Y-105800000D01*
X58575000Y-107000000D01*
X58645411Y-107353983D01*
X58845926Y-107654074D01*
X59292690Y-108100838D01*
X59243525Y-108067987D01*
X58650366Y-107950000D01*
X58589634Y-107950000D01*
X57996475Y-108067987D01*
X57493618Y-108403984D01*
X57157621Y-108906841D01*
X57039634Y-109500000D01*
X57157621Y-110093159D01*
X57493618Y-110596016D01*
X57695000Y-110730575D01*
X57695000Y-112086248D01*
X57422067Y-112137604D01*
X57166802Y-112301862D01*
X57100740Y-112398548D01*
X57048138Y-112316802D01*
X56797508Y-112145554D01*
X56675000Y-112120745D01*
X56675000Y-111550000D01*
X56604589Y-111196018D01*
X56404074Y-110895926D01*
X54354074Y-108845926D01*
X54053983Y-108645411D01*
X53700000Y-108575000D01*
X52266733Y-108575000D01*
X51879151Y-108186740D01*
X51309667Y-107950270D01*
X50693039Y-107949732D01*
X50123143Y-108185208D01*
X49686740Y-108620849D01*
X49450270Y-109190333D01*
X49449732Y-109806961D01*
X49685208Y-110376857D01*
X50120849Y-110813260D01*
X50690333Y-111049730D01*
X51306961Y-111050268D01*
X51876857Y-110814792D01*
X52267331Y-110425000D01*
X53316852Y-110425000D01*
X54825000Y-111933148D01*
X54825000Y-112118236D01*
X54722067Y-112137604D01*
X54466802Y-112301862D01*
X54295554Y-112552492D01*
X54235307Y-112850000D01*
X54235307Y-114150000D01*
X54287604Y-114427933D01*
X54451862Y-114683198D01*
X54702492Y-114854446D01*
X55000000Y-114914693D01*
X55806545Y-114914693D01*
X56722159Y-115830307D01*
X56125000Y-115830307D01*
X55847067Y-115882604D01*
X55711249Y-115970000D01*
X55505005Y-115970000D01*
X55505000Y-115969999D01*
X55151018Y-116040411D01*
X54850926Y-116240926D01*
X54850924Y-116240929D01*
X54145926Y-116945926D01*
X53945411Y-117246017D01*
X53923815Y-117354588D01*
X53875000Y-117600000D01*
X53875000Y-120200000D01*
X53945411Y-120553983D01*
X54145926Y-120854074D01*
X54650926Y-121359074D01*
X54951018Y-121559589D01*
X55305000Y-121630000D01*
X55711219Y-121630000D01*
X55827492Y-121709446D01*
X55975000Y-121739317D01*
X55975000Y-122733828D01*
X55822067Y-122762604D01*
X55686252Y-122849998D01*
X55546972Y-122849998D01*
X55529373Y-122832399D01*
X55250776Y-122717000D01*
X54914500Y-122717000D01*
X54725000Y-122906500D01*
X54725000Y-123787500D01*
X55100000Y-123787500D01*
X55100000Y-124412500D01*
X54725000Y-124412500D01*
X54725000Y-125293500D01*
X54914500Y-125483000D01*
X55250776Y-125483000D01*
X55529373Y-125367601D01*
X55546972Y-125350002D01*
X55686222Y-125350002D01*
X55802492Y-125429446D01*
X56100000Y-125489693D01*
X57600000Y-125489693D01*
X57877933Y-125437396D01*
X58133198Y-125273138D01*
X58251498Y-125100000D01*
X58472940Y-125100000D01*
X58487604Y-125177933D01*
X58651862Y-125433198D01*
X58902492Y-125604446D01*
X59200000Y-125664693D01*
X59464553Y-125664693D01*
X59492893Y-125707107D01*
X60592893Y-126807107D01*
X60917316Y-127023880D01*
X61300000Y-127100000D01*
X96885786Y-127100000D01*
X98292893Y-128507107D01*
X98617316Y-128723880D01*
X99000000Y-128800000D01*
X103500000Y-128800000D01*
X103882684Y-128723880D01*
X104207107Y-128507107D01*
X110714214Y-122000000D01*
X121400000Y-122000000D01*
X121782684Y-121923880D01*
X122107107Y-121707107D01*
X126149694Y-117664520D01*
X126050000Y-118165715D01*
X126050000Y-118234285D01*
X126183211Y-118903981D01*
X126562563Y-119471722D01*
X127130304Y-119851074D01*
X127800000Y-119984285D01*
X128469696Y-119851074D01*
X129037437Y-119471722D01*
X129175000Y-119265844D01*
X129175000Y-125241019D01*
X128577934Y-124642910D01*
X127555802Y-124218484D01*
X126449054Y-124217518D01*
X125426182Y-124640160D01*
X124642910Y-125422066D01*
X124218484Y-126444198D01*
X124217518Y-127550946D01*
X124640160Y-128573818D01*
X125240294Y-129175000D01*
X34758981Y-129175000D01*
X35357090Y-128577934D01*
X35781516Y-127555802D01*
X35782482Y-126449054D01*
X35359840Y-125426182D01*
X34577934Y-124642910D01*
X34479412Y-124602000D01*
X52842000Y-124602000D01*
X52842000Y-124875775D01*
X52957398Y-125154372D01*
X53170627Y-125367601D01*
X53449224Y-125483000D01*
X53785500Y-125483000D01*
X53975000Y-125293500D01*
X53975000Y-124412500D01*
X53031500Y-124412500D01*
X52842000Y-124602000D01*
X34479412Y-124602000D01*
X33555802Y-124218484D01*
X32449054Y-124217518D01*
X31426182Y-124640160D01*
X30825000Y-125240294D01*
X30825000Y-123324225D01*
X52842000Y-123324225D01*
X52842000Y-123598000D01*
X53031500Y-123787500D01*
X53975000Y-123787500D01*
X53975000Y-122906500D01*
X53785500Y-122717000D01*
X53449224Y-122717000D01*
X53170627Y-122832399D01*
X52957398Y-123045628D01*
X52842000Y-123324225D01*
X30825000Y-123324225D01*
X30825000Y-71546961D01*
X35933699Y-71546961D01*
X36127361Y-71821784D01*
X37021149Y-71911592D01*
X37472639Y-71821784D01*
X37666301Y-71546961D01*
X36800000Y-70680660D01*
X35933699Y-71546961D01*
X30825000Y-71546961D01*
X30825000Y-69841149D01*
X34508408Y-69841149D01*
X34598216Y-70292639D01*
X34873039Y-70486301D01*
X35739340Y-69620000D01*
X37860660Y-69620000D01*
X38726961Y-70486301D01*
X39001784Y-70292639D01*
X39091592Y-69398851D01*
X39001784Y-68947361D01*
X38726961Y-68753699D01*
X37860660Y-69620000D01*
X35739340Y-69620000D01*
X34873039Y-68753699D01*
X34598216Y-68947361D01*
X34508408Y-69841149D01*
X30825000Y-69841149D01*
X30825000Y-67693039D01*
X35933699Y-67693039D01*
X36800000Y-68559340D01*
X37666301Y-67693039D01*
X37472639Y-67418216D01*
X36578851Y-67328408D01*
X36127361Y-67418216D01*
X35933699Y-67693039D01*
X30825000Y-67693039D01*
X30825000Y-50946961D01*
X35933699Y-50946961D01*
X36127361Y-51221784D01*
X37021149Y-51311592D01*
X37472639Y-51221784D01*
X37666301Y-50946961D01*
X36800000Y-50080660D01*
X35933699Y-50946961D01*
X30825000Y-50946961D01*
X30825000Y-49241149D01*
X34508408Y-49241149D01*
X34598216Y-49692639D01*
X34873039Y-49886301D01*
X35739340Y-49020000D01*
X37860660Y-49020000D01*
X38726961Y-49886301D01*
X39001784Y-49692639D01*
X39091592Y-48798851D01*
X39001784Y-48347361D01*
X38726961Y-48153699D01*
X37860660Y-49020000D01*
X35739340Y-49020000D01*
X34873039Y-48153699D01*
X34598216Y-48347361D01*
X34508408Y-49241149D01*
X30825000Y-49241149D01*
X30825000Y-47093039D01*
X35933699Y-47093039D01*
X36800000Y-47959340D01*
X37666301Y-47093039D01*
X37472639Y-46818216D01*
X36578851Y-46728408D01*
X36127361Y-46818216D01*
X35933699Y-47093039D01*
X30825000Y-47093039D01*
X30825000Y-34758981D01*
X31422066Y-35357090D01*
X32444198Y-35781516D01*
X33550946Y-35782482D01*
X34573818Y-35359840D01*
X35357090Y-34577934D01*
X35781516Y-33555802D01*
X35782482Y-32449054D01*
X35359840Y-31426182D01*
X34759706Y-30825000D01*
X51060786Y-30825000D01*
X47192893Y-34692893D01*
X47192893Y-34692893D01*
G37*
X47192893Y-34692893D02*
X46976120Y-35017316D01*
X46969619Y-35050000D01*
X46900000Y-35400000D01*
X46900000Y-40500000D01*
X46976120Y-40882684D01*
X47192893Y-41207107D01*
X47960786Y-41975000D01*
X47600000Y-41975000D01*
X47246018Y-42045411D01*
X47047685Y-42177933D01*
X46945926Y-42245926D01*
X46006545Y-43185307D01*
X45200000Y-43185307D01*
X44922067Y-43237604D01*
X44666802Y-43401862D01*
X44600740Y-43498548D01*
X44548138Y-43416802D01*
X44297508Y-43245554D01*
X44000000Y-43185307D01*
X42500000Y-43185307D01*
X42222067Y-43237604D01*
X41966802Y-43401862D01*
X41795554Y-43652492D01*
X41735307Y-43950000D01*
X41735307Y-45250000D01*
X41787604Y-45527933D01*
X41951862Y-45783198D01*
X42202492Y-45954446D01*
X42325000Y-45979255D01*
X42325000Y-46735307D01*
X41600000Y-46735307D01*
X41322067Y-46787604D01*
X41066802Y-46951862D01*
X40895554Y-47202492D01*
X40835307Y-47500000D01*
X40835307Y-49100000D01*
X40887604Y-49377933D01*
X41051862Y-49633198D01*
X41302492Y-49804446D01*
X41600000Y-49864693D01*
X41675000Y-49864693D01*
X41675000Y-51516852D01*
X39927862Y-53263990D01*
X39064693Y-53239328D01*
X39064693Y-52600000D01*
X39012396Y-52322067D01*
X38848138Y-52066802D01*
X38597508Y-51895554D01*
X38300000Y-51835307D01*
X35300000Y-51835307D01*
X35022067Y-51887604D01*
X34766802Y-52051862D01*
X34595554Y-52302492D01*
X34535307Y-52600000D01*
X34535307Y-55600000D01*
X34587604Y-55877933D01*
X34751862Y-56133198D01*
X35002492Y-56304446D01*
X35300000Y-56364693D01*
X38300000Y-56364693D01*
X38577933Y-56312396D01*
X38833198Y-56148138D01*
X39004446Y-55897508D01*
X39064693Y-55600000D01*
X39064693Y-55090083D01*
X40273582Y-55124623D01*
X40286827Y-55122380D01*
X40300000Y-55125000D01*
X40464283Y-55092322D01*
X40629430Y-55064350D01*
X40640806Y-55057210D01*
X40653983Y-55054589D01*
X40793274Y-54961518D01*
X40935127Y-54872487D01*
X40942905Y-54861537D01*
X40954074Y-54854074D01*
X43142000Y-52666148D01*
X43142000Y-53050002D01*
X43453028Y-53050002D01*
X43470627Y-53067601D01*
X43749224Y-53183000D01*
X44085500Y-53183000D01*
X44275000Y-52993500D01*
X44275000Y-52112500D01*
X43900000Y-52112500D01*
X43900000Y-51487500D01*
X44275000Y-51487500D01*
X44275000Y-51175000D01*
X45025000Y-51175000D01*
X45025000Y-51487500D01*
X45379352Y-51487500D01*
X45400000Y-51508148D01*
X45400000Y-52112500D01*
X45025000Y-52112500D01*
X45025000Y-52993500D01*
X45214500Y-53183000D01*
X45550776Y-53183000D01*
X45829373Y-53067601D01*
X45846972Y-53050002D01*
X45986222Y-53050002D01*
X46102492Y-53129446D01*
X46225000Y-53154255D01*
X46225000Y-53766852D01*
X44795926Y-55195926D01*
X44595411Y-55496017D01*
X44563990Y-55653982D01*
X44525000Y-55850000D01*
X44525000Y-63618236D01*
X44422067Y-63637604D01*
X44166802Y-63801862D01*
X44100740Y-63898548D01*
X44048138Y-63816802D01*
X43797508Y-63645554D01*
X43500000Y-63585307D01*
X42000000Y-63585307D01*
X41722067Y-63637604D01*
X41466802Y-63801862D01*
X41295554Y-64052492D01*
X41235307Y-64350000D01*
X41235307Y-65650000D01*
X41287604Y-65927933D01*
X41451862Y-66183198D01*
X41702492Y-66354446D01*
X41825000Y-66379255D01*
X41825000Y-67714413D01*
X41766802Y-67751862D01*
X41595554Y-68002492D01*
X41535307Y-68300000D01*
X41535307Y-69900000D01*
X41587604Y-70177933D01*
X41751862Y-70433198D01*
X42002492Y-70604446D01*
X42300000Y-70664693D01*
X42375000Y-70664693D01*
X42375000Y-72016852D01*
X40616852Y-73775000D01*
X39064693Y-73775000D01*
X39064693Y-73200000D01*
X39012396Y-72922067D01*
X38848138Y-72666802D01*
X38597508Y-72495554D01*
X38300000Y-72435307D01*
X35300000Y-72435307D01*
X35022067Y-72487604D01*
X34766802Y-72651862D01*
X34595554Y-72902492D01*
X34535307Y-73200000D01*
X34535307Y-76200000D01*
X34587604Y-76477933D01*
X34751862Y-76733198D01*
X35002492Y-76904446D01*
X35300000Y-76964693D01*
X38300000Y-76964693D01*
X38577933Y-76912396D01*
X38833198Y-76748138D01*
X39004446Y-76497508D01*
X39064693Y-76200000D01*
X39064693Y-75625000D01*
X41000000Y-75625000D01*
X41353983Y-75554589D01*
X41654074Y-75354074D01*
X43954074Y-73054074D01*
X44154589Y-72753983D01*
X44225000Y-72400000D01*
X44225000Y-70664693D01*
X44300000Y-70664693D01*
X44577933Y-70612396D01*
X44833198Y-70448138D01*
X45004446Y-70197508D01*
X45064693Y-69900000D01*
X45064693Y-68300000D01*
X45012396Y-68022067D01*
X44848138Y-67766802D01*
X44597508Y-67595554D01*
X44300000Y-67535307D01*
X43675000Y-67535307D01*
X43675000Y-66381764D01*
X43777933Y-66362396D01*
X44033198Y-66198138D01*
X44099260Y-66101452D01*
X44151862Y-66183198D01*
X44402492Y-66354446D01*
X44700000Y-66414693D01*
X46175000Y-66414693D01*
X46175000Y-66600000D01*
X46245411Y-66953983D01*
X46375000Y-67147926D01*
X46375000Y-67535307D01*
X46300000Y-67535307D01*
X46022067Y-67587604D01*
X45766802Y-67751862D01*
X45595554Y-68002492D01*
X45535307Y-68300000D01*
X45535307Y-69900000D01*
X45587604Y-70177933D01*
X45751862Y-70433198D01*
X46002492Y-70604446D01*
X46300000Y-70664693D01*
X48300000Y-70664693D01*
X48577933Y-70612396D01*
X48833198Y-70448138D01*
X49004446Y-70197508D01*
X49064693Y-69900000D01*
X49064693Y-68300000D01*
X49012396Y-68022067D01*
X48848138Y-67766802D01*
X48597508Y-67595554D01*
X48300000Y-67535307D01*
X48225000Y-67535307D01*
X48225000Y-66800005D01*
X48225001Y-66800000D01*
X48154589Y-66446018D01*
X48025000Y-66252074D01*
X48025000Y-65744165D01*
X48156475Y-65832013D01*
X48749634Y-65950000D01*
X48810366Y-65950000D01*
X49403525Y-65832013D01*
X49906382Y-65496016D01*
X50020651Y-65325000D01*
X51216852Y-65325000D01*
X51775000Y-65883148D01*
X51775000Y-66800000D01*
X51845411Y-67153983D01*
X52045926Y-67454074D01*
X58245926Y-73654074D01*
X58546017Y-73854589D01*
X58900000Y-73925000D01*
X63400000Y-73925000D01*
X63753983Y-73854589D01*
X64054074Y-73654074D01*
X65454074Y-72254074D01*
X65654589Y-71953983D01*
X65725000Y-71600000D01*
X65725000Y-66883148D01*
X66463148Y-66145000D01*
X68199391Y-66145000D01*
X68337283Y-66351371D01*
X68544756Y-66490000D01*
X68337283Y-66628629D01*
X67990447Y-67147707D01*
X67868654Y-67760000D01*
X67990447Y-68372293D01*
X68275891Y-68799491D01*
X68116802Y-68901862D01*
X67945554Y-69152492D01*
X67885307Y-69450000D01*
X67885307Y-71150000D01*
X67937604Y-71427933D01*
X68101862Y-71683198D01*
X68352492Y-71854446D01*
X68650000Y-71914693D01*
X70350000Y-71914693D01*
X70627933Y-71862396D01*
X70883198Y-71698138D01*
X71054446Y-71447508D01*
X71099505Y-71225000D01*
X87216852Y-71225000D01*
X88275000Y-72283148D01*
X88275000Y-83116852D01*
X86216852Y-85175000D01*
X67000000Y-85175000D01*
X66646017Y-85245411D01*
X66345926Y-85445926D01*
X62045926Y-89745926D01*
X61845411Y-90046017D01*
X61834673Y-90100000D01*
X61775000Y-90400000D01*
X61775000Y-102216853D01*
X58845926Y-105145926D01*
X58645411Y-105446017D01*
X58644416Y-105451018D01*
X58575000Y-105800000D01*
X58575000Y-107000000D01*
X58645411Y-107353983D01*
X58845926Y-107654074D01*
X59292690Y-108100838D01*
X59243525Y-108067987D01*
X58650366Y-107950000D01*
X58589634Y-107950000D01*
X57996475Y-108067987D01*
X57493618Y-108403984D01*
X57157621Y-108906841D01*
X57039634Y-109500000D01*
X57157621Y-110093159D01*
X57493618Y-110596016D01*
X57695000Y-110730575D01*
X57695000Y-112086248D01*
X57422067Y-112137604D01*
X57166802Y-112301862D01*
X57100740Y-112398548D01*
X57048138Y-112316802D01*
X56797508Y-112145554D01*
X56675000Y-112120745D01*
X56675000Y-111550000D01*
X56604589Y-111196018D01*
X56404074Y-110895926D01*
X54354074Y-108845926D01*
X54053983Y-108645411D01*
X53700000Y-108575000D01*
X52266733Y-108575000D01*
X51879151Y-108186740D01*
X51309667Y-107950270D01*
X50693039Y-107949732D01*
X50123143Y-108185208D01*
X49686740Y-108620849D01*
X49450270Y-109190333D01*
X49449732Y-109806961D01*
X49685208Y-110376857D01*
X50120849Y-110813260D01*
X50690333Y-111049730D01*
X51306961Y-111050268D01*
X51876857Y-110814792D01*
X52267331Y-110425000D01*
X53316852Y-110425000D01*
X54825000Y-111933148D01*
X54825000Y-112118236D01*
X54722067Y-112137604D01*
X54466802Y-112301862D01*
X54295554Y-112552492D01*
X54235307Y-112850000D01*
X54235307Y-114150000D01*
X54287604Y-114427933D01*
X54451862Y-114683198D01*
X54702492Y-114854446D01*
X55000000Y-114914693D01*
X55806545Y-114914693D01*
X56722159Y-115830307D01*
X56125000Y-115830307D01*
X55847067Y-115882604D01*
X55711249Y-115970000D01*
X55505005Y-115970000D01*
X55505000Y-115969999D01*
X55151018Y-116040411D01*
X54850926Y-116240926D01*
X54850924Y-116240929D01*
X54145926Y-116945926D01*
X53945411Y-117246017D01*
X53923815Y-117354588D01*
X53875000Y-117600000D01*
X53875000Y-120200000D01*
X53945411Y-120553983D01*
X54145926Y-120854074D01*
X54650926Y-121359074D01*
X54951018Y-121559589D01*
X55305000Y-121630000D01*
X55711219Y-121630000D01*
X55827492Y-121709446D01*
X55975000Y-121739317D01*
X55975000Y-122733828D01*
X55822067Y-122762604D01*
X55686252Y-122849998D01*
X55546972Y-122849998D01*
X55529373Y-122832399D01*
X55250776Y-122717000D01*
X54914500Y-122717000D01*
X54725000Y-122906500D01*
X54725000Y-123787500D01*
X55100000Y-123787500D01*
X55100000Y-124412500D01*
X54725000Y-124412500D01*
X54725000Y-125293500D01*
X54914500Y-125483000D01*
X55250776Y-125483000D01*
X55529373Y-125367601D01*
X55546972Y-125350002D01*
X55686222Y-125350002D01*
X55802492Y-125429446D01*
X56100000Y-125489693D01*
X57600000Y-125489693D01*
X57877933Y-125437396D01*
X58133198Y-125273138D01*
X58251498Y-125100000D01*
X58472940Y-125100000D01*
X58487604Y-125177933D01*
X58651862Y-125433198D01*
X58902492Y-125604446D01*
X59200000Y-125664693D01*
X59464553Y-125664693D01*
X59492893Y-125707107D01*
X60592893Y-126807107D01*
X60917316Y-127023880D01*
X61300000Y-127100000D01*
X96885786Y-127100000D01*
X98292893Y-128507107D01*
X98617316Y-128723880D01*
X99000000Y-128800000D01*
X103500000Y-128800000D01*
X103882684Y-128723880D01*
X104207107Y-128507107D01*
X110714214Y-122000000D01*
X121400000Y-122000000D01*
X121782684Y-121923880D01*
X122107107Y-121707107D01*
X126149694Y-117664520D01*
X126050000Y-118165715D01*
X126050000Y-118234285D01*
X126183211Y-118903981D01*
X126562563Y-119471722D01*
X127130304Y-119851074D01*
X127800000Y-119984285D01*
X128469696Y-119851074D01*
X129037437Y-119471722D01*
X129175000Y-119265844D01*
X129175000Y-125241019D01*
X128577934Y-124642910D01*
X127555802Y-124218484D01*
X126449054Y-124217518D01*
X125426182Y-124640160D01*
X124642910Y-125422066D01*
X124218484Y-126444198D01*
X124217518Y-127550946D01*
X124640160Y-128573818D01*
X125240294Y-129175000D01*
X34758981Y-129175000D01*
X35357090Y-128577934D01*
X35781516Y-127555802D01*
X35782482Y-126449054D01*
X35359840Y-125426182D01*
X34577934Y-124642910D01*
X34479412Y-124602000D01*
X52842000Y-124602000D01*
X52842000Y-124875775D01*
X52957398Y-125154372D01*
X53170627Y-125367601D01*
X53449224Y-125483000D01*
X53785500Y-125483000D01*
X53975000Y-125293500D01*
X53975000Y-124412500D01*
X53031500Y-124412500D01*
X52842000Y-124602000D01*
X34479412Y-124602000D01*
X33555802Y-124218484D01*
X32449054Y-124217518D01*
X31426182Y-124640160D01*
X30825000Y-125240294D01*
X30825000Y-123324225D01*
X52842000Y-123324225D01*
X52842000Y-123598000D01*
X53031500Y-123787500D01*
X53975000Y-123787500D01*
X53975000Y-122906500D01*
X53785500Y-122717000D01*
X53449224Y-122717000D01*
X53170627Y-122832399D01*
X52957398Y-123045628D01*
X52842000Y-123324225D01*
X30825000Y-123324225D01*
X30825000Y-71546961D01*
X35933699Y-71546961D01*
X36127361Y-71821784D01*
X37021149Y-71911592D01*
X37472639Y-71821784D01*
X37666301Y-71546961D01*
X36800000Y-70680660D01*
X35933699Y-71546961D01*
X30825000Y-71546961D01*
X30825000Y-69841149D01*
X34508408Y-69841149D01*
X34598216Y-70292639D01*
X34873039Y-70486301D01*
X35739340Y-69620000D01*
X37860660Y-69620000D01*
X38726961Y-70486301D01*
X39001784Y-70292639D01*
X39091592Y-69398851D01*
X39001784Y-68947361D01*
X38726961Y-68753699D01*
X37860660Y-69620000D01*
X35739340Y-69620000D01*
X34873039Y-68753699D01*
X34598216Y-68947361D01*
X34508408Y-69841149D01*
X30825000Y-69841149D01*
X30825000Y-67693039D01*
X35933699Y-67693039D01*
X36800000Y-68559340D01*
X37666301Y-67693039D01*
X37472639Y-67418216D01*
X36578851Y-67328408D01*
X36127361Y-67418216D01*
X35933699Y-67693039D01*
X30825000Y-67693039D01*
X30825000Y-50946961D01*
X35933699Y-50946961D01*
X36127361Y-51221784D01*
X37021149Y-51311592D01*
X37472639Y-51221784D01*
X37666301Y-50946961D01*
X36800000Y-50080660D01*
X35933699Y-50946961D01*
X30825000Y-50946961D01*
X30825000Y-49241149D01*
X34508408Y-49241149D01*
X34598216Y-49692639D01*
X34873039Y-49886301D01*
X35739340Y-49020000D01*
X37860660Y-49020000D01*
X38726961Y-49886301D01*
X39001784Y-49692639D01*
X39091592Y-48798851D01*
X39001784Y-48347361D01*
X38726961Y-48153699D01*
X37860660Y-49020000D01*
X35739340Y-49020000D01*
X34873039Y-48153699D01*
X34598216Y-48347361D01*
X34508408Y-49241149D01*
X30825000Y-49241149D01*
X30825000Y-47093039D01*
X35933699Y-47093039D01*
X36800000Y-47959340D01*
X37666301Y-47093039D01*
X37472639Y-46818216D01*
X36578851Y-46728408D01*
X36127361Y-46818216D01*
X35933699Y-47093039D01*
X30825000Y-47093039D01*
X30825000Y-34758981D01*
X31422066Y-35357090D01*
X32444198Y-35781516D01*
X33550946Y-35782482D01*
X34573818Y-35359840D01*
X35357090Y-34577934D01*
X35781516Y-33555802D01*
X35782482Y-32449054D01*
X35359840Y-31426182D01*
X34759706Y-30825000D01*
X51060786Y-30825000D01*
X47192893Y-34692893D01*
G36*
X128400000Y-101900000D02*
X128476120Y-102282684D01*
X128600000Y-102468083D01*
X128600000Y-107635992D01*
X128469696Y-107548926D01*
X127800000Y-107415715D01*
X127130304Y-107548926D01*
X126562563Y-107928278D01*
X126183211Y-108496019D01*
X126050000Y-109165715D01*
X126050000Y-109234285D01*
X126183211Y-109903981D01*
X126562563Y-110471722D01*
X127130304Y-110851074D01*
X127800000Y-110984285D01*
X128469696Y-110851074D01*
X128600000Y-110764008D01*
X128600000Y-112385786D01*
X126191539Y-114794247D01*
X126300000Y-114248978D01*
X126300000Y-113151022D01*
X126147759Y-112385655D01*
X125714214Y-111736808D01*
X125065367Y-111303263D01*
X124300000Y-111151022D01*
X123534633Y-111303263D01*
X123404457Y-111390243D01*
X123100000Y-111085786D01*
X123100000Y-105928928D01*
X123759421Y-106588349D01*
X124044198Y-106303572D01*
X124721149Y-106371592D01*
X125172639Y-106281784D01*
X125366301Y-106006961D01*
X124500000Y-105140660D01*
X124132304Y-105508356D01*
X123100000Y-104476052D01*
X123100000Y-104419340D01*
X123439340Y-104080000D01*
X125560660Y-104080000D01*
X126426961Y-104946301D01*
X126701784Y-104752639D01*
X126791592Y-103858851D01*
X126701784Y-103407361D01*
X126426961Y-103213699D01*
X125560660Y-104080000D01*
X123439340Y-104080000D01*
X123100000Y-103740660D01*
X123100000Y-103683948D01*
X124132304Y-102651644D01*
X124500000Y-103019340D01*
X125366301Y-102153039D01*
X125172639Y-101878216D01*
X124278851Y-101788408D01*
X124026395Y-101838625D01*
X123759421Y-101571651D01*
X123100000Y-102231072D01*
X123100000Y-101264693D01*
X126000000Y-101264693D01*
X126277933Y-101212396D01*
X126533198Y-101048138D01*
X126704446Y-100797508D01*
X126764693Y-100500000D01*
X126764693Y-97500000D01*
X126712396Y-97222067D01*
X126548138Y-96966802D01*
X126297508Y-96795554D01*
X126000000Y-96735307D01*
X123000000Y-96735307D01*
X122722067Y-96787604D01*
X122466802Y-96951862D01*
X122295554Y-97202492D01*
X122235307Y-97500000D01*
X122235307Y-98950479D01*
X121392893Y-99792893D01*
X121176120Y-100117316D01*
X121110756Y-100445926D01*
X121100000Y-100500000D01*
X121100000Y-111500000D01*
X121176120Y-111882684D01*
X121392893Y-112207107D01*
X122306107Y-113120321D01*
X122300000Y-113151022D01*
X122300000Y-114248978D01*
X122306107Y-114279679D01*
X121085786Y-115500000D01*
X120550002Y-115500000D01*
X120550002Y-115494514D01*
X121125332Y-115145041D01*
X121586990Y-114615822D01*
X121507723Y-114325000D01*
X120175000Y-114325000D01*
X120175000Y-114950000D01*
X118425000Y-114950000D01*
X118425000Y-114325000D01*
X117092277Y-114325000D01*
X117013010Y-114615822D01*
X117474668Y-115145041D01*
X118049998Y-115494514D01*
X118049998Y-115500000D01*
X116127060Y-115500000D01*
X116112396Y-115422067D01*
X115948138Y-115166802D01*
X115697508Y-114995554D01*
X115625000Y-114980871D01*
X115625000Y-114412948D01*
X115627933Y-114412396D01*
X115883198Y-114248138D01*
X116054446Y-113997508D01*
X116114693Y-113700000D01*
X116114693Y-112784178D01*
X117013010Y-112784178D01*
X117092277Y-113075000D01*
X118425000Y-113075000D01*
X118425000Y-111964916D01*
X120175000Y-111964916D01*
X120175000Y-113075000D01*
X121507723Y-113075000D01*
X121586990Y-112784178D01*
X121125332Y-112254959D01*
X120471454Y-111857774D01*
X120175000Y-111964916D01*
X118425000Y-111964916D01*
X118128546Y-111857774D01*
X117474668Y-112254959D01*
X117013010Y-112784178D01*
X116114693Y-112784178D01*
X116114693Y-112200000D01*
X116062396Y-111922067D01*
X115950002Y-111747401D01*
X115950002Y-111471972D01*
X115992601Y-111429373D01*
X116108000Y-111150776D01*
X116108000Y-110814500D01*
X115918500Y-110625000D01*
X115025000Y-110625000D01*
X115025000Y-111000000D01*
X114375000Y-111000000D01*
X114375000Y-110625000D01*
X113481500Y-110625000D01*
X113292000Y-110814500D01*
X113292000Y-111150776D01*
X113407399Y-111429373D01*
X113449998Y-111471972D01*
X113449998Y-111749633D01*
X113345554Y-111902492D01*
X113285307Y-112200000D01*
X113285307Y-113700000D01*
X113337604Y-113977933D01*
X113501862Y-114233198D01*
X113752492Y-114404446D01*
X113775000Y-114409004D01*
X113775000Y-114935307D01*
X113400000Y-114935307D01*
X113122067Y-114987604D01*
X112866802Y-115151862D01*
X112695554Y-115402492D01*
X112635307Y-115700000D01*
X112635307Y-117300000D01*
X112687604Y-117577933D01*
X112851862Y-117833198D01*
X113102492Y-118004446D01*
X113400000Y-118064693D01*
X115400000Y-118064693D01*
X115677933Y-118012396D01*
X115933198Y-117848138D01*
X116104446Y-117597508D01*
X116124192Y-117500000D01*
X121500000Y-117500000D01*
X121882684Y-117423880D01*
X122207107Y-117207107D01*
X123404457Y-116009757D01*
X123534633Y-116096737D01*
X124300000Y-116248978D01*
X124845269Y-116140517D01*
X120985786Y-120000000D01*
X110300000Y-120000000D01*
X109917317Y-120076120D01*
X109725820Y-120204074D01*
X109592893Y-120292893D01*
X103085786Y-126800000D01*
X102808148Y-126800000D01*
X103504074Y-126104074D01*
X103704589Y-125803983D01*
X103775000Y-125450000D01*
X103775000Y-125381764D01*
X103877933Y-125362396D01*
X104133198Y-125198138D01*
X104304446Y-124947508D01*
X104334104Y-124801054D01*
X104554074Y-124654074D01*
X106254074Y-122954074D01*
X106454589Y-122653983D01*
X106525000Y-122300000D01*
X106525000Y-117814693D01*
X107800000Y-117814693D01*
X108077933Y-117762396D01*
X108333198Y-117598138D01*
X108451498Y-117425000D01*
X108658828Y-117425000D01*
X108687604Y-117577933D01*
X108851862Y-117833198D01*
X109102492Y-118004446D01*
X109400000Y-118064693D01*
X111400000Y-118064693D01*
X111677933Y-118012396D01*
X111933198Y-117848138D01*
X112104446Y-117597508D01*
X112164693Y-117300000D01*
X112164693Y-115700000D01*
X112112396Y-115422067D01*
X111948138Y-115166802D01*
X111697508Y-114995554D01*
X111400000Y-114935307D01*
X110978906Y-114935307D01*
X111007104Y-114907109D01*
X111007107Y-114907107D01*
X111223880Y-114582683D01*
X111300000Y-114200000D01*
X111300000Y-109349224D01*
X113292000Y-109349224D01*
X113292000Y-109685500D01*
X113481500Y-109875000D01*
X114375000Y-109875000D01*
X114375000Y-108931500D01*
X115025000Y-108931500D01*
X115025000Y-109875000D01*
X115918500Y-109875000D01*
X116108000Y-109685500D01*
X116108000Y-109349224D01*
X115992601Y-109070627D01*
X115779372Y-108857398D01*
X115500775Y-108742000D01*
X115214500Y-108742000D01*
X115025000Y-108931500D01*
X114375000Y-108931500D01*
X114185500Y-108742000D01*
X113899225Y-108742000D01*
X113620628Y-108857398D01*
X113407399Y-109070627D01*
X113292000Y-109349224D01*
X111300000Y-109349224D01*
X111300000Y-107714214D01*
X113967402Y-105046811D01*
X114082684Y-105023880D01*
X114407107Y-104807107D01*
X123014214Y-96200000D01*
X127300000Y-96200000D01*
X127682684Y-96123880D01*
X128007107Y-95907107D01*
X128400000Y-95514214D01*
X128400000Y-101900000D01*
X128400000Y-101900000D01*
G37*
X128400000Y-101900000D02*
X128476120Y-102282684D01*
X128600000Y-102468083D01*
X128600000Y-107635992D01*
X128469696Y-107548926D01*
X127800000Y-107415715D01*
X127130304Y-107548926D01*
X126562563Y-107928278D01*
X126183211Y-108496019D01*
X126050000Y-109165715D01*
X126050000Y-109234285D01*
X126183211Y-109903981D01*
X126562563Y-110471722D01*
X127130304Y-110851074D01*
X127800000Y-110984285D01*
X128469696Y-110851074D01*
X128600000Y-110764008D01*
X128600000Y-112385786D01*
X126191539Y-114794247D01*
X126300000Y-114248978D01*
X126300000Y-113151022D01*
X126147759Y-112385655D01*
X125714214Y-111736808D01*
X125065367Y-111303263D01*
X124300000Y-111151022D01*
X123534633Y-111303263D01*
X123404457Y-111390243D01*
X123100000Y-111085786D01*
X123100000Y-105928928D01*
X123759421Y-106588349D01*
X124044198Y-106303572D01*
X124721149Y-106371592D01*
X125172639Y-106281784D01*
X125366301Y-106006961D01*
X124500000Y-105140660D01*
X124132304Y-105508356D01*
X123100000Y-104476052D01*
X123100000Y-104419340D01*
X123439340Y-104080000D01*
X125560660Y-104080000D01*
X126426961Y-104946301D01*
X126701784Y-104752639D01*
X126791592Y-103858851D01*
X126701784Y-103407361D01*
X126426961Y-103213699D01*
X125560660Y-104080000D01*
X123439340Y-104080000D01*
X123100000Y-103740660D01*
X123100000Y-103683948D01*
X124132304Y-102651644D01*
X124500000Y-103019340D01*
X125366301Y-102153039D01*
X125172639Y-101878216D01*
X124278851Y-101788408D01*
X124026395Y-101838625D01*
X123759421Y-101571651D01*
X123100000Y-102231072D01*
X123100000Y-101264693D01*
X126000000Y-101264693D01*
X126277933Y-101212396D01*
X126533198Y-101048138D01*
X126704446Y-100797508D01*
X126764693Y-100500000D01*
X126764693Y-97500000D01*
X126712396Y-97222067D01*
X126548138Y-96966802D01*
X126297508Y-96795554D01*
X126000000Y-96735307D01*
X123000000Y-96735307D01*
X122722067Y-96787604D01*
X122466802Y-96951862D01*
X122295554Y-97202492D01*
X122235307Y-97500000D01*
X122235307Y-98950479D01*
X121392893Y-99792893D01*
X121176120Y-100117316D01*
X121110756Y-100445926D01*
X121100000Y-100500000D01*
X121100000Y-111500000D01*
X121176120Y-111882684D01*
X121392893Y-112207107D01*
X122306107Y-113120321D01*
X122300000Y-113151022D01*
X122300000Y-114248978D01*
X122306107Y-114279679D01*
X121085786Y-115500000D01*
X120550002Y-115500000D01*
X120550002Y-115494514D01*
X121125332Y-115145041D01*
X121586990Y-114615822D01*
X121507723Y-114325000D01*
X120175000Y-114325000D01*
X120175000Y-114950000D01*
X118425000Y-114950000D01*
X118425000Y-114325000D01*
X117092277Y-114325000D01*
X117013010Y-114615822D01*
X117474668Y-115145041D01*
X118049998Y-115494514D01*
X118049998Y-115500000D01*
X116127060Y-115500000D01*
X116112396Y-115422067D01*
X115948138Y-115166802D01*
X115697508Y-114995554D01*
X115625000Y-114980871D01*
X115625000Y-114412948D01*
X115627933Y-114412396D01*
X115883198Y-114248138D01*
X116054446Y-113997508D01*
X116114693Y-113700000D01*
X116114693Y-112784178D01*
X117013010Y-112784178D01*
X117092277Y-113075000D01*
X118425000Y-113075000D01*
X118425000Y-111964916D01*
X120175000Y-111964916D01*
X120175000Y-113075000D01*
X121507723Y-113075000D01*
X121586990Y-112784178D01*
X121125332Y-112254959D01*
X120471454Y-111857774D01*
X120175000Y-111964916D01*
X118425000Y-111964916D01*
X118128546Y-111857774D01*
X117474668Y-112254959D01*
X117013010Y-112784178D01*
X116114693Y-112784178D01*
X116114693Y-112200000D01*
X116062396Y-111922067D01*
X115950002Y-111747401D01*
X115950002Y-111471972D01*
X115992601Y-111429373D01*
X116108000Y-111150776D01*
X116108000Y-110814500D01*
X115918500Y-110625000D01*
X115025000Y-110625000D01*
X115025000Y-111000000D01*
X114375000Y-111000000D01*
X114375000Y-110625000D01*
X113481500Y-110625000D01*
X113292000Y-110814500D01*
X113292000Y-111150776D01*
X113407399Y-111429373D01*
X113449998Y-111471972D01*
X113449998Y-111749633D01*
X113345554Y-111902492D01*
X113285307Y-112200000D01*
X113285307Y-113700000D01*
X113337604Y-113977933D01*
X113501862Y-114233198D01*
X113752492Y-114404446D01*
X113775000Y-114409004D01*
X113775000Y-114935307D01*
X113400000Y-114935307D01*
X113122067Y-114987604D01*
X112866802Y-115151862D01*
X112695554Y-115402492D01*
X112635307Y-115700000D01*
X112635307Y-117300000D01*
X112687604Y-117577933D01*
X112851862Y-117833198D01*
X113102492Y-118004446D01*
X113400000Y-118064693D01*
X115400000Y-118064693D01*
X115677933Y-118012396D01*
X115933198Y-117848138D01*
X116104446Y-117597508D01*
X116124192Y-117500000D01*
X121500000Y-117500000D01*
X121882684Y-117423880D01*
X122207107Y-117207107D01*
X123404457Y-116009757D01*
X123534633Y-116096737D01*
X124300000Y-116248978D01*
X124845269Y-116140517D01*
X120985786Y-120000000D01*
X110300000Y-120000000D01*
X109917317Y-120076120D01*
X109725820Y-120204074D01*
X109592893Y-120292893D01*
X103085786Y-126800000D01*
X102808148Y-126800000D01*
X103504074Y-126104074D01*
X103704589Y-125803983D01*
X103775000Y-125450000D01*
X103775000Y-125381764D01*
X103877933Y-125362396D01*
X104133198Y-125198138D01*
X104304446Y-124947508D01*
X104334104Y-124801054D01*
X104554074Y-124654074D01*
X106254074Y-122954074D01*
X106454589Y-122653983D01*
X106525000Y-122300000D01*
X106525000Y-117814693D01*
X107800000Y-117814693D01*
X108077933Y-117762396D01*
X108333198Y-117598138D01*
X108451498Y-117425000D01*
X108658828Y-117425000D01*
X108687604Y-117577933D01*
X108851862Y-117833198D01*
X109102492Y-118004446D01*
X109400000Y-118064693D01*
X111400000Y-118064693D01*
X111677933Y-118012396D01*
X111933198Y-117848138D01*
X112104446Y-117597508D01*
X112164693Y-117300000D01*
X112164693Y-115700000D01*
X112112396Y-115422067D01*
X111948138Y-115166802D01*
X111697508Y-114995554D01*
X111400000Y-114935307D01*
X110978906Y-114935307D01*
X111007104Y-114907109D01*
X111007107Y-114907107D01*
X111223880Y-114582683D01*
X111300000Y-114200000D01*
X111300000Y-109349224D01*
X113292000Y-109349224D01*
X113292000Y-109685500D01*
X113481500Y-109875000D01*
X114375000Y-109875000D01*
X114375000Y-108931500D01*
X115025000Y-108931500D01*
X115025000Y-109875000D01*
X115918500Y-109875000D01*
X116108000Y-109685500D01*
X116108000Y-109349224D01*
X115992601Y-109070627D01*
X115779372Y-108857398D01*
X115500775Y-108742000D01*
X115214500Y-108742000D01*
X115025000Y-108931500D01*
X114375000Y-108931500D01*
X114185500Y-108742000D01*
X113899225Y-108742000D01*
X113620628Y-108857398D01*
X113407399Y-109070627D01*
X113292000Y-109349224D01*
X111300000Y-109349224D01*
X111300000Y-107714214D01*
X113967402Y-105046811D01*
X114082684Y-105023880D01*
X114407107Y-104807107D01*
X123014214Y-96200000D01*
X127300000Y-96200000D01*
X127682684Y-96123880D01*
X128007107Y-95907107D01*
X128400000Y-95514214D01*
X128400000Y-101900000D01*
G36*
X67375000Y-119183147D02*
X67375000Y-122300000D01*
X67445411Y-122653983D01*
X67645926Y-122954074D01*
X67845926Y-123154074D01*
X68146018Y-123354589D01*
X68500000Y-123425001D01*
X68500005Y-123425000D01*
X76000000Y-123425000D01*
X76353983Y-123354589D01*
X76654074Y-123154074D01*
X76883148Y-122925000D01*
X84600000Y-122925000D01*
X84953983Y-122854589D01*
X85254074Y-122654074D01*
X85974074Y-121934074D01*
X86001201Y-121893475D01*
X86446382Y-121596016D01*
X86627468Y-121325000D01*
X88439349Y-121325000D01*
X88553618Y-121496016D01*
X89056475Y-121832013D01*
X89649634Y-121950000D01*
X89710366Y-121950000D01*
X89886764Y-121914912D01*
X90121852Y-122150000D01*
X89886764Y-122385088D01*
X89710366Y-122350000D01*
X89649634Y-122350000D01*
X89056475Y-122467987D01*
X88553618Y-122803984D01*
X88217621Y-123306841D01*
X88099634Y-123900000D01*
X88217621Y-124493159D01*
X88553618Y-124996016D01*
X88709242Y-125100000D01*
X65937610Y-125100000D01*
X65958000Y-125050775D01*
X65958000Y-124689500D01*
X65768500Y-124500000D01*
X64700000Y-124500000D01*
X64700000Y-124900000D01*
X63700000Y-124900000D01*
X63700000Y-124500000D01*
X62631500Y-124500000D01*
X62442000Y-124689500D01*
X62442000Y-125050775D01*
X62462390Y-125100000D01*
X61924192Y-125100000D01*
X61964693Y-124900000D01*
X61964693Y-123300000D01*
X61936323Y-123149225D01*
X62442000Y-123149225D01*
X62442000Y-123510500D01*
X62631500Y-123700000D01*
X63700000Y-123700000D01*
X63700000Y-122731500D01*
X64700000Y-122731500D01*
X64700000Y-123700000D01*
X65768500Y-123700000D01*
X65958000Y-123510500D01*
X65958000Y-123149225D01*
X65842602Y-122870628D01*
X65629373Y-122657399D01*
X65350776Y-122542000D01*
X64889500Y-122542000D01*
X64700000Y-122731500D01*
X63700000Y-122731500D01*
X63510500Y-122542000D01*
X63049224Y-122542000D01*
X62770627Y-122657399D01*
X62557398Y-122870628D01*
X62442000Y-123149225D01*
X61936323Y-123149225D01*
X61912396Y-123022067D01*
X61748138Y-122766802D01*
X61497508Y-122595554D01*
X61200000Y-122535307D01*
X59200000Y-122535307D01*
X58922067Y-122587604D01*
X58666802Y-122751862D01*
X58495554Y-123002492D01*
X58475808Y-123100000D01*
X58249935Y-123100000D01*
X58148138Y-122941802D01*
X57897508Y-122770554D01*
X57825000Y-122755871D01*
X57825000Y-121741468D01*
X57952933Y-121717396D01*
X58208198Y-121553138D01*
X58379446Y-121302508D01*
X58439693Y-121005000D01*
X58439693Y-120747841D01*
X59050924Y-121359071D01*
X59050926Y-121359074D01*
X59319004Y-121538198D01*
X59351018Y-121559589D01*
X59705000Y-121630001D01*
X59705005Y-121630000D01*
X61111219Y-121630000D01*
X61227492Y-121709446D01*
X61525000Y-121769693D01*
X63075000Y-121769693D01*
X63352933Y-121717396D01*
X63608198Y-121553138D01*
X63779446Y-121302508D01*
X63839693Y-121005000D01*
X63839693Y-120802000D01*
X65542000Y-120802000D01*
X65542000Y-121075775D01*
X65657398Y-121354372D01*
X65870627Y-121567601D01*
X66149224Y-121683000D01*
X66485500Y-121683000D01*
X66675000Y-121493500D01*
X66675000Y-120612500D01*
X65731500Y-120612500D01*
X65542000Y-120802000D01*
X63839693Y-120802000D01*
X63839693Y-120405000D01*
X63787396Y-120127067D01*
X63752204Y-120072377D01*
X63779446Y-120032508D01*
X63839693Y-119735000D01*
X63839693Y-119524225D01*
X65542000Y-119524225D01*
X65542000Y-119798000D01*
X65731500Y-119987500D01*
X66675000Y-119987500D01*
X66675000Y-119106500D01*
X66485500Y-118917000D01*
X66149224Y-118917000D01*
X65870627Y-119032399D01*
X65657398Y-119245628D01*
X65542000Y-119524225D01*
X63839693Y-119524225D01*
X63839693Y-119135000D01*
X63792401Y-118883669D01*
X63889074Y-118819074D01*
X63983148Y-118725000D01*
X66916852Y-118725000D01*
X67375000Y-119183147D01*
X67375000Y-119183147D01*
G37*
X67375000Y-119183147D02*
X67375000Y-122300000D01*
X67445411Y-122653983D01*
X67645926Y-122954074D01*
X67845926Y-123154074D01*
X68146018Y-123354589D01*
X68500000Y-123425001D01*
X68500005Y-123425000D01*
X76000000Y-123425000D01*
X76353983Y-123354589D01*
X76654074Y-123154074D01*
X76883148Y-122925000D01*
X84600000Y-122925000D01*
X84953983Y-122854589D01*
X85254074Y-122654074D01*
X85974074Y-121934074D01*
X86001201Y-121893475D01*
X86446382Y-121596016D01*
X86627468Y-121325000D01*
X88439349Y-121325000D01*
X88553618Y-121496016D01*
X89056475Y-121832013D01*
X89649634Y-121950000D01*
X89710366Y-121950000D01*
X89886764Y-121914912D01*
X90121852Y-122150000D01*
X89886764Y-122385088D01*
X89710366Y-122350000D01*
X89649634Y-122350000D01*
X89056475Y-122467987D01*
X88553618Y-122803984D01*
X88217621Y-123306841D01*
X88099634Y-123900000D01*
X88217621Y-124493159D01*
X88553618Y-124996016D01*
X88709242Y-125100000D01*
X65937610Y-125100000D01*
X65958000Y-125050775D01*
X65958000Y-124689500D01*
X65768500Y-124500000D01*
X64700000Y-124500000D01*
X64700000Y-124900000D01*
X63700000Y-124900000D01*
X63700000Y-124500000D01*
X62631500Y-124500000D01*
X62442000Y-124689500D01*
X62442000Y-125050775D01*
X62462390Y-125100000D01*
X61924192Y-125100000D01*
X61964693Y-124900000D01*
X61964693Y-123300000D01*
X61936323Y-123149225D01*
X62442000Y-123149225D01*
X62442000Y-123510500D01*
X62631500Y-123700000D01*
X63700000Y-123700000D01*
X63700000Y-122731500D01*
X64700000Y-122731500D01*
X64700000Y-123700000D01*
X65768500Y-123700000D01*
X65958000Y-123510500D01*
X65958000Y-123149225D01*
X65842602Y-122870628D01*
X65629373Y-122657399D01*
X65350776Y-122542000D01*
X64889500Y-122542000D01*
X64700000Y-122731500D01*
X63700000Y-122731500D01*
X63510500Y-122542000D01*
X63049224Y-122542000D01*
X62770627Y-122657399D01*
X62557398Y-122870628D01*
X62442000Y-123149225D01*
X61936323Y-123149225D01*
X61912396Y-123022067D01*
X61748138Y-122766802D01*
X61497508Y-122595554D01*
X61200000Y-122535307D01*
X59200000Y-122535307D01*
X58922067Y-122587604D01*
X58666802Y-122751862D01*
X58495554Y-123002492D01*
X58475808Y-123100000D01*
X58249935Y-123100000D01*
X58148138Y-122941802D01*
X57897508Y-122770554D01*
X57825000Y-122755871D01*
X57825000Y-121741468D01*
X57952933Y-121717396D01*
X58208198Y-121553138D01*
X58379446Y-121302508D01*
X58439693Y-121005000D01*
X58439693Y-120747841D01*
X59050924Y-121359071D01*
X59050926Y-121359074D01*
X59319004Y-121538198D01*
X59351018Y-121559589D01*
X59705000Y-121630001D01*
X59705005Y-121630000D01*
X61111219Y-121630000D01*
X61227492Y-121709446D01*
X61525000Y-121769693D01*
X63075000Y-121769693D01*
X63352933Y-121717396D01*
X63608198Y-121553138D01*
X63779446Y-121302508D01*
X63839693Y-121005000D01*
X63839693Y-120802000D01*
X65542000Y-120802000D01*
X65542000Y-121075775D01*
X65657398Y-121354372D01*
X65870627Y-121567601D01*
X66149224Y-121683000D01*
X66485500Y-121683000D01*
X66675000Y-121493500D01*
X66675000Y-120612500D01*
X65731500Y-120612500D01*
X65542000Y-120802000D01*
X63839693Y-120802000D01*
X63839693Y-120405000D01*
X63787396Y-120127067D01*
X63752204Y-120072377D01*
X63779446Y-120032508D01*
X63839693Y-119735000D01*
X63839693Y-119524225D01*
X65542000Y-119524225D01*
X65542000Y-119798000D01*
X65731500Y-119987500D01*
X66675000Y-119987500D01*
X66675000Y-119106500D01*
X66485500Y-118917000D01*
X66149224Y-118917000D01*
X65870627Y-119032399D01*
X65657398Y-119245628D01*
X65542000Y-119524225D01*
X63839693Y-119524225D01*
X63839693Y-119135000D01*
X63792401Y-118883669D01*
X63889074Y-118819074D01*
X63983148Y-118725000D01*
X66916852Y-118725000D01*
X67375000Y-119183147D01*
G36*
X69245926Y-112054074D02*
X69546017Y-112254589D01*
X69900000Y-112325000D01*
X71125000Y-112325000D01*
X71125000Y-119018236D01*
X71022067Y-119037604D01*
X70851652Y-119147263D01*
X70848138Y-119141802D01*
X70597508Y-118970554D01*
X70300000Y-118910307D01*
X69225000Y-118910307D01*
X69225000Y-118800005D01*
X69225001Y-118800000D01*
X69154589Y-118446018D01*
X69123841Y-118400000D01*
X68954074Y-118145926D01*
X68954071Y-118145924D01*
X67954074Y-117145926D01*
X67653983Y-116945411D01*
X67300000Y-116875000D01*
X63833000Y-116875000D01*
X63833000Y-115644998D01*
X63075000Y-115644998D01*
X63075000Y-115837000D01*
X62877000Y-115837000D01*
X62687500Y-116026500D01*
X62687500Y-116745000D01*
X63075000Y-116745000D01*
X63075000Y-117045000D01*
X62687500Y-117045000D01*
X62687500Y-117100307D01*
X61912500Y-117100307D01*
X61912500Y-117045000D01*
X61525000Y-117045000D01*
X61525000Y-116745000D01*
X61912500Y-116745000D01*
X61912500Y-116026500D01*
X61723000Y-115837000D01*
X61525000Y-115837000D01*
X61525000Y-115644998D01*
X61325000Y-115644998D01*
X61325000Y-115430805D01*
X68134881Y-115430805D01*
X68219983Y-115678846D01*
X68830064Y-115788239D01*
X69380017Y-115678846D01*
X69465119Y-115430805D01*
X68800000Y-114765685D01*
X68134881Y-115430805D01*
X61325000Y-115430805D01*
X61325000Y-115203148D01*
X61672946Y-114855202D01*
X61900000Y-114900366D01*
X62493159Y-114782379D01*
X62996016Y-114446382D01*
X63244165Y-114075000D01*
X64718236Y-114075000D01*
X64737604Y-114177933D01*
X64901862Y-114433198D01*
X65152492Y-114604446D01*
X65450000Y-114664693D01*
X66750000Y-114664693D01*
X67027933Y-114612396D01*
X67258323Y-114464145D01*
X67321154Y-114780017D01*
X67569195Y-114865119D01*
X68234315Y-114200000D01*
X69365685Y-114200000D01*
X70030805Y-114865119D01*
X70278846Y-114780017D01*
X70388239Y-114169936D01*
X70278846Y-113619983D01*
X70030805Y-113534881D01*
X69365685Y-114200000D01*
X68234315Y-114200000D01*
X67569195Y-113534881D01*
X67514693Y-113553580D01*
X67514693Y-112969195D01*
X68134881Y-112969195D01*
X68800000Y-113634315D01*
X69465119Y-112969195D01*
X69380017Y-112721154D01*
X68769936Y-112611761D01*
X68219983Y-112721154D01*
X68134881Y-112969195D01*
X67514693Y-112969195D01*
X67514693Y-112400000D01*
X67462396Y-112122067D01*
X67298138Y-111866802D01*
X67201452Y-111800740D01*
X67283198Y-111748138D01*
X67454446Y-111497508D01*
X67514693Y-111200000D01*
X67514693Y-110322841D01*
X69245926Y-112054074D01*
X69245926Y-112054074D01*
G37*
X69245926Y-112054074D02*
X69546017Y-112254589D01*
X69900000Y-112325000D01*
X71125000Y-112325000D01*
X71125000Y-119018236D01*
X71022067Y-119037604D01*
X70851652Y-119147263D01*
X70848138Y-119141802D01*
X70597508Y-118970554D01*
X70300000Y-118910307D01*
X69225000Y-118910307D01*
X69225000Y-118800005D01*
X69225001Y-118800000D01*
X69154589Y-118446018D01*
X69123841Y-118400000D01*
X68954074Y-118145926D01*
X68954071Y-118145924D01*
X67954074Y-117145926D01*
X67653983Y-116945411D01*
X67300000Y-116875000D01*
X63833000Y-116875000D01*
X63833000Y-115644998D01*
X63075000Y-115644998D01*
X63075000Y-115837000D01*
X62877000Y-115837000D01*
X62687500Y-116026500D01*
X62687500Y-116745000D01*
X63075000Y-116745000D01*
X63075000Y-117045000D01*
X62687500Y-117045000D01*
X62687500Y-117100307D01*
X61912500Y-117100307D01*
X61912500Y-117045000D01*
X61525000Y-117045000D01*
X61525000Y-116745000D01*
X61912500Y-116745000D01*
X61912500Y-116026500D01*
X61723000Y-115837000D01*
X61525000Y-115837000D01*
X61525000Y-115644998D01*
X61325000Y-115644998D01*
X61325000Y-115430805D01*
X68134881Y-115430805D01*
X68219983Y-115678846D01*
X68830064Y-115788239D01*
X69380017Y-115678846D01*
X69465119Y-115430805D01*
X68800000Y-114765685D01*
X68134881Y-115430805D01*
X61325000Y-115430805D01*
X61325000Y-115203148D01*
X61672946Y-114855202D01*
X61900000Y-114900366D01*
X62493159Y-114782379D01*
X62996016Y-114446382D01*
X63244165Y-114075000D01*
X64718236Y-114075000D01*
X64737604Y-114177933D01*
X64901862Y-114433198D01*
X65152492Y-114604446D01*
X65450000Y-114664693D01*
X66750000Y-114664693D01*
X67027933Y-114612396D01*
X67258323Y-114464145D01*
X67321154Y-114780017D01*
X67569195Y-114865119D01*
X68234315Y-114200000D01*
X69365685Y-114200000D01*
X70030805Y-114865119D01*
X70278846Y-114780017D01*
X70388239Y-114169936D01*
X70278846Y-113619983D01*
X70030805Y-113534881D01*
X69365685Y-114200000D01*
X68234315Y-114200000D01*
X67569195Y-113534881D01*
X67514693Y-113553580D01*
X67514693Y-112969195D01*
X68134881Y-112969195D01*
X68800000Y-113634315D01*
X69465119Y-112969195D01*
X69380017Y-112721154D01*
X68769936Y-112611761D01*
X68219983Y-112721154D01*
X68134881Y-112969195D01*
X67514693Y-112969195D01*
X67514693Y-112400000D01*
X67462396Y-112122067D01*
X67298138Y-111866802D01*
X67201452Y-111800740D01*
X67283198Y-111748138D01*
X67454446Y-111497508D01*
X67514693Y-111200000D01*
X67514693Y-110322841D01*
X69245926Y-112054074D01*
G36*
X57287500Y-118015000D02*
X57675000Y-118015000D01*
X57675000Y-118315000D01*
X57287500Y-118315000D01*
X57287500Y-118370307D01*
X56512500Y-118370307D01*
X56512500Y-118315000D01*
X56125000Y-118315000D01*
X56125000Y-118015000D01*
X56512500Y-118015000D01*
X56512500Y-117959693D01*
X57287500Y-117959693D01*
X57287500Y-118015000D01*
X57287500Y-118015000D01*
G37*
X57287500Y-118015000D02*
X57675000Y-118015000D01*
X57675000Y-118315000D01*
X57287500Y-118315000D01*
X57287500Y-118370307D01*
X56512500Y-118370307D01*
X56512500Y-118315000D01*
X56125000Y-118315000D01*
X56125000Y-118015000D01*
X56512500Y-118015000D01*
X56512500Y-117959693D01*
X57287500Y-117959693D01*
X57287500Y-118015000D01*
G36*
X78087604Y-106227933D02*
X78251862Y-106483198D01*
X78502492Y-106654446D01*
X78800000Y-106714693D01*
X80300000Y-106714693D01*
X80577933Y-106662396D01*
X80833198Y-106498138D01*
X80899260Y-106401452D01*
X80951862Y-106483198D01*
X81202492Y-106654446D01*
X81325000Y-106679255D01*
X81325000Y-109250000D01*
X81395411Y-109603983D01*
X81595926Y-109904074D01*
X82345926Y-110654074D01*
X82646017Y-110854589D01*
X82976184Y-110920263D01*
X83093618Y-111096016D01*
X83295000Y-111230575D01*
X83295000Y-111320000D01*
X83365411Y-111673983D01*
X83565926Y-111974074D01*
X84795926Y-113204074D01*
X85096018Y-113404589D01*
X85450000Y-113475001D01*
X85450005Y-113475000D01*
X85743236Y-113475000D01*
X85762604Y-113577933D01*
X85926862Y-113833198D01*
X86177492Y-114004446D01*
X86475000Y-114064693D01*
X86656545Y-114064693D01*
X88145926Y-115554074D01*
X88446017Y-115754589D01*
X88800000Y-115825000D01*
X89433267Y-115825000D01*
X89682830Y-116075000D01*
X76983148Y-116075000D01*
X76397841Y-115489693D01*
X77800000Y-115489693D01*
X78077933Y-115437396D01*
X78213748Y-115350002D01*
X78353028Y-115350002D01*
X78370627Y-115367601D01*
X78649224Y-115483000D01*
X78985500Y-115483000D01*
X79175000Y-115293500D01*
X79175000Y-114412500D01*
X79925000Y-114412500D01*
X79925000Y-115293500D01*
X80114500Y-115483000D01*
X80450776Y-115483000D01*
X80729373Y-115367601D01*
X80942602Y-115154372D01*
X81058000Y-114875775D01*
X81058000Y-114602000D01*
X80868500Y-114412500D01*
X79925000Y-114412500D01*
X79175000Y-114412500D01*
X78800000Y-114412500D01*
X78800000Y-113787500D01*
X79175000Y-113787500D01*
X79175000Y-112906500D01*
X79925000Y-112906500D01*
X79925000Y-113787500D01*
X80868500Y-113787500D01*
X81058000Y-113598000D01*
X81058000Y-113324225D01*
X80942602Y-113045628D01*
X80729373Y-112832399D01*
X80450776Y-112717000D01*
X80114500Y-112717000D01*
X79925000Y-112906500D01*
X79175000Y-112906500D01*
X78985500Y-112717000D01*
X78649224Y-112717000D01*
X78370627Y-112832399D01*
X78353028Y-112849998D01*
X78213778Y-112849998D01*
X78097508Y-112770554D01*
X77975000Y-112745745D01*
X77975000Y-110730464D01*
X78149730Y-110309667D01*
X78150268Y-109693039D01*
X77914792Y-109123143D01*
X77525000Y-108732669D01*
X77525000Y-106628694D01*
X77682379Y-106393159D01*
X77715828Y-106225000D01*
X78087052Y-106225000D01*
X78087604Y-106227933D01*
X78087604Y-106227933D01*
G37*
X78087604Y-106227933D02*
X78251862Y-106483198D01*
X78502492Y-106654446D01*
X78800000Y-106714693D01*
X80300000Y-106714693D01*
X80577933Y-106662396D01*
X80833198Y-106498138D01*
X80899260Y-106401452D01*
X80951862Y-106483198D01*
X81202492Y-106654446D01*
X81325000Y-106679255D01*
X81325000Y-109250000D01*
X81395411Y-109603983D01*
X81595926Y-109904074D01*
X82345926Y-110654074D01*
X82646017Y-110854589D01*
X82976184Y-110920263D01*
X83093618Y-111096016D01*
X83295000Y-111230575D01*
X83295000Y-111320000D01*
X83365411Y-111673983D01*
X83565926Y-111974074D01*
X84795926Y-113204074D01*
X85096018Y-113404589D01*
X85450000Y-113475001D01*
X85450005Y-113475000D01*
X85743236Y-113475000D01*
X85762604Y-113577933D01*
X85926862Y-113833198D01*
X86177492Y-114004446D01*
X86475000Y-114064693D01*
X86656545Y-114064693D01*
X88145926Y-115554074D01*
X88446017Y-115754589D01*
X88800000Y-115825000D01*
X89433267Y-115825000D01*
X89682830Y-116075000D01*
X76983148Y-116075000D01*
X76397841Y-115489693D01*
X77800000Y-115489693D01*
X78077933Y-115437396D01*
X78213748Y-115350002D01*
X78353028Y-115350002D01*
X78370627Y-115367601D01*
X78649224Y-115483000D01*
X78985500Y-115483000D01*
X79175000Y-115293500D01*
X79175000Y-114412500D01*
X79925000Y-114412500D01*
X79925000Y-115293500D01*
X80114500Y-115483000D01*
X80450776Y-115483000D01*
X80729373Y-115367601D01*
X80942602Y-115154372D01*
X81058000Y-114875775D01*
X81058000Y-114602000D01*
X80868500Y-114412500D01*
X79925000Y-114412500D01*
X79175000Y-114412500D01*
X78800000Y-114412500D01*
X78800000Y-113787500D01*
X79175000Y-113787500D01*
X79175000Y-112906500D01*
X79925000Y-112906500D01*
X79925000Y-113787500D01*
X80868500Y-113787500D01*
X81058000Y-113598000D01*
X81058000Y-113324225D01*
X80942602Y-113045628D01*
X80729373Y-112832399D01*
X80450776Y-112717000D01*
X80114500Y-112717000D01*
X79925000Y-112906500D01*
X79175000Y-112906500D01*
X78985500Y-112717000D01*
X78649224Y-112717000D01*
X78370627Y-112832399D01*
X78353028Y-112849998D01*
X78213778Y-112849998D01*
X78097508Y-112770554D01*
X77975000Y-112745745D01*
X77975000Y-110730464D01*
X78149730Y-110309667D01*
X78150268Y-109693039D01*
X77914792Y-109123143D01*
X77525000Y-108732669D01*
X77525000Y-106628694D01*
X77682379Y-106393159D01*
X77715828Y-106225000D01*
X78087052Y-106225000D01*
X78087604Y-106227933D01*
G36*
X128400000Y-43214214D02*
X128400000Y-81969628D01*
X128069696Y-81748926D01*
X127400000Y-81615715D01*
X126730304Y-81748926D01*
X126162563Y-82128278D01*
X125783211Y-82696019D01*
X125650000Y-83365715D01*
X125650000Y-83434285D01*
X125783211Y-84103981D01*
X126162563Y-84671722D01*
X126730304Y-85051074D01*
X127400000Y-85184285D01*
X128069696Y-85051074D01*
X128400000Y-84830372D01*
X128400000Y-90969628D01*
X128069696Y-90748926D01*
X127400000Y-90615715D01*
X126730304Y-90748926D01*
X126162563Y-91128278D01*
X125783211Y-91696019D01*
X125650000Y-92365715D01*
X125650000Y-92434285D01*
X125783211Y-93103981D01*
X126162563Y-93671722D01*
X126730304Y-94051074D01*
X126984207Y-94101579D01*
X126885786Y-94200000D01*
X122600005Y-94200000D01*
X122600000Y-94199999D01*
X122217316Y-94276120D01*
X121892893Y-94492893D01*
X113964693Y-102421093D01*
X113964693Y-101893455D01*
X114854074Y-101004074D01*
X115054589Y-100703982D01*
X115082296Y-100564693D01*
X115200000Y-100564693D01*
X115477933Y-100512396D01*
X115733198Y-100348138D01*
X115904446Y-100097508D01*
X115964693Y-99800000D01*
X115964693Y-99449521D01*
X124607107Y-90807107D01*
X124823880Y-90482684D01*
X124890834Y-90146085D01*
X125314214Y-89863192D01*
X125747759Y-89214345D01*
X125900000Y-88448978D01*
X125900000Y-87351022D01*
X125747759Y-86585655D01*
X125314214Y-85936808D01*
X124665367Y-85503263D01*
X123900000Y-85351022D01*
X123134633Y-85503263D01*
X123004457Y-85590243D01*
X122900000Y-85485786D01*
X122900000Y-80006961D01*
X123933699Y-80006961D01*
X124127361Y-80281784D01*
X125021149Y-80371592D01*
X125472639Y-80281784D01*
X125666301Y-80006961D01*
X124800000Y-79140660D01*
X123933699Y-80006961D01*
X122900000Y-80006961D01*
X122900000Y-78919340D01*
X123739340Y-78080000D01*
X125860660Y-78080000D01*
X126726961Y-78946301D01*
X127001784Y-78752639D01*
X127091592Y-77858851D01*
X127001784Y-77407361D01*
X126726961Y-77213699D01*
X125860660Y-78080000D01*
X123739340Y-78080000D01*
X122900000Y-77240660D01*
X122900000Y-76153039D01*
X123933699Y-76153039D01*
X124800000Y-77019340D01*
X125666301Y-76153039D01*
X125472639Y-75878216D01*
X124578851Y-75788408D01*
X124127361Y-75878216D01*
X123933699Y-76153039D01*
X122900000Y-76153039D01*
X122900000Y-75814214D01*
X123449521Y-75264693D01*
X126300000Y-75264693D01*
X126577933Y-75212396D01*
X126833198Y-75048138D01*
X127004446Y-74797508D01*
X127064693Y-74500000D01*
X127064693Y-71500000D01*
X127012396Y-71222067D01*
X126848138Y-70966802D01*
X126597508Y-70795554D01*
X126300000Y-70735307D01*
X123300000Y-70735307D01*
X123022067Y-70787604D01*
X122766802Y-70951862D01*
X122595554Y-71202492D01*
X122535307Y-71500000D01*
X122535307Y-73350480D01*
X121192893Y-74692893D01*
X120976120Y-75017316D01*
X120926914Y-75264693D01*
X120900000Y-75400000D01*
X120900000Y-85900000D01*
X120976120Y-86282684D01*
X121192893Y-86607107D01*
X121906107Y-87320321D01*
X121900000Y-87351022D01*
X121900000Y-88448978D01*
X122052241Y-89214345D01*
X122485786Y-89863192D01*
X122627742Y-89958044D01*
X115150479Y-97435307D01*
X113200000Y-97435307D01*
X112922067Y-97487604D01*
X112666802Y-97651862D01*
X112495554Y-97902492D01*
X112435307Y-98200000D01*
X112435307Y-99800000D01*
X112487604Y-100077933D01*
X112651862Y-100333198D01*
X112804417Y-100437435D01*
X112556545Y-100685307D01*
X111700000Y-100685307D01*
X111422067Y-100737604D01*
X111247401Y-100849998D01*
X110971972Y-100849998D01*
X110929373Y-100807399D01*
X110650776Y-100692000D01*
X110314500Y-100692000D01*
X110125000Y-100881500D01*
X110125000Y-101775000D01*
X110500000Y-101775000D01*
X110500000Y-102425000D01*
X110125000Y-102425000D01*
X110125000Y-103318500D01*
X110314500Y-103508000D01*
X110650776Y-103508000D01*
X110929373Y-103392601D01*
X110971972Y-103350002D01*
X111249633Y-103350002D01*
X111402492Y-103454446D01*
X111700000Y-103514693D01*
X112671094Y-103514693D01*
X109592893Y-106592893D01*
X109376120Y-106917316D01*
X109313523Y-107232013D01*
X109300000Y-107300000D01*
X109300000Y-111642000D01*
X108989500Y-111642000D01*
X108800000Y-111831500D01*
X108800000Y-112800000D01*
X109300000Y-112800000D01*
X109300000Y-113600000D01*
X109200005Y-113600000D01*
X109200000Y-113599999D01*
X109199995Y-113600000D01*
X108800000Y-113600000D01*
X108800000Y-113687690D01*
X108569220Y-113841893D01*
X108406000Y-113909334D01*
X108315175Y-114000000D01*
X107800000Y-114000000D01*
X107800000Y-113600000D01*
X107300000Y-113600000D01*
X107300000Y-112800000D01*
X107800000Y-112800000D01*
X107800000Y-111831500D01*
X107610500Y-111642000D01*
X107149224Y-111642000D01*
X107125000Y-111652034D01*
X107125000Y-104200000D01*
X107074388Y-103945554D01*
X107054589Y-103846017D01*
X106854074Y-103545926D01*
X105922648Y-102614500D01*
X108242000Y-102614500D01*
X108242000Y-102900775D01*
X108357398Y-103179372D01*
X108570627Y-103392601D01*
X108849224Y-103508000D01*
X109185500Y-103508000D01*
X109375000Y-103318500D01*
X109375000Y-102425000D01*
X108431500Y-102425000D01*
X108242000Y-102614500D01*
X105922648Y-102614500D01*
X104854074Y-101545926D01*
X104553983Y-101345411D01*
X104321789Y-101299225D01*
X108242000Y-101299225D01*
X108242000Y-101585500D01*
X108431500Y-101775000D01*
X109375000Y-101775000D01*
X109375000Y-100881500D01*
X109185500Y-100692000D01*
X108849224Y-100692000D01*
X108570627Y-100807399D01*
X108357398Y-101020628D01*
X108242000Y-101299225D01*
X104321789Y-101299225D01*
X104200000Y-101275000D01*
X102641468Y-101275000D01*
X102617396Y-101147067D01*
X102530000Y-101011249D01*
X102530000Y-100378148D01*
X102741325Y-100166823D01*
X102751862Y-100183198D01*
X103002492Y-100354446D01*
X103300000Y-100414693D01*
X104800000Y-100414693D01*
X105077933Y-100362396D01*
X105333198Y-100198138D01*
X105399260Y-100101452D01*
X105451862Y-100183198D01*
X105702492Y-100354446D01*
X106000000Y-100414693D01*
X107500000Y-100414693D01*
X107777933Y-100362396D01*
X108033198Y-100198138D01*
X108204446Y-99947508D01*
X108209004Y-99925000D01*
X108458828Y-99925000D01*
X108487604Y-100077933D01*
X108651862Y-100333198D01*
X108902492Y-100504446D01*
X109200000Y-100564693D01*
X111200000Y-100564693D01*
X111477933Y-100512396D01*
X111733198Y-100348138D01*
X111904446Y-100097508D01*
X111964693Y-99800000D01*
X111964693Y-98200000D01*
X111912396Y-97922067D01*
X111748138Y-97666802D01*
X111497508Y-97495554D01*
X111200000Y-97435307D01*
X109200000Y-97435307D01*
X108922067Y-97487604D01*
X108666802Y-97651862D01*
X108495554Y-97902492D01*
X108460620Y-98075000D01*
X108212948Y-98075000D01*
X108212396Y-98072067D01*
X108048138Y-97816802D01*
X107797508Y-97645554D01*
X107500000Y-97585307D01*
X106000000Y-97585307D01*
X105722067Y-97637604D01*
X105466802Y-97801862D01*
X105400740Y-97898548D01*
X105348138Y-97816802D01*
X105097508Y-97645554D01*
X104800000Y-97585307D01*
X103300000Y-97585307D01*
X103022067Y-97637604D01*
X102766802Y-97801862D01*
X102595554Y-98052492D01*
X102590618Y-98076865D01*
X102246018Y-98145411D01*
X101945926Y-98345926D01*
X101945924Y-98345929D01*
X101575000Y-98716853D01*
X101575000Y-97581764D01*
X101677933Y-97562396D01*
X101933198Y-97398138D01*
X102104446Y-97147508D01*
X102164693Y-96850000D01*
X102164693Y-95550000D01*
X102112396Y-95272067D01*
X101948138Y-95016802D01*
X101697508Y-94845554D01*
X101400000Y-94785307D01*
X99900000Y-94785307D01*
X99622067Y-94837604D01*
X99366802Y-95001862D01*
X99300740Y-95098548D01*
X99248138Y-95016802D01*
X98997508Y-94845554D01*
X98827485Y-94811123D01*
X98804589Y-94696018D01*
X98604074Y-94395926D01*
X96954074Y-92745926D01*
X96653983Y-92545411D01*
X96300000Y-92475000D01*
X84300000Y-92475000D01*
X83946017Y-92545411D01*
X83645926Y-92745926D01*
X82479352Y-93912500D01*
X81625000Y-93912500D01*
X81625000Y-94225000D01*
X80875000Y-94225000D01*
X80875000Y-93912500D01*
X80500000Y-93912500D01*
X80500000Y-93287500D01*
X80875000Y-93287500D01*
X80875000Y-92406500D01*
X81625000Y-92406500D01*
X81625000Y-93287500D01*
X82568500Y-93287500D01*
X82758000Y-93098000D01*
X82758000Y-92824225D01*
X82642602Y-92545628D01*
X82429373Y-92332399D01*
X82150776Y-92217000D01*
X81814500Y-92217000D01*
X81625000Y-92406500D01*
X80875000Y-92406500D01*
X80685500Y-92217000D01*
X80349224Y-92217000D01*
X80070627Y-92332399D01*
X80053028Y-92349998D01*
X79913778Y-92349998D01*
X79797508Y-92270554D01*
X79500000Y-92210307D01*
X78427502Y-92210307D01*
X78250000Y-92175000D01*
X76666733Y-92175000D01*
X76279151Y-91786740D01*
X75889637Y-91625000D01*
X91900000Y-91625000D01*
X92253983Y-91554589D01*
X92554074Y-91354074D01*
X95092325Y-88815822D01*
X116613010Y-88815822D01*
X117074668Y-89345041D01*
X117728546Y-89742226D01*
X118025000Y-89635084D01*
X118025000Y-88525000D01*
X119775000Y-88525000D01*
X119775000Y-89635084D01*
X120071454Y-89742226D01*
X120725332Y-89345041D01*
X121186990Y-88815822D01*
X121107723Y-88525000D01*
X119775000Y-88525000D01*
X118025000Y-88525000D01*
X116692277Y-88525000D01*
X116613010Y-88815822D01*
X95092325Y-88815822D01*
X96354071Y-87554076D01*
X96354074Y-87554074D01*
X96554589Y-87253982D01*
X96566740Y-87192893D01*
X96608256Y-86984178D01*
X116613010Y-86984178D01*
X116692277Y-87275000D01*
X118025000Y-87275000D01*
X118025000Y-86164916D01*
X119775000Y-86164916D01*
X119775000Y-87275000D01*
X121107723Y-87275000D01*
X121186990Y-86984178D01*
X120725332Y-86454959D01*
X120071454Y-86057774D01*
X119775000Y-86164916D01*
X118025000Y-86164916D01*
X117728546Y-86057774D01*
X117074668Y-86454959D01*
X116613010Y-86984178D01*
X96608256Y-86984178D01*
X96625001Y-86900000D01*
X96625000Y-86899995D01*
X96625000Y-65814500D01*
X102617000Y-65814500D01*
X102617000Y-66150776D01*
X102732399Y-66429373D01*
X102945628Y-66642602D01*
X103224225Y-66758000D01*
X103498000Y-66758000D01*
X103687500Y-66568500D01*
X103687500Y-65625000D01*
X104312500Y-65625000D01*
X104312500Y-66568500D01*
X104502000Y-66758000D01*
X104775775Y-66758000D01*
X105054372Y-66642602D01*
X105267601Y-66429373D01*
X105383000Y-66150776D01*
X105383000Y-65814500D01*
X106117000Y-65814500D01*
X106117000Y-66150776D01*
X106232399Y-66429373D01*
X106303026Y-66500000D01*
X106232399Y-66570627D01*
X106117000Y-66849224D01*
X106117000Y-67185500D01*
X106306500Y-67375000D01*
X107187500Y-67375000D01*
X107187500Y-65625000D01*
X106306500Y-65625000D01*
X106117000Y-65814500D01*
X105383000Y-65814500D01*
X105193500Y-65625000D01*
X104312500Y-65625000D01*
X103687500Y-65625000D01*
X102806500Y-65625000D01*
X102617000Y-65814500D01*
X96625000Y-65814500D01*
X96625000Y-64983148D01*
X99383148Y-62225000D01*
X102610307Y-62225000D01*
X102610307Y-63500000D01*
X102662604Y-63777933D01*
X102749998Y-63913748D01*
X102749998Y-64053028D01*
X102732399Y-64070627D01*
X102617000Y-64349224D01*
X102617000Y-64685500D01*
X102806500Y-64875000D01*
X103687500Y-64875000D01*
X103687500Y-64500000D01*
X104312500Y-64500000D01*
X104312500Y-64875000D01*
X105193500Y-64875000D01*
X105383000Y-64685500D01*
X105383000Y-64349224D01*
X105267601Y-64070627D01*
X105250002Y-64053028D01*
X105250002Y-63913778D01*
X105329446Y-63797508D01*
X105354433Y-63674118D01*
X105703983Y-63604589D01*
X106004074Y-63404074D01*
X106110307Y-63297841D01*
X106110307Y-63500000D01*
X106162604Y-63777933D01*
X106249998Y-63913748D01*
X106249998Y-64053028D01*
X106232399Y-64070627D01*
X106117000Y-64349224D01*
X106117000Y-64685500D01*
X106306500Y-64875000D01*
X107187500Y-64875000D01*
X107187500Y-64500000D01*
X107812500Y-64500000D01*
X107812500Y-64875000D01*
X108059681Y-64875000D01*
X107945411Y-65046017D01*
X107899038Y-65279151D01*
X107875000Y-65400000D01*
X107875000Y-65625000D01*
X107812500Y-65625000D01*
X107812500Y-67375000D01*
X107875000Y-67375000D01*
X107875000Y-68125000D01*
X107812500Y-68125000D01*
X107812500Y-68500000D01*
X107187500Y-68500000D01*
X107187500Y-68125000D01*
X106306500Y-68125000D01*
X106117000Y-68314500D01*
X106117000Y-68650776D01*
X106232399Y-68929373D01*
X106249998Y-68946972D01*
X106249998Y-69086222D01*
X106170554Y-69202492D01*
X106110307Y-69500000D01*
X106110307Y-69873725D01*
X106095411Y-69896018D01*
X106025000Y-70250000D01*
X106095411Y-70603982D01*
X106110307Y-70626275D01*
X106110307Y-71000000D01*
X106162604Y-71277933D01*
X106326862Y-71533198D01*
X106577492Y-71704446D01*
X106875000Y-71764693D01*
X108125000Y-71764693D01*
X108402933Y-71712396D01*
X108658198Y-71548138D01*
X108829446Y-71297508D01*
X108889693Y-71000000D01*
X108889693Y-70986584D01*
X108951862Y-71083198D01*
X109202492Y-71254446D01*
X109500000Y-71314693D01*
X111600000Y-71314693D01*
X111877933Y-71262396D01*
X111980222Y-71196575D01*
X112249224Y-71308000D01*
X112735500Y-71308000D01*
X112925000Y-71118500D01*
X112925000Y-70100000D01*
X113975000Y-70100000D01*
X113975000Y-71118500D01*
X114164500Y-71308000D01*
X114650776Y-71308000D01*
X114929373Y-71192601D01*
X115142602Y-70979372D01*
X115197855Y-70845978D01*
X115232399Y-70929373D01*
X115445628Y-71142602D01*
X115724225Y-71258000D01*
X115998000Y-71258000D01*
X116187500Y-71068500D01*
X116187500Y-70125000D01*
X116812500Y-70125000D01*
X116812500Y-71068500D01*
X117002000Y-71258000D01*
X117275775Y-71258000D01*
X117554372Y-71142602D01*
X117767601Y-70929373D01*
X117883000Y-70650776D01*
X117883000Y-70314500D01*
X117693500Y-70125000D01*
X116812500Y-70125000D01*
X116187500Y-70125000D01*
X115306500Y-70125000D01*
X115200000Y-70231500D01*
X115068500Y-70100000D01*
X113975000Y-70100000D01*
X112925000Y-70100000D01*
X112400000Y-70100000D01*
X112400000Y-69200000D01*
X112925000Y-69200000D01*
X112925000Y-69014693D01*
X113975000Y-69014693D01*
X113975000Y-69200000D01*
X115068500Y-69200000D01*
X115117000Y-69151500D01*
X115117000Y-69185500D01*
X115306500Y-69375000D01*
X116187500Y-69375000D01*
X116187500Y-69000000D01*
X116812500Y-69000000D01*
X116812500Y-69375000D01*
X117693500Y-69375000D01*
X117883000Y-69185500D01*
X117883000Y-68849224D01*
X117767601Y-68570627D01*
X117750002Y-68553028D01*
X117750002Y-68413778D01*
X117829446Y-68297508D01*
X117889693Y-68000000D01*
X117889693Y-66500000D01*
X117837396Y-66222067D01*
X117673138Y-65966802D01*
X117422508Y-65795554D01*
X117125000Y-65735307D01*
X115875000Y-65735307D01*
X115597067Y-65787604D01*
X115341802Y-65951862D01*
X115202185Y-66156199D01*
X115048138Y-65916802D01*
X114797508Y-65745554D01*
X114500000Y-65685307D01*
X113775000Y-65685307D01*
X113775000Y-65381764D01*
X113877933Y-65362396D01*
X114133198Y-65198138D01*
X114304446Y-64947508D01*
X114364693Y-64650000D01*
X114364693Y-64172841D01*
X114845926Y-64654074D01*
X115146018Y-64854589D01*
X115283659Y-64881967D01*
X115287604Y-64902933D01*
X115451862Y-65158198D01*
X115702492Y-65329446D01*
X116000000Y-65389693D01*
X117500000Y-65389693D01*
X117777933Y-65337396D01*
X117913748Y-65250002D01*
X118053028Y-65250002D01*
X118070627Y-65267601D01*
X118349224Y-65383000D01*
X118685500Y-65383000D01*
X118875000Y-65193500D01*
X118875000Y-64312500D01*
X119625000Y-64312500D01*
X119625000Y-65193500D01*
X119814500Y-65383000D01*
X120150776Y-65383000D01*
X120429373Y-65267601D01*
X120642602Y-65054372D01*
X120758000Y-64775775D01*
X120758000Y-64502000D01*
X120568500Y-64312500D01*
X119625000Y-64312500D01*
X118875000Y-64312500D01*
X118500000Y-64312500D01*
X118500000Y-63687500D01*
X118875000Y-63687500D01*
X118875000Y-62806500D01*
X119625000Y-62806500D01*
X119625000Y-63687500D01*
X120568500Y-63687500D01*
X120758000Y-63498000D01*
X120758000Y-63224225D01*
X120642602Y-62945628D01*
X120429373Y-62732399D01*
X120150776Y-62617000D01*
X119814500Y-62617000D01*
X119625000Y-62806500D01*
X118875000Y-62806500D01*
X118685500Y-62617000D01*
X118349224Y-62617000D01*
X118070627Y-62732399D01*
X118053028Y-62749998D01*
X117913778Y-62749998D01*
X117797508Y-62670554D01*
X117500000Y-62610307D01*
X116000000Y-62610307D01*
X115722067Y-62662604D01*
X115569151Y-62761003D01*
X114933148Y-62125000D01*
X116200000Y-62125000D01*
X116553983Y-62054589D01*
X116854074Y-61854074D01*
X117318454Y-61389693D01*
X117500000Y-61389693D01*
X117777933Y-61337396D01*
X117913748Y-61250002D01*
X118053028Y-61250002D01*
X118070627Y-61267601D01*
X118349224Y-61383000D01*
X118685500Y-61383000D01*
X118875000Y-61193500D01*
X118875000Y-60312500D01*
X119625000Y-60312500D01*
X119625000Y-61193500D01*
X119814500Y-61383000D01*
X120150776Y-61383000D01*
X120429373Y-61267601D01*
X120642602Y-61054372D01*
X120758000Y-60775775D01*
X120758000Y-60502000D01*
X120568500Y-60312500D01*
X119625000Y-60312500D01*
X118875000Y-60312500D01*
X118500000Y-60312500D01*
X118500000Y-59687500D01*
X118875000Y-59687500D01*
X118875000Y-58806500D01*
X119625000Y-58806500D01*
X119625000Y-59687500D01*
X120568500Y-59687500D01*
X120758000Y-59498000D01*
X120758000Y-59224225D01*
X120642602Y-58945628D01*
X120429373Y-58732399D01*
X120150776Y-58617000D01*
X119814500Y-58617000D01*
X119625000Y-58806500D01*
X118875000Y-58806500D01*
X118685500Y-58617000D01*
X118349224Y-58617000D01*
X118250082Y-58658066D01*
X118654074Y-58254074D01*
X118854589Y-57953982D01*
X118925000Y-57600000D01*
X118925000Y-57312948D01*
X118927933Y-57312396D01*
X119183198Y-57148138D01*
X119354446Y-56897508D01*
X119414693Y-56600000D01*
X119414693Y-55100000D01*
X119362396Y-54822067D01*
X119198138Y-54566802D01*
X119101452Y-54500740D01*
X119183198Y-54448138D01*
X119354446Y-54197508D01*
X119414693Y-53900000D01*
X119414693Y-52400000D01*
X119362396Y-52122067D01*
X119198138Y-51866802D01*
X118975000Y-51714338D01*
X118975000Y-51003413D01*
X118983198Y-50998138D01*
X118997761Y-50976825D01*
X119001862Y-50983198D01*
X119252492Y-51154446D01*
X119550000Y-51214693D01*
X119996814Y-51214693D01*
X120300000Y-51275001D01*
X120300005Y-51275000D01*
X122118236Y-51275000D01*
X122137604Y-51377933D01*
X122301862Y-51633198D01*
X122552492Y-51804446D01*
X122850000Y-51864693D01*
X124150000Y-51864693D01*
X124427933Y-51812396D01*
X124683198Y-51648138D01*
X124854446Y-51397508D01*
X124914693Y-51100000D01*
X124914693Y-49600000D01*
X124862396Y-49322067D01*
X124698138Y-49066802D01*
X124601452Y-49000740D01*
X124683198Y-48948138D01*
X124854446Y-48697508D01*
X124914693Y-48400000D01*
X124914693Y-46900000D01*
X124862396Y-46622067D01*
X124698138Y-46366802D01*
X124447508Y-46195554D01*
X124425000Y-46190996D01*
X124425000Y-45312948D01*
X124427933Y-45312396D01*
X124683198Y-45148138D01*
X124854446Y-44897508D01*
X124914693Y-44600000D01*
X124914693Y-43100000D01*
X124862396Y-42822067D01*
X124698138Y-42566802D01*
X124601452Y-42500740D01*
X124683198Y-42448138D01*
X124854446Y-42197508D01*
X124864067Y-42150000D01*
X127335786Y-42150000D01*
X128400000Y-43214214D01*
X128400000Y-43214214D01*
G37*
X128400000Y-43214214D02*
X128400000Y-81969628D01*
X128069696Y-81748926D01*
X127400000Y-81615715D01*
X126730304Y-81748926D01*
X126162563Y-82128278D01*
X125783211Y-82696019D01*
X125650000Y-83365715D01*
X125650000Y-83434285D01*
X125783211Y-84103981D01*
X126162563Y-84671722D01*
X126730304Y-85051074D01*
X127400000Y-85184285D01*
X128069696Y-85051074D01*
X128400000Y-84830372D01*
X128400000Y-90969628D01*
X128069696Y-90748926D01*
X127400000Y-90615715D01*
X126730304Y-90748926D01*
X126162563Y-91128278D01*
X125783211Y-91696019D01*
X125650000Y-92365715D01*
X125650000Y-92434285D01*
X125783211Y-93103981D01*
X126162563Y-93671722D01*
X126730304Y-94051074D01*
X126984207Y-94101579D01*
X126885786Y-94200000D01*
X122600005Y-94200000D01*
X122600000Y-94199999D01*
X122217316Y-94276120D01*
X121892893Y-94492893D01*
X113964693Y-102421093D01*
X113964693Y-101893455D01*
X114854074Y-101004074D01*
X115054589Y-100703982D01*
X115082296Y-100564693D01*
X115200000Y-100564693D01*
X115477933Y-100512396D01*
X115733198Y-100348138D01*
X115904446Y-100097508D01*
X115964693Y-99800000D01*
X115964693Y-99449521D01*
X124607107Y-90807107D01*
X124823880Y-90482684D01*
X124890834Y-90146085D01*
X125314214Y-89863192D01*
X125747759Y-89214345D01*
X125900000Y-88448978D01*
X125900000Y-87351022D01*
X125747759Y-86585655D01*
X125314214Y-85936808D01*
X124665367Y-85503263D01*
X123900000Y-85351022D01*
X123134633Y-85503263D01*
X123004457Y-85590243D01*
X122900000Y-85485786D01*
X122900000Y-80006961D01*
X123933699Y-80006961D01*
X124127361Y-80281784D01*
X125021149Y-80371592D01*
X125472639Y-80281784D01*
X125666301Y-80006961D01*
X124800000Y-79140660D01*
X123933699Y-80006961D01*
X122900000Y-80006961D01*
X122900000Y-78919340D01*
X123739340Y-78080000D01*
X125860660Y-78080000D01*
X126726961Y-78946301D01*
X127001784Y-78752639D01*
X127091592Y-77858851D01*
X127001784Y-77407361D01*
X126726961Y-77213699D01*
X125860660Y-78080000D01*
X123739340Y-78080000D01*
X122900000Y-77240660D01*
X122900000Y-76153039D01*
X123933699Y-76153039D01*
X124800000Y-77019340D01*
X125666301Y-76153039D01*
X125472639Y-75878216D01*
X124578851Y-75788408D01*
X124127361Y-75878216D01*
X123933699Y-76153039D01*
X122900000Y-76153039D01*
X122900000Y-75814214D01*
X123449521Y-75264693D01*
X126300000Y-75264693D01*
X126577933Y-75212396D01*
X126833198Y-75048138D01*
X127004446Y-74797508D01*
X127064693Y-74500000D01*
X127064693Y-71500000D01*
X127012396Y-71222067D01*
X126848138Y-70966802D01*
X126597508Y-70795554D01*
X126300000Y-70735307D01*
X123300000Y-70735307D01*
X123022067Y-70787604D01*
X122766802Y-70951862D01*
X122595554Y-71202492D01*
X122535307Y-71500000D01*
X122535307Y-73350480D01*
X121192893Y-74692893D01*
X120976120Y-75017316D01*
X120926914Y-75264693D01*
X120900000Y-75400000D01*
X120900000Y-85900000D01*
X120976120Y-86282684D01*
X121192893Y-86607107D01*
X121906107Y-87320321D01*
X121900000Y-87351022D01*
X121900000Y-88448978D01*
X122052241Y-89214345D01*
X122485786Y-89863192D01*
X122627742Y-89958044D01*
X115150479Y-97435307D01*
X113200000Y-97435307D01*
X112922067Y-97487604D01*
X112666802Y-97651862D01*
X112495554Y-97902492D01*
X112435307Y-98200000D01*
X112435307Y-99800000D01*
X112487604Y-100077933D01*
X112651862Y-100333198D01*
X112804417Y-100437435D01*
X112556545Y-100685307D01*
X111700000Y-100685307D01*
X111422067Y-100737604D01*
X111247401Y-100849998D01*
X110971972Y-100849998D01*
X110929373Y-100807399D01*
X110650776Y-100692000D01*
X110314500Y-100692000D01*
X110125000Y-100881500D01*
X110125000Y-101775000D01*
X110500000Y-101775000D01*
X110500000Y-102425000D01*
X110125000Y-102425000D01*
X110125000Y-103318500D01*
X110314500Y-103508000D01*
X110650776Y-103508000D01*
X110929373Y-103392601D01*
X110971972Y-103350002D01*
X111249633Y-103350002D01*
X111402492Y-103454446D01*
X111700000Y-103514693D01*
X112671094Y-103514693D01*
X109592893Y-106592893D01*
X109376120Y-106917316D01*
X109313523Y-107232013D01*
X109300000Y-107300000D01*
X109300000Y-111642000D01*
X108989500Y-111642000D01*
X108800000Y-111831500D01*
X108800000Y-112800000D01*
X109300000Y-112800000D01*
X109300000Y-113600000D01*
X109200005Y-113600000D01*
X109200000Y-113599999D01*
X109199995Y-113600000D01*
X108800000Y-113600000D01*
X108800000Y-113687690D01*
X108569220Y-113841893D01*
X108406000Y-113909334D01*
X108315175Y-114000000D01*
X107800000Y-114000000D01*
X107800000Y-113600000D01*
X107300000Y-113600000D01*
X107300000Y-112800000D01*
X107800000Y-112800000D01*
X107800000Y-111831500D01*
X107610500Y-111642000D01*
X107149224Y-111642000D01*
X107125000Y-111652034D01*
X107125000Y-104200000D01*
X107074388Y-103945554D01*
X107054589Y-103846017D01*
X106854074Y-103545926D01*
X105922648Y-102614500D01*
X108242000Y-102614500D01*
X108242000Y-102900775D01*
X108357398Y-103179372D01*
X108570627Y-103392601D01*
X108849224Y-103508000D01*
X109185500Y-103508000D01*
X109375000Y-103318500D01*
X109375000Y-102425000D01*
X108431500Y-102425000D01*
X108242000Y-102614500D01*
X105922648Y-102614500D01*
X104854074Y-101545926D01*
X104553983Y-101345411D01*
X104321789Y-101299225D01*
X108242000Y-101299225D01*
X108242000Y-101585500D01*
X108431500Y-101775000D01*
X109375000Y-101775000D01*
X109375000Y-100881500D01*
X109185500Y-100692000D01*
X108849224Y-100692000D01*
X108570627Y-100807399D01*
X108357398Y-101020628D01*
X108242000Y-101299225D01*
X104321789Y-101299225D01*
X104200000Y-101275000D01*
X102641468Y-101275000D01*
X102617396Y-101147067D01*
X102530000Y-101011249D01*
X102530000Y-100378148D01*
X102741325Y-100166823D01*
X102751862Y-100183198D01*
X103002492Y-100354446D01*
X103300000Y-100414693D01*
X104800000Y-100414693D01*
X105077933Y-100362396D01*
X105333198Y-100198138D01*
X105399260Y-100101452D01*
X105451862Y-100183198D01*
X105702492Y-100354446D01*
X106000000Y-100414693D01*
X107500000Y-100414693D01*
X107777933Y-100362396D01*
X108033198Y-100198138D01*
X108204446Y-99947508D01*
X108209004Y-99925000D01*
X108458828Y-99925000D01*
X108487604Y-100077933D01*
X108651862Y-100333198D01*
X108902492Y-100504446D01*
X109200000Y-100564693D01*
X111200000Y-100564693D01*
X111477933Y-100512396D01*
X111733198Y-100348138D01*
X111904446Y-100097508D01*
X111964693Y-99800000D01*
X111964693Y-98200000D01*
X111912396Y-97922067D01*
X111748138Y-97666802D01*
X111497508Y-97495554D01*
X111200000Y-97435307D01*
X109200000Y-97435307D01*
X108922067Y-97487604D01*
X108666802Y-97651862D01*
X108495554Y-97902492D01*
X108460620Y-98075000D01*
X108212948Y-98075000D01*
X108212396Y-98072067D01*
X108048138Y-97816802D01*
X107797508Y-97645554D01*
X107500000Y-97585307D01*
X106000000Y-97585307D01*
X105722067Y-97637604D01*
X105466802Y-97801862D01*
X105400740Y-97898548D01*
X105348138Y-97816802D01*
X105097508Y-97645554D01*
X104800000Y-97585307D01*
X103300000Y-97585307D01*
X103022067Y-97637604D01*
X102766802Y-97801862D01*
X102595554Y-98052492D01*
X102590618Y-98076865D01*
X102246018Y-98145411D01*
X101945926Y-98345926D01*
X101945924Y-98345929D01*
X101575000Y-98716853D01*
X101575000Y-97581764D01*
X101677933Y-97562396D01*
X101933198Y-97398138D01*
X102104446Y-97147508D01*
X102164693Y-96850000D01*
X102164693Y-95550000D01*
X102112396Y-95272067D01*
X101948138Y-95016802D01*
X101697508Y-94845554D01*
X101400000Y-94785307D01*
X99900000Y-94785307D01*
X99622067Y-94837604D01*
X99366802Y-95001862D01*
X99300740Y-95098548D01*
X99248138Y-95016802D01*
X98997508Y-94845554D01*
X98827485Y-94811123D01*
X98804589Y-94696018D01*
X98604074Y-94395926D01*
X96954074Y-92745926D01*
X96653983Y-92545411D01*
X96300000Y-92475000D01*
X84300000Y-92475000D01*
X83946017Y-92545411D01*
X83645926Y-92745926D01*
X82479352Y-93912500D01*
X81625000Y-93912500D01*
X81625000Y-94225000D01*
X80875000Y-94225000D01*
X80875000Y-93912500D01*
X80500000Y-93912500D01*
X80500000Y-93287500D01*
X80875000Y-93287500D01*
X80875000Y-92406500D01*
X81625000Y-92406500D01*
X81625000Y-93287500D01*
X82568500Y-93287500D01*
X82758000Y-93098000D01*
X82758000Y-92824225D01*
X82642602Y-92545628D01*
X82429373Y-92332399D01*
X82150776Y-92217000D01*
X81814500Y-92217000D01*
X81625000Y-92406500D01*
X80875000Y-92406500D01*
X80685500Y-92217000D01*
X80349224Y-92217000D01*
X80070627Y-92332399D01*
X80053028Y-92349998D01*
X79913778Y-92349998D01*
X79797508Y-92270554D01*
X79500000Y-92210307D01*
X78427502Y-92210307D01*
X78250000Y-92175000D01*
X76666733Y-92175000D01*
X76279151Y-91786740D01*
X75889637Y-91625000D01*
X91900000Y-91625000D01*
X92253983Y-91554589D01*
X92554074Y-91354074D01*
X95092325Y-88815822D01*
X116613010Y-88815822D01*
X117074668Y-89345041D01*
X117728546Y-89742226D01*
X118025000Y-89635084D01*
X118025000Y-88525000D01*
X119775000Y-88525000D01*
X119775000Y-89635084D01*
X120071454Y-89742226D01*
X120725332Y-89345041D01*
X121186990Y-88815822D01*
X121107723Y-88525000D01*
X119775000Y-88525000D01*
X118025000Y-88525000D01*
X116692277Y-88525000D01*
X116613010Y-88815822D01*
X95092325Y-88815822D01*
X96354071Y-87554076D01*
X96354074Y-87554074D01*
X96554589Y-87253982D01*
X96566740Y-87192893D01*
X96608256Y-86984178D01*
X116613010Y-86984178D01*
X116692277Y-87275000D01*
X118025000Y-87275000D01*
X118025000Y-86164916D01*
X119775000Y-86164916D01*
X119775000Y-87275000D01*
X121107723Y-87275000D01*
X121186990Y-86984178D01*
X120725332Y-86454959D01*
X120071454Y-86057774D01*
X119775000Y-86164916D01*
X118025000Y-86164916D01*
X117728546Y-86057774D01*
X117074668Y-86454959D01*
X116613010Y-86984178D01*
X96608256Y-86984178D01*
X96625001Y-86900000D01*
X96625000Y-86899995D01*
X96625000Y-65814500D01*
X102617000Y-65814500D01*
X102617000Y-66150776D01*
X102732399Y-66429373D01*
X102945628Y-66642602D01*
X103224225Y-66758000D01*
X103498000Y-66758000D01*
X103687500Y-66568500D01*
X103687500Y-65625000D01*
X104312500Y-65625000D01*
X104312500Y-66568500D01*
X104502000Y-66758000D01*
X104775775Y-66758000D01*
X105054372Y-66642602D01*
X105267601Y-66429373D01*
X105383000Y-66150776D01*
X105383000Y-65814500D01*
X106117000Y-65814500D01*
X106117000Y-66150776D01*
X106232399Y-66429373D01*
X106303026Y-66500000D01*
X106232399Y-66570627D01*
X106117000Y-66849224D01*
X106117000Y-67185500D01*
X106306500Y-67375000D01*
X107187500Y-67375000D01*
X107187500Y-65625000D01*
X106306500Y-65625000D01*
X106117000Y-65814500D01*
X105383000Y-65814500D01*
X105193500Y-65625000D01*
X104312500Y-65625000D01*
X103687500Y-65625000D01*
X102806500Y-65625000D01*
X102617000Y-65814500D01*
X96625000Y-65814500D01*
X96625000Y-64983148D01*
X99383148Y-62225000D01*
X102610307Y-62225000D01*
X102610307Y-63500000D01*
X102662604Y-63777933D01*
X102749998Y-63913748D01*
X102749998Y-64053028D01*
X102732399Y-64070627D01*
X102617000Y-64349224D01*
X102617000Y-64685500D01*
X102806500Y-64875000D01*
X103687500Y-64875000D01*
X103687500Y-64500000D01*
X104312500Y-64500000D01*
X104312500Y-64875000D01*
X105193500Y-64875000D01*
X105383000Y-64685500D01*
X105383000Y-64349224D01*
X105267601Y-64070627D01*
X105250002Y-64053028D01*
X105250002Y-63913778D01*
X105329446Y-63797508D01*
X105354433Y-63674118D01*
X105703983Y-63604589D01*
X106004074Y-63404074D01*
X106110307Y-63297841D01*
X106110307Y-63500000D01*
X106162604Y-63777933D01*
X106249998Y-63913748D01*
X106249998Y-64053028D01*
X106232399Y-64070627D01*
X106117000Y-64349224D01*
X106117000Y-64685500D01*
X106306500Y-64875000D01*
X107187500Y-64875000D01*
X107187500Y-64500000D01*
X107812500Y-64500000D01*
X107812500Y-64875000D01*
X108059681Y-64875000D01*
X107945411Y-65046017D01*
X107899038Y-65279151D01*
X107875000Y-65400000D01*
X107875000Y-65625000D01*
X107812500Y-65625000D01*
X107812500Y-67375000D01*
X107875000Y-67375000D01*
X107875000Y-68125000D01*
X107812500Y-68125000D01*
X107812500Y-68500000D01*
X107187500Y-68500000D01*
X107187500Y-68125000D01*
X106306500Y-68125000D01*
X106117000Y-68314500D01*
X106117000Y-68650776D01*
X106232399Y-68929373D01*
X106249998Y-68946972D01*
X106249998Y-69086222D01*
X106170554Y-69202492D01*
X106110307Y-69500000D01*
X106110307Y-69873725D01*
X106095411Y-69896018D01*
X106025000Y-70250000D01*
X106095411Y-70603982D01*
X106110307Y-70626275D01*
X106110307Y-71000000D01*
X106162604Y-71277933D01*
X106326862Y-71533198D01*
X106577492Y-71704446D01*
X106875000Y-71764693D01*
X108125000Y-71764693D01*
X108402933Y-71712396D01*
X108658198Y-71548138D01*
X108829446Y-71297508D01*
X108889693Y-71000000D01*
X108889693Y-70986584D01*
X108951862Y-71083198D01*
X109202492Y-71254446D01*
X109500000Y-71314693D01*
X111600000Y-71314693D01*
X111877933Y-71262396D01*
X111980222Y-71196575D01*
X112249224Y-71308000D01*
X112735500Y-71308000D01*
X112925000Y-71118500D01*
X112925000Y-70100000D01*
X113975000Y-70100000D01*
X113975000Y-71118500D01*
X114164500Y-71308000D01*
X114650776Y-71308000D01*
X114929373Y-71192601D01*
X115142602Y-70979372D01*
X115197855Y-70845978D01*
X115232399Y-70929373D01*
X115445628Y-71142602D01*
X115724225Y-71258000D01*
X115998000Y-71258000D01*
X116187500Y-71068500D01*
X116187500Y-70125000D01*
X116812500Y-70125000D01*
X116812500Y-71068500D01*
X117002000Y-71258000D01*
X117275775Y-71258000D01*
X117554372Y-71142602D01*
X117767601Y-70929373D01*
X117883000Y-70650776D01*
X117883000Y-70314500D01*
X117693500Y-70125000D01*
X116812500Y-70125000D01*
X116187500Y-70125000D01*
X115306500Y-70125000D01*
X115200000Y-70231500D01*
X115068500Y-70100000D01*
X113975000Y-70100000D01*
X112925000Y-70100000D01*
X112400000Y-70100000D01*
X112400000Y-69200000D01*
X112925000Y-69200000D01*
X112925000Y-69014693D01*
X113975000Y-69014693D01*
X113975000Y-69200000D01*
X115068500Y-69200000D01*
X115117000Y-69151500D01*
X115117000Y-69185500D01*
X115306500Y-69375000D01*
X116187500Y-69375000D01*
X116187500Y-69000000D01*
X116812500Y-69000000D01*
X116812500Y-69375000D01*
X117693500Y-69375000D01*
X117883000Y-69185500D01*
X117883000Y-68849224D01*
X117767601Y-68570627D01*
X117750002Y-68553028D01*
X117750002Y-68413778D01*
X117829446Y-68297508D01*
X117889693Y-68000000D01*
X117889693Y-66500000D01*
X117837396Y-66222067D01*
X117673138Y-65966802D01*
X117422508Y-65795554D01*
X117125000Y-65735307D01*
X115875000Y-65735307D01*
X115597067Y-65787604D01*
X115341802Y-65951862D01*
X115202185Y-66156199D01*
X115048138Y-65916802D01*
X114797508Y-65745554D01*
X114500000Y-65685307D01*
X113775000Y-65685307D01*
X113775000Y-65381764D01*
X113877933Y-65362396D01*
X114133198Y-65198138D01*
X114304446Y-64947508D01*
X114364693Y-64650000D01*
X114364693Y-64172841D01*
X114845926Y-64654074D01*
X115146018Y-64854589D01*
X115283659Y-64881967D01*
X115287604Y-64902933D01*
X115451862Y-65158198D01*
X115702492Y-65329446D01*
X116000000Y-65389693D01*
X117500000Y-65389693D01*
X117777933Y-65337396D01*
X117913748Y-65250002D01*
X118053028Y-65250002D01*
X118070627Y-65267601D01*
X118349224Y-65383000D01*
X118685500Y-65383000D01*
X118875000Y-65193500D01*
X118875000Y-64312500D01*
X119625000Y-64312500D01*
X119625000Y-65193500D01*
X119814500Y-65383000D01*
X120150776Y-65383000D01*
X120429373Y-65267601D01*
X120642602Y-65054372D01*
X120758000Y-64775775D01*
X120758000Y-64502000D01*
X120568500Y-64312500D01*
X119625000Y-64312500D01*
X118875000Y-64312500D01*
X118500000Y-64312500D01*
X118500000Y-63687500D01*
X118875000Y-63687500D01*
X118875000Y-62806500D01*
X119625000Y-62806500D01*
X119625000Y-63687500D01*
X120568500Y-63687500D01*
X120758000Y-63498000D01*
X120758000Y-63224225D01*
X120642602Y-62945628D01*
X120429373Y-62732399D01*
X120150776Y-62617000D01*
X119814500Y-62617000D01*
X119625000Y-62806500D01*
X118875000Y-62806500D01*
X118685500Y-62617000D01*
X118349224Y-62617000D01*
X118070627Y-62732399D01*
X118053028Y-62749998D01*
X117913778Y-62749998D01*
X117797508Y-62670554D01*
X117500000Y-62610307D01*
X116000000Y-62610307D01*
X115722067Y-62662604D01*
X115569151Y-62761003D01*
X114933148Y-62125000D01*
X116200000Y-62125000D01*
X116553983Y-62054589D01*
X116854074Y-61854074D01*
X117318454Y-61389693D01*
X117500000Y-61389693D01*
X117777933Y-61337396D01*
X117913748Y-61250002D01*
X118053028Y-61250002D01*
X118070627Y-61267601D01*
X118349224Y-61383000D01*
X118685500Y-61383000D01*
X118875000Y-61193500D01*
X118875000Y-60312500D01*
X119625000Y-60312500D01*
X119625000Y-61193500D01*
X119814500Y-61383000D01*
X120150776Y-61383000D01*
X120429373Y-61267601D01*
X120642602Y-61054372D01*
X120758000Y-60775775D01*
X120758000Y-60502000D01*
X120568500Y-60312500D01*
X119625000Y-60312500D01*
X118875000Y-60312500D01*
X118500000Y-60312500D01*
X118500000Y-59687500D01*
X118875000Y-59687500D01*
X118875000Y-58806500D01*
X119625000Y-58806500D01*
X119625000Y-59687500D01*
X120568500Y-59687500D01*
X120758000Y-59498000D01*
X120758000Y-59224225D01*
X120642602Y-58945628D01*
X120429373Y-58732399D01*
X120150776Y-58617000D01*
X119814500Y-58617000D01*
X119625000Y-58806500D01*
X118875000Y-58806500D01*
X118685500Y-58617000D01*
X118349224Y-58617000D01*
X118250082Y-58658066D01*
X118654074Y-58254074D01*
X118854589Y-57953982D01*
X118925000Y-57600000D01*
X118925000Y-57312948D01*
X118927933Y-57312396D01*
X119183198Y-57148138D01*
X119354446Y-56897508D01*
X119414693Y-56600000D01*
X119414693Y-55100000D01*
X119362396Y-54822067D01*
X119198138Y-54566802D01*
X119101452Y-54500740D01*
X119183198Y-54448138D01*
X119354446Y-54197508D01*
X119414693Y-53900000D01*
X119414693Y-52400000D01*
X119362396Y-52122067D01*
X119198138Y-51866802D01*
X118975000Y-51714338D01*
X118975000Y-51003413D01*
X118983198Y-50998138D01*
X118997761Y-50976825D01*
X119001862Y-50983198D01*
X119252492Y-51154446D01*
X119550000Y-51214693D01*
X119996814Y-51214693D01*
X120300000Y-51275001D01*
X120300005Y-51275000D01*
X122118236Y-51275000D01*
X122137604Y-51377933D01*
X122301862Y-51633198D01*
X122552492Y-51804446D01*
X122850000Y-51864693D01*
X124150000Y-51864693D01*
X124427933Y-51812396D01*
X124683198Y-51648138D01*
X124854446Y-51397508D01*
X124914693Y-51100000D01*
X124914693Y-49600000D01*
X124862396Y-49322067D01*
X124698138Y-49066802D01*
X124601452Y-49000740D01*
X124683198Y-48948138D01*
X124854446Y-48697508D01*
X124914693Y-48400000D01*
X124914693Y-46900000D01*
X124862396Y-46622067D01*
X124698138Y-46366802D01*
X124447508Y-46195554D01*
X124425000Y-46190996D01*
X124425000Y-45312948D01*
X124427933Y-45312396D01*
X124683198Y-45148138D01*
X124854446Y-44897508D01*
X124914693Y-44600000D01*
X124914693Y-43100000D01*
X124862396Y-42822067D01*
X124698138Y-42566802D01*
X124601452Y-42500740D01*
X124683198Y-42448138D01*
X124854446Y-42197508D01*
X124864067Y-42150000D01*
X127335786Y-42150000D01*
X128400000Y-43214214D01*
G36*
X104212500Y-109975000D02*
X104525000Y-109975000D01*
X104525000Y-110725000D01*
X104212500Y-110725000D01*
X104212500Y-111100000D01*
X103587500Y-111100000D01*
X103587500Y-110725000D01*
X103275000Y-110725000D01*
X103275000Y-109975000D01*
X103587500Y-109975000D01*
X103587500Y-109600000D01*
X104212500Y-109600000D01*
X104212500Y-109975000D01*
X104212500Y-109975000D01*
G37*
X104212500Y-109975000D02*
X104525000Y-109975000D01*
X104525000Y-110725000D01*
X104212500Y-110725000D01*
X104212500Y-111100000D01*
X103587500Y-111100000D01*
X103587500Y-110725000D01*
X103275000Y-110725000D01*
X103275000Y-109975000D01*
X103587500Y-109975000D01*
X103587500Y-109600000D01*
X104212500Y-109600000D01*
X104212500Y-109975000D01*
G36*
X85362604Y-98077933D02*
X85507154Y-98302571D01*
X85370554Y-98502492D01*
X85310307Y-98800000D01*
X85310307Y-100300000D01*
X85362604Y-100577933D01*
X85526862Y-100833198D01*
X85777492Y-101004446D01*
X86075000Y-101064693D01*
X87325000Y-101064693D01*
X87602933Y-101012396D01*
X87664580Y-100972728D01*
X88450211Y-101758359D01*
X88449732Y-102306961D01*
X88685208Y-102876857D01*
X89120849Y-103313260D01*
X89690333Y-103549730D01*
X90242064Y-103550211D01*
X90565924Y-103874071D01*
X90565926Y-103874074D01*
X90620153Y-103910307D01*
X90600000Y-103910307D01*
X90322067Y-103962604D01*
X90186252Y-104049998D01*
X90046972Y-104049998D01*
X90029373Y-104032399D01*
X89750776Y-103917000D01*
X89414500Y-103917000D01*
X89225000Y-104106500D01*
X89225000Y-104987500D01*
X89600000Y-104987500D01*
X89600000Y-105612500D01*
X89225000Y-105612500D01*
X89225000Y-105925000D01*
X88475000Y-105925000D01*
X88475000Y-105612500D01*
X87531500Y-105612500D01*
X87526074Y-105617926D01*
X86432373Y-104524225D01*
X87342000Y-104524225D01*
X87342000Y-104798000D01*
X87531500Y-104987500D01*
X88475000Y-104987500D01*
X88475000Y-104106500D01*
X88285500Y-103917000D01*
X87949224Y-103917000D01*
X87670627Y-104032399D01*
X87457398Y-104245628D01*
X87342000Y-104524225D01*
X86432373Y-104524225D01*
X85154074Y-103245926D01*
X84853983Y-103045411D01*
X84500000Y-102975000D01*
X76627415Y-102975000D01*
X76843525Y-102932013D01*
X77346382Y-102596016D01*
X77460651Y-102425000D01*
X78250065Y-102425000D01*
X78351862Y-102583198D01*
X78602492Y-102754446D01*
X78900000Y-102814693D01*
X80400000Y-102814693D01*
X80677933Y-102762396D01*
X80933198Y-102598138D01*
X80999260Y-102501452D01*
X81051862Y-102583198D01*
X81302492Y-102754446D01*
X81600000Y-102814693D01*
X83100000Y-102814693D01*
X83377933Y-102762396D01*
X83633198Y-102598138D01*
X83804446Y-102347508D01*
X83864693Y-102050000D01*
X83864693Y-100750000D01*
X83812396Y-100472067D01*
X83648138Y-100216802D01*
X83397508Y-100045554D01*
X83275000Y-100020745D01*
X83275000Y-99653148D01*
X83613236Y-99314912D01*
X83789634Y-99350000D01*
X83850366Y-99350000D01*
X84443525Y-99232013D01*
X84946382Y-98896016D01*
X85282379Y-98393159D01*
X85354086Y-98032664D01*
X85362604Y-98077933D01*
X85362604Y-98077933D01*
G37*
X85362604Y-98077933D02*
X85507154Y-98302571D01*
X85370554Y-98502492D01*
X85310307Y-98800000D01*
X85310307Y-100300000D01*
X85362604Y-100577933D01*
X85526862Y-100833198D01*
X85777492Y-101004446D01*
X86075000Y-101064693D01*
X87325000Y-101064693D01*
X87602933Y-101012396D01*
X87664580Y-100972728D01*
X88450211Y-101758359D01*
X88449732Y-102306961D01*
X88685208Y-102876857D01*
X89120849Y-103313260D01*
X89690333Y-103549730D01*
X90242064Y-103550211D01*
X90565924Y-103874071D01*
X90565926Y-103874074D01*
X90620153Y-103910307D01*
X90600000Y-103910307D01*
X90322067Y-103962604D01*
X90186252Y-104049998D01*
X90046972Y-104049998D01*
X90029373Y-104032399D01*
X89750776Y-103917000D01*
X89414500Y-103917000D01*
X89225000Y-104106500D01*
X89225000Y-104987500D01*
X89600000Y-104987500D01*
X89600000Y-105612500D01*
X89225000Y-105612500D01*
X89225000Y-105925000D01*
X88475000Y-105925000D01*
X88475000Y-105612500D01*
X87531500Y-105612500D01*
X87526074Y-105617926D01*
X86432373Y-104524225D01*
X87342000Y-104524225D01*
X87342000Y-104798000D01*
X87531500Y-104987500D01*
X88475000Y-104987500D01*
X88475000Y-104106500D01*
X88285500Y-103917000D01*
X87949224Y-103917000D01*
X87670627Y-104032399D01*
X87457398Y-104245628D01*
X87342000Y-104524225D01*
X86432373Y-104524225D01*
X85154074Y-103245926D01*
X84853983Y-103045411D01*
X84500000Y-102975000D01*
X76627415Y-102975000D01*
X76843525Y-102932013D01*
X77346382Y-102596016D01*
X77460651Y-102425000D01*
X78250065Y-102425000D01*
X78351862Y-102583198D01*
X78602492Y-102754446D01*
X78900000Y-102814693D01*
X80400000Y-102814693D01*
X80677933Y-102762396D01*
X80933198Y-102598138D01*
X80999260Y-102501452D01*
X81051862Y-102583198D01*
X81302492Y-102754446D01*
X81600000Y-102814693D01*
X83100000Y-102814693D01*
X83377933Y-102762396D01*
X83633198Y-102598138D01*
X83804446Y-102347508D01*
X83864693Y-102050000D01*
X83864693Y-100750000D01*
X83812396Y-100472067D01*
X83648138Y-100216802D01*
X83397508Y-100045554D01*
X83275000Y-100020745D01*
X83275000Y-99653148D01*
X83613236Y-99314912D01*
X83789634Y-99350000D01*
X83850366Y-99350000D01*
X84443525Y-99232013D01*
X84946382Y-98896016D01*
X85282379Y-98393159D01*
X85354086Y-98032664D01*
X85362604Y-98077933D01*
G36*
X89120849Y-98313260D02*
X89690333Y-98549730D01*
X90242064Y-98550211D01*
X91145924Y-99454071D01*
X91145926Y-99454074D01*
X91446018Y-99654589D01*
X91800000Y-99725000D01*
X97916852Y-99725000D01*
X98852160Y-100660307D01*
X98765000Y-100660307D01*
X98487067Y-100712604D01*
X98435689Y-100745665D01*
X98245775Y-100667000D01*
X98134500Y-100667000D01*
X97945000Y-100856500D01*
X97945000Y-101812500D01*
X98000307Y-101812500D01*
X98000307Y-102587500D01*
X97945000Y-102587500D01*
X97945000Y-103543500D01*
X98134500Y-103733000D01*
X98140000Y-103733000D01*
X98140000Y-104151852D01*
X97864283Y-104427569D01*
X97600000Y-104375000D01*
X95153186Y-104375000D01*
X95196016Y-104346382D01*
X95532013Y-103843525D01*
X95650000Y-103250366D01*
X95650000Y-103189634D01*
X95567922Y-102777000D01*
X96737000Y-102777000D01*
X96737000Y-103125776D01*
X96852399Y-103404373D01*
X97065628Y-103617602D01*
X97344225Y-103733000D01*
X97455500Y-103733000D01*
X97645000Y-103543500D01*
X97645000Y-102587500D01*
X96926500Y-102587500D01*
X96737000Y-102777000D01*
X95567922Y-102777000D01*
X95532013Y-102596475D01*
X95196016Y-102093618D01*
X94693159Y-101757621D01*
X94100000Y-101639634D01*
X93506841Y-101757621D01*
X93003984Y-102093618D01*
X92869425Y-102295000D01*
X91603147Y-102295000D01*
X91549789Y-102241642D01*
X91550268Y-101693039D01*
X91377218Y-101274224D01*
X96737000Y-101274224D01*
X96737000Y-101623000D01*
X96926500Y-101812500D01*
X97645000Y-101812500D01*
X97645000Y-100856500D01*
X97455500Y-100667000D01*
X97344225Y-100667000D01*
X97065628Y-100782398D01*
X96852399Y-100995627D01*
X96737000Y-101274224D01*
X91377218Y-101274224D01*
X91314792Y-101123143D01*
X90879151Y-100686740D01*
X90309667Y-100450270D01*
X89757937Y-100449789D01*
X88204074Y-98895926D01*
X88089693Y-98819499D01*
X88089693Y-98800000D01*
X88037396Y-98522067D01*
X87892846Y-98297429D01*
X88029446Y-98097508D01*
X88054255Y-97975000D01*
X88783180Y-97975000D01*
X89120849Y-98313260D01*
X89120849Y-98313260D01*
G37*
X89120849Y-98313260D02*
X89690333Y-98549730D01*
X90242064Y-98550211D01*
X91145924Y-99454071D01*
X91145926Y-99454074D01*
X91446018Y-99654589D01*
X91800000Y-99725000D01*
X97916852Y-99725000D01*
X98852160Y-100660307D01*
X98765000Y-100660307D01*
X98487067Y-100712604D01*
X98435689Y-100745665D01*
X98245775Y-100667000D01*
X98134500Y-100667000D01*
X97945000Y-100856500D01*
X97945000Y-101812500D01*
X98000307Y-101812500D01*
X98000307Y-102587500D01*
X97945000Y-102587500D01*
X97945000Y-103543500D01*
X98134500Y-103733000D01*
X98140000Y-103733000D01*
X98140000Y-104151852D01*
X97864283Y-104427569D01*
X97600000Y-104375000D01*
X95153186Y-104375000D01*
X95196016Y-104346382D01*
X95532013Y-103843525D01*
X95650000Y-103250366D01*
X95650000Y-103189634D01*
X95567922Y-102777000D01*
X96737000Y-102777000D01*
X96737000Y-103125776D01*
X96852399Y-103404373D01*
X97065628Y-103617602D01*
X97344225Y-103733000D01*
X97455500Y-103733000D01*
X97645000Y-103543500D01*
X97645000Y-102587500D01*
X96926500Y-102587500D01*
X96737000Y-102777000D01*
X95567922Y-102777000D01*
X95532013Y-102596475D01*
X95196016Y-102093618D01*
X94693159Y-101757621D01*
X94100000Y-101639634D01*
X93506841Y-101757621D01*
X93003984Y-102093618D01*
X92869425Y-102295000D01*
X91603147Y-102295000D01*
X91549789Y-102241642D01*
X91550268Y-101693039D01*
X91377218Y-101274224D01*
X96737000Y-101274224D01*
X96737000Y-101623000D01*
X96926500Y-101812500D01*
X97645000Y-101812500D01*
X97645000Y-100856500D01*
X97455500Y-100667000D01*
X97344225Y-100667000D01*
X97065628Y-100782398D01*
X96852399Y-100995627D01*
X96737000Y-101274224D01*
X91377218Y-101274224D01*
X91314792Y-101123143D01*
X90879151Y-100686740D01*
X90309667Y-100450270D01*
X89757937Y-100449789D01*
X88204074Y-98895926D01*
X88089693Y-98819499D01*
X88089693Y-98800000D01*
X88037396Y-98522067D01*
X87892846Y-98297429D01*
X88029446Y-98097508D01*
X88054255Y-97975000D01*
X88783180Y-97975000D01*
X89120849Y-98313260D01*
G36*
X74523143Y-91785208D02*
X74086740Y-92220849D01*
X73850270Y-92790333D01*
X73849732Y-93406961D01*
X74085208Y-93976857D01*
X74520849Y-94413260D01*
X75090333Y-94649730D01*
X75275000Y-94649891D01*
X75275000Y-96533267D01*
X74886740Y-96920849D01*
X74847171Y-97016141D01*
X74597508Y-96845554D01*
X74300000Y-96785307D01*
X72800000Y-96785307D01*
X72522067Y-96837604D01*
X72266802Y-97001862D01*
X72200740Y-97098548D01*
X72148138Y-97016802D01*
X71897508Y-96845554D01*
X71600000Y-96785307D01*
X70100000Y-96785307D01*
X69822067Y-96837604D01*
X69566802Y-97001862D01*
X69395554Y-97252492D01*
X69335307Y-97550000D01*
X69335307Y-98850000D01*
X69387604Y-99127933D01*
X69551862Y-99383198D01*
X69802492Y-99554446D01*
X69925000Y-99579255D01*
X69925000Y-100266853D01*
X69741902Y-100449951D01*
X69479151Y-100186740D01*
X68909667Y-99950270D01*
X68758286Y-99950138D01*
X68325000Y-99516852D01*
X68325000Y-94330805D01*
X69734881Y-94330805D01*
X69819983Y-94578846D01*
X70430064Y-94688239D01*
X70980017Y-94578846D01*
X71065119Y-94330805D01*
X70400000Y-93665685D01*
X69734881Y-94330805D01*
X68325000Y-94330805D01*
X68325000Y-93883148D01*
X68855947Y-93352201D01*
X68921154Y-93680017D01*
X69169195Y-93765119D01*
X69834315Y-93100000D01*
X70965685Y-93100000D01*
X71630805Y-93765119D01*
X71878846Y-93680017D01*
X71988239Y-93069936D01*
X71878846Y-92519983D01*
X71630805Y-92434881D01*
X70965685Y-93100000D01*
X69834315Y-93100000D01*
X69551472Y-92817157D01*
X70117157Y-92251472D01*
X70400000Y-92534315D01*
X71065119Y-91869195D01*
X70981337Y-91625000D01*
X74910876Y-91625000D01*
X74523143Y-91785208D01*
X74523143Y-91785208D01*
G37*
X74523143Y-91785208D02*
X74086740Y-92220849D01*
X73850270Y-92790333D01*
X73849732Y-93406961D01*
X74085208Y-93976857D01*
X74520849Y-94413260D01*
X75090333Y-94649730D01*
X75275000Y-94649891D01*
X75275000Y-96533267D01*
X74886740Y-96920849D01*
X74847171Y-97016141D01*
X74597508Y-96845554D01*
X74300000Y-96785307D01*
X72800000Y-96785307D01*
X72522067Y-96837604D01*
X72266802Y-97001862D01*
X72200740Y-97098548D01*
X72148138Y-97016802D01*
X71897508Y-96845554D01*
X71600000Y-96785307D01*
X70100000Y-96785307D01*
X69822067Y-96837604D01*
X69566802Y-97001862D01*
X69395554Y-97252492D01*
X69335307Y-97550000D01*
X69335307Y-98850000D01*
X69387604Y-99127933D01*
X69551862Y-99383198D01*
X69802492Y-99554446D01*
X69925000Y-99579255D01*
X69925000Y-100266853D01*
X69741902Y-100449951D01*
X69479151Y-100186740D01*
X68909667Y-99950270D01*
X68758286Y-99950138D01*
X68325000Y-99516852D01*
X68325000Y-94330805D01*
X69734881Y-94330805D01*
X69819983Y-94578846D01*
X70430064Y-94688239D01*
X70980017Y-94578846D01*
X71065119Y-94330805D01*
X70400000Y-93665685D01*
X69734881Y-94330805D01*
X68325000Y-94330805D01*
X68325000Y-93883148D01*
X68855947Y-93352201D01*
X68921154Y-93680017D01*
X69169195Y-93765119D01*
X69834315Y-93100000D01*
X70965685Y-93100000D01*
X71630805Y-93765119D01*
X71878846Y-93680017D01*
X71988239Y-93069936D01*
X71878846Y-92519983D01*
X71630805Y-92434881D01*
X70965685Y-93100000D01*
X69834315Y-93100000D01*
X69551472Y-92817157D01*
X70117157Y-92251472D01*
X70400000Y-92534315D01*
X71065119Y-91869195D01*
X70981337Y-91625000D01*
X74910876Y-91625000D01*
X74523143Y-91785208D01*
G36*
X104837604Y-53552933D02*
X105001862Y-53808198D01*
X105252492Y-53979446D01*
X105550000Y-54039693D01*
X106000000Y-54039693D01*
X106103671Y-54020186D01*
X106200000Y-54039693D01*
X106650000Y-54039693D01*
X106753671Y-54020186D01*
X106850000Y-54039693D01*
X107300000Y-54039693D01*
X107344960Y-54031233D01*
X107349225Y-54033000D01*
X107423000Y-54033000D01*
X107443264Y-54012736D01*
X107577933Y-53987396D01*
X107725322Y-53892554D01*
X107852492Y-53979446D01*
X108004159Y-54010159D01*
X108027000Y-54033000D01*
X108100775Y-54033000D01*
X108106086Y-54030800D01*
X108150000Y-54039693D01*
X108600000Y-54039693D01*
X108703671Y-54020186D01*
X108750000Y-54029568D01*
X108750000Y-54475000D01*
X108820411Y-54828983D01*
X109020926Y-55129074D01*
X109845926Y-55954074D01*
X110146017Y-56154589D01*
X110500000Y-56225000D01*
X112016852Y-56225000D01*
X112650000Y-56858148D01*
X112650000Y-57967000D01*
X112533050Y-57967000D01*
X112500000Y-57960307D01*
X112050000Y-57960307D01*
X112014431Y-57967000D01*
X111674998Y-57967000D01*
X111674998Y-58075066D01*
X111624678Y-58107446D01*
X111497508Y-58020554D01*
X111345841Y-57989841D01*
X111323000Y-57967000D01*
X111249225Y-57967000D01*
X111243914Y-57969200D01*
X111200000Y-57960307D01*
X110750000Y-57960307D01*
X110705040Y-57968767D01*
X110700775Y-57967000D01*
X110627000Y-57967000D01*
X110606736Y-57987264D01*
X110472067Y-58012604D01*
X110324678Y-58107446D01*
X110197508Y-58020554D01*
X110045841Y-57989841D01*
X110023000Y-57967000D01*
X109949225Y-57967000D01*
X109943914Y-57969200D01*
X109900000Y-57960307D01*
X109450000Y-57960307D01*
X109346329Y-57979814D01*
X109250000Y-57960307D01*
X108800000Y-57960307D01*
X108696329Y-57979814D01*
X108600000Y-57960307D01*
X108150000Y-57960307D01*
X108105040Y-57968767D01*
X108100775Y-57967000D01*
X108027000Y-57967000D01*
X108006736Y-57987264D01*
X107872067Y-58012604D01*
X107724678Y-58107446D01*
X107597508Y-58020554D01*
X107445841Y-57989841D01*
X107423000Y-57967000D01*
X107349225Y-57967000D01*
X107343914Y-57969200D01*
X107300000Y-57960307D01*
X106850000Y-57960307D01*
X106746329Y-57979814D01*
X106650000Y-57960307D01*
X106200000Y-57960307D01*
X106096329Y-57979814D01*
X106000000Y-57960307D01*
X105550000Y-57960307D01*
X105272067Y-58012604D01*
X105016802Y-58176862D01*
X104845554Y-58427492D01*
X104795432Y-58675000D01*
X98500000Y-58675000D01*
X98146018Y-58745411D01*
X97845926Y-58945926D01*
X92845926Y-63945926D01*
X92645411Y-64246017D01*
X92621662Y-64365411D01*
X92575000Y-64600000D01*
X92575000Y-85916852D01*
X90016852Y-88475000D01*
X89673096Y-88475000D01*
X89854074Y-88354074D01*
X92054074Y-86154074D01*
X92254589Y-85853982D01*
X92325000Y-85500000D01*
X92325000Y-63683148D01*
X96004071Y-60004076D01*
X96004074Y-60004074D01*
X97783148Y-58225000D01*
X100300000Y-58225000D01*
X100653983Y-58154589D01*
X100954074Y-57954074D01*
X101654071Y-57254076D01*
X101654074Y-57254074D01*
X101854589Y-56953982D01*
X101925000Y-56600000D01*
X101925000Y-55264693D01*
X102000000Y-55264693D01*
X102277933Y-55212396D01*
X102533198Y-55048138D01*
X102704446Y-54797508D01*
X102764693Y-54500000D01*
X102764693Y-53325000D01*
X104794715Y-53325000D01*
X104837604Y-53552933D01*
X104837604Y-53552933D01*
G37*
X104837604Y-53552933D02*
X105001862Y-53808198D01*
X105252492Y-53979446D01*
X105550000Y-54039693D01*
X106000000Y-54039693D01*
X106103671Y-54020186D01*
X106200000Y-54039693D01*
X106650000Y-54039693D01*
X106753671Y-54020186D01*
X106850000Y-54039693D01*
X107300000Y-54039693D01*
X107344960Y-54031233D01*
X107349225Y-54033000D01*
X107423000Y-54033000D01*
X107443264Y-54012736D01*
X107577933Y-53987396D01*
X107725322Y-53892554D01*
X107852492Y-53979446D01*
X108004159Y-54010159D01*
X108027000Y-54033000D01*
X108100775Y-54033000D01*
X108106086Y-54030800D01*
X108150000Y-54039693D01*
X108600000Y-54039693D01*
X108703671Y-54020186D01*
X108750000Y-54029568D01*
X108750000Y-54475000D01*
X108820411Y-54828983D01*
X109020926Y-55129074D01*
X109845926Y-55954074D01*
X110146017Y-56154589D01*
X110500000Y-56225000D01*
X112016852Y-56225000D01*
X112650000Y-56858148D01*
X112650000Y-57967000D01*
X112533050Y-57967000D01*
X112500000Y-57960307D01*
X112050000Y-57960307D01*
X112014431Y-57967000D01*
X111674998Y-57967000D01*
X111674998Y-58075066D01*
X111624678Y-58107446D01*
X111497508Y-58020554D01*
X111345841Y-57989841D01*
X111323000Y-57967000D01*
X111249225Y-57967000D01*
X111243914Y-57969200D01*
X111200000Y-57960307D01*
X110750000Y-57960307D01*
X110705040Y-57968767D01*
X110700775Y-57967000D01*
X110627000Y-57967000D01*
X110606736Y-57987264D01*
X110472067Y-58012604D01*
X110324678Y-58107446D01*
X110197508Y-58020554D01*
X110045841Y-57989841D01*
X110023000Y-57967000D01*
X109949225Y-57967000D01*
X109943914Y-57969200D01*
X109900000Y-57960307D01*
X109450000Y-57960307D01*
X109346329Y-57979814D01*
X109250000Y-57960307D01*
X108800000Y-57960307D01*
X108696329Y-57979814D01*
X108600000Y-57960307D01*
X108150000Y-57960307D01*
X108105040Y-57968767D01*
X108100775Y-57967000D01*
X108027000Y-57967000D01*
X108006736Y-57987264D01*
X107872067Y-58012604D01*
X107724678Y-58107446D01*
X107597508Y-58020554D01*
X107445841Y-57989841D01*
X107423000Y-57967000D01*
X107349225Y-57967000D01*
X107343914Y-57969200D01*
X107300000Y-57960307D01*
X106850000Y-57960307D01*
X106746329Y-57979814D01*
X106650000Y-57960307D01*
X106200000Y-57960307D01*
X106096329Y-57979814D01*
X106000000Y-57960307D01*
X105550000Y-57960307D01*
X105272067Y-58012604D01*
X105016802Y-58176862D01*
X104845554Y-58427492D01*
X104795432Y-58675000D01*
X98500000Y-58675000D01*
X98146018Y-58745411D01*
X97845926Y-58945926D01*
X92845926Y-63945926D01*
X92645411Y-64246017D01*
X92621662Y-64365411D01*
X92575000Y-64600000D01*
X92575000Y-85916852D01*
X90016852Y-88475000D01*
X89673096Y-88475000D01*
X89854074Y-88354074D01*
X92054074Y-86154074D01*
X92254589Y-85853982D01*
X92325000Y-85500000D01*
X92325000Y-63683148D01*
X96004071Y-60004076D01*
X96004074Y-60004074D01*
X97783148Y-58225000D01*
X100300000Y-58225000D01*
X100653983Y-58154589D01*
X100954074Y-57954074D01*
X101654071Y-57254076D01*
X101654074Y-57254074D01*
X101854589Y-56953982D01*
X101925000Y-56600000D01*
X101925000Y-55264693D01*
X102000000Y-55264693D01*
X102277933Y-55212396D01*
X102533198Y-55048138D01*
X102704446Y-54797508D01*
X102764693Y-54500000D01*
X102764693Y-53325000D01*
X104794715Y-53325000D01*
X104837604Y-53552933D01*
G36*
X111551862Y-65183198D02*
X111802492Y-65354446D01*
X111925000Y-65379255D01*
X111925000Y-65764166D01*
X111750776Y-65692000D01*
X111264500Y-65692000D01*
X111075000Y-65881500D01*
X111075000Y-66900000D01*
X111600000Y-66900000D01*
X111600000Y-67800000D01*
X111075000Y-67800000D01*
X111075000Y-67985307D01*
X110025000Y-67985307D01*
X110025000Y-67800000D01*
X109725000Y-67800000D01*
X109725000Y-66900000D01*
X110025000Y-66900000D01*
X110025000Y-65881500D01*
X109835500Y-65692000D01*
X109816148Y-65692000D01*
X110093455Y-65414693D01*
X110900000Y-65414693D01*
X111177933Y-65362396D01*
X111433198Y-65198138D01*
X111499260Y-65101452D01*
X111551862Y-65183198D01*
X111551862Y-65183198D01*
G37*
X111551862Y-65183198D02*
X111802492Y-65354446D01*
X111925000Y-65379255D01*
X111925000Y-65764166D01*
X111750776Y-65692000D01*
X111264500Y-65692000D01*
X111075000Y-65881500D01*
X111075000Y-66900000D01*
X111600000Y-66900000D01*
X111600000Y-67800000D01*
X111075000Y-67800000D01*
X111075000Y-67985307D01*
X110025000Y-67985307D01*
X110025000Y-67800000D01*
X109725000Y-67800000D01*
X109725000Y-66900000D01*
X110025000Y-66900000D01*
X110025000Y-65881500D01*
X109835500Y-65692000D01*
X109816148Y-65692000D01*
X110093455Y-65414693D01*
X110900000Y-65414693D01*
X111177933Y-65362396D01*
X111433198Y-65198138D01*
X111499260Y-65101452D01*
X111551862Y-65183198D01*
G36*
X63012500Y-65775000D02*
X63325000Y-65775000D01*
X63325000Y-66525000D01*
X63012500Y-66525000D01*
X63012500Y-66900000D01*
X62387500Y-66900000D01*
X62387500Y-66525000D01*
X61506500Y-66525000D01*
X61317000Y-66714500D01*
X61317000Y-67050776D01*
X61432399Y-67329373D01*
X61449998Y-67346972D01*
X61449998Y-67486222D01*
X61370554Y-67602492D01*
X61345745Y-67725000D01*
X60916820Y-67725000D01*
X60625000Y-67432669D01*
X60625000Y-66583148D01*
X61469824Y-65738324D01*
X61506500Y-65775000D01*
X62387500Y-65775000D01*
X62387500Y-65464693D01*
X63012500Y-65464693D01*
X63012500Y-65775000D01*
X63012500Y-65775000D01*
G37*
X63012500Y-65775000D02*
X63325000Y-65775000D01*
X63325000Y-66525000D01*
X63012500Y-66525000D01*
X63012500Y-66900000D01*
X62387500Y-66900000D01*
X62387500Y-66525000D01*
X61506500Y-66525000D01*
X61317000Y-66714500D01*
X61317000Y-67050776D01*
X61432399Y-67329373D01*
X61449998Y-67346972D01*
X61449998Y-67486222D01*
X61370554Y-67602492D01*
X61345745Y-67725000D01*
X60916820Y-67725000D01*
X60625000Y-67432669D01*
X60625000Y-66583148D01*
X61469824Y-65738324D01*
X61506500Y-65775000D01*
X62387500Y-65775000D01*
X62387500Y-65464693D01*
X63012500Y-65464693D01*
X63012500Y-65775000D01*
G36*
X64145926Y-65845926D02*
X64083000Y-65940101D01*
X64083000Y-64899998D01*
X64074193Y-64899998D01*
X64079255Y-64875000D01*
X64750000Y-64875000D01*
X65103983Y-64804589D01*
X65354963Y-64636889D01*
X64145926Y-65845926D01*
X64145926Y-65845926D01*
G37*
X64145926Y-65845926D02*
X64083000Y-65940101D01*
X64083000Y-64899998D01*
X64074193Y-64899998D01*
X64079255Y-64875000D01*
X64750000Y-64875000D01*
X65103983Y-64804589D01*
X65354963Y-64636889D01*
X64145926Y-65845926D01*
G36*
X56344798Y-56072946D02*
X56299634Y-56300000D01*
X56417621Y-56893159D01*
X56753618Y-57396016D01*
X57256475Y-57732013D01*
X57849634Y-57850000D01*
X57910366Y-57850000D01*
X58086764Y-57814912D01*
X59146853Y-58875000D01*
X57800000Y-58875000D01*
X57691055Y-58896670D01*
X57580080Y-58901523D01*
X57515695Y-58931551D01*
X57446018Y-58945411D01*
X57353658Y-59007124D01*
X57252989Y-59054075D01*
X55997182Y-59975000D01*
X54883148Y-59975000D01*
X53741148Y-58833000D01*
X54955002Y-58833000D01*
X54955002Y-58075000D01*
X54763000Y-58075000D01*
X54763000Y-57877000D01*
X54573500Y-57687500D01*
X53855000Y-57687500D01*
X53855000Y-58075000D01*
X53555000Y-58075000D01*
X53555000Y-57687500D01*
X53499693Y-57687500D01*
X53499693Y-56912500D01*
X53555000Y-56912500D01*
X53555000Y-55956500D01*
X53855000Y-55956500D01*
X53855000Y-56912500D01*
X54573500Y-56912500D01*
X54763000Y-56723000D01*
X54763000Y-56374224D01*
X54647601Y-56095627D01*
X54434372Y-55882398D01*
X54155775Y-55767000D01*
X54044500Y-55767000D01*
X53855000Y-55956500D01*
X53555000Y-55956500D01*
X53365500Y-55767000D01*
X53326583Y-55767000D01*
X53289589Y-55581018D01*
X53252159Y-55525000D01*
X55796852Y-55525000D01*
X56344798Y-56072946D01*
X56344798Y-56072946D01*
G37*
X56344798Y-56072946D02*
X56299634Y-56300000D01*
X56417621Y-56893159D01*
X56753618Y-57396016D01*
X57256475Y-57732013D01*
X57849634Y-57850000D01*
X57910366Y-57850000D01*
X58086764Y-57814912D01*
X59146853Y-58875000D01*
X57800000Y-58875000D01*
X57691055Y-58896670D01*
X57580080Y-58901523D01*
X57515695Y-58931551D01*
X57446018Y-58945411D01*
X57353658Y-59007124D01*
X57252989Y-59054075D01*
X55997182Y-59975000D01*
X54883148Y-59975000D01*
X53741148Y-58833000D01*
X54955002Y-58833000D01*
X54955002Y-58075000D01*
X54763000Y-58075000D01*
X54763000Y-57877000D01*
X54573500Y-57687500D01*
X53855000Y-57687500D01*
X53855000Y-58075000D01*
X53555000Y-58075000D01*
X53555000Y-57687500D01*
X53499693Y-57687500D01*
X53499693Y-56912500D01*
X53555000Y-56912500D01*
X53555000Y-55956500D01*
X53855000Y-55956500D01*
X53855000Y-56912500D01*
X54573500Y-56912500D01*
X54763000Y-56723000D01*
X54763000Y-56374224D01*
X54647601Y-56095627D01*
X54434372Y-55882398D01*
X54155775Y-55767000D01*
X54044500Y-55767000D01*
X53855000Y-55956500D01*
X53555000Y-55956500D01*
X53365500Y-55767000D01*
X53326583Y-55767000D01*
X53289589Y-55581018D01*
X53252159Y-55525000D01*
X55796852Y-55525000D01*
X56344798Y-56072946D01*
G36*
X104916099Y-51124247D02*
X104845554Y-51227492D01*
X104795432Y-51475000D01*
X102300005Y-51475000D01*
X102300000Y-51474999D01*
X101946018Y-51545411D01*
X101645926Y-51745926D01*
X101256545Y-52135307D01*
X100000000Y-52135307D01*
X99722067Y-52187604D01*
X99466802Y-52351862D01*
X99295554Y-52602492D01*
X99235307Y-52900000D01*
X99235307Y-54500000D01*
X99287604Y-54777933D01*
X99451862Y-55033198D01*
X99702492Y-55204446D01*
X100000000Y-55264693D01*
X100075000Y-55264693D01*
X100075000Y-56216853D01*
X99916852Y-56375000D01*
X97400000Y-56375000D01*
X97046018Y-56445411D01*
X96745926Y-56645926D01*
X95350000Y-58041852D01*
X93954074Y-56645926D01*
X93653983Y-56445411D01*
X93300000Y-56375000D01*
X74449848Y-56375000D01*
X74450182Y-55992058D01*
X74325000Y-55689095D01*
X74325000Y-55483148D01*
X75518648Y-54289500D01*
X95242000Y-54289500D01*
X95242000Y-54650775D01*
X95357398Y-54929372D01*
X95570627Y-55142601D01*
X95849224Y-55258000D01*
X96310500Y-55258000D01*
X96500000Y-55068500D01*
X96500000Y-54100000D01*
X97500000Y-54100000D01*
X97500000Y-55068500D01*
X97689500Y-55258000D01*
X98150776Y-55258000D01*
X98429373Y-55142601D01*
X98642602Y-54929372D01*
X98758000Y-54650775D01*
X98758000Y-54289500D01*
X98568500Y-54100000D01*
X97500000Y-54100000D01*
X96500000Y-54100000D01*
X95431500Y-54100000D01*
X95242000Y-54289500D01*
X75518648Y-54289500D01*
X77058923Y-52749225D01*
X95242000Y-52749225D01*
X95242000Y-53110500D01*
X95431500Y-53300000D01*
X96500000Y-53300000D01*
X96500000Y-52331500D01*
X97500000Y-52331500D01*
X97500000Y-53300000D01*
X98568500Y-53300000D01*
X98758000Y-53110500D01*
X98758000Y-52749225D01*
X98642602Y-52470628D01*
X98429373Y-52257399D01*
X98150776Y-52142000D01*
X97689500Y-52142000D01*
X97500000Y-52331500D01*
X96500000Y-52331500D01*
X96310500Y-52142000D01*
X95849224Y-52142000D01*
X95570627Y-52257399D01*
X95357398Y-52470628D01*
X95242000Y-52749225D01*
X77058923Y-52749225D01*
X79183148Y-50625000D01*
X104416852Y-50625000D01*
X104916099Y-51124247D01*
X104916099Y-51124247D01*
G37*
X104916099Y-51124247D02*
X104845554Y-51227492D01*
X104795432Y-51475000D01*
X102300005Y-51475000D01*
X102300000Y-51474999D01*
X101946018Y-51545411D01*
X101645926Y-51745926D01*
X101256545Y-52135307D01*
X100000000Y-52135307D01*
X99722067Y-52187604D01*
X99466802Y-52351862D01*
X99295554Y-52602492D01*
X99235307Y-52900000D01*
X99235307Y-54500000D01*
X99287604Y-54777933D01*
X99451862Y-55033198D01*
X99702492Y-55204446D01*
X100000000Y-55264693D01*
X100075000Y-55264693D01*
X100075000Y-56216853D01*
X99916852Y-56375000D01*
X97400000Y-56375000D01*
X97046018Y-56445411D01*
X96745926Y-56645926D01*
X95350000Y-58041852D01*
X93954074Y-56645926D01*
X93653983Y-56445411D01*
X93300000Y-56375000D01*
X74449848Y-56375000D01*
X74450182Y-55992058D01*
X74325000Y-55689095D01*
X74325000Y-55483148D01*
X75518648Y-54289500D01*
X95242000Y-54289500D01*
X95242000Y-54650775D01*
X95357398Y-54929372D01*
X95570627Y-55142601D01*
X95849224Y-55258000D01*
X96310500Y-55258000D01*
X96500000Y-55068500D01*
X96500000Y-54100000D01*
X97500000Y-54100000D01*
X97500000Y-55068500D01*
X97689500Y-55258000D01*
X98150776Y-55258000D01*
X98429373Y-55142601D01*
X98642602Y-54929372D01*
X98758000Y-54650775D01*
X98758000Y-54289500D01*
X98568500Y-54100000D01*
X97500000Y-54100000D01*
X96500000Y-54100000D01*
X95431500Y-54100000D01*
X95242000Y-54289500D01*
X75518648Y-54289500D01*
X77058923Y-52749225D01*
X95242000Y-52749225D01*
X95242000Y-53110500D01*
X95431500Y-53300000D01*
X96500000Y-53300000D01*
X96500000Y-52331500D01*
X97500000Y-52331500D01*
X97500000Y-53300000D01*
X98568500Y-53300000D01*
X98758000Y-53110500D01*
X98758000Y-52749225D01*
X98642602Y-52470628D01*
X98429373Y-52257399D01*
X98150776Y-52142000D01*
X97689500Y-52142000D01*
X97500000Y-52331500D01*
X96500000Y-52331500D01*
X96310500Y-52142000D01*
X95849224Y-52142000D01*
X95570627Y-52257399D01*
X95357398Y-52470628D01*
X95242000Y-52749225D01*
X77058923Y-52749225D01*
X79183148Y-50625000D01*
X104416852Y-50625000D01*
X104916099Y-51124247D01*
G36*
X91742000Y-32410500D02*
X91931500Y-32600000D01*
X93000000Y-32600000D01*
X93000000Y-32200000D01*
X94000000Y-32200000D01*
X94000000Y-32600000D01*
X95068500Y-32600000D01*
X95258000Y-32410500D01*
X95258000Y-32200000D01*
X95735307Y-32200000D01*
X95735307Y-33800000D01*
X95787604Y-34077933D01*
X95951862Y-34333198D01*
X96202492Y-34504446D01*
X96250000Y-34514067D01*
X96250000Y-35050000D01*
X96345151Y-35528354D01*
X96616117Y-35933883D01*
X96885307Y-36203073D01*
X96885307Y-36950000D01*
X96937604Y-37227933D01*
X96951804Y-37250000D01*
X94114693Y-37250000D01*
X94114693Y-36600000D01*
X94062396Y-36322067D01*
X93898138Y-36066802D01*
X93647508Y-35895554D01*
X93350000Y-35835307D01*
X91350000Y-35835307D01*
X91072067Y-35887604D01*
X90816802Y-36051862D01*
X90645554Y-36302492D01*
X90585307Y-36600000D01*
X90585307Y-40400000D01*
X90637604Y-40677933D01*
X90801862Y-40933198D01*
X91052492Y-41104446D01*
X91350000Y-41164693D01*
X93350000Y-41164693D01*
X93627933Y-41112396D01*
X93883198Y-40948138D01*
X94054446Y-40697508D01*
X94114693Y-40400000D01*
X94114693Y-39750000D01*
X96953811Y-39750000D01*
X96892000Y-39899225D01*
X96892000Y-40235500D01*
X97081500Y-40425000D01*
X98150000Y-40425000D01*
X98150000Y-40050000D01*
X98514728Y-40050000D01*
X98615474Y-40117316D01*
X98671646Y-40154849D01*
X99150000Y-40250000D01*
X99150000Y-40425000D01*
X100218500Y-40425000D01*
X100393500Y-40250000D01*
X101482234Y-40250000D01*
X102750000Y-41517767D01*
X102750000Y-43500000D01*
X102829566Y-43900001D01*
X102845151Y-43978354D01*
X103116117Y-44383883D01*
X106935307Y-48203073D01*
X106935307Y-48927159D01*
X106154074Y-48145926D01*
X105853983Y-47945411D01*
X105500000Y-47875000D01*
X73800005Y-47875000D01*
X73800000Y-47874999D01*
X73446018Y-47945411D01*
X73145926Y-48145926D01*
X71845926Y-49445926D01*
X71645411Y-49746017D01*
X71626016Y-49843525D01*
X71613682Y-49905534D01*
X67604074Y-45895926D01*
X67303983Y-45695411D01*
X66950000Y-45625000D01*
X62281764Y-45625000D01*
X62262396Y-45522067D01*
X62098138Y-45266802D01*
X62057761Y-45239213D01*
X62142602Y-45154372D01*
X62258000Y-44875775D01*
X62258000Y-44602000D01*
X62068500Y-44412500D01*
X61125000Y-44412500D01*
X61125000Y-44725000D01*
X60375000Y-44725000D01*
X60375000Y-44412500D01*
X60000000Y-44412500D01*
X60000000Y-43787500D01*
X60375000Y-43787500D01*
X60375000Y-42906500D01*
X61125000Y-42906500D01*
X61125000Y-43787500D01*
X62068500Y-43787500D01*
X62258000Y-43598000D01*
X62258000Y-43324225D01*
X62142602Y-43045628D01*
X61929373Y-42832399D01*
X61650776Y-42717000D01*
X61314500Y-42717000D01*
X61125000Y-42906500D01*
X60375000Y-42906500D01*
X60185500Y-42717000D01*
X59849224Y-42717000D01*
X59570627Y-42832399D01*
X59553028Y-42849998D01*
X59413778Y-42849998D01*
X59297508Y-42770554D01*
X59000000Y-42710307D01*
X58168455Y-42710307D01*
X56822648Y-41364500D01*
X96892000Y-41364500D01*
X96892000Y-41700775D01*
X97007398Y-41979372D01*
X97220627Y-42192601D01*
X97499224Y-42308000D01*
X97960500Y-42308000D01*
X98150000Y-42118500D01*
X98150000Y-41175000D01*
X99150000Y-41175000D01*
X99150000Y-42118500D01*
X99339500Y-42308000D01*
X99800776Y-42308000D01*
X100079373Y-42192601D01*
X100292602Y-41979372D01*
X100408000Y-41700775D01*
X100408000Y-41364500D01*
X100218500Y-41175000D01*
X99150000Y-41175000D01*
X98150000Y-41175000D01*
X97081500Y-41175000D01*
X96892000Y-41364500D01*
X56822648Y-41364500D01*
X56404074Y-40945926D01*
X56103983Y-40745411D01*
X55895655Y-40703972D01*
X55479151Y-40286740D01*
X54909667Y-40050270D01*
X54293039Y-40049732D01*
X53723143Y-40285208D01*
X53286740Y-40720849D01*
X53050270Y-41290333D01*
X53049732Y-41906961D01*
X53285208Y-42476857D01*
X53720849Y-42913260D01*
X54290333Y-43149730D01*
X54906961Y-43150268D01*
X55476857Y-42914792D01*
X55616873Y-42775021D01*
X56735307Y-43893455D01*
X56735307Y-44725000D01*
X56780867Y-44967132D01*
X56672067Y-44987604D01*
X56416802Y-45151862D01*
X56245554Y-45402492D01*
X56185307Y-45700000D01*
X56185307Y-46775000D01*
X47796010Y-46775000D01*
X47600000Y-46735307D01*
X45725000Y-46735307D01*
X45725000Y-46083148D01*
X45793455Y-46014693D01*
X46700000Y-46014693D01*
X46977933Y-45962396D01*
X47233198Y-45798138D01*
X47404446Y-45547508D01*
X47464693Y-45250000D01*
X47464693Y-44343455D01*
X47983148Y-43825000D01*
X48835307Y-43825000D01*
X48835307Y-43900000D01*
X48887604Y-44177933D01*
X49051862Y-44433198D01*
X49302492Y-44604446D01*
X49600000Y-44664693D01*
X51200000Y-44664693D01*
X51477933Y-44612396D01*
X51733198Y-44448138D01*
X51904446Y-44197508D01*
X51964693Y-43900000D01*
X51964693Y-41900000D01*
X51912396Y-41622067D01*
X51748138Y-41366802D01*
X51497508Y-41195554D01*
X51200000Y-41135307D01*
X49949520Y-41135307D01*
X49472214Y-40658000D01*
X49810500Y-40658000D01*
X50000000Y-40468500D01*
X50000000Y-39400000D01*
X50800000Y-39400000D01*
X50800000Y-40468500D01*
X50989500Y-40658000D01*
X51350775Y-40658000D01*
X51629372Y-40542602D01*
X51842601Y-40329373D01*
X51958000Y-40050776D01*
X51958000Y-39589500D01*
X51768500Y-39400000D01*
X50800000Y-39400000D01*
X50000000Y-39400000D01*
X49600000Y-39400000D01*
X49600000Y-38400000D01*
X50000000Y-38400000D01*
X50000000Y-37331500D01*
X50800000Y-37331500D01*
X50800000Y-38400000D01*
X51768500Y-38400000D01*
X51958000Y-38210500D01*
X51958000Y-37749224D01*
X51842601Y-37470627D01*
X51629372Y-37257398D01*
X51350775Y-37142000D01*
X50989500Y-37142000D01*
X50800000Y-37331500D01*
X50000000Y-37331500D01*
X49810500Y-37142000D01*
X49449225Y-37142000D01*
X49170628Y-37257398D01*
X48957399Y-37470627D01*
X48900000Y-37609200D01*
X48900000Y-35814214D01*
X51124714Y-33589500D01*
X91742000Y-33589500D01*
X91742000Y-33950775D01*
X91857398Y-34229372D01*
X92070627Y-34442601D01*
X92349224Y-34558000D01*
X92810500Y-34558000D01*
X93000000Y-34368500D01*
X93000000Y-33400000D01*
X94000000Y-33400000D01*
X94000000Y-34368500D01*
X94189500Y-34558000D01*
X94650776Y-34558000D01*
X94929373Y-34442601D01*
X95142602Y-34229372D01*
X95258000Y-33950775D01*
X95258000Y-33589500D01*
X95068500Y-33400000D01*
X94000000Y-33400000D01*
X93000000Y-33400000D01*
X91931500Y-33400000D01*
X91742000Y-33589500D01*
X51124714Y-33589500D01*
X52514214Y-32200000D01*
X91742000Y-32200000D01*
X91742000Y-32410500D01*
X91742000Y-32410500D01*
G37*
X91742000Y-32410500D02*
X91931500Y-32600000D01*
X93000000Y-32600000D01*
X93000000Y-32200000D01*
X94000000Y-32200000D01*
X94000000Y-32600000D01*
X95068500Y-32600000D01*
X95258000Y-32410500D01*
X95258000Y-32200000D01*
X95735307Y-32200000D01*
X95735307Y-33800000D01*
X95787604Y-34077933D01*
X95951862Y-34333198D01*
X96202492Y-34504446D01*
X96250000Y-34514067D01*
X96250000Y-35050000D01*
X96345151Y-35528354D01*
X96616117Y-35933883D01*
X96885307Y-36203073D01*
X96885307Y-36950000D01*
X96937604Y-37227933D01*
X96951804Y-37250000D01*
X94114693Y-37250000D01*
X94114693Y-36600000D01*
X94062396Y-36322067D01*
X93898138Y-36066802D01*
X93647508Y-35895554D01*
X93350000Y-35835307D01*
X91350000Y-35835307D01*
X91072067Y-35887604D01*
X90816802Y-36051862D01*
X90645554Y-36302492D01*
X90585307Y-36600000D01*
X90585307Y-40400000D01*
X90637604Y-40677933D01*
X90801862Y-40933198D01*
X91052492Y-41104446D01*
X91350000Y-41164693D01*
X93350000Y-41164693D01*
X93627933Y-41112396D01*
X93883198Y-40948138D01*
X94054446Y-40697508D01*
X94114693Y-40400000D01*
X94114693Y-39750000D01*
X96953811Y-39750000D01*
X96892000Y-39899225D01*
X96892000Y-40235500D01*
X97081500Y-40425000D01*
X98150000Y-40425000D01*
X98150000Y-40050000D01*
X98514728Y-40050000D01*
X98615474Y-40117316D01*
X98671646Y-40154849D01*
X99150000Y-40250000D01*
X99150000Y-40425000D01*
X100218500Y-40425000D01*
X100393500Y-40250000D01*
X101482234Y-40250000D01*
X102750000Y-41517767D01*
X102750000Y-43500000D01*
X102829566Y-43900001D01*
X102845151Y-43978354D01*
X103116117Y-44383883D01*
X106935307Y-48203073D01*
X106935307Y-48927159D01*
X106154074Y-48145926D01*
X105853983Y-47945411D01*
X105500000Y-47875000D01*
X73800005Y-47875000D01*
X73800000Y-47874999D01*
X73446018Y-47945411D01*
X73145926Y-48145926D01*
X71845926Y-49445926D01*
X71645411Y-49746017D01*
X71626016Y-49843525D01*
X71613682Y-49905534D01*
X67604074Y-45895926D01*
X67303983Y-45695411D01*
X66950000Y-45625000D01*
X62281764Y-45625000D01*
X62262396Y-45522067D01*
X62098138Y-45266802D01*
X62057761Y-45239213D01*
X62142602Y-45154372D01*
X62258000Y-44875775D01*
X62258000Y-44602000D01*
X62068500Y-44412500D01*
X61125000Y-44412500D01*
X61125000Y-44725000D01*
X60375000Y-44725000D01*
X60375000Y-44412500D01*
X60000000Y-44412500D01*
X60000000Y-43787500D01*
X60375000Y-43787500D01*
X60375000Y-42906500D01*
X61125000Y-42906500D01*
X61125000Y-43787500D01*
X62068500Y-43787500D01*
X62258000Y-43598000D01*
X62258000Y-43324225D01*
X62142602Y-43045628D01*
X61929373Y-42832399D01*
X61650776Y-42717000D01*
X61314500Y-42717000D01*
X61125000Y-42906500D01*
X60375000Y-42906500D01*
X60185500Y-42717000D01*
X59849224Y-42717000D01*
X59570627Y-42832399D01*
X59553028Y-42849998D01*
X59413778Y-42849998D01*
X59297508Y-42770554D01*
X59000000Y-42710307D01*
X58168455Y-42710307D01*
X56822648Y-41364500D01*
X96892000Y-41364500D01*
X96892000Y-41700775D01*
X97007398Y-41979372D01*
X97220627Y-42192601D01*
X97499224Y-42308000D01*
X97960500Y-42308000D01*
X98150000Y-42118500D01*
X98150000Y-41175000D01*
X99150000Y-41175000D01*
X99150000Y-42118500D01*
X99339500Y-42308000D01*
X99800776Y-42308000D01*
X100079373Y-42192601D01*
X100292602Y-41979372D01*
X100408000Y-41700775D01*
X100408000Y-41364500D01*
X100218500Y-41175000D01*
X99150000Y-41175000D01*
X98150000Y-41175000D01*
X97081500Y-41175000D01*
X96892000Y-41364500D01*
X56822648Y-41364500D01*
X56404074Y-40945926D01*
X56103983Y-40745411D01*
X55895655Y-40703972D01*
X55479151Y-40286740D01*
X54909667Y-40050270D01*
X54293039Y-40049732D01*
X53723143Y-40285208D01*
X53286740Y-40720849D01*
X53050270Y-41290333D01*
X53049732Y-41906961D01*
X53285208Y-42476857D01*
X53720849Y-42913260D01*
X54290333Y-43149730D01*
X54906961Y-43150268D01*
X55476857Y-42914792D01*
X55616873Y-42775021D01*
X56735307Y-43893455D01*
X56735307Y-44725000D01*
X56780867Y-44967132D01*
X56672067Y-44987604D01*
X56416802Y-45151862D01*
X56245554Y-45402492D01*
X56185307Y-45700000D01*
X56185307Y-46775000D01*
X47796010Y-46775000D01*
X47600000Y-46735307D01*
X45725000Y-46735307D01*
X45725000Y-46083148D01*
X45793455Y-46014693D01*
X46700000Y-46014693D01*
X46977933Y-45962396D01*
X47233198Y-45798138D01*
X47404446Y-45547508D01*
X47464693Y-45250000D01*
X47464693Y-44343455D01*
X47983148Y-43825000D01*
X48835307Y-43825000D01*
X48835307Y-43900000D01*
X48887604Y-44177933D01*
X49051862Y-44433198D01*
X49302492Y-44604446D01*
X49600000Y-44664693D01*
X51200000Y-44664693D01*
X51477933Y-44612396D01*
X51733198Y-44448138D01*
X51904446Y-44197508D01*
X51964693Y-43900000D01*
X51964693Y-41900000D01*
X51912396Y-41622067D01*
X51748138Y-41366802D01*
X51497508Y-41195554D01*
X51200000Y-41135307D01*
X49949520Y-41135307D01*
X49472214Y-40658000D01*
X49810500Y-40658000D01*
X50000000Y-40468500D01*
X50000000Y-39400000D01*
X50800000Y-39400000D01*
X50800000Y-40468500D01*
X50989500Y-40658000D01*
X51350775Y-40658000D01*
X51629372Y-40542602D01*
X51842601Y-40329373D01*
X51958000Y-40050776D01*
X51958000Y-39589500D01*
X51768500Y-39400000D01*
X50800000Y-39400000D01*
X50000000Y-39400000D01*
X49600000Y-39400000D01*
X49600000Y-38400000D01*
X50000000Y-38400000D01*
X50000000Y-37331500D01*
X50800000Y-37331500D01*
X50800000Y-38400000D01*
X51768500Y-38400000D01*
X51958000Y-38210500D01*
X51958000Y-37749224D01*
X51842601Y-37470627D01*
X51629372Y-37257398D01*
X51350775Y-37142000D01*
X50989500Y-37142000D01*
X50800000Y-37331500D01*
X50000000Y-37331500D01*
X49810500Y-37142000D01*
X49449225Y-37142000D01*
X49170628Y-37257398D01*
X48957399Y-37470627D01*
X48900000Y-37609200D01*
X48900000Y-35814214D01*
X51124714Y-33589500D01*
X91742000Y-33589500D01*
X91742000Y-33950775D01*
X91857398Y-34229372D01*
X92070627Y-34442601D01*
X92349224Y-34558000D01*
X92810500Y-34558000D01*
X93000000Y-34368500D01*
X93000000Y-33400000D01*
X94000000Y-33400000D01*
X94000000Y-34368500D01*
X94189500Y-34558000D01*
X94650776Y-34558000D01*
X94929373Y-34442601D01*
X95142602Y-34229372D01*
X95258000Y-33950775D01*
X95258000Y-33589500D01*
X95068500Y-33400000D01*
X94000000Y-33400000D01*
X93000000Y-33400000D01*
X91931500Y-33400000D01*
X91742000Y-33589500D01*
X51124714Y-33589500D01*
X52514214Y-32200000D01*
X91742000Y-32200000D01*
X91742000Y-32410500D01*
G36*
X122085307Y-44600000D02*
X122137604Y-44877933D01*
X122301862Y-45133198D01*
X122552492Y-45304446D01*
X122575000Y-45309004D01*
X122575000Y-46187052D01*
X122572067Y-46187604D01*
X122316802Y-46351862D01*
X122145554Y-46602492D01*
X122085307Y-46900000D01*
X122085307Y-48400000D01*
X122137604Y-48677933D01*
X122301862Y-48933198D01*
X122398548Y-48999260D01*
X122316802Y-49051862D01*
X122145554Y-49302492D01*
X122120745Y-49425000D01*
X121091172Y-49425000D01*
X121062396Y-49272067D01*
X120898138Y-49016802D01*
X120647508Y-48845554D01*
X120350000Y-48785307D01*
X120250002Y-48785307D01*
X120250002Y-48450000D01*
X120158000Y-48450000D01*
X120158000Y-48414500D01*
X119968500Y-48225000D01*
X119200000Y-48225000D01*
X119200000Y-48450000D01*
X118800000Y-48450000D01*
X118800000Y-48225000D01*
X118031500Y-48225000D01*
X117842000Y-48414500D01*
X117842000Y-48450000D01*
X117749998Y-48450000D01*
X117749998Y-48785307D01*
X117650000Y-48785307D01*
X117372067Y-48837604D01*
X117116802Y-49001862D01*
X116945554Y-49252492D01*
X116925000Y-49353990D01*
X116925000Y-47583148D01*
X116983148Y-47525000D01*
X117749998Y-47525000D01*
X117749998Y-47550000D01*
X117842000Y-47550000D01*
X117842000Y-47585500D01*
X118031500Y-47775000D01*
X118800000Y-47775000D01*
X118800000Y-47550000D01*
X119200000Y-47550000D01*
X119200000Y-47775000D01*
X119968500Y-47775000D01*
X120158000Y-47585500D01*
X120158000Y-47550000D01*
X120250002Y-47550000D01*
X120250002Y-46792000D01*
X119416148Y-46792000D01*
X120154074Y-46054074D01*
X120354589Y-45753983D01*
X120425000Y-45400000D01*
X120425000Y-45312948D01*
X120427933Y-45312396D01*
X120683198Y-45148138D01*
X120854446Y-44897508D01*
X120914693Y-44600000D01*
X120914693Y-43425000D01*
X121500000Y-43425000D01*
X121853983Y-43354589D01*
X122085307Y-43200023D01*
X122085307Y-44600000D01*
X122085307Y-44600000D01*
G37*
X122085307Y-44600000D02*
X122137604Y-44877933D01*
X122301862Y-45133198D01*
X122552492Y-45304446D01*
X122575000Y-45309004D01*
X122575000Y-46187052D01*
X122572067Y-46187604D01*
X122316802Y-46351862D01*
X122145554Y-46602492D01*
X122085307Y-46900000D01*
X122085307Y-48400000D01*
X122137604Y-48677933D01*
X122301862Y-48933198D01*
X122398548Y-48999260D01*
X122316802Y-49051862D01*
X122145554Y-49302492D01*
X122120745Y-49425000D01*
X121091172Y-49425000D01*
X121062396Y-49272067D01*
X120898138Y-49016802D01*
X120647508Y-48845554D01*
X120350000Y-48785307D01*
X120250002Y-48785307D01*
X120250002Y-48450000D01*
X120158000Y-48450000D01*
X120158000Y-48414500D01*
X119968500Y-48225000D01*
X119200000Y-48225000D01*
X119200000Y-48450000D01*
X118800000Y-48450000D01*
X118800000Y-48225000D01*
X118031500Y-48225000D01*
X117842000Y-48414500D01*
X117842000Y-48450000D01*
X117749998Y-48450000D01*
X117749998Y-48785307D01*
X117650000Y-48785307D01*
X117372067Y-48837604D01*
X117116802Y-49001862D01*
X116945554Y-49252492D01*
X116925000Y-49353990D01*
X116925000Y-47583148D01*
X116983148Y-47525000D01*
X117749998Y-47525000D01*
X117749998Y-47550000D01*
X117842000Y-47550000D01*
X117842000Y-47585500D01*
X118031500Y-47775000D01*
X118800000Y-47775000D01*
X118800000Y-47550000D01*
X119200000Y-47550000D01*
X119200000Y-47775000D01*
X119968500Y-47775000D01*
X120158000Y-47585500D01*
X120158000Y-47550000D01*
X120250002Y-47550000D01*
X120250002Y-46792000D01*
X119416148Y-46792000D01*
X120154074Y-46054074D01*
X120354589Y-45753983D01*
X120425000Y-45400000D01*
X120425000Y-45312948D01*
X120427933Y-45312396D01*
X120683198Y-45148138D01*
X120854446Y-44897508D01*
X120914693Y-44600000D01*
X120914693Y-43425000D01*
X121500000Y-43425000D01*
X121853983Y-43354589D01*
X122085307Y-43200023D01*
X122085307Y-44600000D01*
G36*
X113812500Y-46375000D02*
X114125000Y-46375000D01*
X114125000Y-47125000D01*
X113812500Y-47125000D01*
X113812500Y-47500000D01*
X113187500Y-47500000D01*
X113187500Y-47125000D01*
X112875000Y-47125000D01*
X112875000Y-46375000D01*
X113187500Y-46375000D01*
X113187500Y-46000000D01*
X113812500Y-46000000D01*
X113812500Y-46375000D01*
X113812500Y-46375000D01*
G37*
X113812500Y-46375000D02*
X114125000Y-46375000D01*
X114125000Y-47125000D01*
X113812500Y-47125000D01*
X113812500Y-47500000D01*
X113187500Y-47500000D01*
X113187500Y-47125000D01*
X112875000Y-47125000D01*
X112875000Y-46375000D01*
X113187500Y-46375000D01*
X113187500Y-46000000D01*
X113812500Y-46000000D01*
X113812500Y-46375000D01*
G36*
X107145411Y-39053983D02*
X107345926Y-39354074D01*
X109795926Y-41804074D01*
X110096017Y-42004589D01*
X110422352Y-42069500D01*
X109931913Y-42559939D01*
X109729372Y-42357398D01*
X109450775Y-42242000D01*
X109089500Y-42242000D01*
X108900000Y-42431500D01*
X108900000Y-43500000D01*
X109300000Y-43500000D01*
X109300000Y-44500000D01*
X108900000Y-44500000D01*
X108900000Y-45568500D01*
X109089500Y-45758000D01*
X109450775Y-45758000D01*
X109575000Y-45706545D01*
X109575000Y-46290996D01*
X109300000Y-46235307D01*
X108503073Y-46235307D01*
X107968133Y-45700367D01*
X108100000Y-45568500D01*
X108100000Y-44500000D01*
X107131500Y-44500000D01*
X106949633Y-44681867D01*
X105250000Y-42982234D01*
X105250000Y-42849224D01*
X106942000Y-42849224D01*
X106942000Y-43310500D01*
X107131500Y-43500000D01*
X108100000Y-43500000D01*
X108100000Y-42431500D01*
X107910500Y-42242000D01*
X107549225Y-42242000D01*
X107270628Y-42357398D01*
X107057399Y-42570627D01*
X106942000Y-42849224D01*
X105250000Y-42849224D01*
X105250000Y-41000000D01*
X105154849Y-40521646D01*
X105070907Y-40396018D01*
X104883883Y-40116116D01*
X103517766Y-38750000D01*
X107084946Y-38750000D01*
X107145411Y-39053983D01*
X107145411Y-39053983D01*
G37*
X107145411Y-39053983D02*
X107345926Y-39354074D01*
X109795926Y-41804074D01*
X110096017Y-42004589D01*
X110422352Y-42069500D01*
X109931913Y-42559939D01*
X109729372Y-42357398D01*
X109450775Y-42242000D01*
X109089500Y-42242000D01*
X108900000Y-42431500D01*
X108900000Y-43500000D01*
X109300000Y-43500000D01*
X109300000Y-44500000D01*
X108900000Y-44500000D01*
X108900000Y-45568500D01*
X109089500Y-45758000D01*
X109450775Y-45758000D01*
X109575000Y-45706545D01*
X109575000Y-46290996D01*
X109300000Y-46235307D01*
X108503073Y-46235307D01*
X107968133Y-45700367D01*
X108100000Y-45568500D01*
X108100000Y-44500000D01*
X107131500Y-44500000D01*
X106949633Y-44681867D01*
X105250000Y-42982234D01*
X105250000Y-42849224D01*
X106942000Y-42849224D01*
X106942000Y-43310500D01*
X107131500Y-43500000D01*
X108100000Y-43500000D01*
X108100000Y-42431500D01*
X107910500Y-42242000D01*
X107549225Y-42242000D01*
X107270628Y-42357398D01*
X107057399Y-42570627D01*
X106942000Y-42849224D01*
X105250000Y-42849224D01*
X105250000Y-41000000D01*
X105154849Y-40521646D01*
X105070907Y-40396018D01*
X104883883Y-40116116D01*
X103517766Y-38750000D01*
X107084946Y-38750000D01*
X107145411Y-39053983D01*
G36*
X114585307Y-44600000D02*
X114637604Y-44877933D01*
X114801862Y-45133198D01*
X115052492Y-45304446D01*
X115075000Y-45309004D01*
X115075000Y-45316852D01*
X114883000Y-45508852D01*
X114883000Y-45499998D01*
X114750002Y-45499998D01*
X114750002Y-45242000D01*
X113537332Y-45242000D01*
X113683198Y-45148138D01*
X113854446Y-44897508D01*
X113914693Y-44600000D01*
X113914693Y-43425000D01*
X114585307Y-43425000D01*
X114585307Y-44600000D01*
X114585307Y-44600000D01*
G37*
X114585307Y-44600000D02*
X114637604Y-44877933D01*
X114801862Y-45133198D01*
X115052492Y-45304446D01*
X115075000Y-45309004D01*
X115075000Y-45316852D01*
X114883000Y-45508852D01*
X114883000Y-45499998D01*
X114750002Y-45499998D01*
X114750002Y-45242000D01*
X113537332Y-45242000D01*
X113683198Y-45148138D01*
X113854446Y-44897508D01*
X113914693Y-44600000D01*
X113914693Y-43425000D01*
X114585307Y-43425000D01*
X114585307Y-44600000D01*
G36*
X102446301Y-31021706D02*
X103270000Y-31845406D01*
X104093699Y-31021706D01*
X103969250Y-30825000D01*
X106560786Y-30825000D01*
X105492893Y-31892893D01*
X105318909Y-32153277D01*
X105317597Y-32146679D01*
X105048294Y-31976301D01*
X104224594Y-32800000D01*
X105048294Y-33623699D01*
X105200000Y-33527720D01*
X105200000Y-36250000D01*
X104017767Y-36250000D01*
X103083883Y-35316117D01*
X102678354Y-35045151D01*
X102200000Y-34950000D01*
X100219500Y-34950000D01*
X100198138Y-34916802D01*
X99947508Y-34745554D01*
X99650000Y-34685307D01*
X98903073Y-34685307D01*
X98796060Y-34578294D01*
X102446301Y-34578294D01*
X102616679Y-34847597D01*
X103449992Y-34941748D01*
X103923321Y-34847597D01*
X104093699Y-34578294D01*
X103270000Y-33754594D01*
X102446301Y-34578294D01*
X98796060Y-34578294D01*
X98750000Y-34532234D01*
X98750000Y-34517652D01*
X98777933Y-34512396D01*
X99033198Y-34348138D01*
X99204446Y-34097508D01*
X99264693Y-33800000D01*
X99264693Y-32979992D01*
X101128252Y-32979992D01*
X101222403Y-33453321D01*
X101491706Y-33623699D01*
X102315406Y-32800000D01*
X101491706Y-31976301D01*
X101222403Y-32146679D01*
X101128252Y-32979992D01*
X99264693Y-32979992D01*
X99264693Y-32200000D01*
X99212396Y-31922067D01*
X99048138Y-31666802D01*
X98797508Y-31495554D01*
X98500000Y-31435307D01*
X98447350Y-31435307D01*
X98423880Y-31317316D01*
X98207107Y-30992893D01*
X98039214Y-30825000D01*
X102570750Y-30825000D01*
X102446301Y-31021706D01*
X102446301Y-31021706D01*
G37*
X102446301Y-31021706D02*
X103270000Y-31845406D01*
X104093699Y-31021706D01*
X103969250Y-30825000D01*
X106560786Y-30825000D01*
X105492893Y-31892893D01*
X105318909Y-32153277D01*
X105317597Y-32146679D01*
X105048294Y-31976301D01*
X104224594Y-32800000D01*
X105048294Y-33623699D01*
X105200000Y-33527720D01*
X105200000Y-36250000D01*
X104017767Y-36250000D01*
X103083883Y-35316117D01*
X102678354Y-35045151D01*
X102200000Y-34950000D01*
X100219500Y-34950000D01*
X100198138Y-34916802D01*
X99947508Y-34745554D01*
X99650000Y-34685307D01*
X98903073Y-34685307D01*
X98796060Y-34578294D01*
X102446301Y-34578294D01*
X102616679Y-34847597D01*
X103449992Y-34941748D01*
X103923321Y-34847597D01*
X104093699Y-34578294D01*
X103270000Y-33754594D01*
X102446301Y-34578294D01*
X98796060Y-34578294D01*
X98750000Y-34532234D01*
X98750000Y-34517652D01*
X98777933Y-34512396D01*
X99033198Y-34348138D01*
X99204446Y-34097508D01*
X99264693Y-33800000D01*
X99264693Y-32979992D01*
X101128252Y-32979992D01*
X101222403Y-33453321D01*
X101491706Y-33623699D01*
X102315406Y-32800000D01*
X101491706Y-31976301D01*
X101222403Y-32146679D01*
X101128252Y-32979992D01*
X99264693Y-32979992D01*
X99264693Y-32200000D01*
X99212396Y-31922067D01*
X99048138Y-31666802D01*
X98797508Y-31495554D01*
X98500000Y-31435307D01*
X98447350Y-31435307D01*
X98423880Y-31317316D01*
X98207107Y-30992893D01*
X98039214Y-30825000D01*
X102570750Y-30825000D01*
X102446301Y-31021706D01*
G36*
X112869795Y-32167565D02*
X113184488Y-32482258D01*
X113128252Y-32979992D01*
X113222403Y-33453321D01*
X113491706Y-33623699D01*
X114315406Y-32800000D01*
X113894677Y-32379271D01*
X114673948Y-31600000D01*
X115024594Y-31600000D01*
X115270000Y-31845406D01*
X115515406Y-31600000D01*
X115866052Y-31600000D01*
X116645323Y-32379271D01*
X116224594Y-32800000D01*
X117048294Y-33623699D01*
X117317597Y-33453321D01*
X117411748Y-32620008D01*
X117379564Y-32458206D01*
X117670205Y-32167565D01*
X117102640Y-31600000D01*
X120585786Y-31600000D01*
X122500000Y-33514214D01*
X122500000Y-34215584D01*
X122397508Y-34145554D01*
X122100000Y-34085307D01*
X120600000Y-34085307D01*
X120322067Y-34137604D01*
X120066802Y-34301862D01*
X120000740Y-34398548D01*
X119948138Y-34316802D01*
X119697508Y-34145554D01*
X119400000Y-34085307D01*
X117900000Y-34085307D01*
X117622067Y-34137604D01*
X117366802Y-34301862D01*
X117195554Y-34552492D01*
X117190996Y-34575000D01*
X116090405Y-34575000D01*
X115270000Y-33754594D01*
X114449595Y-34575000D01*
X111750215Y-34575000D01*
X111396463Y-34220630D01*
X110841675Y-33990262D01*
X110240960Y-33989738D01*
X109685771Y-34219138D01*
X109260630Y-34643537D01*
X109166022Y-34871379D01*
X108537401Y-35500000D01*
X108806102Y-35768701D01*
X108501546Y-36073256D01*
X108301675Y-35990262D01*
X107700960Y-35989738D01*
X107498564Y-36073366D01*
X107200000Y-35774802D01*
X107200000Y-35762599D01*
X107462599Y-35500000D01*
X107200000Y-35237401D01*
X107200000Y-35225198D01*
X107731300Y-34693899D01*
X108000000Y-34962599D01*
X108653366Y-34309233D01*
X108574466Y-34062821D01*
X108274859Y-34007089D01*
X107792931Y-33525161D01*
X107200000Y-34118092D01*
X107200000Y-33014214D01*
X108614214Y-31600000D01*
X113437360Y-31600000D01*
X112869795Y-32167565D01*
X112869795Y-32167565D01*
G37*
X112869795Y-32167565D02*
X113184488Y-32482258D01*
X113128252Y-32979992D01*
X113222403Y-33453321D01*
X113491706Y-33623699D01*
X114315406Y-32800000D01*
X113894677Y-32379271D01*
X114673948Y-31600000D01*
X115024594Y-31600000D01*
X115270000Y-31845406D01*
X115515406Y-31600000D01*
X115866052Y-31600000D01*
X116645323Y-32379271D01*
X116224594Y-32800000D01*
X117048294Y-33623699D01*
X117317597Y-33453321D01*
X117411748Y-32620008D01*
X117379564Y-32458206D01*
X117670205Y-32167565D01*
X117102640Y-31600000D01*
X120585786Y-31600000D01*
X122500000Y-33514214D01*
X122500000Y-34215584D01*
X122397508Y-34145554D01*
X122100000Y-34085307D01*
X120600000Y-34085307D01*
X120322067Y-34137604D01*
X120066802Y-34301862D01*
X120000740Y-34398548D01*
X119948138Y-34316802D01*
X119697508Y-34145554D01*
X119400000Y-34085307D01*
X117900000Y-34085307D01*
X117622067Y-34137604D01*
X117366802Y-34301862D01*
X117195554Y-34552492D01*
X117190996Y-34575000D01*
X116090405Y-34575000D01*
X115270000Y-33754594D01*
X114449595Y-34575000D01*
X111750215Y-34575000D01*
X111396463Y-34220630D01*
X110841675Y-33990262D01*
X110240960Y-33989738D01*
X109685771Y-34219138D01*
X109260630Y-34643537D01*
X109166022Y-34871379D01*
X108537401Y-35500000D01*
X108806102Y-35768701D01*
X108501546Y-36073256D01*
X108301675Y-35990262D01*
X107700960Y-35989738D01*
X107498564Y-36073366D01*
X107200000Y-35774802D01*
X107200000Y-35762599D01*
X107462599Y-35500000D01*
X107200000Y-35237401D01*
X107200000Y-35225198D01*
X107731300Y-34693899D01*
X108000000Y-34962599D01*
X108653366Y-34309233D01*
X108574466Y-34062821D01*
X108274859Y-34007089D01*
X107792931Y-33525161D01*
X107200000Y-34118092D01*
X107200000Y-33014214D01*
X108614214Y-31600000D01*
X113437360Y-31600000D01*
X112869795Y-32167565D01*
M02*
