M48
;DRILL file {KiCad 4.0.7} date 03/22/21 13:38:20
;FORMAT={-:-/ absolute / metric / decimal}
FMAT,2
METRIC,TZ
T1C0.400
T2C0.800
T3C0.810
T4C1.000
T5C1.500
T6C1.520
T7C2.000
T8C2.300
%
G90
G05
M71
T1
X42.75Y-108.55
X43.75Y-81.2
X45.Y-106.15
X48.Y-100.05
X48.35Y-101.55
X49.7Y-93.85
X50.7Y-94.
X53.6Y-94.75
X53.95Y-87.4
X55.2Y-106.25
X55.3Y-88.8
X58.7Y-48.5
X60.75Y-99.95
X61.1Y-43.7
X61.55Y-102.15
X61.6Y-61.4
X62.2Y-44.9
X62.45Y-99.2
X62.7Y-61.3
X63.35Y-98.65
X63.35Y-108.5
X65.75Y-94.3
X65.9Y-102.3
X67.2Y-85.65
X67.7Y-88.7
X69.25Y-105.7
X70.65Y-122.95
X71.6Y-44.3
X72.3Y-123.9
X73.7Y-100.55
X75.5Y-99.35
X76.1Y-44.7
X77.05Y-101.55
X77.2Y-106.1
X78.1Y-48.8
X79.4Y-47.5
X81.4Y-61.6
X82.5Y-61.4
X86.6Y-92.05
X87.8Y-94.55
X91.5Y-40.6
X92.4Y-65.6
X93.1Y-42.1
X94.1Y-64.9
X95.3Y-66.2
X95.5Y-43.
X96.Y-51.9
X96.8Y-55.1
X97.3Y-105.9
X97.4Y-107.3
X102.4Y-67.4
X103.3Y-90.1
X103.9Y-68.1
X103.9Y-114.4
X104.9Y-69.2
X105.3Y-101.2
X105.9Y-88.4
X106.Y-68.
X106.1Y-103.2
X106.4Y-76.8
X106.7Y-43.2
X106.9Y-114.45
X107.6Y-54.5
X107.6Y-57.7
X109.1Y-94.5
X109.3Y-41.9
X110.3Y-58.
X110.55Y-105.3
X110.8Y-106.5
X110.8Y-110.5
X111.1Y-79.
X111.1Y-95.9
X111.2Y-66.9
X111.75Y-107.3
X111.95Y-56.4
X112.3Y-54.5
X112.6Y-57.8
X113.Y-77.4
X114.Y-45.3
X114.Y-55.35
X114.1Y-72.4
X116.15Y-125.8
X117.5Y-71.9
X119.1Y-64.5
X119.5Y-67.6
X119.7Y-46.6
X119.9Y-57.6
X120.7Y-59.4
X125.3Y-120.9
X125.35Y-119.15
T2
X47.65Y-103.05
X47.65Y-110.67
X50.3Y-57.
X50.3Y-64.62
X51.4Y-66.7
X51.4Y-74.32
X51.7Y-44.9
X51.7Y-52.52
X54.7Y-66.68
X54.7Y-74.3
X55.08Y-81.8
X57.38Y-70.3
X62.7Y-81.8
X64.6Y-65.8
X65.Y-70.3
X66.8Y-47.88
X66.8Y-55.5
X68.2Y-69.9
X68.2Y-77.52
X70.6Y-47.9
X70.6Y-55.52
X71.9Y-69.8
X71.9Y-77.42
X72.22Y-65.8
X72.58Y-83.
X78.2Y-93.2
X79.28Y-68.1
X80.2Y-83.
X83.2Y-93.2
X84.4Y-82.45
X84.4Y-90.07
X85.1Y-98.95
X85.1Y-106.57
X85.7Y-53.6
X85.7Y-61.22
X86.9Y-68.1
X87.35Y-111.7
X87.4Y-108.13
X88.88Y-92.93
X88.88Y-97.93
X89.9Y-82.5
X89.9Y-90.12
X92.62Y-93.92
X92.62Y-101.54
X94.97Y-111.7
X95.02Y-108.13
X96.75Y-116.85
X96.76Y-100.75
X101.75Y-116.85
X101.76Y-100.75
T3
X108.Y-35.5
X108.Y-37.5
X110.54Y-35.5
X110.54Y-37.5
T4
X44.Y-35.75
X47.9Y-45.56
X47.9Y-48.1
X49.Y-35.75
X50.5Y-82.6
X50.5Y-85.14
X53.7Y-56.7
X53.7Y-59.24
X54.75Y-35.65
X57.9Y-74.26
X57.9Y-76.8
X59.75Y-35.65
X72.9Y-59.06
X72.9Y-61.6
X76.Y-68.7
X76.Y-71.24
X89.7Y-58.12
X89.7Y-60.66
X89.7Y-63.2
X89.8Y-69.72
X89.8Y-72.26
X89.8Y-74.8
X98.6Y-81.16
X98.6Y-83.7
X99.25Y-36.
X99.25Y-38.54
X99.25Y-41.08
T6
X36.85Y-39.62
X36.85Y-44.7
X37.25Y-75.57
X37.25Y-80.65
X37.55Y-98.32
X37.55Y-103.4
X41.35Y-120.42
X41.35Y-125.5
X95.67Y-123.95
X100.75Y-123.95
X122.9Y-99.9
X122.9Y-104.98
T7
X52.14Y-113.63
X55.95Y-113.63
X55.95Y-118.71
X59.76Y-113.63
X76.14Y-113.63
X79.95Y-113.63
X79.95Y-118.71
X83.76Y-113.63
T8
X103.27Y-32.8
X115.27Y-32.8
T4
X65.05Y-37.25G85X65.05Y-39.25
G05
X70.75Y-35.25G85X68.75Y-35.25
G05
X70.75Y-41.25G85X68.75Y-41.25
G05
T5
X36.15Y-54.7G85X36.15Y-53.7
G05
X36.2Y-66.85G85X36.2Y-65.85
G05
X36.35Y-90.1G85X36.35Y-89.1
G05
X36.55Y-112.8G85X36.55Y-111.8
G05
X40.65Y-54.2G85X41.65Y-54.2
G05
X40.7Y-66.35G85X41.7Y-66.35
G05
X40.85Y-89.6G85X41.85Y-89.6
G05
X41.05Y-112.3G85X42.05Y-112.3
G05
X110.5Y-119.5G85X110.5Y-118.5
G05
X111.Y-124.G85X110.Y-124.
G05
X118.3Y-90.8G85X117.3Y-90.8
G05
X118.4Y-78.1G85X117.4Y-78.1
G05
X119.55Y-113.7G85X118.55Y-113.7
G05
X122.8Y-90.3G85X122.8Y-91.3
G05
X122.9Y-77.6G85X122.9Y-78.6
G05
X124.05Y-113.2G85X124.05Y-114.2
G05
T0
M30
