G04 #@! TF.FileFunction,Soldermask,Top*
%FSLAX46Y46*%
G04 Gerber Fmt 4.6, Leading zero omitted, Abs format (unit mm)*
G04 Created by KiCad (PCBNEW 4.0.7) date 02/26/21 10:34:16*
%MOMM*%
%LPD*%
G01*
G04 APERTURE LIST*
%ADD10C,0.100000*%
%ADD11R,3.400000X3.400000*%
%ADD12C,3.400000*%
%ADD13R,1.950000X1.000000*%
%ADD14R,1.900000X1.650000*%
%ADD15R,1.700000X1.900000*%
%ADD16O,2.400000X2.400000*%
%ADD17O,2.900000X3.900000*%
%ADD18O,3.900000X2.900000*%
%ADD19R,2.000000X2.400000*%
%ADD20R,1.000000X1.950000*%
%ADD21R,1.650000X1.900000*%
%ADD22C,2.000000*%
%ADD23C,1.920000*%
%ADD24C,3.100000*%
%ADD25R,1.200000X1.300000*%
%ADD26R,1.900000X1.700000*%
%ADD27O,2.000000X2.000000*%
%ADD28R,2.400000X4.200000*%
%ADD29R,2.400000X1.900000*%
%ADD30R,0.850000X2.150000*%
%ADD31R,2.500000X2.200000*%
%ADD32R,2.100000X2.100000*%
%ADD33O,2.100000X2.100000*%
%ADD34C,4.464000*%
%ADD35R,2.400000X2.000000*%
%ADD36R,1.400000X1.400000*%
%ADD37R,2.400000X2.400000*%
%ADD38C,2.400000*%
%ADD39R,3.900000X3.900000*%
%ADD40R,1.600000X2.600000*%
%ADD41R,6.200000X6.800000*%
%ADD42R,1.900000X1.000000*%
G04 APERTURE END LIST*
D10*
D11*
X58800000Y-123200000D03*
D12*
X53720000Y-123200000D03*
D13*
X58700000Y-112005000D03*
X58700000Y-110735000D03*
X58700000Y-109465000D03*
X58700000Y-108195000D03*
X53300000Y-108195000D03*
X53300000Y-109465000D03*
X53300000Y-110735000D03*
X53300000Y-112005000D03*
D11*
X122900000Y-99900000D03*
D12*
X122900000Y-104980000D03*
D14*
X57350000Y-114600000D03*
X54850000Y-114600000D03*
D15*
X50200000Y-108450000D03*
X50200000Y-111150000D03*
X102500000Y-78350000D03*
X102500000Y-75650000D03*
D16*
X32500000Y-76250000D03*
X32500000Y-67250000D03*
D17*
X36000000Y-71750000D03*
D18*
X41000000Y-71750000D03*
D19*
X46500000Y-110900000D03*
X46500000Y-106900000D03*
D20*
X57595000Y-59700000D03*
X58865000Y-59700000D03*
X60135000Y-59700000D03*
X61405000Y-59700000D03*
X61405000Y-54300000D03*
X60135000Y-54300000D03*
X58865000Y-54300000D03*
X57595000Y-54300000D03*
D21*
X113500000Y-49250000D03*
X113500000Y-46750000D03*
X104000000Y-66450000D03*
X104000000Y-63950000D03*
D14*
X116750000Y-58900000D03*
X119250000Y-58900000D03*
X115950000Y-66100000D03*
X118450000Y-66100000D03*
D21*
X107500000Y-66450000D03*
X107500000Y-63950000D03*
X116500000Y-68450000D03*
X116500000Y-70950000D03*
X107500000Y-71450000D03*
X107500000Y-68950000D03*
D14*
X72680000Y-118970000D03*
X75180000Y-118970000D03*
D22*
X65940000Y-122430000D03*
X70940000Y-122430000D03*
D14*
X99750000Y-113800000D03*
X102250000Y-113800000D03*
D22*
X98400000Y-116730000D03*
X103400000Y-116730000D03*
D21*
X105470000Y-114880000D03*
X105470000Y-112380000D03*
D15*
X123500000Y-44150000D03*
X123500000Y-41450000D03*
D23*
X110540000Y-37500000D03*
X108000000Y-37500000D03*
X108000000Y-35500000D03*
X110540000Y-35500000D03*
D24*
X115270000Y-32800000D03*
X103270000Y-32800000D03*
D11*
X100500000Y-123900000D03*
D12*
X95420000Y-123900000D03*
D25*
X118050000Y-50000000D03*
X119950000Y-50000000D03*
X119000000Y-48000000D03*
D26*
X118650000Y-35500000D03*
X121350000Y-35500000D03*
D15*
X112500000Y-43850000D03*
X112500000Y-41150000D03*
X119500000Y-43850000D03*
X119500000Y-41150000D03*
X116000000Y-43850000D03*
X116000000Y-41150000D03*
X118000000Y-55850000D03*
X118000000Y-53150000D03*
D26*
X110150000Y-65200000D03*
X112850000Y-65200000D03*
D15*
X123500000Y-47650000D03*
X123500000Y-50350000D03*
D22*
X70180000Y-115980000D03*
D27*
X77800000Y-115980000D03*
D26*
X72300000Y-112430000D03*
X75000000Y-112430000D03*
D22*
X86680000Y-115480000D03*
D27*
X94300000Y-115480000D03*
D26*
X88990000Y-112780000D03*
X91690000Y-112780000D03*
X80600000Y-116090000D03*
X83300000Y-116090000D03*
D22*
X77690000Y-111940000D03*
D27*
X85310000Y-111940000D03*
D26*
X79230000Y-119420000D03*
X81930000Y-119420000D03*
D28*
X87100000Y-38500000D03*
D29*
X93400000Y-38500000D03*
X93400000Y-36200000D03*
X93400000Y-40800000D03*
D30*
X114225000Y-52400000D03*
X113575000Y-52400000D03*
X112925000Y-52400000D03*
X112275000Y-52400000D03*
X111625000Y-52400000D03*
X110975000Y-52400000D03*
X110325000Y-52400000D03*
X109675000Y-52400000D03*
X109025000Y-52400000D03*
X108375000Y-52400000D03*
X107725000Y-52400000D03*
X107075000Y-52400000D03*
X106425000Y-52400000D03*
X105775000Y-52400000D03*
X105775000Y-59600000D03*
X106425000Y-59600000D03*
X107075000Y-59600000D03*
X107725000Y-59600000D03*
X108375000Y-59600000D03*
X109025000Y-59600000D03*
X109675000Y-59600000D03*
X110325000Y-59600000D03*
X110975000Y-59600000D03*
X111625000Y-59600000D03*
X112275000Y-59600000D03*
X112925000Y-59600000D03*
X113575000Y-59600000D03*
X114225000Y-59600000D03*
D20*
X102485000Y-105990000D03*
X101215000Y-105990000D03*
X99945000Y-105990000D03*
X98675000Y-105990000D03*
X98675000Y-111390000D03*
X99945000Y-111390000D03*
X101215000Y-111390000D03*
X102485000Y-111390000D03*
D31*
X113450000Y-68550000D03*
X110550000Y-68550000D03*
X110550000Y-70850000D03*
X113450000Y-70850000D03*
D21*
X85410000Y-96990000D03*
X85410000Y-99490000D03*
D22*
X88880000Y-92930000D03*
X88880000Y-97930000D03*
D14*
X98050000Y-103310000D03*
X100550000Y-103310000D03*
D22*
X96760000Y-100750000D03*
X101760000Y-100750000D03*
X82670000Y-104800000D03*
D27*
X90290000Y-104800000D03*
D26*
X86740000Y-101670000D03*
X89440000Y-101670000D03*
D22*
X92620000Y-101540000D03*
D27*
X92620000Y-93920000D03*
D15*
X96810000Y-97590000D03*
X96810000Y-94890000D03*
D26*
X92870000Y-105100000D03*
X95570000Y-105100000D03*
D22*
X87400000Y-108130000D03*
D27*
X95020000Y-108130000D03*
D26*
X99190000Y-97600000D03*
X101890000Y-97600000D03*
D14*
X109290000Y-107850000D03*
X106790000Y-107850000D03*
D26*
X84400000Y-123080000D03*
X87100000Y-123080000D03*
D22*
X81720000Y-122680000D03*
D27*
X74100000Y-122680000D03*
D22*
X81610000Y-126030000D03*
D27*
X73990000Y-126030000D03*
D26*
X84340000Y-126570000D03*
X87040000Y-126570000D03*
D11*
X36600000Y-51300000D03*
D12*
X36600000Y-46220000D03*
D15*
X89940000Y-126190000D03*
X89940000Y-123490000D03*
D26*
X106780000Y-101690000D03*
X109480000Y-101690000D03*
D32*
X89700000Y-63200000D03*
D33*
X89700000Y-60660000D03*
X89700000Y-58120000D03*
D15*
X75200000Y-77650000D03*
X75200000Y-74950000D03*
X46500000Y-63450000D03*
X46500000Y-60750000D03*
D22*
X50300000Y-57000000D03*
D27*
X50300000Y-64620000D03*
D26*
X61150000Y-48000000D03*
X63850000Y-48000000D03*
D22*
X66800000Y-55500000D03*
D27*
X66800000Y-47880000D03*
D21*
X57400000Y-48950000D03*
X57400000Y-51450000D03*
D11*
X36400000Y-85600000D03*
D12*
X36400000Y-80520000D03*
D32*
X89800000Y-74800000D03*
D33*
X89800000Y-72260000D03*
X89800000Y-69720000D03*
D15*
X47300000Y-69550000D03*
X47300000Y-66850000D03*
D22*
X51400000Y-66700000D03*
D27*
X51400000Y-74320000D03*
D26*
X57250000Y-66200000D03*
X59950000Y-66200000D03*
D22*
X65000000Y-70300000D03*
D27*
X57380000Y-70300000D03*
D34*
X33000000Y-33000000D03*
X127000000Y-33000000D03*
X127000000Y-127000000D03*
X33000000Y-127000000D03*
D21*
X76900000Y-49750000D03*
X76900000Y-52250000D03*
X82900000Y-57450000D03*
X82900000Y-59950000D03*
D26*
X69550000Y-58600000D03*
X66850000Y-58600000D03*
D22*
X70600000Y-47900000D03*
D27*
X70600000Y-55520000D03*
D15*
X64800000Y-77350000D03*
X64800000Y-74650000D03*
D22*
X68200000Y-69900000D03*
D27*
X68200000Y-77520000D03*
D26*
X79250000Y-49900000D03*
X81950000Y-49900000D03*
D22*
X85700000Y-53600000D03*
D27*
X85700000Y-61220000D03*
D26*
X76350000Y-64700000D03*
X79050000Y-64700000D03*
D22*
X86900000Y-68100000D03*
D27*
X79280000Y-68100000D03*
D20*
X76895000Y-60200000D03*
X78165000Y-60200000D03*
X79435000Y-60200000D03*
X80705000Y-60200000D03*
X80705000Y-54800000D03*
X79435000Y-54800000D03*
X78165000Y-54800000D03*
X76895000Y-54800000D03*
D32*
X53700000Y-56700000D03*
D33*
X53700000Y-59240000D03*
D32*
X57900000Y-76800000D03*
D33*
X57900000Y-74260000D03*
D32*
X72900000Y-61600000D03*
D33*
X72900000Y-59060000D03*
D32*
X76000000Y-68700000D03*
D33*
X76000000Y-71240000D03*
D35*
X95980000Y-32766000D03*
X91980000Y-32766000D03*
D19*
X108500000Y-48000000D03*
X108500000Y-44000000D03*
X46900000Y-56200000D03*
X46900000Y-52200000D03*
D35*
X101000000Y-53700000D03*
X97000000Y-53700000D03*
X106070000Y-110000000D03*
X110070000Y-110000000D03*
X85730000Y-119470000D03*
X89730000Y-119470000D03*
X105310000Y-97640000D03*
X109310000Y-97640000D03*
X50800000Y-114500000D03*
X46800000Y-114500000D03*
X56000000Y-45300000D03*
X60000000Y-45300000D03*
D19*
X47400000Y-73100000D03*
X47400000Y-77100000D03*
D35*
X77200000Y-47200000D03*
X81200000Y-47200000D03*
D14*
X63650000Y-51500000D03*
X61150000Y-51500000D03*
X59850000Y-62800000D03*
X57350000Y-62800000D03*
X81950000Y-52000000D03*
X79450000Y-52000000D03*
X79050000Y-62600000D03*
X76550000Y-62600000D03*
D32*
X98600000Y-83700000D03*
D33*
X98600000Y-81160000D03*
D15*
X89500000Y-54450000D03*
X89500000Y-51750000D03*
X80400000Y-73650000D03*
X80400000Y-70950000D03*
D36*
X104500000Y-44750000D03*
X104500000Y-47250000D03*
X100100000Y-46050000D03*
X100100000Y-48550000D03*
D26*
X54550000Y-105000000D03*
X57250000Y-105000000D03*
D22*
X70900000Y-126000000D03*
D27*
X63280000Y-126000000D03*
D15*
X62500000Y-109150000D03*
X62500000Y-111850000D03*
D35*
X63700000Y-117700000D03*
X59700000Y-117700000D03*
D15*
X46500000Y-100750000D03*
X46500000Y-103450000D03*
D21*
X112590000Y-85070000D03*
X112590000Y-87570000D03*
D15*
X112570000Y-82540000D03*
X112570000Y-79840000D03*
D26*
X111750000Y-77620000D03*
X114450000Y-77620000D03*
D14*
X107750000Y-92250000D03*
X105250000Y-92250000D03*
D15*
X101000000Y-87150000D03*
X101000000Y-89850000D03*
D26*
X113610000Y-94050000D03*
X110910000Y-94050000D03*
D16*
X32750000Y-64750000D03*
X32750000Y-55750000D03*
D17*
X36250000Y-60250000D03*
D18*
X41250000Y-60250000D03*
D16*
X33400000Y-103900000D03*
X33400000Y-94900000D03*
D17*
X36900000Y-99400000D03*
D18*
X41900000Y-99400000D03*
D16*
X48700000Y-127400000D03*
X39700000Y-127400000D03*
D18*
X44200000Y-123900000D03*
D17*
X44200000Y-118900000D03*
D16*
X126300000Y-86300000D03*
X126300000Y-95300000D03*
D17*
X122800000Y-90800000D03*
D18*
X117800000Y-90800000D03*
D16*
X126400000Y-73600000D03*
X126400000Y-82600000D03*
D17*
X122900000Y-78100000D03*
D18*
X117900000Y-78100000D03*
D16*
X127000000Y-109250000D03*
X127000000Y-118250000D03*
D17*
X123500000Y-113750000D03*
D18*
X118500000Y-113750000D03*
D16*
X115000000Y-127500000D03*
X106000000Y-127500000D03*
D18*
X110500000Y-124000000D03*
D17*
X110500000Y-119000000D03*
D37*
X42000000Y-36250000D03*
D38*
X47000000Y-36250000D03*
D37*
X53250000Y-36000000D03*
D38*
X58250000Y-36000000D03*
D21*
X74400000Y-45550000D03*
X74400000Y-43050000D03*
D39*
X68500000Y-41250000D03*
X68500000Y-35250000D03*
X63800000Y-38250000D03*
D32*
X99250000Y-36000000D03*
D33*
X99250000Y-38540000D03*
X99250000Y-41080000D03*
D40*
X76720000Y-42700000D03*
X79000000Y-42700000D03*
X81280000Y-42700000D03*
D41*
X79000000Y-36400000D03*
D14*
X107000000Y-78250000D03*
X109500000Y-78250000D03*
D42*
X104050000Y-81190000D03*
X104050000Y-82460000D03*
X104050000Y-83730000D03*
X104050000Y-85000000D03*
X104050000Y-86270000D03*
X104050000Y-87540000D03*
X104050000Y-88810000D03*
X109450000Y-88810000D03*
X109450000Y-87540000D03*
X109450000Y-86270000D03*
X109450000Y-85000000D03*
X109450000Y-83730000D03*
X109450000Y-82460000D03*
X109450000Y-81190000D03*
D32*
X47900000Y-48100000D03*
D33*
X47900000Y-45560000D03*
D32*
X50120000Y-82480000D03*
D33*
X50120000Y-85020000D03*
D15*
X54200000Y-50750000D03*
X54200000Y-48050000D03*
D22*
X51700000Y-44900000D03*
D27*
X51700000Y-52520000D03*
D26*
X51950000Y-76900000D03*
X54650000Y-76900000D03*
D22*
X54700000Y-74300000D03*
D27*
X54700000Y-66680000D03*
D26*
X69550000Y-61900000D03*
X66850000Y-61900000D03*
D22*
X64600000Y-65800000D03*
D27*
X72220000Y-65800000D03*
D22*
X71900000Y-69800000D03*
D27*
X71900000Y-77420000D03*
D21*
X63700000Y-57150000D03*
X63700000Y-59650000D03*
D26*
X66450000Y-80000000D03*
X69150000Y-80000000D03*
X84150000Y-64800000D03*
X86850000Y-64800000D03*
X81950000Y-108000000D03*
X79250000Y-108000000D03*
D11*
X37400000Y-114400000D03*
D12*
X37400000Y-109320000D03*
M02*
