M48
;DRILL file {KiCad 4.0.7} date 01/01/21 17:18:25
;FORMAT={-:-/ absolute / metric / decimal}
FMAT,2
METRIC,TZ
T1C0.400
T2C0.800
T3C0.810
T4C1.000
T5C1.500
T6C1.520
T7C1.700
T8C2.300
%
G90
G05
M71
T1
X31.7Y-117.4
X34.7Y-117.2
X37.8Y-125.8
X40.7Y-123.2
X43.6Y-53.4
X44.1Y-93.5
X45.7Y-53.1
X45.8Y-93.1
X48.3Y-115.8
X48.8Y-37.9
X49.4Y-116.9
X49.7Y-118.4
X50.8Y-123.7
X50.9Y-116.8
X50.9Y-125.3
X52.1Y-38.
X53.5Y-55.8
X54.5Y-59.6
X56.Y-39.75
X60.8Y-70.4
X62.1Y-41.3
X62.5Y-42.3
X64.7Y-73.3
X64.8Y-68.3
X65.Y-48.25
X66.Y-95.4
X66.Y-116.1
X66.25Y-72.25
X66.3Y-114.1
X66.5Y-48.
X67.75Y-40.5
X67.8Y-93.1
X68.Y-69.5
X68.25Y-41.75
X68.25Y-47.25
X68.75Y-50.75
X72.25Y-59.25
X72.4Y-105.3
X73.3Y-104.3
X73.75Y-59.
X78.25Y-42.75
X78.75Y-44.75
X81.3Y-101.6
X82.8Y-101.
X85.2Y-106.4
X86.4Y-104.3
X86.7Y-84.
X87.Y-57.3
X87.Y-59.5
X87.5Y-110.5
X88.6Y-85.7
X89.1Y-112.
X89.6Y-115.1
X91.2Y-32.4
X92.6Y-102.1
X93.4Y-104.3
X93.9Y-115.2
X94.2Y-111.2
X95.3Y-32.9
X96.1Y-51.9
X96.5Y-50.4
X96.6Y-47.9
X96.8Y-55.
X98.1Y-109.4
X99.Y-42.8
X100.9Y-41.1
X104.Y-68.1
X105.9Y-67.5
X105.9Y-68.5
X107.2Y-57.8
X107.6Y-49.7
X108.2Y-54.3
X108.4Y-41.9
X109.7Y-42.1
X109.8Y-57.8
X110.Y-66.8
X111.6Y-54.2
X112.5Y-57.7
X112.6Y-45.6
X112.9Y-54.1
X113.9Y-72.5
X114.Y-45.2
X115.3Y-69.8
X116.2Y-72.6
X118.9Y-64.7
X118.9Y-68.
X119.6Y-58.6
X119.7Y-46.8
X120.7Y-59.6
T2
X38.1Y-113.28
X38.1Y-120.9
X46.8Y-106.1
X46.8Y-113.72
X48.78Y-64.4
X53.18Y-126.3
X53.5Y-101.9
X53.5Y-106.2
X53.7Y-114.6
X54.6Y-41.6
X54.6Y-49.22
X55.3Y-93.5
X56.4Y-64.4
X56.58Y-57.8
X58.7Y-114.6
X59.9Y-64.88
X59.9Y-72.5
X60.3Y-93.5
X60.8Y-126.3
X61.1Y-98.2
X61.12Y-101.9
X61.12Y-106.2
X61.5Y-110.4
X62.6Y-120.9
X64.2Y-57.8
X67.25Y-68.
X67.38Y-64.5
X68.72Y-98.2
X69.12Y-110.4
X70.22Y-120.9
X70.75Y-41.5
X70.75Y-49.12
X74.58Y-120.8
X74.58Y-124.3
X74.87Y-68.
X74.9Y-97.4
X74.9Y-102.4
X75.Y-64.5
X75.6Y-110.3
X75.6Y-115.3
X78.2Y-58.
X78.2Y-65.62
X79.Y-96.
X79.Y-103.62
X79.5Y-107.68
X79.5Y-115.3
X82.2Y-120.8
X82.2Y-124.3
T3
X108.Y-35.5
X108.Y-37.5
X110.54Y-35.5
X110.54Y-37.5
T4
X51.1Y-71.7
X53.64Y-71.7
X61.8Y-51.56
X61.8Y-54.1
X82.9Y-77.26
X82.9Y-79.8
X83.Y-53.17
X83.Y-55.71
X83.Y-58.25
X83.Y-64.42
X83.Y-66.96
X83.Y-69.5
X83.1Y-43.1
X83.1Y-45.64
X108.4Y-75.4
X110.94Y-75.4
T5
X35.6Y-82.1
X35.8Y-58.4
X109.3Y-103.3
X109.3Y-116.9
T6
X36.7Y-68.22
X36.7Y-73.3
X36.8Y-43.52
X36.8Y-48.6
X95.52Y-125.7
X100.6Y-125.7
X106.5Y-90.2
X111.58Y-90.2
T7
X33.06Y-79.56
X33.06Y-84.64
X33.26Y-55.86
X33.26Y-60.94
X38.14Y-79.56
X38.14Y-84.64
X38.34Y-55.86
X38.34Y-60.94
X106.76Y-100.76
X106.76Y-105.84
X106.76Y-114.36
X106.76Y-119.44
X111.84Y-100.76
X111.84Y-105.84
X111.84Y-114.36
X111.84Y-119.44
T8
X103.27Y-32.8
X115.27Y-32.8
T5
X36.2Y-107.G85X36.2Y-106.
G05
X36.4Y-94.8G85X36.4Y-93.8
G05
X40.7Y-106.5G85X41.7Y-106.5
G05
X40.9Y-94.3G85X41.9Y-94.3
G05
X118.2Y-78.G85X117.2Y-78.
G05
X118.3Y-90.8G85X117.3Y-90.8
G05
X118.4Y-103.3G85X117.4Y-103.3
G05
X118.5Y-116.8G85X117.5Y-116.8
G05
X122.7Y-77.5G85X122.7Y-78.5
G05
X122.8Y-90.3G85X122.8Y-91.3
G05
X122.9Y-102.8G85X122.9Y-103.8
G05
X123.Y-116.3G85X123.Y-117.3
G05
T0
M30
