M48
;DRILL file {KiCad 4.0.7} date 12/29/20 13:50:43
;FORMAT={-:-/ absolute / metric / decimal}
FMAT,2
METRIC,TZ
T1C0.400
T2C0.800
T3C0.810
T4C1.000
T5C1.500
T6C1.520
T7C1.700
T8C2.300
%
G90
G05
M71
T1
X43.6Y-53.4
X45.7Y-53.1
X48.8Y-37.9
X52.1Y-38.
X52.9Y-125.4
X53.5Y-55.8
X53.6Y-122.3
X54.5Y-59.6
X55.6Y-118.5
X56.Y-39.75
X60.9Y-66.9
X62.1Y-41.3
X62.5Y-42.3
X63.4Y-115.4
X63.8Y-69.8
X63.9Y-65.6
X64.1Y-122.
X64.5Y-116.5
X65.Y-48.25
X66.1Y-118.7
X66.25Y-72.25
X66.5Y-48.
X66.5Y-124.4
X66.6Y-121.8
X67.75Y-40.5
X68.Y-69.5
X68.25Y-41.75
X68.25Y-47.25
X68.75Y-50.75
X72.25Y-59.25
X73.75Y-59.
X78.25Y-42.75
X78.75Y-44.75
X81.1Y-95.
X81.1Y-115.7
X81.4Y-113.7
X82.9Y-92.7
X86.7Y-84.
X87.Y-57.3
X87.Y-59.5
X87.5Y-104.9
X88.4Y-103.9
X88.6Y-85.7
X91.2Y-32.4
X95.3Y-32.9
X96.1Y-51.9
X96.4Y-101.2
X96.8Y-55.
X99.Y-42.8
X100.3Y-106.
X100.9Y-41.1
X101.Y-48.4
X101.1Y-50.5
X101.5Y-103.9
X102.6Y-110.1
X104.Y-66.9
X104.7Y-114.7
X105.9Y-66.3
X105.9Y-67.3
X107.Y-43.3
X107.3Y-57.7
X107.6Y-49.7
X107.7Y-101.7
X108.2Y-54.3
X108.4Y-41.9
X108.5Y-103.9
X109.Y-114.8
X109.3Y-110.8
X109.7Y-57.7
X110.Y-65.6
X111.2Y-57.7
X111.6Y-54.2
X112.5Y-57.8
X112.6Y-45.6
X112.9Y-54.1
X113.2Y-109.
X113.9Y-71.3
X114.Y-45.2
X115.3Y-68.6
X116.2Y-71.4
X119.6Y-58.6
X119.7Y-46.8
X120.5Y-61.3
X120.7Y-65.2
T2
X48.78Y-64.4
X51.Y-109.5
X54.6Y-41.6
X54.6Y-49.22
X56.4Y-64.4
X56.58Y-57.8
X58.62Y-109.5
X59.7Y-61.08
X59.7Y-68.7
X61.9Y-105.7
X61.9Y-113.32
X64.2Y-57.8
X67.25Y-68.
X67.38Y-64.5
X68.6Y-101.5
X68.6Y-105.8
X68.8Y-114.2
X70.4Y-93.1
X70.75Y-41.5
X70.75Y-49.12
X73.8Y-114.2
X74.87Y-68.
X75.Y-64.5
X75.4Y-93.1
X76.2Y-97.8
X76.22Y-101.5
X76.22Y-105.8
X76.6Y-110.
X77.7Y-120.5
X78.25Y-52.
X78.25Y-59.62
X83.82Y-97.8
X84.22Y-110.
X85.32Y-120.5
X89.68Y-120.4
X89.68Y-123.9
X90.Y-97.
X90.Y-102.
X90.7Y-109.9
X90.7Y-114.9
X94.1Y-95.6
X94.1Y-103.22
X94.6Y-107.28
X94.6Y-114.9
X97.3Y-120.4
X97.3Y-123.9
T3
X108.Y-35.5
X108.Y-37.5
X110.54Y-35.5
X110.54Y-37.5
T4
X51.6Y-68.2
X54.14Y-68.2
X61.8Y-51.56
X61.8Y-54.1
X82.9Y-77.26
X82.9Y-79.8
X83.Y-53.17
X83.Y-55.71
X83.Y-58.25
X83.Y-64.42
X83.Y-66.96
X83.Y-69.5
X83.1Y-43.1
X83.1Y-45.64
T5
X36.Y-65.
X37.Y-91.
X110.8Y-82.8
X111.2Y-124.6
T6
X36.8Y-49.02
X36.8Y-54.1
X37.Y-75.92
X37.Y-81.
X124.5Y-99.
X124.5Y-104.08
X124.8Y-73.
X124.8Y-78.08
T7
X33.46Y-62.46
X33.46Y-67.54
X34.46Y-88.46
X34.46Y-93.54
X38.54Y-62.46
X38.54Y-67.54
X39.54Y-88.46
X39.54Y-93.54
X108.26Y-80.26
X108.26Y-85.34
X108.66Y-122.06
X108.66Y-127.14
X113.34Y-80.26
X113.34Y-85.34
X113.74Y-122.06
X113.74Y-127.14
T8
X103.27Y-32.8
X115.27Y-32.8
T5
X119.4Y-87.9G85X118.4Y-87.9
G05
X119.8Y-113.7G85X118.8Y-113.7
G05
X123.9Y-87.4G85X123.9Y-88.4
G05
X124.3Y-113.2G85X124.3Y-114.2
G05
T0
M30
