G04 #@! TF.FileFunction,Copper,L2,Bot,Signal*
%FSLAX46Y46*%
G04 Gerber Fmt 4.6, Leading zero omitted, Abs format (unit mm)*
G04 Created by KiCad (PCBNEW 4.0.7) date 12/29/20 13:50:42*
%MOMM*%
%LPD*%
G01*
G04 APERTURE LIST*
%ADD10C,0.100000*%
%ADD11C,1.600000*%
%ADD12C,1.520000*%
%ADD13C,2.700000*%
%ADD14R,3.000000X3.000000*%
%ADD15C,3.000000*%
%ADD16O,1.600000X1.600000*%
%ADD17O,2.500000X3.500000*%
%ADD18O,3.500000X2.500000*%
%ADD19R,1.700000X1.700000*%
%ADD20O,1.700000X1.700000*%
%ADD21C,4.064000*%
%ADD22C,2.200000*%
%ADD23C,2.000000*%
%ADD24C,0.600000*%
%ADD25C,0.500000*%
%ADD26C,0.350000*%
G04 APERTURE END LIST*
D10*
D11*
X68800000Y-114200000D03*
X73800000Y-114200000D03*
X90700000Y-114900000D03*
X90700000Y-109900000D03*
D12*
X110540000Y-37500000D03*
X108000000Y-37500000D03*
X108000000Y-35500000D03*
X110540000Y-35500000D03*
D13*
X115270000Y-32800000D03*
X103270000Y-32800000D03*
D14*
X124500000Y-99000000D03*
D15*
X124500000Y-104080000D03*
D11*
X68600000Y-105800000D03*
D16*
X76220000Y-105800000D03*
D11*
X94600000Y-114900000D03*
D16*
X94600000Y-107280000D03*
D11*
X76600000Y-110000000D03*
D16*
X84220000Y-110000000D03*
D17*
X124300000Y-113700000D03*
D18*
X119300000Y-113700000D03*
D11*
X70400000Y-93100000D03*
X75400000Y-93100000D03*
X90000000Y-97000000D03*
X90000000Y-102000000D03*
D17*
X123900000Y-87900000D03*
D18*
X118900000Y-87900000D03*
D14*
X124800000Y-73000000D03*
D15*
X124800000Y-78080000D03*
D11*
X68600000Y-101500000D03*
D16*
X76220000Y-101500000D03*
D11*
X94100000Y-95600000D03*
D16*
X94100000Y-103220000D03*
D11*
X76200000Y-97800000D03*
D16*
X83820000Y-97800000D03*
D11*
X61900000Y-105700000D03*
D16*
X61900000Y-113320000D03*
D11*
X77700000Y-120500000D03*
D16*
X85320000Y-120500000D03*
D11*
X97300000Y-120400000D03*
D16*
X89680000Y-120400000D03*
D11*
X97300000Y-123900000D03*
D16*
X89680000Y-123900000D03*
D11*
X51000000Y-109500000D03*
D16*
X58620000Y-109500000D03*
D14*
X36800000Y-54100000D03*
D15*
X36800000Y-49020000D03*
D19*
X83000000Y-58250000D03*
D20*
X83000000Y-55710000D03*
X83000000Y-53170000D03*
D11*
X54600000Y-41600000D03*
D16*
X54600000Y-49220000D03*
D11*
X64200000Y-57800000D03*
D16*
X56580000Y-57800000D03*
D14*
X37000000Y-81000000D03*
D15*
X37000000Y-75920000D03*
D19*
X83000000Y-69500000D03*
D20*
X83000000Y-66960000D03*
X83000000Y-64420000D03*
D11*
X59700000Y-68700000D03*
D16*
X59700000Y-61080000D03*
D11*
X56400000Y-64400000D03*
D16*
X48780000Y-64400000D03*
D21*
X33000000Y-33000000D03*
X127000000Y-33000000D03*
X127000000Y-127000000D03*
X33000000Y-127000000D03*
D22*
X33460000Y-67540000D03*
X33460000Y-62460000D03*
X38540000Y-62460000D03*
X38540000Y-67540000D03*
D23*
X36000000Y-65000000D03*
D22*
X34460000Y-93540000D03*
X34460000Y-88460000D03*
X39540000Y-88460000D03*
X39540000Y-93540000D03*
D23*
X37000000Y-91000000D03*
D22*
X108660000Y-127140000D03*
X108660000Y-122060000D03*
X113740000Y-122060000D03*
X113740000Y-127140000D03*
D23*
X111200000Y-124600000D03*
D22*
X108260000Y-85340000D03*
X108260000Y-80260000D03*
X113340000Y-80260000D03*
X113340000Y-85340000D03*
D23*
X110800000Y-82800000D03*
D11*
X70750000Y-41500000D03*
D16*
X70750000Y-49120000D03*
D11*
X67250000Y-68000000D03*
D16*
X74870000Y-68000000D03*
D11*
X78250000Y-52000000D03*
D16*
X78250000Y-59620000D03*
D11*
X75000000Y-64500000D03*
D16*
X67380000Y-64500000D03*
D19*
X61800000Y-54100000D03*
D20*
X61800000Y-51560000D03*
D19*
X51600000Y-68200000D03*
D20*
X54140000Y-68200000D03*
D19*
X83100000Y-43100000D03*
D20*
X83100000Y-45640000D03*
D19*
X82900000Y-79800000D03*
D20*
X82900000Y-77260000D03*
D24*
X109000000Y-114800000D03*
X104700000Y-114700000D03*
X68750000Y-50750000D03*
X68250000Y-47250000D03*
X112900000Y-54100000D03*
X111600000Y-54200000D03*
X53500000Y-55800000D03*
X54500000Y-59600000D03*
X62500000Y-42300000D03*
X62100000Y-41300000D03*
X96100000Y-51900000D03*
X65000000Y-48250000D03*
X73750000Y-59000000D03*
X72250000Y-59250000D03*
X68000000Y-69500000D03*
X66250000Y-72250000D03*
X66500000Y-48000000D03*
X78250000Y-42750000D03*
X78750000Y-44750000D03*
X68250000Y-41750000D03*
X67750000Y-40500000D03*
X43600000Y-53400000D03*
X45700000Y-53100000D03*
X60900000Y-66900000D03*
X63900000Y-65600000D03*
X48800000Y-37900000D03*
X52100000Y-38000000D03*
X96800000Y-55000000D03*
X108500000Y-103900000D03*
X107700000Y-101700000D03*
X113200000Y-109000000D03*
X55600000Y-118500000D03*
X52900000Y-125400000D03*
X53600000Y-122300000D03*
X66500000Y-124400000D03*
X64100000Y-122000000D03*
X66600000Y-121800000D03*
X66100000Y-118700000D03*
X109300000Y-110800000D03*
X99000000Y-42800000D03*
X100900000Y-41100000D03*
X95300000Y-32900000D03*
X91200000Y-32400000D03*
X81100000Y-95000000D03*
X82900000Y-92700000D03*
X81400000Y-113700000D03*
X81100000Y-115700000D03*
X87500000Y-104900000D03*
X88400000Y-103900000D03*
X96400000Y-101200000D03*
X102600000Y-110100000D03*
X112600000Y-45600000D03*
X119700000Y-46800000D03*
X114000000Y-45200000D03*
X107000000Y-43300000D03*
X108400000Y-41900000D03*
X115300000Y-68600000D03*
X113900000Y-71300000D03*
X116200000Y-71400000D03*
X105900000Y-66300000D03*
X104000000Y-66900000D03*
X108200000Y-54300000D03*
X107600000Y-49700000D03*
X120700000Y-65200000D03*
X120500000Y-61300000D03*
X119600000Y-58600000D03*
X112500000Y-57800000D03*
X111200000Y-57700000D03*
X109700000Y-57700000D03*
X110000000Y-65600000D03*
X105900000Y-67300000D03*
X107300000Y-57700000D03*
X64500000Y-116500000D03*
X63400000Y-115400000D03*
X86700000Y-84000000D03*
X88600000Y-85700000D03*
X101100000Y-50500000D03*
X101000000Y-48400000D03*
X63800000Y-69800000D03*
X56000000Y-39750000D03*
X100300000Y-106000000D03*
X101500000Y-103900000D03*
X87000000Y-57300000D03*
X87000000Y-59500000D03*
D25*
X109000000Y-114800000D02*
X108900000Y-114700000D01*
X108900000Y-114700000D02*
X104700000Y-114700000D01*
D26*
X68750000Y-47750000D02*
X68750000Y-50750000D01*
X68250000Y-47250000D02*
X68750000Y-47750000D01*
X108600000Y-104000000D02*
X108600000Y-104800000D01*
X108500000Y-103900000D02*
X108600000Y-104000000D01*
X86900000Y-84000000D02*
X86700000Y-84000000D01*
X88600000Y-85700000D02*
X86900000Y-84000000D01*
X101100000Y-50500000D02*
X101000000Y-50400000D01*
X101000000Y-50400000D02*
X101000000Y-48400000D01*
X66250000Y-68000000D02*
X63800000Y-69800000D01*
X66250000Y-68000000D02*
X67250000Y-68000000D01*
X54600000Y-41600000D02*
X54600000Y-41150000D01*
X54600000Y-41150000D02*
X56000000Y-39750000D01*
X94600000Y-107280000D02*
X95520000Y-107280000D01*
X96800000Y-106000000D02*
X100300000Y-106000000D01*
X95520000Y-107280000D02*
X96800000Y-106000000D01*
X94100000Y-103220000D02*
X94620000Y-103220000D01*
X94620000Y-103220000D02*
X95300000Y-103900000D01*
X95300000Y-103900000D02*
X101500000Y-103900000D01*
X87000000Y-59500000D02*
X87000000Y-57300000D01*
D25*
G36*
X102446301Y-31021706D02*
X103270000Y-31845406D01*
X104093699Y-31021706D01*
X103969250Y-30825000D01*
X114570750Y-30825000D01*
X114446301Y-31021706D01*
X115270000Y-31845406D01*
X116093699Y-31021706D01*
X115969250Y-30825000D01*
X125241019Y-30825000D01*
X124642910Y-31422066D01*
X124218484Y-32444198D01*
X124217518Y-33550946D01*
X124640160Y-34573818D01*
X125422066Y-35357090D01*
X126444198Y-35781516D01*
X127550946Y-35782482D01*
X128573818Y-35359840D01*
X129175000Y-34759706D01*
X129175000Y-108134156D01*
X129037437Y-107928278D01*
X128469696Y-107548926D01*
X127800000Y-107415715D01*
X127130304Y-107548926D01*
X126562563Y-107928278D01*
X126183211Y-108496019D01*
X126050000Y-109165715D01*
X126050000Y-109234285D01*
X126183211Y-109903981D01*
X126562563Y-110471722D01*
X127130304Y-110851074D01*
X127800000Y-110984285D01*
X128469696Y-110851074D01*
X129037437Y-110471722D01*
X129175000Y-110265844D01*
X129175000Y-117134156D01*
X129037437Y-116928278D01*
X128469696Y-116548926D01*
X127800000Y-116415715D01*
X127130304Y-116548926D01*
X126562563Y-116928278D01*
X126183211Y-117496019D01*
X126050000Y-118165715D01*
X126050000Y-118234285D01*
X126183211Y-118903981D01*
X126562563Y-119471722D01*
X127130304Y-119851074D01*
X127800000Y-119984285D01*
X128469696Y-119851074D01*
X129037437Y-119471722D01*
X129175000Y-119265844D01*
X129175000Y-125241019D01*
X128577934Y-124642910D01*
X127555802Y-124218484D01*
X126449054Y-124217518D01*
X125426182Y-124640160D01*
X124642910Y-125422066D01*
X124218484Y-126444198D01*
X124217518Y-127550946D01*
X124640160Y-128573818D01*
X125240294Y-129175000D01*
X34758981Y-129175000D01*
X35264862Y-128670001D01*
X107907817Y-128670001D01*
X108039421Y-128929869D01*
X108771613Y-129031108D01*
X109280579Y-128929869D01*
X109412183Y-128670001D01*
X112987817Y-128670001D01*
X113119421Y-128929869D01*
X113851613Y-129031108D01*
X114360579Y-128929869D01*
X114492183Y-128670001D01*
X113740000Y-127917817D01*
X112987817Y-128670001D01*
X109412183Y-128670001D01*
X108660000Y-127917817D01*
X107907817Y-128670001D01*
X35264862Y-128670001D01*
X35357090Y-128577934D01*
X35781516Y-127555802D01*
X35781781Y-127251613D01*
X106768892Y-127251613D01*
X106870131Y-127760579D01*
X107129999Y-127892183D01*
X107882183Y-127140000D01*
X107129999Y-126387817D01*
X106870131Y-126519421D01*
X106768892Y-127251613D01*
X35781781Y-127251613D01*
X35782482Y-126449054D01*
X35359840Y-125426182D01*
X34577934Y-124642910D01*
X33555802Y-124218484D01*
X32449054Y-124217518D01*
X31426182Y-124640160D01*
X30825000Y-125240294D01*
X30825000Y-123900000D01*
X88099634Y-123900000D01*
X88217621Y-124493159D01*
X88553618Y-124996016D01*
X89056475Y-125332013D01*
X89649634Y-125450000D01*
X89710366Y-125450000D01*
X90303525Y-125332013D01*
X90806382Y-124996016D01*
X91142379Y-124493159D01*
X91199307Y-124206961D01*
X95749732Y-124206961D01*
X95985208Y-124776857D01*
X96420849Y-125213260D01*
X96990333Y-125449730D01*
X97606961Y-125450268D01*
X98176857Y-125214792D01*
X98613260Y-124779151D01*
X98849730Y-124209667D01*
X98850268Y-123593039D01*
X98849013Y-123590001D01*
X107907817Y-123590001D01*
X108039421Y-123849869D01*
X108771613Y-123951108D01*
X108781393Y-123949163D01*
X109112195Y-124279965D01*
X109669382Y-123722778D01*
X109450304Y-124250376D01*
X109449696Y-124946569D01*
X109668659Y-125476499D01*
X109112195Y-124920035D01*
X108754798Y-125277432D01*
X108548387Y-125248892D01*
X108039421Y-125350131D01*
X107907817Y-125609999D01*
X108660000Y-126362183D01*
X109048909Y-125973274D01*
X109826726Y-126751091D01*
X109437817Y-127140000D01*
X110190001Y-127892183D01*
X110449869Y-127760579D01*
X110551108Y-127028387D01*
X110549163Y-127018607D01*
X110879965Y-126687805D01*
X110322778Y-126130618D01*
X110850376Y-126349696D01*
X111546569Y-126350304D01*
X112076499Y-126131341D01*
X111520035Y-126687805D01*
X111877432Y-127045202D01*
X111848892Y-127251613D01*
X111950131Y-127760579D01*
X112209999Y-127892183D01*
X112962183Y-127140000D01*
X114517817Y-127140000D01*
X115270001Y-127892183D01*
X115529869Y-127760579D01*
X115631108Y-127028387D01*
X115529869Y-126519421D01*
X115270001Y-126387817D01*
X114517817Y-127140000D01*
X112962183Y-127140000D01*
X112573274Y-126751091D01*
X113351091Y-125973274D01*
X113740000Y-126362183D01*
X114492183Y-125609999D01*
X114360579Y-125350131D01*
X113628387Y-125248892D01*
X113618607Y-125250837D01*
X113287805Y-124920035D01*
X112730618Y-125477222D01*
X112949696Y-124949624D01*
X112950304Y-124253431D01*
X112731341Y-123723501D01*
X113287805Y-124279965D01*
X113645202Y-123922568D01*
X113851613Y-123951108D01*
X114360579Y-123849869D01*
X114492183Y-123590001D01*
X113740000Y-122837817D01*
X113351091Y-123226726D01*
X112573274Y-122448909D01*
X112962183Y-122060000D01*
X114517817Y-122060000D01*
X115270001Y-122812183D01*
X115529869Y-122680579D01*
X115631108Y-121948387D01*
X115529869Y-121439421D01*
X115270001Y-121307817D01*
X114517817Y-122060000D01*
X112962183Y-122060000D01*
X112209999Y-121307817D01*
X111950131Y-121439421D01*
X111848892Y-122171613D01*
X111850837Y-122181393D01*
X111520035Y-122512195D01*
X112077222Y-123069382D01*
X111549624Y-122850304D01*
X110853431Y-122849696D01*
X110323501Y-123068659D01*
X110879965Y-122512195D01*
X110522568Y-122154798D01*
X110551108Y-121948387D01*
X110449869Y-121439421D01*
X110190001Y-121307817D01*
X109437817Y-122060000D01*
X109826726Y-122448909D01*
X109048909Y-123226726D01*
X108660000Y-122837817D01*
X107907817Y-123590001D01*
X98849013Y-123590001D01*
X98614792Y-123023143D01*
X98179151Y-122586740D01*
X97609667Y-122350270D01*
X96993039Y-122349732D01*
X96423143Y-122585208D01*
X95986740Y-123020849D01*
X95750270Y-123590333D01*
X95749732Y-124206961D01*
X91199307Y-124206961D01*
X91260366Y-123900000D01*
X91142379Y-123306841D01*
X90806382Y-122803984D01*
X90303525Y-122467987D01*
X89710366Y-122350000D01*
X89649634Y-122350000D01*
X89056475Y-122467987D01*
X88553618Y-122803984D01*
X88217621Y-123306841D01*
X88099634Y-123900000D01*
X30825000Y-123900000D01*
X30825000Y-122171613D01*
X106768892Y-122171613D01*
X106870131Y-122680579D01*
X107129999Y-122812183D01*
X107882183Y-122060000D01*
X107129999Y-121307817D01*
X106870131Y-121439421D01*
X106768892Y-122171613D01*
X30825000Y-122171613D01*
X30825000Y-120806961D01*
X76149732Y-120806961D01*
X76385208Y-121376857D01*
X76820849Y-121813260D01*
X77390333Y-122049730D01*
X78006961Y-122050268D01*
X78576857Y-121814792D01*
X79013260Y-121379151D01*
X79249730Y-120809667D01*
X79250000Y-120500000D01*
X83739634Y-120500000D01*
X83857621Y-121093159D01*
X84193618Y-121596016D01*
X84696475Y-121932013D01*
X85289634Y-122050000D01*
X85350366Y-122050000D01*
X85943525Y-121932013D01*
X86446382Y-121596016D01*
X86782379Y-121093159D01*
X86900366Y-120500000D01*
X86880475Y-120400000D01*
X88099634Y-120400000D01*
X88217621Y-120993159D01*
X88553618Y-121496016D01*
X89056475Y-121832013D01*
X89649634Y-121950000D01*
X89710366Y-121950000D01*
X90303525Y-121832013D01*
X90806382Y-121496016D01*
X91142379Y-120993159D01*
X91199307Y-120706961D01*
X95749732Y-120706961D01*
X95985208Y-121276857D01*
X96420849Y-121713260D01*
X96990333Y-121949730D01*
X97606961Y-121950268D01*
X98176857Y-121714792D01*
X98613260Y-121279151D01*
X98849730Y-120709667D01*
X98849886Y-120529999D01*
X107907817Y-120529999D01*
X108660000Y-121282183D01*
X109412183Y-120529999D01*
X112987817Y-120529999D01*
X113740000Y-121282183D01*
X114492183Y-120529999D01*
X114360579Y-120270131D01*
X113628387Y-120168892D01*
X113119421Y-120270131D01*
X112987817Y-120529999D01*
X109412183Y-120529999D01*
X109280579Y-120270131D01*
X108548387Y-120168892D01*
X108039421Y-120270131D01*
X107907817Y-120529999D01*
X98849886Y-120529999D01*
X98850268Y-120093039D01*
X98614792Y-119523143D01*
X98179151Y-119086740D01*
X97609667Y-118850270D01*
X96993039Y-118849732D01*
X96423143Y-119085208D01*
X95986740Y-119520849D01*
X95750270Y-120090333D01*
X95749732Y-120706961D01*
X91199307Y-120706961D01*
X91260366Y-120400000D01*
X91142379Y-119806841D01*
X90806382Y-119303984D01*
X90303525Y-118967987D01*
X89710366Y-118850000D01*
X89649634Y-118850000D01*
X89056475Y-118967987D01*
X88553618Y-119303984D01*
X88217621Y-119806841D01*
X88099634Y-120400000D01*
X86880475Y-120400000D01*
X86782379Y-119906841D01*
X86446382Y-119403984D01*
X85943525Y-119067987D01*
X85350366Y-118950000D01*
X85289634Y-118950000D01*
X84696475Y-119067987D01*
X84193618Y-119403984D01*
X83857621Y-119906841D01*
X83739634Y-120500000D01*
X79250000Y-120500000D01*
X79250268Y-120193039D01*
X79014792Y-119623143D01*
X78579151Y-119186740D01*
X78009667Y-118950270D01*
X77393039Y-118949732D01*
X76823143Y-119185208D01*
X76386740Y-119620849D01*
X76150270Y-120190333D01*
X76149732Y-120806961D01*
X30825000Y-120806961D01*
X30825000Y-115430805D01*
X68134881Y-115430805D01*
X68219983Y-115678846D01*
X68830064Y-115788239D01*
X69380017Y-115678846D01*
X69465119Y-115430805D01*
X68800000Y-114765685D01*
X68134881Y-115430805D01*
X30825000Y-115430805D01*
X30825000Y-113289634D01*
X60350000Y-113289634D01*
X60350000Y-113350366D01*
X60467987Y-113943525D01*
X60803984Y-114446382D01*
X61306841Y-114782379D01*
X61900000Y-114900366D01*
X62493159Y-114782379D01*
X62996016Y-114446382D01*
X63140554Y-114230064D01*
X67211761Y-114230064D01*
X67321154Y-114780017D01*
X67569195Y-114865119D01*
X68234315Y-114200000D01*
X69365685Y-114200000D01*
X70030805Y-114865119D01*
X70278846Y-114780017D01*
X70327807Y-114506961D01*
X72249732Y-114506961D01*
X72485208Y-115076857D01*
X72920849Y-115513260D01*
X73490333Y-115749730D01*
X74106961Y-115750268D01*
X74676857Y-115514792D01*
X74985226Y-115206961D01*
X89149732Y-115206961D01*
X89385208Y-115776857D01*
X89820849Y-116213260D01*
X90390333Y-116449730D01*
X91006961Y-116450268D01*
X91576857Y-116214792D01*
X92013260Y-115779151D01*
X92249730Y-115209667D01*
X92249732Y-115206961D01*
X93049732Y-115206961D01*
X93285208Y-115776857D01*
X93720849Y-116213260D01*
X94290333Y-116449730D01*
X94906961Y-116450268D01*
X95476857Y-116214792D01*
X95913260Y-115779151D01*
X96149730Y-115209667D01*
X96149993Y-114907942D01*
X103649818Y-114907942D01*
X103809334Y-115294000D01*
X104104446Y-115589628D01*
X104490226Y-115749818D01*
X104907942Y-115750182D01*
X105029392Y-115700000D01*
X108429425Y-115700000D01*
X108790226Y-115849818D01*
X109207942Y-115850182D01*
X109594000Y-115690666D01*
X109889628Y-115395554D01*
X110049818Y-115009774D01*
X110050161Y-114615822D01*
X117013010Y-114615822D01*
X117474668Y-115145041D01*
X118128546Y-115542226D01*
X118425000Y-115435084D01*
X118425000Y-114325000D01*
X120175000Y-114325000D01*
X120175000Y-115435084D01*
X120471454Y-115542226D01*
X121125332Y-115145041D01*
X121586990Y-114615822D01*
X121507723Y-114325000D01*
X120175000Y-114325000D01*
X118425000Y-114325000D01*
X117092277Y-114325000D01*
X117013010Y-114615822D01*
X110050161Y-114615822D01*
X110050182Y-114592058D01*
X109890666Y-114206000D01*
X109595554Y-113910372D01*
X109299830Y-113787576D01*
X109282684Y-113776120D01*
X109262636Y-113772132D01*
X109209774Y-113750182D01*
X109152031Y-113750132D01*
X108900000Y-113700000D01*
X105029749Y-113700000D01*
X104909774Y-113650182D01*
X104492058Y-113649818D01*
X104106000Y-113809334D01*
X103810372Y-114104446D01*
X103650182Y-114490226D01*
X103649818Y-114907942D01*
X96149993Y-114907942D01*
X96150268Y-114593039D01*
X95914792Y-114023143D01*
X95479151Y-113586740D01*
X94909667Y-113350270D01*
X94293039Y-113349732D01*
X93723143Y-113585208D01*
X93286740Y-114020849D01*
X93050270Y-114590333D01*
X93049732Y-115206961D01*
X92249732Y-115206961D01*
X92250268Y-114593039D01*
X92014792Y-114023143D01*
X91579151Y-113586740D01*
X91009667Y-113350270D01*
X90393039Y-113349732D01*
X89823143Y-113585208D01*
X89386740Y-114020849D01*
X89150270Y-114590333D01*
X89149732Y-115206961D01*
X74985226Y-115206961D01*
X75113260Y-115079151D01*
X75349730Y-114509667D01*
X75350268Y-113893039D01*
X75114792Y-113323143D01*
X74942972Y-113151022D01*
X122300000Y-113151022D01*
X122300000Y-114248978D01*
X122452241Y-115014345D01*
X122885786Y-115663192D01*
X123534633Y-116096737D01*
X124300000Y-116248978D01*
X125065367Y-116096737D01*
X125714214Y-115663192D01*
X126147759Y-115014345D01*
X126300000Y-114248978D01*
X126300000Y-113151022D01*
X126147759Y-112385655D01*
X125714214Y-111736808D01*
X125065367Y-111303263D01*
X124300000Y-111151022D01*
X123534633Y-111303263D01*
X122885786Y-111736808D01*
X122452241Y-112385655D01*
X122300000Y-113151022D01*
X74942972Y-113151022D01*
X74679151Y-112886740D01*
X74432154Y-112784178D01*
X117013010Y-112784178D01*
X117092277Y-113075000D01*
X118425000Y-113075000D01*
X118425000Y-111964916D01*
X120175000Y-111964916D01*
X120175000Y-113075000D01*
X121507723Y-113075000D01*
X121586990Y-112784178D01*
X121125332Y-112254959D01*
X120471454Y-111857774D01*
X120175000Y-111964916D01*
X118425000Y-111964916D01*
X118128546Y-111857774D01*
X117474668Y-112254959D01*
X117013010Y-112784178D01*
X74432154Y-112784178D01*
X74109667Y-112650270D01*
X73493039Y-112649732D01*
X72923143Y-112885208D01*
X72486740Y-113320849D01*
X72250270Y-113890333D01*
X72249732Y-114506961D01*
X70327807Y-114506961D01*
X70388239Y-114169936D01*
X70278846Y-113619983D01*
X70030805Y-113534881D01*
X69365685Y-114200000D01*
X68234315Y-114200000D01*
X67569195Y-113534881D01*
X67321154Y-113619983D01*
X67211761Y-114230064D01*
X63140554Y-114230064D01*
X63332013Y-113943525D01*
X63450000Y-113350366D01*
X63450000Y-113289634D01*
X63386261Y-112969195D01*
X68134881Y-112969195D01*
X68800000Y-113634315D01*
X69465119Y-112969195D01*
X69380017Y-112721154D01*
X68769936Y-112611761D01*
X68219983Y-112721154D01*
X68134881Y-112969195D01*
X63386261Y-112969195D01*
X63332013Y-112696475D01*
X62996016Y-112193618D01*
X62493159Y-111857621D01*
X61900000Y-111739634D01*
X61306841Y-111857621D01*
X60803984Y-112193618D01*
X60467987Y-112696475D01*
X60350000Y-113289634D01*
X30825000Y-113289634D01*
X30825000Y-109806961D01*
X49449732Y-109806961D01*
X49685208Y-110376857D01*
X50120849Y-110813260D01*
X50690333Y-111049730D01*
X51306961Y-111050268D01*
X51876857Y-110814792D01*
X52313260Y-110379151D01*
X52549730Y-109809667D01*
X52550000Y-109500000D01*
X57039634Y-109500000D01*
X57157621Y-110093159D01*
X57493618Y-110596016D01*
X57996475Y-110932013D01*
X58589634Y-111050000D01*
X58650366Y-111050000D01*
X59243525Y-110932013D01*
X59746382Y-110596016D01*
X59939521Y-110306961D01*
X75049732Y-110306961D01*
X75285208Y-110876857D01*
X75720849Y-111313260D01*
X76290333Y-111549730D01*
X76906961Y-111550268D01*
X77476857Y-111314792D01*
X77913260Y-110879151D01*
X78149730Y-110309667D01*
X78150000Y-110000000D01*
X82639634Y-110000000D01*
X82757621Y-110593159D01*
X83093618Y-111096016D01*
X83596475Y-111432013D01*
X84189634Y-111550000D01*
X84250366Y-111550000D01*
X84843525Y-111432013D01*
X85346382Y-111096016D01*
X85682379Y-110593159D01*
X85759198Y-110206961D01*
X89149732Y-110206961D01*
X89385208Y-110776857D01*
X89820849Y-111213260D01*
X90390333Y-111449730D01*
X91006961Y-111450268D01*
X91576857Y-111214792D01*
X92013260Y-110779151D01*
X92249730Y-110209667D01*
X92250268Y-109593039D01*
X92014792Y-109023143D01*
X91579151Y-108586740D01*
X91009667Y-108350270D01*
X90393039Y-108349732D01*
X89823143Y-108585208D01*
X89386740Y-109020849D01*
X89150270Y-109590333D01*
X89149732Y-110206961D01*
X85759198Y-110206961D01*
X85800366Y-110000000D01*
X85682379Y-109406841D01*
X85346382Y-108903984D01*
X84843525Y-108567987D01*
X84250366Y-108450000D01*
X84189634Y-108450000D01*
X83596475Y-108567987D01*
X83093618Y-108903984D01*
X82757621Y-109406841D01*
X82639634Y-110000000D01*
X78150000Y-110000000D01*
X78150268Y-109693039D01*
X77914792Y-109123143D01*
X77479151Y-108686740D01*
X76909667Y-108450270D01*
X76293039Y-108449732D01*
X75723143Y-108685208D01*
X75286740Y-109120849D01*
X75050270Y-109690333D01*
X75049732Y-110306961D01*
X59939521Y-110306961D01*
X60082379Y-110093159D01*
X60200366Y-109500000D01*
X60082379Y-108906841D01*
X59746382Y-108403984D01*
X59243525Y-108067987D01*
X58650366Y-107950000D01*
X58589634Y-107950000D01*
X57996475Y-108067987D01*
X57493618Y-108403984D01*
X57157621Y-108906841D01*
X57039634Y-109500000D01*
X52550000Y-109500000D01*
X52550268Y-109193039D01*
X52314792Y-108623143D01*
X51879151Y-108186740D01*
X51309667Y-107950270D01*
X50693039Y-107949732D01*
X50123143Y-108185208D01*
X49686740Y-108620849D01*
X49450270Y-109190333D01*
X49449732Y-109806961D01*
X30825000Y-109806961D01*
X30825000Y-106006961D01*
X60349732Y-106006961D01*
X60585208Y-106576857D01*
X61020849Y-107013260D01*
X61590333Y-107249730D01*
X62206961Y-107250268D01*
X62776857Y-107014792D01*
X63213260Y-106579151D01*
X63409330Y-106106961D01*
X67049732Y-106106961D01*
X67285208Y-106676857D01*
X67720849Y-107113260D01*
X68290333Y-107349730D01*
X68906961Y-107350268D01*
X69476857Y-107114792D01*
X69913260Y-106679151D01*
X70149730Y-106109667D01*
X70150000Y-105800000D01*
X74639634Y-105800000D01*
X74757621Y-106393159D01*
X75093618Y-106896016D01*
X75596475Y-107232013D01*
X76189634Y-107350000D01*
X76250366Y-107350000D01*
X76754938Y-107249634D01*
X93050000Y-107249634D01*
X93050000Y-107310366D01*
X93167987Y-107903525D01*
X93503984Y-108406382D01*
X94006841Y-108742379D01*
X94600000Y-108860366D01*
X95193159Y-108742379D01*
X95696016Y-108406382D01*
X95880556Y-108130197D01*
X96174074Y-107934074D01*
X97183148Y-106925000D01*
X99789631Y-106925000D01*
X100090226Y-107049818D01*
X100507942Y-107050182D01*
X100894000Y-106890666D01*
X101189628Y-106595554D01*
X101349818Y-106209774D01*
X101349994Y-106006961D01*
X123633699Y-106006961D01*
X123827361Y-106281784D01*
X124721149Y-106371592D01*
X125172639Y-106281784D01*
X125366301Y-106006961D01*
X124500000Y-105140660D01*
X123633699Y-106006961D01*
X101349994Y-106006961D01*
X101350182Y-105792058D01*
X101190666Y-105406000D01*
X100895554Y-105110372D01*
X100509774Y-104950182D01*
X100092058Y-104949818D01*
X99789095Y-105075000D01*
X96800000Y-105075000D01*
X96446018Y-105145411D01*
X96145926Y-105345926D01*
X95481541Y-106010311D01*
X95193159Y-105817621D01*
X94600000Y-105699634D01*
X94006841Y-105817621D01*
X93503984Y-106153618D01*
X93167987Y-106656475D01*
X93050000Y-107249634D01*
X76754938Y-107249634D01*
X76843525Y-107232013D01*
X77346382Y-106896016D01*
X77682379Y-106393159D01*
X77800366Y-105800000D01*
X77682379Y-105206841D01*
X77346382Y-104703984D01*
X76843525Y-104367987D01*
X76250366Y-104250000D01*
X76189634Y-104250000D01*
X75596475Y-104367987D01*
X75093618Y-104703984D01*
X74757621Y-105206841D01*
X74639634Y-105800000D01*
X70150000Y-105800000D01*
X70150268Y-105493039D01*
X69914792Y-104923143D01*
X69479151Y-104486740D01*
X68909667Y-104250270D01*
X68293039Y-104249732D01*
X67723143Y-104485208D01*
X67286740Y-104920849D01*
X67050270Y-105490333D01*
X67049732Y-106106961D01*
X63409330Y-106106961D01*
X63449730Y-106009667D01*
X63450268Y-105393039D01*
X63214792Y-104823143D01*
X62779151Y-104386740D01*
X62209667Y-104150270D01*
X61593039Y-104149732D01*
X61023143Y-104385208D01*
X60586740Y-104820849D01*
X60350270Y-105390333D01*
X60349732Y-106006961D01*
X30825000Y-106006961D01*
X30825000Y-101806961D01*
X67049732Y-101806961D01*
X67285208Y-102376857D01*
X67720849Y-102813260D01*
X68290333Y-103049730D01*
X68906961Y-103050268D01*
X69476857Y-102814792D01*
X69913260Y-102379151D01*
X70149730Y-101809667D01*
X70150000Y-101500000D01*
X74639634Y-101500000D01*
X74757621Y-102093159D01*
X75093618Y-102596016D01*
X75596475Y-102932013D01*
X76189634Y-103050000D01*
X76250366Y-103050000D01*
X76843525Y-102932013D01*
X77346382Y-102596016D01*
X77539521Y-102306961D01*
X88449732Y-102306961D01*
X88685208Y-102876857D01*
X89120849Y-103313260D01*
X89690333Y-103549730D01*
X90306961Y-103550268D01*
X90876857Y-103314792D01*
X91002233Y-103189634D01*
X92550000Y-103189634D01*
X92550000Y-103250366D01*
X92667987Y-103843525D01*
X93003984Y-104346382D01*
X93506841Y-104682379D01*
X94100000Y-104800366D01*
X94693159Y-104682379D01*
X94765553Y-104634007D01*
X94946017Y-104754589D01*
X95300000Y-104825000D01*
X100989631Y-104825000D01*
X101290226Y-104949818D01*
X101707942Y-104950182D01*
X102094000Y-104790666D01*
X102389628Y-104495554D01*
X102470352Y-104301149D01*
X122208408Y-104301149D01*
X122298216Y-104752639D01*
X122573039Y-104946301D01*
X123439340Y-104080000D01*
X125560660Y-104080000D01*
X126426961Y-104946301D01*
X126701784Y-104752639D01*
X126791592Y-103858851D01*
X126701784Y-103407361D01*
X126426961Y-103213699D01*
X125560660Y-104080000D01*
X123439340Y-104080000D01*
X122573039Y-103213699D01*
X122298216Y-103407361D01*
X122208408Y-104301149D01*
X102470352Y-104301149D01*
X102549818Y-104109774D01*
X102550182Y-103692058D01*
X102390666Y-103306000D01*
X102095554Y-103010372D01*
X101709774Y-102850182D01*
X101292058Y-102849818D01*
X100989095Y-102975000D01*
X95683148Y-102975000D01*
X95588475Y-102880327D01*
X95532013Y-102596475D01*
X95235720Y-102153039D01*
X123633699Y-102153039D01*
X124500000Y-103019340D01*
X125366301Y-102153039D01*
X125172639Y-101878216D01*
X124278851Y-101788408D01*
X123827361Y-101878216D01*
X123633699Y-102153039D01*
X95235720Y-102153039D01*
X95196016Y-102093618D01*
X94693159Y-101757621D01*
X94100000Y-101639634D01*
X93506841Y-101757621D01*
X93003984Y-102093618D01*
X92667987Y-102596475D01*
X92550000Y-103189634D01*
X91002233Y-103189634D01*
X91313260Y-102879151D01*
X91549730Y-102309667D01*
X91550268Y-101693039D01*
X91314792Y-101123143D01*
X90879151Y-100686740D01*
X90309667Y-100450270D01*
X89693039Y-100449732D01*
X89123143Y-100685208D01*
X88686740Y-101120849D01*
X88450270Y-101690333D01*
X88449732Y-102306961D01*
X77539521Y-102306961D01*
X77682379Y-102093159D01*
X77800366Y-101500000D01*
X77682379Y-100906841D01*
X77346382Y-100403984D01*
X76843525Y-100067987D01*
X76250366Y-99950000D01*
X76189634Y-99950000D01*
X75596475Y-100067987D01*
X75093618Y-100403984D01*
X74757621Y-100906841D01*
X74639634Y-101500000D01*
X70150000Y-101500000D01*
X70150268Y-101193039D01*
X69914792Y-100623143D01*
X69479151Y-100186740D01*
X68909667Y-99950270D01*
X68293039Y-99949732D01*
X67723143Y-100185208D01*
X67286740Y-100620849D01*
X67050270Y-101190333D01*
X67049732Y-101806961D01*
X30825000Y-101806961D01*
X30825000Y-98106961D01*
X74649732Y-98106961D01*
X74885208Y-98676857D01*
X75320849Y-99113260D01*
X75890333Y-99349730D01*
X76506961Y-99350268D01*
X77076857Y-99114792D01*
X77513260Y-98679151D01*
X77749730Y-98109667D01*
X77750000Y-97800000D01*
X82239634Y-97800000D01*
X82357621Y-98393159D01*
X82693618Y-98896016D01*
X83196475Y-99232013D01*
X83789634Y-99350000D01*
X83850366Y-99350000D01*
X84443525Y-99232013D01*
X84946382Y-98896016D01*
X85282379Y-98393159D01*
X85400366Y-97800000D01*
X85302295Y-97306961D01*
X88449732Y-97306961D01*
X88685208Y-97876857D01*
X89120849Y-98313260D01*
X89690333Y-98549730D01*
X90306961Y-98550268D01*
X90876857Y-98314792D01*
X91313260Y-97879151D01*
X91470696Y-97500000D01*
X122235307Y-97500000D01*
X122235307Y-100500000D01*
X122287604Y-100777933D01*
X122451862Y-101033198D01*
X122702492Y-101204446D01*
X123000000Y-101264693D01*
X126000000Y-101264693D01*
X126277933Y-101212396D01*
X126533198Y-101048138D01*
X126704446Y-100797508D01*
X126764693Y-100500000D01*
X126764693Y-97500000D01*
X126712396Y-97222067D01*
X126548138Y-96966802D01*
X126297508Y-96795554D01*
X126000000Y-96735307D01*
X123000000Y-96735307D01*
X122722067Y-96787604D01*
X122466802Y-96951862D01*
X122295554Y-97202492D01*
X122235307Y-97500000D01*
X91470696Y-97500000D01*
X91549730Y-97309667D01*
X91550268Y-96693039D01*
X91314792Y-96123143D01*
X91098988Y-95906961D01*
X92549732Y-95906961D01*
X92785208Y-96476857D01*
X93220849Y-96913260D01*
X93790333Y-97149730D01*
X94406961Y-97150268D01*
X94976857Y-96914792D01*
X95413260Y-96479151D01*
X95649730Y-95909667D01*
X95650268Y-95293039D01*
X95414792Y-94723143D01*
X94979151Y-94286740D01*
X94409667Y-94050270D01*
X93793039Y-94049732D01*
X93223143Y-94285208D01*
X92786740Y-94720849D01*
X92550270Y-95290333D01*
X92549732Y-95906961D01*
X91098988Y-95906961D01*
X90879151Y-95686740D01*
X90309667Y-95450270D01*
X89693039Y-95449732D01*
X89123143Y-95685208D01*
X88686740Y-96120849D01*
X88450270Y-96690333D01*
X88449732Y-97306961D01*
X85302295Y-97306961D01*
X85282379Y-97206841D01*
X84946382Y-96703984D01*
X84443525Y-96367987D01*
X83850366Y-96250000D01*
X83789634Y-96250000D01*
X83196475Y-96367987D01*
X82693618Y-96703984D01*
X82357621Y-97206841D01*
X82239634Y-97800000D01*
X77750000Y-97800000D01*
X77750268Y-97493039D01*
X77514792Y-96923143D01*
X77079151Y-96486740D01*
X76509667Y-96250270D01*
X75893039Y-96249732D01*
X75323143Y-96485208D01*
X74886740Y-96920849D01*
X74650270Y-97490333D01*
X74649732Y-98106961D01*
X30825000Y-98106961D01*
X30825000Y-95070001D01*
X33707817Y-95070001D01*
X33839421Y-95329869D01*
X34571613Y-95431108D01*
X35080579Y-95329869D01*
X35212183Y-95070001D01*
X38787817Y-95070001D01*
X38919421Y-95329869D01*
X39651613Y-95431108D01*
X40160579Y-95329869D01*
X40292183Y-95070001D01*
X39552988Y-94330805D01*
X69734881Y-94330805D01*
X69819983Y-94578846D01*
X70430064Y-94688239D01*
X70980017Y-94578846D01*
X71065119Y-94330805D01*
X70400000Y-93665685D01*
X69734881Y-94330805D01*
X39552988Y-94330805D01*
X39540000Y-94317817D01*
X38787817Y-95070001D01*
X35212183Y-95070001D01*
X34460000Y-94317817D01*
X33707817Y-95070001D01*
X30825000Y-95070001D01*
X30825000Y-93651613D01*
X32568892Y-93651613D01*
X32670131Y-94160579D01*
X32929999Y-94292183D01*
X33682183Y-93540000D01*
X32929999Y-92787817D01*
X32670131Y-92919421D01*
X32568892Y-93651613D01*
X30825000Y-93651613D01*
X30825000Y-89990001D01*
X33707817Y-89990001D01*
X33839421Y-90249869D01*
X34571613Y-90351108D01*
X34581393Y-90349163D01*
X34912195Y-90679965D01*
X35469382Y-90122778D01*
X35250304Y-90650376D01*
X35249696Y-91346569D01*
X35468659Y-91876499D01*
X34912195Y-91320035D01*
X34554798Y-91677432D01*
X34348387Y-91648892D01*
X33839421Y-91750131D01*
X33707817Y-92009999D01*
X34460000Y-92762183D01*
X34848909Y-92373274D01*
X35626726Y-93151091D01*
X35237817Y-93540000D01*
X35990001Y-94292183D01*
X36249869Y-94160579D01*
X36351108Y-93428387D01*
X36349163Y-93418607D01*
X36679965Y-93087805D01*
X36122778Y-92530618D01*
X36650376Y-92749696D01*
X37346569Y-92750304D01*
X37876499Y-92531341D01*
X37320035Y-93087805D01*
X37677432Y-93445202D01*
X37648892Y-93651613D01*
X37750131Y-94160579D01*
X38009999Y-94292183D01*
X38762183Y-93540000D01*
X40317817Y-93540000D01*
X41070001Y-94292183D01*
X41329869Y-94160579D01*
X41431108Y-93428387D01*
X41371769Y-93130064D01*
X68811761Y-93130064D01*
X68921154Y-93680017D01*
X69169195Y-93765119D01*
X69834315Y-93100000D01*
X70965685Y-93100000D01*
X71630805Y-93765119D01*
X71878846Y-93680017D01*
X71927807Y-93406961D01*
X73849732Y-93406961D01*
X74085208Y-93976857D01*
X74520849Y-94413260D01*
X75090333Y-94649730D01*
X75706961Y-94650268D01*
X76276857Y-94414792D01*
X76713260Y-93979151D01*
X76949730Y-93409667D01*
X76950268Y-92793039D01*
X76773702Y-92365715D01*
X125650000Y-92365715D01*
X125650000Y-92434285D01*
X125783211Y-93103981D01*
X126162563Y-93671722D01*
X126730304Y-94051074D01*
X127400000Y-94184285D01*
X128069696Y-94051074D01*
X128637437Y-93671722D01*
X129016789Y-93103981D01*
X129150000Y-92434285D01*
X129150000Y-92365715D01*
X129016789Y-91696019D01*
X128637437Y-91128278D01*
X128069696Y-90748926D01*
X127400000Y-90615715D01*
X126730304Y-90748926D01*
X126162563Y-91128278D01*
X125783211Y-91696019D01*
X125650000Y-92365715D01*
X76773702Y-92365715D01*
X76714792Y-92223143D01*
X76279151Y-91786740D01*
X75709667Y-91550270D01*
X75093039Y-91549732D01*
X74523143Y-91785208D01*
X74086740Y-92220849D01*
X73850270Y-92790333D01*
X73849732Y-93406961D01*
X71927807Y-93406961D01*
X71988239Y-93069936D01*
X71878846Y-92519983D01*
X71630805Y-92434881D01*
X70965685Y-93100000D01*
X69834315Y-93100000D01*
X69169195Y-92434881D01*
X68921154Y-92519983D01*
X68811761Y-93130064D01*
X41371769Y-93130064D01*
X41329869Y-92919421D01*
X41070001Y-92787817D01*
X40317817Y-93540000D01*
X38762183Y-93540000D01*
X38373274Y-93151091D01*
X39151091Y-92373274D01*
X39540000Y-92762183D01*
X40292183Y-92009999D01*
X40220877Y-91869195D01*
X69734881Y-91869195D01*
X70400000Y-92534315D01*
X71065119Y-91869195D01*
X70980017Y-91621154D01*
X70369936Y-91511761D01*
X69819983Y-91621154D01*
X69734881Y-91869195D01*
X40220877Y-91869195D01*
X40160579Y-91750131D01*
X39428387Y-91648892D01*
X39418607Y-91650837D01*
X39087805Y-91320035D01*
X38530618Y-91877222D01*
X38749696Y-91349624D01*
X38750304Y-90653431D01*
X38531341Y-90123501D01*
X39087805Y-90679965D01*
X39445202Y-90322568D01*
X39651613Y-90351108D01*
X40160579Y-90249869D01*
X40292183Y-89990001D01*
X39540000Y-89237817D01*
X39151091Y-89626726D01*
X38373274Y-88848909D01*
X38762183Y-88460000D01*
X40317817Y-88460000D01*
X41070001Y-89212183D01*
X41329869Y-89080579D01*
X41366476Y-88815822D01*
X116613010Y-88815822D01*
X117074668Y-89345041D01*
X117728546Y-89742226D01*
X118025000Y-89635084D01*
X118025000Y-88525000D01*
X119775000Y-88525000D01*
X119775000Y-89635084D01*
X120071454Y-89742226D01*
X120725332Y-89345041D01*
X121186990Y-88815822D01*
X121107723Y-88525000D01*
X119775000Y-88525000D01*
X118025000Y-88525000D01*
X116692277Y-88525000D01*
X116613010Y-88815822D01*
X41366476Y-88815822D01*
X41431108Y-88348387D01*
X41329869Y-87839421D01*
X41070001Y-87707817D01*
X40317817Y-88460000D01*
X38762183Y-88460000D01*
X38009999Y-87707817D01*
X37750131Y-87839421D01*
X37648892Y-88571613D01*
X37650837Y-88581393D01*
X37320035Y-88912195D01*
X37877222Y-89469382D01*
X37349624Y-89250304D01*
X36653431Y-89249696D01*
X36123501Y-89468659D01*
X36679965Y-88912195D01*
X36322568Y-88554798D01*
X36351108Y-88348387D01*
X36249869Y-87839421D01*
X35990001Y-87707817D01*
X35237817Y-88460000D01*
X35626726Y-88848909D01*
X34848909Y-89626726D01*
X34460000Y-89237817D01*
X33707817Y-89990001D01*
X30825000Y-89990001D01*
X30825000Y-88571613D01*
X32568892Y-88571613D01*
X32670131Y-89080579D01*
X32929999Y-89212183D01*
X33682183Y-88460000D01*
X32929999Y-87707817D01*
X32670131Y-87839421D01*
X32568892Y-88571613D01*
X30825000Y-88571613D01*
X30825000Y-86929999D01*
X33707817Y-86929999D01*
X34460000Y-87682183D01*
X35212183Y-86929999D01*
X38787817Y-86929999D01*
X39540000Y-87682183D01*
X39871160Y-87351022D01*
X121900000Y-87351022D01*
X121900000Y-88448978D01*
X122052241Y-89214345D01*
X122485786Y-89863192D01*
X123134633Y-90296737D01*
X123900000Y-90448978D01*
X124665367Y-90296737D01*
X125314214Y-89863192D01*
X125747759Y-89214345D01*
X125900000Y-88448978D01*
X125900000Y-87351022D01*
X125747759Y-86585655D01*
X125314214Y-85936808D01*
X124665367Y-85503263D01*
X123900000Y-85351022D01*
X123134633Y-85503263D01*
X122485786Y-85936808D01*
X122052241Y-86585655D01*
X121900000Y-87351022D01*
X39871160Y-87351022D01*
X40292183Y-86929999D01*
X40261799Y-86870001D01*
X107507817Y-86870001D01*
X107639421Y-87129869D01*
X108371613Y-87231108D01*
X108880579Y-87129869D01*
X109012183Y-86870001D01*
X112587817Y-86870001D01*
X112719421Y-87129869D01*
X113451613Y-87231108D01*
X113960579Y-87129869D01*
X114034360Y-86984178D01*
X116613010Y-86984178D01*
X116692277Y-87275000D01*
X118025000Y-87275000D01*
X118025000Y-86164916D01*
X119775000Y-86164916D01*
X119775000Y-87275000D01*
X121107723Y-87275000D01*
X121186990Y-86984178D01*
X120725332Y-86454959D01*
X120071454Y-86057774D01*
X119775000Y-86164916D01*
X118025000Y-86164916D01*
X117728546Y-86057774D01*
X117074668Y-86454959D01*
X116613010Y-86984178D01*
X114034360Y-86984178D01*
X114092183Y-86870001D01*
X113340000Y-86117817D01*
X112587817Y-86870001D01*
X109012183Y-86870001D01*
X108260000Y-86117817D01*
X107507817Y-86870001D01*
X40261799Y-86870001D01*
X40160579Y-86670131D01*
X39428387Y-86568892D01*
X38919421Y-86670131D01*
X38787817Y-86929999D01*
X35212183Y-86929999D01*
X35080579Y-86670131D01*
X34348387Y-86568892D01*
X33839421Y-86670131D01*
X33707817Y-86929999D01*
X30825000Y-86929999D01*
X30825000Y-84207942D01*
X85649818Y-84207942D01*
X85809334Y-84594000D01*
X86104446Y-84889628D01*
X86490226Y-85049818D01*
X86641802Y-85049950D01*
X87585042Y-85993190D01*
X87709334Y-86294000D01*
X88004446Y-86589628D01*
X88390226Y-86749818D01*
X88807942Y-86750182D01*
X89194000Y-86590666D01*
X89489628Y-86295554D01*
X89649818Y-85909774D01*
X89650182Y-85492058D01*
X89633471Y-85451613D01*
X106368892Y-85451613D01*
X106470131Y-85960579D01*
X106729999Y-86092183D01*
X107482183Y-85340000D01*
X106729999Y-84587817D01*
X106470131Y-84719421D01*
X106368892Y-85451613D01*
X89633471Y-85451613D01*
X89490666Y-85106000D01*
X89195554Y-84810372D01*
X88892809Y-84684661D01*
X87554074Y-83345926D01*
X87483869Y-83299017D01*
X87295554Y-83110372D01*
X86909774Y-82950182D01*
X86492058Y-82949818D01*
X86106000Y-83109334D01*
X85810372Y-83404446D01*
X85650182Y-83790226D01*
X85649818Y-84207942D01*
X30825000Y-84207942D01*
X30825000Y-79500000D01*
X34735307Y-79500000D01*
X34735307Y-82500000D01*
X34787604Y-82777933D01*
X34951862Y-83033198D01*
X35202492Y-83204446D01*
X35500000Y-83264693D01*
X38500000Y-83264693D01*
X38777933Y-83212396D01*
X39033198Y-83048138D01*
X39204446Y-82797508D01*
X39264693Y-82500000D01*
X39264693Y-81790001D01*
X107507817Y-81790001D01*
X107639421Y-82049869D01*
X108371613Y-82151108D01*
X108381393Y-82149163D01*
X108712195Y-82479965D01*
X109269382Y-81922778D01*
X109050304Y-82450376D01*
X109049696Y-83146569D01*
X109268659Y-83676499D01*
X108712195Y-83120035D01*
X108354798Y-83477432D01*
X108148387Y-83448892D01*
X107639421Y-83550131D01*
X107507817Y-83809999D01*
X108260000Y-84562183D01*
X108648909Y-84173274D01*
X109426726Y-84951091D01*
X109037817Y-85340000D01*
X109790001Y-86092183D01*
X110049869Y-85960579D01*
X110151108Y-85228387D01*
X110149163Y-85218607D01*
X110479965Y-84887805D01*
X109922778Y-84330618D01*
X110450376Y-84549696D01*
X111146569Y-84550304D01*
X111676499Y-84331341D01*
X111120035Y-84887805D01*
X111477432Y-85245202D01*
X111448892Y-85451613D01*
X111550131Y-85960579D01*
X111809999Y-86092183D01*
X112562183Y-85340000D01*
X114117817Y-85340000D01*
X114870001Y-86092183D01*
X115129869Y-85960579D01*
X115231108Y-85228387D01*
X115129869Y-84719421D01*
X114870001Y-84587817D01*
X114117817Y-85340000D01*
X112562183Y-85340000D01*
X112173274Y-84951091D01*
X112951091Y-84173274D01*
X113340000Y-84562183D01*
X114092183Y-83809999D01*
X113960579Y-83550131D01*
X113228387Y-83448892D01*
X113218607Y-83450837D01*
X113133485Y-83365715D01*
X125650000Y-83365715D01*
X125650000Y-83434285D01*
X125783211Y-84103981D01*
X126162563Y-84671722D01*
X126730304Y-85051074D01*
X127400000Y-85184285D01*
X128069696Y-85051074D01*
X128637437Y-84671722D01*
X129016789Y-84103981D01*
X129150000Y-83434285D01*
X129150000Y-83365715D01*
X129016789Y-82696019D01*
X128637437Y-82128278D01*
X128069696Y-81748926D01*
X127400000Y-81615715D01*
X126730304Y-81748926D01*
X126162563Y-82128278D01*
X125783211Y-82696019D01*
X125650000Y-83365715D01*
X113133485Y-83365715D01*
X112887805Y-83120035D01*
X112330618Y-83677222D01*
X112549696Y-83149624D01*
X112550304Y-82453431D01*
X112331341Y-81923501D01*
X112887805Y-82479965D01*
X113245202Y-82122568D01*
X113451613Y-82151108D01*
X113960579Y-82049869D01*
X114092183Y-81790001D01*
X113340000Y-81037817D01*
X112951091Y-81426726D01*
X112173274Y-80648909D01*
X112562183Y-80260000D01*
X114117817Y-80260000D01*
X114870001Y-81012183D01*
X115129869Y-80880579D01*
X115231108Y-80148387D01*
X115202977Y-80006961D01*
X123933699Y-80006961D01*
X124127361Y-80281784D01*
X125021149Y-80371592D01*
X125472639Y-80281784D01*
X125666301Y-80006961D01*
X124800000Y-79140660D01*
X123933699Y-80006961D01*
X115202977Y-80006961D01*
X115129869Y-79639421D01*
X114870001Y-79507817D01*
X114117817Y-80260000D01*
X112562183Y-80260000D01*
X111809999Y-79507817D01*
X111550131Y-79639421D01*
X111448892Y-80371613D01*
X111450837Y-80381393D01*
X111120035Y-80712195D01*
X111677222Y-81269382D01*
X111149624Y-81050304D01*
X110453431Y-81049696D01*
X109923501Y-81268659D01*
X110479965Y-80712195D01*
X110122568Y-80354798D01*
X110151108Y-80148387D01*
X110049869Y-79639421D01*
X109790001Y-79507817D01*
X109037817Y-80260000D01*
X109426726Y-80648909D01*
X108648909Y-81426726D01*
X108260000Y-81037817D01*
X107507817Y-81790001D01*
X39264693Y-81790001D01*
X39264693Y-79500000D01*
X39212396Y-79222067D01*
X39048138Y-78966802D01*
X38797508Y-78795554D01*
X38500000Y-78735307D01*
X35500000Y-78735307D01*
X35222067Y-78787604D01*
X34966802Y-78951862D01*
X34795554Y-79202492D01*
X34735307Y-79500000D01*
X30825000Y-79500000D01*
X30825000Y-77846961D01*
X36133699Y-77846961D01*
X36327361Y-78121784D01*
X37221149Y-78211592D01*
X37672639Y-78121784D01*
X37866301Y-77846961D01*
X37279340Y-77260000D01*
X81268654Y-77260000D01*
X81390447Y-77872293D01*
X81675891Y-78299491D01*
X81516802Y-78401862D01*
X81345554Y-78652492D01*
X81285307Y-78950000D01*
X81285307Y-80650000D01*
X81337604Y-80927933D01*
X81501862Y-81183198D01*
X81752492Y-81354446D01*
X82050000Y-81414693D01*
X83750000Y-81414693D01*
X84027933Y-81362396D01*
X84283198Y-81198138D01*
X84454446Y-80947508D01*
X84514693Y-80650000D01*
X84514693Y-80371613D01*
X106368892Y-80371613D01*
X106470131Y-80880579D01*
X106729999Y-81012183D01*
X107482183Y-80260000D01*
X106729999Y-79507817D01*
X106470131Y-79639421D01*
X106368892Y-80371613D01*
X84514693Y-80371613D01*
X84514693Y-78950000D01*
X84473297Y-78729999D01*
X107507817Y-78729999D01*
X108260000Y-79482183D01*
X109012183Y-78729999D01*
X112587817Y-78729999D01*
X113340000Y-79482183D01*
X114092183Y-78729999D01*
X113960579Y-78470131D01*
X113228387Y-78368892D01*
X112719421Y-78470131D01*
X112587817Y-78729999D01*
X109012183Y-78729999D01*
X108880579Y-78470131D01*
X108148387Y-78368892D01*
X107639421Y-78470131D01*
X107507817Y-78729999D01*
X84473297Y-78729999D01*
X84462396Y-78672067D01*
X84298138Y-78416802D01*
X84128875Y-78301149D01*
X122508408Y-78301149D01*
X122598216Y-78752639D01*
X122873039Y-78946301D01*
X123739340Y-78080000D01*
X125860660Y-78080000D01*
X126726961Y-78946301D01*
X127001784Y-78752639D01*
X127091592Y-77858851D01*
X127001784Y-77407361D01*
X126726961Y-77213699D01*
X125860660Y-78080000D01*
X123739340Y-78080000D01*
X122873039Y-77213699D01*
X122598216Y-77407361D01*
X122508408Y-78301149D01*
X84128875Y-78301149D01*
X84124842Y-78298394D01*
X84409553Y-77872293D01*
X84531346Y-77260000D01*
X84409553Y-76647707D01*
X84079028Y-76153039D01*
X123933699Y-76153039D01*
X124800000Y-77019340D01*
X125666301Y-76153039D01*
X125472639Y-75878216D01*
X124578851Y-75788408D01*
X124127361Y-75878216D01*
X123933699Y-76153039D01*
X84079028Y-76153039D01*
X84062717Y-76128629D01*
X83543639Y-75781793D01*
X82931346Y-75660000D01*
X82868654Y-75660000D01*
X82256361Y-75781793D01*
X81737283Y-76128629D01*
X81390447Y-76647707D01*
X81268654Y-77260000D01*
X37279340Y-77260000D01*
X37000000Y-76980660D01*
X36133699Y-77846961D01*
X30825000Y-77846961D01*
X30825000Y-76141149D01*
X34708408Y-76141149D01*
X34798216Y-76592639D01*
X35073039Y-76786301D01*
X35939340Y-75920000D01*
X38060660Y-75920000D01*
X38926961Y-76786301D01*
X39201784Y-76592639D01*
X39291592Y-75698851D01*
X39201784Y-75247361D01*
X38926961Y-75053699D01*
X38060660Y-75920000D01*
X35939340Y-75920000D01*
X35073039Y-75053699D01*
X34798216Y-75247361D01*
X34708408Y-76141149D01*
X30825000Y-76141149D01*
X30825000Y-73993039D01*
X36133699Y-73993039D01*
X37000000Y-74859340D01*
X37866301Y-73993039D01*
X37672639Y-73718216D01*
X36778851Y-73628408D01*
X36327361Y-73718216D01*
X36133699Y-73993039D01*
X30825000Y-73993039D01*
X30825000Y-71500000D01*
X122535307Y-71500000D01*
X122535307Y-74500000D01*
X122587604Y-74777933D01*
X122751862Y-75033198D01*
X123002492Y-75204446D01*
X123300000Y-75264693D01*
X126300000Y-75264693D01*
X126577933Y-75212396D01*
X126833198Y-75048138D01*
X127004446Y-74797508D01*
X127064693Y-74500000D01*
X127064693Y-71500000D01*
X127012396Y-71222067D01*
X126848138Y-70966802D01*
X126597508Y-70795554D01*
X126300000Y-70735307D01*
X123300000Y-70735307D01*
X123022067Y-70787604D01*
X122766802Y-70951862D01*
X122595554Y-71202492D01*
X122535307Y-71500000D01*
X30825000Y-71500000D01*
X30825000Y-69070001D01*
X32707817Y-69070001D01*
X32839421Y-69329869D01*
X33571613Y-69431108D01*
X34080579Y-69329869D01*
X34212183Y-69070001D01*
X37787817Y-69070001D01*
X37919421Y-69329869D01*
X38651613Y-69431108D01*
X39160579Y-69329869D01*
X39292183Y-69070001D01*
X38540000Y-68317817D01*
X37787817Y-69070001D01*
X34212183Y-69070001D01*
X33460000Y-68317817D01*
X32707817Y-69070001D01*
X30825000Y-69070001D01*
X30825000Y-67651613D01*
X31568892Y-67651613D01*
X31670131Y-68160579D01*
X31929999Y-68292183D01*
X32682183Y-67540000D01*
X31929999Y-66787817D01*
X31670131Y-66919421D01*
X31568892Y-67651613D01*
X30825000Y-67651613D01*
X30825000Y-63990001D01*
X32707817Y-63990001D01*
X32839421Y-64249869D01*
X33571613Y-64351108D01*
X33581393Y-64349163D01*
X33912195Y-64679965D01*
X34469382Y-64122778D01*
X34250304Y-64650376D01*
X34249696Y-65346569D01*
X34468659Y-65876499D01*
X33912195Y-65320035D01*
X33554798Y-65677432D01*
X33348387Y-65648892D01*
X32839421Y-65750131D01*
X32707817Y-66009999D01*
X33460000Y-66762183D01*
X33848909Y-66373274D01*
X34626726Y-67151091D01*
X34237817Y-67540000D01*
X34990001Y-68292183D01*
X35249869Y-68160579D01*
X35351108Y-67428387D01*
X35349163Y-67418607D01*
X35679965Y-67087805D01*
X35122778Y-66530618D01*
X35650376Y-66749696D01*
X36346569Y-66750304D01*
X36876499Y-66531341D01*
X36320035Y-67087805D01*
X36677432Y-67445202D01*
X36648892Y-67651613D01*
X36750131Y-68160579D01*
X37009999Y-68292183D01*
X37762183Y-67540000D01*
X39317817Y-67540000D01*
X40070001Y-68292183D01*
X40329869Y-68160579D01*
X40431108Y-67428387D01*
X40415516Y-67350000D01*
X49985307Y-67350000D01*
X49985307Y-69050000D01*
X50037604Y-69327933D01*
X50201862Y-69583198D01*
X50452492Y-69754446D01*
X50750000Y-69814693D01*
X52450000Y-69814693D01*
X52727933Y-69762396D01*
X52983198Y-69598138D01*
X53101606Y-69424842D01*
X53527707Y-69709553D01*
X54140000Y-69831346D01*
X54752293Y-69709553D01*
X55271371Y-69362717D01*
X55509078Y-69006961D01*
X58149732Y-69006961D01*
X58385208Y-69576857D01*
X58820849Y-70013260D01*
X59390333Y-70249730D01*
X60006961Y-70250268D01*
X60576857Y-70014792D01*
X60583718Y-70007942D01*
X62749818Y-70007942D01*
X62909334Y-70394000D01*
X63204446Y-70689628D01*
X63590226Y-70849818D01*
X64007942Y-70850182D01*
X64394000Y-70690666D01*
X64689628Y-70395554D01*
X64750185Y-70249716D01*
X66224437Y-69166592D01*
X66370849Y-69313260D01*
X66940333Y-69549730D01*
X67556961Y-69550268D01*
X68126857Y-69314792D01*
X68563260Y-68879151D01*
X68799730Y-68309667D01*
X68800000Y-68000000D01*
X73289634Y-68000000D01*
X73407621Y-68593159D01*
X73743618Y-69096016D01*
X74246475Y-69432013D01*
X74839634Y-69550000D01*
X74900366Y-69550000D01*
X75493525Y-69432013D01*
X75996382Y-69096016D01*
X76332379Y-68593159D01*
X76450366Y-68000000D01*
X76332379Y-67406841D01*
X75996382Y-66903984D01*
X75493525Y-66567987D01*
X74900366Y-66450000D01*
X74839634Y-66450000D01*
X74246475Y-66567987D01*
X73743618Y-66903984D01*
X73407621Y-67406841D01*
X73289634Y-68000000D01*
X68800000Y-68000000D01*
X68800268Y-67693039D01*
X68564792Y-67123143D01*
X68129151Y-66686740D01*
X67559667Y-66450270D01*
X66943039Y-66449732D01*
X66373143Y-66685208D01*
X65936740Y-67120849D01*
X65929289Y-67138793D01*
X65896018Y-67145411D01*
X65803323Y-67207348D01*
X65702329Y-67254559D01*
X63667026Y-68749883D01*
X63592058Y-68749818D01*
X63206000Y-68909334D01*
X62910372Y-69204446D01*
X62750182Y-69590226D01*
X62749818Y-70007942D01*
X60583718Y-70007942D01*
X61013260Y-69579151D01*
X61249730Y-69009667D01*
X61250268Y-68393039D01*
X61014792Y-67823143D01*
X60579151Y-67386740D01*
X60009667Y-67150270D01*
X59393039Y-67149732D01*
X58823143Y-67385208D01*
X58386740Y-67820849D01*
X58150270Y-68390333D01*
X58149732Y-69006961D01*
X55509078Y-69006961D01*
X55618207Y-68843639D01*
X55740000Y-68231346D01*
X55740000Y-68168654D01*
X55618207Y-67556361D01*
X55271371Y-67037283D01*
X54752293Y-66690447D01*
X54140000Y-66568654D01*
X53527707Y-66690447D01*
X53100509Y-66975891D01*
X52998138Y-66816802D01*
X52747508Y-66645554D01*
X52450000Y-66585307D01*
X50750000Y-66585307D01*
X50472067Y-66637604D01*
X50216802Y-66801862D01*
X50045554Y-67052492D01*
X49985307Y-67350000D01*
X40415516Y-67350000D01*
X40329869Y-66919421D01*
X40070001Y-66787817D01*
X39317817Y-67540000D01*
X37762183Y-67540000D01*
X37373274Y-67151091D01*
X38151091Y-66373274D01*
X38540000Y-66762183D01*
X39292183Y-66009999D01*
X39160579Y-65750131D01*
X38428387Y-65648892D01*
X38418607Y-65650837D01*
X38087805Y-65320035D01*
X37530618Y-65877222D01*
X37749696Y-65349624D01*
X37750304Y-64653431D01*
X37531341Y-64123501D01*
X38087805Y-64679965D01*
X38367770Y-64400000D01*
X47199634Y-64400000D01*
X47317621Y-64993159D01*
X47653618Y-65496016D01*
X48156475Y-65832013D01*
X48749634Y-65950000D01*
X48810366Y-65950000D01*
X49403525Y-65832013D01*
X49906382Y-65496016D01*
X50242379Y-64993159D01*
X50299307Y-64706961D01*
X54849732Y-64706961D01*
X55085208Y-65276857D01*
X55520849Y-65713260D01*
X56090333Y-65949730D01*
X56706961Y-65950268D01*
X57276857Y-65714792D01*
X57713260Y-65279151D01*
X57949730Y-64709667D01*
X57949912Y-64500000D01*
X65799634Y-64500000D01*
X65917621Y-65093159D01*
X66253618Y-65596016D01*
X66756475Y-65932013D01*
X67349634Y-66050000D01*
X67410366Y-66050000D01*
X68003525Y-65932013D01*
X68506382Y-65596016D01*
X68842379Y-65093159D01*
X68899307Y-64806961D01*
X73449732Y-64806961D01*
X73685208Y-65376857D01*
X74120849Y-65813260D01*
X74690333Y-66049730D01*
X75306961Y-66050268D01*
X75876857Y-65814792D01*
X76313260Y-65379151D01*
X76549730Y-64809667D01*
X76550069Y-64420000D01*
X81368654Y-64420000D01*
X81490447Y-65032293D01*
X81837283Y-65551371D01*
X82044756Y-65690000D01*
X81837283Y-65828629D01*
X81490447Y-66347707D01*
X81368654Y-66960000D01*
X81490447Y-67572293D01*
X81775891Y-67999491D01*
X81616802Y-68101862D01*
X81445554Y-68352492D01*
X81385307Y-68650000D01*
X81385307Y-70350000D01*
X81437604Y-70627933D01*
X81601862Y-70883198D01*
X81852492Y-71054446D01*
X82150000Y-71114693D01*
X83850000Y-71114693D01*
X84127933Y-71062396D01*
X84383198Y-70898138D01*
X84554446Y-70647508D01*
X84614693Y-70350000D01*
X84614693Y-68650000D01*
X84562396Y-68372067D01*
X84398138Y-68116802D01*
X84224842Y-67998394D01*
X84509553Y-67572293D01*
X84631346Y-66960000D01*
X84509553Y-66347707D01*
X84162717Y-65828629D01*
X83955244Y-65690000D01*
X84162717Y-65551371D01*
X84509553Y-65032293D01*
X84631346Y-64420000D01*
X84509553Y-63807707D01*
X84162717Y-63288629D01*
X83643639Y-62941793D01*
X83031346Y-62820000D01*
X82968654Y-62820000D01*
X82356361Y-62941793D01*
X81837283Y-63288629D01*
X81490447Y-63807707D01*
X81368654Y-64420000D01*
X76550069Y-64420000D01*
X76550268Y-64193039D01*
X76314792Y-63623143D01*
X75879151Y-63186740D01*
X75309667Y-62950270D01*
X74693039Y-62949732D01*
X74123143Y-63185208D01*
X73686740Y-63620849D01*
X73450270Y-64190333D01*
X73449732Y-64806961D01*
X68899307Y-64806961D01*
X68960366Y-64500000D01*
X68842379Y-63906841D01*
X68506382Y-63403984D01*
X68003525Y-63067987D01*
X67410366Y-62950000D01*
X67349634Y-62950000D01*
X66756475Y-63067987D01*
X66253618Y-63403984D01*
X65917621Y-63906841D01*
X65799634Y-64500000D01*
X57949912Y-64500000D01*
X57950268Y-64093039D01*
X57714792Y-63523143D01*
X57279151Y-63086740D01*
X56709667Y-62850270D01*
X56093039Y-62849732D01*
X55523143Y-63085208D01*
X55086740Y-63520849D01*
X54850270Y-64090333D01*
X54849732Y-64706961D01*
X50299307Y-64706961D01*
X50360366Y-64400000D01*
X50242379Y-63806841D01*
X49906382Y-63303984D01*
X49403525Y-62967987D01*
X48810366Y-62850000D01*
X48749634Y-62850000D01*
X48156475Y-62967987D01*
X47653618Y-63303984D01*
X47317621Y-63806841D01*
X47199634Y-64400000D01*
X38367770Y-64400000D01*
X38445202Y-64322568D01*
X38651613Y-64351108D01*
X39160579Y-64249869D01*
X39292183Y-63990001D01*
X38540000Y-63237817D01*
X38151091Y-63626726D01*
X37373274Y-62848909D01*
X37762183Y-62460000D01*
X39317817Y-62460000D01*
X40070001Y-63212183D01*
X40329869Y-63080579D01*
X40431108Y-62348387D01*
X40329869Y-61839421D01*
X40070001Y-61707817D01*
X39317817Y-62460000D01*
X37762183Y-62460000D01*
X37009999Y-61707817D01*
X36750131Y-61839421D01*
X36648892Y-62571613D01*
X36650837Y-62581393D01*
X36320035Y-62912195D01*
X36877222Y-63469382D01*
X36349624Y-63250304D01*
X35653431Y-63249696D01*
X35123501Y-63468659D01*
X35679965Y-62912195D01*
X35322568Y-62554798D01*
X35351108Y-62348387D01*
X35249869Y-61839421D01*
X34990001Y-61707817D01*
X34237817Y-62460000D01*
X34626726Y-62848909D01*
X33848909Y-63626726D01*
X33460000Y-63237817D01*
X32707817Y-63990001D01*
X30825000Y-63990001D01*
X30825000Y-62571613D01*
X31568892Y-62571613D01*
X31670131Y-63080579D01*
X31929999Y-63212183D01*
X32682183Y-62460000D01*
X31929999Y-61707817D01*
X31670131Y-61839421D01*
X31568892Y-62571613D01*
X30825000Y-62571613D01*
X30825000Y-60929999D01*
X32707817Y-60929999D01*
X33460000Y-61682183D01*
X34212183Y-60929999D01*
X37787817Y-60929999D01*
X38540000Y-61682183D01*
X39172548Y-61049634D01*
X58150000Y-61049634D01*
X58150000Y-61110366D01*
X58267987Y-61703525D01*
X58603984Y-62206382D01*
X59106841Y-62542379D01*
X59700000Y-62660366D01*
X60293159Y-62542379D01*
X60796016Y-62206382D01*
X61132013Y-61703525D01*
X61250000Y-61110366D01*
X61250000Y-61049634D01*
X61132013Y-60456475D01*
X60796016Y-59953618D01*
X60293159Y-59617621D01*
X60152460Y-59589634D01*
X76700000Y-59589634D01*
X76700000Y-59650366D01*
X76817987Y-60243525D01*
X77153984Y-60746382D01*
X77656841Y-61082379D01*
X78250000Y-61200366D01*
X78843159Y-61082379D01*
X79346016Y-60746382D01*
X79682013Y-60243525D01*
X79800000Y-59650366D01*
X79800000Y-59589634D01*
X79682013Y-58996475D01*
X79346016Y-58493618D01*
X78843159Y-58157621D01*
X78250000Y-58039634D01*
X77656841Y-58157621D01*
X77153984Y-58493618D01*
X76817987Y-58996475D01*
X76700000Y-59589634D01*
X60152460Y-59589634D01*
X59700000Y-59499634D01*
X59106841Y-59617621D01*
X58603984Y-59953618D01*
X58267987Y-60456475D01*
X58150000Y-61049634D01*
X39172548Y-61049634D01*
X39292183Y-60929999D01*
X39160579Y-60670131D01*
X38428387Y-60568892D01*
X37919421Y-60670131D01*
X37787817Y-60929999D01*
X34212183Y-60929999D01*
X34080579Y-60670131D01*
X33348387Y-60568892D01*
X32839421Y-60670131D01*
X32707817Y-60929999D01*
X30825000Y-60929999D01*
X30825000Y-57800000D01*
X54999634Y-57800000D01*
X55117621Y-58393159D01*
X55453618Y-58896016D01*
X55956475Y-59232013D01*
X56549634Y-59350000D01*
X56610366Y-59350000D01*
X57203525Y-59232013D01*
X57706382Y-58896016D01*
X58042379Y-58393159D01*
X58099307Y-58106961D01*
X62649732Y-58106961D01*
X62885208Y-58676857D01*
X63320849Y-59113260D01*
X63890333Y-59349730D01*
X64506961Y-59350268D01*
X65076857Y-59114792D01*
X65513260Y-58679151D01*
X65749730Y-58109667D01*
X65750268Y-57493039D01*
X65514792Y-56923143D01*
X65079151Y-56486740D01*
X64509667Y-56250270D01*
X63893039Y-56249732D01*
X63323143Y-56485208D01*
X62886740Y-56920849D01*
X62650270Y-57490333D01*
X62649732Y-58106961D01*
X58099307Y-58106961D01*
X58160366Y-57800000D01*
X58042379Y-57206841D01*
X57706382Y-56703984D01*
X57203525Y-56367987D01*
X56610366Y-56250000D01*
X56549634Y-56250000D01*
X55956475Y-56367987D01*
X55453618Y-56703984D01*
X55117621Y-57206841D01*
X54999634Y-57800000D01*
X30825000Y-57800000D01*
X30825000Y-52600000D01*
X34535307Y-52600000D01*
X34535307Y-55600000D01*
X34587604Y-55877933D01*
X34751862Y-56133198D01*
X35002492Y-56304446D01*
X35300000Y-56364693D01*
X38300000Y-56364693D01*
X38577933Y-56312396D01*
X38833198Y-56148138D01*
X39004446Y-55897508D01*
X39064693Y-55600000D01*
X39064693Y-52600000D01*
X39012396Y-52322067D01*
X38848138Y-52066802D01*
X38597508Y-51895554D01*
X38300000Y-51835307D01*
X35300000Y-51835307D01*
X35022067Y-51887604D01*
X34766802Y-52051862D01*
X34595554Y-52302492D01*
X34535307Y-52600000D01*
X30825000Y-52600000D01*
X30825000Y-51560000D01*
X60168654Y-51560000D01*
X60290447Y-52172293D01*
X60575891Y-52599491D01*
X60416802Y-52701862D01*
X60245554Y-52952492D01*
X60185307Y-53250000D01*
X60185307Y-54950000D01*
X60237604Y-55227933D01*
X60401862Y-55483198D01*
X60652492Y-55654446D01*
X60950000Y-55714693D01*
X62650000Y-55714693D01*
X62927933Y-55662396D01*
X63183198Y-55498138D01*
X63354446Y-55247508D01*
X63414693Y-54950000D01*
X63414693Y-53250000D01*
X63362396Y-52972067D01*
X63198138Y-52716802D01*
X63024842Y-52598394D01*
X63219570Y-52306961D01*
X76699732Y-52306961D01*
X76935208Y-52876857D01*
X77370849Y-53313260D01*
X77940333Y-53549730D01*
X78556961Y-53550268D01*
X79126857Y-53314792D01*
X79271902Y-53170000D01*
X81368654Y-53170000D01*
X81490447Y-53782293D01*
X81837283Y-54301371D01*
X82044756Y-54440000D01*
X81837283Y-54578629D01*
X81490447Y-55097707D01*
X81368654Y-55710000D01*
X81490447Y-56322293D01*
X81775891Y-56749491D01*
X81616802Y-56851862D01*
X81445554Y-57102492D01*
X81385307Y-57400000D01*
X81385307Y-59100000D01*
X81437604Y-59377933D01*
X81601862Y-59633198D01*
X81852492Y-59804446D01*
X82150000Y-59864693D01*
X83850000Y-59864693D01*
X84127933Y-59812396D01*
X84383198Y-59648138D01*
X84554446Y-59397508D01*
X84614693Y-59100000D01*
X84614693Y-57507942D01*
X85949818Y-57507942D01*
X86075000Y-57810905D01*
X86075000Y-58989631D01*
X85950182Y-59290226D01*
X85949818Y-59707942D01*
X86109334Y-60094000D01*
X86404446Y-60389628D01*
X86790226Y-60549818D01*
X87207942Y-60550182D01*
X87594000Y-60390666D01*
X87889628Y-60095554D01*
X88049818Y-59709774D01*
X88050182Y-59292058D01*
X87925000Y-58989095D01*
X87925000Y-57810369D01*
X88049818Y-57509774D01*
X88050182Y-57092058D01*
X87890666Y-56706000D01*
X87595554Y-56410372D01*
X87209774Y-56250182D01*
X86792058Y-56249818D01*
X86406000Y-56409334D01*
X86110372Y-56704446D01*
X85950182Y-57090226D01*
X85949818Y-57507942D01*
X84614693Y-57507942D01*
X84614693Y-57400000D01*
X84562396Y-57122067D01*
X84398138Y-56866802D01*
X84224842Y-56748394D01*
X84509553Y-56322293D01*
X84631346Y-55710000D01*
X84509553Y-55097707D01*
X84162717Y-54578629D01*
X83955244Y-54440000D01*
X84162717Y-54301371D01*
X84509553Y-53782293D01*
X84631346Y-53170000D01*
X84509553Y-52557707D01*
X84162717Y-52038629D01*
X83643639Y-51691793D01*
X83031346Y-51570000D01*
X82968654Y-51570000D01*
X82356361Y-51691793D01*
X81837283Y-52038629D01*
X81490447Y-52557707D01*
X81368654Y-53170000D01*
X79271902Y-53170000D01*
X79563260Y-52879151D01*
X79799730Y-52309667D01*
X79800268Y-51693039D01*
X79564792Y-51123143D01*
X79129151Y-50686740D01*
X78559667Y-50450270D01*
X77943039Y-50449732D01*
X77373143Y-50685208D01*
X76936740Y-51120849D01*
X76700270Y-51690333D01*
X76699732Y-52306961D01*
X63219570Y-52306961D01*
X63309553Y-52172293D01*
X63431346Y-51560000D01*
X63309553Y-50947707D01*
X62962717Y-50428629D01*
X62443639Y-50081793D01*
X61831346Y-49960000D01*
X61768654Y-49960000D01*
X61156361Y-50081793D01*
X60637283Y-50428629D01*
X60290447Y-50947707D01*
X60168654Y-51560000D01*
X30825000Y-51560000D01*
X30825000Y-50946961D01*
X35933699Y-50946961D01*
X36127361Y-51221784D01*
X37021149Y-51311592D01*
X37472639Y-51221784D01*
X37666301Y-50946961D01*
X36800000Y-50080660D01*
X35933699Y-50946961D01*
X30825000Y-50946961D01*
X30825000Y-49241149D01*
X34508408Y-49241149D01*
X34598216Y-49692639D01*
X34873039Y-49886301D01*
X35739340Y-49020000D01*
X37860660Y-49020000D01*
X38726961Y-49886301D01*
X39001784Y-49692639D01*
X39052326Y-49189634D01*
X53050000Y-49189634D01*
X53050000Y-49250366D01*
X53167987Y-49843525D01*
X53503984Y-50346382D01*
X54006841Y-50682379D01*
X54600000Y-50800366D01*
X55193159Y-50682379D01*
X55696016Y-50346382D01*
X56032013Y-49843525D01*
X56150000Y-49250366D01*
X56150000Y-49189634D01*
X56032013Y-48596475D01*
X55696016Y-48093618D01*
X55193159Y-47757621D01*
X54600000Y-47639634D01*
X54006841Y-47757621D01*
X53503984Y-48093618D01*
X53167987Y-48596475D01*
X53050000Y-49189634D01*
X39052326Y-49189634D01*
X39091592Y-48798851D01*
X39001784Y-48347361D01*
X38726961Y-48153699D01*
X37860660Y-49020000D01*
X35739340Y-49020000D01*
X34873039Y-48153699D01*
X34598216Y-48347361D01*
X34508408Y-49241149D01*
X30825000Y-49241149D01*
X30825000Y-47093039D01*
X35933699Y-47093039D01*
X36800000Y-47959340D01*
X37301398Y-47457942D01*
X67199818Y-47457942D01*
X67359334Y-47844000D01*
X67654446Y-48139628D01*
X67825000Y-48210448D01*
X67825000Y-50239631D01*
X67700182Y-50540226D01*
X67699818Y-50957942D01*
X67859334Y-51344000D01*
X68154446Y-51639628D01*
X68540226Y-51799818D01*
X68957942Y-51800182D01*
X69344000Y-51640666D01*
X69639628Y-51345554D01*
X69799818Y-50959774D01*
X69800182Y-50542058D01*
X69687174Y-50268559D01*
X70156841Y-50582379D01*
X70750000Y-50700366D01*
X71343159Y-50582379D01*
X71846016Y-50246382D01*
X72182013Y-49743525D01*
X72300000Y-49150366D01*
X72300000Y-49089634D01*
X72204186Y-48607942D01*
X99949818Y-48607942D01*
X100075000Y-48910905D01*
X100075000Y-50230458D01*
X100050182Y-50290226D01*
X100049818Y-50707942D01*
X100209334Y-51094000D01*
X100504446Y-51389628D01*
X100890226Y-51549818D01*
X101307942Y-51550182D01*
X101694000Y-51390666D01*
X101989628Y-51095554D01*
X102149818Y-50709774D01*
X102150182Y-50292058D01*
X101990666Y-49906000D01*
X101925000Y-49840219D01*
X101925000Y-48910369D01*
X102049818Y-48609774D01*
X102050182Y-48192058D01*
X101890666Y-47806000D01*
X101595554Y-47510372D01*
X101209774Y-47350182D01*
X100792058Y-47349818D01*
X100406000Y-47509334D01*
X100110372Y-47804446D01*
X99950182Y-48190226D01*
X99949818Y-48607942D01*
X72204186Y-48607942D01*
X72182013Y-48496475D01*
X71846016Y-47993618D01*
X71343159Y-47657621D01*
X70750000Y-47539634D01*
X70156841Y-47657621D01*
X69675000Y-47979576D01*
X69675000Y-47750000D01*
X69604589Y-47396018D01*
X69404074Y-47095926D01*
X69264958Y-46956810D01*
X69140666Y-46656000D01*
X68845554Y-46360372D01*
X68459774Y-46200182D01*
X68042058Y-46199818D01*
X67656000Y-46359334D01*
X67360372Y-46654446D01*
X67200182Y-47040226D01*
X67199818Y-47457942D01*
X37301398Y-47457942D01*
X37666301Y-47093039D01*
X37472639Y-46818216D01*
X36578851Y-46728408D01*
X36127361Y-46818216D01*
X35933699Y-47093039D01*
X30825000Y-47093039D01*
X30825000Y-45640000D01*
X81468654Y-45640000D01*
X81590447Y-46252293D01*
X81937283Y-46771371D01*
X82456361Y-47118207D01*
X83068654Y-47240000D01*
X83131346Y-47240000D01*
X83743639Y-47118207D01*
X84262717Y-46771371D01*
X84609553Y-46252293D01*
X84731346Y-45640000D01*
X84609553Y-45027707D01*
X84324109Y-44600509D01*
X84483198Y-44498138D01*
X84654446Y-44247508D01*
X84714693Y-43950000D01*
X84714693Y-42250000D01*
X84662396Y-41972067D01*
X84498138Y-41716802D01*
X84247508Y-41545554D01*
X83950000Y-41485307D01*
X82250000Y-41485307D01*
X81972067Y-41537604D01*
X81716802Y-41701862D01*
X81545554Y-41952492D01*
X81485307Y-42250000D01*
X81485307Y-43950000D01*
X81537604Y-44227933D01*
X81701862Y-44483198D01*
X81875158Y-44601606D01*
X81590447Y-45027707D01*
X81468654Y-45640000D01*
X30825000Y-45640000D01*
X30825000Y-41906961D01*
X53049732Y-41906961D01*
X53285208Y-42476857D01*
X53720849Y-42913260D01*
X54290333Y-43149730D01*
X54906961Y-43150268D01*
X55476857Y-42914792D01*
X55913260Y-42479151D01*
X56149730Y-41909667D01*
X56149819Y-41806961D01*
X69199732Y-41806961D01*
X69435208Y-42376857D01*
X69870849Y-42813260D01*
X70440333Y-43049730D01*
X71056961Y-43050268D01*
X71626857Y-42814792D01*
X72063260Y-42379151D01*
X72299730Y-41809667D01*
X72300268Y-41193039D01*
X72064792Y-40623143D01*
X71629151Y-40186740D01*
X71059667Y-39950270D01*
X70443039Y-39949732D01*
X69873143Y-40185208D01*
X69436740Y-40620849D01*
X69200270Y-41190333D01*
X69199732Y-41806961D01*
X56149819Y-41806961D01*
X56150268Y-41293039D01*
X56037655Y-41020493D01*
X56293190Y-40764958D01*
X56594000Y-40640666D01*
X56889628Y-40345554D01*
X57049818Y-39959774D01*
X57050182Y-39542058D01*
X56890666Y-39156000D01*
X56595554Y-38860372D01*
X56209774Y-38700182D01*
X55792058Y-38699818D01*
X55406000Y-38859334D01*
X55110372Y-39154446D01*
X54984661Y-39457191D01*
X54392034Y-40049818D01*
X54293039Y-40049732D01*
X53723143Y-40285208D01*
X53286740Y-40720849D01*
X53050270Y-41290333D01*
X53049732Y-41906961D01*
X30825000Y-41906961D01*
X30825000Y-34758981D01*
X31422066Y-35357090D01*
X32444198Y-35781516D01*
X33550946Y-35782482D01*
X33733459Y-35707069D01*
X106025161Y-35707069D01*
X106841235Y-36523143D01*
X106720630Y-36643537D01*
X106490262Y-37198325D01*
X106489738Y-37799040D01*
X106719138Y-38354229D01*
X107143537Y-38779370D01*
X107698325Y-39009738D01*
X108299040Y-39010262D01*
X108854229Y-38780862D01*
X109270353Y-38365464D01*
X109683537Y-38779370D01*
X110238325Y-39009738D01*
X110839040Y-39010262D01*
X111394229Y-38780862D01*
X111819370Y-38356463D01*
X112049738Y-37801675D01*
X112050262Y-37200960D01*
X111820862Y-36645771D01*
X111675464Y-36500118D01*
X111819370Y-36356463D01*
X112049738Y-35801675D01*
X112050262Y-35200960D01*
X111820862Y-34645771D01*
X111753503Y-34578294D01*
X114446301Y-34578294D01*
X114616679Y-34847597D01*
X115449992Y-34941748D01*
X115923321Y-34847597D01*
X116093699Y-34578294D01*
X115270000Y-33754594D01*
X114446301Y-34578294D01*
X111753503Y-34578294D01*
X111396463Y-34220630D01*
X110841675Y-33990262D01*
X110240960Y-33989738D01*
X109685771Y-34219138D01*
X109260630Y-34643537D01*
X109166022Y-34871379D01*
X108537401Y-35500000D01*
X108806102Y-35768701D01*
X108501546Y-36073256D01*
X108301675Y-35990262D01*
X107700960Y-35989738D01*
X107498564Y-36073366D01*
X107193899Y-35768701D01*
X107462599Y-35500000D01*
X106809233Y-34846634D01*
X106562821Y-34925534D01*
X106507089Y-35225141D01*
X106025161Y-35707069D01*
X33733459Y-35707069D01*
X34573818Y-35359840D01*
X35356729Y-34578294D01*
X102446301Y-34578294D01*
X102616679Y-34847597D01*
X103449992Y-34941748D01*
X103923321Y-34847597D01*
X104093699Y-34578294D01*
X103824639Y-34309233D01*
X107346634Y-34309233D01*
X108000000Y-34962599D01*
X108653366Y-34309233D01*
X108574466Y-34062821D01*
X107980753Y-33952381D01*
X107425534Y-34062821D01*
X107346634Y-34309233D01*
X103824639Y-34309233D01*
X103270000Y-33754594D01*
X102446301Y-34578294D01*
X35356729Y-34578294D01*
X35357090Y-34577934D01*
X35781516Y-33555802D01*
X35782018Y-32979992D01*
X101128252Y-32979992D01*
X101222403Y-33453321D01*
X101491706Y-33623699D01*
X102315406Y-32800000D01*
X104224594Y-32800000D01*
X105048294Y-33623699D01*
X105317597Y-33453321D01*
X105371075Y-32979992D01*
X113128252Y-32979992D01*
X113222403Y-33453321D01*
X113491706Y-33623699D01*
X114315406Y-32800000D01*
X116224594Y-32800000D01*
X117048294Y-33623699D01*
X117317597Y-33453321D01*
X117411748Y-32620008D01*
X117317597Y-32146679D01*
X117048294Y-31976301D01*
X116224594Y-32800000D01*
X114315406Y-32800000D01*
X113491706Y-31976301D01*
X113222403Y-32146679D01*
X113128252Y-32979992D01*
X105371075Y-32979992D01*
X105411748Y-32620008D01*
X105317597Y-32146679D01*
X105048294Y-31976301D01*
X104224594Y-32800000D01*
X102315406Y-32800000D01*
X101491706Y-31976301D01*
X101222403Y-32146679D01*
X101128252Y-32979992D01*
X35782018Y-32979992D01*
X35782482Y-32449054D01*
X35359840Y-31426182D01*
X34759706Y-30825000D01*
X102570750Y-30825000D01*
X102446301Y-31021706D01*
X102446301Y-31021706D01*
G37*
X102446301Y-31021706D02*
X103270000Y-31845406D01*
X104093699Y-31021706D01*
X103969250Y-30825000D01*
X114570750Y-30825000D01*
X114446301Y-31021706D01*
X115270000Y-31845406D01*
X116093699Y-31021706D01*
X115969250Y-30825000D01*
X125241019Y-30825000D01*
X124642910Y-31422066D01*
X124218484Y-32444198D01*
X124217518Y-33550946D01*
X124640160Y-34573818D01*
X125422066Y-35357090D01*
X126444198Y-35781516D01*
X127550946Y-35782482D01*
X128573818Y-35359840D01*
X129175000Y-34759706D01*
X129175000Y-108134156D01*
X129037437Y-107928278D01*
X128469696Y-107548926D01*
X127800000Y-107415715D01*
X127130304Y-107548926D01*
X126562563Y-107928278D01*
X126183211Y-108496019D01*
X126050000Y-109165715D01*
X126050000Y-109234285D01*
X126183211Y-109903981D01*
X126562563Y-110471722D01*
X127130304Y-110851074D01*
X127800000Y-110984285D01*
X128469696Y-110851074D01*
X129037437Y-110471722D01*
X129175000Y-110265844D01*
X129175000Y-117134156D01*
X129037437Y-116928278D01*
X128469696Y-116548926D01*
X127800000Y-116415715D01*
X127130304Y-116548926D01*
X126562563Y-116928278D01*
X126183211Y-117496019D01*
X126050000Y-118165715D01*
X126050000Y-118234285D01*
X126183211Y-118903981D01*
X126562563Y-119471722D01*
X127130304Y-119851074D01*
X127800000Y-119984285D01*
X128469696Y-119851074D01*
X129037437Y-119471722D01*
X129175000Y-119265844D01*
X129175000Y-125241019D01*
X128577934Y-124642910D01*
X127555802Y-124218484D01*
X126449054Y-124217518D01*
X125426182Y-124640160D01*
X124642910Y-125422066D01*
X124218484Y-126444198D01*
X124217518Y-127550946D01*
X124640160Y-128573818D01*
X125240294Y-129175000D01*
X34758981Y-129175000D01*
X35264862Y-128670001D01*
X107907817Y-128670001D01*
X108039421Y-128929869D01*
X108771613Y-129031108D01*
X109280579Y-128929869D01*
X109412183Y-128670001D01*
X112987817Y-128670001D01*
X113119421Y-128929869D01*
X113851613Y-129031108D01*
X114360579Y-128929869D01*
X114492183Y-128670001D01*
X113740000Y-127917817D01*
X112987817Y-128670001D01*
X109412183Y-128670001D01*
X108660000Y-127917817D01*
X107907817Y-128670001D01*
X35264862Y-128670001D01*
X35357090Y-128577934D01*
X35781516Y-127555802D01*
X35781781Y-127251613D01*
X106768892Y-127251613D01*
X106870131Y-127760579D01*
X107129999Y-127892183D01*
X107882183Y-127140000D01*
X107129999Y-126387817D01*
X106870131Y-126519421D01*
X106768892Y-127251613D01*
X35781781Y-127251613D01*
X35782482Y-126449054D01*
X35359840Y-125426182D01*
X34577934Y-124642910D01*
X33555802Y-124218484D01*
X32449054Y-124217518D01*
X31426182Y-124640160D01*
X30825000Y-125240294D01*
X30825000Y-123900000D01*
X88099634Y-123900000D01*
X88217621Y-124493159D01*
X88553618Y-124996016D01*
X89056475Y-125332013D01*
X89649634Y-125450000D01*
X89710366Y-125450000D01*
X90303525Y-125332013D01*
X90806382Y-124996016D01*
X91142379Y-124493159D01*
X91199307Y-124206961D01*
X95749732Y-124206961D01*
X95985208Y-124776857D01*
X96420849Y-125213260D01*
X96990333Y-125449730D01*
X97606961Y-125450268D01*
X98176857Y-125214792D01*
X98613260Y-124779151D01*
X98849730Y-124209667D01*
X98850268Y-123593039D01*
X98849013Y-123590001D01*
X107907817Y-123590001D01*
X108039421Y-123849869D01*
X108771613Y-123951108D01*
X108781393Y-123949163D01*
X109112195Y-124279965D01*
X109669382Y-123722778D01*
X109450304Y-124250376D01*
X109449696Y-124946569D01*
X109668659Y-125476499D01*
X109112195Y-124920035D01*
X108754798Y-125277432D01*
X108548387Y-125248892D01*
X108039421Y-125350131D01*
X107907817Y-125609999D01*
X108660000Y-126362183D01*
X109048909Y-125973274D01*
X109826726Y-126751091D01*
X109437817Y-127140000D01*
X110190001Y-127892183D01*
X110449869Y-127760579D01*
X110551108Y-127028387D01*
X110549163Y-127018607D01*
X110879965Y-126687805D01*
X110322778Y-126130618D01*
X110850376Y-126349696D01*
X111546569Y-126350304D01*
X112076499Y-126131341D01*
X111520035Y-126687805D01*
X111877432Y-127045202D01*
X111848892Y-127251613D01*
X111950131Y-127760579D01*
X112209999Y-127892183D01*
X112962183Y-127140000D01*
X114517817Y-127140000D01*
X115270001Y-127892183D01*
X115529869Y-127760579D01*
X115631108Y-127028387D01*
X115529869Y-126519421D01*
X115270001Y-126387817D01*
X114517817Y-127140000D01*
X112962183Y-127140000D01*
X112573274Y-126751091D01*
X113351091Y-125973274D01*
X113740000Y-126362183D01*
X114492183Y-125609999D01*
X114360579Y-125350131D01*
X113628387Y-125248892D01*
X113618607Y-125250837D01*
X113287805Y-124920035D01*
X112730618Y-125477222D01*
X112949696Y-124949624D01*
X112950304Y-124253431D01*
X112731341Y-123723501D01*
X113287805Y-124279965D01*
X113645202Y-123922568D01*
X113851613Y-123951108D01*
X114360579Y-123849869D01*
X114492183Y-123590001D01*
X113740000Y-122837817D01*
X113351091Y-123226726D01*
X112573274Y-122448909D01*
X112962183Y-122060000D01*
X114517817Y-122060000D01*
X115270001Y-122812183D01*
X115529869Y-122680579D01*
X115631108Y-121948387D01*
X115529869Y-121439421D01*
X115270001Y-121307817D01*
X114517817Y-122060000D01*
X112962183Y-122060000D01*
X112209999Y-121307817D01*
X111950131Y-121439421D01*
X111848892Y-122171613D01*
X111850837Y-122181393D01*
X111520035Y-122512195D01*
X112077222Y-123069382D01*
X111549624Y-122850304D01*
X110853431Y-122849696D01*
X110323501Y-123068659D01*
X110879965Y-122512195D01*
X110522568Y-122154798D01*
X110551108Y-121948387D01*
X110449869Y-121439421D01*
X110190001Y-121307817D01*
X109437817Y-122060000D01*
X109826726Y-122448909D01*
X109048909Y-123226726D01*
X108660000Y-122837817D01*
X107907817Y-123590001D01*
X98849013Y-123590001D01*
X98614792Y-123023143D01*
X98179151Y-122586740D01*
X97609667Y-122350270D01*
X96993039Y-122349732D01*
X96423143Y-122585208D01*
X95986740Y-123020849D01*
X95750270Y-123590333D01*
X95749732Y-124206961D01*
X91199307Y-124206961D01*
X91260366Y-123900000D01*
X91142379Y-123306841D01*
X90806382Y-122803984D01*
X90303525Y-122467987D01*
X89710366Y-122350000D01*
X89649634Y-122350000D01*
X89056475Y-122467987D01*
X88553618Y-122803984D01*
X88217621Y-123306841D01*
X88099634Y-123900000D01*
X30825000Y-123900000D01*
X30825000Y-122171613D01*
X106768892Y-122171613D01*
X106870131Y-122680579D01*
X107129999Y-122812183D01*
X107882183Y-122060000D01*
X107129999Y-121307817D01*
X106870131Y-121439421D01*
X106768892Y-122171613D01*
X30825000Y-122171613D01*
X30825000Y-120806961D01*
X76149732Y-120806961D01*
X76385208Y-121376857D01*
X76820849Y-121813260D01*
X77390333Y-122049730D01*
X78006961Y-122050268D01*
X78576857Y-121814792D01*
X79013260Y-121379151D01*
X79249730Y-120809667D01*
X79250000Y-120500000D01*
X83739634Y-120500000D01*
X83857621Y-121093159D01*
X84193618Y-121596016D01*
X84696475Y-121932013D01*
X85289634Y-122050000D01*
X85350366Y-122050000D01*
X85943525Y-121932013D01*
X86446382Y-121596016D01*
X86782379Y-121093159D01*
X86900366Y-120500000D01*
X86880475Y-120400000D01*
X88099634Y-120400000D01*
X88217621Y-120993159D01*
X88553618Y-121496016D01*
X89056475Y-121832013D01*
X89649634Y-121950000D01*
X89710366Y-121950000D01*
X90303525Y-121832013D01*
X90806382Y-121496016D01*
X91142379Y-120993159D01*
X91199307Y-120706961D01*
X95749732Y-120706961D01*
X95985208Y-121276857D01*
X96420849Y-121713260D01*
X96990333Y-121949730D01*
X97606961Y-121950268D01*
X98176857Y-121714792D01*
X98613260Y-121279151D01*
X98849730Y-120709667D01*
X98849886Y-120529999D01*
X107907817Y-120529999D01*
X108660000Y-121282183D01*
X109412183Y-120529999D01*
X112987817Y-120529999D01*
X113740000Y-121282183D01*
X114492183Y-120529999D01*
X114360579Y-120270131D01*
X113628387Y-120168892D01*
X113119421Y-120270131D01*
X112987817Y-120529999D01*
X109412183Y-120529999D01*
X109280579Y-120270131D01*
X108548387Y-120168892D01*
X108039421Y-120270131D01*
X107907817Y-120529999D01*
X98849886Y-120529999D01*
X98850268Y-120093039D01*
X98614792Y-119523143D01*
X98179151Y-119086740D01*
X97609667Y-118850270D01*
X96993039Y-118849732D01*
X96423143Y-119085208D01*
X95986740Y-119520849D01*
X95750270Y-120090333D01*
X95749732Y-120706961D01*
X91199307Y-120706961D01*
X91260366Y-120400000D01*
X91142379Y-119806841D01*
X90806382Y-119303984D01*
X90303525Y-118967987D01*
X89710366Y-118850000D01*
X89649634Y-118850000D01*
X89056475Y-118967987D01*
X88553618Y-119303984D01*
X88217621Y-119806841D01*
X88099634Y-120400000D01*
X86880475Y-120400000D01*
X86782379Y-119906841D01*
X86446382Y-119403984D01*
X85943525Y-119067987D01*
X85350366Y-118950000D01*
X85289634Y-118950000D01*
X84696475Y-119067987D01*
X84193618Y-119403984D01*
X83857621Y-119906841D01*
X83739634Y-120500000D01*
X79250000Y-120500000D01*
X79250268Y-120193039D01*
X79014792Y-119623143D01*
X78579151Y-119186740D01*
X78009667Y-118950270D01*
X77393039Y-118949732D01*
X76823143Y-119185208D01*
X76386740Y-119620849D01*
X76150270Y-120190333D01*
X76149732Y-120806961D01*
X30825000Y-120806961D01*
X30825000Y-115430805D01*
X68134881Y-115430805D01*
X68219983Y-115678846D01*
X68830064Y-115788239D01*
X69380017Y-115678846D01*
X69465119Y-115430805D01*
X68800000Y-114765685D01*
X68134881Y-115430805D01*
X30825000Y-115430805D01*
X30825000Y-113289634D01*
X60350000Y-113289634D01*
X60350000Y-113350366D01*
X60467987Y-113943525D01*
X60803984Y-114446382D01*
X61306841Y-114782379D01*
X61900000Y-114900366D01*
X62493159Y-114782379D01*
X62996016Y-114446382D01*
X63140554Y-114230064D01*
X67211761Y-114230064D01*
X67321154Y-114780017D01*
X67569195Y-114865119D01*
X68234315Y-114200000D01*
X69365685Y-114200000D01*
X70030805Y-114865119D01*
X70278846Y-114780017D01*
X70327807Y-114506961D01*
X72249732Y-114506961D01*
X72485208Y-115076857D01*
X72920849Y-115513260D01*
X73490333Y-115749730D01*
X74106961Y-115750268D01*
X74676857Y-115514792D01*
X74985226Y-115206961D01*
X89149732Y-115206961D01*
X89385208Y-115776857D01*
X89820849Y-116213260D01*
X90390333Y-116449730D01*
X91006961Y-116450268D01*
X91576857Y-116214792D01*
X92013260Y-115779151D01*
X92249730Y-115209667D01*
X92249732Y-115206961D01*
X93049732Y-115206961D01*
X93285208Y-115776857D01*
X93720849Y-116213260D01*
X94290333Y-116449730D01*
X94906961Y-116450268D01*
X95476857Y-116214792D01*
X95913260Y-115779151D01*
X96149730Y-115209667D01*
X96149993Y-114907942D01*
X103649818Y-114907942D01*
X103809334Y-115294000D01*
X104104446Y-115589628D01*
X104490226Y-115749818D01*
X104907942Y-115750182D01*
X105029392Y-115700000D01*
X108429425Y-115700000D01*
X108790226Y-115849818D01*
X109207942Y-115850182D01*
X109594000Y-115690666D01*
X109889628Y-115395554D01*
X110049818Y-115009774D01*
X110050161Y-114615822D01*
X117013010Y-114615822D01*
X117474668Y-115145041D01*
X118128546Y-115542226D01*
X118425000Y-115435084D01*
X118425000Y-114325000D01*
X120175000Y-114325000D01*
X120175000Y-115435084D01*
X120471454Y-115542226D01*
X121125332Y-115145041D01*
X121586990Y-114615822D01*
X121507723Y-114325000D01*
X120175000Y-114325000D01*
X118425000Y-114325000D01*
X117092277Y-114325000D01*
X117013010Y-114615822D01*
X110050161Y-114615822D01*
X110050182Y-114592058D01*
X109890666Y-114206000D01*
X109595554Y-113910372D01*
X109299830Y-113787576D01*
X109282684Y-113776120D01*
X109262636Y-113772132D01*
X109209774Y-113750182D01*
X109152031Y-113750132D01*
X108900000Y-113700000D01*
X105029749Y-113700000D01*
X104909774Y-113650182D01*
X104492058Y-113649818D01*
X104106000Y-113809334D01*
X103810372Y-114104446D01*
X103650182Y-114490226D01*
X103649818Y-114907942D01*
X96149993Y-114907942D01*
X96150268Y-114593039D01*
X95914792Y-114023143D01*
X95479151Y-113586740D01*
X94909667Y-113350270D01*
X94293039Y-113349732D01*
X93723143Y-113585208D01*
X93286740Y-114020849D01*
X93050270Y-114590333D01*
X93049732Y-115206961D01*
X92249732Y-115206961D01*
X92250268Y-114593039D01*
X92014792Y-114023143D01*
X91579151Y-113586740D01*
X91009667Y-113350270D01*
X90393039Y-113349732D01*
X89823143Y-113585208D01*
X89386740Y-114020849D01*
X89150270Y-114590333D01*
X89149732Y-115206961D01*
X74985226Y-115206961D01*
X75113260Y-115079151D01*
X75349730Y-114509667D01*
X75350268Y-113893039D01*
X75114792Y-113323143D01*
X74942972Y-113151022D01*
X122300000Y-113151022D01*
X122300000Y-114248978D01*
X122452241Y-115014345D01*
X122885786Y-115663192D01*
X123534633Y-116096737D01*
X124300000Y-116248978D01*
X125065367Y-116096737D01*
X125714214Y-115663192D01*
X126147759Y-115014345D01*
X126300000Y-114248978D01*
X126300000Y-113151022D01*
X126147759Y-112385655D01*
X125714214Y-111736808D01*
X125065367Y-111303263D01*
X124300000Y-111151022D01*
X123534633Y-111303263D01*
X122885786Y-111736808D01*
X122452241Y-112385655D01*
X122300000Y-113151022D01*
X74942972Y-113151022D01*
X74679151Y-112886740D01*
X74432154Y-112784178D01*
X117013010Y-112784178D01*
X117092277Y-113075000D01*
X118425000Y-113075000D01*
X118425000Y-111964916D01*
X120175000Y-111964916D01*
X120175000Y-113075000D01*
X121507723Y-113075000D01*
X121586990Y-112784178D01*
X121125332Y-112254959D01*
X120471454Y-111857774D01*
X120175000Y-111964916D01*
X118425000Y-111964916D01*
X118128546Y-111857774D01*
X117474668Y-112254959D01*
X117013010Y-112784178D01*
X74432154Y-112784178D01*
X74109667Y-112650270D01*
X73493039Y-112649732D01*
X72923143Y-112885208D01*
X72486740Y-113320849D01*
X72250270Y-113890333D01*
X72249732Y-114506961D01*
X70327807Y-114506961D01*
X70388239Y-114169936D01*
X70278846Y-113619983D01*
X70030805Y-113534881D01*
X69365685Y-114200000D01*
X68234315Y-114200000D01*
X67569195Y-113534881D01*
X67321154Y-113619983D01*
X67211761Y-114230064D01*
X63140554Y-114230064D01*
X63332013Y-113943525D01*
X63450000Y-113350366D01*
X63450000Y-113289634D01*
X63386261Y-112969195D01*
X68134881Y-112969195D01*
X68800000Y-113634315D01*
X69465119Y-112969195D01*
X69380017Y-112721154D01*
X68769936Y-112611761D01*
X68219983Y-112721154D01*
X68134881Y-112969195D01*
X63386261Y-112969195D01*
X63332013Y-112696475D01*
X62996016Y-112193618D01*
X62493159Y-111857621D01*
X61900000Y-111739634D01*
X61306841Y-111857621D01*
X60803984Y-112193618D01*
X60467987Y-112696475D01*
X60350000Y-113289634D01*
X30825000Y-113289634D01*
X30825000Y-109806961D01*
X49449732Y-109806961D01*
X49685208Y-110376857D01*
X50120849Y-110813260D01*
X50690333Y-111049730D01*
X51306961Y-111050268D01*
X51876857Y-110814792D01*
X52313260Y-110379151D01*
X52549730Y-109809667D01*
X52550000Y-109500000D01*
X57039634Y-109500000D01*
X57157621Y-110093159D01*
X57493618Y-110596016D01*
X57996475Y-110932013D01*
X58589634Y-111050000D01*
X58650366Y-111050000D01*
X59243525Y-110932013D01*
X59746382Y-110596016D01*
X59939521Y-110306961D01*
X75049732Y-110306961D01*
X75285208Y-110876857D01*
X75720849Y-111313260D01*
X76290333Y-111549730D01*
X76906961Y-111550268D01*
X77476857Y-111314792D01*
X77913260Y-110879151D01*
X78149730Y-110309667D01*
X78150000Y-110000000D01*
X82639634Y-110000000D01*
X82757621Y-110593159D01*
X83093618Y-111096016D01*
X83596475Y-111432013D01*
X84189634Y-111550000D01*
X84250366Y-111550000D01*
X84843525Y-111432013D01*
X85346382Y-111096016D01*
X85682379Y-110593159D01*
X85759198Y-110206961D01*
X89149732Y-110206961D01*
X89385208Y-110776857D01*
X89820849Y-111213260D01*
X90390333Y-111449730D01*
X91006961Y-111450268D01*
X91576857Y-111214792D01*
X92013260Y-110779151D01*
X92249730Y-110209667D01*
X92250268Y-109593039D01*
X92014792Y-109023143D01*
X91579151Y-108586740D01*
X91009667Y-108350270D01*
X90393039Y-108349732D01*
X89823143Y-108585208D01*
X89386740Y-109020849D01*
X89150270Y-109590333D01*
X89149732Y-110206961D01*
X85759198Y-110206961D01*
X85800366Y-110000000D01*
X85682379Y-109406841D01*
X85346382Y-108903984D01*
X84843525Y-108567987D01*
X84250366Y-108450000D01*
X84189634Y-108450000D01*
X83596475Y-108567987D01*
X83093618Y-108903984D01*
X82757621Y-109406841D01*
X82639634Y-110000000D01*
X78150000Y-110000000D01*
X78150268Y-109693039D01*
X77914792Y-109123143D01*
X77479151Y-108686740D01*
X76909667Y-108450270D01*
X76293039Y-108449732D01*
X75723143Y-108685208D01*
X75286740Y-109120849D01*
X75050270Y-109690333D01*
X75049732Y-110306961D01*
X59939521Y-110306961D01*
X60082379Y-110093159D01*
X60200366Y-109500000D01*
X60082379Y-108906841D01*
X59746382Y-108403984D01*
X59243525Y-108067987D01*
X58650366Y-107950000D01*
X58589634Y-107950000D01*
X57996475Y-108067987D01*
X57493618Y-108403984D01*
X57157621Y-108906841D01*
X57039634Y-109500000D01*
X52550000Y-109500000D01*
X52550268Y-109193039D01*
X52314792Y-108623143D01*
X51879151Y-108186740D01*
X51309667Y-107950270D01*
X50693039Y-107949732D01*
X50123143Y-108185208D01*
X49686740Y-108620849D01*
X49450270Y-109190333D01*
X49449732Y-109806961D01*
X30825000Y-109806961D01*
X30825000Y-106006961D01*
X60349732Y-106006961D01*
X60585208Y-106576857D01*
X61020849Y-107013260D01*
X61590333Y-107249730D01*
X62206961Y-107250268D01*
X62776857Y-107014792D01*
X63213260Y-106579151D01*
X63409330Y-106106961D01*
X67049732Y-106106961D01*
X67285208Y-106676857D01*
X67720849Y-107113260D01*
X68290333Y-107349730D01*
X68906961Y-107350268D01*
X69476857Y-107114792D01*
X69913260Y-106679151D01*
X70149730Y-106109667D01*
X70150000Y-105800000D01*
X74639634Y-105800000D01*
X74757621Y-106393159D01*
X75093618Y-106896016D01*
X75596475Y-107232013D01*
X76189634Y-107350000D01*
X76250366Y-107350000D01*
X76754938Y-107249634D01*
X93050000Y-107249634D01*
X93050000Y-107310366D01*
X93167987Y-107903525D01*
X93503984Y-108406382D01*
X94006841Y-108742379D01*
X94600000Y-108860366D01*
X95193159Y-108742379D01*
X95696016Y-108406382D01*
X95880556Y-108130197D01*
X96174074Y-107934074D01*
X97183148Y-106925000D01*
X99789631Y-106925000D01*
X100090226Y-107049818D01*
X100507942Y-107050182D01*
X100894000Y-106890666D01*
X101189628Y-106595554D01*
X101349818Y-106209774D01*
X101349994Y-106006961D01*
X123633699Y-106006961D01*
X123827361Y-106281784D01*
X124721149Y-106371592D01*
X125172639Y-106281784D01*
X125366301Y-106006961D01*
X124500000Y-105140660D01*
X123633699Y-106006961D01*
X101349994Y-106006961D01*
X101350182Y-105792058D01*
X101190666Y-105406000D01*
X100895554Y-105110372D01*
X100509774Y-104950182D01*
X100092058Y-104949818D01*
X99789095Y-105075000D01*
X96800000Y-105075000D01*
X96446018Y-105145411D01*
X96145926Y-105345926D01*
X95481541Y-106010311D01*
X95193159Y-105817621D01*
X94600000Y-105699634D01*
X94006841Y-105817621D01*
X93503984Y-106153618D01*
X93167987Y-106656475D01*
X93050000Y-107249634D01*
X76754938Y-107249634D01*
X76843525Y-107232013D01*
X77346382Y-106896016D01*
X77682379Y-106393159D01*
X77800366Y-105800000D01*
X77682379Y-105206841D01*
X77346382Y-104703984D01*
X76843525Y-104367987D01*
X76250366Y-104250000D01*
X76189634Y-104250000D01*
X75596475Y-104367987D01*
X75093618Y-104703984D01*
X74757621Y-105206841D01*
X74639634Y-105800000D01*
X70150000Y-105800000D01*
X70150268Y-105493039D01*
X69914792Y-104923143D01*
X69479151Y-104486740D01*
X68909667Y-104250270D01*
X68293039Y-104249732D01*
X67723143Y-104485208D01*
X67286740Y-104920849D01*
X67050270Y-105490333D01*
X67049732Y-106106961D01*
X63409330Y-106106961D01*
X63449730Y-106009667D01*
X63450268Y-105393039D01*
X63214792Y-104823143D01*
X62779151Y-104386740D01*
X62209667Y-104150270D01*
X61593039Y-104149732D01*
X61023143Y-104385208D01*
X60586740Y-104820849D01*
X60350270Y-105390333D01*
X60349732Y-106006961D01*
X30825000Y-106006961D01*
X30825000Y-101806961D01*
X67049732Y-101806961D01*
X67285208Y-102376857D01*
X67720849Y-102813260D01*
X68290333Y-103049730D01*
X68906961Y-103050268D01*
X69476857Y-102814792D01*
X69913260Y-102379151D01*
X70149730Y-101809667D01*
X70150000Y-101500000D01*
X74639634Y-101500000D01*
X74757621Y-102093159D01*
X75093618Y-102596016D01*
X75596475Y-102932013D01*
X76189634Y-103050000D01*
X76250366Y-103050000D01*
X76843525Y-102932013D01*
X77346382Y-102596016D01*
X77539521Y-102306961D01*
X88449732Y-102306961D01*
X88685208Y-102876857D01*
X89120849Y-103313260D01*
X89690333Y-103549730D01*
X90306961Y-103550268D01*
X90876857Y-103314792D01*
X91002233Y-103189634D01*
X92550000Y-103189634D01*
X92550000Y-103250366D01*
X92667987Y-103843525D01*
X93003984Y-104346382D01*
X93506841Y-104682379D01*
X94100000Y-104800366D01*
X94693159Y-104682379D01*
X94765553Y-104634007D01*
X94946017Y-104754589D01*
X95300000Y-104825000D01*
X100989631Y-104825000D01*
X101290226Y-104949818D01*
X101707942Y-104950182D01*
X102094000Y-104790666D01*
X102389628Y-104495554D01*
X102470352Y-104301149D01*
X122208408Y-104301149D01*
X122298216Y-104752639D01*
X122573039Y-104946301D01*
X123439340Y-104080000D01*
X125560660Y-104080000D01*
X126426961Y-104946301D01*
X126701784Y-104752639D01*
X126791592Y-103858851D01*
X126701784Y-103407361D01*
X126426961Y-103213699D01*
X125560660Y-104080000D01*
X123439340Y-104080000D01*
X122573039Y-103213699D01*
X122298216Y-103407361D01*
X122208408Y-104301149D01*
X102470352Y-104301149D01*
X102549818Y-104109774D01*
X102550182Y-103692058D01*
X102390666Y-103306000D01*
X102095554Y-103010372D01*
X101709774Y-102850182D01*
X101292058Y-102849818D01*
X100989095Y-102975000D01*
X95683148Y-102975000D01*
X95588475Y-102880327D01*
X95532013Y-102596475D01*
X95235720Y-102153039D01*
X123633699Y-102153039D01*
X124500000Y-103019340D01*
X125366301Y-102153039D01*
X125172639Y-101878216D01*
X124278851Y-101788408D01*
X123827361Y-101878216D01*
X123633699Y-102153039D01*
X95235720Y-102153039D01*
X95196016Y-102093618D01*
X94693159Y-101757621D01*
X94100000Y-101639634D01*
X93506841Y-101757621D01*
X93003984Y-102093618D01*
X92667987Y-102596475D01*
X92550000Y-103189634D01*
X91002233Y-103189634D01*
X91313260Y-102879151D01*
X91549730Y-102309667D01*
X91550268Y-101693039D01*
X91314792Y-101123143D01*
X90879151Y-100686740D01*
X90309667Y-100450270D01*
X89693039Y-100449732D01*
X89123143Y-100685208D01*
X88686740Y-101120849D01*
X88450270Y-101690333D01*
X88449732Y-102306961D01*
X77539521Y-102306961D01*
X77682379Y-102093159D01*
X77800366Y-101500000D01*
X77682379Y-100906841D01*
X77346382Y-100403984D01*
X76843525Y-100067987D01*
X76250366Y-99950000D01*
X76189634Y-99950000D01*
X75596475Y-100067987D01*
X75093618Y-100403984D01*
X74757621Y-100906841D01*
X74639634Y-101500000D01*
X70150000Y-101500000D01*
X70150268Y-101193039D01*
X69914792Y-100623143D01*
X69479151Y-100186740D01*
X68909667Y-99950270D01*
X68293039Y-99949732D01*
X67723143Y-100185208D01*
X67286740Y-100620849D01*
X67050270Y-101190333D01*
X67049732Y-101806961D01*
X30825000Y-101806961D01*
X30825000Y-98106961D01*
X74649732Y-98106961D01*
X74885208Y-98676857D01*
X75320849Y-99113260D01*
X75890333Y-99349730D01*
X76506961Y-99350268D01*
X77076857Y-99114792D01*
X77513260Y-98679151D01*
X77749730Y-98109667D01*
X77750000Y-97800000D01*
X82239634Y-97800000D01*
X82357621Y-98393159D01*
X82693618Y-98896016D01*
X83196475Y-99232013D01*
X83789634Y-99350000D01*
X83850366Y-99350000D01*
X84443525Y-99232013D01*
X84946382Y-98896016D01*
X85282379Y-98393159D01*
X85400366Y-97800000D01*
X85302295Y-97306961D01*
X88449732Y-97306961D01*
X88685208Y-97876857D01*
X89120849Y-98313260D01*
X89690333Y-98549730D01*
X90306961Y-98550268D01*
X90876857Y-98314792D01*
X91313260Y-97879151D01*
X91470696Y-97500000D01*
X122235307Y-97500000D01*
X122235307Y-100500000D01*
X122287604Y-100777933D01*
X122451862Y-101033198D01*
X122702492Y-101204446D01*
X123000000Y-101264693D01*
X126000000Y-101264693D01*
X126277933Y-101212396D01*
X126533198Y-101048138D01*
X126704446Y-100797508D01*
X126764693Y-100500000D01*
X126764693Y-97500000D01*
X126712396Y-97222067D01*
X126548138Y-96966802D01*
X126297508Y-96795554D01*
X126000000Y-96735307D01*
X123000000Y-96735307D01*
X122722067Y-96787604D01*
X122466802Y-96951862D01*
X122295554Y-97202492D01*
X122235307Y-97500000D01*
X91470696Y-97500000D01*
X91549730Y-97309667D01*
X91550268Y-96693039D01*
X91314792Y-96123143D01*
X91098988Y-95906961D01*
X92549732Y-95906961D01*
X92785208Y-96476857D01*
X93220849Y-96913260D01*
X93790333Y-97149730D01*
X94406961Y-97150268D01*
X94976857Y-96914792D01*
X95413260Y-96479151D01*
X95649730Y-95909667D01*
X95650268Y-95293039D01*
X95414792Y-94723143D01*
X94979151Y-94286740D01*
X94409667Y-94050270D01*
X93793039Y-94049732D01*
X93223143Y-94285208D01*
X92786740Y-94720849D01*
X92550270Y-95290333D01*
X92549732Y-95906961D01*
X91098988Y-95906961D01*
X90879151Y-95686740D01*
X90309667Y-95450270D01*
X89693039Y-95449732D01*
X89123143Y-95685208D01*
X88686740Y-96120849D01*
X88450270Y-96690333D01*
X88449732Y-97306961D01*
X85302295Y-97306961D01*
X85282379Y-97206841D01*
X84946382Y-96703984D01*
X84443525Y-96367987D01*
X83850366Y-96250000D01*
X83789634Y-96250000D01*
X83196475Y-96367987D01*
X82693618Y-96703984D01*
X82357621Y-97206841D01*
X82239634Y-97800000D01*
X77750000Y-97800000D01*
X77750268Y-97493039D01*
X77514792Y-96923143D01*
X77079151Y-96486740D01*
X76509667Y-96250270D01*
X75893039Y-96249732D01*
X75323143Y-96485208D01*
X74886740Y-96920849D01*
X74650270Y-97490333D01*
X74649732Y-98106961D01*
X30825000Y-98106961D01*
X30825000Y-95070001D01*
X33707817Y-95070001D01*
X33839421Y-95329869D01*
X34571613Y-95431108D01*
X35080579Y-95329869D01*
X35212183Y-95070001D01*
X38787817Y-95070001D01*
X38919421Y-95329869D01*
X39651613Y-95431108D01*
X40160579Y-95329869D01*
X40292183Y-95070001D01*
X39552988Y-94330805D01*
X69734881Y-94330805D01*
X69819983Y-94578846D01*
X70430064Y-94688239D01*
X70980017Y-94578846D01*
X71065119Y-94330805D01*
X70400000Y-93665685D01*
X69734881Y-94330805D01*
X39552988Y-94330805D01*
X39540000Y-94317817D01*
X38787817Y-95070001D01*
X35212183Y-95070001D01*
X34460000Y-94317817D01*
X33707817Y-95070001D01*
X30825000Y-95070001D01*
X30825000Y-93651613D01*
X32568892Y-93651613D01*
X32670131Y-94160579D01*
X32929999Y-94292183D01*
X33682183Y-93540000D01*
X32929999Y-92787817D01*
X32670131Y-92919421D01*
X32568892Y-93651613D01*
X30825000Y-93651613D01*
X30825000Y-89990001D01*
X33707817Y-89990001D01*
X33839421Y-90249869D01*
X34571613Y-90351108D01*
X34581393Y-90349163D01*
X34912195Y-90679965D01*
X35469382Y-90122778D01*
X35250304Y-90650376D01*
X35249696Y-91346569D01*
X35468659Y-91876499D01*
X34912195Y-91320035D01*
X34554798Y-91677432D01*
X34348387Y-91648892D01*
X33839421Y-91750131D01*
X33707817Y-92009999D01*
X34460000Y-92762183D01*
X34848909Y-92373274D01*
X35626726Y-93151091D01*
X35237817Y-93540000D01*
X35990001Y-94292183D01*
X36249869Y-94160579D01*
X36351108Y-93428387D01*
X36349163Y-93418607D01*
X36679965Y-93087805D01*
X36122778Y-92530618D01*
X36650376Y-92749696D01*
X37346569Y-92750304D01*
X37876499Y-92531341D01*
X37320035Y-93087805D01*
X37677432Y-93445202D01*
X37648892Y-93651613D01*
X37750131Y-94160579D01*
X38009999Y-94292183D01*
X38762183Y-93540000D01*
X40317817Y-93540000D01*
X41070001Y-94292183D01*
X41329869Y-94160579D01*
X41431108Y-93428387D01*
X41371769Y-93130064D01*
X68811761Y-93130064D01*
X68921154Y-93680017D01*
X69169195Y-93765119D01*
X69834315Y-93100000D01*
X70965685Y-93100000D01*
X71630805Y-93765119D01*
X71878846Y-93680017D01*
X71927807Y-93406961D01*
X73849732Y-93406961D01*
X74085208Y-93976857D01*
X74520849Y-94413260D01*
X75090333Y-94649730D01*
X75706961Y-94650268D01*
X76276857Y-94414792D01*
X76713260Y-93979151D01*
X76949730Y-93409667D01*
X76950268Y-92793039D01*
X76773702Y-92365715D01*
X125650000Y-92365715D01*
X125650000Y-92434285D01*
X125783211Y-93103981D01*
X126162563Y-93671722D01*
X126730304Y-94051074D01*
X127400000Y-94184285D01*
X128069696Y-94051074D01*
X128637437Y-93671722D01*
X129016789Y-93103981D01*
X129150000Y-92434285D01*
X129150000Y-92365715D01*
X129016789Y-91696019D01*
X128637437Y-91128278D01*
X128069696Y-90748926D01*
X127400000Y-90615715D01*
X126730304Y-90748926D01*
X126162563Y-91128278D01*
X125783211Y-91696019D01*
X125650000Y-92365715D01*
X76773702Y-92365715D01*
X76714792Y-92223143D01*
X76279151Y-91786740D01*
X75709667Y-91550270D01*
X75093039Y-91549732D01*
X74523143Y-91785208D01*
X74086740Y-92220849D01*
X73850270Y-92790333D01*
X73849732Y-93406961D01*
X71927807Y-93406961D01*
X71988239Y-93069936D01*
X71878846Y-92519983D01*
X71630805Y-92434881D01*
X70965685Y-93100000D01*
X69834315Y-93100000D01*
X69169195Y-92434881D01*
X68921154Y-92519983D01*
X68811761Y-93130064D01*
X41371769Y-93130064D01*
X41329869Y-92919421D01*
X41070001Y-92787817D01*
X40317817Y-93540000D01*
X38762183Y-93540000D01*
X38373274Y-93151091D01*
X39151091Y-92373274D01*
X39540000Y-92762183D01*
X40292183Y-92009999D01*
X40220877Y-91869195D01*
X69734881Y-91869195D01*
X70400000Y-92534315D01*
X71065119Y-91869195D01*
X70980017Y-91621154D01*
X70369936Y-91511761D01*
X69819983Y-91621154D01*
X69734881Y-91869195D01*
X40220877Y-91869195D01*
X40160579Y-91750131D01*
X39428387Y-91648892D01*
X39418607Y-91650837D01*
X39087805Y-91320035D01*
X38530618Y-91877222D01*
X38749696Y-91349624D01*
X38750304Y-90653431D01*
X38531341Y-90123501D01*
X39087805Y-90679965D01*
X39445202Y-90322568D01*
X39651613Y-90351108D01*
X40160579Y-90249869D01*
X40292183Y-89990001D01*
X39540000Y-89237817D01*
X39151091Y-89626726D01*
X38373274Y-88848909D01*
X38762183Y-88460000D01*
X40317817Y-88460000D01*
X41070001Y-89212183D01*
X41329869Y-89080579D01*
X41366476Y-88815822D01*
X116613010Y-88815822D01*
X117074668Y-89345041D01*
X117728546Y-89742226D01*
X118025000Y-89635084D01*
X118025000Y-88525000D01*
X119775000Y-88525000D01*
X119775000Y-89635084D01*
X120071454Y-89742226D01*
X120725332Y-89345041D01*
X121186990Y-88815822D01*
X121107723Y-88525000D01*
X119775000Y-88525000D01*
X118025000Y-88525000D01*
X116692277Y-88525000D01*
X116613010Y-88815822D01*
X41366476Y-88815822D01*
X41431108Y-88348387D01*
X41329869Y-87839421D01*
X41070001Y-87707817D01*
X40317817Y-88460000D01*
X38762183Y-88460000D01*
X38009999Y-87707817D01*
X37750131Y-87839421D01*
X37648892Y-88571613D01*
X37650837Y-88581393D01*
X37320035Y-88912195D01*
X37877222Y-89469382D01*
X37349624Y-89250304D01*
X36653431Y-89249696D01*
X36123501Y-89468659D01*
X36679965Y-88912195D01*
X36322568Y-88554798D01*
X36351108Y-88348387D01*
X36249869Y-87839421D01*
X35990001Y-87707817D01*
X35237817Y-88460000D01*
X35626726Y-88848909D01*
X34848909Y-89626726D01*
X34460000Y-89237817D01*
X33707817Y-89990001D01*
X30825000Y-89990001D01*
X30825000Y-88571613D01*
X32568892Y-88571613D01*
X32670131Y-89080579D01*
X32929999Y-89212183D01*
X33682183Y-88460000D01*
X32929999Y-87707817D01*
X32670131Y-87839421D01*
X32568892Y-88571613D01*
X30825000Y-88571613D01*
X30825000Y-86929999D01*
X33707817Y-86929999D01*
X34460000Y-87682183D01*
X35212183Y-86929999D01*
X38787817Y-86929999D01*
X39540000Y-87682183D01*
X39871160Y-87351022D01*
X121900000Y-87351022D01*
X121900000Y-88448978D01*
X122052241Y-89214345D01*
X122485786Y-89863192D01*
X123134633Y-90296737D01*
X123900000Y-90448978D01*
X124665367Y-90296737D01*
X125314214Y-89863192D01*
X125747759Y-89214345D01*
X125900000Y-88448978D01*
X125900000Y-87351022D01*
X125747759Y-86585655D01*
X125314214Y-85936808D01*
X124665367Y-85503263D01*
X123900000Y-85351022D01*
X123134633Y-85503263D01*
X122485786Y-85936808D01*
X122052241Y-86585655D01*
X121900000Y-87351022D01*
X39871160Y-87351022D01*
X40292183Y-86929999D01*
X40261799Y-86870001D01*
X107507817Y-86870001D01*
X107639421Y-87129869D01*
X108371613Y-87231108D01*
X108880579Y-87129869D01*
X109012183Y-86870001D01*
X112587817Y-86870001D01*
X112719421Y-87129869D01*
X113451613Y-87231108D01*
X113960579Y-87129869D01*
X114034360Y-86984178D01*
X116613010Y-86984178D01*
X116692277Y-87275000D01*
X118025000Y-87275000D01*
X118025000Y-86164916D01*
X119775000Y-86164916D01*
X119775000Y-87275000D01*
X121107723Y-87275000D01*
X121186990Y-86984178D01*
X120725332Y-86454959D01*
X120071454Y-86057774D01*
X119775000Y-86164916D01*
X118025000Y-86164916D01*
X117728546Y-86057774D01*
X117074668Y-86454959D01*
X116613010Y-86984178D01*
X114034360Y-86984178D01*
X114092183Y-86870001D01*
X113340000Y-86117817D01*
X112587817Y-86870001D01*
X109012183Y-86870001D01*
X108260000Y-86117817D01*
X107507817Y-86870001D01*
X40261799Y-86870001D01*
X40160579Y-86670131D01*
X39428387Y-86568892D01*
X38919421Y-86670131D01*
X38787817Y-86929999D01*
X35212183Y-86929999D01*
X35080579Y-86670131D01*
X34348387Y-86568892D01*
X33839421Y-86670131D01*
X33707817Y-86929999D01*
X30825000Y-86929999D01*
X30825000Y-84207942D01*
X85649818Y-84207942D01*
X85809334Y-84594000D01*
X86104446Y-84889628D01*
X86490226Y-85049818D01*
X86641802Y-85049950D01*
X87585042Y-85993190D01*
X87709334Y-86294000D01*
X88004446Y-86589628D01*
X88390226Y-86749818D01*
X88807942Y-86750182D01*
X89194000Y-86590666D01*
X89489628Y-86295554D01*
X89649818Y-85909774D01*
X89650182Y-85492058D01*
X89633471Y-85451613D01*
X106368892Y-85451613D01*
X106470131Y-85960579D01*
X106729999Y-86092183D01*
X107482183Y-85340000D01*
X106729999Y-84587817D01*
X106470131Y-84719421D01*
X106368892Y-85451613D01*
X89633471Y-85451613D01*
X89490666Y-85106000D01*
X89195554Y-84810372D01*
X88892809Y-84684661D01*
X87554074Y-83345926D01*
X87483869Y-83299017D01*
X87295554Y-83110372D01*
X86909774Y-82950182D01*
X86492058Y-82949818D01*
X86106000Y-83109334D01*
X85810372Y-83404446D01*
X85650182Y-83790226D01*
X85649818Y-84207942D01*
X30825000Y-84207942D01*
X30825000Y-79500000D01*
X34735307Y-79500000D01*
X34735307Y-82500000D01*
X34787604Y-82777933D01*
X34951862Y-83033198D01*
X35202492Y-83204446D01*
X35500000Y-83264693D01*
X38500000Y-83264693D01*
X38777933Y-83212396D01*
X39033198Y-83048138D01*
X39204446Y-82797508D01*
X39264693Y-82500000D01*
X39264693Y-81790001D01*
X107507817Y-81790001D01*
X107639421Y-82049869D01*
X108371613Y-82151108D01*
X108381393Y-82149163D01*
X108712195Y-82479965D01*
X109269382Y-81922778D01*
X109050304Y-82450376D01*
X109049696Y-83146569D01*
X109268659Y-83676499D01*
X108712195Y-83120035D01*
X108354798Y-83477432D01*
X108148387Y-83448892D01*
X107639421Y-83550131D01*
X107507817Y-83809999D01*
X108260000Y-84562183D01*
X108648909Y-84173274D01*
X109426726Y-84951091D01*
X109037817Y-85340000D01*
X109790001Y-86092183D01*
X110049869Y-85960579D01*
X110151108Y-85228387D01*
X110149163Y-85218607D01*
X110479965Y-84887805D01*
X109922778Y-84330618D01*
X110450376Y-84549696D01*
X111146569Y-84550304D01*
X111676499Y-84331341D01*
X111120035Y-84887805D01*
X111477432Y-85245202D01*
X111448892Y-85451613D01*
X111550131Y-85960579D01*
X111809999Y-86092183D01*
X112562183Y-85340000D01*
X114117817Y-85340000D01*
X114870001Y-86092183D01*
X115129869Y-85960579D01*
X115231108Y-85228387D01*
X115129869Y-84719421D01*
X114870001Y-84587817D01*
X114117817Y-85340000D01*
X112562183Y-85340000D01*
X112173274Y-84951091D01*
X112951091Y-84173274D01*
X113340000Y-84562183D01*
X114092183Y-83809999D01*
X113960579Y-83550131D01*
X113228387Y-83448892D01*
X113218607Y-83450837D01*
X113133485Y-83365715D01*
X125650000Y-83365715D01*
X125650000Y-83434285D01*
X125783211Y-84103981D01*
X126162563Y-84671722D01*
X126730304Y-85051074D01*
X127400000Y-85184285D01*
X128069696Y-85051074D01*
X128637437Y-84671722D01*
X129016789Y-84103981D01*
X129150000Y-83434285D01*
X129150000Y-83365715D01*
X129016789Y-82696019D01*
X128637437Y-82128278D01*
X128069696Y-81748926D01*
X127400000Y-81615715D01*
X126730304Y-81748926D01*
X126162563Y-82128278D01*
X125783211Y-82696019D01*
X125650000Y-83365715D01*
X113133485Y-83365715D01*
X112887805Y-83120035D01*
X112330618Y-83677222D01*
X112549696Y-83149624D01*
X112550304Y-82453431D01*
X112331341Y-81923501D01*
X112887805Y-82479965D01*
X113245202Y-82122568D01*
X113451613Y-82151108D01*
X113960579Y-82049869D01*
X114092183Y-81790001D01*
X113340000Y-81037817D01*
X112951091Y-81426726D01*
X112173274Y-80648909D01*
X112562183Y-80260000D01*
X114117817Y-80260000D01*
X114870001Y-81012183D01*
X115129869Y-80880579D01*
X115231108Y-80148387D01*
X115202977Y-80006961D01*
X123933699Y-80006961D01*
X124127361Y-80281784D01*
X125021149Y-80371592D01*
X125472639Y-80281784D01*
X125666301Y-80006961D01*
X124800000Y-79140660D01*
X123933699Y-80006961D01*
X115202977Y-80006961D01*
X115129869Y-79639421D01*
X114870001Y-79507817D01*
X114117817Y-80260000D01*
X112562183Y-80260000D01*
X111809999Y-79507817D01*
X111550131Y-79639421D01*
X111448892Y-80371613D01*
X111450837Y-80381393D01*
X111120035Y-80712195D01*
X111677222Y-81269382D01*
X111149624Y-81050304D01*
X110453431Y-81049696D01*
X109923501Y-81268659D01*
X110479965Y-80712195D01*
X110122568Y-80354798D01*
X110151108Y-80148387D01*
X110049869Y-79639421D01*
X109790001Y-79507817D01*
X109037817Y-80260000D01*
X109426726Y-80648909D01*
X108648909Y-81426726D01*
X108260000Y-81037817D01*
X107507817Y-81790001D01*
X39264693Y-81790001D01*
X39264693Y-79500000D01*
X39212396Y-79222067D01*
X39048138Y-78966802D01*
X38797508Y-78795554D01*
X38500000Y-78735307D01*
X35500000Y-78735307D01*
X35222067Y-78787604D01*
X34966802Y-78951862D01*
X34795554Y-79202492D01*
X34735307Y-79500000D01*
X30825000Y-79500000D01*
X30825000Y-77846961D01*
X36133699Y-77846961D01*
X36327361Y-78121784D01*
X37221149Y-78211592D01*
X37672639Y-78121784D01*
X37866301Y-77846961D01*
X37279340Y-77260000D01*
X81268654Y-77260000D01*
X81390447Y-77872293D01*
X81675891Y-78299491D01*
X81516802Y-78401862D01*
X81345554Y-78652492D01*
X81285307Y-78950000D01*
X81285307Y-80650000D01*
X81337604Y-80927933D01*
X81501862Y-81183198D01*
X81752492Y-81354446D01*
X82050000Y-81414693D01*
X83750000Y-81414693D01*
X84027933Y-81362396D01*
X84283198Y-81198138D01*
X84454446Y-80947508D01*
X84514693Y-80650000D01*
X84514693Y-80371613D01*
X106368892Y-80371613D01*
X106470131Y-80880579D01*
X106729999Y-81012183D01*
X107482183Y-80260000D01*
X106729999Y-79507817D01*
X106470131Y-79639421D01*
X106368892Y-80371613D01*
X84514693Y-80371613D01*
X84514693Y-78950000D01*
X84473297Y-78729999D01*
X107507817Y-78729999D01*
X108260000Y-79482183D01*
X109012183Y-78729999D01*
X112587817Y-78729999D01*
X113340000Y-79482183D01*
X114092183Y-78729999D01*
X113960579Y-78470131D01*
X113228387Y-78368892D01*
X112719421Y-78470131D01*
X112587817Y-78729999D01*
X109012183Y-78729999D01*
X108880579Y-78470131D01*
X108148387Y-78368892D01*
X107639421Y-78470131D01*
X107507817Y-78729999D01*
X84473297Y-78729999D01*
X84462396Y-78672067D01*
X84298138Y-78416802D01*
X84128875Y-78301149D01*
X122508408Y-78301149D01*
X122598216Y-78752639D01*
X122873039Y-78946301D01*
X123739340Y-78080000D01*
X125860660Y-78080000D01*
X126726961Y-78946301D01*
X127001784Y-78752639D01*
X127091592Y-77858851D01*
X127001784Y-77407361D01*
X126726961Y-77213699D01*
X125860660Y-78080000D01*
X123739340Y-78080000D01*
X122873039Y-77213699D01*
X122598216Y-77407361D01*
X122508408Y-78301149D01*
X84128875Y-78301149D01*
X84124842Y-78298394D01*
X84409553Y-77872293D01*
X84531346Y-77260000D01*
X84409553Y-76647707D01*
X84079028Y-76153039D01*
X123933699Y-76153039D01*
X124800000Y-77019340D01*
X125666301Y-76153039D01*
X125472639Y-75878216D01*
X124578851Y-75788408D01*
X124127361Y-75878216D01*
X123933699Y-76153039D01*
X84079028Y-76153039D01*
X84062717Y-76128629D01*
X83543639Y-75781793D01*
X82931346Y-75660000D01*
X82868654Y-75660000D01*
X82256361Y-75781793D01*
X81737283Y-76128629D01*
X81390447Y-76647707D01*
X81268654Y-77260000D01*
X37279340Y-77260000D01*
X37000000Y-76980660D01*
X36133699Y-77846961D01*
X30825000Y-77846961D01*
X30825000Y-76141149D01*
X34708408Y-76141149D01*
X34798216Y-76592639D01*
X35073039Y-76786301D01*
X35939340Y-75920000D01*
X38060660Y-75920000D01*
X38926961Y-76786301D01*
X39201784Y-76592639D01*
X39291592Y-75698851D01*
X39201784Y-75247361D01*
X38926961Y-75053699D01*
X38060660Y-75920000D01*
X35939340Y-75920000D01*
X35073039Y-75053699D01*
X34798216Y-75247361D01*
X34708408Y-76141149D01*
X30825000Y-76141149D01*
X30825000Y-73993039D01*
X36133699Y-73993039D01*
X37000000Y-74859340D01*
X37866301Y-73993039D01*
X37672639Y-73718216D01*
X36778851Y-73628408D01*
X36327361Y-73718216D01*
X36133699Y-73993039D01*
X30825000Y-73993039D01*
X30825000Y-71500000D01*
X122535307Y-71500000D01*
X122535307Y-74500000D01*
X122587604Y-74777933D01*
X122751862Y-75033198D01*
X123002492Y-75204446D01*
X123300000Y-75264693D01*
X126300000Y-75264693D01*
X126577933Y-75212396D01*
X126833198Y-75048138D01*
X127004446Y-74797508D01*
X127064693Y-74500000D01*
X127064693Y-71500000D01*
X127012396Y-71222067D01*
X126848138Y-70966802D01*
X126597508Y-70795554D01*
X126300000Y-70735307D01*
X123300000Y-70735307D01*
X123022067Y-70787604D01*
X122766802Y-70951862D01*
X122595554Y-71202492D01*
X122535307Y-71500000D01*
X30825000Y-71500000D01*
X30825000Y-69070001D01*
X32707817Y-69070001D01*
X32839421Y-69329869D01*
X33571613Y-69431108D01*
X34080579Y-69329869D01*
X34212183Y-69070001D01*
X37787817Y-69070001D01*
X37919421Y-69329869D01*
X38651613Y-69431108D01*
X39160579Y-69329869D01*
X39292183Y-69070001D01*
X38540000Y-68317817D01*
X37787817Y-69070001D01*
X34212183Y-69070001D01*
X33460000Y-68317817D01*
X32707817Y-69070001D01*
X30825000Y-69070001D01*
X30825000Y-67651613D01*
X31568892Y-67651613D01*
X31670131Y-68160579D01*
X31929999Y-68292183D01*
X32682183Y-67540000D01*
X31929999Y-66787817D01*
X31670131Y-66919421D01*
X31568892Y-67651613D01*
X30825000Y-67651613D01*
X30825000Y-63990001D01*
X32707817Y-63990001D01*
X32839421Y-64249869D01*
X33571613Y-64351108D01*
X33581393Y-64349163D01*
X33912195Y-64679965D01*
X34469382Y-64122778D01*
X34250304Y-64650376D01*
X34249696Y-65346569D01*
X34468659Y-65876499D01*
X33912195Y-65320035D01*
X33554798Y-65677432D01*
X33348387Y-65648892D01*
X32839421Y-65750131D01*
X32707817Y-66009999D01*
X33460000Y-66762183D01*
X33848909Y-66373274D01*
X34626726Y-67151091D01*
X34237817Y-67540000D01*
X34990001Y-68292183D01*
X35249869Y-68160579D01*
X35351108Y-67428387D01*
X35349163Y-67418607D01*
X35679965Y-67087805D01*
X35122778Y-66530618D01*
X35650376Y-66749696D01*
X36346569Y-66750304D01*
X36876499Y-66531341D01*
X36320035Y-67087805D01*
X36677432Y-67445202D01*
X36648892Y-67651613D01*
X36750131Y-68160579D01*
X37009999Y-68292183D01*
X37762183Y-67540000D01*
X39317817Y-67540000D01*
X40070001Y-68292183D01*
X40329869Y-68160579D01*
X40431108Y-67428387D01*
X40415516Y-67350000D01*
X49985307Y-67350000D01*
X49985307Y-69050000D01*
X50037604Y-69327933D01*
X50201862Y-69583198D01*
X50452492Y-69754446D01*
X50750000Y-69814693D01*
X52450000Y-69814693D01*
X52727933Y-69762396D01*
X52983198Y-69598138D01*
X53101606Y-69424842D01*
X53527707Y-69709553D01*
X54140000Y-69831346D01*
X54752293Y-69709553D01*
X55271371Y-69362717D01*
X55509078Y-69006961D01*
X58149732Y-69006961D01*
X58385208Y-69576857D01*
X58820849Y-70013260D01*
X59390333Y-70249730D01*
X60006961Y-70250268D01*
X60576857Y-70014792D01*
X60583718Y-70007942D01*
X62749818Y-70007942D01*
X62909334Y-70394000D01*
X63204446Y-70689628D01*
X63590226Y-70849818D01*
X64007942Y-70850182D01*
X64394000Y-70690666D01*
X64689628Y-70395554D01*
X64750185Y-70249716D01*
X66224437Y-69166592D01*
X66370849Y-69313260D01*
X66940333Y-69549730D01*
X67556961Y-69550268D01*
X68126857Y-69314792D01*
X68563260Y-68879151D01*
X68799730Y-68309667D01*
X68800000Y-68000000D01*
X73289634Y-68000000D01*
X73407621Y-68593159D01*
X73743618Y-69096016D01*
X74246475Y-69432013D01*
X74839634Y-69550000D01*
X74900366Y-69550000D01*
X75493525Y-69432013D01*
X75996382Y-69096016D01*
X76332379Y-68593159D01*
X76450366Y-68000000D01*
X76332379Y-67406841D01*
X75996382Y-66903984D01*
X75493525Y-66567987D01*
X74900366Y-66450000D01*
X74839634Y-66450000D01*
X74246475Y-66567987D01*
X73743618Y-66903984D01*
X73407621Y-67406841D01*
X73289634Y-68000000D01*
X68800000Y-68000000D01*
X68800268Y-67693039D01*
X68564792Y-67123143D01*
X68129151Y-66686740D01*
X67559667Y-66450270D01*
X66943039Y-66449732D01*
X66373143Y-66685208D01*
X65936740Y-67120849D01*
X65929289Y-67138793D01*
X65896018Y-67145411D01*
X65803323Y-67207348D01*
X65702329Y-67254559D01*
X63667026Y-68749883D01*
X63592058Y-68749818D01*
X63206000Y-68909334D01*
X62910372Y-69204446D01*
X62750182Y-69590226D01*
X62749818Y-70007942D01*
X60583718Y-70007942D01*
X61013260Y-69579151D01*
X61249730Y-69009667D01*
X61250268Y-68393039D01*
X61014792Y-67823143D01*
X60579151Y-67386740D01*
X60009667Y-67150270D01*
X59393039Y-67149732D01*
X58823143Y-67385208D01*
X58386740Y-67820849D01*
X58150270Y-68390333D01*
X58149732Y-69006961D01*
X55509078Y-69006961D01*
X55618207Y-68843639D01*
X55740000Y-68231346D01*
X55740000Y-68168654D01*
X55618207Y-67556361D01*
X55271371Y-67037283D01*
X54752293Y-66690447D01*
X54140000Y-66568654D01*
X53527707Y-66690447D01*
X53100509Y-66975891D01*
X52998138Y-66816802D01*
X52747508Y-66645554D01*
X52450000Y-66585307D01*
X50750000Y-66585307D01*
X50472067Y-66637604D01*
X50216802Y-66801862D01*
X50045554Y-67052492D01*
X49985307Y-67350000D01*
X40415516Y-67350000D01*
X40329869Y-66919421D01*
X40070001Y-66787817D01*
X39317817Y-67540000D01*
X37762183Y-67540000D01*
X37373274Y-67151091D01*
X38151091Y-66373274D01*
X38540000Y-66762183D01*
X39292183Y-66009999D01*
X39160579Y-65750131D01*
X38428387Y-65648892D01*
X38418607Y-65650837D01*
X38087805Y-65320035D01*
X37530618Y-65877222D01*
X37749696Y-65349624D01*
X37750304Y-64653431D01*
X37531341Y-64123501D01*
X38087805Y-64679965D01*
X38367770Y-64400000D01*
X47199634Y-64400000D01*
X47317621Y-64993159D01*
X47653618Y-65496016D01*
X48156475Y-65832013D01*
X48749634Y-65950000D01*
X48810366Y-65950000D01*
X49403525Y-65832013D01*
X49906382Y-65496016D01*
X50242379Y-64993159D01*
X50299307Y-64706961D01*
X54849732Y-64706961D01*
X55085208Y-65276857D01*
X55520849Y-65713260D01*
X56090333Y-65949730D01*
X56706961Y-65950268D01*
X57276857Y-65714792D01*
X57713260Y-65279151D01*
X57949730Y-64709667D01*
X57949912Y-64500000D01*
X65799634Y-64500000D01*
X65917621Y-65093159D01*
X66253618Y-65596016D01*
X66756475Y-65932013D01*
X67349634Y-66050000D01*
X67410366Y-66050000D01*
X68003525Y-65932013D01*
X68506382Y-65596016D01*
X68842379Y-65093159D01*
X68899307Y-64806961D01*
X73449732Y-64806961D01*
X73685208Y-65376857D01*
X74120849Y-65813260D01*
X74690333Y-66049730D01*
X75306961Y-66050268D01*
X75876857Y-65814792D01*
X76313260Y-65379151D01*
X76549730Y-64809667D01*
X76550069Y-64420000D01*
X81368654Y-64420000D01*
X81490447Y-65032293D01*
X81837283Y-65551371D01*
X82044756Y-65690000D01*
X81837283Y-65828629D01*
X81490447Y-66347707D01*
X81368654Y-66960000D01*
X81490447Y-67572293D01*
X81775891Y-67999491D01*
X81616802Y-68101862D01*
X81445554Y-68352492D01*
X81385307Y-68650000D01*
X81385307Y-70350000D01*
X81437604Y-70627933D01*
X81601862Y-70883198D01*
X81852492Y-71054446D01*
X82150000Y-71114693D01*
X83850000Y-71114693D01*
X84127933Y-71062396D01*
X84383198Y-70898138D01*
X84554446Y-70647508D01*
X84614693Y-70350000D01*
X84614693Y-68650000D01*
X84562396Y-68372067D01*
X84398138Y-68116802D01*
X84224842Y-67998394D01*
X84509553Y-67572293D01*
X84631346Y-66960000D01*
X84509553Y-66347707D01*
X84162717Y-65828629D01*
X83955244Y-65690000D01*
X84162717Y-65551371D01*
X84509553Y-65032293D01*
X84631346Y-64420000D01*
X84509553Y-63807707D01*
X84162717Y-63288629D01*
X83643639Y-62941793D01*
X83031346Y-62820000D01*
X82968654Y-62820000D01*
X82356361Y-62941793D01*
X81837283Y-63288629D01*
X81490447Y-63807707D01*
X81368654Y-64420000D01*
X76550069Y-64420000D01*
X76550268Y-64193039D01*
X76314792Y-63623143D01*
X75879151Y-63186740D01*
X75309667Y-62950270D01*
X74693039Y-62949732D01*
X74123143Y-63185208D01*
X73686740Y-63620849D01*
X73450270Y-64190333D01*
X73449732Y-64806961D01*
X68899307Y-64806961D01*
X68960366Y-64500000D01*
X68842379Y-63906841D01*
X68506382Y-63403984D01*
X68003525Y-63067987D01*
X67410366Y-62950000D01*
X67349634Y-62950000D01*
X66756475Y-63067987D01*
X66253618Y-63403984D01*
X65917621Y-63906841D01*
X65799634Y-64500000D01*
X57949912Y-64500000D01*
X57950268Y-64093039D01*
X57714792Y-63523143D01*
X57279151Y-63086740D01*
X56709667Y-62850270D01*
X56093039Y-62849732D01*
X55523143Y-63085208D01*
X55086740Y-63520849D01*
X54850270Y-64090333D01*
X54849732Y-64706961D01*
X50299307Y-64706961D01*
X50360366Y-64400000D01*
X50242379Y-63806841D01*
X49906382Y-63303984D01*
X49403525Y-62967987D01*
X48810366Y-62850000D01*
X48749634Y-62850000D01*
X48156475Y-62967987D01*
X47653618Y-63303984D01*
X47317621Y-63806841D01*
X47199634Y-64400000D01*
X38367770Y-64400000D01*
X38445202Y-64322568D01*
X38651613Y-64351108D01*
X39160579Y-64249869D01*
X39292183Y-63990001D01*
X38540000Y-63237817D01*
X38151091Y-63626726D01*
X37373274Y-62848909D01*
X37762183Y-62460000D01*
X39317817Y-62460000D01*
X40070001Y-63212183D01*
X40329869Y-63080579D01*
X40431108Y-62348387D01*
X40329869Y-61839421D01*
X40070001Y-61707817D01*
X39317817Y-62460000D01*
X37762183Y-62460000D01*
X37009999Y-61707817D01*
X36750131Y-61839421D01*
X36648892Y-62571613D01*
X36650837Y-62581393D01*
X36320035Y-62912195D01*
X36877222Y-63469382D01*
X36349624Y-63250304D01*
X35653431Y-63249696D01*
X35123501Y-63468659D01*
X35679965Y-62912195D01*
X35322568Y-62554798D01*
X35351108Y-62348387D01*
X35249869Y-61839421D01*
X34990001Y-61707817D01*
X34237817Y-62460000D01*
X34626726Y-62848909D01*
X33848909Y-63626726D01*
X33460000Y-63237817D01*
X32707817Y-63990001D01*
X30825000Y-63990001D01*
X30825000Y-62571613D01*
X31568892Y-62571613D01*
X31670131Y-63080579D01*
X31929999Y-63212183D01*
X32682183Y-62460000D01*
X31929999Y-61707817D01*
X31670131Y-61839421D01*
X31568892Y-62571613D01*
X30825000Y-62571613D01*
X30825000Y-60929999D01*
X32707817Y-60929999D01*
X33460000Y-61682183D01*
X34212183Y-60929999D01*
X37787817Y-60929999D01*
X38540000Y-61682183D01*
X39172548Y-61049634D01*
X58150000Y-61049634D01*
X58150000Y-61110366D01*
X58267987Y-61703525D01*
X58603984Y-62206382D01*
X59106841Y-62542379D01*
X59700000Y-62660366D01*
X60293159Y-62542379D01*
X60796016Y-62206382D01*
X61132013Y-61703525D01*
X61250000Y-61110366D01*
X61250000Y-61049634D01*
X61132013Y-60456475D01*
X60796016Y-59953618D01*
X60293159Y-59617621D01*
X60152460Y-59589634D01*
X76700000Y-59589634D01*
X76700000Y-59650366D01*
X76817987Y-60243525D01*
X77153984Y-60746382D01*
X77656841Y-61082379D01*
X78250000Y-61200366D01*
X78843159Y-61082379D01*
X79346016Y-60746382D01*
X79682013Y-60243525D01*
X79800000Y-59650366D01*
X79800000Y-59589634D01*
X79682013Y-58996475D01*
X79346016Y-58493618D01*
X78843159Y-58157621D01*
X78250000Y-58039634D01*
X77656841Y-58157621D01*
X77153984Y-58493618D01*
X76817987Y-58996475D01*
X76700000Y-59589634D01*
X60152460Y-59589634D01*
X59700000Y-59499634D01*
X59106841Y-59617621D01*
X58603984Y-59953618D01*
X58267987Y-60456475D01*
X58150000Y-61049634D01*
X39172548Y-61049634D01*
X39292183Y-60929999D01*
X39160579Y-60670131D01*
X38428387Y-60568892D01*
X37919421Y-60670131D01*
X37787817Y-60929999D01*
X34212183Y-60929999D01*
X34080579Y-60670131D01*
X33348387Y-60568892D01*
X32839421Y-60670131D01*
X32707817Y-60929999D01*
X30825000Y-60929999D01*
X30825000Y-57800000D01*
X54999634Y-57800000D01*
X55117621Y-58393159D01*
X55453618Y-58896016D01*
X55956475Y-59232013D01*
X56549634Y-59350000D01*
X56610366Y-59350000D01*
X57203525Y-59232013D01*
X57706382Y-58896016D01*
X58042379Y-58393159D01*
X58099307Y-58106961D01*
X62649732Y-58106961D01*
X62885208Y-58676857D01*
X63320849Y-59113260D01*
X63890333Y-59349730D01*
X64506961Y-59350268D01*
X65076857Y-59114792D01*
X65513260Y-58679151D01*
X65749730Y-58109667D01*
X65750268Y-57493039D01*
X65514792Y-56923143D01*
X65079151Y-56486740D01*
X64509667Y-56250270D01*
X63893039Y-56249732D01*
X63323143Y-56485208D01*
X62886740Y-56920849D01*
X62650270Y-57490333D01*
X62649732Y-58106961D01*
X58099307Y-58106961D01*
X58160366Y-57800000D01*
X58042379Y-57206841D01*
X57706382Y-56703984D01*
X57203525Y-56367987D01*
X56610366Y-56250000D01*
X56549634Y-56250000D01*
X55956475Y-56367987D01*
X55453618Y-56703984D01*
X55117621Y-57206841D01*
X54999634Y-57800000D01*
X30825000Y-57800000D01*
X30825000Y-52600000D01*
X34535307Y-52600000D01*
X34535307Y-55600000D01*
X34587604Y-55877933D01*
X34751862Y-56133198D01*
X35002492Y-56304446D01*
X35300000Y-56364693D01*
X38300000Y-56364693D01*
X38577933Y-56312396D01*
X38833198Y-56148138D01*
X39004446Y-55897508D01*
X39064693Y-55600000D01*
X39064693Y-52600000D01*
X39012396Y-52322067D01*
X38848138Y-52066802D01*
X38597508Y-51895554D01*
X38300000Y-51835307D01*
X35300000Y-51835307D01*
X35022067Y-51887604D01*
X34766802Y-52051862D01*
X34595554Y-52302492D01*
X34535307Y-52600000D01*
X30825000Y-52600000D01*
X30825000Y-51560000D01*
X60168654Y-51560000D01*
X60290447Y-52172293D01*
X60575891Y-52599491D01*
X60416802Y-52701862D01*
X60245554Y-52952492D01*
X60185307Y-53250000D01*
X60185307Y-54950000D01*
X60237604Y-55227933D01*
X60401862Y-55483198D01*
X60652492Y-55654446D01*
X60950000Y-55714693D01*
X62650000Y-55714693D01*
X62927933Y-55662396D01*
X63183198Y-55498138D01*
X63354446Y-55247508D01*
X63414693Y-54950000D01*
X63414693Y-53250000D01*
X63362396Y-52972067D01*
X63198138Y-52716802D01*
X63024842Y-52598394D01*
X63219570Y-52306961D01*
X76699732Y-52306961D01*
X76935208Y-52876857D01*
X77370849Y-53313260D01*
X77940333Y-53549730D01*
X78556961Y-53550268D01*
X79126857Y-53314792D01*
X79271902Y-53170000D01*
X81368654Y-53170000D01*
X81490447Y-53782293D01*
X81837283Y-54301371D01*
X82044756Y-54440000D01*
X81837283Y-54578629D01*
X81490447Y-55097707D01*
X81368654Y-55710000D01*
X81490447Y-56322293D01*
X81775891Y-56749491D01*
X81616802Y-56851862D01*
X81445554Y-57102492D01*
X81385307Y-57400000D01*
X81385307Y-59100000D01*
X81437604Y-59377933D01*
X81601862Y-59633198D01*
X81852492Y-59804446D01*
X82150000Y-59864693D01*
X83850000Y-59864693D01*
X84127933Y-59812396D01*
X84383198Y-59648138D01*
X84554446Y-59397508D01*
X84614693Y-59100000D01*
X84614693Y-57507942D01*
X85949818Y-57507942D01*
X86075000Y-57810905D01*
X86075000Y-58989631D01*
X85950182Y-59290226D01*
X85949818Y-59707942D01*
X86109334Y-60094000D01*
X86404446Y-60389628D01*
X86790226Y-60549818D01*
X87207942Y-60550182D01*
X87594000Y-60390666D01*
X87889628Y-60095554D01*
X88049818Y-59709774D01*
X88050182Y-59292058D01*
X87925000Y-58989095D01*
X87925000Y-57810369D01*
X88049818Y-57509774D01*
X88050182Y-57092058D01*
X87890666Y-56706000D01*
X87595554Y-56410372D01*
X87209774Y-56250182D01*
X86792058Y-56249818D01*
X86406000Y-56409334D01*
X86110372Y-56704446D01*
X85950182Y-57090226D01*
X85949818Y-57507942D01*
X84614693Y-57507942D01*
X84614693Y-57400000D01*
X84562396Y-57122067D01*
X84398138Y-56866802D01*
X84224842Y-56748394D01*
X84509553Y-56322293D01*
X84631346Y-55710000D01*
X84509553Y-55097707D01*
X84162717Y-54578629D01*
X83955244Y-54440000D01*
X84162717Y-54301371D01*
X84509553Y-53782293D01*
X84631346Y-53170000D01*
X84509553Y-52557707D01*
X84162717Y-52038629D01*
X83643639Y-51691793D01*
X83031346Y-51570000D01*
X82968654Y-51570000D01*
X82356361Y-51691793D01*
X81837283Y-52038629D01*
X81490447Y-52557707D01*
X81368654Y-53170000D01*
X79271902Y-53170000D01*
X79563260Y-52879151D01*
X79799730Y-52309667D01*
X79800268Y-51693039D01*
X79564792Y-51123143D01*
X79129151Y-50686740D01*
X78559667Y-50450270D01*
X77943039Y-50449732D01*
X77373143Y-50685208D01*
X76936740Y-51120849D01*
X76700270Y-51690333D01*
X76699732Y-52306961D01*
X63219570Y-52306961D01*
X63309553Y-52172293D01*
X63431346Y-51560000D01*
X63309553Y-50947707D01*
X62962717Y-50428629D01*
X62443639Y-50081793D01*
X61831346Y-49960000D01*
X61768654Y-49960000D01*
X61156361Y-50081793D01*
X60637283Y-50428629D01*
X60290447Y-50947707D01*
X60168654Y-51560000D01*
X30825000Y-51560000D01*
X30825000Y-50946961D01*
X35933699Y-50946961D01*
X36127361Y-51221784D01*
X37021149Y-51311592D01*
X37472639Y-51221784D01*
X37666301Y-50946961D01*
X36800000Y-50080660D01*
X35933699Y-50946961D01*
X30825000Y-50946961D01*
X30825000Y-49241149D01*
X34508408Y-49241149D01*
X34598216Y-49692639D01*
X34873039Y-49886301D01*
X35739340Y-49020000D01*
X37860660Y-49020000D01*
X38726961Y-49886301D01*
X39001784Y-49692639D01*
X39052326Y-49189634D01*
X53050000Y-49189634D01*
X53050000Y-49250366D01*
X53167987Y-49843525D01*
X53503984Y-50346382D01*
X54006841Y-50682379D01*
X54600000Y-50800366D01*
X55193159Y-50682379D01*
X55696016Y-50346382D01*
X56032013Y-49843525D01*
X56150000Y-49250366D01*
X56150000Y-49189634D01*
X56032013Y-48596475D01*
X55696016Y-48093618D01*
X55193159Y-47757621D01*
X54600000Y-47639634D01*
X54006841Y-47757621D01*
X53503984Y-48093618D01*
X53167987Y-48596475D01*
X53050000Y-49189634D01*
X39052326Y-49189634D01*
X39091592Y-48798851D01*
X39001784Y-48347361D01*
X38726961Y-48153699D01*
X37860660Y-49020000D01*
X35739340Y-49020000D01*
X34873039Y-48153699D01*
X34598216Y-48347361D01*
X34508408Y-49241149D01*
X30825000Y-49241149D01*
X30825000Y-47093039D01*
X35933699Y-47093039D01*
X36800000Y-47959340D01*
X37301398Y-47457942D01*
X67199818Y-47457942D01*
X67359334Y-47844000D01*
X67654446Y-48139628D01*
X67825000Y-48210448D01*
X67825000Y-50239631D01*
X67700182Y-50540226D01*
X67699818Y-50957942D01*
X67859334Y-51344000D01*
X68154446Y-51639628D01*
X68540226Y-51799818D01*
X68957942Y-51800182D01*
X69344000Y-51640666D01*
X69639628Y-51345554D01*
X69799818Y-50959774D01*
X69800182Y-50542058D01*
X69687174Y-50268559D01*
X70156841Y-50582379D01*
X70750000Y-50700366D01*
X71343159Y-50582379D01*
X71846016Y-50246382D01*
X72182013Y-49743525D01*
X72300000Y-49150366D01*
X72300000Y-49089634D01*
X72204186Y-48607942D01*
X99949818Y-48607942D01*
X100075000Y-48910905D01*
X100075000Y-50230458D01*
X100050182Y-50290226D01*
X100049818Y-50707942D01*
X100209334Y-51094000D01*
X100504446Y-51389628D01*
X100890226Y-51549818D01*
X101307942Y-51550182D01*
X101694000Y-51390666D01*
X101989628Y-51095554D01*
X102149818Y-50709774D01*
X102150182Y-50292058D01*
X101990666Y-49906000D01*
X101925000Y-49840219D01*
X101925000Y-48910369D01*
X102049818Y-48609774D01*
X102050182Y-48192058D01*
X101890666Y-47806000D01*
X101595554Y-47510372D01*
X101209774Y-47350182D01*
X100792058Y-47349818D01*
X100406000Y-47509334D01*
X100110372Y-47804446D01*
X99950182Y-48190226D01*
X99949818Y-48607942D01*
X72204186Y-48607942D01*
X72182013Y-48496475D01*
X71846016Y-47993618D01*
X71343159Y-47657621D01*
X70750000Y-47539634D01*
X70156841Y-47657621D01*
X69675000Y-47979576D01*
X69675000Y-47750000D01*
X69604589Y-47396018D01*
X69404074Y-47095926D01*
X69264958Y-46956810D01*
X69140666Y-46656000D01*
X68845554Y-46360372D01*
X68459774Y-46200182D01*
X68042058Y-46199818D01*
X67656000Y-46359334D01*
X67360372Y-46654446D01*
X67200182Y-47040226D01*
X67199818Y-47457942D01*
X37301398Y-47457942D01*
X37666301Y-47093039D01*
X37472639Y-46818216D01*
X36578851Y-46728408D01*
X36127361Y-46818216D01*
X35933699Y-47093039D01*
X30825000Y-47093039D01*
X30825000Y-45640000D01*
X81468654Y-45640000D01*
X81590447Y-46252293D01*
X81937283Y-46771371D01*
X82456361Y-47118207D01*
X83068654Y-47240000D01*
X83131346Y-47240000D01*
X83743639Y-47118207D01*
X84262717Y-46771371D01*
X84609553Y-46252293D01*
X84731346Y-45640000D01*
X84609553Y-45027707D01*
X84324109Y-44600509D01*
X84483198Y-44498138D01*
X84654446Y-44247508D01*
X84714693Y-43950000D01*
X84714693Y-42250000D01*
X84662396Y-41972067D01*
X84498138Y-41716802D01*
X84247508Y-41545554D01*
X83950000Y-41485307D01*
X82250000Y-41485307D01*
X81972067Y-41537604D01*
X81716802Y-41701862D01*
X81545554Y-41952492D01*
X81485307Y-42250000D01*
X81485307Y-43950000D01*
X81537604Y-44227933D01*
X81701862Y-44483198D01*
X81875158Y-44601606D01*
X81590447Y-45027707D01*
X81468654Y-45640000D01*
X30825000Y-45640000D01*
X30825000Y-41906961D01*
X53049732Y-41906961D01*
X53285208Y-42476857D01*
X53720849Y-42913260D01*
X54290333Y-43149730D01*
X54906961Y-43150268D01*
X55476857Y-42914792D01*
X55913260Y-42479151D01*
X56149730Y-41909667D01*
X56149819Y-41806961D01*
X69199732Y-41806961D01*
X69435208Y-42376857D01*
X69870849Y-42813260D01*
X70440333Y-43049730D01*
X71056961Y-43050268D01*
X71626857Y-42814792D01*
X72063260Y-42379151D01*
X72299730Y-41809667D01*
X72300268Y-41193039D01*
X72064792Y-40623143D01*
X71629151Y-40186740D01*
X71059667Y-39950270D01*
X70443039Y-39949732D01*
X69873143Y-40185208D01*
X69436740Y-40620849D01*
X69200270Y-41190333D01*
X69199732Y-41806961D01*
X56149819Y-41806961D01*
X56150268Y-41293039D01*
X56037655Y-41020493D01*
X56293190Y-40764958D01*
X56594000Y-40640666D01*
X56889628Y-40345554D01*
X57049818Y-39959774D01*
X57050182Y-39542058D01*
X56890666Y-39156000D01*
X56595554Y-38860372D01*
X56209774Y-38700182D01*
X55792058Y-38699818D01*
X55406000Y-38859334D01*
X55110372Y-39154446D01*
X54984661Y-39457191D01*
X54392034Y-40049818D01*
X54293039Y-40049732D01*
X53723143Y-40285208D01*
X53286740Y-40720849D01*
X53050270Y-41290333D01*
X53049732Y-41906961D01*
X30825000Y-41906961D01*
X30825000Y-34758981D01*
X31422066Y-35357090D01*
X32444198Y-35781516D01*
X33550946Y-35782482D01*
X33733459Y-35707069D01*
X106025161Y-35707069D01*
X106841235Y-36523143D01*
X106720630Y-36643537D01*
X106490262Y-37198325D01*
X106489738Y-37799040D01*
X106719138Y-38354229D01*
X107143537Y-38779370D01*
X107698325Y-39009738D01*
X108299040Y-39010262D01*
X108854229Y-38780862D01*
X109270353Y-38365464D01*
X109683537Y-38779370D01*
X110238325Y-39009738D01*
X110839040Y-39010262D01*
X111394229Y-38780862D01*
X111819370Y-38356463D01*
X112049738Y-37801675D01*
X112050262Y-37200960D01*
X111820862Y-36645771D01*
X111675464Y-36500118D01*
X111819370Y-36356463D01*
X112049738Y-35801675D01*
X112050262Y-35200960D01*
X111820862Y-34645771D01*
X111753503Y-34578294D01*
X114446301Y-34578294D01*
X114616679Y-34847597D01*
X115449992Y-34941748D01*
X115923321Y-34847597D01*
X116093699Y-34578294D01*
X115270000Y-33754594D01*
X114446301Y-34578294D01*
X111753503Y-34578294D01*
X111396463Y-34220630D01*
X110841675Y-33990262D01*
X110240960Y-33989738D01*
X109685771Y-34219138D01*
X109260630Y-34643537D01*
X109166022Y-34871379D01*
X108537401Y-35500000D01*
X108806102Y-35768701D01*
X108501546Y-36073256D01*
X108301675Y-35990262D01*
X107700960Y-35989738D01*
X107498564Y-36073366D01*
X107193899Y-35768701D01*
X107462599Y-35500000D01*
X106809233Y-34846634D01*
X106562821Y-34925534D01*
X106507089Y-35225141D01*
X106025161Y-35707069D01*
X33733459Y-35707069D01*
X34573818Y-35359840D01*
X35356729Y-34578294D01*
X102446301Y-34578294D01*
X102616679Y-34847597D01*
X103449992Y-34941748D01*
X103923321Y-34847597D01*
X104093699Y-34578294D01*
X103824639Y-34309233D01*
X107346634Y-34309233D01*
X108000000Y-34962599D01*
X108653366Y-34309233D01*
X108574466Y-34062821D01*
X107980753Y-33952381D01*
X107425534Y-34062821D01*
X107346634Y-34309233D01*
X103824639Y-34309233D01*
X103270000Y-33754594D01*
X102446301Y-34578294D01*
X35356729Y-34578294D01*
X35357090Y-34577934D01*
X35781516Y-33555802D01*
X35782018Y-32979992D01*
X101128252Y-32979992D01*
X101222403Y-33453321D01*
X101491706Y-33623699D01*
X102315406Y-32800000D01*
X104224594Y-32800000D01*
X105048294Y-33623699D01*
X105317597Y-33453321D01*
X105371075Y-32979992D01*
X113128252Y-32979992D01*
X113222403Y-33453321D01*
X113491706Y-33623699D01*
X114315406Y-32800000D01*
X116224594Y-32800000D01*
X117048294Y-33623699D01*
X117317597Y-33453321D01*
X117411748Y-32620008D01*
X117317597Y-32146679D01*
X117048294Y-31976301D01*
X116224594Y-32800000D01*
X114315406Y-32800000D01*
X113491706Y-31976301D01*
X113222403Y-32146679D01*
X113128252Y-32979992D01*
X105371075Y-32979992D01*
X105411748Y-32620008D01*
X105317597Y-32146679D01*
X105048294Y-31976301D01*
X104224594Y-32800000D01*
X102315406Y-32800000D01*
X101491706Y-31976301D01*
X101222403Y-32146679D01*
X101128252Y-32979992D01*
X35782018Y-32979992D01*
X35782482Y-32449054D01*
X35359840Y-31426182D01*
X34759706Y-30825000D01*
X102570750Y-30825000D01*
X102446301Y-31021706D01*
M02*
