G04 #@! TF.FileFunction,Copper,L2,Bot,Signal*
%FSLAX46Y46*%
G04 Gerber Fmt 4.6, Leading zero omitted, Abs format (unit mm)*
G04 Created by KiCad (PCBNEW 4.0.7) date 01/19/21 23:59:24*
%MOMM*%
%LPD*%
G01*
G04 APERTURE LIST*
%ADD10C,0.100000*%
%ADD11R,3.000000X3.000000*%
%ADD12C,3.000000*%
%ADD13O,2.500000X3.500000*%
%ADD14O,3.500000X2.500000*%
%ADD15C,1.600000*%
%ADD16C,1.520000*%
%ADD17C,2.700000*%
%ADD18O,1.600000X1.600000*%
%ADD19R,1.700000X1.700000*%
%ADD20O,1.700000X1.700000*%
%ADD21C,4.064000*%
%ADD22R,2.000000X2.000000*%
%ADD23C,2.000000*%
%ADD24R,3.500000X3.500000*%
%ADD25C,0.600000*%
%ADD26C,0.350000*%
%ADD27C,0.500000*%
G04 APERTURE END LIST*
D10*
D11*
X122900000Y-99900000D03*
D12*
X122900000Y-104980000D03*
D13*
X36000000Y-71750000D03*
D14*
X41000000Y-71750000D03*
D15*
X65940000Y-122430000D03*
X70940000Y-122430000D03*
X98400000Y-116730000D03*
X103400000Y-116730000D03*
D16*
X110540000Y-37500000D03*
X108000000Y-37500000D03*
X108000000Y-35500000D03*
X110540000Y-35500000D03*
D17*
X115270000Y-32800000D03*
X103270000Y-32800000D03*
D11*
X100500000Y-123900000D03*
D12*
X95420000Y-123900000D03*
D15*
X70180000Y-115980000D03*
D18*
X77800000Y-115980000D03*
D15*
X86680000Y-115480000D03*
D18*
X94300000Y-115480000D03*
D15*
X77690000Y-111940000D03*
D18*
X85310000Y-111940000D03*
D15*
X88880000Y-92930000D03*
X88880000Y-97930000D03*
X96760000Y-100750000D03*
X101760000Y-100750000D03*
X82670000Y-104800000D03*
D18*
X90290000Y-104800000D03*
D15*
X92620000Y-101540000D03*
D18*
X92620000Y-93920000D03*
D15*
X87400000Y-108130000D03*
D18*
X95020000Y-108130000D03*
D15*
X81720000Y-122680000D03*
D18*
X74100000Y-122680000D03*
D15*
X81610000Y-126030000D03*
D18*
X73990000Y-126030000D03*
D11*
X36600000Y-51300000D03*
D12*
X36600000Y-46220000D03*
D19*
X89700000Y-63200000D03*
D20*
X89700000Y-60660000D03*
X89700000Y-58120000D03*
D15*
X50300000Y-57000000D03*
D18*
X50300000Y-64620000D03*
D15*
X66800000Y-55500000D03*
D18*
X66800000Y-47880000D03*
D11*
X36400000Y-85600000D03*
D12*
X36400000Y-80520000D03*
D19*
X89800000Y-74800000D03*
D20*
X89800000Y-72260000D03*
X89800000Y-69720000D03*
D15*
X51400000Y-66700000D03*
D18*
X51400000Y-74320000D03*
D15*
X65000000Y-70300000D03*
D18*
X57380000Y-70300000D03*
D21*
X33000000Y-33000000D03*
X127000000Y-33000000D03*
X127000000Y-127000000D03*
X33000000Y-127000000D03*
D15*
X70600000Y-47900000D03*
D18*
X70600000Y-55520000D03*
D15*
X68200000Y-69900000D03*
D18*
X68200000Y-77520000D03*
D15*
X85700000Y-53600000D03*
D18*
X85700000Y-61220000D03*
D15*
X86900000Y-68100000D03*
D18*
X79280000Y-68100000D03*
D19*
X53700000Y-56700000D03*
D20*
X53700000Y-59240000D03*
D19*
X57900000Y-76800000D03*
D20*
X57900000Y-74260000D03*
D19*
X72900000Y-61600000D03*
D20*
X72900000Y-59060000D03*
D19*
X76000000Y-68700000D03*
D20*
X76000000Y-71240000D03*
D19*
X98600000Y-83700000D03*
D20*
X98600000Y-81160000D03*
D15*
X60860000Y-127260000D03*
D18*
X53240000Y-127260000D03*
D13*
X36250000Y-60250000D03*
D14*
X41250000Y-60250000D03*
D13*
X36400000Y-94300000D03*
D14*
X41400000Y-94300000D03*
D13*
X36200000Y-106500000D03*
D14*
X41200000Y-106500000D03*
D13*
X122800000Y-90800000D03*
D14*
X117800000Y-90800000D03*
D13*
X122900000Y-78100000D03*
D14*
X117900000Y-78100000D03*
D13*
X123500000Y-113750000D03*
D14*
X118500000Y-113750000D03*
X110500000Y-124000000D03*
D13*
X110500000Y-119000000D03*
D22*
X42000000Y-36250000D03*
D23*
X47000000Y-36250000D03*
D22*
X53250000Y-36000000D03*
D23*
X58250000Y-36000000D03*
D24*
X68500000Y-41250000D03*
X68500000Y-35250000D03*
X63800000Y-38250000D03*
D19*
X99250000Y-36000000D03*
D20*
X99250000Y-38540000D03*
X99250000Y-41080000D03*
D19*
X47900000Y-48100000D03*
D20*
X47900000Y-45560000D03*
D19*
X50120000Y-82480000D03*
D20*
X50120000Y-85020000D03*
D15*
X51700000Y-44900000D03*
D18*
X51700000Y-52520000D03*
D15*
X54700000Y-74300000D03*
D18*
X54700000Y-66680000D03*
D15*
X64600000Y-65800000D03*
D18*
X72220000Y-65800000D03*
D15*
X71900000Y-69800000D03*
D18*
X71900000Y-77420000D03*
D25*
X113300000Y-113940000D03*
X115170000Y-114860000D03*
X79400000Y-47500000D03*
X78100000Y-48800000D03*
X106100000Y-103200000D03*
X91500000Y-40600000D03*
X93100000Y-42100000D03*
X103300000Y-90100000D03*
X105900000Y-88400000D03*
X46300000Y-115000000D03*
X50200000Y-79700000D03*
X50400000Y-76700000D03*
X46100000Y-59700000D03*
X97300000Y-105900000D03*
X106400000Y-76800000D03*
X111100000Y-79000000D03*
X48800000Y-89500000D03*
X38500000Y-123300000D03*
X49400000Y-123300000D03*
X47400000Y-116100000D03*
X71400000Y-120000000D03*
X91500000Y-126900000D03*
X106600000Y-115700000D03*
X111300000Y-111500000D03*
X111100000Y-107700000D03*
X97400000Y-107300000D03*
X105300000Y-101200000D03*
X111100000Y-95900000D03*
X119100000Y-64500000D03*
X117500000Y-71900000D03*
X114100000Y-72400000D03*
X111200000Y-66900000D03*
X104900000Y-69200000D03*
X106000000Y-68000000D03*
X103900000Y-68100000D03*
X120700000Y-59400000D03*
X119900000Y-57600000D03*
X112600000Y-57800000D03*
X110300000Y-58000000D03*
X107600000Y-57700000D03*
X107600000Y-54500000D03*
X112300000Y-54500000D03*
X119700000Y-46600000D03*
X114000000Y-45300000D03*
X109300000Y-41900000D03*
X106700000Y-43200000D03*
X96800000Y-55100000D03*
X96000000Y-51900000D03*
X62200000Y-44900000D03*
X58700000Y-48500000D03*
X61100000Y-43700000D03*
X81400000Y-61600000D03*
X76100000Y-44700000D03*
X71600000Y-44300000D03*
X61600000Y-61400000D03*
X48400000Y-126470000D03*
X62700000Y-61300000D03*
X82500000Y-61400000D03*
X92400000Y-65600000D03*
X95300000Y-66200000D03*
X94100000Y-64900000D03*
X95500000Y-43000000D03*
X41500000Y-116700000D03*
X44000000Y-119000000D03*
D26*
X114250000Y-113940000D02*
X113300000Y-113940000D01*
X115170000Y-114860000D02*
X114250000Y-113940000D01*
X117500000Y-71900000D02*
X117600000Y-71900000D01*
X92400000Y-65600000D02*
X92400000Y-65800000D01*
X92400000Y-65800000D02*
X92800000Y-66200000D01*
X92800000Y-66200000D02*
X95300000Y-66200000D01*
X92540000Y-101520000D02*
X93060000Y-101520000D01*
X92900000Y-63700000D02*
X90200000Y-63700000D01*
X94100000Y-64900000D02*
X92900000Y-63700000D01*
X90200000Y-63700000D02*
X89700000Y-63200000D01*
X68200000Y-69900000D02*
X67800000Y-69900000D01*
X67800000Y-69900000D02*
X65700000Y-72000000D01*
X59080000Y-72000000D02*
X57380000Y-70300000D01*
X65700000Y-72000000D02*
X59080000Y-72000000D01*
D27*
X99250000Y-41080000D02*
X97420000Y-41080000D01*
X97420000Y-41080000D02*
X95500000Y-43000000D01*
D26*
X41700000Y-116700000D02*
X41500000Y-116700000D01*
X44000000Y-119000000D02*
X41700000Y-116700000D01*
D27*
G36*
X102446301Y-31021706D02*
X103270000Y-31845406D01*
X104093699Y-31021706D01*
X103969250Y-30825000D01*
X114570750Y-30825000D01*
X114446301Y-31021706D01*
X115270000Y-31845406D01*
X116093699Y-31021706D01*
X115969250Y-30825000D01*
X125241019Y-30825000D01*
X124642910Y-31422066D01*
X124218484Y-32444198D01*
X124217518Y-33550946D01*
X124640160Y-34573818D01*
X125422066Y-35357090D01*
X126444198Y-35781516D01*
X127550946Y-35782482D01*
X128573818Y-35359840D01*
X129175000Y-34759706D01*
X129175000Y-125241019D01*
X128577934Y-124642910D01*
X127555802Y-124218484D01*
X126449054Y-124217518D01*
X125426182Y-124640160D01*
X124642910Y-125422066D01*
X124218484Y-126444198D01*
X124217518Y-127550946D01*
X124640160Y-128573818D01*
X125240294Y-129175000D01*
X115411335Y-129175000D01*
X115703981Y-129116789D01*
X116271722Y-128737437D01*
X116651074Y-128169696D01*
X116784285Y-127500000D01*
X116651074Y-126830304D01*
X116271722Y-126262563D01*
X115703981Y-125883211D01*
X115034285Y-125750000D01*
X114965715Y-125750000D01*
X114296019Y-125883211D01*
X113728278Y-126262563D01*
X113348926Y-126830304D01*
X113215715Y-127500000D01*
X113348926Y-128169696D01*
X113728278Y-128737437D01*
X114296019Y-129116789D01*
X114588665Y-129175000D01*
X106411335Y-129175000D01*
X106703981Y-129116789D01*
X107271722Y-128737437D01*
X107651074Y-128169696D01*
X107784285Y-127500000D01*
X107651074Y-126830304D01*
X107271722Y-126262563D01*
X106703981Y-125883211D01*
X106034285Y-125750000D01*
X105965715Y-125750000D01*
X105296019Y-125883211D01*
X104728278Y-126262563D01*
X104348926Y-126830304D01*
X104215715Y-127500000D01*
X104348926Y-128169696D01*
X104728278Y-128737437D01*
X105296019Y-129116789D01*
X105588665Y-129175000D01*
X34758981Y-129175000D01*
X35357090Y-128577934D01*
X35781516Y-127555802D01*
X35781774Y-127260000D01*
X51659634Y-127260000D01*
X51777621Y-127853159D01*
X52113618Y-128356016D01*
X52616475Y-128692013D01*
X53209634Y-128810000D01*
X53270366Y-128810000D01*
X53863525Y-128692013D01*
X54366382Y-128356016D01*
X54702379Y-127853159D01*
X54759307Y-127566961D01*
X59309732Y-127566961D01*
X59545208Y-128136857D01*
X59980849Y-128573260D01*
X60550333Y-128809730D01*
X61166961Y-128810268D01*
X61736857Y-128574792D01*
X62173260Y-128139151D01*
X62409730Y-127569667D01*
X62410268Y-126953039D01*
X62174792Y-126383143D01*
X61822266Y-126030000D01*
X72409634Y-126030000D01*
X72527621Y-126623159D01*
X72863618Y-127126016D01*
X73366475Y-127462013D01*
X73959634Y-127580000D01*
X74020366Y-127580000D01*
X74613525Y-127462013D01*
X75116382Y-127126016D01*
X75452379Y-126623159D01*
X75509307Y-126336961D01*
X80059732Y-126336961D01*
X80295208Y-126906857D01*
X80730849Y-127343260D01*
X81300333Y-127579730D01*
X81916961Y-127580268D01*
X82486857Y-127344792D01*
X82923260Y-126909151D01*
X83159730Y-126339667D01*
X83160177Y-125826961D01*
X94553699Y-125826961D01*
X94747361Y-126101784D01*
X95641149Y-126191592D01*
X96092639Y-126101784D01*
X96286301Y-125826961D01*
X95420000Y-124960660D01*
X94553699Y-125826961D01*
X83160177Y-125826961D01*
X83160268Y-125723039D01*
X82924792Y-125153143D01*
X82489151Y-124716740D01*
X81919667Y-124480270D01*
X81303039Y-124479732D01*
X80733143Y-124715208D01*
X80296740Y-125150849D01*
X80060270Y-125720333D01*
X80059732Y-126336961D01*
X75509307Y-126336961D01*
X75570366Y-126030000D01*
X75452379Y-125436841D01*
X75116382Y-124933984D01*
X74613525Y-124597987D01*
X74020366Y-124480000D01*
X73959634Y-124480000D01*
X73366475Y-124597987D01*
X72863618Y-124933984D01*
X72527621Y-125436841D01*
X72409634Y-126030000D01*
X61822266Y-126030000D01*
X61739151Y-125946740D01*
X61169667Y-125710270D01*
X60553039Y-125709732D01*
X59983143Y-125945208D01*
X59546740Y-126380849D01*
X59310270Y-126950333D01*
X59309732Y-127566961D01*
X54759307Y-127566961D01*
X54820366Y-127260000D01*
X54702379Y-126666841D01*
X54366382Y-126163984D01*
X53863525Y-125827987D01*
X53270366Y-125710000D01*
X53209634Y-125710000D01*
X52616475Y-125827987D01*
X52113618Y-126163984D01*
X51777621Y-126666841D01*
X51659634Y-127260000D01*
X35781774Y-127260000D01*
X35782482Y-126449054D01*
X35359840Y-125426182D01*
X34577934Y-124642910D01*
X33555802Y-124218484D01*
X32449054Y-124217518D01*
X31426182Y-124640160D01*
X30825000Y-125240294D01*
X30825000Y-123660805D01*
X65274881Y-123660805D01*
X65359983Y-123908846D01*
X65970064Y-124018239D01*
X66520017Y-123908846D01*
X66605119Y-123660805D01*
X65940000Y-122995685D01*
X65274881Y-123660805D01*
X30825000Y-123660805D01*
X30825000Y-122460064D01*
X64351761Y-122460064D01*
X64461154Y-123010017D01*
X64709195Y-123095119D01*
X65374315Y-122430000D01*
X66505685Y-122430000D01*
X67170805Y-123095119D01*
X67418846Y-123010017D01*
X67467807Y-122736961D01*
X69389732Y-122736961D01*
X69625208Y-123306857D01*
X70060849Y-123743260D01*
X70630333Y-123979730D01*
X71246961Y-123980268D01*
X71816857Y-123744792D01*
X72253260Y-123309151D01*
X72489730Y-122739667D01*
X72489782Y-122680000D01*
X72519634Y-122680000D01*
X72637621Y-123273159D01*
X72973618Y-123776016D01*
X73476475Y-124112013D01*
X74069634Y-124230000D01*
X74130366Y-124230000D01*
X74723525Y-124112013D01*
X75226382Y-123776016D01*
X75562379Y-123273159D01*
X75619307Y-122986961D01*
X80169732Y-122986961D01*
X80405208Y-123556857D01*
X80840849Y-123993260D01*
X81410333Y-124229730D01*
X82026961Y-124230268D01*
X82291049Y-124121149D01*
X93128408Y-124121149D01*
X93218216Y-124572639D01*
X93493039Y-124766301D01*
X94359340Y-123900000D01*
X96480660Y-123900000D01*
X97346961Y-124766301D01*
X97621784Y-124572639D01*
X97711592Y-123678851D01*
X97621784Y-123227361D01*
X97346961Y-123033699D01*
X96480660Y-123900000D01*
X94359340Y-123900000D01*
X93493039Y-123033699D01*
X93218216Y-123227361D01*
X93128408Y-124121149D01*
X82291049Y-124121149D01*
X82596857Y-123994792D01*
X83033260Y-123559151D01*
X83269730Y-122989667D01*
X83270268Y-122373039D01*
X83104992Y-121973039D01*
X94553699Y-121973039D01*
X95420000Y-122839340D01*
X95859340Y-122400000D01*
X98235307Y-122400000D01*
X98235307Y-125400000D01*
X98287604Y-125677933D01*
X98451862Y-125933198D01*
X98702492Y-126104446D01*
X99000000Y-126164693D01*
X102000000Y-126164693D01*
X102277933Y-126112396D01*
X102533198Y-125948138D01*
X102704446Y-125697508D01*
X102764693Y-125400000D01*
X102764693Y-124915822D01*
X108213010Y-124915822D01*
X108674668Y-125445041D01*
X109328546Y-125842226D01*
X109625000Y-125735084D01*
X109625000Y-124625000D01*
X111375000Y-124625000D01*
X111375000Y-125735084D01*
X111671454Y-125842226D01*
X112325332Y-125445041D01*
X112786990Y-124915822D01*
X112707723Y-124625000D01*
X111375000Y-124625000D01*
X109625000Y-124625000D01*
X108292277Y-124625000D01*
X108213010Y-124915822D01*
X102764693Y-124915822D01*
X102764693Y-123084178D01*
X108213010Y-123084178D01*
X108292277Y-123375000D01*
X109625000Y-123375000D01*
X109625000Y-122264916D01*
X111375000Y-122264916D01*
X111375000Y-123375000D01*
X112707723Y-123375000D01*
X112786990Y-123084178D01*
X112325332Y-122554959D01*
X111671454Y-122157774D01*
X111375000Y-122264916D01*
X109625000Y-122264916D01*
X109328546Y-122157774D01*
X108674668Y-122554959D01*
X108213010Y-123084178D01*
X102764693Y-123084178D01*
X102764693Y-122400000D01*
X102712396Y-122122067D01*
X102548138Y-121866802D01*
X102297508Y-121695554D01*
X102000000Y-121635307D01*
X99000000Y-121635307D01*
X98722067Y-121687604D01*
X98466802Y-121851862D01*
X98295554Y-122102492D01*
X98235307Y-122400000D01*
X95859340Y-122400000D01*
X96286301Y-121973039D01*
X96092639Y-121698216D01*
X95198851Y-121608408D01*
X94747361Y-121698216D01*
X94553699Y-121973039D01*
X83104992Y-121973039D01*
X83034792Y-121803143D01*
X82599151Y-121366740D01*
X82029667Y-121130270D01*
X81413039Y-121129732D01*
X80843143Y-121365208D01*
X80406740Y-121800849D01*
X80170270Y-122370333D01*
X80169732Y-122986961D01*
X75619307Y-122986961D01*
X75680366Y-122680000D01*
X75562379Y-122086841D01*
X75226382Y-121583984D01*
X74723525Y-121247987D01*
X74130366Y-121130000D01*
X74069634Y-121130000D01*
X73476475Y-121247987D01*
X72973618Y-121583984D01*
X72637621Y-122086841D01*
X72519634Y-122680000D01*
X72489782Y-122680000D01*
X72490268Y-122123039D01*
X72254792Y-121553143D01*
X71819151Y-121116740D01*
X71249667Y-120880270D01*
X70633039Y-120879732D01*
X70063143Y-121115208D01*
X69626740Y-121550849D01*
X69390270Y-122120333D01*
X69389732Y-122736961D01*
X67467807Y-122736961D01*
X67528239Y-122399936D01*
X67418846Y-121849983D01*
X67170805Y-121764881D01*
X66505685Y-122430000D01*
X65374315Y-122430000D01*
X64709195Y-121764881D01*
X64461154Y-121849983D01*
X64351761Y-122460064D01*
X30825000Y-122460064D01*
X30825000Y-121199195D01*
X65274881Y-121199195D01*
X65940000Y-121864315D01*
X66605119Y-121199195D01*
X66520017Y-120951154D01*
X65909936Y-120841761D01*
X65359983Y-120951154D01*
X65274881Y-121199195D01*
X30825000Y-121199195D01*
X30825000Y-116907942D01*
X40449818Y-116907942D01*
X40609334Y-117294000D01*
X40904446Y-117589628D01*
X41290226Y-117749818D01*
X41441802Y-117749950D01*
X42985042Y-119293190D01*
X43109334Y-119594000D01*
X43404446Y-119889628D01*
X43790226Y-120049818D01*
X44207942Y-120050182D01*
X44594000Y-119890666D01*
X44889628Y-119595554D01*
X45049818Y-119209774D01*
X45050182Y-118792058D01*
X44909269Y-118451022D01*
X108500000Y-118451022D01*
X108500000Y-119548978D01*
X108652241Y-120314345D01*
X109085786Y-120963192D01*
X109734633Y-121396737D01*
X110500000Y-121548978D01*
X111265367Y-121396737D01*
X111914214Y-120963192D01*
X112347759Y-120314345D01*
X112500000Y-119548978D01*
X112500000Y-118451022D01*
X112453195Y-118215715D01*
X125250000Y-118215715D01*
X125250000Y-118284285D01*
X125383211Y-118953981D01*
X125762563Y-119521722D01*
X126330304Y-119901074D01*
X127000000Y-120034285D01*
X127669696Y-119901074D01*
X128237437Y-119521722D01*
X128616789Y-118953981D01*
X128750000Y-118284285D01*
X128750000Y-118215715D01*
X128616789Y-117546019D01*
X128237437Y-116978278D01*
X127669696Y-116598926D01*
X127000000Y-116465715D01*
X126330304Y-116598926D01*
X125762563Y-116978278D01*
X125383211Y-117546019D01*
X125250000Y-118215715D01*
X112453195Y-118215715D01*
X112347759Y-117685655D01*
X111914214Y-117036808D01*
X111265367Y-116603263D01*
X110500000Y-116451022D01*
X109734633Y-116603263D01*
X109085786Y-117036808D01*
X108652241Y-117685655D01*
X108500000Y-118451022D01*
X44909269Y-118451022D01*
X44890666Y-118406000D01*
X44595554Y-118110372D01*
X44292809Y-117984661D01*
X42595109Y-116286961D01*
X68629732Y-116286961D01*
X68865208Y-116856857D01*
X69300849Y-117293260D01*
X69870333Y-117529730D01*
X70486961Y-117530268D01*
X71056857Y-117294792D01*
X71493260Y-116859151D01*
X71729730Y-116289667D01*
X71730000Y-115980000D01*
X76219634Y-115980000D01*
X76337621Y-116573159D01*
X76673618Y-117076016D01*
X77176475Y-117412013D01*
X77769634Y-117530000D01*
X77830366Y-117530000D01*
X78423525Y-117412013D01*
X78926382Y-117076016D01*
X78952477Y-117036961D01*
X96849732Y-117036961D01*
X97085208Y-117606857D01*
X97520849Y-118043260D01*
X98090333Y-118279730D01*
X98706961Y-118280268D01*
X99276857Y-118044792D01*
X99713260Y-117609151D01*
X99949730Y-117039667D01*
X99949732Y-117036961D01*
X101849732Y-117036961D01*
X102085208Y-117606857D01*
X102520849Y-118043260D01*
X103090333Y-118279730D01*
X103706961Y-118280268D01*
X104276857Y-118044792D01*
X104713260Y-117609151D01*
X104949730Y-117039667D01*
X104950268Y-116423039D01*
X104714792Y-115853143D01*
X104279151Y-115416740D01*
X103709667Y-115180270D01*
X103093039Y-115179732D01*
X102523143Y-115415208D01*
X102086740Y-115850849D01*
X101850270Y-116420333D01*
X101849732Y-117036961D01*
X99949732Y-117036961D01*
X99950268Y-116423039D01*
X99714792Y-115853143D01*
X99279151Y-115416740D01*
X98709667Y-115180270D01*
X98093039Y-115179732D01*
X97523143Y-115415208D01*
X97086740Y-115850849D01*
X96850270Y-116420333D01*
X96849732Y-117036961D01*
X78952477Y-117036961D01*
X79262379Y-116573159D01*
X79380366Y-115980000D01*
X79341969Y-115786961D01*
X85129732Y-115786961D01*
X85365208Y-116356857D01*
X85800849Y-116793260D01*
X86370333Y-117029730D01*
X86986961Y-117030268D01*
X87556857Y-116794792D01*
X87993260Y-116359151D01*
X88229730Y-115789667D01*
X88230000Y-115480000D01*
X92719634Y-115480000D01*
X92837621Y-116073159D01*
X93173618Y-116576016D01*
X93676475Y-116912013D01*
X94269634Y-117030000D01*
X94330366Y-117030000D01*
X94923525Y-116912013D01*
X95426382Y-116576016D01*
X95762379Y-116073159D01*
X95880366Y-115480000D01*
X95762379Y-114886841D01*
X95426382Y-114383984D01*
X95073119Y-114147942D01*
X112249818Y-114147942D01*
X112409334Y-114534000D01*
X112704446Y-114829628D01*
X113090226Y-114989818D01*
X113507942Y-114990182D01*
X113810905Y-114865000D01*
X113866852Y-114865000D01*
X114155041Y-115153189D01*
X114279334Y-115454000D01*
X114574446Y-115749628D01*
X114960226Y-115909818D01*
X115377942Y-115910182D01*
X115764000Y-115750666D01*
X116059628Y-115455554D01*
X116219818Y-115069774D01*
X116220149Y-114690299D01*
X116536808Y-115164214D01*
X117185655Y-115597759D01*
X117951022Y-115750000D01*
X119048978Y-115750000D01*
X119814345Y-115597759D01*
X120463192Y-115164214D01*
X120625398Y-114921454D01*
X121657774Y-114921454D01*
X122054959Y-115575332D01*
X122584178Y-116036990D01*
X122875000Y-115957723D01*
X122875000Y-114625000D01*
X124125000Y-114625000D01*
X124125000Y-115957723D01*
X124415822Y-116036990D01*
X124945041Y-115575332D01*
X125342226Y-114921454D01*
X125235084Y-114625000D01*
X124125000Y-114625000D01*
X122875000Y-114625000D01*
X121764916Y-114625000D01*
X121657774Y-114921454D01*
X120625398Y-114921454D01*
X120896737Y-114515367D01*
X121048978Y-113750000D01*
X120896737Y-112984633D01*
X120625399Y-112578546D01*
X121657774Y-112578546D01*
X121764916Y-112875000D01*
X122875000Y-112875000D01*
X122875000Y-111542277D01*
X124125000Y-111542277D01*
X124125000Y-112875000D01*
X125235084Y-112875000D01*
X125342226Y-112578546D01*
X124945041Y-111924668D01*
X124415822Y-111463010D01*
X124125000Y-111542277D01*
X122875000Y-111542277D01*
X122584178Y-111463010D01*
X122054959Y-111924668D01*
X121657774Y-112578546D01*
X120625399Y-112578546D01*
X120463192Y-112335786D01*
X119814345Y-111902241D01*
X119048978Y-111750000D01*
X117951022Y-111750000D01*
X117185655Y-111902241D01*
X116536808Y-112335786D01*
X116103263Y-112984633D01*
X115951022Y-113750000D01*
X116051918Y-114257236D01*
X115765554Y-113970372D01*
X115462808Y-113844661D01*
X114904074Y-113285926D01*
X114603983Y-113085411D01*
X114250000Y-113015000D01*
X113810369Y-113015000D01*
X113509774Y-112890182D01*
X113092058Y-112889818D01*
X112706000Y-113049334D01*
X112410372Y-113344446D01*
X112250182Y-113730226D01*
X112249818Y-114147942D01*
X95073119Y-114147942D01*
X94923525Y-114047987D01*
X94330366Y-113930000D01*
X94269634Y-113930000D01*
X93676475Y-114047987D01*
X93173618Y-114383984D01*
X92837621Y-114886841D01*
X92719634Y-115480000D01*
X88230000Y-115480000D01*
X88230268Y-115173039D01*
X87994792Y-114603143D01*
X87559151Y-114166740D01*
X86989667Y-113930270D01*
X86373039Y-113929732D01*
X85803143Y-114165208D01*
X85366740Y-114600849D01*
X85130270Y-115170333D01*
X85129732Y-115786961D01*
X79341969Y-115786961D01*
X79262379Y-115386841D01*
X78926382Y-114883984D01*
X78423525Y-114547987D01*
X77830366Y-114430000D01*
X77769634Y-114430000D01*
X77176475Y-114547987D01*
X76673618Y-114883984D01*
X76337621Y-115386841D01*
X76219634Y-115980000D01*
X71730000Y-115980000D01*
X71730268Y-115673039D01*
X71494792Y-115103143D01*
X71059151Y-114666740D01*
X70489667Y-114430270D01*
X69873039Y-114429732D01*
X69303143Y-114665208D01*
X68866740Y-115100849D01*
X68630270Y-115670333D01*
X68629732Y-116286961D01*
X42595109Y-116286961D01*
X42354074Y-116045926D01*
X42283869Y-115999017D01*
X42095554Y-115810372D01*
X41709774Y-115650182D01*
X41292058Y-115649818D01*
X40906000Y-115809334D01*
X40610372Y-116104446D01*
X40450182Y-116490226D01*
X40449818Y-116907942D01*
X30825000Y-116907942D01*
X30825000Y-110965715D01*
X30950000Y-110965715D01*
X30950000Y-111034285D01*
X31083211Y-111703981D01*
X31462563Y-112271722D01*
X32030304Y-112651074D01*
X32700000Y-112784285D01*
X33369696Y-112651074D01*
X33937437Y-112271722D01*
X33953981Y-112246961D01*
X76139732Y-112246961D01*
X76375208Y-112816857D01*
X76810849Y-113253260D01*
X77380333Y-113489730D01*
X77996961Y-113490268D01*
X78566857Y-113254792D01*
X79003260Y-112819151D01*
X79239730Y-112249667D01*
X79240000Y-111940000D01*
X83729634Y-111940000D01*
X83847621Y-112533159D01*
X84183618Y-113036016D01*
X84686475Y-113372013D01*
X85279634Y-113490000D01*
X85340366Y-113490000D01*
X85933525Y-113372013D01*
X86436382Y-113036016D01*
X86772379Y-112533159D01*
X86890366Y-111940000D01*
X86772379Y-111346841D01*
X86436382Y-110843984D01*
X85933525Y-110507987D01*
X85340366Y-110390000D01*
X85279634Y-110390000D01*
X84686475Y-110507987D01*
X84183618Y-110843984D01*
X83847621Y-111346841D01*
X83729634Y-111940000D01*
X79240000Y-111940000D01*
X79240268Y-111633039D01*
X79004792Y-111063143D01*
X78569151Y-110626740D01*
X77999667Y-110390270D01*
X77383039Y-110389732D01*
X76813143Y-110625208D01*
X76376740Y-111060849D01*
X76140270Y-111630333D01*
X76139732Y-112246961D01*
X33953981Y-112246961D01*
X34316789Y-111703981D01*
X34450000Y-111034285D01*
X34450000Y-110965715D01*
X34316789Y-110296019D01*
X33937437Y-109728278D01*
X33369696Y-109348926D01*
X32700000Y-109215715D01*
X32030304Y-109348926D01*
X31462563Y-109728278D01*
X31083211Y-110296019D01*
X30950000Y-110965715D01*
X30825000Y-110965715D01*
X30825000Y-107671454D01*
X34357774Y-107671454D01*
X34754959Y-108325332D01*
X35284178Y-108786990D01*
X35575000Y-108707723D01*
X35575000Y-107375000D01*
X36825000Y-107375000D01*
X36825000Y-108707723D01*
X37115822Y-108786990D01*
X37645041Y-108325332D01*
X38042226Y-107671454D01*
X37935084Y-107375000D01*
X36825000Y-107375000D01*
X35575000Y-107375000D01*
X34464916Y-107375000D01*
X34357774Y-107671454D01*
X30825000Y-107671454D01*
X30825000Y-106500000D01*
X38651022Y-106500000D01*
X38803263Y-107265367D01*
X39236808Y-107914214D01*
X39885655Y-108347759D01*
X40651022Y-108500000D01*
X41748978Y-108500000D01*
X42065896Y-108436961D01*
X85849732Y-108436961D01*
X86085208Y-109006857D01*
X86520849Y-109443260D01*
X87090333Y-109679730D01*
X87706961Y-109680268D01*
X88276857Y-109444792D01*
X88713260Y-109009151D01*
X88949730Y-108439667D01*
X88950000Y-108130000D01*
X93439634Y-108130000D01*
X93557621Y-108723159D01*
X93893618Y-109226016D01*
X94396475Y-109562013D01*
X94989634Y-109680000D01*
X95050366Y-109680000D01*
X95643525Y-109562013D01*
X96146382Y-109226016D01*
X96153264Y-109215715D01*
X125250000Y-109215715D01*
X125250000Y-109284285D01*
X125383211Y-109953981D01*
X125762563Y-110521722D01*
X126330304Y-110901074D01*
X127000000Y-111034285D01*
X127669696Y-110901074D01*
X128237437Y-110521722D01*
X128616789Y-109953981D01*
X128750000Y-109284285D01*
X128750000Y-109215715D01*
X128616789Y-108546019D01*
X128237437Y-107978278D01*
X127669696Y-107598926D01*
X127000000Y-107465715D01*
X126330304Y-107598926D01*
X125762563Y-107978278D01*
X125383211Y-108546019D01*
X125250000Y-109215715D01*
X96153264Y-109215715D01*
X96482379Y-108723159D01*
X96600366Y-108130000D01*
X96482379Y-107536841D01*
X96146382Y-107033984D01*
X95956278Y-106906961D01*
X122033699Y-106906961D01*
X122227361Y-107181784D01*
X123121149Y-107271592D01*
X123572639Y-107181784D01*
X123766301Y-106906961D01*
X122900000Y-106040660D01*
X122033699Y-106906961D01*
X95956278Y-106906961D01*
X95643525Y-106697987D01*
X95050366Y-106580000D01*
X94989634Y-106580000D01*
X94396475Y-106697987D01*
X93893618Y-107033984D01*
X93557621Y-107536841D01*
X93439634Y-108130000D01*
X88950000Y-108130000D01*
X88950268Y-107823039D01*
X88714792Y-107253143D01*
X88279151Y-106816740D01*
X87709667Y-106580270D01*
X87093039Y-106579732D01*
X86523143Y-106815208D01*
X86086740Y-107250849D01*
X85850270Y-107820333D01*
X85849732Y-108436961D01*
X42065896Y-108436961D01*
X42514345Y-108347759D01*
X43163192Y-107914214D01*
X43596737Y-107265367D01*
X43748978Y-106500000D01*
X43596737Y-105734633D01*
X43177341Y-105106961D01*
X81119732Y-105106961D01*
X81355208Y-105676857D01*
X81790849Y-106113260D01*
X82360333Y-106349730D01*
X82976961Y-106350268D01*
X83546857Y-106114792D01*
X83983260Y-105679151D01*
X84219730Y-105109667D01*
X84220000Y-104800000D01*
X88709634Y-104800000D01*
X88827621Y-105393159D01*
X89163618Y-105896016D01*
X89666475Y-106232013D01*
X90259634Y-106350000D01*
X90320366Y-106350000D01*
X90913525Y-106232013D01*
X91416382Y-105896016D01*
X91752379Y-105393159D01*
X91790572Y-105201149D01*
X120608408Y-105201149D01*
X120698216Y-105652639D01*
X120973039Y-105846301D01*
X121839340Y-104980000D01*
X123960660Y-104980000D01*
X124826961Y-105846301D01*
X125101784Y-105652639D01*
X125191592Y-104758851D01*
X125101784Y-104307361D01*
X124826961Y-104113699D01*
X123960660Y-104980000D01*
X121839340Y-104980000D01*
X120973039Y-104113699D01*
X120698216Y-104307361D01*
X120608408Y-105201149D01*
X91790572Y-105201149D01*
X91870366Y-104800000D01*
X91752379Y-104206841D01*
X91416382Y-103703984D01*
X90913525Y-103367987D01*
X90320366Y-103250000D01*
X90259634Y-103250000D01*
X89666475Y-103367987D01*
X89163618Y-103703984D01*
X88827621Y-104206841D01*
X88709634Y-104800000D01*
X84220000Y-104800000D01*
X84220268Y-104493039D01*
X83984792Y-103923143D01*
X83549151Y-103486740D01*
X82979667Y-103250270D01*
X82363039Y-103249732D01*
X81793143Y-103485208D01*
X81356740Y-103920849D01*
X81120270Y-104490333D01*
X81119732Y-105106961D01*
X43177341Y-105106961D01*
X43163192Y-105085786D01*
X42514345Y-104652241D01*
X41748978Y-104500000D01*
X40651022Y-104500000D01*
X39885655Y-104652241D01*
X39236808Y-105085786D01*
X38803263Y-105734633D01*
X38651022Y-106500000D01*
X30825000Y-106500000D01*
X30825000Y-105328546D01*
X34357774Y-105328546D01*
X34464916Y-105625000D01*
X35575000Y-105625000D01*
X35575000Y-104292277D01*
X36825000Y-104292277D01*
X36825000Y-105625000D01*
X37935084Y-105625000D01*
X38042226Y-105328546D01*
X37645041Y-104674668D01*
X37115822Y-104213010D01*
X36825000Y-104292277D01*
X35575000Y-104292277D01*
X35284178Y-104213010D01*
X34754959Y-104674668D01*
X34357774Y-105328546D01*
X30825000Y-105328546D01*
X30825000Y-101965715D01*
X30950000Y-101965715D01*
X30950000Y-102034285D01*
X31083211Y-102703981D01*
X31462563Y-103271722D01*
X32030304Y-103651074D01*
X32700000Y-103784285D01*
X33369696Y-103651074D01*
X33937437Y-103271722D01*
X34316789Y-102703981D01*
X34450000Y-102034285D01*
X34450000Y-101965715D01*
X34426379Y-101846961D01*
X91069732Y-101846961D01*
X91305208Y-102416857D01*
X91740849Y-102853260D01*
X92310333Y-103089730D01*
X92926961Y-103090268D01*
X93017062Y-103053039D01*
X122033699Y-103053039D01*
X122900000Y-103919340D01*
X123766301Y-103053039D01*
X123572639Y-102778216D01*
X122678851Y-102688408D01*
X122227361Y-102778216D01*
X122033699Y-103053039D01*
X93017062Y-103053039D01*
X93496857Y-102854792D01*
X93933260Y-102419151D01*
X94169730Y-101849667D01*
X94170268Y-101233039D01*
X94097515Y-101056961D01*
X95209732Y-101056961D01*
X95445208Y-101626857D01*
X95880849Y-102063260D01*
X96450333Y-102299730D01*
X97066961Y-102300268D01*
X97636857Y-102064792D01*
X98073260Y-101629151D01*
X98309730Y-101059667D01*
X98309732Y-101056961D01*
X100209732Y-101056961D01*
X100445208Y-101626857D01*
X100880849Y-102063260D01*
X101450333Y-102299730D01*
X102066961Y-102300268D01*
X102636857Y-102064792D01*
X103073260Y-101629151D01*
X103309730Y-101059667D01*
X103310268Y-100443039D01*
X103074792Y-99873143D01*
X102639151Y-99436740D01*
X102069667Y-99200270D01*
X101453039Y-99199732D01*
X100883143Y-99435208D01*
X100446740Y-99870849D01*
X100210270Y-100440333D01*
X100209732Y-101056961D01*
X98309732Y-101056961D01*
X98310268Y-100443039D01*
X98074792Y-99873143D01*
X97639151Y-99436740D01*
X97069667Y-99200270D01*
X96453039Y-99199732D01*
X95883143Y-99435208D01*
X95446740Y-99870849D01*
X95210270Y-100440333D01*
X95209732Y-101056961D01*
X94097515Y-101056961D01*
X93934792Y-100663143D01*
X93499151Y-100226740D01*
X92929667Y-99990270D01*
X92313039Y-99989732D01*
X91743143Y-100225208D01*
X91306740Y-100660849D01*
X91070270Y-101230333D01*
X91069732Y-101846961D01*
X34426379Y-101846961D01*
X34316789Y-101296019D01*
X33937437Y-100728278D01*
X33533382Y-100458297D01*
X33569696Y-100451074D01*
X34137437Y-100071722D01*
X34516789Y-99503981D01*
X34650000Y-98834285D01*
X34650000Y-98765715D01*
X34544825Y-98236961D01*
X87329732Y-98236961D01*
X87565208Y-98806857D01*
X88000849Y-99243260D01*
X88570333Y-99479730D01*
X89186961Y-99480268D01*
X89756857Y-99244792D01*
X90193260Y-98809151D01*
X90363154Y-98400000D01*
X120635307Y-98400000D01*
X120635307Y-101400000D01*
X120687604Y-101677933D01*
X120851862Y-101933198D01*
X121102492Y-102104446D01*
X121400000Y-102164693D01*
X124400000Y-102164693D01*
X124677933Y-102112396D01*
X124933198Y-101948138D01*
X125104446Y-101697508D01*
X125164693Y-101400000D01*
X125164693Y-98400000D01*
X125112396Y-98122067D01*
X124948138Y-97866802D01*
X124697508Y-97695554D01*
X124400000Y-97635307D01*
X121400000Y-97635307D01*
X121122067Y-97687604D01*
X120866802Y-97851862D01*
X120695554Y-98102492D01*
X120635307Y-98400000D01*
X90363154Y-98400000D01*
X90429730Y-98239667D01*
X90430268Y-97623039D01*
X90194792Y-97053143D01*
X89759151Y-96616740D01*
X89189667Y-96380270D01*
X88573039Y-96379732D01*
X88003143Y-96615208D01*
X87566740Y-97050849D01*
X87330270Y-97620333D01*
X87329732Y-98236961D01*
X34544825Y-98236961D01*
X34516789Y-98096019D01*
X34137437Y-97528278D01*
X33569696Y-97148926D01*
X32900000Y-97015715D01*
X32230304Y-97148926D01*
X31662563Y-97528278D01*
X31283211Y-98096019D01*
X31150000Y-98765715D01*
X31150000Y-98834285D01*
X31283211Y-99503981D01*
X31662563Y-100071722D01*
X32066618Y-100341703D01*
X32030304Y-100348926D01*
X31462563Y-100728278D01*
X31083211Y-101296019D01*
X30950000Y-101965715D01*
X30825000Y-101965715D01*
X30825000Y-95471454D01*
X34557774Y-95471454D01*
X34954959Y-96125332D01*
X35484178Y-96586990D01*
X35775000Y-96507723D01*
X35775000Y-95175000D01*
X37025000Y-95175000D01*
X37025000Y-96507723D01*
X37315822Y-96586990D01*
X37845041Y-96125332D01*
X38242226Y-95471454D01*
X38135084Y-95175000D01*
X37025000Y-95175000D01*
X35775000Y-95175000D01*
X34664916Y-95175000D01*
X34557774Y-95471454D01*
X30825000Y-95471454D01*
X30825000Y-94300000D01*
X38851022Y-94300000D01*
X39003263Y-95065367D01*
X39436808Y-95714214D01*
X40085655Y-96147759D01*
X40851022Y-96300000D01*
X41948978Y-96300000D01*
X42714345Y-96147759D01*
X43363192Y-95714214D01*
X43796737Y-95065367D01*
X43948978Y-94300000D01*
X43921291Y-94160805D01*
X88214881Y-94160805D01*
X88299983Y-94408846D01*
X88910064Y-94518239D01*
X89460017Y-94408846D01*
X89545119Y-94160805D01*
X89273949Y-93889634D01*
X91070000Y-93889634D01*
X91070000Y-93950366D01*
X91187987Y-94543525D01*
X91523984Y-95046382D01*
X92026841Y-95382379D01*
X92620000Y-95500366D01*
X93213159Y-95382379D01*
X93387759Y-95265715D01*
X124550000Y-95265715D01*
X124550000Y-95334285D01*
X124683211Y-96003981D01*
X125062563Y-96571722D01*
X125630304Y-96951074D01*
X126300000Y-97084285D01*
X126969696Y-96951074D01*
X127537437Y-96571722D01*
X127916789Y-96003981D01*
X128050000Y-95334285D01*
X128050000Y-95265715D01*
X127916789Y-94596019D01*
X127537437Y-94028278D01*
X126969696Y-93648926D01*
X126300000Y-93515715D01*
X125630304Y-93648926D01*
X125062563Y-94028278D01*
X124683211Y-94596019D01*
X124550000Y-95265715D01*
X93387759Y-95265715D01*
X93716016Y-95046382D01*
X94052013Y-94543525D01*
X94170000Y-93950366D01*
X94170000Y-93889634D01*
X94052013Y-93296475D01*
X93716016Y-92793618D01*
X93213159Y-92457621D01*
X92620000Y-92339634D01*
X92026841Y-92457621D01*
X91523984Y-92793618D01*
X91187987Y-93296475D01*
X91070000Y-93889634D01*
X89273949Y-93889634D01*
X88880000Y-93495685D01*
X88214881Y-94160805D01*
X43921291Y-94160805D01*
X43796737Y-93534633D01*
X43412823Y-92960064D01*
X87291761Y-92960064D01*
X87401154Y-93510017D01*
X87649195Y-93595119D01*
X88314315Y-92930000D01*
X89445685Y-92930000D01*
X90110805Y-93595119D01*
X90358846Y-93510017D01*
X90468239Y-92899936D01*
X90358846Y-92349983D01*
X90110805Y-92264881D01*
X89445685Y-92930000D01*
X88314315Y-92930000D01*
X87649195Y-92264881D01*
X87401154Y-92349983D01*
X87291761Y-92960064D01*
X43412823Y-92960064D01*
X43363192Y-92885786D01*
X42714345Y-92452241D01*
X41948978Y-92300000D01*
X40851022Y-92300000D01*
X40085655Y-92452241D01*
X39436808Y-92885786D01*
X39003263Y-93534633D01*
X38851022Y-94300000D01*
X30825000Y-94300000D01*
X30825000Y-93128546D01*
X34557774Y-93128546D01*
X34664916Y-93425000D01*
X35775000Y-93425000D01*
X35775000Y-92092277D01*
X37025000Y-92092277D01*
X37025000Y-93425000D01*
X38135084Y-93425000D01*
X38242226Y-93128546D01*
X37845041Y-92474668D01*
X37315822Y-92013010D01*
X37025000Y-92092277D01*
X35775000Y-92092277D01*
X35484178Y-92013010D01*
X34954959Y-92474668D01*
X34557774Y-93128546D01*
X30825000Y-93128546D01*
X30825000Y-91699195D01*
X88214881Y-91699195D01*
X88880000Y-92364315D01*
X89545119Y-91699195D01*
X89460017Y-91451154D01*
X88849936Y-91341761D01*
X88299983Y-91451154D01*
X88214881Y-91699195D01*
X30825000Y-91699195D01*
X30825000Y-89765715D01*
X31150000Y-89765715D01*
X31150000Y-89834285D01*
X31283211Y-90503981D01*
X31662563Y-91071722D01*
X32230304Y-91451074D01*
X32900000Y-91584285D01*
X33569696Y-91451074D01*
X34137437Y-91071722D01*
X34318995Y-90800000D01*
X115251022Y-90800000D01*
X115403263Y-91565367D01*
X115836808Y-92214214D01*
X116485655Y-92647759D01*
X117251022Y-92800000D01*
X118348978Y-92800000D01*
X119114345Y-92647759D01*
X119763192Y-92214214D01*
X119925398Y-91971454D01*
X120957774Y-91971454D01*
X121354959Y-92625332D01*
X121884178Y-93086990D01*
X122175000Y-93007723D01*
X122175000Y-91675000D01*
X123425000Y-91675000D01*
X123425000Y-93007723D01*
X123715822Y-93086990D01*
X124245041Y-92625332D01*
X124642226Y-91971454D01*
X124535084Y-91675000D01*
X123425000Y-91675000D01*
X122175000Y-91675000D01*
X121064916Y-91675000D01*
X120957774Y-91971454D01*
X119925398Y-91971454D01*
X120196737Y-91565367D01*
X120348978Y-90800000D01*
X120196737Y-90034633D01*
X119925399Y-89628546D01*
X120957774Y-89628546D01*
X121064916Y-89925000D01*
X122175000Y-89925000D01*
X122175000Y-88592277D01*
X123425000Y-88592277D01*
X123425000Y-89925000D01*
X124535084Y-89925000D01*
X124642226Y-89628546D01*
X124245041Y-88974668D01*
X123715822Y-88513010D01*
X123425000Y-88592277D01*
X122175000Y-88592277D01*
X121884178Y-88513010D01*
X121354959Y-88974668D01*
X120957774Y-89628546D01*
X119925399Y-89628546D01*
X119763192Y-89385786D01*
X119114345Y-88952241D01*
X118348978Y-88800000D01*
X117251022Y-88800000D01*
X116485655Y-88952241D01*
X115836808Y-89385786D01*
X115403263Y-90034633D01*
X115251022Y-90800000D01*
X34318995Y-90800000D01*
X34516789Y-90503981D01*
X34650000Y-89834285D01*
X34650000Y-89765715D01*
X34516789Y-89096019D01*
X34137437Y-88528278D01*
X33569696Y-88148926D01*
X32900000Y-88015715D01*
X32230304Y-88148926D01*
X31662563Y-88528278D01*
X31283211Y-89096019D01*
X31150000Y-89765715D01*
X30825000Y-89765715D01*
X30825000Y-84100000D01*
X34135307Y-84100000D01*
X34135307Y-87100000D01*
X34187604Y-87377933D01*
X34351862Y-87633198D01*
X34602492Y-87804446D01*
X34900000Y-87864693D01*
X37900000Y-87864693D01*
X38177933Y-87812396D01*
X38433198Y-87648138D01*
X38604446Y-87397508D01*
X38664693Y-87100000D01*
X38664693Y-85682369D01*
X48654759Y-85682369D01*
X48947311Y-86120255D01*
X49457626Y-86485272D01*
X49695000Y-86381350D01*
X49695000Y-85445000D01*
X50545000Y-85445000D01*
X50545000Y-86381350D01*
X50782374Y-86485272D01*
X51089327Y-86265715D01*
X124550000Y-86265715D01*
X124550000Y-86334285D01*
X124683211Y-87003981D01*
X125062563Y-87571722D01*
X125630304Y-87951074D01*
X126300000Y-88084285D01*
X126969696Y-87951074D01*
X127537437Y-87571722D01*
X127916789Y-87003981D01*
X128050000Y-86334285D01*
X128050000Y-86265715D01*
X127916789Y-85596019D01*
X127537437Y-85028278D01*
X126969696Y-84648926D01*
X126300000Y-84515715D01*
X125630304Y-84648926D01*
X125062563Y-85028278D01*
X124683211Y-85596019D01*
X124550000Y-86265715D01*
X51089327Y-86265715D01*
X51292689Y-86120255D01*
X51585241Y-85682369D01*
X51473336Y-85445000D01*
X50545000Y-85445000D01*
X49695000Y-85445000D01*
X48766664Y-85445000D01*
X48654759Y-85682369D01*
X38664693Y-85682369D01*
X38664693Y-84100000D01*
X38612396Y-83822067D01*
X38448138Y-83566802D01*
X38197508Y-83395554D01*
X37900000Y-83335307D01*
X34900000Y-83335307D01*
X34622067Y-83387604D01*
X34366802Y-83551862D01*
X34195554Y-83802492D01*
X34135307Y-84100000D01*
X30825000Y-84100000D01*
X30825000Y-82446961D01*
X35533699Y-82446961D01*
X35727361Y-82721784D01*
X36621149Y-82811592D01*
X37072639Y-82721784D01*
X37266301Y-82446961D01*
X36449340Y-81630000D01*
X48505307Y-81630000D01*
X48505307Y-83330000D01*
X48557604Y-83607933D01*
X48721862Y-83863198D01*
X48869998Y-83964415D01*
X48869998Y-84035466D01*
X48654759Y-84357631D01*
X48766664Y-84595000D01*
X49695000Y-84595000D01*
X49695000Y-84170000D01*
X50545000Y-84170000D01*
X50545000Y-84595000D01*
X51473336Y-84595000D01*
X51585241Y-84357631D01*
X51556426Y-84314500D01*
X96992000Y-84314500D01*
X96992000Y-84700775D01*
X97107398Y-84979372D01*
X97320627Y-85192601D01*
X97599224Y-85308000D01*
X97985500Y-85308000D01*
X98175000Y-85118500D01*
X98175000Y-84125000D01*
X99025000Y-84125000D01*
X99025000Y-85118500D01*
X99214500Y-85308000D01*
X99600776Y-85308000D01*
X99879373Y-85192601D01*
X100092602Y-84979372D01*
X100208000Y-84700775D01*
X100208000Y-84314500D01*
X100018500Y-84125000D01*
X99025000Y-84125000D01*
X98175000Y-84125000D01*
X97181500Y-84125000D01*
X96992000Y-84314500D01*
X51556426Y-84314500D01*
X51370002Y-84035466D01*
X51370002Y-83963846D01*
X51503198Y-83878138D01*
X51674446Y-83627508D01*
X51734693Y-83330000D01*
X51734693Y-81630000D01*
X51682396Y-81352067D01*
X51558805Y-81160000D01*
X96968654Y-81160000D01*
X97090447Y-81772293D01*
X97349998Y-82160739D01*
X97349998Y-82195233D01*
X97320627Y-82207399D01*
X97107398Y-82420628D01*
X96992000Y-82699225D01*
X96992000Y-83085500D01*
X97181500Y-83275000D01*
X98175000Y-83275000D01*
X98175000Y-82850000D01*
X99025000Y-82850000D01*
X99025000Y-83275000D01*
X100018500Y-83275000D01*
X100208000Y-83085500D01*
X100208000Y-82699225D01*
X100152699Y-82565715D01*
X124650000Y-82565715D01*
X124650000Y-82634285D01*
X124783211Y-83303981D01*
X125162563Y-83871722D01*
X125730304Y-84251074D01*
X126400000Y-84384285D01*
X127069696Y-84251074D01*
X127637437Y-83871722D01*
X128016789Y-83303981D01*
X128150000Y-82634285D01*
X128150000Y-82565715D01*
X128016789Y-81896019D01*
X127637437Y-81328278D01*
X127069696Y-80948926D01*
X126400000Y-80815715D01*
X125730304Y-80948926D01*
X125162563Y-81328278D01*
X124783211Y-81896019D01*
X124650000Y-82565715D01*
X100152699Y-82565715D01*
X100092602Y-82420628D01*
X99879373Y-82207399D01*
X99850002Y-82195233D01*
X99850002Y-82160739D01*
X100109553Y-81772293D01*
X100231346Y-81160000D01*
X100109553Y-80547707D01*
X99762717Y-80028629D01*
X99243639Y-79681793D01*
X98631346Y-79560000D01*
X98568654Y-79560000D01*
X97956361Y-79681793D01*
X97437283Y-80028629D01*
X97090447Y-80547707D01*
X96968654Y-81160000D01*
X51558805Y-81160000D01*
X51518138Y-81096802D01*
X51267508Y-80925554D01*
X50970000Y-80865307D01*
X49270000Y-80865307D01*
X48992067Y-80917604D01*
X48736802Y-81081862D01*
X48565554Y-81332492D01*
X48505307Y-81630000D01*
X36449340Y-81630000D01*
X36400000Y-81580660D01*
X35533699Y-82446961D01*
X30825000Y-82446961D01*
X30825000Y-80741149D01*
X34108408Y-80741149D01*
X34198216Y-81192639D01*
X34473039Y-81386301D01*
X35339340Y-80520000D01*
X37460660Y-80520000D01*
X38326961Y-81386301D01*
X38601784Y-81192639D01*
X38691592Y-80298851D01*
X38601784Y-79847361D01*
X38326961Y-79653699D01*
X37460660Y-80520000D01*
X35339340Y-80520000D01*
X34473039Y-79653699D01*
X34198216Y-79847361D01*
X34108408Y-80741149D01*
X30825000Y-80741149D01*
X30825000Y-78593039D01*
X35533699Y-78593039D01*
X36400000Y-79459340D01*
X37266301Y-78593039D01*
X37072639Y-78318216D01*
X36178851Y-78228408D01*
X35727361Y-78318216D01*
X35533699Y-78593039D01*
X30825000Y-78593039D01*
X30825000Y-76661335D01*
X30883211Y-76953981D01*
X31262563Y-77521722D01*
X31830304Y-77901074D01*
X32500000Y-78034285D01*
X33169696Y-77901074D01*
X33737437Y-77521722D01*
X34116789Y-76953981D01*
X34250000Y-76284285D01*
X34250000Y-76215715D01*
X34116789Y-75546019D01*
X33737437Y-74978278D01*
X33169696Y-74598926D01*
X32500000Y-74465715D01*
X31830304Y-74598926D01*
X31262563Y-74978278D01*
X30883211Y-75546019D01*
X30825000Y-75838665D01*
X30825000Y-74289634D01*
X49850000Y-74289634D01*
X49850000Y-74350366D01*
X49967987Y-74943525D01*
X50303984Y-75446382D01*
X50806841Y-75782379D01*
X51400000Y-75900366D01*
X51993159Y-75782379D01*
X52496016Y-75446382D01*
X52832013Y-74943525D01*
X52898959Y-74606961D01*
X53149732Y-74606961D01*
X53385208Y-75176857D01*
X53820849Y-75613260D01*
X54390333Y-75849730D01*
X55006961Y-75850268D01*
X55576857Y-75614792D01*
X56013260Y-75179151D01*
X56249730Y-74609667D01*
X56250035Y-74260000D01*
X56268654Y-74260000D01*
X56390447Y-74872293D01*
X56675891Y-75299491D01*
X56516802Y-75401862D01*
X56345554Y-75652492D01*
X56285307Y-75950000D01*
X56285307Y-77650000D01*
X56337604Y-77927933D01*
X56501862Y-78183198D01*
X56752492Y-78354446D01*
X57050000Y-78414693D01*
X58750000Y-78414693D01*
X59027933Y-78362396D01*
X59283198Y-78198138D01*
X59454446Y-77947508D01*
X59514693Y-77650000D01*
X59514693Y-77489634D01*
X66650000Y-77489634D01*
X66650000Y-77550366D01*
X66767987Y-78143525D01*
X67103984Y-78646382D01*
X67606841Y-78982379D01*
X68200000Y-79100366D01*
X68793159Y-78982379D01*
X69296016Y-78646382D01*
X69632013Y-78143525D01*
X69750000Y-77550366D01*
X69750000Y-77489634D01*
X69730109Y-77389634D01*
X70350000Y-77389634D01*
X70350000Y-77450366D01*
X70467987Y-78043525D01*
X70803984Y-78546382D01*
X71306841Y-78882379D01*
X71900000Y-79000366D01*
X72493159Y-78882379D01*
X72996016Y-78546382D01*
X73294277Y-78100000D01*
X115351022Y-78100000D01*
X115503263Y-78865367D01*
X115936808Y-79514214D01*
X116585655Y-79947759D01*
X117351022Y-80100000D01*
X118448978Y-80100000D01*
X119214345Y-79947759D01*
X119863192Y-79514214D01*
X120025398Y-79271454D01*
X121057774Y-79271454D01*
X121454959Y-79925332D01*
X121984178Y-80386990D01*
X122275000Y-80307723D01*
X122275000Y-78975000D01*
X123525000Y-78975000D01*
X123525000Y-80307723D01*
X123815822Y-80386990D01*
X124345041Y-79925332D01*
X124742226Y-79271454D01*
X124635084Y-78975000D01*
X123525000Y-78975000D01*
X122275000Y-78975000D01*
X121164916Y-78975000D01*
X121057774Y-79271454D01*
X120025398Y-79271454D01*
X120296737Y-78865367D01*
X120448978Y-78100000D01*
X120296737Y-77334633D01*
X120025399Y-76928546D01*
X121057774Y-76928546D01*
X121164916Y-77225000D01*
X122275000Y-77225000D01*
X122275000Y-75892277D01*
X123525000Y-75892277D01*
X123525000Y-77225000D01*
X124635084Y-77225000D01*
X124742226Y-76928546D01*
X124345041Y-76274668D01*
X123815822Y-75813010D01*
X123525000Y-75892277D01*
X122275000Y-75892277D01*
X121984178Y-75813010D01*
X121454959Y-76274668D01*
X121057774Y-76928546D01*
X120025399Y-76928546D01*
X119863192Y-76685786D01*
X119214345Y-76252241D01*
X118448978Y-76100000D01*
X117351022Y-76100000D01*
X116585655Y-76252241D01*
X115936808Y-76685786D01*
X115503263Y-77334633D01*
X115351022Y-78100000D01*
X73294277Y-78100000D01*
X73332013Y-78043525D01*
X73450000Y-77450366D01*
X73450000Y-77389634D01*
X73332013Y-76796475D01*
X72996016Y-76293618D01*
X72493159Y-75957621D01*
X71900000Y-75839634D01*
X71306841Y-75957621D01*
X70803984Y-76293618D01*
X70467987Y-76796475D01*
X70350000Y-77389634D01*
X69730109Y-77389634D01*
X69632013Y-76896475D01*
X69296016Y-76393618D01*
X68793159Y-76057621D01*
X68200000Y-75939634D01*
X67606841Y-76057621D01*
X67103984Y-76393618D01*
X66767987Y-76896475D01*
X66650000Y-77489634D01*
X59514693Y-77489634D01*
X59514693Y-75950000D01*
X59462396Y-75672067D01*
X59298138Y-75416802D01*
X59124842Y-75298394D01*
X59409553Y-74872293D01*
X59531346Y-74260000D01*
X59409553Y-73647707D01*
X59062717Y-73128629D01*
X58543639Y-72781793D01*
X57931346Y-72660000D01*
X57868654Y-72660000D01*
X57256361Y-72781793D01*
X56737283Y-73128629D01*
X56390447Y-73647707D01*
X56268654Y-74260000D01*
X56250035Y-74260000D01*
X56250268Y-73993039D01*
X56014792Y-73423143D01*
X55579151Y-72986740D01*
X55009667Y-72750270D01*
X54393039Y-72749732D01*
X53823143Y-72985208D01*
X53386740Y-73420849D01*
X53150270Y-73990333D01*
X53149732Y-74606961D01*
X52898959Y-74606961D01*
X52950000Y-74350366D01*
X52950000Y-74289634D01*
X52832013Y-73696475D01*
X52496016Y-73193618D01*
X51993159Y-72857621D01*
X51400000Y-72739634D01*
X50806841Y-72857621D01*
X50303984Y-73193618D01*
X49967987Y-73696475D01*
X49850000Y-74289634D01*
X30825000Y-74289634D01*
X30825000Y-72921454D01*
X34157774Y-72921454D01*
X34554959Y-73575332D01*
X35084178Y-74036990D01*
X35375000Y-73957723D01*
X35375000Y-72625000D01*
X36625000Y-72625000D01*
X36625000Y-73957723D01*
X36915822Y-74036990D01*
X37445041Y-73575332D01*
X37842226Y-72921454D01*
X37735084Y-72625000D01*
X36625000Y-72625000D01*
X35375000Y-72625000D01*
X34264916Y-72625000D01*
X34157774Y-72921454D01*
X30825000Y-72921454D01*
X30825000Y-71750000D01*
X38451022Y-71750000D01*
X38603263Y-72515367D01*
X39036808Y-73164214D01*
X39685655Y-73597759D01*
X40451022Y-73750000D01*
X41548978Y-73750000D01*
X42314345Y-73597759D01*
X42963192Y-73164214D01*
X43396737Y-72515367D01*
X43548978Y-71750000D01*
X43396737Y-70984633D01*
X42963192Y-70335786D01*
X42909635Y-70300000D01*
X55799634Y-70300000D01*
X55917621Y-70893159D01*
X56253618Y-71396016D01*
X56756475Y-71732013D01*
X57349634Y-71850000D01*
X57410366Y-71850000D01*
X57586764Y-71814912D01*
X58425926Y-72654074D01*
X58726017Y-72854589D01*
X59080000Y-72925000D01*
X65700000Y-72925000D01*
X66053983Y-72854589D01*
X66354074Y-72654074D01*
X67655803Y-71352345D01*
X67890333Y-71449730D01*
X68506961Y-71450268D01*
X69076857Y-71214792D01*
X69513260Y-70779151D01*
X69749730Y-70209667D01*
X69749819Y-70106961D01*
X70349732Y-70106961D01*
X70585208Y-70676857D01*
X71020849Y-71113260D01*
X71590333Y-71349730D01*
X72206961Y-71350268D01*
X72473830Y-71240000D01*
X74368654Y-71240000D01*
X74490447Y-71852293D01*
X74837283Y-72371371D01*
X75356361Y-72718207D01*
X75968654Y-72840000D01*
X76031346Y-72840000D01*
X76643639Y-72718207D01*
X77162717Y-72371371D01*
X77509553Y-71852293D01*
X77631346Y-71240000D01*
X77509553Y-70627707D01*
X77224109Y-70200509D01*
X77383198Y-70098138D01*
X77554446Y-69847508D01*
X77580267Y-69720000D01*
X88168654Y-69720000D01*
X88290447Y-70332293D01*
X88637283Y-70851371D01*
X88844756Y-70990000D01*
X88637283Y-71128629D01*
X88290447Y-71647707D01*
X88168654Y-72260000D01*
X88290447Y-72872293D01*
X88575891Y-73299491D01*
X88416802Y-73401862D01*
X88245554Y-73652492D01*
X88185307Y-73950000D01*
X88185307Y-75650000D01*
X88237604Y-75927933D01*
X88401862Y-76183198D01*
X88652492Y-76354446D01*
X88950000Y-76414693D01*
X90650000Y-76414693D01*
X90927933Y-76362396D01*
X91183198Y-76198138D01*
X91354446Y-75947508D01*
X91414693Y-75650000D01*
X91414693Y-73950000D01*
X91362396Y-73672067D01*
X91293961Y-73565715D01*
X124650000Y-73565715D01*
X124650000Y-73634285D01*
X124783211Y-74303981D01*
X125162563Y-74871722D01*
X125730304Y-75251074D01*
X126400000Y-75384285D01*
X127069696Y-75251074D01*
X127637437Y-74871722D01*
X128016789Y-74303981D01*
X128150000Y-73634285D01*
X128150000Y-73565715D01*
X128016789Y-72896019D01*
X127637437Y-72328278D01*
X127069696Y-71948926D01*
X126400000Y-71815715D01*
X125730304Y-71948926D01*
X125162563Y-72328278D01*
X124783211Y-72896019D01*
X124650000Y-73565715D01*
X91293961Y-73565715D01*
X91198138Y-73416802D01*
X91024842Y-73298394D01*
X91309553Y-72872293D01*
X91431346Y-72260000D01*
X91309553Y-71647707D01*
X90962717Y-71128629D01*
X90755244Y-70990000D01*
X90962717Y-70851371D01*
X91309553Y-70332293D01*
X91431346Y-69720000D01*
X91309553Y-69107707D01*
X90962717Y-68588629D01*
X90443639Y-68241793D01*
X89831346Y-68120000D01*
X89768654Y-68120000D01*
X89156361Y-68241793D01*
X88637283Y-68588629D01*
X88290447Y-69107707D01*
X88168654Y-69720000D01*
X77580267Y-69720000D01*
X77614693Y-69550000D01*
X77614693Y-68100000D01*
X77699634Y-68100000D01*
X77817621Y-68693159D01*
X78153618Y-69196016D01*
X78656475Y-69532013D01*
X79249634Y-69650000D01*
X79310366Y-69650000D01*
X79903525Y-69532013D01*
X80406382Y-69196016D01*
X80742379Y-68693159D01*
X80799307Y-68406961D01*
X85349732Y-68406961D01*
X85585208Y-68976857D01*
X86020849Y-69413260D01*
X86590333Y-69649730D01*
X87206961Y-69650268D01*
X87776857Y-69414792D01*
X88213260Y-68979151D01*
X88449730Y-68409667D01*
X88450268Y-67793039D01*
X88214792Y-67223143D01*
X87779151Y-66786740D01*
X87209667Y-66550270D01*
X86593039Y-66549732D01*
X86023143Y-66785208D01*
X85586740Y-67220849D01*
X85350270Y-67790333D01*
X85349732Y-68406961D01*
X80799307Y-68406961D01*
X80860366Y-68100000D01*
X80742379Y-67506841D01*
X80406382Y-67003984D01*
X79903525Y-66667987D01*
X79310366Y-66550000D01*
X79249634Y-66550000D01*
X78656475Y-66667987D01*
X78153618Y-67003984D01*
X77817621Y-67506841D01*
X77699634Y-68100000D01*
X77614693Y-68100000D01*
X77614693Y-67850000D01*
X77562396Y-67572067D01*
X77398138Y-67316802D01*
X77147508Y-67145554D01*
X76850000Y-67085307D01*
X75150000Y-67085307D01*
X74872067Y-67137604D01*
X74616802Y-67301862D01*
X74445554Y-67552492D01*
X74385307Y-67850000D01*
X74385307Y-69550000D01*
X74437604Y-69827933D01*
X74601862Y-70083198D01*
X74775158Y-70201606D01*
X74490447Y-70627707D01*
X74368654Y-71240000D01*
X72473830Y-71240000D01*
X72776857Y-71114792D01*
X73213260Y-70679151D01*
X73449730Y-70109667D01*
X73450268Y-69493039D01*
X73214792Y-68923143D01*
X72779151Y-68486740D01*
X72209667Y-68250270D01*
X71593039Y-68249732D01*
X71023143Y-68485208D01*
X70586740Y-68920849D01*
X70350270Y-69490333D01*
X70349732Y-70106961D01*
X69749819Y-70106961D01*
X69750268Y-69593039D01*
X69514792Y-69023143D01*
X69079151Y-68586740D01*
X68509667Y-68350270D01*
X67893039Y-68349732D01*
X67323143Y-68585208D01*
X66886740Y-69020849D01*
X66650270Y-69590333D01*
X66650138Y-69741715D01*
X66505986Y-69885867D01*
X66314792Y-69423143D01*
X65879151Y-68986740D01*
X65309667Y-68750270D01*
X64693039Y-68749732D01*
X64123143Y-68985208D01*
X63686740Y-69420849D01*
X63450270Y-69990333D01*
X63449732Y-70606961D01*
X63643122Y-71075000D01*
X59463148Y-71075000D01*
X58915202Y-70527054D01*
X58960366Y-70300000D01*
X58842379Y-69706841D01*
X58506382Y-69203984D01*
X58003525Y-68867987D01*
X57410366Y-68750000D01*
X57349634Y-68750000D01*
X56756475Y-68867987D01*
X56253618Y-69203984D01*
X55917621Y-69706841D01*
X55799634Y-70300000D01*
X42909635Y-70300000D01*
X42314345Y-69902241D01*
X41548978Y-69750000D01*
X40451022Y-69750000D01*
X39685655Y-69902241D01*
X39036808Y-70335786D01*
X38603263Y-70984633D01*
X38451022Y-71750000D01*
X30825000Y-71750000D01*
X30825000Y-70578546D01*
X34157774Y-70578546D01*
X34264916Y-70875000D01*
X35375000Y-70875000D01*
X35375000Y-69542277D01*
X36625000Y-69542277D01*
X36625000Y-70875000D01*
X37735084Y-70875000D01*
X37842226Y-70578546D01*
X37445041Y-69924668D01*
X36915822Y-69463010D01*
X36625000Y-69542277D01*
X35375000Y-69542277D01*
X35084178Y-69463010D01*
X34554959Y-69924668D01*
X34157774Y-70578546D01*
X30825000Y-70578546D01*
X30825000Y-67661335D01*
X30883211Y-67953981D01*
X31262563Y-68521722D01*
X31830304Y-68901074D01*
X32500000Y-69034285D01*
X33169696Y-68901074D01*
X33737437Y-68521722D01*
X34116789Y-67953981D01*
X34250000Y-67284285D01*
X34250000Y-67215715D01*
X34116789Y-66546019D01*
X33834670Y-66123798D01*
X33987437Y-66021722D01*
X34366789Y-65453981D01*
X34500000Y-64784285D01*
X34500000Y-64715715D01*
X34474921Y-64589634D01*
X48750000Y-64589634D01*
X48750000Y-64650366D01*
X48867987Y-65243525D01*
X49203984Y-65746382D01*
X49706841Y-66082379D01*
X49957445Y-66132227D01*
X49850270Y-66390333D01*
X49849732Y-67006961D01*
X50085208Y-67576857D01*
X50520849Y-68013260D01*
X51090333Y-68249730D01*
X51706961Y-68250268D01*
X52276857Y-68014792D01*
X52713260Y-67579151D01*
X52949730Y-67009667D01*
X52950044Y-66649634D01*
X53150000Y-66649634D01*
X53150000Y-66710366D01*
X53267987Y-67303525D01*
X53603984Y-67806382D01*
X54106841Y-68142379D01*
X54700000Y-68260366D01*
X55293159Y-68142379D01*
X55796016Y-67806382D01*
X56132013Y-67303525D01*
X56250000Y-66710366D01*
X56250000Y-66649634D01*
X56142056Y-66106961D01*
X63049732Y-66106961D01*
X63285208Y-66676857D01*
X63720849Y-67113260D01*
X64290333Y-67349730D01*
X64906961Y-67350268D01*
X65476857Y-67114792D01*
X65913260Y-66679151D01*
X66149730Y-66109667D01*
X66150000Y-65800000D01*
X70639634Y-65800000D01*
X70757621Y-66393159D01*
X71093618Y-66896016D01*
X71596475Y-67232013D01*
X72189634Y-67350000D01*
X72250366Y-67350000D01*
X72843525Y-67232013D01*
X73346382Y-66896016D01*
X73682379Y-66393159D01*
X73800366Y-65800000D01*
X73682379Y-65206841D01*
X73346382Y-64703984D01*
X72843525Y-64367987D01*
X72250366Y-64250000D01*
X72189634Y-64250000D01*
X71596475Y-64367987D01*
X71093618Y-64703984D01*
X70757621Y-65206841D01*
X70639634Y-65800000D01*
X66150000Y-65800000D01*
X66150268Y-65493039D01*
X65914792Y-64923143D01*
X65479151Y-64486740D01*
X64909667Y-64250270D01*
X64293039Y-64249732D01*
X63723143Y-64485208D01*
X63286740Y-64920849D01*
X63050270Y-65490333D01*
X63049732Y-66106961D01*
X56142056Y-66106961D01*
X56132013Y-66056475D01*
X55796016Y-65553618D01*
X55293159Y-65217621D01*
X54700000Y-65099634D01*
X54106841Y-65217621D01*
X53603984Y-65553618D01*
X53267987Y-66056475D01*
X53150000Y-66649634D01*
X52950044Y-66649634D01*
X52950268Y-66393039D01*
X52714792Y-65823143D01*
X52279151Y-65386740D01*
X51747443Y-65165956D01*
X51850000Y-64650366D01*
X51850000Y-64589634D01*
X51732013Y-63996475D01*
X51396016Y-63493618D01*
X50893159Y-63157621D01*
X50300000Y-63039634D01*
X49706841Y-63157621D01*
X49203984Y-63493618D01*
X48867987Y-63996475D01*
X48750000Y-64589634D01*
X34474921Y-64589634D01*
X34366789Y-64046019D01*
X33987437Y-63478278D01*
X33419696Y-63098926D01*
X32750000Y-62965715D01*
X32080304Y-63098926D01*
X31512563Y-63478278D01*
X31133211Y-64046019D01*
X31000000Y-64715715D01*
X31000000Y-64784285D01*
X31133211Y-65453981D01*
X31415330Y-65876202D01*
X31262563Y-65978278D01*
X30883211Y-66546019D01*
X30825000Y-66838665D01*
X30825000Y-61421454D01*
X34407774Y-61421454D01*
X34804959Y-62075332D01*
X35334178Y-62536990D01*
X35625000Y-62457723D01*
X35625000Y-61125000D01*
X36875000Y-61125000D01*
X36875000Y-62457723D01*
X37165822Y-62536990D01*
X37695041Y-62075332D01*
X38092226Y-61421454D01*
X37985084Y-61125000D01*
X36875000Y-61125000D01*
X35625000Y-61125000D01*
X34514916Y-61125000D01*
X34407774Y-61421454D01*
X30825000Y-61421454D01*
X30825000Y-60250000D01*
X38701022Y-60250000D01*
X38853263Y-61015367D01*
X39286808Y-61664214D01*
X39935655Y-62097759D01*
X40701022Y-62250000D01*
X41798978Y-62250000D01*
X42564345Y-62097759D01*
X43213192Y-61664214D01*
X43646737Y-61015367D01*
X43798978Y-60250000D01*
X43646737Y-59484633D01*
X43483279Y-59240000D01*
X52068654Y-59240000D01*
X52190447Y-59852293D01*
X52537283Y-60371371D01*
X53056361Y-60718207D01*
X53668654Y-60840000D01*
X53731346Y-60840000D01*
X54343639Y-60718207D01*
X54862717Y-60371371D01*
X55209553Y-59852293D01*
X55331346Y-59240000D01*
X55295542Y-59060000D01*
X71268654Y-59060000D01*
X71390447Y-59672293D01*
X71675891Y-60099491D01*
X71516802Y-60201862D01*
X71345554Y-60452492D01*
X71285307Y-60750000D01*
X71285307Y-62450000D01*
X71337604Y-62727933D01*
X71501862Y-62983198D01*
X71752492Y-63154446D01*
X72050000Y-63214693D01*
X73750000Y-63214693D01*
X74027933Y-63162396D01*
X74283198Y-62998138D01*
X74454446Y-62747508D01*
X74514693Y-62450000D01*
X74514693Y-61189634D01*
X84150000Y-61189634D01*
X84150000Y-61250366D01*
X84267987Y-61843525D01*
X84603984Y-62346382D01*
X85106841Y-62682379D01*
X85700000Y-62800366D01*
X86293159Y-62682379D01*
X86796016Y-62346382D01*
X87132013Y-61843525D01*
X87250000Y-61250366D01*
X87250000Y-61189634D01*
X87132013Y-60596475D01*
X86796016Y-60093618D01*
X86293159Y-59757621D01*
X85700000Y-59639634D01*
X85106841Y-59757621D01*
X84603984Y-60093618D01*
X84267987Y-60596475D01*
X84150000Y-61189634D01*
X74514693Y-61189634D01*
X74514693Y-60750000D01*
X74462396Y-60472067D01*
X74298138Y-60216802D01*
X74124842Y-60098394D01*
X74409553Y-59672293D01*
X74531346Y-59060000D01*
X74409553Y-58447707D01*
X74190587Y-58120000D01*
X88068654Y-58120000D01*
X88190447Y-58732293D01*
X88537283Y-59251371D01*
X88744756Y-59390000D01*
X88537283Y-59528629D01*
X88190447Y-60047707D01*
X88068654Y-60660000D01*
X88190447Y-61272293D01*
X88475891Y-61699491D01*
X88316802Y-61801862D01*
X88145554Y-62052492D01*
X88085307Y-62350000D01*
X88085307Y-64050000D01*
X88137604Y-64327933D01*
X88301862Y-64583198D01*
X88552492Y-64754446D01*
X88850000Y-64814693D01*
X90550000Y-64814693D01*
X90827933Y-64762396D01*
X91041453Y-64625000D01*
X92010104Y-64625000D01*
X91806000Y-64709334D01*
X91510372Y-65004446D01*
X91350182Y-65390226D01*
X91349818Y-65807942D01*
X91509334Y-66194000D01*
X91699309Y-66384308D01*
X91745926Y-66454074D01*
X92145924Y-66854071D01*
X92145926Y-66854074D01*
X92446018Y-67054589D01*
X92800000Y-67125000D01*
X94789631Y-67125000D01*
X95090226Y-67249818D01*
X95507942Y-67250182D01*
X95894000Y-67090666D01*
X96189628Y-66795554D01*
X96349818Y-66409774D01*
X96350182Y-65992058D01*
X96190666Y-65606000D01*
X95895554Y-65310372D01*
X95509774Y-65150182D01*
X95133175Y-65149854D01*
X95149818Y-65109774D01*
X95150182Y-64692058D01*
X94990666Y-64306000D01*
X94695554Y-64010372D01*
X94392809Y-63884661D01*
X93554074Y-63045926D01*
X93253983Y-62845411D01*
X92900000Y-62775000D01*
X91314693Y-62775000D01*
X91314693Y-62350000D01*
X91262396Y-62072067D01*
X91098138Y-61816802D01*
X90924842Y-61698394D01*
X91209553Y-61272293D01*
X91331346Y-60660000D01*
X91209553Y-60047707D01*
X90862717Y-59528629D01*
X90655244Y-59390000D01*
X90862717Y-59251371D01*
X91209553Y-58732293D01*
X91331346Y-58120000D01*
X91209553Y-57507707D01*
X90862717Y-56988629D01*
X90343639Y-56641793D01*
X89731346Y-56520000D01*
X89668654Y-56520000D01*
X89056361Y-56641793D01*
X88537283Y-56988629D01*
X88190447Y-57507707D01*
X88068654Y-58120000D01*
X74190587Y-58120000D01*
X74062717Y-57928629D01*
X73543639Y-57581793D01*
X72931346Y-57460000D01*
X72868654Y-57460000D01*
X72256361Y-57581793D01*
X71737283Y-57928629D01*
X71390447Y-58447707D01*
X71268654Y-59060000D01*
X55295542Y-59060000D01*
X55209553Y-58627707D01*
X54924109Y-58200509D01*
X55083198Y-58098138D01*
X55254446Y-57847508D01*
X55314693Y-57550000D01*
X55314693Y-55850000D01*
X55306595Y-55806961D01*
X65249732Y-55806961D01*
X65485208Y-56376857D01*
X65920849Y-56813260D01*
X66490333Y-57049730D01*
X67106961Y-57050268D01*
X67676857Y-56814792D01*
X68113260Y-56379151D01*
X68349730Y-55809667D01*
X68350009Y-55489634D01*
X69050000Y-55489634D01*
X69050000Y-55550366D01*
X69167987Y-56143525D01*
X69503984Y-56646382D01*
X70006841Y-56982379D01*
X70600000Y-57100366D01*
X71193159Y-56982379D01*
X71696016Y-56646382D01*
X72032013Y-56143525D01*
X72150000Y-55550366D01*
X72150000Y-55489634D01*
X72032013Y-54896475D01*
X71696016Y-54393618D01*
X71193159Y-54057621D01*
X70600000Y-53939634D01*
X70006841Y-54057621D01*
X69503984Y-54393618D01*
X69167987Y-54896475D01*
X69050000Y-55489634D01*
X68350009Y-55489634D01*
X68350268Y-55193039D01*
X68114792Y-54623143D01*
X67679151Y-54186740D01*
X67109667Y-53950270D01*
X66493039Y-53949732D01*
X65923143Y-54185208D01*
X65486740Y-54620849D01*
X65250270Y-55190333D01*
X65249732Y-55806961D01*
X55306595Y-55806961D01*
X55262396Y-55572067D01*
X55098138Y-55316802D01*
X54847508Y-55145554D01*
X54550000Y-55085307D01*
X52850000Y-55085307D01*
X52572067Y-55137604D01*
X52316802Y-55301862D01*
X52145554Y-55552492D01*
X52085307Y-55850000D01*
X52085307Y-57550000D01*
X52137604Y-57827933D01*
X52301862Y-58083198D01*
X52475158Y-58201606D01*
X52190447Y-58627707D01*
X52068654Y-59240000D01*
X43483279Y-59240000D01*
X43213192Y-58835786D01*
X42564345Y-58402241D01*
X41798978Y-58250000D01*
X40701022Y-58250000D01*
X39935655Y-58402241D01*
X39286808Y-58835786D01*
X38853263Y-59484633D01*
X38701022Y-60250000D01*
X30825000Y-60250000D01*
X30825000Y-59078546D01*
X34407774Y-59078546D01*
X34514916Y-59375000D01*
X35625000Y-59375000D01*
X35625000Y-58042277D01*
X36875000Y-58042277D01*
X36875000Y-59375000D01*
X37985084Y-59375000D01*
X38092226Y-59078546D01*
X37695041Y-58424668D01*
X37165822Y-57963010D01*
X36875000Y-58042277D01*
X35625000Y-58042277D01*
X35334178Y-57963010D01*
X34804959Y-58424668D01*
X34407774Y-59078546D01*
X30825000Y-59078546D01*
X30825000Y-55715715D01*
X31000000Y-55715715D01*
X31000000Y-55784285D01*
X31133211Y-56453981D01*
X31512563Y-57021722D01*
X32080304Y-57401074D01*
X32750000Y-57534285D01*
X33419696Y-57401074D01*
X33560546Y-57306961D01*
X48749732Y-57306961D01*
X48985208Y-57876857D01*
X49420849Y-58313260D01*
X49990333Y-58549730D01*
X50606961Y-58550268D01*
X51176857Y-58314792D01*
X51613260Y-57879151D01*
X51849730Y-57309667D01*
X51850268Y-56693039D01*
X51614792Y-56123143D01*
X51179151Y-55686740D01*
X50609667Y-55450270D01*
X49993039Y-55449732D01*
X49423143Y-55685208D01*
X48986740Y-56120849D01*
X48750270Y-56690333D01*
X48749732Y-57306961D01*
X33560546Y-57306961D01*
X33987437Y-57021722D01*
X34366789Y-56453981D01*
X34500000Y-55784285D01*
X34500000Y-55715715D01*
X34366789Y-55046019D01*
X33987437Y-54478278D01*
X33419696Y-54098926D01*
X32750000Y-53965715D01*
X32080304Y-54098926D01*
X31512563Y-54478278D01*
X31133211Y-55046019D01*
X31000000Y-55715715D01*
X30825000Y-55715715D01*
X30825000Y-49800000D01*
X34335307Y-49800000D01*
X34335307Y-52800000D01*
X34387604Y-53077933D01*
X34551862Y-53333198D01*
X34802492Y-53504446D01*
X35100000Y-53564693D01*
X38100000Y-53564693D01*
X38377933Y-53512396D01*
X38633198Y-53348138D01*
X38804446Y-53097508D01*
X38864693Y-52800000D01*
X38864693Y-52489634D01*
X50150000Y-52489634D01*
X50150000Y-52550366D01*
X50267987Y-53143525D01*
X50603984Y-53646382D01*
X51106841Y-53982379D01*
X51700000Y-54100366D01*
X52293159Y-53982379D01*
X52406030Y-53906961D01*
X84149732Y-53906961D01*
X84385208Y-54476857D01*
X84820849Y-54913260D01*
X85390333Y-55149730D01*
X86006961Y-55150268D01*
X86576857Y-54914792D01*
X87013260Y-54479151D01*
X87249730Y-53909667D01*
X87250268Y-53293039D01*
X87014792Y-52723143D01*
X86579151Y-52286740D01*
X86009667Y-52050270D01*
X85393039Y-52049732D01*
X84823143Y-52285208D01*
X84386740Y-52720849D01*
X84150270Y-53290333D01*
X84149732Y-53906961D01*
X52406030Y-53906961D01*
X52796016Y-53646382D01*
X53132013Y-53143525D01*
X53250000Y-52550366D01*
X53250000Y-52489634D01*
X53132013Y-51896475D01*
X52796016Y-51393618D01*
X52293159Y-51057621D01*
X51700000Y-50939634D01*
X51106841Y-51057621D01*
X50603984Y-51393618D01*
X50267987Y-51896475D01*
X50150000Y-52489634D01*
X38864693Y-52489634D01*
X38864693Y-49800000D01*
X38812396Y-49522067D01*
X38648138Y-49266802D01*
X38397508Y-49095554D01*
X38100000Y-49035307D01*
X35100000Y-49035307D01*
X34822067Y-49087604D01*
X34566802Y-49251862D01*
X34395554Y-49502492D01*
X34335307Y-49800000D01*
X30825000Y-49800000D01*
X30825000Y-48146961D01*
X35733699Y-48146961D01*
X35927361Y-48421784D01*
X36821149Y-48511592D01*
X37272639Y-48421784D01*
X37466301Y-48146961D01*
X36600000Y-47280660D01*
X35733699Y-48146961D01*
X30825000Y-48146961D01*
X30825000Y-47250000D01*
X46285307Y-47250000D01*
X46285307Y-48950000D01*
X46337604Y-49227933D01*
X46501862Y-49483198D01*
X46752492Y-49654446D01*
X47050000Y-49714693D01*
X48750000Y-49714693D01*
X49027933Y-49662396D01*
X49283198Y-49498138D01*
X49454446Y-49247508D01*
X49514693Y-48950000D01*
X49514693Y-47849634D01*
X65250000Y-47849634D01*
X65250000Y-47910366D01*
X65367987Y-48503525D01*
X65703984Y-49006382D01*
X66206841Y-49342379D01*
X66800000Y-49460366D01*
X67393159Y-49342379D01*
X67896016Y-49006382D01*
X68232013Y-48503525D01*
X68291003Y-48206961D01*
X69049732Y-48206961D01*
X69285208Y-48776857D01*
X69720849Y-49213260D01*
X70290333Y-49449730D01*
X70906961Y-49450268D01*
X71476857Y-49214792D01*
X71913260Y-48779151D01*
X72149730Y-48209667D01*
X72150268Y-47593039D01*
X71914792Y-47023143D01*
X71479151Y-46586740D01*
X70909667Y-46350270D01*
X70293039Y-46349732D01*
X69723143Y-46585208D01*
X69286740Y-47020849D01*
X69050270Y-47590333D01*
X69049732Y-48206961D01*
X68291003Y-48206961D01*
X68350000Y-47910366D01*
X68350000Y-47849634D01*
X68232013Y-47256475D01*
X67896016Y-46753618D01*
X67393159Y-46417621D01*
X66800000Y-46299634D01*
X66206841Y-46417621D01*
X65703984Y-46753618D01*
X65367987Y-47256475D01*
X65250000Y-47849634D01*
X49514693Y-47849634D01*
X49514693Y-47250000D01*
X49462396Y-46972067D01*
X49298138Y-46716802D01*
X49150002Y-46615585D01*
X49150002Y-46544534D01*
X49365241Y-46222369D01*
X49253336Y-45985000D01*
X48325000Y-45985000D01*
X48325000Y-46410000D01*
X47475000Y-46410000D01*
X47475000Y-45985000D01*
X46546664Y-45985000D01*
X46434759Y-46222369D01*
X46649998Y-46544534D01*
X46649998Y-46616154D01*
X46516802Y-46701862D01*
X46345554Y-46952492D01*
X46285307Y-47250000D01*
X30825000Y-47250000D01*
X30825000Y-46441149D01*
X34308408Y-46441149D01*
X34398216Y-46892639D01*
X34673039Y-47086301D01*
X35539340Y-46220000D01*
X37660660Y-46220000D01*
X38526961Y-47086301D01*
X38801784Y-46892639D01*
X38891592Y-45998851D01*
X38801784Y-45547361D01*
X38526961Y-45353699D01*
X37660660Y-46220000D01*
X35539340Y-46220000D01*
X34673039Y-45353699D01*
X34398216Y-45547361D01*
X34308408Y-46441149D01*
X30825000Y-46441149D01*
X30825000Y-45206961D01*
X50149732Y-45206961D01*
X50385208Y-45776857D01*
X50820849Y-46213260D01*
X51390333Y-46449730D01*
X52006961Y-46450268D01*
X52576857Y-46214792D01*
X53013260Y-45779151D01*
X53249730Y-45209667D01*
X53250268Y-44593039D01*
X53014792Y-44023143D01*
X52579151Y-43586740D01*
X52009667Y-43350270D01*
X51393039Y-43349732D01*
X50823143Y-43585208D01*
X50386740Y-44020849D01*
X50150270Y-44590333D01*
X50149732Y-45206961D01*
X30825000Y-45206961D01*
X30825000Y-44293039D01*
X35733699Y-44293039D01*
X36600000Y-45159340D01*
X36861709Y-44897631D01*
X46434759Y-44897631D01*
X46546664Y-45135000D01*
X47475000Y-45135000D01*
X47475000Y-44198650D01*
X48325000Y-44198650D01*
X48325000Y-45135000D01*
X49253336Y-45135000D01*
X49365241Y-44897631D01*
X49072689Y-44459745D01*
X48562374Y-44094728D01*
X48325000Y-44198650D01*
X47475000Y-44198650D01*
X47237626Y-44094728D01*
X46727311Y-44459745D01*
X46434759Y-44897631D01*
X36861709Y-44897631D01*
X37466301Y-44293039D01*
X37272639Y-44018216D01*
X36378851Y-43928408D01*
X35927361Y-44018216D01*
X35733699Y-44293039D01*
X30825000Y-44293039D01*
X30825000Y-34758981D01*
X31422066Y-35357090D01*
X32444198Y-35781516D01*
X33550946Y-35782482D01*
X34573818Y-35359840D01*
X34683849Y-35250000D01*
X40235307Y-35250000D01*
X40235307Y-37250000D01*
X40287604Y-37527933D01*
X40451862Y-37783198D01*
X40702492Y-37954446D01*
X41000000Y-38014693D01*
X43000000Y-38014693D01*
X43277933Y-37962396D01*
X43533198Y-37798138D01*
X43613609Y-37680452D01*
X46276655Y-37680452D01*
X46392759Y-37936448D01*
X47084358Y-38040455D01*
X47607241Y-37936448D01*
X47723345Y-37680452D01*
X47000000Y-36957107D01*
X46276655Y-37680452D01*
X43613609Y-37680452D01*
X43704446Y-37547508D01*
X43764693Y-37250000D01*
X43764693Y-36334358D01*
X45209545Y-36334358D01*
X45313552Y-36857241D01*
X45569548Y-36973345D01*
X46292893Y-36250000D01*
X47707107Y-36250000D01*
X48430452Y-36973345D01*
X48686448Y-36857241D01*
X48790455Y-36165642D01*
X48686448Y-35642759D01*
X48430452Y-35526655D01*
X47707107Y-36250000D01*
X46292893Y-36250000D01*
X45569548Y-35526655D01*
X45313552Y-35642759D01*
X45209545Y-36334358D01*
X43764693Y-36334358D01*
X43764693Y-35250000D01*
X43712396Y-34972067D01*
X43614254Y-34819548D01*
X46276655Y-34819548D01*
X47000000Y-35542893D01*
X47542893Y-35000000D01*
X51485307Y-35000000D01*
X51485307Y-37000000D01*
X51537604Y-37277933D01*
X51701862Y-37533198D01*
X51952492Y-37704446D01*
X52250000Y-37764693D01*
X54250000Y-37764693D01*
X54527933Y-37712396D01*
X54783198Y-37548138D01*
X54863609Y-37430452D01*
X57526655Y-37430452D01*
X57642759Y-37686448D01*
X58334358Y-37790455D01*
X58857241Y-37686448D01*
X58973345Y-37430452D01*
X58250000Y-36707107D01*
X57526655Y-37430452D01*
X54863609Y-37430452D01*
X54954446Y-37297508D01*
X55014693Y-37000000D01*
X55014693Y-36084358D01*
X56459545Y-36084358D01*
X56563552Y-36607241D01*
X56819548Y-36723345D01*
X57542893Y-36000000D01*
X58957107Y-36000000D01*
X59680452Y-36723345D01*
X59936448Y-36607241D01*
X59952575Y-36500000D01*
X61285307Y-36500000D01*
X61285307Y-40000000D01*
X61337604Y-40277933D01*
X61501862Y-40533198D01*
X61752492Y-40704446D01*
X62050000Y-40764693D01*
X65550000Y-40764693D01*
X65827933Y-40712396D01*
X65985307Y-40611129D01*
X65985307Y-43000000D01*
X66037604Y-43277933D01*
X66201862Y-43533198D01*
X66452492Y-43704446D01*
X66750000Y-43764693D01*
X70250000Y-43764693D01*
X70527933Y-43712396D01*
X70783198Y-43548138D01*
X70954446Y-43297508D01*
X70972583Y-43207942D01*
X94449818Y-43207942D01*
X94609334Y-43594000D01*
X94904446Y-43889628D01*
X95290226Y-44049818D01*
X95707942Y-44050182D01*
X96094000Y-43890666D01*
X96389628Y-43595554D01*
X96440022Y-43474192D01*
X97834214Y-42080000D01*
X97999504Y-42080000D01*
X98087283Y-42211371D01*
X98606361Y-42558207D01*
X99218654Y-42680000D01*
X99281346Y-42680000D01*
X99893639Y-42558207D01*
X100412717Y-42211371D01*
X100759553Y-41692293D01*
X100881346Y-41080000D01*
X100759553Y-40467707D01*
X100412717Y-39948629D01*
X100205244Y-39810000D01*
X100412717Y-39671371D01*
X100759553Y-39152293D01*
X100881346Y-38540000D01*
X100759553Y-37927707D01*
X100474109Y-37500509D01*
X100633198Y-37398138D01*
X100804446Y-37147508D01*
X100864693Y-36850000D01*
X100864693Y-35707069D01*
X106025161Y-35707069D01*
X106841235Y-36523143D01*
X106720630Y-36643537D01*
X106490262Y-37198325D01*
X106489738Y-37799040D01*
X106719138Y-38354229D01*
X107143537Y-38779370D01*
X107698325Y-39009738D01*
X108299040Y-39010262D01*
X108854229Y-38780862D01*
X109270353Y-38365464D01*
X109683537Y-38779370D01*
X110238325Y-39009738D01*
X110839040Y-39010262D01*
X111394229Y-38780862D01*
X111819370Y-38356463D01*
X112049738Y-37801675D01*
X112050262Y-37200960D01*
X111820862Y-36645771D01*
X111675464Y-36500118D01*
X111819370Y-36356463D01*
X112049738Y-35801675D01*
X112050262Y-35200960D01*
X111820862Y-34645771D01*
X111753503Y-34578294D01*
X114446301Y-34578294D01*
X114616679Y-34847597D01*
X115449992Y-34941748D01*
X115923321Y-34847597D01*
X116093699Y-34578294D01*
X115270000Y-33754594D01*
X114446301Y-34578294D01*
X111753503Y-34578294D01*
X111396463Y-34220630D01*
X110841675Y-33990262D01*
X110240960Y-33989738D01*
X109685771Y-34219138D01*
X109260630Y-34643537D01*
X109166022Y-34871379D01*
X108537401Y-35500000D01*
X108806102Y-35768701D01*
X108501546Y-36073256D01*
X108301675Y-35990262D01*
X107700960Y-35989738D01*
X107498564Y-36073366D01*
X107193899Y-35768701D01*
X107462599Y-35500000D01*
X106809233Y-34846634D01*
X106562821Y-34925534D01*
X106507089Y-35225141D01*
X106025161Y-35707069D01*
X100864693Y-35707069D01*
X100864693Y-35150000D01*
X100812396Y-34872067D01*
X100648138Y-34616802D01*
X100591780Y-34578294D01*
X102446301Y-34578294D01*
X102616679Y-34847597D01*
X103449992Y-34941748D01*
X103923321Y-34847597D01*
X104093699Y-34578294D01*
X103824639Y-34309233D01*
X107346634Y-34309233D01*
X108000000Y-34962599D01*
X108653366Y-34309233D01*
X108574466Y-34062821D01*
X107980753Y-33952381D01*
X107425534Y-34062821D01*
X107346634Y-34309233D01*
X103824639Y-34309233D01*
X103270000Y-33754594D01*
X102446301Y-34578294D01*
X100591780Y-34578294D01*
X100397508Y-34445554D01*
X100100000Y-34385307D01*
X98400000Y-34385307D01*
X98122067Y-34437604D01*
X97866802Y-34601862D01*
X97695554Y-34852492D01*
X97635307Y-35150000D01*
X97635307Y-36850000D01*
X97687604Y-37127933D01*
X97851862Y-37383198D01*
X98025158Y-37501606D01*
X97740447Y-37927707D01*
X97618654Y-38540000D01*
X97740447Y-39152293D01*
X98087283Y-39671371D01*
X98294756Y-39810000D01*
X98087283Y-39948629D01*
X97999504Y-40080000D01*
X97420000Y-40080000D01*
X97037316Y-40156120D01*
X96712893Y-40372893D01*
X95026060Y-42059726D01*
X94906000Y-42109334D01*
X94610372Y-42404446D01*
X94450182Y-42790226D01*
X94449818Y-43207942D01*
X70972583Y-43207942D01*
X71014693Y-43000000D01*
X71014693Y-39500000D01*
X70962396Y-39222067D01*
X70798138Y-38966802D01*
X70547508Y-38795554D01*
X70250000Y-38735307D01*
X66750000Y-38735307D01*
X66472067Y-38787604D01*
X66314693Y-38888871D01*
X66314693Y-37636667D01*
X66320628Y-37642602D01*
X66599225Y-37758000D01*
X67435500Y-37758000D01*
X67625000Y-37568500D01*
X67625000Y-36125000D01*
X69375000Y-36125000D01*
X69375000Y-37568500D01*
X69564500Y-37758000D01*
X70400775Y-37758000D01*
X70679372Y-37642602D01*
X70892601Y-37429373D01*
X71008000Y-37150776D01*
X71008000Y-36314500D01*
X70818500Y-36125000D01*
X69375000Y-36125000D01*
X67625000Y-36125000D01*
X66199935Y-36125000D01*
X66098138Y-35966802D01*
X65847508Y-35795554D01*
X65550000Y-35735307D01*
X62050000Y-35735307D01*
X61772067Y-35787604D01*
X61516802Y-35951862D01*
X61345554Y-36202492D01*
X61285307Y-36500000D01*
X59952575Y-36500000D01*
X60040455Y-35915642D01*
X59936448Y-35392759D01*
X59680452Y-35276655D01*
X58957107Y-36000000D01*
X57542893Y-36000000D01*
X56819548Y-35276655D01*
X56563552Y-35392759D01*
X56459545Y-36084358D01*
X55014693Y-36084358D01*
X55014693Y-35000000D01*
X54962396Y-34722067D01*
X54864254Y-34569548D01*
X57526655Y-34569548D01*
X58250000Y-35292893D01*
X58973345Y-34569548D01*
X58857241Y-34313552D01*
X58165642Y-34209545D01*
X57642759Y-34313552D01*
X57526655Y-34569548D01*
X54864254Y-34569548D01*
X54798138Y-34466802D01*
X54547508Y-34295554D01*
X54250000Y-34235307D01*
X52250000Y-34235307D01*
X51972067Y-34287604D01*
X51716802Y-34451862D01*
X51545554Y-34702492D01*
X51485307Y-35000000D01*
X47542893Y-35000000D01*
X47723345Y-34819548D01*
X47607241Y-34563552D01*
X46915642Y-34459545D01*
X46392759Y-34563552D01*
X46276655Y-34819548D01*
X43614254Y-34819548D01*
X43548138Y-34716802D01*
X43297508Y-34545554D01*
X43000000Y-34485307D01*
X41000000Y-34485307D01*
X40722067Y-34537604D01*
X40466802Y-34701862D01*
X40295554Y-34952492D01*
X40235307Y-35250000D01*
X34683849Y-35250000D01*
X35357090Y-34577934D01*
X35781516Y-33555802D01*
X35781696Y-33349224D01*
X65992000Y-33349224D01*
X65992000Y-34185500D01*
X66181500Y-34375000D01*
X67625000Y-34375000D01*
X67625000Y-32931500D01*
X69375000Y-32931500D01*
X69375000Y-34375000D01*
X70818500Y-34375000D01*
X71008000Y-34185500D01*
X71008000Y-33349224D01*
X70892601Y-33070627D01*
X70801966Y-32979992D01*
X101128252Y-32979992D01*
X101222403Y-33453321D01*
X101491706Y-33623699D01*
X102315406Y-32800000D01*
X104224594Y-32800000D01*
X105048294Y-33623699D01*
X105317597Y-33453321D01*
X105371075Y-32979992D01*
X113128252Y-32979992D01*
X113222403Y-33453321D01*
X113491706Y-33623699D01*
X114315406Y-32800000D01*
X116224594Y-32800000D01*
X117048294Y-33623699D01*
X117317597Y-33453321D01*
X117411748Y-32620008D01*
X117317597Y-32146679D01*
X117048294Y-31976301D01*
X116224594Y-32800000D01*
X114315406Y-32800000D01*
X113491706Y-31976301D01*
X113222403Y-32146679D01*
X113128252Y-32979992D01*
X105371075Y-32979992D01*
X105411748Y-32620008D01*
X105317597Y-32146679D01*
X105048294Y-31976301D01*
X104224594Y-32800000D01*
X102315406Y-32800000D01*
X101491706Y-31976301D01*
X101222403Y-32146679D01*
X101128252Y-32979992D01*
X70801966Y-32979992D01*
X70679372Y-32857398D01*
X70400775Y-32742000D01*
X69564500Y-32742000D01*
X69375000Y-32931500D01*
X67625000Y-32931500D01*
X67435500Y-32742000D01*
X66599225Y-32742000D01*
X66320628Y-32857398D01*
X66107399Y-33070627D01*
X65992000Y-33349224D01*
X35781696Y-33349224D01*
X35782482Y-32449054D01*
X35359840Y-31426182D01*
X34759706Y-30825000D01*
X102570750Y-30825000D01*
X102446301Y-31021706D01*
X102446301Y-31021706D01*
G37*
X102446301Y-31021706D02*
X103270000Y-31845406D01*
X104093699Y-31021706D01*
X103969250Y-30825000D01*
X114570750Y-30825000D01*
X114446301Y-31021706D01*
X115270000Y-31845406D01*
X116093699Y-31021706D01*
X115969250Y-30825000D01*
X125241019Y-30825000D01*
X124642910Y-31422066D01*
X124218484Y-32444198D01*
X124217518Y-33550946D01*
X124640160Y-34573818D01*
X125422066Y-35357090D01*
X126444198Y-35781516D01*
X127550946Y-35782482D01*
X128573818Y-35359840D01*
X129175000Y-34759706D01*
X129175000Y-125241019D01*
X128577934Y-124642910D01*
X127555802Y-124218484D01*
X126449054Y-124217518D01*
X125426182Y-124640160D01*
X124642910Y-125422066D01*
X124218484Y-126444198D01*
X124217518Y-127550946D01*
X124640160Y-128573818D01*
X125240294Y-129175000D01*
X115411335Y-129175000D01*
X115703981Y-129116789D01*
X116271722Y-128737437D01*
X116651074Y-128169696D01*
X116784285Y-127500000D01*
X116651074Y-126830304D01*
X116271722Y-126262563D01*
X115703981Y-125883211D01*
X115034285Y-125750000D01*
X114965715Y-125750000D01*
X114296019Y-125883211D01*
X113728278Y-126262563D01*
X113348926Y-126830304D01*
X113215715Y-127500000D01*
X113348926Y-128169696D01*
X113728278Y-128737437D01*
X114296019Y-129116789D01*
X114588665Y-129175000D01*
X106411335Y-129175000D01*
X106703981Y-129116789D01*
X107271722Y-128737437D01*
X107651074Y-128169696D01*
X107784285Y-127500000D01*
X107651074Y-126830304D01*
X107271722Y-126262563D01*
X106703981Y-125883211D01*
X106034285Y-125750000D01*
X105965715Y-125750000D01*
X105296019Y-125883211D01*
X104728278Y-126262563D01*
X104348926Y-126830304D01*
X104215715Y-127500000D01*
X104348926Y-128169696D01*
X104728278Y-128737437D01*
X105296019Y-129116789D01*
X105588665Y-129175000D01*
X34758981Y-129175000D01*
X35357090Y-128577934D01*
X35781516Y-127555802D01*
X35781774Y-127260000D01*
X51659634Y-127260000D01*
X51777621Y-127853159D01*
X52113618Y-128356016D01*
X52616475Y-128692013D01*
X53209634Y-128810000D01*
X53270366Y-128810000D01*
X53863525Y-128692013D01*
X54366382Y-128356016D01*
X54702379Y-127853159D01*
X54759307Y-127566961D01*
X59309732Y-127566961D01*
X59545208Y-128136857D01*
X59980849Y-128573260D01*
X60550333Y-128809730D01*
X61166961Y-128810268D01*
X61736857Y-128574792D01*
X62173260Y-128139151D01*
X62409730Y-127569667D01*
X62410268Y-126953039D01*
X62174792Y-126383143D01*
X61822266Y-126030000D01*
X72409634Y-126030000D01*
X72527621Y-126623159D01*
X72863618Y-127126016D01*
X73366475Y-127462013D01*
X73959634Y-127580000D01*
X74020366Y-127580000D01*
X74613525Y-127462013D01*
X75116382Y-127126016D01*
X75452379Y-126623159D01*
X75509307Y-126336961D01*
X80059732Y-126336961D01*
X80295208Y-126906857D01*
X80730849Y-127343260D01*
X81300333Y-127579730D01*
X81916961Y-127580268D01*
X82486857Y-127344792D01*
X82923260Y-126909151D01*
X83159730Y-126339667D01*
X83160177Y-125826961D01*
X94553699Y-125826961D01*
X94747361Y-126101784D01*
X95641149Y-126191592D01*
X96092639Y-126101784D01*
X96286301Y-125826961D01*
X95420000Y-124960660D01*
X94553699Y-125826961D01*
X83160177Y-125826961D01*
X83160268Y-125723039D01*
X82924792Y-125153143D01*
X82489151Y-124716740D01*
X81919667Y-124480270D01*
X81303039Y-124479732D01*
X80733143Y-124715208D01*
X80296740Y-125150849D01*
X80060270Y-125720333D01*
X80059732Y-126336961D01*
X75509307Y-126336961D01*
X75570366Y-126030000D01*
X75452379Y-125436841D01*
X75116382Y-124933984D01*
X74613525Y-124597987D01*
X74020366Y-124480000D01*
X73959634Y-124480000D01*
X73366475Y-124597987D01*
X72863618Y-124933984D01*
X72527621Y-125436841D01*
X72409634Y-126030000D01*
X61822266Y-126030000D01*
X61739151Y-125946740D01*
X61169667Y-125710270D01*
X60553039Y-125709732D01*
X59983143Y-125945208D01*
X59546740Y-126380849D01*
X59310270Y-126950333D01*
X59309732Y-127566961D01*
X54759307Y-127566961D01*
X54820366Y-127260000D01*
X54702379Y-126666841D01*
X54366382Y-126163984D01*
X53863525Y-125827987D01*
X53270366Y-125710000D01*
X53209634Y-125710000D01*
X52616475Y-125827987D01*
X52113618Y-126163984D01*
X51777621Y-126666841D01*
X51659634Y-127260000D01*
X35781774Y-127260000D01*
X35782482Y-126449054D01*
X35359840Y-125426182D01*
X34577934Y-124642910D01*
X33555802Y-124218484D01*
X32449054Y-124217518D01*
X31426182Y-124640160D01*
X30825000Y-125240294D01*
X30825000Y-123660805D01*
X65274881Y-123660805D01*
X65359983Y-123908846D01*
X65970064Y-124018239D01*
X66520017Y-123908846D01*
X66605119Y-123660805D01*
X65940000Y-122995685D01*
X65274881Y-123660805D01*
X30825000Y-123660805D01*
X30825000Y-122460064D01*
X64351761Y-122460064D01*
X64461154Y-123010017D01*
X64709195Y-123095119D01*
X65374315Y-122430000D01*
X66505685Y-122430000D01*
X67170805Y-123095119D01*
X67418846Y-123010017D01*
X67467807Y-122736961D01*
X69389732Y-122736961D01*
X69625208Y-123306857D01*
X70060849Y-123743260D01*
X70630333Y-123979730D01*
X71246961Y-123980268D01*
X71816857Y-123744792D01*
X72253260Y-123309151D01*
X72489730Y-122739667D01*
X72489782Y-122680000D01*
X72519634Y-122680000D01*
X72637621Y-123273159D01*
X72973618Y-123776016D01*
X73476475Y-124112013D01*
X74069634Y-124230000D01*
X74130366Y-124230000D01*
X74723525Y-124112013D01*
X75226382Y-123776016D01*
X75562379Y-123273159D01*
X75619307Y-122986961D01*
X80169732Y-122986961D01*
X80405208Y-123556857D01*
X80840849Y-123993260D01*
X81410333Y-124229730D01*
X82026961Y-124230268D01*
X82291049Y-124121149D01*
X93128408Y-124121149D01*
X93218216Y-124572639D01*
X93493039Y-124766301D01*
X94359340Y-123900000D01*
X96480660Y-123900000D01*
X97346961Y-124766301D01*
X97621784Y-124572639D01*
X97711592Y-123678851D01*
X97621784Y-123227361D01*
X97346961Y-123033699D01*
X96480660Y-123900000D01*
X94359340Y-123900000D01*
X93493039Y-123033699D01*
X93218216Y-123227361D01*
X93128408Y-124121149D01*
X82291049Y-124121149D01*
X82596857Y-123994792D01*
X83033260Y-123559151D01*
X83269730Y-122989667D01*
X83270268Y-122373039D01*
X83104992Y-121973039D01*
X94553699Y-121973039D01*
X95420000Y-122839340D01*
X95859340Y-122400000D01*
X98235307Y-122400000D01*
X98235307Y-125400000D01*
X98287604Y-125677933D01*
X98451862Y-125933198D01*
X98702492Y-126104446D01*
X99000000Y-126164693D01*
X102000000Y-126164693D01*
X102277933Y-126112396D01*
X102533198Y-125948138D01*
X102704446Y-125697508D01*
X102764693Y-125400000D01*
X102764693Y-124915822D01*
X108213010Y-124915822D01*
X108674668Y-125445041D01*
X109328546Y-125842226D01*
X109625000Y-125735084D01*
X109625000Y-124625000D01*
X111375000Y-124625000D01*
X111375000Y-125735084D01*
X111671454Y-125842226D01*
X112325332Y-125445041D01*
X112786990Y-124915822D01*
X112707723Y-124625000D01*
X111375000Y-124625000D01*
X109625000Y-124625000D01*
X108292277Y-124625000D01*
X108213010Y-124915822D01*
X102764693Y-124915822D01*
X102764693Y-123084178D01*
X108213010Y-123084178D01*
X108292277Y-123375000D01*
X109625000Y-123375000D01*
X109625000Y-122264916D01*
X111375000Y-122264916D01*
X111375000Y-123375000D01*
X112707723Y-123375000D01*
X112786990Y-123084178D01*
X112325332Y-122554959D01*
X111671454Y-122157774D01*
X111375000Y-122264916D01*
X109625000Y-122264916D01*
X109328546Y-122157774D01*
X108674668Y-122554959D01*
X108213010Y-123084178D01*
X102764693Y-123084178D01*
X102764693Y-122400000D01*
X102712396Y-122122067D01*
X102548138Y-121866802D01*
X102297508Y-121695554D01*
X102000000Y-121635307D01*
X99000000Y-121635307D01*
X98722067Y-121687604D01*
X98466802Y-121851862D01*
X98295554Y-122102492D01*
X98235307Y-122400000D01*
X95859340Y-122400000D01*
X96286301Y-121973039D01*
X96092639Y-121698216D01*
X95198851Y-121608408D01*
X94747361Y-121698216D01*
X94553699Y-121973039D01*
X83104992Y-121973039D01*
X83034792Y-121803143D01*
X82599151Y-121366740D01*
X82029667Y-121130270D01*
X81413039Y-121129732D01*
X80843143Y-121365208D01*
X80406740Y-121800849D01*
X80170270Y-122370333D01*
X80169732Y-122986961D01*
X75619307Y-122986961D01*
X75680366Y-122680000D01*
X75562379Y-122086841D01*
X75226382Y-121583984D01*
X74723525Y-121247987D01*
X74130366Y-121130000D01*
X74069634Y-121130000D01*
X73476475Y-121247987D01*
X72973618Y-121583984D01*
X72637621Y-122086841D01*
X72519634Y-122680000D01*
X72489782Y-122680000D01*
X72490268Y-122123039D01*
X72254792Y-121553143D01*
X71819151Y-121116740D01*
X71249667Y-120880270D01*
X70633039Y-120879732D01*
X70063143Y-121115208D01*
X69626740Y-121550849D01*
X69390270Y-122120333D01*
X69389732Y-122736961D01*
X67467807Y-122736961D01*
X67528239Y-122399936D01*
X67418846Y-121849983D01*
X67170805Y-121764881D01*
X66505685Y-122430000D01*
X65374315Y-122430000D01*
X64709195Y-121764881D01*
X64461154Y-121849983D01*
X64351761Y-122460064D01*
X30825000Y-122460064D01*
X30825000Y-121199195D01*
X65274881Y-121199195D01*
X65940000Y-121864315D01*
X66605119Y-121199195D01*
X66520017Y-120951154D01*
X65909936Y-120841761D01*
X65359983Y-120951154D01*
X65274881Y-121199195D01*
X30825000Y-121199195D01*
X30825000Y-116907942D01*
X40449818Y-116907942D01*
X40609334Y-117294000D01*
X40904446Y-117589628D01*
X41290226Y-117749818D01*
X41441802Y-117749950D01*
X42985042Y-119293190D01*
X43109334Y-119594000D01*
X43404446Y-119889628D01*
X43790226Y-120049818D01*
X44207942Y-120050182D01*
X44594000Y-119890666D01*
X44889628Y-119595554D01*
X45049818Y-119209774D01*
X45050182Y-118792058D01*
X44909269Y-118451022D01*
X108500000Y-118451022D01*
X108500000Y-119548978D01*
X108652241Y-120314345D01*
X109085786Y-120963192D01*
X109734633Y-121396737D01*
X110500000Y-121548978D01*
X111265367Y-121396737D01*
X111914214Y-120963192D01*
X112347759Y-120314345D01*
X112500000Y-119548978D01*
X112500000Y-118451022D01*
X112453195Y-118215715D01*
X125250000Y-118215715D01*
X125250000Y-118284285D01*
X125383211Y-118953981D01*
X125762563Y-119521722D01*
X126330304Y-119901074D01*
X127000000Y-120034285D01*
X127669696Y-119901074D01*
X128237437Y-119521722D01*
X128616789Y-118953981D01*
X128750000Y-118284285D01*
X128750000Y-118215715D01*
X128616789Y-117546019D01*
X128237437Y-116978278D01*
X127669696Y-116598926D01*
X127000000Y-116465715D01*
X126330304Y-116598926D01*
X125762563Y-116978278D01*
X125383211Y-117546019D01*
X125250000Y-118215715D01*
X112453195Y-118215715D01*
X112347759Y-117685655D01*
X111914214Y-117036808D01*
X111265367Y-116603263D01*
X110500000Y-116451022D01*
X109734633Y-116603263D01*
X109085786Y-117036808D01*
X108652241Y-117685655D01*
X108500000Y-118451022D01*
X44909269Y-118451022D01*
X44890666Y-118406000D01*
X44595554Y-118110372D01*
X44292809Y-117984661D01*
X42595109Y-116286961D01*
X68629732Y-116286961D01*
X68865208Y-116856857D01*
X69300849Y-117293260D01*
X69870333Y-117529730D01*
X70486961Y-117530268D01*
X71056857Y-117294792D01*
X71493260Y-116859151D01*
X71729730Y-116289667D01*
X71730000Y-115980000D01*
X76219634Y-115980000D01*
X76337621Y-116573159D01*
X76673618Y-117076016D01*
X77176475Y-117412013D01*
X77769634Y-117530000D01*
X77830366Y-117530000D01*
X78423525Y-117412013D01*
X78926382Y-117076016D01*
X78952477Y-117036961D01*
X96849732Y-117036961D01*
X97085208Y-117606857D01*
X97520849Y-118043260D01*
X98090333Y-118279730D01*
X98706961Y-118280268D01*
X99276857Y-118044792D01*
X99713260Y-117609151D01*
X99949730Y-117039667D01*
X99949732Y-117036961D01*
X101849732Y-117036961D01*
X102085208Y-117606857D01*
X102520849Y-118043260D01*
X103090333Y-118279730D01*
X103706961Y-118280268D01*
X104276857Y-118044792D01*
X104713260Y-117609151D01*
X104949730Y-117039667D01*
X104950268Y-116423039D01*
X104714792Y-115853143D01*
X104279151Y-115416740D01*
X103709667Y-115180270D01*
X103093039Y-115179732D01*
X102523143Y-115415208D01*
X102086740Y-115850849D01*
X101850270Y-116420333D01*
X101849732Y-117036961D01*
X99949732Y-117036961D01*
X99950268Y-116423039D01*
X99714792Y-115853143D01*
X99279151Y-115416740D01*
X98709667Y-115180270D01*
X98093039Y-115179732D01*
X97523143Y-115415208D01*
X97086740Y-115850849D01*
X96850270Y-116420333D01*
X96849732Y-117036961D01*
X78952477Y-117036961D01*
X79262379Y-116573159D01*
X79380366Y-115980000D01*
X79341969Y-115786961D01*
X85129732Y-115786961D01*
X85365208Y-116356857D01*
X85800849Y-116793260D01*
X86370333Y-117029730D01*
X86986961Y-117030268D01*
X87556857Y-116794792D01*
X87993260Y-116359151D01*
X88229730Y-115789667D01*
X88230000Y-115480000D01*
X92719634Y-115480000D01*
X92837621Y-116073159D01*
X93173618Y-116576016D01*
X93676475Y-116912013D01*
X94269634Y-117030000D01*
X94330366Y-117030000D01*
X94923525Y-116912013D01*
X95426382Y-116576016D01*
X95762379Y-116073159D01*
X95880366Y-115480000D01*
X95762379Y-114886841D01*
X95426382Y-114383984D01*
X95073119Y-114147942D01*
X112249818Y-114147942D01*
X112409334Y-114534000D01*
X112704446Y-114829628D01*
X113090226Y-114989818D01*
X113507942Y-114990182D01*
X113810905Y-114865000D01*
X113866852Y-114865000D01*
X114155041Y-115153189D01*
X114279334Y-115454000D01*
X114574446Y-115749628D01*
X114960226Y-115909818D01*
X115377942Y-115910182D01*
X115764000Y-115750666D01*
X116059628Y-115455554D01*
X116219818Y-115069774D01*
X116220149Y-114690299D01*
X116536808Y-115164214D01*
X117185655Y-115597759D01*
X117951022Y-115750000D01*
X119048978Y-115750000D01*
X119814345Y-115597759D01*
X120463192Y-115164214D01*
X120625398Y-114921454D01*
X121657774Y-114921454D01*
X122054959Y-115575332D01*
X122584178Y-116036990D01*
X122875000Y-115957723D01*
X122875000Y-114625000D01*
X124125000Y-114625000D01*
X124125000Y-115957723D01*
X124415822Y-116036990D01*
X124945041Y-115575332D01*
X125342226Y-114921454D01*
X125235084Y-114625000D01*
X124125000Y-114625000D01*
X122875000Y-114625000D01*
X121764916Y-114625000D01*
X121657774Y-114921454D01*
X120625398Y-114921454D01*
X120896737Y-114515367D01*
X121048978Y-113750000D01*
X120896737Y-112984633D01*
X120625399Y-112578546D01*
X121657774Y-112578546D01*
X121764916Y-112875000D01*
X122875000Y-112875000D01*
X122875000Y-111542277D01*
X124125000Y-111542277D01*
X124125000Y-112875000D01*
X125235084Y-112875000D01*
X125342226Y-112578546D01*
X124945041Y-111924668D01*
X124415822Y-111463010D01*
X124125000Y-111542277D01*
X122875000Y-111542277D01*
X122584178Y-111463010D01*
X122054959Y-111924668D01*
X121657774Y-112578546D01*
X120625399Y-112578546D01*
X120463192Y-112335786D01*
X119814345Y-111902241D01*
X119048978Y-111750000D01*
X117951022Y-111750000D01*
X117185655Y-111902241D01*
X116536808Y-112335786D01*
X116103263Y-112984633D01*
X115951022Y-113750000D01*
X116051918Y-114257236D01*
X115765554Y-113970372D01*
X115462808Y-113844661D01*
X114904074Y-113285926D01*
X114603983Y-113085411D01*
X114250000Y-113015000D01*
X113810369Y-113015000D01*
X113509774Y-112890182D01*
X113092058Y-112889818D01*
X112706000Y-113049334D01*
X112410372Y-113344446D01*
X112250182Y-113730226D01*
X112249818Y-114147942D01*
X95073119Y-114147942D01*
X94923525Y-114047987D01*
X94330366Y-113930000D01*
X94269634Y-113930000D01*
X93676475Y-114047987D01*
X93173618Y-114383984D01*
X92837621Y-114886841D01*
X92719634Y-115480000D01*
X88230000Y-115480000D01*
X88230268Y-115173039D01*
X87994792Y-114603143D01*
X87559151Y-114166740D01*
X86989667Y-113930270D01*
X86373039Y-113929732D01*
X85803143Y-114165208D01*
X85366740Y-114600849D01*
X85130270Y-115170333D01*
X85129732Y-115786961D01*
X79341969Y-115786961D01*
X79262379Y-115386841D01*
X78926382Y-114883984D01*
X78423525Y-114547987D01*
X77830366Y-114430000D01*
X77769634Y-114430000D01*
X77176475Y-114547987D01*
X76673618Y-114883984D01*
X76337621Y-115386841D01*
X76219634Y-115980000D01*
X71730000Y-115980000D01*
X71730268Y-115673039D01*
X71494792Y-115103143D01*
X71059151Y-114666740D01*
X70489667Y-114430270D01*
X69873039Y-114429732D01*
X69303143Y-114665208D01*
X68866740Y-115100849D01*
X68630270Y-115670333D01*
X68629732Y-116286961D01*
X42595109Y-116286961D01*
X42354074Y-116045926D01*
X42283869Y-115999017D01*
X42095554Y-115810372D01*
X41709774Y-115650182D01*
X41292058Y-115649818D01*
X40906000Y-115809334D01*
X40610372Y-116104446D01*
X40450182Y-116490226D01*
X40449818Y-116907942D01*
X30825000Y-116907942D01*
X30825000Y-110965715D01*
X30950000Y-110965715D01*
X30950000Y-111034285D01*
X31083211Y-111703981D01*
X31462563Y-112271722D01*
X32030304Y-112651074D01*
X32700000Y-112784285D01*
X33369696Y-112651074D01*
X33937437Y-112271722D01*
X33953981Y-112246961D01*
X76139732Y-112246961D01*
X76375208Y-112816857D01*
X76810849Y-113253260D01*
X77380333Y-113489730D01*
X77996961Y-113490268D01*
X78566857Y-113254792D01*
X79003260Y-112819151D01*
X79239730Y-112249667D01*
X79240000Y-111940000D01*
X83729634Y-111940000D01*
X83847621Y-112533159D01*
X84183618Y-113036016D01*
X84686475Y-113372013D01*
X85279634Y-113490000D01*
X85340366Y-113490000D01*
X85933525Y-113372013D01*
X86436382Y-113036016D01*
X86772379Y-112533159D01*
X86890366Y-111940000D01*
X86772379Y-111346841D01*
X86436382Y-110843984D01*
X85933525Y-110507987D01*
X85340366Y-110390000D01*
X85279634Y-110390000D01*
X84686475Y-110507987D01*
X84183618Y-110843984D01*
X83847621Y-111346841D01*
X83729634Y-111940000D01*
X79240000Y-111940000D01*
X79240268Y-111633039D01*
X79004792Y-111063143D01*
X78569151Y-110626740D01*
X77999667Y-110390270D01*
X77383039Y-110389732D01*
X76813143Y-110625208D01*
X76376740Y-111060849D01*
X76140270Y-111630333D01*
X76139732Y-112246961D01*
X33953981Y-112246961D01*
X34316789Y-111703981D01*
X34450000Y-111034285D01*
X34450000Y-110965715D01*
X34316789Y-110296019D01*
X33937437Y-109728278D01*
X33369696Y-109348926D01*
X32700000Y-109215715D01*
X32030304Y-109348926D01*
X31462563Y-109728278D01*
X31083211Y-110296019D01*
X30950000Y-110965715D01*
X30825000Y-110965715D01*
X30825000Y-107671454D01*
X34357774Y-107671454D01*
X34754959Y-108325332D01*
X35284178Y-108786990D01*
X35575000Y-108707723D01*
X35575000Y-107375000D01*
X36825000Y-107375000D01*
X36825000Y-108707723D01*
X37115822Y-108786990D01*
X37645041Y-108325332D01*
X38042226Y-107671454D01*
X37935084Y-107375000D01*
X36825000Y-107375000D01*
X35575000Y-107375000D01*
X34464916Y-107375000D01*
X34357774Y-107671454D01*
X30825000Y-107671454D01*
X30825000Y-106500000D01*
X38651022Y-106500000D01*
X38803263Y-107265367D01*
X39236808Y-107914214D01*
X39885655Y-108347759D01*
X40651022Y-108500000D01*
X41748978Y-108500000D01*
X42065896Y-108436961D01*
X85849732Y-108436961D01*
X86085208Y-109006857D01*
X86520849Y-109443260D01*
X87090333Y-109679730D01*
X87706961Y-109680268D01*
X88276857Y-109444792D01*
X88713260Y-109009151D01*
X88949730Y-108439667D01*
X88950000Y-108130000D01*
X93439634Y-108130000D01*
X93557621Y-108723159D01*
X93893618Y-109226016D01*
X94396475Y-109562013D01*
X94989634Y-109680000D01*
X95050366Y-109680000D01*
X95643525Y-109562013D01*
X96146382Y-109226016D01*
X96153264Y-109215715D01*
X125250000Y-109215715D01*
X125250000Y-109284285D01*
X125383211Y-109953981D01*
X125762563Y-110521722D01*
X126330304Y-110901074D01*
X127000000Y-111034285D01*
X127669696Y-110901074D01*
X128237437Y-110521722D01*
X128616789Y-109953981D01*
X128750000Y-109284285D01*
X128750000Y-109215715D01*
X128616789Y-108546019D01*
X128237437Y-107978278D01*
X127669696Y-107598926D01*
X127000000Y-107465715D01*
X126330304Y-107598926D01*
X125762563Y-107978278D01*
X125383211Y-108546019D01*
X125250000Y-109215715D01*
X96153264Y-109215715D01*
X96482379Y-108723159D01*
X96600366Y-108130000D01*
X96482379Y-107536841D01*
X96146382Y-107033984D01*
X95956278Y-106906961D01*
X122033699Y-106906961D01*
X122227361Y-107181784D01*
X123121149Y-107271592D01*
X123572639Y-107181784D01*
X123766301Y-106906961D01*
X122900000Y-106040660D01*
X122033699Y-106906961D01*
X95956278Y-106906961D01*
X95643525Y-106697987D01*
X95050366Y-106580000D01*
X94989634Y-106580000D01*
X94396475Y-106697987D01*
X93893618Y-107033984D01*
X93557621Y-107536841D01*
X93439634Y-108130000D01*
X88950000Y-108130000D01*
X88950268Y-107823039D01*
X88714792Y-107253143D01*
X88279151Y-106816740D01*
X87709667Y-106580270D01*
X87093039Y-106579732D01*
X86523143Y-106815208D01*
X86086740Y-107250849D01*
X85850270Y-107820333D01*
X85849732Y-108436961D01*
X42065896Y-108436961D01*
X42514345Y-108347759D01*
X43163192Y-107914214D01*
X43596737Y-107265367D01*
X43748978Y-106500000D01*
X43596737Y-105734633D01*
X43177341Y-105106961D01*
X81119732Y-105106961D01*
X81355208Y-105676857D01*
X81790849Y-106113260D01*
X82360333Y-106349730D01*
X82976961Y-106350268D01*
X83546857Y-106114792D01*
X83983260Y-105679151D01*
X84219730Y-105109667D01*
X84220000Y-104800000D01*
X88709634Y-104800000D01*
X88827621Y-105393159D01*
X89163618Y-105896016D01*
X89666475Y-106232013D01*
X90259634Y-106350000D01*
X90320366Y-106350000D01*
X90913525Y-106232013D01*
X91416382Y-105896016D01*
X91752379Y-105393159D01*
X91790572Y-105201149D01*
X120608408Y-105201149D01*
X120698216Y-105652639D01*
X120973039Y-105846301D01*
X121839340Y-104980000D01*
X123960660Y-104980000D01*
X124826961Y-105846301D01*
X125101784Y-105652639D01*
X125191592Y-104758851D01*
X125101784Y-104307361D01*
X124826961Y-104113699D01*
X123960660Y-104980000D01*
X121839340Y-104980000D01*
X120973039Y-104113699D01*
X120698216Y-104307361D01*
X120608408Y-105201149D01*
X91790572Y-105201149D01*
X91870366Y-104800000D01*
X91752379Y-104206841D01*
X91416382Y-103703984D01*
X90913525Y-103367987D01*
X90320366Y-103250000D01*
X90259634Y-103250000D01*
X89666475Y-103367987D01*
X89163618Y-103703984D01*
X88827621Y-104206841D01*
X88709634Y-104800000D01*
X84220000Y-104800000D01*
X84220268Y-104493039D01*
X83984792Y-103923143D01*
X83549151Y-103486740D01*
X82979667Y-103250270D01*
X82363039Y-103249732D01*
X81793143Y-103485208D01*
X81356740Y-103920849D01*
X81120270Y-104490333D01*
X81119732Y-105106961D01*
X43177341Y-105106961D01*
X43163192Y-105085786D01*
X42514345Y-104652241D01*
X41748978Y-104500000D01*
X40651022Y-104500000D01*
X39885655Y-104652241D01*
X39236808Y-105085786D01*
X38803263Y-105734633D01*
X38651022Y-106500000D01*
X30825000Y-106500000D01*
X30825000Y-105328546D01*
X34357774Y-105328546D01*
X34464916Y-105625000D01*
X35575000Y-105625000D01*
X35575000Y-104292277D01*
X36825000Y-104292277D01*
X36825000Y-105625000D01*
X37935084Y-105625000D01*
X38042226Y-105328546D01*
X37645041Y-104674668D01*
X37115822Y-104213010D01*
X36825000Y-104292277D01*
X35575000Y-104292277D01*
X35284178Y-104213010D01*
X34754959Y-104674668D01*
X34357774Y-105328546D01*
X30825000Y-105328546D01*
X30825000Y-101965715D01*
X30950000Y-101965715D01*
X30950000Y-102034285D01*
X31083211Y-102703981D01*
X31462563Y-103271722D01*
X32030304Y-103651074D01*
X32700000Y-103784285D01*
X33369696Y-103651074D01*
X33937437Y-103271722D01*
X34316789Y-102703981D01*
X34450000Y-102034285D01*
X34450000Y-101965715D01*
X34426379Y-101846961D01*
X91069732Y-101846961D01*
X91305208Y-102416857D01*
X91740849Y-102853260D01*
X92310333Y-103089730D01*
X92926961Y-103090268D01*
X93017062Y-103053039D01*
X122033699Y-103053039D01*
X122900000Y-103919340D01*
X123766301Y-103053039D01*
X123572639Y-102778216D01*
X122678851Y-102688408D01*
X122227361Y-102778216D01*
X122033699Y-103053039D01*
X93017062Y-103053039D01*
X93496857Y-102854792D01*
X93933260Y-102419151D01*
X94169730Y-101849667D01*
X94170268Y-101233039D01*
X94097515Y-101056961D01*
X95209732Y-101056961D01*
X95445208Y-101626857D01*
X95880849Y-102063260D01*
X96450333Y-102299730D01*
X97066961Y-102300268D01*
X97636857Y-102064792D01*
X98073260Y-101629151D01*
X98309730Y-101059667D01*
X98309732Y-101056961D01*
X100209732Y-101056961D01*
X100445208Y-101626857D01*
X100880849Y-102063260D01*
X101450333Y-102299730D01*
X102066961Y-102300268D01*
X102636857Y-102064792D01*
X103073260Y-101629151D01*
X103309730Y-101059667D01*
X103310268Y-100443039D01*
X103074792Y-99873143D01*
X102639151Y-99436740D01*
X102069667Y-99200270D01*
X101453039Y-99199732D01*
X100883143Y-99435208D01*
X100446740Y-99870849D01*
X100210270Y-100440333D01*
X100209732Y-101056961D01*
X98309732Y-101056961D01*
X98310268Y-100443039D01*
X98074792Y-99873143D01*
X97639151Y-99436740D01*
X97069667Y-99200270D01*
X96453039Y-99199732D01*
X95883143Y-99435208D01*
X95446740Y-99870849D01*
X95210270Y-100440333D01*
X95209732Y-101056961D01*
X94097515Y-101056961D01*
X93934792Y-100663143D01*
X93499151Y-100226740D01*
X92929667Y-99990270D01*
X92313039Y-99989732D01*
X91743143Y-100225208D01*
X91306740Y-100660849D01*
X91070270Y-101230333D01*
X91069732Y-101846961D01*
X34426379Y-101846961D01*
X34316789Y-101296019D01*
X33937437Y-100728278D01*
X33533382Y-100458297D01*
X33569696Y-100451074D01*
X34137437Y-100071722D01*
X34516789Y-99503981D01*
X34650000Y-98834285D01*
X34650000Y-98765715D01*
X34544825Y-98236961D01*
X87329732Y-98236961D01*
X87565208Y-98806857D01*
X88000849Y-99243260D01*
X88570333Y-99479730D01*
X89186961Y-99480268D01*
X89756857Y-99244792D01*
X90193260Y-98809151D01*
X90363154Y-98400000D01*
X120635307Y-98400000D01*
X120635307Y-101400000D01*
X120687604Y-101677933D01*
X120851862Y-101933198D01*
X121102492Y-102104446D01*
X121400000Y-102164693D01*
X124400000Y-102164693D01*
X124677933Y-102112396D01*
X124933198Y-101948138D01*
X125104446Y-101697508D01*
X125164693Y-101400000D01*
X125164693Y-98400000D01*
X125112396Y-98122067D01*
X124948138Y-97866802D01*
X124697508Y-97695554D01*
X124400000Y-97635307D01*
X121400000Y-97635307D01*
X121122067Y-97687604D01*
X120866802Y-97851862D01*
X120695554Y-98102492D01*
X120635307Y-98400000D01*
X90363154Y-98400000D01*
X90429730Y-98239667D01*
X90430268Y-97623039D01*
X90194792Y-97053143D01*
X89759151Y-96616740D01*
X89189667Y-96380270D01*
X88573039Y-96379732D01*
X88003143Y-96615208D01*
X87566740Y-97050849D01*
X87330270Y-97620333D01*
X87329732Y-98236961D01*
X34544825Y-98236961D01*
X34516789Y-98096019D01*
X34137437Y-97528278D01*
X33569696Y-97148926D01*
X32900000Y-97015715D01*
X32230304Y-97148926D01*
X31662563Y-97528278D01*
X31283211Y-98096019D01*
X31150000Y-98765715D01*
X31150000Y-98834285D01*
X31283211Y-99503981D01*
X31662563Y-100071722D01*
X32066618Y-100341703D01*
X32030304Y-100348926D01*
X31462563Y-100728278D01*
X31083211Y-101296019D01*
X30950000Y-101965715D01*
X30825000Y-101965715D01*
X30825000Y-95471454D01*
X34557774Y-95471454D01*
X34954959Y-96125332D01*
X35484178Y-96586990D01*
X35775000Y-96507723D01*
X35775000Y-95175000D01*
X37025000Y-95175000D01*
X37025000Y-96507723D01*
X37315822Y-96586990D01*
X37845041Y-96125332D01*
X38242226Y-95471454D01*
X38135084Y-95175000D01*
X37025000Y-95175000D01*
X35775000Y-95175000D01*
X34664916Y-95175000D01*
X34557774Y-95471454D01*
X30825000Y-95471454D01*
X30825000Y-94300000D01*
X38851022Y-94300000D01*
X39003263Y-95065367D01*
X39436808Y-95714214D01*
X40085655Y-96147759D01*
X40851022Y-96300000D01*
X41948978Y-96300000D01*
X42714345Y-96147759D01*
X43363192Y-95714214D01*
X43796737Y-95065367D01*
X43948978Y-94300000D01*
X43921291Y-94160805D01*
X88214881Y-94160805D01*
X88299983Y-94408846D01*
X88910064Y-94518239D01*
X89460017Y-94408846D01*
X89545119Y-94160805D01*
X89273949Y-93889634D01*
X91070000Y-93889634D01*
X91070000Y-93950366D01*
X91187987Y-94543525D01*
X91523984Y-95046382D01*
X92026841Y-95382379D01*
X92620000Y-95500366D01*
X93213159Y-95382379D01*
X93387759Y-95265715D01*
X124550000Y-95265715D01*
X124550000Y-95334285D01*
X124683211Y-96003981D01*
X125062563Y-96571722D01*
X125630304Y-96951074D01*
X126300000Y-97084285D01*
X126969696Y-96951074D01*
X127537437Y-96571722D01*
X127916789Y-96003981D01*
X128050000Y-95334285D01*
X128050000Y-95265715D01*
X127916789Y-94596019D01*
X127537437Y-94028278D01*
X126969696Y-93648926D01*
X126300000Y-93515715D01*
X125630304Y-93648926D01*
X125062563Y-94028278D01*
X124683211Y-94596019D01*
X124550000Y-95265715D01*
X93387759Y-95265715D01*
X93716016Y-95046382D01*
X94052013Y-94543525D01*
X94170000Y-93950366D01*
X94170000Y-93889634D01*
X94052013Y-93296475D01*
X93716016Y-92793618D01*
X93213159Y-92457621D01*
X92620000Y-92339634D01*
X92026841Y-92457621D01*
X91523984Y-92793618D01*
X91187987Y-93296475D01*
X91070000Y-93889634D01*
X89273949Y-93889634D01*
X88880000Y-93495685D01*
X88214881Y-94160805D01*
X43921291Y-94160805D01*
X43796737Y-93534633D01*
X43412823Y-92960064D01*
X87291761Y-92960064D01*
X87401154Y-93510017D01*
X87649195Y-93595119D01*
X88314315Y-92930000D01*
X89445685Y-92930000D01*
X90110805Y-93595119D01*
X90358846Y-93510017D01*
X90468239Y-92899936D01*
X90358846Y-92349983D01*
X90110805Y-92264881D01*
X89445685Y-92930000D01*
X88314315Y-92930000D01*
X87649195Y-92264881D01*
X87401154Y-92349983D01*
X87291761Y-92960064D01*
X43412823Y-92960064D01*
X43363192Y-92885786D01*
X42714345Y-92452241D01*
X41948978Y-92300000D01*
X40851022Y-92300000D01*
X40085655Y-92452241D01*
X39436808Y-92885786D01*
X39003263Y-93534633D01*
X38851022Y-94300000D01*
X30825000Y-94300000D01*
X30825000Y-93128546D01*
X34557774Y-93128546D01*
X34664916Y-93425000D01*
X35775000Y-93425000D01*
X35775000Y-92092277D01*
X37025000Y-92092277D01*
X37025000Y-93425000D01*
X38135084Y-93425000D01*
X38242226Y-93128546D01*
X37845041Y-92474668D01*
X37315822Y-92013010D01*
X37025000Y-92092277D01*
X35775000Y-92092277D01*
X35484178Y-92013010D01*
X34954959Y-92474668D01*
X34557774Y-93128546D01*
X30825000Y-93128546D01*
X30825000Y-91699195D01*
X88214881Y-91699195D01*
X88880000Y-92364315D01*
X89545119Y-91699195D01*
X89460017Y-91451154D01*
X88849936Y-91341761D01*
X88299983Y-91451154D01*
X88214881Y-91699195D01*
X30825000Y-91699195D01*
X30825000Y-89765715D01*
X31150000Y-89765715D01*
X31150000Y-89834285D01*
X31283211Y-90503981D01*
X31662563Y-91071722D01*
X32230304Y-91451074D01*
X32900000Y-91584285D01*
X33569696Y-91451074D01*
X34137437Y-91071722D01*
X34318995Y-90800000D01*
X115251022Y-90800000D01*
X115403263Y-91565367D01*
X115836808Y-92214214D01*
X116485655Y-92647759D01*
X117251022Y-92800000D01*
X118348978Y-92800000D01*
X119114345Y-92647759D01*
X119763192Y-92214214D01*
X119925398Y-91971454D01*
X120957774Y-91971454D01*
X121354959Y-92625332D01*
X121884178Y-93086990D01*
X122175000Y-93007723D01*
X122175000Y-91675000D01*
X123425000Y-91675000D01*
X123425000Y-93007723D01*
X123715822Y-93086990D01*
X124245041Y-92625332D01*
X124642226Y-91971454D01*
X124535084Y-91675000D01*
X123425000Y-91675000D01*
X122175000Y-91675000D01*
X121064916Y-91675000D01*
X120957774Y-91971454D01*
X119925398Y-91971454D01*
X120196737Y-91565367D01*
X120348978Y-90800000D01*
X120196737Y-90034633D01*
X119925399Y-89628546D01*
X120957774Y-89628546D01*
X121064916Y-89925000D01*
X122175000Y-89925000D01*
X122175000Y-88592277D01*
X123425000Y-88592277D01*
X123425000Y-89925000D01*
X124535084Y-89925000D01*
X124642226Y-89628546D01*
X124245041Y-88974668D01*
X123715822Y-88513010D01*
X123425000Y-88592277D01*
X122175000Y-88592277D01*
X121884178Y-88513010D01*
X121354959Y-88974668D01*
X120957774Y-89628546D01*
X119925399Y-89628546D01*
X119763192Y-89385786D01*
X119114345Y-88952241D01*
X118348978Y-88800000D01*
X117251022Y-88800000D01*
X116485655Y-88952241D01*
X115836808Y-89385786D01*
X115403263Y-90034633D01*
X115251022Y-90800000D01*
X34318995Y-90800000D01*
X34516789Y-90503981D01*
X34650000Y-89834285D01*
X34650000Y-89765715D01*
X34516789Y-89096019D01*
X34137437Y-88528278D01*
X33569696Y-88148926D01*
X32900000Y-88015715D01*
X32230304Y-88148926D01*
X31662563Y-88528278D01*
X31283211Y-89096019D01*
X31150000Y-89765715D01*
X30825000Y-89765715D01*
X30825000Y-84100000D01*
X34135307Y-84100000D01*
X34135307Y-87100000D01*
X34187604Y-87377933D01*
X34351862Y-87633198D01*
X34602492Y-87804446D01*
X34900000Y-87864693D01*
X37900000Y-87864693D01*
X38177933Y-87812396D01*
X38433198Y-87648138D01*
X38604446Y-87397508D01*
X38664693Y-87100000D01*
X38664693Y-85682369D01*
X48654759Y-85682369D01*
X48947311Y-86120255D01*
X49457626Y-86485272D01*
X49695000Y-86381350D01*
X49695000Y-85445000D01*
X50545000Y-85445000D01*
X50545000Y-86381350D01*
X50782374Y-86485272D01*
X51089327Y-86265715D01*
X124550000Y-86265715D01*
X124550000Y-86334285D01*
X124683211Y-87003981D01*
X125062563Y-87571722D01*
X125630304Y-87951074D01*
X126300000Y-88084285D01*
X126969696Y-87951074D01*
X127537437Y-87571722D01*
X127916789Y-87003981D01*
X128050000Y-86334285D01*
X128050000Y-86265715D01*
X127916789Y-85596019D01*
X127537437Y-85028278D01*
X126969696Y-84648926D01*
X126300000Y-84515715D01*
X125630304Y-84648926D01*
X125062563Y-85028278D01*
X124683211Y-85596019D01*
X124550000Y-86265715D01*
X51089327Y-86265715D01*
X51292689Y-86120255D01*
X51585241Y-85682369D01*
X51473336Y-85445000D01*
X50545000Y-85445000D01*
X49695000Y-85445000D01*
X48766664Y-85445000D01*
X48654759Y-85682369D01*
X38664693Y-85682369D01*
X38664693Y-84100000D01*
X38612396Y-83822067D01*
X38448138Y-83566802D01*
X38197508Y-83395554D01*
X37900000Y-83335307D01*
X34900000Y-83335307D01*
X34622067Y-83387604D01*
X34366802Y-83551862D01*
X34195554Y-83802492D01*
X34135307Y-84100000D01*
X30825000Y-84100000D01*
X30825000Y-82446961D01*
X35533699Y-82446961D01*
X35727361Y-82721784D01*
X36621149Y-82811592D01*
X37072639Y-82721784D01*
X37266301Y-82446961D01*
X36449340Y-81630000D01*
X48505307Y-81630000D01*
X48505307Y-83330000D01*
X48557604Y-83607933D01*
X48721862Y-83863198D01*
X48869998Y-83964415D01*
X48869998Y-84035466D01*
X48654759Y-84357631D01*
X48766664Y-84595000D01*
X49695000Y-84595000D01*
X49695000Y-84170000D01*
X50545000Y-84170000D01*
X50545000Y-84595000D01*
X51473336Y-84595000D01*
X51585241Y-84357631D01*
X51556426Y-84314500D01*
X96992000Y-84314500D01*
X96992000Y-84700775D01*
X97107398Y-84979372D01*
X97320627Y-85192601D01*
X97599224Y-85308000D01*
X97985500Y-85308000D01*
X98175000Y-85118500D01*
X98175000Y-84125000D01*
X99025000Y-84125000D01*
X99025000Y-85118500D01*
X99214500Y-85308000D01*
X99600776Y-85308000D01*
X99879373Y-85192601D01*
X100092602Y-84979372D01*
X100208000Y-84700775D01*
X100208000Y-84314500D01*
X100018500Y-84125000D01*
X99025000Y-84125000D01*
X98175000Y-84125000D01*
X97181500Y-84125000D01*
X96992000Y-84314500D01*
X51556426Y-84314500D01*
X51370002Y-84035466D01*
X51370002Y-83963846D01*
X51503198Y-83878138D01*
X51674446Y-83627508D01*
X51734693Y-83330000D01*
X51734693Y-81630000D01*
X51682396Y-81352067D01*
X51558805Y-81160000D01*
X96968654Y-81160000D01*
X97090447Y-81772293D01*
X97349998Y-82160739D01*
X97349998Y-82195233D01*
X97320627Y-82207399D01*
X97107398Y-82420628D01*
X96992000Y-82699225D01*
X96992000Y-83085500D01*
X97181500Y-83275000D01*
X98175000Y-83275000D01*
X98175000Y-82850000D01*
X99025000Y-82850000D01*
X99025000Y-83275000D01*
X100018500Y-83275000D01*
X100208000Y-83085500D01*
X100208000Y-82699225D01*
X100152699Y-82565715D01*
X124650000Y-82565715D01*
X124650000Y-82634285D01*
X124783211Y-83303981D01*
X125162563Y-83871722D01*
X125730304Y-84251074D01*
X126400000Y-84384285D01*
X127069696Y-84251074D01*
X127637437Y-83871722D01*
X128016789Y-83303981D01*
X128150000Y-82634285D01*
X128150000Y-82565715D01*
X128016789Y-81896019D01*
X127637437Y-81328278D01*
X127069696Y-80948926D01*
X126400000Y-80815715D01*
X125730304Y-80948926D01*
X125162563Y-81328278D01*
X124783211Y-81896019D01*
X124650000Y-82565715D01*
X100152699Y-82565715D01*
X100092602Y-82420628D01*
X99879373Y-82207399D01*
X99850002Y-82195233D01*
X99850002Y-82160739D01*
X100109553Y-81772293D01*
X100231346Y-81160000D01*
X100109553Y-80547707D01*
X99762717Y-80028629D01*
X99243639Y-79681793D01*
X98631346Y-79560000D01*
X98568654Y-79560000D01*
X97956361Y-79681793D01*
X97437283Y-80028629D01*
X97090447Y-80547707D01*
X96968654Y-81160000D01*
X51558805Y-81160000D01*
X51518138Y-81096802D01*
X51267508Y-80925554D01*
X50970000Y-80865307D01*
X49270000Y-80865307D01*
X48992067Y-80917604D01*
X48736802Y-81081862D01*
X48565554Y-81332492D01*
X48505307Y-81630000D01*
X36449340Y-81630000D01*
X36400000Y-81580660D01*
X35533699Y-82446961D01*
X30825000Y-82446961D01*
X30825000Y-80741149D01*
X34108408Y-80741149D01*
X34198216Y-81192639D01*
X34473039Y-81386301D01*
X35339340Y-80520000D01*
X37460660Y-80520000D01*
X38326961Y-81386301D01*
X38601784Y-81192639D01*
X38691592Y-80298851D01*
X38601784Y-79847361D01*
X38326961Y-79653699D01*
X37460660Y-80520000D01*
X35339340Y-80520000D01*
X34473039Y-79653699D01*
X34198216Y-79847361D01*
X34108408Y-80741149D01*
X30825000Y-80741149D01*
X30825000Y-78593039D01*
X35533699Y-78593039D01*
X36400000Y-79459340D01*
X37266301Y-78593039D01*
X37072639Y-78318216D01*
X36178851Y-78228408D01*
X35727361Y-78318216D01*
X35533699Y-78593039D01*
X30825000Y-78593039D01*
X30825000Y-76661335D01*
X30883211Y-76953981D01*
X31262563Y-77521722D01*
X31830304Y-77901074D01*
X32500000Y-78034285D01*
X33169696Y-77901074D01*
X33737437Y-77521722D01*
X34116789Y-76953981D01*
X34250000Y-76284285D01*
X34250000Y-76215715D01*
X34116789Y-75546019D01*
X33737437Y-74978278D01*
X33169696Y-74598926D01*
X32500000Y-74465715D01*
X31830304Y-74598926D01*
X31262563Y-74978278D01*
X30883211Y-75546019D01*
X30825000Y-75838665D01*
X30825000Y-74289634D01*
X49850000Y-74289634D01*
X49850000Y-74350366D01*
X49967987Y-74943525D01*
X50303984Y-75446382D01*
X50806841Y-75782379D01*
X51400000Y-75900366D01*
X51993159Y-75782379D01*
X52496016Y-75446382D01*
X52832013Y-74943525D01*
X52898959Y-74606961D01*
X53149732Y-74606961D01*
X53385208Y-75176857D01*
X53820849Y-75613260D01*
X54390333Y-75849730D01*
X55006961Y-75850268D01*
X55576857Y-75614792D01*
X56013260Y-75179151D01*
X56249730Y-74609667D01*
X56250035Y-74260000D01*
X56268654Y-74260000D01*
X56390447Y-74872293D01*
X56675891Y-75299491D01*
X56516802Y-75401862D01*
X56345554Y-75652492D01*
X56285307Y-75950000D01*
X56285307Y-77650000D01*
X56337604Y-77927933D01*
X56501862Y-78183198D01*
X56752492Y-78354446D01*
X57050000Y-78414693D01*
X58750000Y-78414693D01*
X59027933Y-78362396D01*
X59283198Y-78198138D01*
X59454446Y-77947508D01*
X59514693Y-77650000D01*
X59514693Y-77489634D01*
X66650000Y-77489634D01*
X66650000Y-77550366D01*
X66767987Y-78143525D01*
X67103984Y-78646382D01*
X67606841Y-78982379D01*
X68200000Y-79100366D01*
X68793159Y-78982379D01*
X69296016Y-78646382D01*
X69632013Y-78143525D01*
X69750000Y-77550366D01*
X69750000Y-77489634D01*
X69730109Y-77389634D01*
X70350000Y-77389634D01*
X70350000Y-77450366D01*
X70467987Y-78043525D01*
X70803984Y-78546382D01*
X71306841Y-78882379D01*
X71900000Y-79000366D01*
X72493159Y-78882379D01*
X72996016Y-78546382D01*
X73294277Y-78100000D01*
X115351022Y-78100000D01*
X115503263Y-78865367D01*
X115936808Y-79514214D01*
X116585655Y-79947759D01*
X117351022Y-80100000D01*
X118448978Y-80100000D01*
X119214345Y-79947759D01*
X119863192Y-79514214D01*
X120025398Y-79271454D01*
X121057774Y-79271454D01*
X121454959Y-79925332D01*
X121984178Y-80386990D01*
X122275000Y-80307723D01*
X122275000Y-78975000D01*
X123525000Y-78975000D01*
X123525000Y-80307723D01*
X123815822Y-80386990D01*
X124345041Y-79925332D01*
X124742226Y-79271454D01*
X124635084Y-78975000D01*
X123525000Y-78975000D01*
X122275000Y-78975000D01*
X121164916Y-78975000D01*
X121057774Y-79271454D01*
X120025398Y-79271454D01*
X120296737Y-78865367D01*
X120448978Y-78100000D01*
X120296737Y-77334633D01*
X120025399Y-76928546D01*
X121057774Y-76928546D01*
X121164916Y-77225000D01*
X122275000Y-77225000D01*
X122275000Y-75892277D01*
X123525000Y-75892277D01*
X123525000Y-77225000D01*
X124635084Y-77225000D01*
X124742226Y-76928546D01*
X124345041Y-76274668D01*
X123815822Y-75813010D01*
X123525000Y-75892277D01*
X122275000Y-75892277D01*
X121984178Y-75813010D01*
X121454959Y-76274668D01*
X121057774Y-76928546D01*
X120025399Y-76928546D01*
X119863192Y-76685786D01*
X119214345Y-76252241D01*
X118448978Y-76100000D01*
X117351022Y-76100000D01*
X116585655Y-76252241D01*
X115936808Y-76685786D01*
X115503263Y-77334633D01*
X115351022Y-78100000D01*
X73294277Y-78100000D01*
X73332013Y-78043525D01*
X73450000Y-77450366D01*
X73450000Y-77389634D01*
X73332013Y-76796475D01*
X72996016Y-76293618D01*
X72493159Y-75957621D01*
X71900000Y-75839634D01*
X71306841Y-75957621D01*
X70803984Y-76293618D01*
X70467987Y-76796475D01*
X70350000Y-77389634D01*
X69730109Y-77389634D01*
X69632013Y-76896475D01*
X69296016Y-76393618D01*
X68793159Y-76057621D01*
X68200000Y-75939634D01*
X67606841Y-76057621D01*
X67103984Y-76393618D01*
X66767987Y-76896475D01*
X66650000Y-77489634D01*
X59514693Y-77489634D01*
X59514693Y-75950000D01*
X59462396Y-75672067D01*
X59298138Y-75416802D01*
X59124842Y-75298394D01*
X59409553Y-74872293D01*
X59531346Y-74260000D01*
X59409553Y-73647707D01*
X59062717Y-73128629D01*
X58543639Y-72781793D01*
X57931346Y-72660000D01*
X57868654Y-72660000D01*
X57256361Y-72781793D01*
X56737283Y-73128629D01*
X56390447Y-73647707D01*
X56268654Y-74260000D01*
X56250035Y-74260000D01*
X56250268Y-73993039D01*
X56014792Y-73423143D01*
X55579151Y-72986740D01*
X55009667Y-72750270D01*
X54393039Y-72749732D01*
X53823143Y-72985208D01*
X53386740Y-73420849D01*
X53150270Y-73990333D01*
X53149732Y-74606961D01*
X52898959Y-74606961D01*
X52950000Y-74350366D01*
X52950000Y-74289634D01*
X52832013Y-73696475D01*
X52496016Y-73193618D01*
X51993159Y-72857621D01*
X51400000Y-72739634D01*
X50806841Y-72857621D01*
X50303984Y-73193618D01*
X49967987Y-73696475D01*
X49850000Y-74289634D01*
X30825000Y-74289634D01*
X30825000Y-72921454D01*
X34157774Y-72921454D01*
X34554959Y-73575332D01*
X35084178Y-74036990D01*
X35375000Y-73957723D01*
X35375000Y-72625000D01*
X36625000Y-72625000D01*
X36625000Y-73957723D01*
X36915822Y-74036990D01*
X37445041Y-73575332D01*
X37842226Y-72921454D01*
X37735084Y-72625000D01*
X36625000Y-72625000D01*
X35375000Y-72625000D01*
X34264916Y-72625000D01*
X34157774Y-72921454D01*
X30825000Y-72921454D01*
X30825000Y-71750000D01*
X38451022Y-71750000D01*
X38603263Y-72515367D01*
X39036808Y-73164214D01*
X39685655Y-73597759D01*
X40451022Y-73750000D01*
X41548978Y-73750000D01*
X42314345Y-73597759D01*
X42963192Y-73164214D01*
X43396737Y-72515367D01*
X43548978Y-71750000D01*
X43396737Y-70984633D01*
X42963192Y-70335786D01*
X42909635Y-70300000D01*
X55799634Y-70300000D01*
X55917621Y-70893159D01*
X56253618Y-71396016D01*
X56756475Y-71732013D01*
X57349634Y-71850000D01*
X57410366Y-71850000D01*
X57586764Y-71814912D01*
X58425926Y-72654074D01*
X58726017Y-72854589D01*
X59080000Y-72925000D01*
X65700000Y-72925000D01*
X66053983Y-72854589D01*
X66354074Y-72654074D01*
X67655803Y-71352345D01*
X67890333Y-71449730D01*
X68506961Y-71450268D01*
X69076857Y-71214792D01*
X69513260Y-70779151D01*
X69749730Y-70209667D01*
X69749819Y-70106961D01*
X70349732Y-70106961D01*
X70585208Y-70676857D01*
X71020849Y-71113260D01*
X71590333Y-71349730D01*
X72206961Y-71350268D01*
X72473830Y-71240000D01*
X74368654Y-71240000D01*
X74490447Y-71852293D01*
X74837283Y-72371371D01*
X75356361Y-72718207D01*
X75968654Y-72840000D01*
X76031346Y-72840000D01*
X76643639Y-72718207D01*
X77162717Y-72371371D01*
X77509553Y-71852293D01*
X77631346Y-71240000D01*
X77509553Y-70627707D01*
X77224109Y-70200509D01*
X77383198Y-70098138D01*
X77554446Y-69847508D01*
X77580267Y-69720000D01*
X88168654Y-69720000D01*
X88290447Y-70332293D01*
X88637283Y-70851371D01*
X88844756Y-70990000D01*
X88637283Y-71128629D01*
X88290447Y-71647707D01*
X88168654Y-72260000D01*
X88290447Y-72872293D01*
X88575891Y-73299491D01*
X88416802Y-73401862D01*
X88245554Y-73652492D01*
X88185307Y-73950000D01*
X88185307Y-75650000D01*
X88237604Y-75927933D01*
X88401862Y-76183198D01*
X88652492Y-76354446D01*
X88950000Y-76414693D01*
X90650000Y-76414693D01*
X90927933Y-76362396D01*
X91183198Y-76198138D01*
X91354446Y-75947508D01*
X91414693Y-75650000D01*
X91414693Y-73950000D01*
X91362396Y-73672067D01*
X91293961Y-73565715D01*
X124650000Y-73565715D01*
X124650000Y-73634285D01*
X124783211Y-74303981D01*
X125162563Y-74871722D01*
X125730304Y-75251074D01*
X126400000Y-75384285D01*
X127069696Y-75251074D01*
X127637437Y-74871722D01*
X128016789Y-74303981D01*
X128150000Y-73634285D01*
X128150000Y-73565715D01*
X128016789Y-72896019D01*
X127637437Y-72328278D01*
X127069696Y-71948926D01*
X126400000Y-71815715D01*
X125730304Y-71948926D01*
X125162563Y-72328278D01*
X124783211Y-72896019D01*
X124650000Y-73565715D01*
X91293961Y-73565715D01*
X91198138Y-73416802D01*
X91024842Y-73298394D01*
X91309553Y-72872293D01*
X91431346Y-72260000D01*
X91309553Y-71647707D01*
X90962717Y-71128629D01*
X90755244Y-70990000D01*
X90962717Y-70851371D01*
X91309553Y-70332293D01*
X91431346Y-69720000D01*
X91309553Y-69107707D01*
X90962717Y-68588629D01*
X90443639Y-68241793D01*
X89831346Y-68120000D01*
X89768654Y-68120000D01*
X89156361Y-68241793D01*
X88637283Y-68588629D01*
X88290447Y-69107707D01*
X88168654Y-69720000D01*
X77580267Y-69720000D01*
X77614693Y-69550000D01*
X77614693Y-68100000D01*
X77699634Y-68100000D01*
X77817621Y-68693159D01*
X78153618Y-69196016D01*
X78656475Y-69532013D01*
X79249634Y-69650000D01*
X79310366Y-69650000D01*
X79903525Y-69532013D01*
X80406382Y-69196016D01*
X80742379Y-68693159D01*
X80799307Y-68406961D01*
X85349732Y-68406961D01*
X85585208Y-68976857D01*
X86020849Y-69413260D01*
X86590333Y-69649730D01*
X87206961Y-69650268D01*
X87776857Y-69414792D01*
X88213260Y-68979151D01*
X88449730Y-68409667D01*
X88450268Y-67793039D01*
X88214792Y-67223143D01*
X87779151Y-66786740D01*
X87209667Y-66550270D01*
X86593039Y-66549732D01*
X86023143Y-66785208D01*
X85586740Y-67220849D01*
X85350270Y-67790333D01*
X85349732Y-68406961D01*
X80799307Y-68406961D01*
X80860366Y-68100000D01*
X80742379Y-67506841D01*
X80406382Y-67003984D01*
X79903525Y-66667987D01*
X79310366Y-66550000D01*
X79249634Y-66550000D01*
X78656475Y-66667987D01*
X78153618Y-67003984D01*
X77817621Y-67506841D01*
X77699634Y-68100000D01*
X77614693Y-68100000D01*
X77614693Y-67850000D01*
X77562396Y-67572067D01*
X77398138Y-67316802D01*
X77147508Y-67145554D01*
X76850000Y-67085307D01*
X75150000Y-67085307D01*
X74872067Y-67137604D01*
X74616802Y-67301862D01*
X74445554Y-67552492D01*
X74385307Y-67850000D01*
X74385307Y-69550000D01*
X74437604Y-69827933D01*
X74601862Y-70083198D01*
X74775158Y-70201606D01*
X74490447Y-70627707D01*
X74368654Y-71240000D01*
X72473830Y-71240000D01*
X72776857Y-71114792D01*
X73213260Y-70679151D01*
X73449730Y-70109667D01*
X73450268Y-69493039D01*
X73214792Y-68923143D01*
X72779151Y-68486740D01*
X72209667Y-68250270D01*
X71593039Y-68249732D01*
X71023143Y-68485208D01*
X70586740Y-68920849D01*
X70350270Y-69490333D01*
X70349732Y-70106961D01*
X69749819Y-70106961D01*
X69750268Y-69593039D01*
X69514792Y-69023143D01*
X69079151Y-68586740D01*
X68509667Y-68350270D01*
X67893039Y-68349732D01*
X67323143Y-68585208D01*
X66886740Y-69020849D01*
X66650270Y-69590333D01*
X66650138Y-69741715D01*
X66505986Y-69885867D01*
X66314792Y-69423143D01*
X65879151Y-68986740D01*
X65309667Y-68750270D01*
X64693039Y-68749732D01*
X64123143Y-68985208D01*
X63686740Y-69420849D01*
X63450270Y-69990333D01*
X63449732Y-70606961D01*
X63643122Y-71075000D01*
X59463148Y-71075000D01*
X58915202Y-70527054D01*
X58960366Y-70300000D01*
X58842379Y-69706841D01*
X58506382Y-69203984D01*
X58003525Y-68867987D01*
X57410366Y-68750000D01*
X57349634Y-68750000D01*
X56756475Y-68867987D01*
X56253618Y-69203984D01*
X55917621Y-69706841D01*
X55799634Y-70300000D01*
X42909635Y-70300000D01*
X42314345Y-69902241D01*
X41548978Y-69750000D01*
X40451022Y-69750000D01*
X39685655Y-69902241D01*
X39036808Y-70335786D01*
X38603263Y-70984633D01*
X38451022Y-71750000D01*
X30825000Y-71750000D01*
X30825000Y-70578546D01*
X34157774Y-70578546D01*
X34264916Y-70875000D01*
X35375000Y-70875000D01*
X35375000Y-69542277D01*
X36625000Y-69542277D01*
X36625000Y-70875000D01*
X37735084Y-70875000D01*
X37842226Y-70578546D01*
X37445041Y-69924668D01*
X36915822Y-69463010D01*
X36625000Y-69542277D01*
X35375000Y-69542277D01*
X35084178Y-69463010D01*
X34554959Y-69924668D01*
X34157774Y-70578546D01*
X30825000Y-70578546D01*
X30825000Y-67661335D01*
X30883211Y-67953981D01*
X31262563Y-68521722D01*
X31830304Y-68901074D01*
X32500000Y-69034285D01*
X33169696Y-68901074D01*
X33737437Y-68521722D01*
X34116789Y-67953981D01*
X34250000Y-67284285D01*
X34250000Y-67215715D01*
X34116789Y-66546019D01*
X33834670Y-66123798D01*
X33987437Y-66021722D01*
X34366789Y-65453981D01*
X34500000Y-64784285D01*
X34500000Y-64715715D01*
X34474921Y-64589634D01*
X48750000Y-64589634D01*
X48750000Y-64650366D01*
X48867987Y-65243525D01*
X49203984Y-65746382D01*
X49706841Y-66082379D01*
X49957445Y-66132227D01*
X49850270Y-66390333D01*
X49849732Y-67006961D01*
X50085208Y-67576857D01*
X50520849Y-68013260D01*
X51090333Y-68249730D01*
X51706961Y-68250268D01*
X52276857Y-68014792D01*
X52713260Y-67579151D01*
X52949730Y-67009667D01*
X52950044Y-66649634D01*
X53150000Y-66649634D01*
X53150000Y-66710366D01*
X53267987Y-67303525D01*
X53603984Y-67806382D01*
X54106841Y-68142379D01*
X54700000Y-68260366D01*
X55293159Y-68142379D01*
X55796016Y-67806382D01*
X56132013Y-67303525D01*
X56250000Y-66710366D01*
X56250000Y-66649634D01*
X56142056Y-66106961D01*
X63049732Y-66106961D01*
X63285208Y-66676857D01*
X63720849Y-67113260D01*
X64290333Y-67349730D01*
X64906961Y-67350268D01*
X65476857Y-67114792D01*
X65913260Y-66679151D01*
X66149730Y-66109667D01*
X66150000Y-65800000D01*
X70639634Y-65800000D01*
X70757621Y-66393159D01*
X71093618Y-66896016D01*
X71596475Y-67232013D01*
X72189634Y-67350000D01*
X72250366Y-67350000D01*
X72843525Y-67232013D01*
X73346382Y-66896016D01*
X73682379Y-66393159D01*
X73800366Y-65800000D01*
X73682379Y-65206841D01*
X73346382Y-64703984D01*
X72843525Y-64367987D01*
X72250366Y-64250000D01*
X72189634Y-64250000D01*
X71596475Y-64367987D01*
X71093618Y-64703984D01*
X70757621Y-65206841D01*
X70639634Y-65800000D01*
X66150000Y-65800000D01*
X66150268Y-65493039D01*
X65914792Y-64923143D01*
X65479151Y-64486740D01*
X64909667Y-64250270D01*
X64293039Y-64249732D01*
X63723143Y-64485208D01*
X63286740Y-64920849D01*
X63050270Y-65490333D01*
X63049732Y-66106961D01*
X56142056Y-66106961D01*
X56132013Y-66056475D01*
X55796016Y-65553618D01*
X55293159Y-65217621D01*
X54700000Y-65099634D01*
X54106841Y-65217621D01*
X53603984Y-65553618D01*
X53267987Y-66056475D01*
X53150000Y-66649634D01*
X52950044Y-66649634D01*
X52950268Y-66393039D01*
X52714792Y-65823143D01*
X52279151Y-65386740D01*
X51747443Y-65165956D01*
X51850000Y-64650366D01*
X51850000Y-64589634D01*
X51732013Y-63996475D01*
X51396016Y-63493618D01*
X50893159Y-63157621D01*
X50300000Y-63039634D01*
X49706841Y-63157621D01*
X49203984Y-63493618D01*
X48867987Y-63996475D01*
X48750000Y-64589634D01*
X34474921Y-64589634D01*
X34366789Y-64046019D01*
X33987437Y-63478278D01*
X33419696Y-63098926D01*
X32750000Y-62965715D01*
X32080304Y-63098926D01*
X31512563Y-63478278D01*
X31133211Y-64046019D01*
X31000000Y-64715715D01*
X31000000Y-64784285D01*
X31133211Y-65453981D01*
X31415330Y-65876202D01*
X31262563Y-65978278D01*
X30883211Y-66546019D01*
X30825000Y-66838665D01*
X30825000Y-61421454D01*
X34407774Y-61421454D01*
X34804959Y-62075332D01*
X35334178Y-62536990D01*
X35625000Y-62457723D01*
X35625000Y-61125000D01*
X36875000Y-61125000D01*
X36875000Y-62457723D01*
X37165822Y-62536990D01*
X37695041Y-62075332D01*
X38092226Y-61421454D01*
X37985084Y-61125000D01*
X36875000Y-61125000D01*
X35625000Y-61125000D01*
X34514916Y-61125000D01*
X34407774Y-61421454D01*
X30825000Y-61421454D01*
X30825000Y-60250000D01*
X38701022Y-60250000D01*
X38853263Y-61015367D01*
X39286808Y-61664214D01*
X39935655Y-62097759D01*
X40701022Y-62250000D01*
X41798978Y-62250000D01*
X42564345Y-62097759D01*
X43213192Y-61664214D01*
X43646737Y-61015367D01*
X43798978Y-60250000D01*
X43646737Y-59484633D01*
X43483279Y-59240000D01*
X52068654Y-59240000D01*
X52190447Y-59852293D01*
X52537283Y-60371371D01*
X53056361Y-60718207D01*
X53668654Y-60840000D01*
X53731346Y-60840000D01*
X54343639Y-60718207D01*
X54862717Y-60371371D01*
X55209553Y-59852293D01*
X55331346Y-59240000D01*
X55295542Y-59060000D01*
X71268654Y-59060000D01*
X71390447Y-59672293D01*
X71675891Y-60099491D01*
X71516802Y-60201862D01*
X71345554Y-60452492D01*
X71285307Y-60750000D01*
X71285307Y-62450000D01*
X71337604Y-62727933D01*
X71501862Y-62983198D01*
X71752492Y-63154446D01*
X72050000Y-63214693D01*
X73750000Y-63214693D01*
X74027933Y-63162396D01*
X74283198Y-62998138D01*
X74454446Y-62747508D01*
X74514693Y-62450000D01*
X74514693Y-61189634D01*
X84150000Y-61189634D01*
X84150000Y-61250366D01*
X84267987Y-61843525D01*
X84603984Y-62346382D01*
X85106841Y-62682379D01*
X85700000Y-62800366D01*
X86293159Y-62682379D01*
X86796016Y-62346382D01*
X87132013Y-61843525D01*
X87250000Y-61250366D01*
X87250000Y-61189634D01*
X87132013Y-60596475D01*
X86796016Y-60093618D01*
X86293159Y-59757621D01*
X85700000Y-59639634D01*
X85106841Y-59757621D01*
X84603984Y-60093618D01*
X84267987Y-60596475D01*
X84150000Y-61189634D01*
X74514693Y-61189634D01*
X74514693Y-60750000D01*
X74462396Y-60472067D01*
X74298138Y-60216802D01*
X74124842Y-60098394D01*
X74409553Y-59672293D01*
X74531346Y-59060000D01*
X74409553Y-58447707D01*
X74190587Y-58120000D01*
X88068654Y-58120000D01*
X88190447Y-58732293D01*
X88537283Y-59251371D01*
X88744756Y-59390000D01*
X88537283Y-59528629D01*
X88190447Y-60047707D01*
X88068654Y-60660000D01*
X88190447Y-61272293D01*
X88475891Y-61699491D01*
X88316802Y-61801862D01*
X88145554Y-62052492D01*
X88085307Y-62350000D01*
X88085307Y-64050000D01*
X88137604Y-64327933D01*
X88301862Y-64583198D01*
X88552492Y-64754446D01*
X88850000Y-64814693D01*
X90550000Y-64814693D01*
X90827933Y-64762396D01*
X91041453Y-64625000D01*
X92010104Y-64625000D01*
X91806000Y-64709334D01*
X91510372Y-65004446D01*
X91350182Y-65390226D01*
X91349818Y-65807942D01*
X91509334Y-66194000D01*
X91699309Y-66384308D01*
X91745926Y-66454074D01*
X92145924Y-66854071D01*
X92145926Y-66854074D01*
X92446018Y-67054589D01*
X92800000Y-67125000D01*
X94789631Y-67125000D01*
X95090226Y-67249818D01*
X95507942Y-67250182D01*
X95894000Y-67090666D01*
X96189628Y-66795554D01*
X96349818Y-66409774D01*
X96350182Y-65992058D01*
X96190666Y-65606000D01*
X95895554Y-65310372D01*
X95509774Y-65150182D01*
X95133175Y-65149854D01*
X95149818Y-65109774D01*
X95150182Y-64692058D01*
X94990666Y-64306000D01*
X94695554Y-64010372D01*
X94392809Y-63884661D01*
X93554074Y-63045926D01*
X93253983Y-62845411D01*
X92900000Y-62775000D01*
X91314693Y-62775000D01*
X91314693Y-62350000D01*
X91262396Y-62072067D01*
X91098138Y-61816802D01*
X90924842Y-61698394D01*
X91209553Y-61272293D01*
X91331346Y-60660000D01*
X91209553Y-60047707D01*
X90862717Y-59528629D01*
X90655244Y-59390000D01*
X90862717Y-59251371D01*
X91209553Y-58732293D01*
X91331346Y-58120000D01*
X91209553Y-57507707D01*
X90862717Y-56988629D01*
X90343639Y-56641793D01*
X89731346Y-56520000D01*
X89668654Y-56520000D01*
X89056361Y-56641793D01*
X88537283Y-56988629D01*
X88190447Y-57507707D01*
X88068654Y-58120000D01*
X74190587Y-58120000D01*
X74062717Y-57928629D01*
X73543639Y-57581793D01*
X72931346Y-57460000D01*
X72868654Y-57460000D01*
X72256361Y-57581793D01*
X71737283Y-57928629D01*
X71390447Y-58447707D01*
X71268654Y-59060000D01*
X55295542Y-59060000D01*
X55209553Y-58627707D01*
X54924109Y-58200509D01*
X55083198Y-58098138D01*
X55254446Y-57847508D01*
X55314693Y-57550000D01*
X55314693Y-55850000D01*
X55306595Y-55806961D01*
X65249732Y-55806961D01*
X65485208Y-56376857D01*
X65920849Y-56813260D01*
X66490333Y-57049730D01*
X67106961Y-57050268D01*
X67676857Y-56814792D01*
X68113260Y-56379151D01*
X68349730Y-55809667D01*
X68350009Y-55489634D01*
X69050000Y-55489634D01*
X69050000Y-55550366D01*
X69167987Y-56143525D01*
X69503984Y-56646382D01*
X70006841Y-56982379D01*
X70600000Y-57100366D01*
X71193159Y-56982379D01*
X71696016Y-56646382D01*
X72032013Y-56143525D01*
X72150000Y-55550366D01*
X72150000Y-55489634D01*
X72032013Y-54896475D01*
X71696016Y-54393618D01*
X71193159Y-54057621D01*
X70600000Y-53939634D01*
X70006841Y-54057621D01*
X69503984Y-54393618D01*
X69167987Y-54896475D01*
X69050000Y-55489634D01*
X68350009Y-55489634D01*
X68350268Y-55193039D01*
X68114792Y-54623143D01*
X67679151Y-54186740D01*
X67109667Y-53950270D01*
X66493039Y-53949732D01*
X65923143Y-54185208D01*
X65486740Y-54620849D01*
X65250270Y-55190333D01*
X65249732Y-55806961D01*
X55306595Y-55806961D01*
X55262396Y-55572067D01*
X55098138Y-55316802D01*
X54847508Y-55145554D01*
X54550000Y-55085307D01*
X52850000Y-55085307D01*
X52572067Y-55137604D01*
X52316802Y-55301862D01*
X52145554Y-55552492D01*
X52085307Y-55850000D01*
X52085307Y-57550000D01*
X52137604Y-57827933D01*
X52301862Y-58083198D01*
X52475158Y-58201606D01*
X52190447Y-58627707D01*
X52068654Y-59240000D01*
X43483279Y-59240000D01*
X43213192Y-58835786D01*
X42564345Y-58402241D01*
X41798978Y-58250000D01*
X40701022Y-58250000D01*
X39935655Y-58402241D01*
X39286808Y-58835786D01*
X38853263Y-59484633D01*
X38701022Y-60250000D01*
X30825000Y-60250000D01*
X30825000Y-59078546D01*
X34407774Y-59078546D01*
X34514916Y-59375000D01*
X35625000Y-59375000D01*
X35625000Y-58042277D01*
X36875000Y-58042277D01*
X36875000Y-59375000D01*
X37985084Y-59375000D01*
X38092226Y-59078546D01*
X37695041Y-58424668D01*
X37165822Y-57963010D01*
X36875000Y-58042277D01*
X35625000Y-58042277D01*
X35334178Y-57963010D01*
X34804959Y-58424668D01*
X34407774Y-59078546D01*
X30825000Y-59078546D01*
X30825000Y-55715715D01*
X31000000Y-55715715D01*
X31000000Y-55784285D01*
X31133211Y-56453981D01*
X31512563Y-57021722D01*
X32080304Y-57401074D01*
X32750000Y-57534285D01*
X33419696Y-57401074D01*
X33560546Y-57306961D01*
X48749732Y-57306961D01*
X48985208Y-57876857D01*
X49420849Y-58313260D01*
X49990333Y-58549730D01*
X50606961Y-58550268D01*
X51176857Y-58314792D01*
X51613260Y-57879151D01*
X51849730Y-57309667D01*
X51850268Y-56693039D01*
X51614792Y-56123143D01*
X51179151Y-55686740D01*
X50609667Y-55450270D01*
X49993039Y-55449732D01*
X49423143Y-55685208D01*
X48986740Y-56120849D01*
X48750270Y-56690333D01*
X48749732Y-57306961D01*
X33560546Y-57306961D01*
X33987437Y-57021722D01*
X34366789Y-56453981D01*
X34500000Y-55784285D01*
X34500000Y-55715715D01*
X34366789Y-55046019D01*
X33987437Y-54478278D01*
X33419696Y-54098926D01*
X32750000Y-53965715D01*
X32080304Y-54098926D01*
X31512563Y-54478278D01*
X31133211Y-55046019D01*
X31000000Y-55715715D01*
X30825000Y-55715715D01*
X30825000Y-49800000D01*
X34335307Y-49800000D01*
X34335307Y-52800000D01*
X34387604Y-53077933D01*
X34551862Y-53333198D01*
X34802492Y-53504446D01*
X35100000Y-53564693D01*
X38100000Y-53564693D01*
X38377933Y-53512396D01*
X38633198Y-53348138D01*
X38804446Y-53097508D01*
X38864693Y-52800000D01*
X38864693Y-52489634D01*
X50150000Y-52489634D01*
X50150000Y-52550366D01*
X50267987Y-53143525D01*
X50603984Y-53646382D01*
X51106841Y-53982379D01*
X51700000Y-54100366D01*
X52293159Y-53982379D01*
X52406030Y-53906961D01*
X84149732Y-53906961D01*
X84385208Y-54476857D01*
X84820849Y-54913260D01*
X85390333Y-55149730D01*
X86006961Y-55150268D01*
X86576857Y-54914792D01*
X87013260Y-54479151D01*
X87249730Y-53909667D01*
X87250268Y-53293039D01*
X87014792Y-52723143D01*
X86579151Y-52286740D01*
X86009667Y-52050270D01*
X85393039Y-52049732D01*
X84823143Y-52285208D01*
X84386740Y-52720849D01*
X84150270Y-53290333D01*
X84149732Y-53906961D01*
X52406030Y-53906961D01*
X52796016Y-53646382D01*
X53132013Y-53143525D01*
X53250000Y-52550366D01*
X53250000Y-52489634D01*
X53132013Y-51896475D01*
X52796016Y-51393618D01*
X52293159Y-51057621D01*
X51700000Y-50939634D01*
X51106841Y-51057621D01*
X50603984Y-51393618D01*
X50267987Y-51896475D01*
X50150000Y-52489634D01*
X38864693Y-52489634D01*
X38864693Y-49800000D01*
X38812396Y-49522067D01*
X38648138Y-49266802D01*
X38397508Y-49095554D01*
X38100000Y-49035307D01*
X35100000Y-49035307D01*
X34822067Y-49087604D01*
X34566802Y-49251862D01*
X34395554Y-49502492D01*
X34335307Y-49800000D01*
X30825000Y-49800000D01*
X30825000Y-48146961D01*
X35733699Y-48146961D01*
X35927361Y-48421784D01*
X36821149Y-48511592D01*
X37272639Y-48421784D01*
X37466301Y-48146961D01*
X36600000Y-47280660D01*
X35733699Y-48146961D01*
X30825000Y-48146961D01*
X30825000Y-47250000D01*
X46285307Y-47250000D01*
X46285307Y-48950000D01*
X46337604Y-49227933D01*
X46501862Y-49483198D01*
X46752492Y-49654446D01*
X47050000Y-49714693D01*
X48750000Y-49714693D01*
X49027933Y-49662396D01*
X49283198Y-49498138D01*
X49454446Y-49247508D01*
X49514693Y-48950000D01*
X49514693Y-47849634D01*
X65250000Y-47849634D01*
X65250000Y-47910366D01*
X65367987Y-48503525D01*
X65703984Y-49006382D01*
X66206841Y-49342379D01*
X66800000Y-49460366D01*
X67393159Y-49342379D01*
X67896016Y-49006382D01*
X68232013Y-48503525D01*
X68291003Y-48206961D01*
X69049732Y-48206961D01*
X69285208Y-48776857D01*
X69720849Y-49213260D01*
X70290333Y-49449730D01*
X70906961Y-49450268D01*
X71476857Y-49214792D01*
X71913260Y-48779151D01*
X72149730Y-48209667D01*
X72150268Y-47593039D01*
X71914792Y-47023143D01*
X71479151Y-46586740D01*
X70909667Y-46350270D01*
X70293039Y-46349732D01*
X69723143Y-46585208D01*
X69286740Y-47020849D01*
X69050270Y-47590333D01*
X69049732Y-48206961D01*
X68291003Y-48206961D01*
X68350000Y-47910366D01*
X68350000Y-47849634D01*
X68232013Y-47256475D01*
X67896016Y-46753618D01*
X67393159Y-46417621D01*
X66800000Y-46299634D01*
X66206841Y-46417621D01*
X65703984Y-46753618D01*
X65367987Y-47256475D01*
X65250000Y-47849634D01*
X49514693Y-47849634D01*
X49514693Y-47250000D01*
X49462396Y-46972067D01*
X49298138Y-46716802D01*
X49150002Y-46615585D01*
X49150002Y-46544534D01*
X49365241Y-46222369D01*
X49253336Y-45985000D01*
X48325000Y-45985000D01*
X48325000Y-46410000D01*
X47475000Y-46410000D01*
X47475000Y-45985000D01*
X46546664Y-45985000D01*
X46434759Y-46222369D01*
X46649998Y-46544534D01*
X46649998Y-46616154D01*
X46516802Y-46701862D01*
X46345554Y-46952492D01*
X46285307Y-47250000D01*
X30825000Y-47250000D01*
X30825000Y-46441149D01*
X34308408Y-46441149D01*
X34398216Y-46892639D01*
X34673039Y-47086301D01*
X35539340Y-46220000D01*
X37660660Y-46220000D01*
X38526961Y-47086301D01*
X38801784Y-46892639D01*
X38891592Y-45998851D01*
X38801784Y-45547361D01*
X38526961Y-45353699D01*
X37660660Y-46220000D01*
X35539340Y-46220000D01*
X34673039Y-45353699D01*
X34398216Y-45547361D01*
X34308408Y-46441149D01*
X30825000Y-46441149D01*
X30825000Y-45206961D01*
X50149732Y-45206961D01*
X50385208Y-45776857D01*
X50820849Y-46213260D01*
X51390333Y-46449730D01*
X52006961Y-46450268D01*
X52576857Y-46214792D01*
X53013260Y-45779151D01*
X53249730Y-45209667D01*
X53250268Y-44593039D01*
X53014792Y-44023143D01*
X52579151Y-43586740D01*
X52009667Y-43350270D01*
X51393039Y-43349732D01*
X50823143Y-43585208D01*
X50386740Y-44020849D01*
X50150270Y-44590333D01*
X50149732Y-45206961D01*
X30825000Y-45206961D01*
X30825000Y-44293039D01*
X35733699Y-44293039D01*
X36600000Y-45159340D01*
X36861709Y-44897631D01*
X46434759Y-44897631D01*
X46546664Y-45135000D01*
X47475000Y-45135000D01*
X47475000Y-44198650D01*
X48325000Y-44198650D01*
X48325000Y-45135000D01*
X49253336Y-45135000D01*
X49365241Y-44897631D01*
X49072689Y-44459745D01*
X48562374Y-44094728D01*
X48325000Y-44198650D01*
X47475000Y-44198650D01*
X47237626Y-44094728D01*
X46727311Y-44459745D01*
X46434759Y-44897631D01*
X36861709Y-44897631D01*
X37466301Y-44293039D01*
X37272639Y-44018216D01*
X36378851Y-43928408D01*
X35927361Y-44018216D01*
X35733699Y-44293039D01*
X30825000Y-44293039D01*
X30825000Y-34758981D01*
X31422066Y-35357090D01*
X32444198Y-35781516D01*
X33550946Y-35782482D01*
X34573818Y-35359840D01*
X34683849Y-35250000D01*
X40235307Y-35250000D01*
X40235307Y-37250000D01*
X40287604Y-37527933D01*
X40451862Y-37783198D01*
X40702492Y-37954446D01*
X41000000Y-38014693D01*
X43000000Y-38014693D01*
X43277933Y-37962396D01*
X43533198Y-37798138D01*
X43613609Y-37680452D01*
X46276655Y-37680452D01*
X46392759Y-37936448D01*
X47084358Y-38040455D01*
X47607241Y-37936448D01*
X47723345Y-37680452D01*
X47000000Y-36957107D01*
X46276655Y-37680452D01*
X43613609Y-37680452D01*
X43704446Y-37547508D01*
X43764693Y-37250000D01*
X43764693Y-36334358D01*
X45209545Y-36334358D01*
X45313552Y-36857241D01*
X45569548Y-36973345D01*
X46292893Y-36250000D01*
X47707107Y-36250000D01*
X48430452Y-36973345D01*
X48686448Y-36857241D01*
X48790455Y-36165642D01*
X48686448Y-35642759D01*
X48430452Y-35526655D01*
X47707107Y-36250000D01*
X46292893Y-36250000D01*
X45569548Y-35526655D01*
X45313552Y-35642759D01*
X45209545Y-36334358D01*
X43764693Y-36334358D01*
X43764693Y-35250000D01*
X43712396Y-34972067D01*
X43614254Y-34819548D01*
X46276655Y-34819548D01*
X47000000Y-35542893D01*
X47542893Y-35000000D01*
X51485307Y-35000000D01*
X51485307Y-37000000D01*
X51537604Y-37277933D01*
X51701862Y-37533198D01*
X51952492Y-37704446D01*
X52250000Y-37764693D01*
X54250000Y-37764693D01*
X54527933Y-37712396D01*
X54783198Y-37548138D01*
X54863609Y-37430452D01*
X57526655Y-37430452D01*
X57642759Y-37686448D01*
X58334358Y-37790455D01*
X58857241Y-37686448D01*
X58973345Y-37430452D01*
X58250000Y-36707107D01*
X57526655Y-37430452D01*
X54863609Y-37430452D01*
X54954446Y-37297508D01*
X55014693Y-37000000D01*
X55014693Y-36084358D01*
X56459545Y-36084358D01*
X56563552Y-36607241D01*
X56819548Y-36723345D01*
X57542893Y-36000000D01*
X58957107Y-36000000D01*
X59680452Y-36723345D01*
X59936448Y-36607241D01*
X59952575Y-36500000D01*
X61285307Y-36500000D01*
X61285307Y-40000000D01*
X61337604Y-40277933D01*
X61501862Y-40533198D01*
X61752492Y-40704446D01*
X62050000Y-40764693D01*
X65550000Y-40764693D01*
X65827933Y-40712396D01*
X65985307Y-40611129D01*
X65985307Y-43000000D01*
X66037604Y-43277933D01*
X66201862Y-43533198D01*
X66452492Y-43704446D01*
X66750000Y-43764693D01*
X70250000Y-43764693D01*
X70527933Y-43712396D01*
X70783198Y-43548138D01*
X70954446Y-43297508D01*
X70972583Y-43207942D01*
X94449818Y-43207942D01*
X94609334Y-43594000D01*
X94904446Y-43889628D01*
X95290226Y-44049818D01*
X95707942Y-44050182D01*
X96094000Y-43890666D01*
X96389628Y-43595554D01*
X96440022Y-43474192D01*
X97834214Y-42080000D01*
X97999504Y-42080000D01*
X98087283Y-42211371D01*
X98606361Y-42558207D01*
X99218654Y-42680000D01*
X99281346Y-42680000D01*
X99893639Y-42558207D01*
X100412717Y-42211371D01*
X100759553Y-41692293D01*
X100881346Y-41080000D01*
X100759553Y-40467707D01*
X100412717Y-39948629D01*
X100205244Y-39810000D01*
X100412717Y-39671371D01*
X100759553Y-39152293D01*
X100881346Y-38540000D01*
X100759553Y-37927707D01*
X100474109Y-37500509D01*
X100633198Y-37398138D01*
X100804446Y-37147508D01*
X100864693Y-36850000D01*
X100864693Y-35707069D01*
X106025161Y-35707069D01*
X106841235Y-36523143D01*
X106720630Y-36643537D01*
X106490262Y-37198325D01*
X106489738Y-37799040D01*
X106719138Y-38354229D01*
X107143537Y-38779370D01*
X107698325Y-39009738D01*
X108299040Y-39010262D01*
X108854229Y-38780862D01*
X109270353Y-38365464D01*
X109683537Y-38779370D01*
X110238325Y-39009738D01*
X110839040Y-39010262D01*
X111394229Y-38780862D01*
X111819370Y-38356463D01*
X112049738Y-37801675D01*
X112050262Y-37200960D01*
X111820862Y-36645771D01*
X111675464Y-36500118D01*
X111819370Y-36356463D01*
X112049738Y-35801675D01*
X112050262Y-35200960D01*
X111820862Y-34645771D01*
X111753503Y-34578294D01*
X114446301Y-34578294D01*
X114616679Y-34847597D01*
X115449992Y-34941748D01*
X115923321Y-34847597D01*
X116093699Y-34578294D01*
X115270000Y-33754594D01*
X114446301Y-34578294D01*
X111753503Y-34578294D01*
X111396463Y-34220630D01*
X110841675Y-33990262D01*
X110240960Y-33989738D01*
X109685771Y-34219138D01*
X109260630Y-34643537D01*
X109166022Y-34871379D01*
X108537401Y-35500000D01*
X108806102Y-35768701D01*
X108501546Y-36073256D01*
X108301675Y-35990262D01*
X107700960Y-35989738D01*
X107498564Y-36073366D01*
X107193899Y-35768701D01*
X107462599Y-35500000D01*
X106809233Y-34846634D01*
X106562821Y-34925534D01*
X106507089Y-35225141D01*
X106025161Y-35707069D01*
X100864693Y-35707069D01*
X100864693Y-35150000D01*
X100812396Y-34872067D01*
X100648138Y-34616802D01*
X100591780Y-34578294D01*
X102446301Y-34578294D01*
X102616679Y-34847597D01*
X103449992Y-34941748D01*
X103923321Y-34847597D01*
X104093699Y-34578294D01*
X103824639Y-34309233D01*
X107346634Y-34309233D01*
X108000000Y-34962599D01*
X108653366Y-34309233D01*
X108574466Y-34062821D01*
X107980753Y-33952381D01*
X107425534Y-34062821D01*
X107346634Y-34309233D01*
X103824639Y-34309233D01*
X103270000Y-33754594D01*
X102446301Y-34578294D01*
X100591780Y-34578294D01*
X100397508Y-34445554D01*
X100100000Y-34385307D01*
X98400000Y-34385307D01*
X98122067Y-34437604D01*
X97866802Y-34601862D01*
X97695554Y-34852492D01*
X97635307Y-35150000D01*
X97635307Y-36850000D01*
X97687604Y-37127933D01*
X97851862Y-37383198D01*
X98025158Y-37501606D01*
X97740447Y-37927707D01*
X97618654Y-38540000D01*
X97740447Y-39152293D01*
X98087283Y-39671371D01*
X98294756Y-39810000D01*
X98087283Y-39948629D01*
X97999504Y-40080000D01*
X97420000Y-40080000D01*
X97037316Y-40156120D01*
X96712893Y-40372893D01*
X95026060Y-42059726D01*
X94906000Y-42109334D01*
X94610372Y-42404446D01*
X94450182Y-42790226D01*
X94449818Y-43207942D01*
X70972583Y-43207942D01*
X71014693Y-43000000D01*
X71014693Y-39500000D01*
X70962396Y-39222067D01*
X70798138Y-38966802D01*
X70547508Y-38795554D01*
X70250000Y-38735307D01*
X66750000Y-38735307D01*
X66472067Y-38787604D01*
X66314693Y-38888871D01*
X66314693Y-37636667D01*
X66320628Y-37642602D01*
X66599225Y-37758000D01*
X67435500Y-37758000D01*
X67625000Y-37568500D01*
X67625000Y-36125000D01*
X69375000Y-36125000D01*
X69375000Y-37568500D01*
X69564500Y-37758000D01*
X70400775Y-37758000D01*
X70679372Y-37642602D01*
X70892601Y-37429373D01*
X71008000Y-37150776D01*
X71008000Y-36314500D01*
X70818500Y-36125000D01*
X69375000Y-36125000D01*
X67625000Y-36125000D01*
X66199935Y-36125000D01*
X66098138Y-35966802D01*
X65847508Y-35795554D01*
X65550000Y-35735307D01*
X62050000Y-35735307D01*
X61772067Y-35787604D01*
X61516802Y-35951862D01*
X61345554Y-36202492D01*
X61285307Y-36500000D01*
X59952575Y-36500000D01*
X60040455Y-35915642D01*
X59936448Y-35392759D01*
X59680452Y-35276655D01*
X58957107Y-36000000D01*
X57542893Y-36000000D01*
X56819548Y-35276655D01*
X56563552Y-35392759D01*
X56459545Y-36084358D01*
X55014693Y-36084358D01*
X55014693Y-35000000D01*
X54962396Y-34722067D01*
X54864254Y-34569548D01*
X57526655Y-34569548D01*
X58250000Y-35292893D01*
X58973345Y-34569548D01*
X58857241Y-34313552D01*
X58165642Y-34209545D01*
X57642759Y-34313552D01*
X57526655Y-34569548D01*
X54864254Y-34569548D01*
X54798138Y-34466802D01*
X54547508Y-34295554D01*
X54250000Y-34235307D01*
X52250000Y-34235307D01*
X51972067Y-34287604D01*
X51716802Y-34451862D01*
X51545554Y-34702492D01*
X51485307Y-35000000D01*
X47542893Y-35000000D01*
X47723345Y-34819548D01*
X47607241Y-34563552D01*
X46915642Y-34459545D01*
X46392759Y-34563552D01*
X46276655Y-34819548D01*
X43614254Y-34819548D01*
X43548138Y-34716802D01*
X43297508Y-34545554D01*
X43000000Y-34485307D01*
X41000000Y-34485307D01*
X40722067Y-34537604D01*
X40466802Y-34701862D01*
X40295554Y-34952492D01*
X40235307Y-35250000D01*
X34683849Y-35250000D01*
X35357090Y-34577934D01*
X35781516Y-33555802D01*
X35781696Y-33349224D01*
X65992000Y-33349224D01*
X65992000Y-34185500D01*
X66181500Y-34375000D01*
X67625000Y-34375000D01*
X67625000Y-32931500D01*
X69375000Y-32931500D01*
X69375000Y-34375000D01*
X70818500Y-34375000D01*
X71008000Y-34185500D01*
X71008000Y-33349224D01*
X70892601Y-33070627D01*
X70801966Y-32979992D01*
X101128252Y-32979992D01*
X101222403Y-33453321D01*
X101491706Y-33623699D01*
X102315406Y-32800000D01*
X104224594Y-32800000D01*
X105048294Y-33623699D01*
X105317597Y-33453321D01*
X105371075Y-32979992D01*
X113128252Y-32979992D01*
X113222403Y-33453321D01*
X113491706Y-33623699D01*
X114315406Y-32800000D01*
X116224594Y-32800000D01*
X117048294Y-33623699D01*
X117317597Y-33453321D01*
X117411748Y-32620008D01*
X117317597Y-32146679D01*
X117048294Y-31976301D01*
X116224594Y-32800000D01*
X114315406Y-32800000D01*
X113491706Y-31976301D01*
X113222403Y-32146679D01*
X113128252Y-32979992D01*
X105371075Y-32979992D01*
X105411748Y-32620008D01*
X105317597Y-32146679D01*
X105048294Y-31976301D01*
X104224594Y-32800000D01*
X102315406Y-32800000D01*
X101491706Y-31976301D01*
X101222403Y-32146679D01*
X101128252Y-32979992D01*
X70801966Y-32979992D01*
X70679372Y-32857398D01*
X70400775Y-32742000D01*
X69564500Y-32742000D01*
X69375000Y-32931500D01*
X67625000Y-32931500D01*
X67435500Y-32742000D01*
X66599225Y-32742000D01*
X66320628Y-32857398D01*
X66107399Y-33070627D01*
X65992000Y-33349224D01*
X35781696Y-33349224D01*
X35782482Y-32449054D01*
X35359840Y-31426182D01*
X34759706Y-30825000D01*
X102570750Y-30825000D01*
X102446301Y-31021706D01*
M02*
