G04 #@! TF.FileFunction,Soldermask,Top*
%FSLAX46Y46*%
G04 Gerber Fmt 4.6, Leading zero omitted, Abs format (unit mm)*
G04 Created by KiCad (PCBNEW 4.0.7) date 01/14/21 23:37:04*
%MOMM*%
%LPD*%
G01*
G04 APERTURE LIST*
%ADD10C,0.100000*%
%ADD11O,2.400000X2.400000*%
%ADD12O,2.900000X3.900000*%
%ADD13O,3.900000X2.900000*%
%ADD14R,2.000000X2.400000*%
%ADD15R,1.650000X1.900000*%
%ADD16R,1.000000X1.950000*%
%ADD17R,1.900000X1.650000*%
%ADD18C,2.000000*%
%ADD19R,1.700000X1.900000*%
%ADD20C,1.920000*%
%ADD21C,3.100000*%
%ADD22R,3.400000X3.400000*%
%ADD23C,3.400000*%
%ADD24R,1.200000X1.300000*%
%ADD25R,1.900000X1.700000*%
%ADD26O,2.000000X2.000000*%
%ADD27R,2.400000X4.200000*%
%ADD28R,2.400000X1.900000*%
%ADD29R,0.850000X2.150000*%
%ADD30R,2.500000X2.200000*%
%ADD31R,1.950000X1.000000*%
%ADD32R,2.100000X2.100000*%
%ADD33O,2.100000X2.100000*%
%ADD34C,4.464000*%
%ADD35R,2.400000X2.000000*%
%ADD36R,1.400000X1.400000*%
%ADD37R,1.300000X1.200000*%
%ADD38R,2.400000X2.400000*%
%ADD39C,2.400000*%
%ADD40R,3.900000X3.900000*%
%ADD41R,1.600000X2.600000*%
%ADD42R,6.200000X6.800000*%
G04 APERTURE END LIST*
D10*
D11*
X32500000Y-76250000D03*
X32500000Y-67250000D03*
D12*
X36000000Y-71750000D03*
D13*
X41000000Y-71750000D03*
D14*
X33300000Y-119300000D03*
X33300000Y-115300000D03*
D15*
X65132000Y-76554000D03*
X65132000Y-79054000D03*
D16*
X51927000Y-63904000D03*
X53197000Y-63904000D03*
X54467000Y-63904000D03*
X55737000Y-63904000D03*
X55737000Y-58504000D03*
X54467000Y-58504000D03*
X53197000Y-58504000D03*
X51927000Y-58504000D03*
D15*
X113500000Y-49250000D03*
X113500000Y-46750000D03*
X104000000Y-66450000D03*
X104000000Y-63950000D03*
D17*
X116750000Y-58900000D03*
X119250000Y-58900000D03*
X115950000Y-66100000D03*
X118450000Y-66100000D03*
D15*
X107500000Y-66450000D03*
X107500000Y-63950000D03*
X116500000Y-68450000D03*
X116500000Y-70950000D03*
X107500000Y-71450000D03*
X107500000Y-68950000D03*
D17*
X64450000Y-114500000D03*
X61950000Y-114500000D03*
D18*
X53700000Y-114600000D03*
X58700000Y-114600000D03*
D15*
X72000000Y-112950000D03*
X72000000Y-110450000D03*
D18*
X75600000Y-115300000D03*
X75600000Y-110300000D03*
D15*
X88800000Y-110750000D03*
X88800000Y-108250000D03*
D19*
X123500000Y-44150000D03*
X123500000Y-41450000D03*
D20*
X110540000Y-37500000D03*
X108000000Y-37500000D03*
X108000000Y-35500000D03*
X110540000Y-35500000D03*
D21*
X115270000Y-32800000D03*
X103270000Y-32800000D03*
D22*
X100600000Y-125700000D03*
D23*
X95520000Y-125700000D03*
D24*
X118050000Y-50000000D03*
X119950000Y-50000000D03*
X119000000Y-48000000D03*
D25*
X118650000Y-35500000D03*
X121350000Y-35500000D03*
D19*
X112500000Y-43850000D03*
X112500000Y-41150000D03*
X119500000Y-43850000D03*
X119500000Y-41150000D03*
X116000000Y-43850000D03*
X116000000Y-41150000D03*
X118000000Y-55850000D03*
X118000000Y-53150000D03*
D25*
X110150000Y-65200000D03*
X112850000Y-65200000D03*
D19*
X123500000Y-47650000D03*
X123500000Y-50350000D03*
D18*
X53500000Y-106200000D03*
D26*
X61120000Y-106200000D03*
D25*
X55750000Y-109900000D03*
X58450000Y-109900000D03*
D18*
X79500000Y-115300000D03*
D26*
X79500000Y-107680000D03*
D25*
X82650000Y-115000000D03*
X85350000Y-115000000D03*
X64450000Y-105700000D03*
X67150000Y-105700000D03*
D18*
X61500000Y-110400000D03*
D26*
X69120000Y-110400000D03*
D25*
X89250000Y-116800000D03*
X91950000Y-116800000D03*
D27*
X87100000Y-38500000D03*
D28*
X93400000Y-38500000D03*
X93400000Y-36200000D03*
X93400000Y-40800000D03*
D29*
X114225000Y-52400000D03*
X113575000Y-52400000D03*
X112925000Y-52400000D03*
X112275000Y-52400000D03*
X111625000Y-52400000D03*
X110975000Y-52400000D03*
X110325000Y-52400000D03*
X109675000Y-52400000D03*
X109025000Y-52400000D03*
X108375000Y-52400000D03*
X107725000Y-52400000D03*
X107075000Y-52400000D03*
X106425000Y-52400000D03*
X105775000Y-52400000D03*
X105775000Y-59600000D03*
X106425000Y-59600000D03*
X107075000Y-59600000D03*
X107725000Y-59600000D03*
X108375000Y-59600000D03*
X109025000Y-59600000D03*
X109675000Y-59600000D03*
X110325000Y-59600000D03*
X110975000Y-59600000D03*
X111625000Y-59600000D03*
X112275000Y-59600000D03*
X112925000Y-59600000D03*
X113575000Y-59600000D03*
X114225000Y-59600000D03*
D16*
X86505000Y-102600000D03*
X85235000Y-102600000D03*
X83965000Y-102600000D03*
X82695000Y-102600000D03*
X82695000Y-108000000D03*
X83965000Y-108000000D03*
X85235000Y-108000000D03*
X86505000Y-108000000D03*
D30*
X113450000Y-68550000D03*
X110550000Y-68550000D03*
X110550000Y-70850000D03*
X113450000Y-70850000D03*
D17*
X66150000Y-94000000D03*
X63650000Y-94000000D03*
D18*
X55300000Y-93500000D03*
X60300000Y-93500000D03*
D15*
X71600000Y-97450000D03*
X71600000Y-99950000D03*
D18*
X74900000Y-97400000D03*
X74900000Y-102400000D03*
D22*
X122250000Y-99750000D03*
D23*
X122250000Y-104830000D03*
D18*
X53500000Y-101900000D03*
D26*
X61120000Y-101900000D03*
D25*
X55750000Y-98600000D03*
X58450000Y-98600000D03*
D18*
X79000000Y-96000000D03*
D26*
X79000000Y-103620000D03*
D25*
X82850000Y-96600000D03*
X85550000Y-96600000D03*
X64550000Y-101800000D03*
X67250000Y-101800000D03*
D18*
X61100000Y-98200000D03*
D26*
X68720000Y-98200000D03*
D25*
X88950000Y-99400000D03*
X91650000Y-99400000D03*
D17*
X73750000Y-105700000D03*
X76250000Y-105700000D03*
X51350000Y-118600000D03*
X53850000Y-118600000D03*
X39250000Y-124500000D03*
X41750000Y-124500000D03*
D18*
X46800000Y-106100000D03*
D26*
X46800000Y-113720000D03*
D19*
X51000000Y-113550000D03*
X51000000Y-110850000D03*
D18*
X62600000Y-120900000D03*
D26*
X70220000Y-120900000D03*
D25*
X59350000Y-118700000D03*
X56650000Y-118700000D03*
X87750000Y-120800000D03*
X85050000Y-120800000D03*
D18*
X82200000Y-120800000D03*
D26*
X74580000Y-120800000D03*
D18*
X82200000Y-124300000D03*
D26*
X74580000Y-124300000D03*
D25*
X87750000Y-124400000D03*
X85050000Y-124400000D03*
D18*
X38100000Y-120900000D03*
D26*
X38100000Y-113280000D03*
D25*
X40950000Y-113400000D03*
X43650000Y-113400000D03*
D31*
X47200000Y-121105000D03*
X47200000Y-119835000D03*
X47200000Y-118565000D03*
X47200000Y-117295000D03*
X41800000Y-117295000D03*
X41800000Y-118565000D03*
X41800000Y-119835000D03*
X41800000Y-121105000D03*
D22*
X38000000Y-51000000D03*
D23*
X38000000Y-45920000D03*
D19*
X99600000Y-110650000D03*
X99600000Y-113350000D03*
D25*
X94650000Y-102500000D03*
X97350000Y-102500000D03*
D17*
X62582000Y-48504000D03*
X60082000Y-48504000D03*
D32*
X85032000Y-64854000D03*
D33*
X85032000Y-62314000D03*
X85032000Y-59774000D03*
D25*
X46882000Y-52404000D03*
X49582000Y-52404000D03*
D19*
X63432000Y-53354000D03*
X63432000Y-50654000D03*
X59932000Y-53454000D03*
X59932000Y-50754000D03*
D18*
X56632000Y-48204000D03*
D26*
X56632000Y-55824000D03*
D19*
X60132000Y-61054000D03*
X60132000Y-58354000D03*
D18*
X66232000Y-64404000D03*
D26*
X58612000Y-64404000D03*
D17*
X46682000Y-58404000D03*
X49182000Y-58404000D03*
D22*
X37250000Y-85500000D03*
D23*
X37250000Y-80420000D03*
D32*
X85032000Y-76104000D03*
D33*
X85032000Y-73564000D03*
X85032000Y-71024000D03*
D25*
X44782000Y-71604000D03*
X47482000Y-71604000D03*
D19*
X65132000Y-71654000D03*
X65132000Y-74354000D03*
D25*
X61782000Y-81604000D03*
X64482000Y-81604000D03*
D18*
X61932000Y-79104000D03*
D26*
X61932000Y-71484000D03*
D25*
X51682000Y-68104000D03*
X54382000Y-68104000D03*
D18*
X58432000Y-71004000D03*
D26*
X50812000Y-71004000D03*
D34*
X33000000Y-33000000D03*
X127000000Y-33000000D03*
X127000000Y-127000000D03*
X33000000Y-127000000D03*
D15*
X68532000Y-55854000D03*
X68532000Y-58354000D03*
D17*
X69282000Y-77354000D03*
X71782000Y-77354000D03*
X79032000Y-50604000D03*
X76532000Y-50604000D03*
D19*
X76032000Y-55704000D03*
X76032000Y-53004000D03*
D18*
X72782000Y-48104000D03*
D26*
X72782000Y-55724000D03*
D25*
X77132000Y-77354000D03*
X74432000Y-77354000D03*
D18*
X69282000Y-74604000D03*
D26*
X76902000Y-74604000D03*
D19*
X80532000Y-56204000D03*
X80532000Y-53504000D03*
D18*
X80232000Y-64604000D03*
D26*
X80232000Y-72224000D03*
D25*
X70432000Y-68104000D03*
X73132000Y-68104000D03*
D18*
X77032000Y-71104000D03*
D26*
X69412000Y-71104000D03*
D16*
X70877000Y-64304000D03*
X72147000Y-64304000D03*
X73417000Y-64304000D03*
X74687000Y-64304000D03*
X74687000Y-58904000D03*
X73417000Y-58904000D03*
X72147000Y-58904000D03*
X70877000Y-58904000D03*
D32*
X63832000Y-60704000D03*
D33*
X63832000Y-58164000D03*
D32*
X53132000Y-78304000D03*
D33*
X55672000Y-78304000D03*
D32*
X85132000Y-49704000D03*
D33*
X85132000Y-52244000D03*
D32*
X85090000Y-81788000D03*
D33*
X82550000Y-81788000D03*
D35*
X95980000Y-32766000D03*
X91980000Y-32766000D03*
D14*
X108500000Y-48000000D03*
X108500000Y-44000000D03*
D35*
X46932000Y-55904000D03*
X50932000Y-55904000D03*
X101000000Y-53700000D03*
X97000000Y-53700000D03*
X89200000Y-113600000D03*
X93200000Y-113600000D03*
X95300000Y-116900000D03*
X99300000Y-116900000D03*
X95100000Y-99400000D03*
X99100000Y-99400000D03*
X45100000Y-124500000D03*
X49100000Y-124500000D03*
D14*
X53132000Y-52704000D03*
X53132000Y-48704000D03*
D35*
X45332000Y-75704000D03*
X49332000Y-75704000D03*
D14*
X68532000Y-52854000D03*
X68532000Y-48854000D03*
D17*
X63782000Y-67304000D03*
X61282000Y-67304000D03*
X55682000Y-73904000D03*
X53182000Y-73904000D03*
D15*
X81932000Y-50754000D03*
X81932000Y-48254000D03*
D17*
X78082000Y-80804000D03*
X75582000Y-80804000D03*
D32*
X98700000Y-66500000D03*
D33*
X98700000Y-69040000D03*
D19*
X81132000Y-59454000D03*
X81132000Y-62154000D03*
X80932000Y-75354000D03*
X80932000Y-78054000D03*
D36*
X104500000Y-44750000D03*
X104500000Y-47250000D03*
X100100000Y-46050000D03*
X100100000Y-48550000D03*
D19*
X47800000Y-102850000D03*
X47800000Y-100150000D03*
D18*
X60800000Y-126300000D03*
D26*
X53180000Y-126300000D03*
D25*
X58050000Y-123500000D03*
X55350000Y-123500000D03*
D35*
X45000000Y-128500000D03*
X41000000Y-128500000D03*
D19*
X35500000Y-121850000D03*
X35500000Y-119150000D03*
X45500000Y-94750000D03*
X45500000Y-97450000D03*
D15*
X123400000Y-65050000D03*
X123400000Y-62550000D03*
D19*
X123400000Y-67650000D03*
X123400000Y-70350000D03*
X127100000Y-62350000D03*
X127100000Y-65050000D03*
D17*
X109050000Y-83100000D03*
X106550000Y-83100000D03*
D24*
X100750000Y-75600000D03*
X102650000Y-75600000D03*
X101700000Y-73600000D03*
D37*
X102700000Y-80250000D03*
X102700000Y-78350000D03*
X100700000Y-79300000D03*
D19*
X107500000Y-78150000D03*
X107500000Y-75450000D03*
D25*
X114350000Y-76300000D03*
X111650000Y-76300000D03*
X103350000Y-83200000D03*
X100650000Y-83200000D03*
X114450000Y-79700000D03*
X111750000Y-79700000D03*
X114550000Y-83100000D03*
X111850000Y-83100000D03*
X101450000Y-87200000D03*
X98750000Y-87200000D03*
D11*
X32750000Y-64750000D03*
X32750000Y-55750000D03*
D12*
X36250000Y-60250000D03*
D13*
X41250000Y-60250000D03*
D11*
X32900000Y-98800000D03*
X32900000Y-89800000D03*
D12*
X36400000Y-94300000D03*
D13*
X41400000Y-94300000D03*
D11*
X32700000Y-111000000D03*
X32700000Y-102000000D03*
D12*
X36200000Y-106500000D03*
D13*
X41200000Y-106500000D03*
D11*
X126300000Y-86300000D03*
X126300000Y-95300000D03*
D12*
X122800000Y-90800000D03*
D13*
X117800000Y-90800000D03*
D11*
X126400000Y-73600000D03*
X126400000Y-82600000D03*
D12*
X122900000Y-78100000D03*
D13*
X117900000Y-78100000D03*
D11*
X127000000Y-109250000D03*
X127000000Y-118250000D03*
D12*
X123500000Y-113750000D03*
D13*
X118500000Y-113750000D03*
D11*
X115000000Y-127500000D03*
X106000000Y-127500000D03*
D13*
X110500000Y-124000000D03*
D12*
X110500000Y-119000000D03*
D38*
X42000000Y-36250000D03*
D39*
X47000000Y-36250000D03*
D38*
X53250000Y-36000000D03*
D39*
X58250000Y-36000000D03*
D17*
X69000000Y-45500000D03*
X71500000Y-45500000D03*
D40*
X68500000Y-41250000D03*
X68500000Y-35250000D03*
X63800000Y-38250000D03*
D32*
X99250000Y-36000000D03*
D33*
X99250000Y-38540000D03*
X99250000Y-41080000D03*
D41*
X76720000Y-42700000D03*
X79000000Y-42700000D03*
X81280000Y-42700000D03*
D42*
X79000000Y-36400000D03*
M02*
