M48
;DRILL file {KiCad 4.0.7} date 03/22/21 13:38:20
;FORMAT={-:-/ absolute / metric / decimal}
FMAT,2
METRIC,TZ
T1C2.000
T2C3.048
%
G90
G05
M71
T1
X52.14Y-122.52
X59.76Y-127.6
X76.14Y-122.52
X83.76Y-127.6
T2
X33.Y-33.
X33.Y-127.
X127.Y-33.
X127.Y-127.
T1
X32.65Y-49.7G85X32.65Y-49.7
G05
X32.65Y-58.7G85X32.65Y-58.7
G05
X32.7Y-61.85G85X32.7Y-61.85
G05
X32.7Y-70.85G85X32.7Y-70.85
G05
X32.85Y-85.1G85X32.85Y-85.1
G05
X32.85Y-94.1G85X32.85Y-94.1
G05
X33.05Y-107.8G85X33.05Y-107.8
G05
X33.05Y-116.8G85X33.05Y-116.8
G05
X106.Y-127.5G85X106.Y-127.5
G05
X115.Y-127.5G85X115.Y-127.5
G05
X126.3Y-86.3G85X126.3Y-86.3
G05
X126.3Y-95.3G85X126.3Y-95.3
G05
X126.4Y-73.6G85X126.4Y-73.6
G05
X126.4Y-82.6G85X126.4Y-82.6
G05
X127.55Y-109.2G85X127.55Y-109.2
G05
X127.55Y-118.2G85X127.55Y-118.2
G05
T0
M30
