M48
;DRILL file {KiCad 4.0.7} date 12/28/20 23:57:51
;FORMAT={-:-/ absolute / metric / decimal}
FMAT,2
METRIC,TZ
T1C0.400
T2C0.800
T3C0.810
T4C1.000
T5C1.500
T6C1.520
T7C2.300
%
G90
G05
M71
T1
X43.6Y-53.4
X45.7Y-53.1
X48.8Y-37.9
X52.1Y-38.
X52.9Y-125.4
X53.6Y-122.3
X54.5Y-59.6
X55.3Y-58.1
X55.6Y-118.5
X60.9Y-66.9
X62.1Y-42.4
X63.Y-44.
X63.4Y-115.4
X64.1Y-122.
X64.2Y-65.5
X64.5Y-116.5
X66.1Y-118.7
X66.5Y-124.4
X66.6Y-121.8
X73.Y-60.1
X73.4Y-56.2
X81.1Y-95.
X81.1Y-115.7
X81.4Y-113.7
X82.9Y-92.7
X87.5Y-104.9
X88.4Y-103.9
X91.2Y-32.4
X95.3Y-32.9
X95.4Y-51.7
X96.4Y-101.2
X96.8Y-55.
X99.Y-42.8
X100.3Y-106.
X100.9Y-41.1
X101.5Y-103.9
X102.6Y-110.1
X104.Y-66.9
X104.7Y-114.7
X105.9Y-66.3
X105.9Y-67.3
X107.Y-43.3
X107.3Y-57.7
X107.6Y-49.7
X107.7Y-101.7
X108.2Y-54.3
X108.4Y-41.9
X108.5Y-103.9
X109.Y-114.8
X109.3Y-110.8
X109.7Y-57.7
X110.Y-65.6
X111.2Y-57.7
X112.5Y-57.8
X112.6Y-45.6
X113.2Y-109.
X113.9Y-71.3
X114.Y-45.2
X115.3Y-68.6
X116.2Y-71.4
X119.6Y-58.6
X119.7Y-46.8
X120.5Y-61.3
X120.7Y-65.2
T2
X48.78Y-64.4
X51.Y-109.5
X54.6Y-41.6
X54.6Y-49.22
X56.4Y-64.4
X57.88Y-56.3
X58.62Y-109.5
X59.7Y-61.08
X59.7Y-68.7
X61.9Y-105.7
X61.9Y-113.32
X65.5Y-56.3
X68.6Y-101.5
X68.6Y-105.8
X68.8Y-114.2
X70.4Y-93.1
X73.8Y-114.2
X75.4Y-93.1
X76.2Y-97.8
X76.22Y-101.5
X76.22Y-105.8
X76.6Y-110.
X77.7Y-120.5
X83.82Y-97.8
X84.22Y-110.
X85.32Y-120.5
X89.68Y-120.4
X89.68Y-123.9
X90.Y-97.
X90.Y-102.
X90.7Y-109.9
X90.7Y-114.9
X94.1Y-95.6
X94.1Y-103.22
X94.6Y-107.28
X94.6Y-114.9
X97.3Y-120.4
X97.3Y-123.9
T3
X108.Y-35.5
X108.Y-37.5
X110.54Y-35.5
X110.54Y-37.5
T4
X69.4Y-53.52
X69.4Y-56.06
X69.4Y-58.6
X69.5Y-65.22
X69.5Y-67.76
X69.5Y-70.3
T6
X36.8Y-49.02
X36.8Y-54.1
X36.8Y-69.62
X36.8Y-74.7
X124.5Y-99.
X124.5Y-104.08
X124.8Y-73.
X124.8Y-78.08
T7
X103.27Y-32.8
X115.27Y-32.8
T5
X119.4Y-87.9G85X118.4Y-87.9
G05
X119.8Y-113.7G85X118.8Y-113.7
G05
X123.9Y-87.4G85X123.9Y-88.4
G05
X124.3Y-113.2G85X124.3Y-114.2
G05
T0
M30
