G04 #@! TF.FileFunction,Copper,L2,Bot,Signal*
%FSLAX46Y46*%
G04 Gerber Fmt 4.6, Leading zero omitted, Abs format (unit mm)*
G04 Created by KiCad (PCBNEW 4.0.7) date 03/22/21 13:38:18*
%MOMM*%
%LPD*%
G01*
G04 APERTURE LIST*
%ADD10C,0.100000*%
%ADD11C,1.600000*%
%ADD12O,1.600000X1.600000*%
%ADD13R,3.000000X3.000000*%
%ADD14C,3.000000*%
%ADD15O,2.500000X3.500000*%
%ADD16O,3.500000X2.500000*%
%ADD17C,1.520000*%
%ADD18C,2.700000*%
%ADD19R,1.700000X1.700000*%
%ADD20O,1.700000X1.700000*%
%ADD21C,4.064000*%
%ADD22R,2.000000X2.000000*%
%ADD23C,2.000000*%
%ADD24R,3.500000X3.500000*%
%ADD25C,0.600000*%
%ADD26C,0.350000*%
%ADD27C,0.500000*%
G04 APERTURE END LIST*
D10*
D11*
X47650000Y-103050000D03*
D12*
X47650000Y-110670000D03*
D11*
X84400000Y-82450000D03*
D12*
X84400000Y-90070000D03*
D13*
X41350000Y-125500000D03*
D14*
X41350000Y-120420000D03*
D13*
X122900000Y-99900000D03*
D14*
X122900000Y-104980000D03*
D15*
X36200000Y-66350000D03*
D16*
X41200000Y-66350000D03*
D11*
X78200000Y-93200000D03*
X83200000Y-93200000D03*
X96750000Y-116850000D03*
X101750000Y-116850000D03*
D17*
X110540000Y-37500000D03*
X108000000Y-37500000D03*
X108000000Y-35500000D03*
X110540000Y-35500000D03*
D18*
X115270000Y-32800000D03*
X103270000Y-32800000D03*
D13*
X100750000Y-123950000D03*
D14*
X95670000Y-123950000D03*
D11*
X87350000Y-111700000D03*
D12*
X94970000Y-111700000D03*
D11*
X85100000Y-98950000D03*
D12*
X85100000Y-106570000D03*
D11*
X88880000Y-92930000D03*
X88880000Y-97930000D03*
X96760000Y-100750000D03*
X101760000Y-100750000D03*
X89900000Y-82500000D03*
D12*
X89900000Y-90120000D03*
D11*
X92620000Y-101540000D03*
D12*
X92620000Y-93920000D03*
D11*
X87400000Y-108130000D03*
D12*
X95020000Y-108130000D03*
D11*
X80200000Y-83000000D03*
D12*
X72580000Y-83000000D03*
D11*
X62700000Y-81800000D03*
D12*
X55080000Y-81800000D03*
D13*
X36850000Y-44700000D03*
D14*
X36850000Y-39620000D03*
D19*
X89700000Y-63200000D03*
D20*
X89700000Y-60660000D03*
X89700000Y-58120000D03*
D11*
X50300000Y-57000000D03*
D12*
X50300000Y-64620000D03*
D11*
X66800000Y-55500000D03*
D12*
X66800000Y-47880000D03*
D13*
X37250000Y-80650000D03*
D14*
X37250000Y-75570000D03*
D19*
X89800000Y-74800000D03*
D20*
X89800000Y-72260000D03*
X89800000Y-69720000D03*
D11*
X51400000Y-66700000D03*
D12*
X51400000Y-74320000D03*
D11*
X65000000Y-70300000D03*
D12*
X57380000Y-70300000D03*
D21*
X33000000Y-33000000D03*
X127000000Y-33000000D03*
X127000000Y-127000000D03*
X33000000Y-127000000D03*
D11*
X70600000Y-47900000D03*
D12*
X70600000Y-55520000D03*
D11*
X68200000Y-69900000D03*
D12*
X68200000Y-77520000D03*
D11*
X85700000Y-53600000D03*
D12*
X85700000Y-61220000D03*
D11*
X86900000Y-68100000D03*
D12*
X79280000Y-68100000D03*
D19*
X53700000Y-56700000D03*
D20*
X53700000Y-59240000D03*
D19*
X57900000Y-76800000D03*
D20*
X57900000Y-74260000D03*
D19*
X72900000Y-61600000D03*
D20*
X72900000Y-59060000D03*
D19*
X76000000Y-68700000D03*
D20*
X76000000Y-71240000D03*
D19*
X98600000Y-83700000D03*
D20*
X98600000Y-81160000D03*
D15*
X36150000Y-54200000D03*
D16*
X41150000Y-54200000D03*
D15*
X36350000Y-89600000D03*
D16*
X41350000Y-89600000D03*
D15*
X36550000Y-112300000D03*
D16*
X41550000Y-112300000D03*
D15*
X122800000Y-90800000D03*
D16*
X117800000Y-90800000D03*
D15*
X122900000Y-78100000D03*
D16*
X117900000Y-78100000D03*
D15*
X124050000Y-113700000D03*
D16*
X119050000Y-113700000D03*
X110500000Y-124000000D03*
D15*
X110500000Y-119000000D03*
D22*
X44000000Y-35750000D03*
D23*
X49000000Y-35750000D03*
D22*
X54750000Y-35650000D03*
D23*
X59750000Y-35650000D03*
D24*
X69750000Y-41250000D03*
X69750000Y-35250000D03*
X65050000Y-38250000D03*
D19*
X99250000Y-36000000D03*
D20*
X99250000Y-38540000D03*
X99250000Y-41080000D03*
D19*
X47900000Y-48100000D03*
D20*
X47900000Y-45560000D03*
D19*
X50500000Y-82600000D03*
D20*
X50500000Y-85140000D03*
D11*
X51700000Y-44900000D03*
D12*
X51700000Y-52520000D03*
D11*
X54700000Y-74300000D03*
D12*
X54700000Y-66680000D03*
D11*
X64600000Y-65800000D03*
D12*
X72220000Y-65800000D03*
D11*
X71900000Y-69800000D03*
D12*
X71900000Y-77420000D03*
D13*
X37550000Y-103400000D03*
D14*
X37550000Y-98320000D03*
X55950000Y-113630000D03*
X52140000Y-113630000D03*
X59760000Y-113630000D03*
X55950000Y-118710000D03*
X79950000Y-113630000D03*
X76140000Y-113630000D03*
X83760000Y-113630000D03*
X79950000Y-118710000D03*
D25*
X42750000Y-108550000D03*
X45000000Y-106150000D03*
X63350000Y-108500000D03*
X77200000Y-106100000D03*
X69250000Y-105700000D03*
X55200000Y-106250000D03*
X73700000Y-100550000D03*
X63350000Y-98650000D03*
X67200000Y-85650000D03*
X116150000Y-125800000D03*
X62450000Y-99200000D03*
X77050000Y-101550000D03*
X75500000Y-99350000D03*
X48350000Y-101550000D03*
X48000000Y-100050000D03*
X55300000Y-88800000D03*
X53950000Y-87400000D03*
X67700000Y-88700000D03*
X65750000Y-94300000D03*
X53600000Y-94750000D03*
X60750000Y-99950000D03*
X50700000Y-94000000D03*
X49700000Y-93850000D03*
X43750000Y-81200000D03*
X103900000Y-114400000D03*
X110800000Y-106500000D03*
X111750000Y-107300000D03*
X110800000Y-110500000D03*
X106900000Y-114450000D03*
X110550000Y-105300000D03*
X86600000Y-92050000D03*
X87800000Y-94550000D03*
X109100000Y-94500000D03*
X113000000Y-77400000D03*
X119500000Y-67600000D03*
X102400000Y-67400000D03*
X79400000Y-47500000D03*
X78100000Y-48800000D03*
X106100000Y-103200000D03*
X91500000Y-40600000D03*
X93100000Y-42100000D03*
X103300000Y-90100000D03*
X105900000Y-88400000D03*
X97300000Y-105900000D03*
X106400000Y-76800000D03*
X111100000Y-79000000D03*
X97400000Y-107300000D03*
X105300000Y-101200000D03*
X111100000Y-95900000D03*
X119100000Y-64500000D03*
X117500000Y-71900000D03*
X114100000Y-72400000D03*
X111200000Y-66900000D03*
X104900000Y-69200000D03*
X106000000Y-68000000D03*
X103900000Y-68100000D03*
X120700000Y-59400000D03*
X119900000Y-57600000D03*
X112600000Y-57800000D03*
X110300000Y-58000000D03*
X107600000Y-57700000D03*
X107600000Y-54500000D03*
X112300000Y-54500000D03*
X119700000Y-46600000D03*
X114000000Y-45300000D03*
X109300000Y-41900000D03*
X106700000Y-43200000D03*
X96800000Y-55100000D03*
X96000000Y-51900000D03*
X62200000Y-44900000D03*
X58700000Y-48500000D03*
X61100000Y-43700000D03*
X81400000Y-61600000D03*
X76100000Y-44700000D03*
X71600000Y-44300000D03*
X61600000Y-61400000D03*
X62700000Y-61300000D03*
X82500000Y-61400000D03*
X61550000Y-102150000D03*
X65900000Y-102300000D03*
X70650000Y-122950000D03*
X72300000Y-123900000D03*
X125300000Y-120900000D03*
X125350000Y-119150000D03*
X114000000Y-55350000D03*
X111950000Y-56400000D03*
X92400000Y-65600000D03*
X95300000Y-66200000D03*
X94100000Y-64900000D03*
X95500000Y-43000000D03*
D26*
X111750000Y-107300000D02*
X111750000Y-107350000D01*
X117500000Y-71900000D02*
X117600000Y-71900000D01*
X61550000Y-102150000D02*
X61700000Y-102300000D01*
X61700000Y-102300000D02*
X65900000Y-102300000D01*
X71350000Y-122950000D02*
X70650000Y-122950000D01*
X72300000Y-123900000D02*
X71350000Y-122950000D01*
X125300000Y-119200000D02*
X125300000Y-120900000D01*
X125350000Y-119150000D02*
X125300000Y-119200000D01*
X113000000Y-55350000D02*
X114000000Y-55350000D01*
X111950000Y-56400000D02*
X113000000Y-55350000D01*
X92400000Y-65600000D02*
X92400000Y-65800000D01*
X92400000Y-65800000D02*
X92800000Y-66200000D01*
X92800000Y-66200000D02*
X95300000Y-66200000D01*
X92540000Y-101520000D02*
X93060000Y-101520000D01*
X92900000Y-63700000D02*
X90200000Y-63700000D01*
X94100000Y-64900000D02*
X92900000Y-63700000D01*
X90200000Y-63700000D02*
X89700000Y-63200000D01*
X68200000Y-69900000D02*
X67800000Y-69900000D01*
X67800000Y-69900000D02*
X65700000Y-72000000D01*
X59080000Y-72000000D02*
X57380000Y-70300000D01*
X65700000Y-72000000D02*
X59080000Y-72000000D01*
D27*
X99250000Y-41080000D02*
X97420000Y-41080000D01*
X97420000Y-41080000D02*
X95500000Y-43000000D01*
G36*
X102446301Y-31021706D02*
X103270000Y-31845406D01*
X104093699Y-31021706D01*
X103969250Y-30825000D01*
X114570750Y-30825000D01*
X114446301Y-31021706D01*
X115270000Y-31845406D01*
X116093699Y-31021706D01*
X115969250Y-30825000D01*
X125241019Y-30825000D01*
X124642910Y-31422066D01*
X124218484Y-32444198D01*
X124217518Y-33550946D01*
X124640160Y-34573818D01*
X125422066Y-35357090D01*
X126444198Y-35781516D01*
X127550946Y-35782482D01*
X128573818Y-35359840D01*
X129175000Y-34759706D01*
X129175000Y-108537298D01*
X129166789Y-108496019D01*
X128787437Y-107928278D01*
X128219696Y-107548926D01*
X127550000Y-107415715D01*
X126880304Y-107548926D01*
X126312563Y-107928278D01*
X125933211Y-108496019D01*
X125800000Y-109165715D01*
X125800000Y-109234285D01*
X125933211Y-109903981D01*
X126312563Y-110471722D01*
X126880304Y-110851074D01*
X127550000Y-110984285D01*
X128219696Y-110851074D01*
X128787437Y-110471722D01*
X129166789Y-109903981D01*
X129175000Y-109862702D01*
X129175000Y-117537298D01*
X129166789Y-117496019D01*
X128787437Y-116928278D01*
X128219696Y-116548926D01*
X127550000Y-116415715D01*
X126880304Y-116548926D01*
X126312563Y-116928278D01*
X125933211Y-117496019D01*
X125800000Y-118165715D01*
X125800000Y-118199933D01*
X125559774Y-118100182D01*
X125142058Y-118099818D01*
X124756000Y-118259334D01*
X124460372Y-118554446D01*
X124300182Y-118940226D01*
X124299818Y-119357942D01*
X124375000Y-119539896D01*
X124375000Y-120389631D01*
X124250182Y-120690226D01*
X124249818Y-121107942D01*
X124409334Y-121494000D01*
X124704446Y-121789628D01*
X125090226Y-121949818D01*
X125507942Y-121950182D01*
X125894000Y-121790666D01*
X126189628Y-121495554D01*
X126349818Y-121109774D01*
X126350182Y-120692058D01*
X126225000Y-120389095D01*
X126225000Y-119760156D01*
X126239628Y-119745554D01*
X126344478Y-119493047D01*
X126880304Y-119851074D01*
X127550000Y-119984285D01*
X128219696Y-119851074D01*
X128787437Y-119471722D01*
X129166789Y-118903981D01*
X129175000Y-118862702D01*
X129175000Y-125241019D01*
X128577934Y-124642910D01*
X127555802Y-124218484D01*
X126449054Y-124217518D01*
X125426182Y-124640160D01*
X124642910Y-125422066D01*
X124218484Y-126444198D01*
X124217518Y-127550946D01*
X124640160Y-128573818D01*
X125240294Y-129175000D01*
X115411335Y-129175000D01*
X115703981Y-129116789D01*
X116271722Y-128737437D01*
X116651074Y-128169696D01*
X116784285Y-127500000D01*
X116651074Y-126830304D01*
X116271722Y-126262563D01*
X115703981Y-125883211D01*
X115034285Y-125750000D01*
X114965715Y-125750000D01*
X114296019Y-125883211D01*
X113728278Y-126262563D01*
X113348926Y-126830304D01*
X113215715Y-127500000D01*
X113348926Y-128169696D01*
X113728278Y-128737437D01*
X114296019Y-129116789D01*
X114588665Y-129175000D01*
X106411335Y-129175000D01*
X106703981Y-129116789D01*
X107271722Y-128737437D01*
X107651074Y-128169696D01*
X107784285Y-127500000D01*
X107651074Y-126830304D01*
X107271722Y-126262563D01*
X106703981Y-125883211D01*
X106034285Y-125750000D01*
X105965715Y-125750000D01*
X105296019Y-125883211D01*
X104728278Y-126262563D01*
X104348926Y-126830304D01*
X104215715Y-127500000D01*
X104348926Y-128169696D01*
X104728278Y-128737437D01*
X105296019Y-129116789D01*
X105588665Y-129175000D01*
X84530837Y-129175000D01*
X84750001Y-129084443D01*
X85242713Y-128592590D01*
X85509696Y-127949624D01*
X85510304Y-127253431D01*
X85244443Y-126609999D01*
X84752590Y-126117287D01*
X84173822Y-125876961D01*
X94803699Y-125876961D01*
X94997361Y-126151784D01*
X95891149Y-126241592D01*
X96342639Y-126151784D01*
X96536301Y-125876961D01*
X95670000Y-125010660D01*
X94803699Y-125876961D01*
X84173822Y-125876961D01*
X84109624Y-125850304D01*
X83413431Y-125849696D01*
X82769999Y-126115557D01*
X82277287Y-126607410D01*
X82010304Y-127250376D01*
X82009696Y-127946569D01*
X82275557Y-128590001D01*
X82767410Y-129082713D01*
X82989662Y-129175000D01*
X60530837Y-129175000D01*
X60750001Y-129084443D01*
X61242713Y-128592590D01*
X61509696Y-127949624D01*
X61510304Y-127253431D01*
X61244443Y-126609999D01*
X60752590Y-126117287D01*
X60109624Y-125850304D01*
X59413431Y-125849696D01*
X58769999Y-126115557D01*
X58277287Y-126607410D01*
X58010304Y-127250376D01*
X58009696Y-127946569D01*
X58275557Y-128590001D01*
X58767410Y-129082713D01*
X58989662Y-129175000D01*
X34758981Y-129175000D01*
X35357090Y-128577934D01*
X35781516Y-127555802D01*
X35782482Y-126449054D01*
X35359840Y-125426182D01*
X34577934Y-124642910D01*
X33555802Y-124218484D01*
X32449054Y-124217518D01*
X31426182Y-124640160D01*
X30825000Y-125240294D01*
X30825000Y-124000000D01*
X39085307Y-124000000D01*
X39085307Y-127000000D01*
X39137604Y-127277933D01*
X39301862Y-127533198D01*
X39552492Y-127704446D01*
X39850000Y-127764693D01*
X42850000Y-127764693D01*
X43127933Y-127712396D01*
X43383198Y-127548138D01*
X43554446Y-127297508D01*
X43614693Y-127000000D01*
X43614693Y-124000000D01*
X43562396Y-123722067D01*
X43398138Y-123466802D01*
X43147508Y-123295554D01*
X42850000Y-123235307D01*
X39850000Y-123235307D01*
X39572067Y-123287604D01*
X39316802Y-123451862D01*
X39145554Y-123702492D01*
X39085307Y-124000000D01*
X30825000Y-124000000D01*
X30825000Y-122866569D01*
X50389696Y-122866569D01*
X50655557Y-123510001D01*
X51147410Y-124002713D01*
X51790376Y-124269696D01*
X52486569Y-124270304D01*
X53130001Y-124004443D01*
X53622713Y-123512590D01*
X53769975Y-123157942D01*
X69599818Y-123157942D01*
X69759334Y-123544000D01*
X70054446Y-123839628D01*
X70440226Y-123999818D01*
X70857942Y-124000182D01*
X71023590Y-123931738D01*
X71285042Y-124193190D01*
X71409334Y-124494000D01*
X71704446Y-124789628D01*
X72090226Y-124949818D01*
X72507942Y-124950182D01*
X72894000Y-124790666D01*
X73189628Y-124495554D01*
X73349818Y-124109774D01*
X73350182Y-123692058D01*
X73190666Y-123306000D01*
X72895554Y-123010372D01*
X72592809Y-122884661D01*
X72574717Y-122866569D01*
X74389696Y-122866569D01*
X74655557Y-123510001D01*
X75147410Y-124002713D01*
X75790376Y-124269696D01*
X76486569Y-124270304D01*
X76726542Y-124171149D01*
X93378408Y-124171149D01*
X93468216Y-124622639D01*
X93743039Y-124816301D01*
X94609340Y-123950000D01*
X96730660Y-123950000D01*
X97596961Y-124816301D01*
X97871784Y-124622639D01*
X97961592Y-123728851D01*
X97871784Y-123277361D01*
X97596961Y-123083699D01*
X96730660Y-123950000D01*
X94609340Y-123950000D01*
X93743039Y-123083699D01*
X93468216Y-123277361D01*
X93378408Y-124171149D01*
X76726542Y-124171149D01*
X77130001Y-124004443D01*
X77622713Y-123512590D01*
X77889696Y-122869624D01*
X77890304Y-122173431D01*
X77828164Y-122023039D01*
X94803699Y-122023039D01*
X95670000Y-122889340D01*
X96109340Y-122450000D01*
X98485307Y-122450000D01*
X98485307Y-125450000D01*
X98537604Y-125727933D01*
X98701862Y-125983198D01*
X98952492Y-126154446D01*
X99250000Y-126214693D01*
X102250000Y-126214693D01*
X102527933Y-126162396D01*
X102783198Y-125998138D01*
X102954446Y-125747508D01*
X103014693Y-125450000D01*
X103014693Y-124915822D01*
X108213010Y-124915822D01*
X108674668Y-125445041D01*
X109328546Y-125842226D01*
X109625000Y-125735084D01*
X109625000Y-124625000D01*
X111375000Y-124625000D01*
X111375000Y-125735084D01*
X111671454Y-125842226D01*
X112325332Y-125445041D01*
X112786990Y-124915822D01*
X112707723Y-124625000D01*
X111375000Y-124625000D01*
X109625000Y-124625000D01*
X108292277Y-124625000D01*
X108213010Y-124915822D01*
X103014693Y-124915822D01*
X103014693Y-123084178D01*
X108213010Y-123084178D01*
X108292277Y-123375000D01*
X109625000Y-123375000D01*
X109625000Y-122264916D01*
X111375000Y-122264916D01*
X111375000Y-123375000D01*
X112707723Y-123375000D01*
X112786990Y-123084178D01*
X112325332Y-122554959D01*
X111671454Y-122157774D01*
X111375000Y-122264916D01*
X109625000Y-122264916D01*
X109328546Y-122157774D01*
X108674668Y-122554959D01*
X108213010Y-123084178D01*
X103014693Y-123084178D01*
X103014693Y-122450000D01*
X102962396Y-122172067D01*
X102798138Y-121916802D01*
X102547508Y-121745554D01*
X102250000Y-121685307D01*
X99250000Y-121685307D01*
X98972067Y-121737604D01*
X98716802Y-121901862D01*
X98545554Y-122152492D01*
X98485307Y-122450000D01*
X96109340Y-122450000D01*
X96536301Y-122023039D01*
X96342639Y-121748216D01*
X95448851Y-121658408D01*
X94997361Y-121748216D01*
X94803699Y-122023039D01*
X77828164Y-122023039D01*
X77624443Y-121529999D01*
X77132590Y-121037287D01*
X76489624Y-120770304D01*
X75793431Y-120769696D01*
X75149999Y-121035557D01*
X74657287Y-121527410D01*
X74390304Y-122170376D01*
X74389696Y-122866569D01*
X72574717Y-122866569D01*
X72004074Y-122295926D01*
X71703983Y-122095411D01*
X71350000Y-122025000D01*
X71160369Y-122025000D01*
X70859774Y-121900182D01*
X70442058Y-121899818D01*
X70056000Y-122059334D01*
X69760372Y-122354446D01*
X69600182Y-122740226D01*
X69599818Y-123157942D01*
X53769975Y-123157942D01*
X53889696Y-122869624D01*
X53890304Y-122173431D01*
X53624443Y-121529999D01*
X53132590Y-121037287D01*
X52489624Y-120770304D01*
X51793431Y-120769696D01*
X51149999Y-121035557D01*
X50657287Y-121527410D01*
X50390304Y-122170376D01*
X50389696Y-122866569D01*
X30825000Y-122866569D01*
X30825000Y-122346961D01*
X40483699Y-122346961D01*
X40677361Y-122621784D01*
X41571149Y-122711592D01*
X42022639Y-122621784D01*
X42216301Y-122346961D01*
X41350000Y-121480660D01*
X40483699Y-122346961D01*
X30825000Y-122346961D01*
X30825000Y-120641149D01*
X39058408Y-120641149D01*
X39148216Y-121092639D01*
X39423039Y-121286301D01*
X40289340Y-120420000D01*
X42410660Y-120420000D01*
X43276961Y-121286301D01*
X43551784Y-121092639D01*
X43597570Y-120636961D01*
X55083699Y-120636961D01*
X55277361Y-120911784D01*
X56171149Y-121001592D01*
X56622639Y-120911784D01*
X56816301Y-120636961D01*
X79083699Y-120636961D01*
X79277361Y-120911784D01*
X80171149Y-121001592D01*
X80622639Y-120911784D01*
X80816301Y-120636961D01*
X79950000Y-119770660D01*
X79083699Y-120636961D01*
X56816301Y-120636961D01*
X55950000Y-119770660D01*
X55083699Y-120636961D01*
X43597570Y-120636961D01*
X43641592Y-120198851D01*
X43551784Y-119747361D01*
X43276961Y-119553699D01*
X42410660Y-120420000D01*
X40289340Y-120420000D01*
X39423039Y-119553699D01*
X39148216Y-119747361D01*
X39058408Y-120641149D01*
X30825000Y-120641149D01*
X30825000Y-116765715D01*
X31300000Y-116765715D01*
X31300000Y-116834285D01*
X31433211Y-117503981D01*
X31812563Y-118071722D01*
X32380304Y-118451074D01*
X33050000Y-118584285D01*
X33508723Y-118493039D01*
X40483699Y-118493039D01*
X41350000Y-119359340D01*
X41778191Y-118931149D01*
X53658408Y-118931149D01*
X53748216Y-119382639D01*
X54023039Y-119576301D01*
X54889340Y-118710000D01*
X57010660Y-118710000D01*
X57876961Y-119576301D01*
X58151784Y-119382639D01*
X58197149Y-118931149D01*
X77658408Y-118931149D01*
X77748216Y-119382639D01*
X78023039Y-119576301D01*
X78889340Y-118710000D01*
X81010660Y-118710000D01*
X81876961Y-119576301D01*
X82151784Y-119382639D01*
X82241592Y-118488851D01*
X82234068Y-118451022D01*
X108500000Y-118451022D01*
X108500000Y-119548978D01*
X108652241Y-120314345D01*
X109085786Y-120963192D01*
X109734633Y-121396737D01*
X110500000Y-121548978D01*
X111265367Y-121396737D01*
X111914214Y-120963192D01*
X112347759Y-120314345D01*
X112500000Y-119548978D01*
X112500000Y-118451022D01*
X112347759Y-117685655D01*
X111914214Y-117036808D01*
X111265367Y-116603263D01*
X110500000Y-116451022D01*
X109734633Y-116603263D01*
X109085786Y-117036808D01*
X108652241Y-117685655D01*
X108500000Y-118451022D01*
X82234068Y-118451022D01*
X82151784Y-118037361D01*
X81876961Y-117843699D01*
X81010660Y-118710000D01*
X78889340Y-118710000D01*
X78023039Y-117843699D01*
X77748216Y-118037361D01*
X77658408Y-118931149D01*
X58197149Y-118931149D01*
X58241592Y-118488851D01*
X58151784Y-118037361D01*
X57876961Y-117843699D01*
X57010660Y-118710000D01*
X54889340Y-118710000D01*
X54023039Y-117843699D01*
X53748216Y-118037361D01*
X53658408Y-118931149D01*
X41778191Y-118931149D01*
X42216301Y-118493039D01*
X42022639Y-118218216D01*
X41128851Y-118128408D01*
X40677361Y-118218216D01*
X40483699Y-118493039D01*
X33508723Y-118493039D01*
X33719696Y-118451074D01*
X34287437Y-118071722D01*
X34666789Y-117503981D01*
X34800000Y-116834285D01*
X34800000Y-116783039D01*
X55083699Y-116783039D01*
X55950000Y-117649340D01*
X56816301Y-116783039D01*
X79083699Y-116783039D01*
X79950000Y-117649340D01*
X80442379Y-117156961D01*
X95199732Y-117156961D01*
X95435208Y-117726857D01*
X95870849Y-118163260D01*
X96440333Y-118399730D01*
X97056961Y-118400268D01*
X97626857Y-118164792D01*
X98063260Y-117729151D01*
X98299730Y-117159667D01*
X98299732Y-117156961D01*
X100199732Y-117156961D01*
X100435208Y-117726857D01*
X100870849Y-118163260D01*
X101440333Y-118399730D01*
X102056961Y-118400268D01*
X102626857Y-118164792D01*
X103063260Y-117729151D01*
X103299730Y-117159667D01*
X103300268Y-116543039D01*
X103064792Y-115973143D01*
X102629151Y-115536740D01*
X102059667Y-115300270D01*
X101443039Y-115299732D01*
X100873143Y-115535208D01*
X100436740Y-115970849D01*
X100200270Y-116540333D01*
X100199732Y-117156961D01*
X98299732Y-117156961D01*
X98300268Y-116543039D01*
X98064792Y-115973143D01*
X97629151Y-115536740D01*
X97059667Y-115300270D01*
X96443039Y-115299732D01*
X95873143Y-115535208D01*
X95436740Y-115970849D01*
X95200270Y-116540333D01*
X95199732Y-117156961D01*
X80442379Y-117156961D01*
X80816301Y-116783039D01*
X80622639Y-116508216D01*
X79728851Y-116418408D01*
X79277361Y-116508216D01*
X79083699Y-116783039D01*
X56816301Y-116783039D01*
X56622639Y-116508216D01*
X55728851Y-116418408D01*
X55277361Y-116508216D01*
X55083699Y-116783039D01*
X34800000Y-116783039D01*
X34800000Y-116765715D01*
X34666789Y-116096019D01*
X34306603Y-115556961D01*
X51273699Y-115556961D01*
X51467361Y-115831784D01*
X52361149Y-115921592D01*
X52812639Y-115831784D01*
X53006301Y-115556961D01*
X52140000Y-114690660D01*
X51273699Y-115556961D01*
X34306603Y-115556961D01*
X34287437Y-115528278D01*
X33719696Y-115148926D01*
X33050000Y-115015715D01*
X32380304Y-115148926D01*
X31812563Y-115528278D01*
X31433211Y-116096019D01*
X31300000Y-116765715D01*
X30825000Y-116765715D01*
X30825000Y-113471454D01*
X34707774Y-113471454D01*
X35104959Y-114125332D01*
X35634178Y-114586990D01*
X35925000Y-114507723D01*
X35925000Y-113175000D01*
X37175000Y-113175000D01*
X37175000Y-114507723D01*
X37465822Y-114586990D01*
X37995041Y-114125332D01*
X38392226Y-113471454D01*
X38285084Y-113175000D01*
X37175000Y-113175000D01*
X35925000Y-113175000D01*
X34814916Y-113175000D01*
X34707774Y-113471454D01*
X30825000Y-113471454D01*
X30825000Y-112300000D01*
X39001022Y-112300000D01*
X39153263Y-113065367D01*
X39586808Y-113714214D01*
X40235655Y-114147759D01*
X41001022Y-114300000D01*
X42098978Y-114300000D01*
X42864345Y-114147759D01*
X43308253Y-113851149D01*
X49848408Y-113851149D01*
X49938216Y-114302639D01*
X50213039Y-114496301D01*
X51079340Y-113630000D01*
X53200660Y-113630000D01*
X53737183Y-114166523D01*
X54041431Y-114902858D01*
X54673813Y-115536345D01*
X55500484Y-115879608D01*
X56395589Y-115880390D01*
X57222858Y-115538569D01*
X57855548Y-114906982D01*
X58483813Y-115536345D01*
X59310484Y-115879608D01*
X60205589Y-115880390D01*
X60988346Y-115556961D01*
X75273699Y-115556961D01*
X75467361Y-115831784D01*
X76361149Y-115921592D01*
X76812639Y-115831784D01*
X77006301Y-115556961D01*
X76140000Y-114690660D01*
X75273699Y-115556961D01*
X60988346Y-115556961D01*
X61032858Y-115538569D01*
X61666345Y-114906187D01*
X62009608Y-114079516D01*
X62009807Y-113851149D01*
X73848408Y-113851149D01*
X73938216Y-114302639D01*
X74213039Y-114496301D01*
X75079340Y-113630000D01*
X77200660Y-113630000D01*
X77737183Y-114166523D01*
X78041431Y-114902858D01*
X78673813Y-115536345D01*
X79500484Y-115879608D01*
X80395589Y-115880390D01*
X81222858Y-115538569D01*
X81855548Y-114906982D01*
X82483813Y-115536345D01*
X83310484Y-115879608D01*
X84205589Y-115880390D01*
X85032858Y-115538569D01*
X85666345Y-114906187D01*
X86009608Y-114079516D01*
X86009939Y-113700000D01*
X116501022Y-113700000D01*
X116653263Y-114465367D01*
X117086808Y-115114214D01*
X117735655Y-115547759D01*
X118501022Y-115700000D01*
X119598978Y-115700000D01*
X120364345Y-115547759D01*
X121013192Y-115114214D01*
X121175398Y-114871454D01*
X122207774Y-114871454D01*
X122604959Y-115525332D01*
X123134178Y-115986990D01*
X123425000Y-115907723D01*
X123425000Y-114575000D01*
X124675000Y-114575000D01*
X124675000Y-115907723D01*
X124965822Y-115986990D01*
X125495041Y-115525332D01*
X125892226Y-114871454D01*
X125785084Y-114575000D01*
X124675000Y-114575000D01*
X123425000Y-114575000D01*
X122314916Y-114575000D01*
X122207774Y-114871454D01*
X121175398Y-114871454D01*
X121446737Y-114465367D01*
X121598978Y-113700000D01*
X121446737Y-112934633D01*
X121175399Y-112528546D01*
X122207774Y-112528546D01*
X122314916Y-112825000D01*
X123425000Y-112825000D01*
X123425000Y-111492277D01*
X124675000Y-111492277D01*
X124675000Y-112825000D01*
X125785084Y-112825000D01*
X125892226Y-112528546D01*
X125495041Y-111874668D01*
X124965822Y-111413010D01*
X124675000Y-111492277D01*
X123425000Y-111492277D01*
X123134178Y-111413010D01*
X122604959Y-111874668D01*
X122207774Y-112528546D01*
X121175399Y-112528546D01*
X121013192Y-112285786D01*
X120364345Y-111852241D01*
X119598978Y-111700000D01*
X118501022Y-111700000D01*
X117735655Y-111852241D01*
X117086808Y-112285786D01*
X116653263Y-112934633D01*
X116501022Y-113700000D01*
X86009939Y-113700000D01*
X86010390Y-113184411D01*
X85668569Y-112357142D01*
X85318999Y-112006961D01*
X85799732Y-112006961D01*
X86035208Y-112576857D01*
X86470849Y-113013260D01*
X87040333Y-113249730D01*
X87656961Y-113250268D01*
X88226857Y-113014792D01*
X88663260Y-112579151D01*
X88899730Y-112009667D01*
X88900000Y-111700000D01*
X93389634Y-111700000D01*
X93507621Y-112293159D01*
X93843618Y-112796016D01*
X94346475Y-113132013D01*
X94939634Y-113250000D01*
X95000366Y-113250000D01*
X95593525Y-113132013D01*
X96096382Y-112796016D01*
X96432379Y-112293159D01*
X96550366Y-111700000D01*
X96432379Y-111106841D01*
X96096382Y-110603984D01*
X95593525Y-110267987D01*
X95000366Y-110150000D01*
X94939634Y-110150000D01*
X94346475Y-110267987D01*
X93843618Y-110603984D01*
X93507621Y-111106841D01*
X93389634Y-111700000D01*
X88900000Y-111700000D01*
X88900268Y-111393039D01*
X88664792Y-110823143D01*
X88229151Y-110386740D01*
X87659667Y-110150270D01*
X87043039Y-110149732D01*
X86473143Y-110385208D01*
X86036740Y-110820849D01*
X85800270Y-111390333D01*
X85799732Y-112006961D01*
X85318999Y-112006961D01*
X85036187Y-111723655D01*
X84209516Y-111380392D01*
X83314411Y-111379610D01*
X82487142Y-111721431D01*
X81854452Y-112353018D01*
X81226187Y-111723655D01*
X80399516Y-111380392D01*
X79504411Y-111379610D01*
X78677142Y-111721431D01*
X78043655Y-112353813D01*
X77736050Y-113094610D01*
X77200660Y-113630000D01*
X75079340Y-113630000D01*
X74213039Y-112763699D01*
X73938216Y-112957361D01*
X73848408Y-113851149D01*
X62009807Y-113851149D01*
X62010390Y-113184411D01*
X61668569Y-112357142D01*
X61036187Y-111723655D01*
X60986539Y-111703039D01*
X75273699Y-111703039D01*
X76140000Y-112569340D01*
X77006301Y-111703039D01*
X76812639Y-111428216D01*
X75918851Y-111338408D01*
X75467361Y-111428216D01*
X75273699Y-111703039D01*
X60986539Y-111703039D01*
X60209516Y-111380392D01*
X59314411Y-111379610D01*
X58487142Y-111721431D01*
X57854452Y-112353018D01*
X57226187Y-111723655D01*
X56399516Y-111380392D01*
X55504411Y-111379610D01*
X54677142Y-111721431D01*
X54043655Y-112353813D01*
X53736050Y-113094610D01*
X53200660Y-113630000D01*
X51079340Y-113630000D01*
X50213039Y-112763699D01*
X49938216Y-112957361D01*
X49848408Y-113851149D01*
X43308253Y-113851149D01*
X43513192Y-113714214D01*
X43946737Y-113065367D01*
X44098978Y-112300000D01*
X43946737Y-111534633D01*
X43513192Y-110885786D01*
X43144799Y-110639634D01*
X46100000Y-110639634D01*
X46100000Y-110700366D01*
X46217987Y-111293525D01*
X46553984Y-111796382D01*
X47056841Y-112132379D01*
X47650000Y-112250366D01*
X48243159Y-112132379D01*
X48746016Y-111796382D01*
X48808385Y-111703039D01*
X51273699Y-111703039D01*
X52140000Y-112569340D01*
X53006301Y-111703039D01*
X52812639Y-111428216D01*
X51918851Y-111338408D01*
X51467361Y-111428216D01*
X51273699Y-111703039D01*
X48808385Y-111703039D01*
X49082013Y-111293525D01*
X49200000Y-110700366D01*
X49200000Y-110639634D01*
X49082013Y-110046475D01*
X48746016Y-109543618D01*
X48243159Y-109207621D01*
X47650000Y-109089634D01*
X47056841Y-109207621D01*
X46553984Y-109543618D01*
X46217987Y-110046475D01*
X46100000Y-110639634D01*
X43144799Y-110639634D01*
X42864345Y-110452241D01*
X42098978Y-110300000D01*
X41001022Y-110300000D01*
X40235655Y-110452241D01*
X39586808Y-110885786D01*
X39153263Y-111534633D01*
X39001022Y-112300000D01*
X30825000Y-112300000D01*
X30825000Y-111128546D01*
X34707774Y-111128546D01*
X34814916Y-111425000D01*
X35925000Y-111425000D01*
X35925000Y-110092277D01*
X37175000Y-110092277D01*
X37175000Y-111425000D01*
X38285084Y-111425000D01*
X38392226Y-111128546D01*
X37995041Y-110474668D01*
X37465822Y-110013010D01*
X37175000Y-110092277D01*
X35925000Y-110092277D01*
X35634178Y-110013010D01*
X35104959Y-110474668D01*
X34707774Y-111128546D01*
X30825000Y-111128546D01*
X30825000Y-107765715D01*
X31300000Y-107765715D01*
X31300000Y-107834285D01*
X31433211Y-108503981D01*
X31812563Y-109071722D01*
X32380304Y-109451074D01*
X33050000Y-109584285D01*
X33719696Y-109451074D01*
X34287437Y-109071722D01*
X34666789Y-108503981D01*
X34800000Y-107834285D01*
X34800000Y-107765715D01*
X34666789Y-107096019D01*
X34295025Y-106539634D01*
X83550000Y-106539634D01*
X83550000Y-106600366D01*
X83667987Y-107193525D01*
X84003984Y-107696382D01*
X84506841Y-108032379D01*
X85100000Y-108150366D01*
X85693159Y-108032379D01*
X85850177Y-107927464D01*
X85849732Y-108436961D01*
X86085208Y-109006857D01*
X86520849Y-109443260D01*
X87090333Y-109679730D01*
X87706961Y-109680268D01*
X88276857Y-109444792D01*
X88713260Y-109009151D01*
X88949730Y-108439667D01*
X88950000Y-108130000D01*
X93439634Y-108130000D01*
X93557621Y-108723159D01*
X93893618Y-109226016D01*
X94396475Y-109562013D01*
X94989634Y-109680000D01*
X95050366Y-109680000D01*
X95643525Y-109562013D01*
X96146382Y-109226016D01*
X96482379Y-108723159D01*
X96600366Y-108130000D01*
X96482379Y-107536841D01*
X96146382Y-107033984D01*
X95956278Y-106906961D01*
X122033699Y-106906961D01*
X122227361Y-107181784D01*
X123121149Y-107271592D01*
X123572639Y-107181784D01*
X123766301Y-106906961D01*
X122900000Y-106040660D01*
X122033699Y-106906961D01*
X95956278Y-106906961D01*
X95643525Y-106697987D01*
X95050366Y-106580000D01*
X94989634Y-106580000D01*
X94396475Y-106697987D01*
X93893618Y-107033984D01*
X93557621Y-107536841D01*
X93439634Y-108130000D01*
X88950000Y-108130000D01*
X88950268Y-107823039D01*
X88714792Y-107253143D01*
X88279151Y-106816740D01*
X87709667Y-106580270D01*
X87093039Y-106579732D01*
X86614798Y-106777337D01*
X86650000Y-106600366D01*
X86650000Y-106539634D01*
X86532013Y-105946475D01*
X86196016Y-105443618D01*
X85833135Y-105201149D01*
X120608408Y-105201149D01*
X120698216Y-105652639D01*
X120973039Y-105846301D01*
X121839340Y-104980000D01*
X123960660Y-104980000D01*
X124826961Y-105846301D01*
X125101784Y-105652639D01*
X125191592Y-104758851D01*
X125101784Y-104307361D01*
X124826961Y-104113699D01*
X123960660Y-104980000D01*
X121839340Y-104980000D01*
X120973039Y-104113699D01*
X120698216Y-104307361D01*
X120608408Y-105201149D01*
X85833135Y-105201149D01*
X85693159Y-105107621D01*
X85100000Y-104989634D01*
X84506841Y-105107621D01*
X84003984Y-105443618D01*
X83667987Y-105946475D01*
X83550000Y-106539634D01*
X34295025Y-106539634D01*
X34287437Y-106528278D01*
X33719696Y-106148926D01*
X33050000Y-106015715D01*
X32380304Y-106148926D01*
X31812563Y-106528278D01*
X31433211Y-107096019D01*
X31300000Y-107765715D01*
X30825000Y-107765715D01*
X30825000Y-101900000D01*
X35285307Y-101900000D01*
X35285307Y-104900000D01*
X35337604Y-105177933D01*
X35501862Y-105433198D01*
X35752492Y-105604446D01*
X36050000Y-105664693D01*
X39050000Y-105664693D01*
X39327933Y-105612396D01*
X39583198Y-105448138D01*
X39754446Y-105197508D01*
X39814693Y-104900000D01*
X39814693Y-103356961D01*
X46099732Y-103356961D01*
X46335208Y-103926857D01*
X46770849Y-104363260D01*
X47340333Y-104599730D01*
X47956961Y-104600268D01*
X48526857Y-104364792D01*
X48963260Y-103929151D01*
X49199730Y-103359667D01*
X49200268Y-102743039D01*
X49041150Y-102357942D01*
X60499818Y-102357942D01*
X60659334Y-102744000D01*
X60954446Y-103039628D01*
X61340226Y-103199818D01*
X61574426Y-103200022D01*
X61700000Y-103225000D01*
X65389631Y-103225000D01*
X65690226Y-103349818D01*
X66107942Y-103350182D01*
X66494000Y-103190666D01*
X66789628Y-102895554D01*
X66949818Y-102509774D01*
X66950182Y-102092058D01*
X66848910Y-101846961D01*
X91069732Y-101846961D01*
X91305208Y-102416857D01*
X91740849Y-102853260D01*
X92310333Y-103089730D01*
X92926961Y-103090268D01*
X93017062Y-103053039D01*
X122033699Y-103053039D01*
X122900000Y-103919340D01*
X123766301Y-103053039D01*
X123572639Y-102778216D01*
X122678851Y-102688408D01*
X122227361Y-102778216D01*
X122033699Y-103053039D01*
X93017062Y-103053039D01*
X93496857Y-102854792D01*
X93933260Y-102419151D01*
X94169730Y-101849667D01*
X94170268Y-101233039D01*
X94097515Y-101056961D01*
X95209732Y-101056961D01*
X95445208Y-101626857D01*
X95880849Y-102063260D01*
X96450333Y-102299730D01*
X97066961Y-102300268D01*
X97636857Y-102064792D01*
X98073260Y-101629151D01*
X98309730Y-101059667D01*
X98309732Y-101056961D01*
X100209732Y-101056961D01*
X100445208Y-101626857D01*
X100880849Y-102063260D01*
X101450333Y-102299730D01*
X102066961Y-102300268D01*
X102636857Y-102064792D01*
X103073260Y-101629151D01*
X103309730Y-101059667D01*
X103310268Y-100443039D01*
X103074792Y-99873143D01*
X102639151Y-99436740D01*
X102069667Y-99200270D01*
X101453039Y-99199732D01*
X100883143Y-99435208D01*
X100446740Y-99870849D01*
X100210270Y-100440333D01*
X100209732Y-101056961D01*
X98309732Y-101056961D01*
X98310268Y-100443039D01*
X98074792Y-99873143D01*
X97639151Y-99436740D01*
X97069667Y-99200270D01*
X96453039Y-99199732D01*
X95883143Y-99435208D01*
X95446740Y-99870849D01*
X95210270Y-100440333D01*
X95209732Y-101056961D01*
X94097515Y-101056961D01*
X93934792Y-100663143D01*
X93499151Y-100226740D01*
X92929667Y-99990270D01*
X92313039Y-99989732D01*
X91743143Y-100225208D01*
X91306740Y-100660849D01*
X91070270Y-101230333D01*
X91069732Y-101846961D01*
X66848910Y-101846961D01*
X66790666Y-101706000D01*
X66495554Y-101410372D01*
X66109774Y-101250182D01*
X65692058Y-101249818D01*
X65389095Y-101375000D01*
X62259982Y-101375000D01*
X62145554Y-101260372D01*
X61759774Y-101100182D01*
X61342058Y-101099818D01*
X60956000Y-101259334D01*
X60660372Y-101554446D01*
X60500182Y-101940226D01*
X60499818Y-102357942D01*
X49041150Y-102357942D01*
X48964792Y-102173143D01*
X48529151Y-101736740D01*
X47959667Y-101500270D01*
X47343039Y-101499732D01*
X46773143Y-101735208D01*
X46336740Y-102170849D01*
X46100270Y-102740333D01*
X46099732Y-103356961D01*
X39814693Y-103356961D01*
X39814693Y-101900000D01*
X39762396Y-101622067D01*
X39598138Y-101366802D01*
X39347508Y-101195554D01*
X39050000Y-101135307D01*
X36050000Y-101135307D01*
X35772067Y-101187604D01*
X35516802Y-101351862D01*
X35345554Y-101602492D01*
X35285307Y-101900000D01*
X30825000Y-101900000D01*
X30825000Y-100246961D01*
X36683699Y-100246961D01*
X36877361Y-100521784D01*
X37771149Y-100611592D01*
X38222639Y-100521784D01*
X38416301Y-100246961D01*
X37550000Y-99380660D01*
X36683699Y-100246961D01*
X30825000Y-100246961D01*
X30825000Y-99256961D01*
X83549732Y-99256961D01*
X83785208Y-99826857D01*
X84220849Y-100263260D01*
X84790333Y-100499730D01*
X85406961Y-100500268D01*
X85976857Y-100264792D01*
X86413260Y-99829151D01*
X86649730Y-99259667D01*
X86650268Y-98643039D01*
X86482481Y-98236961D01*
X87329732Y-98236961D01*
X87565208Y-98806857D01*
X88000849Y-99243260D01*
X88570333Y-99479730D01*
X89186961Y-99480268D01*
X89756857Y-99244792D01*
X90193260Y-98809151D01*
X90363154Y-98400000D01*
X120635307Y-98400000D01*
X120635307Y-101400000D01*
X120687604Y-101677933D01*
X120851862Y-101933198D01*
X121102492Y-102104446D01*
X121400000Y-102164693D01*
X124400000Y-102164693D01*
X124677933Y-102112396D01*
X124933198Y-101948138D01*
X125104446Y-101697508D01*
X125164693Y-101400000D01*
X125164693Y-98400000D01*
X125112396Y-98122067D01*
X124948138Y-97866802D01*
X124697508Y-97695554D01*
X124400000Y-97635307D01*
X121400000Y-97635307D01*
X121122067Y-97687604D01*
X120866802Y-97851862D01*
X120695554Y-98102492D01*
X120635307Y-98400000D01*
X90363154Y-98400000D01*
X90429730Y-98239667D01*
X90430268Y-97623039D01*
X90194792Y-97053143D01*
X89759151Y-96616740D01*
X89189667Y-96380270D01*
X88573039Y-96379732D01*
X88003143Y-96615208D01*
X87566740Y-97050849D01*
X87330270Y-97620333D01*
X87329732Y-98236961D01*
X86482481Y-98236961D01*
X86414792Y-98073143D01*
X85979151Y-97636740D01*
X85409667Y-97400270D01*
X84793039Y-97399732D01*
X84223143Y-97635208D01*
X83786740Y-98070849D01*
X83550270Y-98640333D01*
X83549732Y-99256961D01*
X30825000Y-99256961D01*
X30825000Y-98541149D01*
X35258408Y-98541149D01*
X35348216Y-98992639D01*
X35623039Y-99186301D01*
X36489340Y-98320000D01*
X38610660Y-98320000D01*
X39476961Y-99186301D01*
X39751784Y-98992639D01*
X39841592Y-98098851D01*
X39751784Y-97647361D01*
X39476961Y-97453699D01*
X38610660Y-98320000D01*
X36489340Y-98320000D01*
X35623039Y-97453699D01*
X35348216Y-97647361D01*
X35258408Y-98541149D01*
X30825000Y-98541149D01*
X30825000Y-96393039D01*
X36683699Y-96393039D01*
X37550000Y-97259340D01*
X38416301Y-96393039D01*
X38222639Y-96118216D01*
X37328851Y-96028408D01*
X36877361Y-96118216D01*
X36683699Y-96393039D01*
X30825000Y-96393039D01*
X30825000Y-94065715D01*
X31100000Y-94065715D01*
X31100000Y-94134285D01*
X31233211Y-94803981D01*
X31612563Y-95371722D01*
X32180304Y-95751074D01*
X32850000Y-95884285D01*
X33519696Y-95751074D01*
X34087437Y-95371722D01*
X34466789Y-94803981D01*
X34541018Y-94430805D01*
X77534881Y-94430805D01*
X77619983Y-94678846D01*
X78230064Y-94788239D01*
X78780017Y-94678846D01*
X78865119Y-94430805D01*
X78200000Y-93765685D01*
X77534881Y-94430805D01*
X34541018Y-94430805D01*
X34600000Y-94134285D01*
X34600000Y-94065715D01*
X34466789Y-93396019D01*
X34355902Y-93230064D01*
X76611761Y-93230064D01*
X76721154Y-93780017D01*
X76969195Y-93865119D01*
X77634315Y-93200000D01*
X78765685Y-93200000D01*
X79430805Y-93865119D01*
X79678846Y-93780017D01*
X79727807Y-93506961D01*
X81649732Y-93506961D01*
X81885208Y-94076857D01*
X82320849Y-94513260D01*
X82890333Y-94749730D01*
X83506961Y-94750268D01*
X84076857Y-94514792D01*
X84431463Y-94160805D01*
X88214881Y-94160805D01*
X88299983Y-94408846D01*
X88910064Y-94518239D01*
X89460017Y-94408846D01*
X89545119Y-94160805D01*
X89273949Y-93889634D01*
X91070000Y-93889634D01*
X91070000Y-93950366D01*
X91187987Y-94543525D01*
X91523984Y-95046382D01*
X92026841Y-95382379D01*
X92620000Y-95500366D01*
X93213159Y-95382379D01*
X93387759Y-95265715D01*
X124550000Y-95265715D01*
X124550000Y-95334285D01*
X124683211Y-96003981D01*
X125062563Y-96571722D01*
X125630304Y-96951074D01*
X126300000Y-97084285D01*
X126969696Y-96951074D01*
X127537437Y-96571722D01*
X127916789Y-96003981D01*
X128050000Y-95334285D01*
X128050000Y-95265715D01*
X127916789Y-94596019D01*
X127537437Y-94028278D01*
X126969696Y-93648926D01*
X126300000Y-93515715D01*
X125630304Y-93648926D01*
X125062563Y-94028278D01*
X124683211Y-94596019D01*
X124550000Y-95265715D01*
X93387759Y-95265715D01*
X93716016Y-95046382D01*
X94052013Y-94543525D01*
X94170000Y-93950366D01*
X94170000Y-93889634D01*
X94052013Y-93296475D01*
X93716016Y-92793618D01*
X93213159Y-92457621D01*
X92620000Y-92339634D01*
X92026841Y-92457621D01*
X91523984Y-92793618D01*
X91187987Y-93296475D01*
X91070000Y-93889634D01*
X89273949Y-93889634D01*
X88880000Y-93495685D01*
X88214881Y-94160805D01*
X84431463Y-94160805D01*
X84513260Y-94079151D01*
X84749730Y-93509667D01*
X84750209Y-92960064D01*
X87291761Y-92960064D01*
X87401154Y-93510017D01*
X87649195Y-93595119D01*
X88314315Y-92930000D01*
X89445685Y-92930000D01*
X90110805Y-93595119D01*
X90358846Y-93510017D01*
X90468239Y-92899936D01*
X90358846Y-92349983D01*
X90110805Y-92264881D01*
X89445685Y-92930000D01*
X88314315Y-92930000D01*
X87649195Y-92264881D01*
X87401154Y-92349983D01*
X87291761Y-92960064D01*
X84750209Y-92960064D01*
X84750268Y-92893039D01*
X84514792Y-92323143D01*
X84079151Y-91886740D01*
X83627492Y-91699195D01*
X88214881Y-91699195D01*
X88880000Y-92364315D01*
X89545119Y-91699195D01*
X89519557Y-91624691D01*
X89900000Y-91700366D01*
X90493159Y-91582379D01*
X90996016Y-91246382D01*
X91294277Y-90800000D01*
X115251022Y-90800000D01*
X115403263Y-91565367D01*
X115836808Y-92214214D01*
X116485655Y-92647759D01*
X117251022Y-92800000D01*
X118348978Y-92800000D01*
X119114345Y-92647759D01*
X119763192Y-92214214D01*
X119925398Y-91971454D01*
X120957774Y-91971454D01*
X121354959Y-92625332D01*
X121884178Y-93086990D01*
X122175000Y-93007723D01*
X122175000Y-91675000D01*
X123425000Y-91675000D01*
X123425000Y-93007723D01*
X123715822Y-93086990D01*
X124245041Y-92625332D01*
X124642226Y-91971454D01*
X124535084Y-91675000D01*
X123425000Y-91675000D01*
X122175000Y-91675000D01*
X121064916Y-91675000D01*
X120957774Y-91971454D01*
X119925398Y-91971454D01*
X120196737Y-91565367D01*
X120348978Y-90800000D01*
X120196737Y-90034633D01*
X119925399Y-89628546D01*
X120957774Y-89628546D01*
X121064916Y-89925000D01*
X122175000Y-89925000D01*
X122175000Y-88592277D01*
X123425000Y-88592277D01*
X123425000Y-89925000D01*
X124535084Y-89925000D01*
X124642226Y-89628546D01*
X124245041Y-88974668D01*
X123715822Y-88513010D01*
X123425000Y-88592277D01*
X122175000Y-88592277D01*
X121884178Y-88513010D01*
X121354959Y-88974668D01*
X120957774Y-89628546D01*
X119925399Y-89628546D01*
X119763192Y-89385786D01*
X119114345Y-88952241D01*
X118348978Y-88800000D01*
X117251022Y-88800000D01*
X116485655Y-88952241D01*
X115836808Y-89385786D01*
X115403263Y-90034633D01*
X115251022Y-90800000D01*
X91294277Y-90800000D01*
X91332013Y-90743525D01*
X91450000Y-90150366D01*
X91450000Y-90089634D01*
X91332013Y-89496475D01*
X90996016Y-88993618D01*
X90493159Y-88657621D01*
X89900000Y-88539634D01*
X89306841Y-88657621D01*
X88803984Y-88993618D01*
X88467987Y-89496475D01*
X88350000Y-90089634D01*
X88350000Y-90150366D01*
X88467987Y-90743525D01*
X88803984Y-91246382D01*
X88982232Y-91365483D01*
X88849936Y-91341761D01*
X88299983Y-91451154D01*
X88214881Y-91699195D01*
X83627492Y-91699195D01*
X83509667Y-91650270D01*
X82893039Y-91649732D01*
X82323143Y-91885208D01*
X81886740Y-92320849D01*
X81650270Y-92890333D01*
X81649732Y-93506961D01*
X79727807Y-93506961D01*
X79788239Y-93169936D01*
X79678846Y-92619983D01*
X79430805Y-92534881D01*
X78765685Y-93200000D01*
X77634315Y-93200000D01*
X76969195Y-92534881D01*
X76721154Y-92619983D01*
X76611761Y-93230064D01*
X34355902Y-93230064D01*
X34087437Y-92828278D01*
X33519696Y-92448926D01*
X32850000Y-92315715D01*
X32180304Y-92448926D01*
X31612563Y-92828278D01*
X31233211Y-93396019D01*
X31100000Y-94065715D01*
X30825000Y-94065715D01*
X30825000Y-91969195D01*
X77534881Y-91969195D01*
X78200000Y-92634315D01*
X78865119Y-91969195D01*
X78780017Y-91721154D01*
X78169936Y-91611761D01*
X77619983Y-91721154D01*
X77534881Y-91969195D01*
X30825000Y-91969195D01*
X30825000Y-90771454D01*
X34507774Y-90771454D01*
X34904959Y-91425332D01*
X35434178Y-91886990D01*
X35725000Y-91807723D01*
X35725000Y-90475000D01*
X36975000Y-90475000D01*
X36975000Y-91807723D01*
X37265822Y-91886990D01*
X37795041Y-91425332D01*
X38192226Y-90771454D01*
X38085084Y-90475000D01*
X36975000Y-90475000D01*
X35725000Y-90475000D01*
X34614916Y-90475000D01*
X34507774Y-90771454D01*
X30825000Y-90771454D01*
X30825000Y-89600000D01*
X38801022Y-89600000D01*
X38953263Y-90365367D01*
X39386808Y-91014214D01*
X40035655Y-91447759D01*
X40801022Y-91600000D01*
X41898978Y-91600000D01*
X42664345Y-91447759D01*
X43313192Y-91014214D01*
X43746737Y-90365367D01*
X43811529Y-90039634D01*
X82850000Y-90039634D01*
X82850000Y-90100366D01*
X82967987Y-90693525D01*
X83303984Y-91196382D01*
X83806841Y-91532379D01*
X84400000Y-91650366D01*
X84993159Y-91532379D01*
X85496016Y-91196382D01*
X85832013Y-90693525D01*
X85950000Y-90100366D01*
X85950000Y-90039634D01*
X85832013Y-89446475D01*
X85496016Y-88943618D01*
X84993159Y-88607621D01*
X84400000Y-88489634D01*
X83806841Y-88607621D01*
X83303984Y-88943618D01*
X82967987Y-89446475D01*
X82850000Y-90039634D01*
X43811529Y-90039634D01*
X43898978Y-89600000D01*
X43746737Y-88834633D01*
X43313192Y-88185786D01*
X42664345Y-87752241D01*
X41898978Y-87600000D01*
X40801022Y-87600000D01*
X40035655Y-87752241D01*
X39386808Y-88185786D01*
X38953263Y-88834633D01*
X38801022Y-89600000D01*
X30825000Y-89600000D01*
X30825000Y-88428546D01*
X34507774Y-88428546D01*
X34614916Y-88725000D01*
X35725000Y-88725000D01*
X35725000Y-87392277D01*
X36975000Y-87392277D01*
X36975000Y-88725000D01*
X38085084Y-88725000D01*
X38192226Y-88428546D01*
X37795041Y-87774668D01*
X37265822Y-87313010D01*
X36975000Y-87392277D01*
X35725000Y-87392277D01*
X35434178Y-87313010D01*
X34904959Y-87774668D01*
X34507774Y-88428546D01*
X30825000Y-88428546D01*
X30825000Y-85065715D01*
X31100000Y-85065715D01*
X31100000Y-85134285D01*
X31233211Y-85803981D01*
X31612563Y-86371722D01*
X32180304Y-86751074D01*
X32850000Y-86884285D01*
X33519696Y-86751074D01*
X34087437Y-86371722D01*
X34466789Y-85803981D01*
X34467109Y-85802369D01*
X49034759Y-85802369D01*
X49327311Y-86240255D01*
X49837626Y-86605272D01*
X50075000Y-86501350D01*
X50075000Y-85565000D01*
X50925000Y-85565000D01*
X50925000Y-86501350D01*
X51162374Y-86605272D01*
X51637094Y-86265715D01*
X124550000Y-86265715D01*
X124550000Y-86334285D01*
X124683211Y-87003981D01*
X125062563Y-87571722D01*
X125630304Y-87951074D01*
X126300000Y-88084285D01*
X126969696Y-87951074D01*
X127537437Y-87571722D01*
X127916789Y-87003981D01*
X128050000Y-86334285D01*
X128050000Y-86265715D01*
X127916789Y-85596019D01*
X127537437Y-85028278D01*
X126969696Y-84648926D01*
X126300000Y-84515715D01*
X125630304Y-84648926D01*
X125062563Y-85028278D01*
X124683211Y-85596019D01*
X124550000Y-86265715D01*
X51637094Y-86265715D01*
X51672689Y-86240255D01*
X51965241Y-85802369D01*
X51853336Y-85565000D01*
X50925000Y-85565000D01*
X50075000Y-85565000D01*
X49146664Y-85565000D01*
X49034759Y-85802369D01*
X34467109Y-85802369D01*
X34600000Y-85134285D01*
X34600000Y-85065715D01*
X34466789Y-84396019D01*
X34087437Y-83828278D01*
X33519696Y-83448926D01*
X32850000Y-83315715D01*
X32180304Y-83448926D01*
X31612563Y-83828278D01*
X31233211Y-84396019D01*
X31100000Y-85065715D01*
X30825000Y-85065715D01*
X30825000Y-79150000D01*
X34985307Y-79150000D01*
X34985307Y-82150000D01*
X35037604Y-82427933D01*
X35201862Y-82683198D01*
X35452492Y-82854446D01*
X35750000Y-82914693D01*
X38750000Y-82914693D01*
X39027933Y-82862396D01*
X39283198Y-82698138D01*
X39454446Y-82447508D01*
X39514693Y-82150000D01*
X39514693Y-81750000D01*
X48885307Y-81750000D01*
X48885307Y-83450000D01*
X48937604Y-83727933D01*
X49101862Y-83983198D01*
X49249998Y-84084415D01*
X49249998Y-84155466D01*
X49034759Y-84477631D01*
X49146664Y-84715000D01*
X50075000Y-84715000D01*
X50075000Y-84290000D01*
X50925000Y-84290000D01*
X50925000Y-84715000D01*
X51853336Y-84715000D01*
X51965241Y-84477631D01*
X51750002Y-84155466D01*
X51750002Y-84083846D01*
X51883198Y-83998138D01*
X52054446Y-83747508D01*
X52114693Y-83450000D01*
X52114693Y-81800000D01*
X53499634Y-81800000D01*
X53617621Y-82393159D01*
X53953618Y-82896016D01*
X54456475Y-83232013D01*
X55049634Y-83350000D01*
X55110366Y-83350000D01*
X55703525Y-83232013D01*
X56206382Y-82896016D01*
X56542379Y-82393159D01*
X56599307Y-82106961D01*
X61149732Y-82106961D01*
X61385208Y-82676857D01*
X61820849Y-83113260D01*
X62390333Y-83349730D01*
X63006961Y-83350268D01*
X63576857Y-83114792D01*
X63691849Y-83000000D01*
X70999634Y-83000000D01*
X71117621Y-83593159D01*
X71453618Y-84096016D01*
X71956475Y-84432013D01*
X72549634Y-84550000D01*
X72610366Y-84550000D01*
X73203525Y-84432013D01*
X73706382Y-84096016D01*
X74042379Y-83593159D01*
X74099307Y-83306961D01*
X78649732Y-83306961D01*
X78885208Y-83876857D01*
X79320849Y-84313260D01*
X79890333Y-84549730D01*
X80506961Y-84550268D01*
X81076857Y-84314792D01*
X81077149Y-84314500D01*
X96992000Y-84314500D01*
X96992000Y-84700775D01*
X97107398Y-84979372D01*
X97320627Y-85192601D01*
X97599224Y-85308000D01*
X97985500Y-85308000D01*
X98175000Y-85118500D01*
X98175000Y-84125000D01*
X99025000Y-84125000D01*
X99025000Y-85118500D01*
X99214500Y-85308000D01*
X99600776Y-85308000D01*
X99879373Y-85192601D01*
X100092602Y-84979372D01*
X100208000Y-84700775D01*
X100208000Y-84314500D01*
X100018500Y-84125000D01*
X99025000Y-84125000D01*
X98175000Y-84125000D01*
X97181500Y-84125000D01*
X96992000Y-84314500D01*
X81077149Y-84314500D01*
X81513260Y-83879151D01*
X81749730Y-83309667D01*
X81750212Y-82756961D01*
X82849732Y-82756961D01*
X83085208Y-83326857D01*
X83520849Y-83763260D01*
X84090333Y-83999730D01*
X84706961Y-84000268D01*
X85276857Y-83764792D01*
X85713260Y-83329151D01*
X85930091Y-82806961D01*
X88349732Y-82806961D01*
X88585208Y-83376857D01*
X89020849Y-83813260D01*
X89590333Y-84049730D01*
X90206961Y-84050268D01*
X90776857Y-83814792D01*
X91213260Y-83379151D01*
X91449730Y-82809667D01*
X91450268Y-82193039D01*
X91214792Y-81623143D01*
X90779151Y-81186740D01*
X90714754Y-81160000D01*
X96968654Y-81160000D01*
X97090447Y-81772293D01*
X97349998Y-82160739D01*
X97349998Y-82195233D01*
X97320627Y-82207399D01*
X97107398Y-82420628D01*
X96992000Y-82699225D01*
X96992000Y-83085500D01*
X97181500Y-83275000D01*
X98175000Y-83275000D01*
X98175000Y-82850000D01*
X99025000Y-82850000D01*
X99025000Y-83275000D01*
X100018500Y-83275000D01*
X100208000Y-83085500D01*
X100208000Y-82699225D01*
X100152699Y-82565715D01*
X124650000Y-82565715D01*
X124650000Y-82634285D01*
X124783211Y-83303981D01*
X125162563Y-83871722D01*
X125730304Y-84251074D01*
X126400000Y-84384285D01*
X127069696Y-84251074D01*
X127637437Y-83871722D01*
X128016789Y-83303981D01*
X128150000Y-82634285D01*
X128150000Y-82565715D01*
X128016789Y-81896019D01*
X127637437Y-81328278D01*
X127069696Y-80948926D01*
X126400000Y-80815715D01*
X125730304Y-80948926D01*
X125162563Y-81328278D01*
X124783211Y-81896019D01*
X124650000Y-82565715D01*
X100152699Y-82565715D01*
X100092602Y-82420628D01*
X99879373Y-82207399D01*
X99850002Y-82195233D01*
X99850002Y-82160739D01*
X100109553Y-81772293D01*
X100231346Y-81160000D01*
X100109553Y-80547707D01*
X99762717Y-80028629D01*
X99243639Y-79681793D01*
X98631346Y-79560000D01*
X98568654Y-79560000D01*
X97956361Y-79681793D01*
X97437283Y-80028629D01*
X97090447Y-80547707D01*
X96968654Y-81160000D01*
X90714754Y-81160000D01*
X90209667Y-80950270D01*
X89593039Y-80949732D01*
X89023143Y-81185208D01*
X88586740Y-81620849D01*
X88350270Y-82190333D01*
X88349732Y-82806961D01*
X85930091Y-82806961D01*
X85949730Y-82759667D01*
X85950268Y-82143039D01*
X85714792Y-81573143D01*
X85279151Y-81136740D01*
X84709667Y-80900270D01*
X84093039Y-80899732D01*
X83523143Y-81135208D01*
X83086740Y-81570849D01*
X82850270Y-82140333D01*
X82849732Y-82756961D01*
X81750212Y-82756961D01*
X81750268Y-82693039D01*
X81514792Y-82123143D01*
X81079151Y-81686740D01*
X80509667Y-81450270D01*
X79893039Y-81449732D01*
X79323143Y-81685208D01*
X78886740Y-82120849D01*
X78650270Y-82690333D01*
X78649732Y-83306961D01*
X74099307Y-83306961D01*
X74160366Y-83000000D01*
X74042379Y-82406841D01*
X73706382Y-81903984D01*
X73203525Y-81567987D01*
X72610366Y-81450000D01*
X72549634Y-81450000D01*
X71956475Y-81567987D01*
X71453618Y-81903984D01*
X71117621Y-82406841D01*
X70999634Y-83000000D01*
X63691849Y-83000000D01*
X64013260Y-82679151D01*
X64249730Y-82109667D01*
X64250268Y-81493039D01*
X64014792Y-80923143D01*
X63579151Y-80486740D01*
X63009667Y-80250270D01*
X62393039Y-80249732D01*
X61823143Y-80485208D01*
X61386740Y-80920849D01*
X61150270Y-81490333D01*
X61149732Y-82106961D01*
X56599307Y-82106961D01*
X56660366Y-81800000D01*
X56542379Y-81206841D01*
X56206382Y-80703984D01*
X55703525Y-80367987D01*
X55110366Y-80250000D01*
X55049634Y-80250000D01*
X54456475Y-80367987D01*
X53953618Y-80703984D01*
X53617621Y-81206841D01*
X53499634Y-81800000D01*
X52114693Y-81800000D01*
X52114693Y-81750000D01*
X52062396Y-81472067D01*
X51898138Y-81216802D01*
X51647508Y-81045554D01*
X51350000Y-80985307D01*
X49650000Y-80985307D01*
X49372067Y-81037604D01*
X49116802Y-81201862D01*
X48945554Y-81452492D01*
X48885307Y-81750000D01*
X39514693Y-81750000D01*
X39514693Y-79150000D01*
X39462396Y-78872067D01*
X39298138Y-78616802D01*
X39047508Y-78445554D01*
X38750000Y-78385307D01*
X35750000Y-78385307D01*
X35472067Y-78437604D01*
X35216802Y-78601862D01*
X35045554Y-78852492D01*
X34985307Y-79150000D01*
X30825000Y-79150000D01*
X30825000Y-77496961D01*
X36383699Y-77496961D01*
X36577361Y-77771784D01*
X37471149Y-77861592D01*
X37922639Y-77771784D01*
X38116301Y-77496961D01*
X37250000Y-76630660D01*
X36383699Y-77496961D01*
X30825000Y-77496961D01*
X30825000Y-75791149D01*
X34958408Y-75791149D01*
X35048216Y-76242639D01*
X35323039Y-76436301D01*
X36189340Y-75570000D01*
X38310660Y-75570000D01*
X39176961Y-76436301D01*
X39451784Y-76242639D01*
X39541592Y-75348851D01*
X39451784Y-74897361D01*
X39176961Y-74703699D01*
X38310660Y-75570000D01*
X36189340Y-75570000D01*
X35323039Y-74703699D01*
X35048216Y-74897361D01*
X34958408Y-75791149D01*
X30825000Y-75791149D01*
X30825000Y-73643039D01*
X36383699Y-73643039D01*
X37250000Y-74509340D01*
X37469706Y-74289634D01*
X49850000Y-74289634D01*
X49850000Y-74350366D01*
X49967987Y-74943525D01*
X50303984Y-75446382D01*
X50806841Y-75782379D01*
X51400000Y-75900366D01*
X51993159Y-75782379D01*
X52496016Y-75446382D01*
X52832013Y-74943525D01*
X52898959Y-74606961D01*
X53149732Y-74606961D01*
X53385208Y-75176857D01*
X53820849Y-75613260D01*
X54390333Y-75849730D01*
X55006961Y-75850268D01*
X55576857Y-75614792D01*
X56013260Y-75179151D01*
X56249730Y-74609667D01*
X56250035Y-74260000D01*
X56268654Y-74260000D01*
X56390447Y-74872293D01*
X56675891Y-75299491D01*
X56516802Y-75401862D01*
X56345554Y-75652492D01*
X56285307Y-75950000D01*
X56285307Y-77650000D01*
X56337604Y-77927933D01*
X56501862Y-78183198D01*
X56752492Y-78354446D01*
X57050000Y-78414693D01*
X58750000Y-78414693D01*
X59027933Y-78362396D01*
X59283198Y-78198138D01*
X59454446Y-77947508D01*
X59514693Y-77650000D01*
X59514693Y-77489634D01*
X66650000Y-77489634D01*
X66650000Y-77550366D01*
X66767987Y-78143525D01*
X67103984Y-78646382D01*
X67606841Y-78982379D01*
X68200000Y-79100366D01*
X68793159Y-78982379D01*
X69296016Y-78646382D01*
X69632013Y-78143525D01*
X69750000Y-77550366D01*
X69750000Y-77489634D01*
X69730109Y-77389634D01*
X70350000Y-77389634D01*
X70350000Y-77450366D01*
X70467987Y-78043525D01*
X70803984Y-78546382D01*
X71306841Y-78882379D01*
X71900000Y-79000366D01*
X72493159Y-78882379D01*
X72996016Y-78546382D01*
X73294277Y-78100000D01*
X115351022Y-78100000D01*
X115503263Y-78865367D01*
X115936808Y-79514214D01*
X116585655Y-79947759D01*
X117351022Y-80100000D01*
X118448978Y-80100000D01*
X119214345Y-79947759D01*
X119863192Y-79514214D01*
X120025398Y-79271454D01*
X121057774Y-79271454D01*
X121454959Y-79925332D01*
X121984178Y-80386990D01*
X122275000Y-80307723D01*
X122275000Y-78975000D01*
X123525000Y-78975000D01*
X123525000Y-80307723D01*
X123815822Y-80386990D01*
X124345041Y-79925332D01*
X124742226Y-79271454D01*
X124635084Y-78975000D01*
X123525000Y-78975000D01*
X122275000Y-78975000D01*
X121164916Y-78975000D01*
X121057774Y-79271454D01*
X120025398Y-79271454D01*
X120296737Y-78865367D01*
X120448978Y-78100000D01*
X120296737Y-77334633D01*
X120025399Y-76928546D01*
X121057774Y-76928546D01*
X121164916Y-77225000D01*
X122275000Y-77225000D01*
X122275000Y-75892277D01*
X123525000Y-75892277D01*
X123525000Y-77225000D01*
X124635084Y-77225000D01*
X124742226Y-76928546D01*
X124345041Y-76274668D01*
X123815822Y-75813010D01*
X123525000Y-75892277D01*
X122275000Y-75892277D01*
X121984178Y-75813010D01*
X121454959Y-76274668D01*
X121057774Y-76928546D01*
X120025399Y-76928546D01*
X119863192Y-76685786D01*
X119214345Y-76252241D01*
X118448978Y-76100000D01*
X117351022Y-76100000D01*
X116585655Y-76252241D01*
X115936808Y-76685786D01*
X115503263Y-77334633D01*
X115351022Y-78100000D01*
X73294277Y-78100000D01*
X73332013Y-78043525D01*
X73450000Y-77450366D01*
X73450000Y-77389634D01*
X73332013Y-76796475D01*
X72996016Y-76293618D01*
X72493159Y-75957621D01*
X71900000Y-75839634D01*
X71306841Y-75957621D01*
X70803984Y-76293618D01*
X70467987Y-76796475D01*
X70350000Y-77389634D01*
X69730109Y-77389634D01*
X69632013Y-76896475D01*
X69296016Y-76393618D01*
X68793159Y-76057621D01*
X68200000Y-75939634D01*
X67606841Y-76057621D01*
X67103984Y-76393618D01*
X66767987Y-76896475D01*
X66650000Y-77489634D01*
X59514693Y-77489634D01*
X59514693Y-75950000D01*
X59462396Y-75672067D01*
X59298138Y-75416802D01*
X59124842Y-75298394D01*
X59409553Y-74872293D01*
X59531346Y-74260000D01*
X59409553Y-73647707D01*
X59062717Y-73128629D01*
X58543639Y-72781793D01*
X57931346Y-72660000D01*
X57868654Y-72660000D01*
X57256361Y-72781793D01*
X56737283Y-73128629D01*
X56390447Y-73647707D01*
X56268654Y-74260000D01*
X56250035Y-74260000D01*
X56250268Y-73993039D01*
X56014792Y-73423143D01*
X55579151Y-72986740D01*
X55009667Y-72750270D01*
X54393039Y-72749732D01*
X53823143Y-72985208D01*
X53386740Y-73420849D01*
X53150270Y-73990333D01*
X53149732Y-74606961D01*
X52898959Y-74606961D01*
X52950000Y-74350366D01*
X52950000Y-74289634D01*
X52832013Y-73696475D01*
X52496016Y-73193618D01*
X51993159Y-72857621D01*
X51400000Y-72739634D01*
X50806841Y-72857621D01*
X50303984Y-73193618D01*
X49967987Y-73696475D01*
X49850000Y-74289634D01*
X37469706Y-74289634D01*
X38116301Y-73643039D01*
X37922639Y-73368216D01*
X37028851Y-73278408D01*
X36577361Y-73368216D01*
X36383699Y-73643039D01*
X30825000Y-73643039D01*
X30825000Y-70815715D01*
X30950000Y-70815715D01*
X30950000Y-70884285D01*
X31083211Y-71553981D01*
X31462563Y-72121722D01*
X32030304Y-72501074D01*
X32700000Y-72634285D01*
X33369696Y-72501074D01*
X33937437Y-72121722D01*
X34316789Y-71553981D01*
X34450000Y-70884285D01*
X34450000Y-70815715D01*
X34347418Y-70300000D01*
X55799634Y-70300000D01*
X55917621Y-70893159D01*
X56253618Y-71396016D01*
X56756475Y-71732013D01*
X57349634Y-71850000D01*
X57410366Y-71850000D01*
X57586764Y-71814912D01*
X58425926Y-72654074D01*
X58726017Y-72854589D01*
X59080000Y-72925000D01*
X65700000Y-72925000D01*
X66053983Y-72854589D01*
X66354074Y-72654074D01*
X67655803Y-71352345D01*
X67890333Y-71449730D01*
X68506961Y-71450268D01*
X69076857Y-71214792D01*
X69513260Y-70779151D01*
X69749730Y-70209667D01*
X69749819Y-70106961D01*
X70349732Y-70106961D01*
X70585208Y-70676857D01*
X71020849Y-71113260D01*
X71590333Y-71349730D01*
X72206961Y-71350268D01*
X72473830Y-71240000D01*
X74368654Y-71240000D01*
X74490447Y-71852293D01*
X74837283Y-72371371D01*
X75356361Y-72718207D01*
X75968654Y-72840000D01*
X76031346Y-72840000D01*
X76643639Y-72718207D01*
X77162717Y-72371371D01*
X77509553Y-71852293D01*
X77631346Y-71240000D01*
X77509553Y-70627707D01*
X77224109Y-70200509D01*
X77383198Y-70098138D01*
X77554446Y-69847508D01*
X77580267Y-69720000D01*
X88168654Y-69720000D01*
X88290447Y-70332293D01*
X88637283Y-70851371D01*
X88844756Y-70990000D01*
X88637283Y-71128629D01*
X88290447Y-71647707D01*
X88168654Y-72260000D01*
X88290447Y-72872293D01*
X88575891Y-73299491D01*
X88416802Y-73401862D01*
X88245554Y-73652492D01*
X88185307Y-73950000D01*
X88185307Y-75650000D01*
X88237604Y-75927933D01*
X88401862Y-76183198D01*
X88652492Y-76354446D01*
X88950000Y-76414693D01*
X90650000Y-76414693D01*
X90927933Y-76362396D01*
X91183198Y-76198138D01*
X91354446Y-75947508D01*
X91414693Y-75650000D01*
X91414693Y-73950000D01*
X91362396Y-73672067D01*
X91293961Y-73565715D01*
X124650000Y-73565715D01*
X124650000Y-73634285D01*
X124783211Y-74303981D01*
X125162563Y-74871722D01*
X125730304Y-75251074D01*
X126400000Y-75384285D01*
X127069696Y-75251074D01*
X127637437Y-74871722D01*
X128016789Y-74303981D01*
X128150000Y-73634285D01*
X128150000Y-73565715D01*
X128016789Y-72896019D01*
X127637437Y-72328278D01*
X127069696Y-71948926D01*
X126400000Y-71815715D01*
X125730304Y-71948926D01*
X125162563Y-72328278D01*
X124783211Y-72896019D01*
X124650000Y-73565715D01*
X91293961Y-73565715D01*
X91198138Y-73416802D01*
X91024842Y-73298394D01*
X91309553Y-72872293D01*
X91431346Y-72260000D01*
X91309553Y-71647707D01*
X90962717Y-71128629D01*
X90755244Y-70990000D01*
X90962717Y-70851371D01*
X91309553Y-70332293D01*
X91431346Y-69720000D01*
X91309553Y-69107707D01*
X90962717Y-68588629D01*
X90443639Y-68241793D01*
X89831346Y-68120000D01*
X89768654Y-68120000D01*
X89156361Y-68241793D01*
X88637283Y-68588629D01*
X88290447Y-69107707D01*
X88168654Y-69720000D01*
X77580267Y-69720000D01*
X77614693Y-69550000D01*
X77614693Y-68100000D01*
X77699634Y-68100000D01*
X77817621Y-68693159D01*
X78153618Y-69196016D01*
X78656475Y-69532013D01*
X79249634Y-69650000D01*
X79310366Y-69650000D01*
X79903525Y-69532013D01*
X80406382Y-69196016D01*
X80742379Y-68693159D01*
X80799307Y-68406961D01*
X85349732Y-68406961D01*
X85585208Y-68976857D01*
X86020849Y-69413260D01*
X86590333Y-69649730D01*
X87206961Y-69650268D01*
X87776857Y-69414792D01*
X88213260Y-68979151D01*
X88449730Y-68409667D01*
X88450268Y-67793039D01*
X88214792Y-67223143D01*
X87779151Y-66786740D01*
X87209667Y-66550270D01*
X86593039Y-66549732D01*
X86023143Y-66785208D01*
X85586740Y-67220849D01*
X85350270Y-67790333D01*
X85349732Y-68406961D01*
X80799307Y-68406961D01*
X80860366Y-68100000D01*
X80742379Y-67506841D01*
X80406382Y-67003984D01*
X79903525Y-66667987D01*
X79310366Y-66550000D01*
X79249634Y-66550000D01*
X78656475Y-66667987D01*
X78153618Y-67003984D01*
X77817621Y-67506841D01*
X77699634Y-68100000D01*
X77614693Y-68100000D01*
X77614693Y-67850000D01*
X77562396Y-67572067D01*
X77398138Y-67316802D01*
X77147508Y-67145554D01*
X76850000Y-67085307D01*
X75150000Y-67085307D01*
X74872067Y-67137604D01*
X74616802Y-67301862D01*
X74445554Y-67552492D01*
X74385307Y-67850000D01*
X74385307Y-69550000D01*
X74437604Y-69827933D01*
X74601862Y-70083198D01*
X74775158Y-70201606D01*
X74490447Y-70627707D01*
X74368654Y-71240000D01*
X72473830Y-71240000D01*
X72776857Y-71114792D01*
X73213260Y-70679151D01*
X73449730Y-70109667D01*
X73450268Y-69493039D01*
X73214792Y-68923143D01*
X72779151Y-68486740D01*
X72209667Y-68250270D01*
X71593039Y-68249732D01*
X71023143Y-68485208D01*
X70586740Y-68920849D01*
X70350270Y-69490333D01*
X70349732Y-70106961D01*
X69749819Y-70106961D01*
X69750268Y-69593039D01*
X69514792Y-69023143D01*
X69079151Y-68586740D01*
X68509667Y-68350270D01*
X67893039Y-68349732D01*
X67323143Y-68585208D01*
X66886740Y-69020849D01*
X66650270Y-69590333D01*
X66650138Y-69741715D01*
X66505986Y-69885867D01*
X66314792Y-69423143D01*
X65879151Y-68986740D01*
X65309667Y-68750270D01*
X64693039Y-68749732D01*
X64123143Y-68985208D01*
X63686740Y-69420849D01*
X63450270Y-69990333D01*
X63449732Y-70606961D01*
X63643122Y-71075000D01*
X59463148Y-71075000D01*
X58915202Y-70527054D01*
X58960366Y-70300000D01*
X58842379Y-69706841D01*
X58506382Y-69203984D01*
X58003525Y-68867987D01*
X57410366Y-68750000D01*
X57349634Y-68750000D01*
X56756475Y-68867987D01*
X56253618Y-69203984D01*
X55917621Y-69706841D01*
X55799634Y-70300000D01*
X34347418Y-70300000D01*
X34316789Y-70146019D01*
X33937437Y-69578278D01*
X33369696Y-69198926D01*
X32700000Y-69065715D01*
X32030304Y-69198926D01*
X31462563Y-69578278D01*
X31083211Y-70146019D01*
X30950000Y-70815715D01*
X30825000Y-70815715D01*
X30825000Y-67521454D01*
X34357774Y-67521454D01*
X34754959Y-68175332D01*
X35284178Y-68636990D01*
X35575000Y-68557723D01*
X35575000Y-67225000D01*
X36825000Y-67225000D01*
X36825000Y-68557723D01*
X37115822Y-68636990D01*
X37645041Y-68175332D01*
X38042226Y-67521454D01*
X37935084Y-67225000D01*
X36825000Y-67225000D01*
X35575000Y-67225000D01*
X34464916Y-67225000D01*
X34357774Y-67521454D01*
X30825000Y-67521454D01*
X30825000Y-66350000D01*
X38651022Y-66350000D01*
X38803263Y-67115367D01*
X39236808Y-67764214D01*
X39885655Y-68197759D01*
X40651022Y-68350000D01*
X41748978Y-68350000D01*
X42514345Y-68197759D01*
X43163192Y-67764214D01*
X43596737Y-67115367D01*
X43748978Y-66350000D01*
X43596737Y-65584633D01*
X43163192Y-64935786D01*
X42645139Y-64589634D01*
X48750000Y-64589634D01*
X48750000Y-64650366D01*
X48867987Y-65243525D01*
X49203984Y-65746382D01*
X49706841Y-66082379D01*
X49957445Y-66132227D01*
X49850270Y-66390333D01*
X49849732Y-67006961D01*
X50085208Y-67576857D01*
X50520849Y-68013260D01*
X51090333Y-68249730D01*
X51706961Y-68250268D01*
X52276857Y-68014792D01*
X52713260Y-67579151D01*
X52949730Y-67009667D01*
X52950044Y-66649634D01*
X53150000Y-66649634D01*
X53150000Y-66710366D01*
X53267987Y-67303525D01*
X53603984Y-67806382D01*
X54106841Y-68142379D01*
X54700000Y-68260366D01*
X55293159Y-68142379D01*
X55796016Y-67806382D01*
X56132013Y-67303525D01*
X56250000Y-66710366D01*
X56250000Y-66649634D01*
X56142056Y-66106961D01*
X63049732Y-66106961D01*
X63285208Y-66676857D01*
X63720849Y-67113260D01*
X64290333Y-67349730D01*
X64906961Y-67350268D01*
X65476857Y-67114792D01*
X65913260Y-66679151D01*
X66149730Y-66109667D01*
X66150000Y-65800000D01*
X70639634Y-65800000D01*
X70757621Y-66393159D01*
X71093618Y-66896016D01*
X71596475Y-67232013D01*
X72189634Y-67350000D01*
X72250366Y-67350000D01*
X72843525Y-67232013D01*
X73346382Y-66896016D01*
X73682379Y-66393159D01*
X73800366Y-65800000D01*
X73682379Y-65206841D01*
X73346382Y-64703984D01*
X72843525Y-64367987D01*
X72250366Y-64250000D01*
X72189634Y-64250000D01*
X71596475Y-64367987D01*
X71093618Y-64703984D01*
X70757621Y-65206841D01*
X70639634Y-65800000D01*
X66150000Y-65800000D01*
X66150268Y-65493039D01*
X65914792Y-64923143D01*
X65479151Y-64486740D01*
X64909667Y-64250270D01*
X64293039Y-64249732D01*
X63723143Y-64485208D01*
X63286740Y-64920849D01*
X63050270Y-65490333D01*
X63049732Y-66106961D01*
X56142056Y-66106961D01*
X56132013Y-66056475D01*
X55796016Y-65553618D01*
X55293159Y-65217621D01*
X54700000Y-65099634D01*
X54106841Y-65217621D01*
X53603984Y-65553618D01*
X53267987Y-66056475D01*
X53150000Y-66649634D01*
X52950044Y-66649634D01*
X52950268Y-66393039D01*
X52714792Y-65823143D01*
X52279151Y-65386740D01*
X51747443Y-65165956D01*
X51850000Y-64650366D01*
X51850000Y-64589634D01*
X51732013Y-63996475D01*
X51396016Y-63493618D01*
X50893159Y-63157621D01*
X50300000Y-63039634D01*
X49706841Y-63157621D01*
X49203984Y-63493618D01*
X48867987Y-63996475D01*
X48750000Y-64589634D01*
X42645139Y-64589634D01*
X42514345Y-64502241D01*
X41748978Y-64350000D01*
X40651022Y-64350000D01*
X39885655Y-64502241D01*
X39236808Y-64935786D01*
X38803263Y-65584633D01*
X38651022Y-66350000D01*
X30825000Y-66350000D01*
X30825000Y-65178546D01*
X34357774Y-65178546D01*
X34464916Y-65475000D01*
X35575000Y-65475000D01*
X35575000Y-64142277D01*
X36825000Y-64142277D01*
X36825000Y-65475000D01*
X37935084Y-65475000D01*
X38042226Y-65178546D01*
X37645041Y-64524668D01*
X37115822Y-64063010D01*
X36825000Y-64142277D01*
X35575000Y-64142277D01*
X35284178Y-64063010D01*
X34754959Y-64524668D01*
X34357774Y-65178546D01*
X30825000Y-65178546D01*
X30825000Y-58665715D01*
X30900000Y-58665715D01*
X30900000Y-58734285D01*
X31033211Y-59403981D01*
X31412563Y-59971722D01*
X31891451Y-60291704D01*
X31462563Y-60578278D01*
X31083211Y-61146019D01*
X30950000Y-61815715D01*
X30950000Y-61884285D01*
X31083211Y-62553981D01*
X31462563Y-63121722D01*
X32030304Y-63501074D01*
X32700000Y-63634285D01*
X33369696Y-63501074D01*
X33937437Y-63121722D01*
X34316789Y-62553981D01*
X34450000Y-61884285D01*
X34450000Y-61815715D01*
X34316789Y-61146019D01*
X33937437Y-60578278D01*
X33458549Y-60258296D01*
X33887437Y-59971722D01*
X34266789Y-59403981D01*
X34299406Y-59240000D01*
X52068654Y-59240000D01*
X52190447Y-59852293D01*
X52537283Y-60371371D01*
X53056361Y-60718207D01*
X53668654Y-60840000D01*
X53731346Y-60840000D01*
X54343639Y-60718207D01*
X54862717Y-60371371D01*
X55209553Y-59852293D01*
X55331346Y-59240000D01*
X55295542Y-59060000D01*
X71268654Y-59060000D01*
X71390447Y-59672293D01*
X71675891Y-60099491D01*
X71516802Y-60201862D01*
X71345554Y-60452492D01*
X71285307Y-60750000D01*
X71285307Y-62450000D01*
X71337604Y-62727933D01*
X71501862Y-62983198D01*
X71752492Y-63154446D01*
X72050000Y-63214693D01*
X73750000Y-63214693D01*
X74027933Y-63162396D01*
X74283198Y-62998138D01*
X74454446Y-62747508D01*
X74514693Y-62450000D01*
X74514693Y-61189634D01*
X84150000Y-61189634D01*
X84150000Y-61250366D01*
X84267987Y-61843525D01*
X84603984Y-62346382D01*
X85106841Y-62682379D01*
X85700000Y-62800366D01*
X86293159Y-62682379D01*
X86796016Y-62346382D01*
X87132013Y-61843525D01*
X87250000Y-61250366D01*
X87250000Y-61189634D01*
X87132013Y-60596475D01*
X86796016Y-60093618D01*
X86293159Y-59757621D01*
X85700000Y-59639634D01*
X85106841Y-59757621D01*
X84603984Y-60093618D01*
X84267987Y-60596475D01*
X84150000Y-61189634D01*
X74514693Y-61189634D01*
X74514693Y-60750000D01*
X74462396Y-60472067D01*
X74298138Y-60216802D01*
X74124842Y-60098394D01*
X74409553Y-59672293D01*
X74531346Y-59060000D01*
X74409553Y-58447707D01*
X74190587Y-58120000D01*
X88068654Y-58120000D01*
X88190447Y-58732293D01*
X88537283Y-59251371D01*
X88744756Y-59390000D01*
X88537283Y-59528629D01*
X88190447Y-60047707D01*
X88068654Y-60660000D01*
X88190447Y-61272293D01*
X88475891Y-61699491D01*
X88316802Y-61801862D01*
X88145554Y-62052492D01*
X88085307Y-62350000D01*
X88085307Y-64050000D01*
X88137604Y-64327933D01*
X88301862Y-64583198D01*
X88552492Y-64754446D01*
X88850000Y-64814693D01*
X90550000Y-64814693D01*
X90827933Y-64762396D01*
X91041453Y-64625000D01*
X92010104Y-64625000D01*
X91806000Y-64709334D01*
X91510372Y-65004446D01*
X91350182Y-65390226D01*
X91349818Y-65807942D01*
X91509334Y-66194000D01*
X91699309Y-66384308D01*
X91745926Y-66454074D01*
X92145924Y-66854071D01*
X92145926Y-66854074D01*
X92446018Y-67054589D01*
X92800000Y-67125000D01*
X94789631Y-67125000D01*
X95090226Y-67249818D01*
X95507942Y-67250182D01*
X95894000Y-67090666D01*
X96189628Y-66795554D01*
X96349818Y-66409774D01*
X96350182Y-65992058D01*
X96190666Y-65606000D01*
X95895554Y-65310372D01*
X95509774Y-65150182D01*
X95133175Y-65149854D01*
X95149818Y-65109774D01*
X95150182Y-64692058D01*
X94990666Y-64306000D01*
X94695554Y-64010372D01*
X94392809Y-63884661D01*
X93554074Y-63045926D01*
X93253983Y-62845411D01*
X92900000Y-62775000D01*
X91314693Y-62775000D01*
X91314693Y-62350000D01*
X91262396Y-62072067D01*
X91098138Y-61816802D01*
X90924842Y-61698394D01*
X91209553Y-61272293D01*
X91331346Y-60660000D01*
X91209553Y-60047707D01*
X90862717Y-59528629D01*
X90655244Y-59390000D01*
X90862717Y-59251371D01*
X91209553Y-58732293D01*
X91331346Y-58120000D01*
X91209553Y-57507707D01*
X90862717Y-56988629D01*
X90343639Y-56641793D01*
X90173460Y-56607942D01*
X110899818Y-56607942D01*
X111059334Y-56994000D01*
X111354446Y-57289628D01*
X111740226Y-57449818D01*
X112157942Y-57450182D01*
X112544000Y-57290666D01*
X112839628Y-56995554D01*
X112965339Y-56692809D01*
X113383148Y-56275000D01*
X113489631Y-56275000D01*
X113790226Y-56399818D01*
X114207942Y-56400182D01*
X114594000Y-56240666D01*
X114889628Y-55945554D01*
X115049818Y-55559774D01*
X115050182Y-55142058D01*
X114890666Y-54756000D01*
X114595554Y-54460372D01*
X114209774Y-54300182D01*
X113792058Y-54299818D01*
X113489095Y-54425000D01*
X113000000Y-54425000D01*
X112646017Y-54495411D01*
X112345926Y-54695926D01*
X111656810Y-55385042D01*
X111356000Y-55509334D01*
X111060372Y-55804446D01*
X110900182Y-56190226D01*
X110899818Y-56607942D01*
X90173460Y-56607942D01*
X89731346Y-56520000D01*
X89668654Y-56520000D01*
X89056361Y-56641793D01*
X88537283Y-56988629D01*
X88190447Y-57507707D01*
X88068654Y-58120000D01*
X74190587Y-58120000D01*
X74062717Y-57928629D01*
X73543639Y-57581793D01*
X72931346Y-57460000D01*
X72868654Y-57460000D01*
X72256361Y-57581793D01*
X71737283Y-57928629D01*
X71390447Y-58447707D01*
X71268654Y-59060000D01*
X55295542Y-59060000D01*
X55209553Y-58627707D01*
X54924109Y-58200509D01*
X55083198Y-58098138D01*
X55254446Y-57847508D01*
X55314693Y-57550000D01*
X55314693Y-55850000D01*
X55306595Y-55806961D01*
X65249732Y-55806961D01*
X65485208Y-56376857D01*
X65920849Y-56813260D01*
X66490333Y-57049730D01*
X67106961Y-57050268D01*
X67676857Y-56814792D01*
X68113260Y-56379151D01*
X68349730Y-55809667D01*
X68350009Y-55489634D01*
X69050000Y-55489634D01*
X69050000Y-55550366D01*
X69167987Y-56143525D01*
X69503984Y-56646382D01*
X70006841Y-56982379D01*
X70600000Y-57100366D01*
X71193159Y-56982379D01*
X71696016Y-56646382D01*
X72032013Y-56143525D01*
X72150000Y-55550366D01*
X72150000Y-55489634D01*
X72032013Y-54896475D01*
X71696016Y-54393618D01*
X71193159Y-54057621D01*
X70600000Y-53939634D01*
X70006841Y-54057621D01*
X69503984Y-54393618D01*
X69167987Y-54896475D01*
X69050000Y-55489634D01*
X68350009Y-55489634D01*
X68350268Y-55193039D01*
X68114792Y-54623143D01*
X67679151Y-54186740D01*
X67109667Y-53950270D01*
X66493039Y-53949732D01*
X65923143Y-54185208D01*
X65486740Y-54620849D01*
X65250270Y-55190333D01*
X65249732Y-55806961D01*
X55306595Y-55806961D01*
X55262396Y-55572067D01*
X55098138Y-55316802D01*
X54847508Y-55145554D01*
X54550000Y-55085307D01*
X52850000Y-55085307D01*
X52572067Y-55137604D01*
X52316802Y-55301862D01*
X52145554Y-55552492D01*
X52085307Y-55850000D01*
X52085307Y-57550000D01*
X52137604Y-57827933D01*
X52301862Y-58083198D01*
X52475158Y-58201606D01*
X52190447Y-58627707D01*
X52068654Y-59240000D01*
X34299406Y-59240000D01*
X34400000Y-58734285D01*
X34400000Y-58665715D01*
X34266789Y-57996019D01*
X33887437Y-57428278D01*
X33705874Y-57306961D01*
X48749732Y-57306961D01*
X48985208Y-57876857D01*
X49420849Y-58313260D01*
X49990333Y-58549730D01*
X50606961Y-58550268D01*
X51176857Y-58314792D01*
X51613260Y-57879151D01*
X51849730Y-57309667D01*
X51850268Y-56693039D01*
X51614792Y-56123143D01*
X51179151Y-55686740D01*
X50609667Y-55450270D01*
X49993039Y-55449732D01*
X49423143Y-55685208D01*
X48986740Y-56120849D01*
X48750270Y-56690333D01*
X48749732Y-57306961D01*
X33705874Y-57306961D01*
X33319696Y-57048926D01*
X32650000Y-56915715D01*
X31980304Y-57048926D01*
X31412563Y-57428278D01*
X31033211Y-57996019D01*
X30900000Y-58665715D01*
X30825000Y-58665715D01*
X30825000Y-55371454D01*
X34307774Y-55371454D01*
X34704959Y-56025332D01*
X35234178Y-56486990D01*
X35525000Y-56407723D01*
X35525000Y-55075000D01*
X36775000Y-55075000D01*
X36775000Y-56407723D01*
X37065822Y-56486990D01*
X37595041Y-56025332D01*
X37992226Y-55371454D01*
X37885084Y-55075000D01*
X36775000Y-55075000D01*
X35525000Y-55075000D01*
X34414916Y-55075000D01*
X34307774Y-55371454D01*
X30825000Y-55371454D01*
X30825000Y-54200000D01*
X38601022Y-54200000D01*
X38753263Y-54965367D01*
X39186808Y-55614214D01*
X39835655Y-56047759D01*
X40601022Y-56200000D01*
X41698978Y-56200000D01*
X42464345Y-56047759D01*
X43113192Y-55614214D01*
X43546737Y-54965367D01*
X43698978Y-54200000D01*
X43546737Y-53434633D01*
X43113192Y-52785786D01*
X42669969Y-52489634D01*
X50150000Y-52489634D01*
X50150000Y-52550366D01*
X50267987Y-53143525D01*
X50603984Y-53646382D01*
X51106841Y-53982379D01*
X51700000Y-54100366D01*
X52293159Y-53982379D01*
X52406030Y-53906961D01*
X84149732Y-53906961D01*
X84385208Y-54476857D01*
X84820849Y-54913260D01*
X85390333Y-55149730D01*
X86006961Y-55150268D01*
X86576857Y-54914792D01*
X87013260Y-54479151D01*
X87249730Y-53909667D01*
X87250268Y-53293039D01*
X87014792Y-52723143D01*
X86579151Y-52286740D01*
X86009667Y-52050270D01*
X85393039Y-52049732D01*
X84823143Y-52285208D01*
X84386740Y-52720849D01*
X84150270Y-53290333D01*
X84149732Y-53906961D01*
X52406030Y-53906961D01*
X52796016Y-53646382D01*
X53132013Y-53143525D01*
X53250000Y-52550366D01*
X53250000Y-52489634D01*
X53132013Y-51896475D01*
X52796016Y-51393618D01*
X52293159Y-51057621D01*
X51700000Y-50939634D01*
X51106841Y-51057621D01*
X50603984Y-51393618D01*
X50267987Y-51896475D01*
X50150000Y-52489634D01*
X42669969Y-52489634D01*
X42464345Y-52352241D01*
X41698978Y-52200000D01*
X40601022Y-52200000D01*
X39835655Y-52352241D01*
X39186808Y-52785786D01*
X38753263Y-53434633D01*
X38601022Y-54200000D01*
X30825000Y-54200000D01*
X30825000Y-53028546D01*
X34307774Y-53028546D01*
X34414916Y-53325000D01*
X35525000Y-53325000D01*
X35525000Y-51992277D01*
X36775000Y-51992277D01*
X36775000Y-53325000D01*
X37885084Y-53325000D01*
X37992226Y-53028546D01*
X37595041Y-52374668D01*
X37065822Y-51913010D01*
X36775000Y-51992277D01*
X35525000Y-51992277D01*
X35234178Y-51913010D01*
X34704959Y-52374668D01*
X34307774Y-53028546D01*
X30825000Y-53028546D01*
X30825000Y-49665715D01*
X30900000Y-49665715D01*
X30900000Y-49734285D01*
X31033211Y-50403981D01*
X31412563Y-50971722D01*
X31980304Y-51351074D01*
X32650000Y-51484285D01*
X33319696Y-51351074D01*
X33887437Y-50971722D01*
X34266789Y-50403981D01*
X34400000Y-49734285D01*
X34400000Y-49665715D01*
X34266789Y-48996019D01*
X33887437Y-48428278D01*
X33319696Y-48048926D01*
X32650000Y-47915715D01*
X31980304Y-48048926D01*
X31412563Y-48428278D01*
X31033211Y-48996019D01*
X30900000Y-49665715D01*
X30825000Y-49665715D01*
X30825000Y-47250000D01*
X46285307Y-47250000D01*
X46285307Y-48950000D01*
X46337604Y-49227933D01*
X46501862Y-49483198D01*
X46752492Y-49654446D01*
X47050000Y-49714693D01*
X48750000Y-49714693D01*
X49027933Y-49662396D01*
X49283198Y-49498138D01*
X49454446Y-49247508D01*
X49514693Y-48950000D01*
X49514693Y-47849634D01*
X65250000Y-47849634D01*
X65250000Y-47910366D01*
X65367987Y-48503525D01*
X65703984Y-49006382D01*
X66206841Y-49342379D01*
X66800000Y-49460366D01*
X67393159Y-49342379D01*
X67896016Y-49006382D01*
X68232013Y-48503525D01*
X68291003Y-48206961D01*
X69049732Y-48206961D01*
X69285208Y-48776857D01*
X69720849Y-49213260D01*
X70290333Y-49449730D01*
X70906961Y-49450268D01*
X71476857Y-49214792D01*
X71913260Y-48779151D01*
X72149730Y-48209667D01*
X72150268Y-47593039D01*
X71914792Y-47023143D01*
X71479151Y-46586740D01*
X70909667Y-46350270D01*
X70293039Y-46349732D01*
X69723143Y-46585208D01*
X69286740Y-47020849D01*
X69050270Y-47590333D01*
X69049732Y-48206961D01*
X68291003Y-48206961D01*
X68350000Y-47910366D01*
X68350000Y-47849634D01*
X68232013Y-47256475D01*
X67896016Y-46753618D01*
X67393159Y-46417621D01*
X66800000Y-46299634D01*
X66206841Y-46417621D01*
X65703984Y-46753618D01*
X65367987Y-47256475D01*
X65250000Y-47849634D01*
X49514693Y-47849634D01*
X49514693Y-47250000D01*
X49462396Y-46972067D01*
X49298138Y-46716802D01*
X49150002Y-46615585D01*
X49150002Y-46544534D01*
X49365241Y-46222369D01*
X49253336Y-45985000D01*
X48325000Y-45985000D01*
X48325000Y-46410000D01*
X47475000Y-46410000D01*
X47475000Y-45985000D01*
X46546664Y-45985000D01*
X46434759Y-46222369D01*
X46649998Y-46544534D01*
X46649998Y-46616154D01*
X46516802Y-46701862D01*
X46345554Y-46952492D01*
X46285307Y-47250000D01*
X30825000Y-47250000D01*
X30825000Y-43200000D01*
X34585307Y-43200000D01*
X34585307Y-46200000D01*
X34637604Y-46477933D01*
X34801862Y-46733198D01*
X35052492Y-46904446D01*
X35350000Y-46964693D01*
X38350000Y-46964693D01*
X38627933Y-46912396D01*
X38883198Y-46748138D01*
X39054446Y-46497508D01*
X39114693Y-46200000D01*
X39114693Y-45206961D01*
X50149732Y-45206961D01*
X50385208Y-45776857D01*
X50820849Y-46213260D01*
X51390333Y-46449730D01*
X52006961Y-46450268D01*
X52576857Y-46214792D01*
X53013260Y-45779151D01*
X53249730Y-45209667D01*
X53250268Y-44593039D01*
X53014792Y-44023143D01*
X52579151Y-43586740D01*
X52009667Y-43350270D01*
X51393039Y-43349732D01*
X50823143Y-43585208D01*
X50386740Y-44020849D01*
X50150270Y-44590333D01*
X50149732Y-45206961D01*
X39114693Y-45206961D01*
X39114693Y-44897631D01*
X46434759Y-44897631D01*
X46546664Y-45135000D01*
X47475000Y-45135000D01*
X47475000Y-44198650D01*
X48325000Y-44198650D01*
X48325000Y-45135000D01*
X49253336Y-45135000D01*
X49365241Y-44897631D01*
X49072689Y-44459745D01*
X48562374Y-44094728D01*
X48325000Y-44198650D01*
X47475000Y-44198650D01*
X47237626Y-44094728D01*
X46727311Y-44459745D01*
X46434759Y-44897631D01*
X39114693Y-44897631D01*
X39114693Y-43200000D01*
X39062396Y-42922067D01*
X38898138Y-42666802D01*
X38647508Y-42495554D01*
X38350000Y-42435307D01*
X35350000Y-42435307D01*
X35072067Y-42487604D01*
X34816802Y-42651862D01*
X34645554Y-42902492D01*
X34585307Y-43200000D01*
X30825000Y-43200000D01*
X30825000Y-41546961D01*
X35983699Y-41546961D01*
X36177361Y-41821784D01*
X37071149Y-41911592D01*
X37522639Y-41821784D01*
X37716301Y-41546961D01*
X36850000Y-40680660D01*
X35983699Y-41546961D01*
X30825000Y-41546961D01*
X30825000Y-39841149D01*
X34558408Y-39841149D01*
X34648216Y-40292639D01*
X34923039Y-40486301D01*
X35789340Y-39620000D01*
X37910660Y-39620000D01*
X38776961Y-40486301D01*
X39051784Y-40292639D01*
X39141592Y-39398851D01*
X39051784Y-38947361D01*
X38776961Y-38753699D01*
X37910660Y-39620000D01*
X35789340Y-39620000D01*
X34923039Y-38753699D01*
X34648216Y-38947361D01*
X34558408Y-39841149D01*
X30825000Y-39841149D01*
X30825000Y-37693039D01*
X35983699Y-37693039D01*
X36850000Y-38559340D01*
X37716301Y-37693039D01*
X37522639Y-37418216D01*
X36628851Y-37328408D01*
X36177361Y-37418216D01*
X35983699Y-37693039D01*
X30825000Y-37693039D01*
X30825000Y-34758981D01*
X31422066Y-35357090D01*
X32444198Y-35781516D01*
X33550946Y-35782482D01*
X34573818Y-35359840D01*
X35184723Y-34750000D01*
X42235307Y-34750000D01*
X42235307Y-36750000D01*
X42287604Y-37027933D01*
X42451862Y-37283198D01*
X42702492Y-37454446D01*
X43000000Y-37514693D01*
X45000000Y-37514693D01*
X45277933Y-37462396D01*
X45533198Y-37298138D01*
X45613609Y-37180452D01*
X48276655Y-37180452D01*
X48392759Y-37436448D01*
X49084358Y-37540455D01*
X49607241Y-37436448D01*
X49723345Y-37180452D01*
X49000000Y-36457107D01*
X48276655Y-37180452D01*
X45613609Y-37180452D01*
X45704446Y-37047508D01*
X45764693Y-36750000D01*
X45764693Y-35834358D01*
X47209545Y-35834358D01*
X47313552Y-36357241D01*
X47569548Y-36473345D01*
X48292893Y-35750000D01*
X49707107Y-35750000D01*
X50430452Y-36473345D01*
X50686448Y-36357241D01*
X50790455Y-35665642D01*
X50686448Y-35142759D01*
X50430452Y-35026655D01*
X49707107Y-35750000D01*
X48292893Y-35750000D01*
X47569548Y-35026655D01*
X47313552Y-35142759D01*
X47209545Y-35834358D01*
X45764693Y-35834358D01*
X45764693Y-34750000D01*
X45712396Y-34472067D01*
X45614254Y-34319548D01*
X48276655Y-34319548D01*
X49000000Y-35042893D01*
X49392893Y-34650000D01*
X52985307Y-34650000D01*
X52985307Y-36650000D01*
X53037604Y-36927933D01*
X53201862Y-37183198D01*
X53452492Y-37354446D01*
X53750000Y-37414693D01*
X55750000Y-37414693D01*
X56027933Y-37362396D01*
X56283198Y-37198138D01*
X56363609Y-37080452D01*
X59026655Y-37080452D01*
X59142759Y-37336448D01*
X59834358Y-37440455D01*
X60357241Y-37336448D01*
X60473345Y-37080452D01*
X59892893Y-36500000D01*
X62535307Y-36500000D01*
X62535307Y-40000000D01*
X62587604Y-40277933D01*
X62751862Y-40533198D01*
X63002492Y-40704446D01*
X63300000Y-40764693D01*
X66800000Y-40764693D01*
X67077933Y-40712396D01*
X67235307Y-40611129D01*
X67235307Y-43000000D01*
X67287604Y-43277933D01*
X67451862Y-43533198D01*
X67702492Y-43704446D01*
X68000000Y-43764693D01*
X71500000Y-43764693D01*
X71777933Y-43712396D01*
X72033198Y-43548138D01*
X72204446Y-43297508D01*
X72222583Y-43207942D01*
X94449818Y-43207942D01*
X94609334Y-43594000D01*
X94904446Y-43889628D01*
X95290226Y-44049818D01*
X95707942Y-44050182D01*
X96094000Y-43890666D01*
X96389628Y-43595554D01*
X96440022Y-43474192D01*
X97834214Y-42080000D01*
X97999504Y-42080000D01*
X98087283Y-42211371D01*
X98606361Y-42558207D01*
X99218654Y-42680000D01*
X99281346Y-42680000D01*
X99893639Y-42558207D01*
X100412717Y-42211371D01*
X100759553Y-41692293D01*
X100881346Y-41080000D01*
X100759553Y-40467707D01*
X100412717Y-39948629D01*
X100205244Y-39810000D01*
X100412717Y-39671371D01*
X100759553Y-39152293D01*
X100881346Y-38540000D01*
X100759553Y-37927707D01*
X100474109Y-37500509D01*
X100633198Y-37398138D01*
X100804446Y-37147508D01*
X100864693Y-36850000D01*
X100864693Y-35707069D01*
X106025161Y-35707069D01*
X106841235Y-36523143D01*
X106720630Y-36643537D01*
X106490262Y-37198325D01*
X106489738Y-37799040D01*
X106719138Y-38354229D01*
X107143537Y-38779370D01*
X107698325Y-39009738D01*
X108299040Y-39010262D01*
X108854229Y-38780862D01*
X109270353Y-38365464D01*
X109683537Y-38779370D01*
X110238325Y-39009738D01*
X110839040Y-39010262D01*
X111394229Y-38780862D01*
X111819370Y-38356463D01*
X112049738Y-37801675D01*
X112050262Y-37200960D01*
X111820862Y-36645771D01*
X111675464Y-36500118D01*
X111819370Y-36356463D01*
X112049738Y-35801675D01*
X112050262Y-35200960D01*
X111820862Y-34645771D01*
X111753503Y-34578294D01*
X114446301Y-34578294D01*
X114616679Y-34847597D01*
X115449992Y-34941748D01*
X115923321Y-34847597D01*
X116093699Y-34578294D01*
X115270000Y-33754594D01*
X114446301Y-34578294D01*
X111753503Y-34578294D01*
X111396463Y-34220630D01*
X110841675Y-33990262D01*
X110240960Y-33989738D01*
X109685771Y-34219138D01*
X109260630Y-34643537D01*
X109166022Y-34871379D01*
X108537401Y-35500000D01*
X108806102Y-35768701D01*
X108501546Y-36073256D01*
X108301675Y-35990262D01*
X107700960Y-35989738D01*
X107498564Y-36073366D01*
X107193899Y-35768701D01*
X107462599Y-35500000D01*
X106809233Y-34846634D01*
X106562821Y-34925534D01*
X106507089Y-35225141D01*
X106025161Y-35707069D01*
X100864693Y-35707069D01*
X100864693Y-35150000D01*
X100812396Y-34872067D01*
X100648138Y-34616802D01*
X100591780Y-34578294D01*
X102446301Y-34578294D01*
X102616679Y-34847597D01*
X103449992Y-34941748D01*
X103923321Y-34847597D01*
X104093699Y-34578294D01*
X103824639Y-34309233D01*
X107346634Y-34309233D01*
X108000000Y-34962599D01*
X108653366Y-34309233D01*
X108574466Y-34062821D01*
X107980753Y-33952381D01*
X107425534Y-34062821D01*
X107346634Y-34309233D01*
X103824639Y-34309233D01*
X103270000Y-33754594D01*
X102446301Y-34578294D01*
X100591780Y-34578294D01*
X100397508Y-34445554D01*
X100100000Y-34385307D01*
X98400000Y-34385307D01*
X98122067Y-34437604D01*
X97866802Y-34601862D01*
X97695554Y-34852492D01*
X97635307Y-35150000D01*
X97635307Y-36850000D01*
X97687604Y-37127933D01*
X97851862Y-37383198D01*
X98025158Y-37501606D01*
X97740447Y-37927707D01*
X97618654Y-38540000D01*
X97740447Y-39152293D01*
X98087283Y-39671371D01*
X98294756Y-39810000D01*
X98087283Y-39948629D01*
X97999504Y-40080000D01*
X97420000Y-40080000D01*
X97037316Y-40156120D01*
X96712893Y-40372893D01*
X95026060Y-42059726D01*
X94906000Y-42109334D01*
X94610372Y-42404446D01*
X94450182Y-42790226D01*
X94449818Y-43207942D01*
X72222583Y-43207942D01*
X72264693Y-43000000D01*
X72264693Y-39500000D01*
X72212396Y-39222067D01*
X72048138Y-38966802D01*
X71797508Y-38795554D01*
X71500000Y-38735307D01*
X68000000Y-38735307D01*
X67722067Y-38787604D01*
X67564693Y-38888871D01*
X67564693Y-37636667D01*
X67570628Y-37642602D01*
X67849225Y-37758000D01*
X68685500Y-37758000D01*
X68875000Y-37568500D01*
X68875000Y-36125000D01*
X70625000Y-36125000D01*
X70625000Y-37568500D01*
X70814500Y-37758000D01*
X71650775Y-37758000D01*
X71929372Y-37642602D01*
X72142601Y-37429373D01*
X72258000Y-37150776D01*
X72258000Y-36314500D01*
X72068500Y-36125000D01*
X70625000Y-36125000D01*
X68875000Y-36125000D01*
X67449935Y-36125000D01*
X67348138Y-35966802D01*
X67097508Y-35795554D01*
X66800000Y-35735307D01*
X63300000Y-35735307D01*
X63022067Y-35787604D01*
X62766802Y-35951862D01*
X62595554Y-36202492D01*
X62535307Y-36500000D01*
X59892893Y-36500000D01*
X59750000Y-36357107D01*
X59026655Y-37080452D01*
X56363609Y-37080452D01*
X56454446Y-36947508D01*
X56514693Y-36650000D01*
X56514693Y-35734358D01*
X57959545Y-35734358D01*
X58063552Y-36257241D01*
X58319548Y-36373345D01*
X59042893Y-35650000D01*
X60457107Y-35650000D01*
X61180452Y-36373345D01*
X61436448Y-36257241D01*
X61540455Y-35565642D01*
X61436448Y-35042759D01*
X61180452Y-34926655D01*
X60457107Y-35650000D01*
X59042893Y-35650000D01*
X58319548Y-34926655D01*
X58063552Y-35042759D01*
X57959545Y-35734358D01*
X56514693Y-35734358D01*
X56514693Y-34650000D01*
X56462396Y-34372067D01*
X56364254Y-34219548D01*
X59026655Y-34219548D01*
X59750000Y-34942893D01*
X60473345Y-34219548D01*
X60357241Y-33963552D01*
X59665642Y-33859545D01*
X59142759Y-33963552D01*
X59026655Y-34219548D01*
X56364254Y-34219548D01*
X56298138Y-34116802D01*
X56047508Y-33945554D01*
X55750000Y-33885307D01*
X53750000Y-33885307D01*
X53472067Y-33937604D01*
X53216802Y-34101862D01*
X53045554Y-34352492D01*
X52985307Y-34650000D01*
X49392893Y-34650000D01*
X49723345Y-34319548D01*
X49607241Y-34063552D01*
X48915642Y-33959545D01*
X48392759Y-34063552D01*
X48276655Y-34319548D01*
X45614254Y-34319548D01*
X45548138Y-34216802D01*
X45297508Y-34045554D01*
X45000000Y-33985307D01*
X43000000Y-33985307D01*
X42722067Y-34037604D01*
X42466802Y-34201862D01*
X42295554Y-34452492D01*
X42235307Y-34750000D01*
X35184723Y-34750000D01*
X35357090Y-34577934D01*
X35781516Y-33555802D01*
X35781696Y-33349224D01*
X67242000Y-33349224D01*
X67242000Y-34185500D01*
X67431500Y-34375000D01*
X68875000Y-34375000D01*
X68875000Y-32931500D01*
X70625000Y-32931500D01*
X70625000Y-34375000D01*
X72068500Y-34375000D01*
X72258000Y-34185500D01*
X72258000Y-33349224D01*
X72142601Y-33070627D01*
X72051966Y-32979992D01*
X101128252Y-32979992D01*
X101222403Y-33453321D01*
X101491706Y-33623699D01*
X102315406Y-32800000D01*
X104224594Y-32800000D01*
X105048294Y-33623699D01*
X105317597Y-33453321D01*
X105371075Y-32979992D01*
X113128252Y-32979992D01*
X113222403Y-33453321D01*
X113491706Y-33623699D01*
X114315406Y-32800000D01*
X116224594Y-32800000D01*
X117048294Y-33623699D01*
X117317597Y-33453321D01*
X117411748Y-32620008D01*
X117317597Y-32146679D01*
X117048294Y-31976301D01*
X116224594Y-32800000D01*
X114315406Y-32800000D01*
X113491706Y-31976301D01*
X113222403Y-32146679D01*
X113128252Y-32979992D01*
X105371075Y-32979992D01*
X105411748Y-32620008D01*
X105317597Y-32146679D01*
X105048294Y-31976301D01*
X104224594Y-32800000D01*
X102315406Y-32800000D01*
X101491706Y-31976301D01*
X101222403Y-32146679D01*
X101128252Y-32979992D01*
X72051966Y-32979992D01*
X71929372Y-32857398D01*
X71650775Y-32742000D01*
X70814500Y-32742000D01*
X70625000Y-32931500D01*
X68875000Y-32931500D01*
X68685500Y-32742000D01*
X67849225Y-32742000D01*
X67570628Y-32857398D01*
X67357399Y-33070627D01*
X67242000Y-33349224D01*
X35781696Y-33349224D01*
X35782482Y-32449054D01*
X35359840Y-31426182D01*
X34759706Y-30825000D01*
X102570750Y-30825000D01*
X102446301Y-31021706D01*
X102446301Y-31021706D01*
G37*
X102446301Y-31021706D02*
X103270000Y-31845406D01*
X104093699Y-31021706D01*
X103969250Y-30825000D01*
X114570750Y-30825000D01*
X114446301Y-31021706D01*
X115270000Y-31845406D01*
X116093699Y-31021706D01*
X115969250Y-30825000D01*
X125241019Y-30825000D01*
X124642910Y-31422066D01*
X124218484Y-32444198D01*
X124217518Y-33550946D01*
X124640160Y-34573818D01*
X125422066Y-35357090D01*
X126444198Y-35781516D01*
X127550946Y-35782482D01*
X128573818Y-35359840D01*
X129175000Y-34759706D01*
X129175000Y-108537298D01*
X129166789Y-108496019D01*
X128787437Y-107928278D01*
X128219696Y-107548926D01*
X127550000Y-107415715D01*
X126880304Y-107548926D01*
X126312563Y-107928278D01*
X125933211Y-108496019D01*
X125800000Y-109165715D01*
X125800000Y-109234285D01*
X125933211Y-109903981D01*
X126312563Y-110471722D01*
X126880304Y-110851074D01*
X127550000Y-110984285D01*
X128219696Y-110851074D01*
X128787437Y-110471722D01*
X129166789Y-109903981D01*
X129175000Y-109862702D01*
X129175000Y-117537298D01*
X129166789Y-117496019D01*
X128787437Y-116928278D01*
X128219696Y-116548926D01*
X127550000Y-116415715D01*
X126880304Y-116548926D01*
X126312563Y-116928278D01*
X125933211Y-117496019D01*
X125800000Y-118165715D01*
X125800000Y-118199933D01*
X125559774Y-118100182D01*
X125142058Y-118099818D01*
X124756000Y-118259334D01*
X124460372Y-118554446D01*
X124300182Y-118940226D01*
X124299818Y-119357942D01*
X124375000Y-119539896D01*
X124375000Y-120389631D01*
X124250182Y-120690226D01*
X124249818Y-121107942D01*
X124409334Y-121494000D01*
X124704446Y-121789628D01*
X125090226Y-121949818D01*
X125507942Y-121950182D01*
X125894000Y-121790666D01*
X126189628Y-121495554D01*
X126349818Y-121109774D01*
X126350182Y-120692058D01*
X126225000Y-120389095D01*
X126225000Y-119760156D01*
X126239628Y-119745554D01*
X126344478Y-119493047D01*
X126880304Y-119851074D01*
X127550000Y-119984285D01*
X128219696Y-119851074D01*
X128787437Y-119471722D01*
X129166789Y-118903981D01*
X129175000Y-118862702D01*
X129175000Y-125241019D01*
X128577934Y-124642910D01*
X127555802Y-124218484D01*
X126449054Y-124217518D01*
X125426182Y-124640160D01*
X124642910Y-125422066D01*
X124218484Y-126444198D01*
X124217518Y-127550946D01*
X124640160Y-128573818D01*
X125240294Y-129175000D01*
X115411335Y-129175000D01*
X115703981Y-129116789D01*
X116271722Y-128737437D01*
X116651074Y-128169696D01*
X116784285Y-127500000D01*
X116651074Y-126830304D01*
X116271722Y-126262563D01*
X115703981Y-125883211D01*
X115034285Y-125750000D01*
X114965715Y-125750000D01*
X114296019Y-125883211D01*
X113728278Y-126262563D01*
X113348926Y-126830304D01*
X113215715Y-127500000D01*
X113348926Y-128169696D01*
X113728278Y-128737437D01*
X114296019Y-129116789D01*
X114588665Y-129175000D01*
X106411335Y-129175000D01*
X106703981Y-129116789D01*
X107271722Y-128737437D01*
X107651074Y-128169696D01*
X107784285Y-127500000D01*
X107651074Y-126830304D01*
X107271722Y-126262563D01*
X106703981Y-125883211D01*
X106034285Y-125750000D01*
X105965715Y-125750000D01*
X105296019Y-125883211D01*
X104728278Y-126262563D01*
X104348926Y-126830304D01*
X104215715Y-127500000D01*
X104348926Y-128169696D01*
X104728278Y-128737437D01*
X105296019Y-129116789D01*
X105588665Y-129175000D01*
X84530837Y-129175000D01*
X84750001Y-129084443D01*
X85242713Y-128592590D01*
X85509696Y-127949624D01*
X85510304Y-127253431D01*
X85244443Y-126609999D01*
X84752590Y-126117287D01*
X84173822Y-125876961D01*
X94803699Y-125876961D01*
X94997361Y-126151784D01*
X95891149Y-126241592D01*
X96342639Y-126151784D01*
X96536301Y-125876961D01*
X95670000Y-125010660D01*
X94803699Y-125876961D01*
X84173822Y-125876961D01*
X84109624Y-125850304D01*
X83413431Y-125849696D01*
X82769999Y-126115557D01*
X82277287Y-126607410D01*
X82010304Y-127250376D01*
X82009696Y-127946569D01*
X82275557Y-128590001D01*
X82767410Y-129082713D01*
X82989662Y-129175000D01*
X60530837Y-129175000D01*
X60750001Y-129084443D01*
X61242713Y-128592590D01*
X61509696Y-127949624D01*
X61510304Y-127253431D01*
X61244443Y-126609999D01*
X60752590Y-126117287D01*
X60109624Y-125850304D01*
X59413431Y-125849696D01*
X58769999Y-126115557D01*
X58277287Y-126607410D01*
X58010304Y-127250376D01*
X58009696Y-127946569D01*
X58275557Y-128590001D01*
X58767410Y-129082713D01*
X58989662Y-129175000D01*
X34758981Y-129175000D01*
X35357090Y-128577934D01*
X35781516Y-127555802D01*
X35782482Y-126449054D01*
X35359840Y-125426182D01*
X34577934Y-124642910D01*
X33555802Y-124218484D01*
X32449054Y-124217518D01*
X31426182Y-124640160D01*
X30825000Y-125240294D01*
X30825000Y-124000000D01*
X39085307Y-124000000D01*
X39085307Y-127000000D01*
X39137604Y-127277933D01*
X39301862Y-127533198D01*
X39552492Y-127704446D01*
X39850000Y-127764693D01*
X42850000Y-127764693D01*
X43127933Y-127712396D01*
X43383198Y-127548138D01*
X43554446Y-127297508D01*
X43614693Y-127000000D01*
X43614693Y-124000000D01*
X43562396Y-123722067D01*
X43398138Y-123466802D01*
X43147508Y-123295554D01*
X42850000Y-123235307D01*
X39850000Y-123235307D01*
X39572067Y-123287604D01*
X39316802Y-123451862D01*
X39145554Y-123702492D01*
X39085307Y-124000000D01*
X30825000Y-124000000D01*
X30825000Y-122866569D01*
X50389696Y-122866569D01*
X50655557Y-123510001D01*
X51147410Y-124002713D01*
X51790376Y-124269696D01*
X52486569Y-124270304D01*
X53130001Y-124004443D01*
X53622713Y-123512590D01*
X53769975Y-123157942D01*
X69599818Y-123157942D01*
X69759334Y-123544000D01*
X70054446Y-123839628D01*
X70440226Y-123999818D01*
X70857942Y-124000182D01*
X71023590Y-123931738D01*
X71285042Y-124193190D01*
X71409334Y-124494000D01*
X71704446Y-124789628D01*
X72090226Y-124949818D01*
X72507942Y-124950182D01*
X72894000Y-124790666D01*
X73189628Y-124495554D01*
X73349818Y-124109774D01*
X73350182Y-123692058D01*
X73190666Y-123306000D01*
X72895554Y-123010372D01*
X72592809Y-122884661D01*
X72574717Y-122866569D01*
X74389696Y-122866569D01*
X74655557Y-123510001D01*
X75147410Y-124002713D01*
X75790376Y-124269696D01*
X76486569Y-124270304D01*
X76726542Y-124171149D01*
X93378408Y-124171149D01*
X93468216Y-124622639D01*
X93743039Y-124816301D01*
X94609340Y-123950000D01*
X96730660Y-123950000D01*
X97596961Y-124816301D01*
X97871784Y-124622639D01*
X97961592Y-123728851D01*
X97871784Y-123277361D01*
X97596961Y-123083699D01*
X96730660Y-123950000D01*
X94609340Y-123950000D01*
X93743039Y-123083699D01*
X93468216Y-123277361D01*
X93378408Y-124171149D01*
X76726542Y-124171149D01*
X77130001Y-124004443D01*
X77622713Y-123512590D01*
X77889696Y-122869624D01*
X77890304Y-122173431D01*
X77828164Y-122023039D01*
X94803699Y-122023039D01*
X95670000Y-122889340D01*
X96109340Y-122450000D01*
X98485307Y-122450000D01*
X98485307Y-125450000D01*
X98537604Y-125727933D01*
X98701862Y-125983198D01*
X98952492Y-126154446D01*
X99250000Y-126214693D01*
X102250000Y-126214693D01*
X102527933Y-126162396D01*
X102783198Y-125998138D01*
X102954446Y-125747508D01*
X103014693Y-125450000D01*
X103014693Y-124915822D01*
X108213010Y-124915822D01*
X108674668Y-125445041D01*
X109328546Y-125842226D01*
X109625000Y-125735084D01*
X109625000Y-124625000D01*
X111375000Y-124625000D01*
X111375000Y-125735084D01*
X111671454Y-125842226D01*
X112325332Y-125445041D01*
X112786990Y-124915822D01*
X112707723Y-124625000D01*
X111375000Y-124625000D01*
X109625000Y-124625000D01*
X108292277Y-124625000D01*
X108213010Y-124915822D01*
X103014693Y-124915822D01*
X103014693Y-123084178D01*
X108213010Y-123084178D01*
X108292277Y-123375000D01*
X109625000Y-123375000D01*
X109625000Y-122264916D01*
X111375000Y-122264916D01*
X111375000Y-123375000D01*
X112707723Y-123375000D01*
X112786990Y-123084178D01*
X112325332Y-122554959D01*
X111671454Y-122157774D01*
X111375000Y-122264916D01*
X109625000Y-122264916D01*
X109328546Y-122157774D01*
X108674668Y-122554959D01*
X108213010Y-123084178D01*
X103014693Y-123084178D01*
X103014693Y-122450000D01*
X102962396Y-122172067D01*
X102798138Y-121916802D01*
X102547508Y-121745554D01*
X102250000Y-121685307D01*
X99250000Y-121685307D01*
X98972067Y-121737604D01*
X98716802Y-121901862D01*
X98545554Y-122152492D01*
X98485307Y-122450000D01*
X96109340Y-122450000D01*
X96536301Y-122023039D01*
X96342639Y-121748216D01*
X95448851Y-121658408D01*
X94997361Y-121748216D01*
X94803699Y-122023039D01*
X77828164Y-122023039D01*
X77624443Y-121529999D01*
X77132590Y-121037287D01*
X76489624Y-120770304D01*
X75793431Y-120769696D01*
X75149999Y-121035557D01*
X74657287Y-121527410D01*
X74390304Y-122170376D01*
X74389696Y-122866569D01*
X72574717Y-122866569D01*
X72004074Y-122295926D01*
X71703983Y-122095411D01*
X71350000Y-122025000D01*
X71160369Y-122025000D01*
X70859774Y-121900182D01*
X70442058Y-121899818D01*
X70056000Y-122059334D01*
X69760372Y-122354446D01*
X69600182Y-122740226D01*
X69599818Y-123157942D01*
X53769975Y-123157942D01*
X53889696Y-122869624D01*
X53890304Y-122173431D01*
X53624443Y-121529999D01*
X53132590Y-121037287D01*
X52489624Y-120770304D01*
X51793431Y-120769696D01*
X51149999Y-121035557D01*
X50657287Y-121527410D01*
X50390304Y-122170376D01*
X50389696Y-122866569D01*
X30825000Y-122866569D01*
X30825000Y-122346961D01*
X40483699Y-122346961D01*
X40677361Y-122621784D01*
X41571149Y-122711592D01*
X42022639Y-122621784D01*
X42216301Y-122346961D01*
X41350000Y-121480660D01*
X40483699Y-122346961D01*
X30825000Y-122346961D01*
X30825000Y-120641149D01*
X39058408Y-120641149D01*
X39148216Y-121092639D01*
X39423039Y-121286301D01*
X40289340Y-120420000D01*
X42410660Y-120420000D01*
X43276961Y-121286301D01*
X43551784Y-121092639D01*
X43597570Y-120636961D01*
X55083699Y-120636961D01*
X55277361Y-120911784D01*
X56171149Y-121001592D01*
X56622639Y-120911784D01*
X56816301Y-120636961D01*
X79083699Y-120636961D01*
X79277361Y-120911784D01*
X80171149Y-121001592D01*
X80622639Y-120911784D01*
X80816301Y-120636961D01*
X79950000Y-119770660D01*
X79083699Y-120636961D01*
X56816301Y-120636961D01*
X55950000Y-119770660D01*
X55083699Y-120636961D01*
X43597570Y-120636961D01*
X43641592Y-120198851D01*
X43551784Y-119747361D01*
X43276961Y-119553699D01*
X42410660Y-120420000D01*
X40289340Y-120420000D01*
X39423039Y-119553699D01*
X39148216Y-119747361D01*
X39058408Y-120641149D01*
X30825000Y-120641149D01*
X30825000Y-116765715D01*
X31300000Y-116765715D01*
X31300000Y-116834285D01*
X31433211Y-117503981D01*
X31812563Y-118071722D01*
X32380304Y-118451074D01*
X33050000Y-118584285D01*
X33508723Y-118493039D01*
X40483699Y-118493039D01*
X41350000Y-119359340D01*
X41778191Y-118931149D01*
X53658408Y-118931149D01*
X53748216Y-119382639D01*
X54023039Y-119576301D01*
X54889340Y-118710000D01*
X57010660Y-118710000D01*
X57876961Y-119576301D01*
X58151784Y-119382639D01*
X58197149Y-118931149D01*
X77658408Y-118931149D01*
X77748216Y-119382639D01*
X78023039Y-119576301D01*
X78889340Y-118710000D01*
X81010660Y-118710000D01*
X81876961Y-119576301D01*
X82151784Y-119382639D01*
X82241592Y-118488851D01*
X82234068Y-118451022D01*
X108500000Y-118451022D01*
X108500000Y-119548978D01*
X108652241Y-120314345D01*
X109085786Y-120963192D01*
X109734633Y-121396737D01*
X110500000Y-121548978D01*
X111265367Y-121396737D01*
X111914214Y-120963192D01*
X112347759Y-120314345D01*
X112500000Y-119548978D01*
X112500000Y-118451022D01*
X112347759Y-117685655D01*
X111914214Y-117036808D01*
X111265367Y-116603263D01*
X110500000Y-116451022D01*
X109734633Y-116603263D01*
X109085786Y-117036808D01*
X108652241Y-117685655D01*
X108500000Y-118451022D01*
X82234068Y-118451022D01*
X82151784Y-118037361D01*
X81876961Y-117843699D01*
X81010660Y-118710000D01*
X78889340Y-118710000D01*
X78023039Y-117843699D01*
X77748216Y-118037361D01*
X77658408Y-118931149D01*
X58197149Y-118931149D01*
X58241592Y-118488851D01*
X58151784Y-118037361D01*
X57876961Y-117843699D01*
X57010660Y-118710000D01*
X54889340Y-118710000D01*
X54023039Y-117843699D01*
X53748216Y-118037361D01*
X53658408Y-118931149D01*
X41778191Y-118931149D01*
X42216301Y-118493039D01*
X42022639Y-118218216D01*
X41128851Y-118128408D01*
X40677361Y-118218216D01*
X40483699Y-118493039D01*
X33508723Y-118493039D01*
X33719696Y-118451074D01*
X34287437Y-118071722D01*
X34666789Y-117503981D01*
X34800000Y-116834285D01*
X34800000Y-116783039D01*
X55083699Y-116783039D01*
X55950000Y-117649340D01*
X56816301Y-116783039D01*
X79083699Y-116783039D01*
X79950000Y-117649340D01*
X80442379Y-117156961D01*
X95199732Y-117156961D01*
X95435208Y-117726857D01*
X95870849Y-118163260D01*
X96440333Y-118399730D01*
X97056961Y-118400268D01*
X97626857Y-118164792D01*
X98063260Y-117729151D01*
X98299730Y-117159667D01*
X98299732Y-117156961D01*
X100199732Y-117156961D01*
X100435208Y-117726857D01*
X100870849Y-118163260D01*
X101440333Y-118399730D01*
X102056961Y-118400268D01*
X102626857Y-118164792D01*
X103063260Y-117729151D01*
X103299730Y-117159667D01*
X103300268Y-116543039D01*
X103064792Y-115973143D01*
X102629151Y-115536740D01*
X102059667Y-115300270D01*
X101443039Y-115299732D01*
X100873143Y-115535208D01*
X100436740Y-115970849D01*
X100200270Y-116540333D01*
X100199732Y-117156961D01*
X98299732Y-117156961D01*
X98300268Y-116543039D01*
X98064792Y-115973143D01*
X97629151Y-115536740D01*
X97059667Y-115300270D01*
X96443039Y-115299732D01*
X95873143Y-115535208D01*
X95436740Y-115970849D01*
X95200270Y-116540333D01*
X95199732Y-117156961D01*
X80442379Y-117156961D01*
X80816301Y-116783039D01*
X80622639Y-116508216D01*
X79728851Y-116418408D01*
X79277361Y-116508216D01*
X79083699Y-116783039D01*
X56816301Y-116783039D01*
X56622639Y-116508216D01*
X55728851Y-116418408D01*
X55277361Y-116508216D01*
X55083699Y-116783039D01*
X34800000Y-116783039D01*
X34800000Y-116765715D01*
X34666789Y-116096019D01*
X34306603Y-115556961D01*
X51273699Y-115556961D01*
X51467361Y-115831784D01*
X52361149Y-115921592D01*
X52812639Y-115831784D01*
X53006301Y-115556961D01*
X52140000Y-114690660D01*
X51273699Y-115556961D01*
X34306603Y-115556961D01*
X34287437Y-115528278D01*
X33719696Y-115148926D01*
X33050000Y-115015715D01*
X32380304Y-115148926D01*
X31812563Y-115528278D01*
X31433211Y-116096019D01*
X31300000Y-116765715D01*
X30825000Y-116765715D01*
X30825000Y-113471454D01*
X34707774Y-113471454D01*
X35104959Y-114125332D01*
X35634178Y-114586990D01*
X35925000Y-114507723D01*
X35925000Y-113175000D01*
X37175000Y-113175000D01*
X37175000Y-114507723D01*
X37465822Y-114586990D01*
X37995041Y-114125332D01*
X38392226Y-113471454D01*
X38285084Y-113175000D01*
X37175000Y-113175000D01*
X35925000Y-113175000D01*
X34814916Y-113175000D01*
X34707774Y-113471454D01*
X30825000Y-113471454D01*
X30825000Y-112300000D01*
X39001022Y-112300000D01*
X39153263Y-113065367D01*
X39586808Y-113714214D01*
X40235655Y-114147759D01*
X41001022Y-114300000D01*
X42098978Y-114300000D01*
X42864345Y-114147759D01*
X43308253Y-113851149D01*
X49848408Y-113851149D01*
X49938216Y-114302639D01*
X50213039Y-114496301D01*
X51079340Y-113630000D01*
X53200660Y-113630000D01*
X53737183Y-114166523D01*
X54041431Y-114902858D01*
X54673813Y-115536345D01*
X55500484Y-115879608D01*
X56395589Y-115880390D01*
X57222858Y-115538569D01*
X57855548Y-114906982D01*
X58483813Y-115536345D01*
X59310484Y-115879608D01*
X60205589Y-115880390D01*
X60988346Y-115556961D01*
X75273699Y-115556961D01*
X75467361Y-115831784D01*
X76361149Y-115921592D01*
X76812639Y-115831784D01*
X77006301Y-115556961D01*
X76140000Y-114690660D01*
X75273699Y-115556961D01*
X60988346Y-115556961D01*
X61032858Y-115538569D01*
X61666345Y-114906187D01*
X62009608Y-114079516D01*
X62009807Y-113851149D01*
X73848408Y-113851149D01*
X73938216Y-114302639D01*
X74213039Y-114496301D01*
X75079340Y-113630000D01*
X77200660Y-113630000D01*
X77737183Y-114166523D01*
X78041431Y-114902858D01*
X78673813Y-115536345D01*
X79500484Y-115879608D01*
X80395589Y-115880390D01*
X81222858Y-115538569D01*
X81855548Y-114906982D01*
X82483813Y-115536345D01*
X83310484Y-115879608D01*
X84205589Y-115880390D01*
X85032858Y-115538569D01*
X85666345Y-114906187D01*
X86009608Y-114079516D01*
X86009939Y-113700000D01*
X116501022Y-113700000D01*
X116653263Y-114465367D01*
X117086808Y-115114214D01*
X117735655Y-115547759D01*
X118501022Y-115700000D01*
X119598978Y-115700000D01*
X120364345Y-115547759D01*
X121013192Y-115114214D01*
X121175398Y-114871454D01*
X122207774Y-114871454D01*
X122604959Y-115525332D01*
X123134178Y-115986990D01*
X123425000Y-115907723D01*
X123425000Y-114575000D01*
X124675000Y-114575000D01*
X124675000Y-115907723D01*
X124965822Y-115986990D01*
X125495041Y-115525332D01*
X125892226Y-114871454D01*
X125785084Y-114575000D01*
X124675000Y-114575000D01*
X123425000Y-114575000D01*
X122314916Y-114575000D01*
X122207774Y-114871454D01*
X121175398Y-114871454D01*
X121446737Y-114465367D01*
X121598978Y-113700000D01*
X121446737Y-112934633D01*
X121175399Y-112528546D01*
X122207774Y-112528546D01*
X122314916Y-112825000D01*
X123425000Y-112825000D01*
X123425000Y-111492277D01*
X124675000Y-111492277D01*
X124675000Y-112825000D01*
X125785084Y-112825000D01*
X125892226Y-112528546D01*
X125495041Y-111874668D01*
X124965822Y-111413010D01*
X124675000Y-111492277D01*
X123425000Y-111492277D01*
X123134178Y-111413010D01*
X122604959Y-111874668D01*
X122207774Y-112528546D01*
X121175399Y-112528546D01*
X121013192Y-112285786D01*
X120364345Y-111852241D01*
X119598978Y-111700000D01*
X118501022Y-111700000D01*
X117735655Y-111852241D01*
X117086808Y-112285786D01*
X116653263Y-112934633D01*
X116501022Y-113700000D01*
X86009939Y-113700000D01*
X86010390Y-113184411D01*
X85668569Y-112357142D01*
X85318999Y-112006961D01*
X85799732Y-112006961D01*
X86035208Y-112576857D01*
X86470849Y-113013260D01*
X87040333Y-113249730D01*
X87656961Y-113250268D01*
X88226857Y-113014792D01*
X88663260Y-112579151D01*
X88899730Y-112009667D01*
X88900000Y-111700000D01*
X93389634Y-111700000D01*
X93507621Y-112293159D01*
X93843618Y-112796016D01*
X94346475Y-113132013D01*
X94939634Y-113250000D01*
X95000366Y-113250000D01*
X95593525Y-113132013D01*
X96096382Y-112796016D01*
X96432379Y-112293159D01*
X96550366Y-111700000D01*
X96432379Y-111106841D01*
X96096382Y-110603984D01*
X95593525Y-110267987D01*
X95000366Y-110150000D01*
X94939634Y-110150000D01*
X94346475Y-110267987D01*
X93843618Y-110603984D01*
X93507621Y-111106841D01*
X93389634Y-111700000D01*
X88900000Y-111700000D01*
X88900268Y-111393039D01*
X88664792Y-110823143D01*
X88229151Y-110386740D01*
X87659667Y-110150270D01*
X87043039Y-110149732D01*
X86473143Y-110385208D01*
X86036740Y-110820849D01*
X85800270Y-111390333D01*
X85799732Y-112006961D01*
X85318999Y-112006961D01*
X85036187Y-111723655D01*
X84209516Y-111380392D01*
X83314411Y-111379610D01*
X82487142Y-111721431D01*
X81854452Y-112353018D01*
X81226187Y-111723655D01*
X80399516Y-111380392D01*
X79504411Y-111379610D01*
X78677142Y-111721431D01*
X78043655Y-112353813D01*
X77736050Y-113094610D01*
X77200660Y-113630000D01*
X75079340Y-113630000D01*
X74213039Y-112763699D01*
X73938216Y-112957361D01*
X73848408Y-113851149D01*
X62009807Y-113851149D01*
X62010390Y-113184411D01*
X61668569Y-112357142D01*
X61036187Y-111723655D01*
X60986539Y-111703039D01*
X75273699Y-111703039D01*
X76140000Y-112569340D01*
X77006301Y-111703039D01*
X76812639Y-111428216D01*
X75918851Y-111338408D01*
X75467361Y-111428216D01*
X75273699Y-111703039D01*
X60986539Y-111703039D01*
X60209516Y-111380392D01*
X59314411Y-111379610D01*
X58487142Y-111721431D01*
X57854452Y-112353018D01*
X57226187Y-111723655D01*
X56399516Y-111380392D01*
X55504411Y-111379610D01*
X54677142Y-111721431D01*
X54043655Y-112353813D01*
X53736050Y-113094610D01*
X53200660Y-113630000D01*
X51079340Y-113630000D01*
X50213039Y-112763699D01*
X49938216Y-112957361D01*
X49848408Y-113851149D01*
X43308253Y-113851149D01*
X43513192Y-113714214D01*
X43946737Y-113065367D01*
X44098978Y-112300000D01*
X43946737Y-111534633D01*
X43513192Y-110885786D01*
X43144799Y-110639634D01*
X46100000Y-110639634D01*
X46100000Y-110700366D01*
X46217987Y-111293525D01*
X46553984Y-111796382D01*
X47056841Y-112132379D01*
X47650000Y-112250366D01*
X48243159Y-112132379D01*
X48746016Y-111796382D01*
X48808385Y-111703039D01*
X51273699Y-111703039D01*
X52140000Y-112569340D01*
X53006301Y-111703039D01*
X52812639Y-111428216D01*
X51918851Y-111338408D01*
X51467361Y-111428216D01*
X51273699Y-111703039D01*
X48808385Y-111703039D01*
X49082013Y-111293525D01*
X49200000Y-110700366D01*
X49200000Y-110639634D01*
X49082013Y-110046475D01*
X48746016Y-109543618D01*
X48243159Y-109207621D01*
X47650000Y-109089634D01*
X47056841Y-109207621D01*
X46553984Y-109543618D01*
X46217987Y-110046475D01*
X46100000Y-110639634D01*
X43144799Y-110639634D01*
X42864345Y-110452241D01*
X42098978Y-110300000D01*
X41001022Y-110300000D01*
X40235655Y-110452241D01*
X39586808Y-110885786D01*
X39153263Y-111534633D01*
X39001022Y-112300000D01*
X30825000Y-112300000D01*
X30825000Y-111128546D01*
X34707774Y-111128546D01*
X34814916Y-111425000D01*
X35925000Y-111425000D01*
X35925000Y-110092277D01*
X37175000Y-110092277D01*
X37175000Y-111425000D01*
X38285084Y-111425000D01*
X38392226Y-111128546D01*
X37995041Y-110474668D01*
X37465822Y-110013010D01*
X37175000Y-110092277D01*
X35925000Y-110092277D01*
X35634178Y-110013010D01*
X35104959Y-110474668D01*
X34707774Y-111128546D01*
X30825000Y-111128546D01*
X30825000Y-107765715D01*
X31300000Y-107765715D01*
X31300000Y-107834285D01*
X31433211Y-108503981D01*
X31812563Y-109071722D01*
X32380304Y-109451074D01*
X33050000Y-109584285D01*
X33719696Y-109451074D01*
X34287437Y-109071722D01*
X34666789Y-108503981D01*
X34800000Y-107834285D01*
X34800000Y-107765715D01*
X34666789Y-107096019D01*
X34295025Y-106539634D01*
X83550000Y-106539634D01*
X83550000Y-106600366D01*
X83667987Y-107193525D01*
X84003984Y-107696382D01*
X84506841Y-108032379D01*
X85100000Y-108150366D01*
X85693159Y-108032379D01*
X85850177Y-107927464D01*
X85849732Y-108436961D01*
X86085208Y-109006857D01*
X86520849Y-109443260D01*
X87090333Y-109679730D01*
X87706961Y-109680268D01*
X88276857Y-109444792D01*
X88713260Y-109009151D01*
X88949730Y-108439667D01*
X88950000Y-108130000D01*
X93439634Y-108130000D01*
X93557621Y-108723159D01*
X93893618Y-109226016D01*
X94396475Y-109562013D01*
X94989634Y-109680000D01*
X95050366Y-109680000D01*
X95643525Y-109562013D01*
X96146382Y-109226016D01*
X96482379Y-108723159D01*
X96600366Y-108130000D01*
X96482379Y-107536841D01*
X96146382Y-107033984D01*
X95956278Y-106906961D01*
X122033699Y-106906961D01*
X122227361Y-107181784D01*
X123121149Y-107271592D01*
X123572639Y-107181784D01*
X123766301Y-106906961D01*
X122900000Y-106040660D01*
X122033699Y-106906961D01*
X95956278Y-106906961D01*
X95643525Y-106697987D01*
X95050366Y-106580000D01*
X94989634Y-106580000D01*
X94396475Y-106697987D01*
X93893618Y-107033984D01*
X93557621Y-107536841D01*
X93439634Y-108130000D01*
X88950000Y-108130000D01*
X88950268Y-107823039D01*
X88714792Y-107253143D01*
X88279151Y-106816740D01*
X87709667Y-106580270D01*
X87093039Y-106579732D01*
X86614798Y-106777337D01*
X86650000Y-106600366D01*
X86650000Y-106539634D01*
X86532013Y-105946475D01*
X86196016Y-105443618D01*
X85833135Y-105201149D01*
X120608408Y-105201149D01*
X120698216Y-105652639D01*
X120973039Y-105846301D01*
X121839340Y-104980000D01*
X123960660Y-104980000D01*
X124826961Y-105846301D01*
X125101784Y-105652639D01*
X125191592Y-104758851D01*
X125101784Y-104307361D01*
X124826961Y-104113699D01*
X123960660Y-104980000D01*
X121839340Y-104980000D01*
X120973039Y-104113699D01*
X120698216Y-104307361D01*
X120608408Y-105201149D01*
X85833135Y-105201149D01*
X85693159Y-105107621D01*
X85100000Y-104989634D01*
X84506841Y-105107621D01*
X84003984Y-105443618D01*
X83667987Y-105946475D01*
X83550000Y-106539634D01*
X34295025Y-106539634D01*
X34287437Y-106528278D01*
X33719696Y-106148926D01*
X33050000Y-106015715D01*
X32380304Y-106148926D01*
X31812563Y-106528278D01*
X31433211Y-107096019D01*
X31300000Y-107765715D01*
X30825000Y-107765715D01*
X30825000Y-101900000D01*
X35285307Y-101900000D01*
X35285307Y-104900000D01*
X35337604Y-105177933D01*
X35501862Y-105433198D01*
X35752492Y-105604446D01*
X36050000Y-105664693D01*
X39050000Y-105664693D01*
X39327933Y-105612396D01*
X39583198Y-105448138D01*
X39754446Y-105197508D01*
X39814693Y-104900000D01*
X39814693Y-103356961D01*
X46099732Y-103356961D01*
X46335208Y-103926857D01*
X46770849Y-104363260D01*
X47340333Y-104599730D01*
X47956961Y-104600268D01*
X48526857Y-104364792D01*
X48963260Y-103929151D01*
X49199730Y-103359667D01*
X49200268Y-102743039D01*
X49041150Y-102357942D01*
X60499818Y-102357942D01*
X60659334Y-102744000D01*
X60954446Y-103039628D01*
X61340226Y-103199818D01*
X61574426Y-103200022D01*
X61700000Y-103225000D01*
X65389631Y-103225000D01*
X65690226Y-103349818D01*
X66107942Y-103350182D01*
X66494000Y-103190666D01*
X66789628Y-102895554D01*
X66949818Y-102509774D01*
X66950182Y-102092058D01*
X66848910Y-101846961D01*
X91069732Y-101846961D01*
X91305208Y-102416857D01*
X91740849Y-102853260D01*
X92310333Y-103089730D01*
X92926961Y-103090268D01*
X93017062Y-103053039D01*
X122033699Y-103053039D01*
X122900000Y-103919340D01*
X123766301Y-103053039D01*
X123572639Y-102778216D01*
X122678851Y-102688408D01*
X122227361Y-102778216D01*
X122033699Y-103053039D01*
X93017062Y-103053039D01*
X93496857Y-102854792D01*
X93933260Y-102419151D01*
X94169730Y-101849667D01*
X94170268Y-101233039D01*
X94097515Y-101056961D01*
X95209732Y-101056961D01*
X95445208Y-101626857D01*
X95880849Y-102063260D01*
X96450333Y-102299730D01*
X97066961Y-102300268D01*
X97636857Y-102064792D01*
X98073260Y-101629151D01*
X98309730Y-101059667D01*
X98309732Y-101056961D01*
X100209732Y-101056961D01*
X100445208Y-101626857D01*
X100880849Y-102063260D01*
X101450333Y-102299730D01*
X102066961Y-102300268D01*
X102636857Y-102064792D01*
X103073260Y-101629151D01*
X103309730Y-101059667D01*
X103310268Y-100443039D01*
X103074792Y-99873143D01*
X102639151Y-99436740D01*
X102069667Y-99200270D01*
X101453039Y-99199732D01*
X100883143Y-99435208D01*
X100446740Y-99870849D01*
X100210270Y-100440333D01*
X100209732Y-101056961D01*
X98309732Y-101056961D01*
X98310268Y-100443039D01*
X98074792Y-99873143D01*
X97639151Y-99436740D01*
X97069667Y-99200270D01*
X96453039Y-99199732D01*
X95883143Y-99435208D01*
X95446740Y-99870849D01*
X95210270Y-100440333D01*
X95209732Y-101056961D01*
X94097515Y-101056961D01*
X93934792Y-100663143D01*
X93499151Y-100226740D01*
X92929667Y-99990270D01*
X92313039Y-99989732D01*
X91743143Y-100225208D01*
X91306740Y-100660849D01*
X91070270Y-101230333D01*
X91069732Y-101846961D01*
X66848910Y-101846961D01*
X66790666Y-101706000D01*
X66495554Y-101410372D01*
X66109774Y-101250182D01*
X65692058Y-101249818D01*
X65389095Y-101375000D01*
X62259982Y-101375000D01*
X62145554Y-101260372D01*
X61759774Y-101100182D01*
X61342058Y-101099818D01*
X60956000Y-101259334D01*
X60660372Y-101554446D01*
X60500182Y-101940226D01*
X60499818Y-102357942D01*
X49041150Y-102357942D01*
X48964792Y-102173143D01*
X48529151Y-101736740D01*
X47959667Y-101500270D01*
X47343039Y-101499732D01*
X46773143Y-101735208D01*
X46336740Y-102170849D01*
X46100270Y-102740333D01*
X46099732Y-103356961D01*
X39814693Y-103356961D01*
X39814693Y-101900000D01*
X39762396Y-101622067D01*
X39598138Y-101366802D01*
X39347508Y-101195554D01*
X39050000Y-101135307D01*
X36050000Y-101135307D01*
X35772067Y-101187604D01*
X35516802Y-101351862D01*
X35345554Y-101602492D01*
X35285307Y-101900000D01*
X30825000Y-101900000D01*
X30825000Y-100246961D01*
X36683699Y-100246961D01*
X36877361Y-100521784D01*
X37771149Y-100611592D01*
X38222639Y-100521784D01*
X38416301Y-100246961D01*
X37550000Y-99380660D01*
X36683699Y-100246961D01*
X30825000Y-100246961D01*
X30825000Y-99256961D01*
X83549732Y-99256961D01*
X83785208Y-99826857D01*
X84220849Y-100263260D01*
X84790333Y-100499730D01*
X85406961Y-100500268D01*
X85976857Y-100264792D01*
X86413260Y-99829151D01*
X86649730Y-99259667D01*
X86650268Y-98643039D01*
X86482481Y-98236961D01*
X87329732Y-98236961D01*
X87565208Y-98806857D01*
X88000849Y-99243260D01*
X88570333Y-99479730D01*
X89186961Y-99480268D01*
X89756857Y-99244792D01*
X90193260Y-98809151D01*
X90363154Y-98400000D01*
X120635307Y-98400000D01*
X120635307Y-101400000D01*
X120687604Y-101677933D01*
X120851862Y-101933198D01*
X121102492Y-102104446D01*
X121400000Y-102164693D01*
X124400000Y-102164693D01*
X124677933Y-102112396D01*
X124933198Y-101948138D01*
X125104446Y-101697508D01*
X125164693Y-101400000D01*
X125164693Y-98400000D01*
X125112396Y-98122067D01*
X124948138Y-97866802D01*
X124697508Y-97695554D01*
X124400000Y-97635307D01*
X121400000Y-97635307D01*
X121122067Y-97687604D01*
X120866802Y-97851862D01*
X120695554Y-98102492D01*
X120635307Y-98400000D01*
X90363154Y-98400000D01*
X90429730Y-98239667D01*
X90430268Y-97623039D01*
X90194792Y-97053143D01*
X89759151Y-96616740D01*
X89189667Y-96380270D01*
X88573039Y-96379732D01*
X88003143Y-96615208D01*
X87566740Y-97050849D01*
X87330270Y-97620333D01*
X87329732Y-98236961D01*
X86482481Y-98236961D01*
X86414792Y-98073143D01*
X85979151Y-97636740D01*
X85409667Y-97400270D01*
X84793039Y-97399732D01*
X84223143Y-97635208D01*
X83786740Y-98070849D01*
X83550270Y-98640333D01*
X83549732Y-99256961D01*
X30825000Y-99256961D01*
X30825000Y-98541149D01*
X35258408Y-98541149D01*
X35348216Y-98992639D01*
X35623039Y-99186301D01*
X36489340Y-98320000D01*
X38610660Y-98320000D01*
X39476961Y-99186301D01*
X39751784Y-98992639D01*
X39841592Y-98098851D01*
X39751784Y-97647361D01*
X39476961Y-97453699D01*
X38610660Y-98320000D01*
X36489340Y-98320000D01*
X35623039Y-97453699D01*
X35348216Y-97647361D01*
X35258408Y-98541149D01*
X30825000Y-98541149D01*
X30825000Y-96393039D01*
X36683699Y-96393039D01*
X37550000Y-97259340D01*
X38416301Y-96393039D01*
X38222639Y-96118216D01*
X37328851Y-96028408D01*
X36877361Y-96118216D01*
X36683699Y-96393039D01*
X30825000Y-96393039D01*
X30825000Y-94065715D01*
X31100000Y-94065715D01*
X31100000Y-94134285D01*
X31233211Y-94803981D01*
X31612563Y-95371722D01*
X32180304Y-95751074D01*
X32850000Y-95884285D01*
X33519696Y-95751074D01*
X34087437Y-95371722D01*
X34466789Y-94803981D01*
X34541018Y-94430805D01*
X77534881Y-94430805D01*
X77619983Y-94678846D01*
X78230064Y-94788239D01*
X78780017Y-94678846D01*
X78865119Y-94430805D01*
X78200000Y-93765685D01*
X77534881Y-94430805D01*
X34541018Y-94430805D01*
X34600000Y-94134285D01*
X34600000Y-94065715D01*
X34466789Y-93396019D01*
X34355902Y-93230064D01*
X76611761Y-93230064D01*
X76721154Y-93780017D01*
X76969195Y-93865119D01*
X77634315Y-93200000D01*
X78765685Y-93200000D01*
X79430805Y-93865119D01*
X79678846Y-93780017D01*
X79727807Y-93506961D01*
X81649732Y-93506961D01*
X81885208Y-94076857D01*
X82320849Y-94513260D01*
X82890333Y-94749730D01*
X83506961Y-94750268D01*
X84076857Y-94514792D01*
X84431463Y-94160805D01*
X88214881Y-94160805D01*
X88299983Y-94408846D01*
X88910064Y-94518239D01*
X89460017Y-94408846D01*
X89545119Y-94160805D01*
X89273949Y-93889634D01*
X91070000Y-93889634D01*
X91070000Y-93950366D01*
X91187987Y-94543525D01*
X91523984Y-95046382D01*
X92026841Y-95382379D01*
X92620000Y-95500366D01*
X93213159Y-95382379D01*
X93387759Y-95265715D01*
X124550000Y-95265715D01*
X124550000Y-95334285D01*
X124683211Y-96003981D01*
X125062563Y-96571722D01*
X125630304Y-96951074D01*
X126300000Y-97084285D01*
X126969696Y-96951074D01*
X127537437Y-96571722D01*
X127916789Y-96003981D01*
X128050000Y-95334285D01*
X128050000Y-95265715D01*
X127916789Y-94596019D01*
X127537437Y-94028278D01*
X126969696Y-93648926D01*
X126300000Y-93515715D01*
X125630304Y-93648926D01*
X125062563Y-94028278D01*
X124683211Y-94596019D01*
X124550000Y-95265715D01*
X93387759Y-95265715D01*
X93716016Y-95046382D01*
X94052013Y-94543525D01*
X94170000Y-93950366D01*
X94170000Y-93889634D01*
X94052013Y-93296475D01*
X93716016Y-92793618D01*
X93213159Y-92457621D01*
X92620000Y-92339634D01*
X92026841Y-92457621D01*
X91523984Y-92793618D01*
X91187987Y-93296475D01*
X91070000Y-93889634D01*
X89273949Y-93889634D01*
X88880000Y-93495685D01*
X88214881Y-94160805D01*
X84431463Y-94160805D01*
X84513260Y-94079151D01*
X84749730Y-93509667D01*
X84750209Y-92960064D01*
X87291761Y-92960064D01*
X87401154Y-93510017D01*
X87649195Y-93595119D01*
X88314315Y-92930000D01*
X89445685Y-92930000D01*
X90110805Y-93595119D01*
X90358846Y-93510017D01*
X90468239Y-92899936D01*
X90358846Y-92349983D01*
X90110805Y-92264881D01*
X89445685Y-92930000D01*
X88314315Y-92930000D01*
X87649195Y-92264881D01*
X87401154Y-92349983D01*
X87291761Y-92960064D01*
X84750209Y-92960064D01*
X84750268Y-92893039D01*
X84514792Y-92323143D01*
X84079151Y-91886740D01*
X83627492Y-91699195D01*
X88214881Y-91699195D01*
X88880000Y-92364315D01*
X89545119Y-91699195D01*
X89519557Y-91624691D01*
X89900000Y-91700366D01*
X90493159Y-91582379D01*
X90996016Y-91246382D01*
X91294277Y-90800000D01*
X115251022Y-90800000D01*
X115403263Y-91565367D01*
X115836808Y-92214214D01*
X116485655Y-92647759D01*
X117251022Y-92800000D01*
X118348978Y-92800000D01*
X119114345Y-92647759D01*
X119763192Y-92214214D01*
X119925398Y-91971454D01*
X120957774Y-91971454D01*
X121354959Y-92625332D01*
X121884178Y-93086990D01*
X122175000Y-93007723D01*
X122175000Y-91675000D01*
X123425000Y-91675000D01*
X123425000Y-93007723D01*
X123715822Y-93086990D01*
X124245041Y-92625332D01*
X124642226Y-91971454D01*
X124535084Y-91675000D01*
X123425000Y-91675000D01*
X122175000Y-91675000D01*
X121064916Y-91675000D01*
X120957774Y-91971454D01*
X119925398Y-91971454D01*
X120196737Y-91565367D01*
X120348978Y-90800000D01*
X120196737Y-90034633D01*
X119925399Y-89628546D01*
X120957774Y-89628546D01*
X121064916Y-89925000D01*
X122175000Y-89925000D01*
X122175000Y-88592277D01*
X123425000Y-88592277D01*
X123425000Y-89925000D01*
X124535084Y-89925000D01*
X124642226Y-89628546D01*
X124245041Y-88974668D01*
X123715822Y-88513010D01*
X123425000Y-88592277D01*
X122175000Y-88592277D01*
X121884178Y-88513010D01*
X121354959Y-88974668D01*
X120957774Y-89628546D01*
X119925399Y-89628546D01*
X119763192Y-89385786D01*
X119114345Y-88952241D01*
X118348978Y-88800000D01*
X117251022Y-88800000D01*
X116485655Y-88952241D01*
X115836808Y-89385786D01*
X115403263Y-90034633D01*
X115251022Y-90800000D01*
X91294277Y-90800000D01*
X91332013Y-90743525D01*
X91450000Y-90150366D01*
X91450000Y-90089634D01*
X91332013Y-89496475D01*
X90996016Y-88993618D01*
X90493159Y-88657621D01*
X89900000Y-88539634D01*
X89306841Y-88657621D01*
X88803984Y-88993618D01*
X88467987Y-89496475D01*
X88350000Y-90089634D01*
X88350000Y-90150366D01*
X88467987Y-90743525D01*
X88803984Y-91246382D01*
X88982232Y-91365483D01*
X88849936Y-91341761D01*
X88299983Y-91451154D01*
X88214881Y-91699195D01*
X83627492Y-91699195D01*
X83509667Y-91650270D01*
X82893039Y-91649732D01*
X82323143Y-91885208D01*
X81886740Y-92320849D01*
X81650270Y-92890333D01*
X81649732Y-93506961D01*
X79727807Y-93506961D01*
X79788239Y-93169936D01*
X79678846Y-92619983D01*
X79430805Y-92534881D01*
X78765685Y-93200000D01*
X77634315Y-93200000D01*
X76969195Y-92534881D01*
X76721154Y-92619983D01*
X76611761Y-93230064D01*
X34355902Y-93230064D01*
X34087437Y-92828278D01*
X33519696Y-92448926D01*
X32850000Y-92315715D01*
X32180304Y-92448926D01*
X31612563Y-92828278D01*
X31233211Y-93396019D01*
X31100000Y-94065715D01*
X30825000Y-94065715D01*
X30825000Y-91969195D01*
X77534881Y-91969195D01*
X78200000Y-92634315D01*
X78865119Y-91969195D01*
X78780017Y-91721154D01*
X78169936Y-91611761D01*
X77619983Y-91721154D01*
X77534881Y-91969195D01*
X30825000Y-91969195D01*
X30825000Y-90771454D01*
X34507774Y-90771454D01*
X34904959Y-91425332D01*
X35434178Y-91886990D01*
X35725000Y-91807723D01*
X35725000Y-90475000D01*
X36975000Y-90475000D01*
X36975000Y-91807723D01*
X37265822Y-91886990D01*
X37795041Y-91425332D01*
X38192226Y-90771454D01*
X38085084Y-90475000D01*
X36975000Y-90475000D01*
X35725000Y-90475000D01*
X34614916Y-90475000D01*
X34507774Y-90771454D01*
X30825000Y-90771454D01*
X30825000Y-89600000D01*
X38801022Y-89600000D01*
X38953263Y-90365367D01*
X39386808Y-91014214D01*
X40035655Y-91447759D01*
X40801022Y-91600000D01*
X41898978Y-91600000D01*
X42664345Y-91447759D01*
X43313192Y-91014214D01*
X43746737Y-90365367D01*
X43811529Y-90039634D01*
X82850000Y-90039634D01*
X82850000Y-90100366D01*
X82967987Y-90693525D01*
X83303984Y-91196382D01*
X83806841Y-91532379D01*
X84400000Y-91650366D01*
X84993159Y-91532379D01*
X85496016Y-91196382D01*
X85832013Y-90693525D01*
X85950000Y-90100366D01*
X85950000Y-90039634D01*
X85832013Y-89446475D01*
X85496016Y-88943618D01*
X84993159Y-88607621D01*
X84400000Y-88489634D01*
X83806841Y-88607621D01*
X83303984Y-88943618D01*
X82967987Y-89446475D01*
X82850000Y-90039634D01*
X43811529Y-90039634D01*
X43898978Y-89600000D01*
X43746737Y-88834633D01*
X43313192Y-88185786D01*
X42664345Y-87752241D01*
X41898978Y-87600000D01*
X40801022Y-87600000D01*
X40035655Y-87752241D01*
X39386808Y-88185786D01*
X38953263Y-88834633D01*
X38801022Y-89600000D01*
X30825000Y-89600000D01*
X30825000Y-88428546D01*
X34507774Y-88428546D01*
X34614916Y-88725000D01*
X35725000Y-88725000D01*
X35725000Y-87392277D01*
X36975000Y-87392277D01*
X36975000Y-88725000D01*
X38085084Y-88725000D01*
X38192226Y-88428546D01*
X37795041Y-87774668D01*
X37265822Y-87313010D01*
X36975000Y-87392277D01*
X35725000Y-87392277D01*
X35434178Y-87313010D01*
X34904959Y-87774668D01*
X34507774Y-88428546D01*
X30825000Y-88428546D01*
X30825000Y-85065715D01*
X31100000Y-85065715D01*
X31100000Y-85134285D01*
X31233211Y-85803981D01*
X31612563Y-86371722D01*
X32180304Y-86751074D01*
X32850000Y-86884285D01*
X33519696Y-86751074D01*
X34087437Y-86371722D01*
X34466789Y-85803981D01*
X34467109Y-85802369D01*
X49034759Y-85802369D01*
X49327311Y-86240255D01*
X49837626Y-86605272D01*
X50075000Y-86501350D01*
X50075000Y-85565000D01*
X50925000Y-85565000D01*
X50925000Y-86501350D01*
X51162374Y-86605272D01*
X51637094Y-86265715D01*
X124550000Y-86265715D01*
X124550000Y-86334285D01*
X124683211Y-87003981D01*
X125062563Y-87571722D01*
X125630304Y-87951074D01*
X126300000Y-88084285D01*
X126969696Y-87951074D01*
X127537437Y-87571722D01*
X127916789Y-87003981D01*
X128050000Y-86334285D01*
X128050000Y-86265715D01*
X127916789Y-85596019D01*
X127537437Y-85028278D01*
X126969696Y-84648926D01*
X126300000Y-84515715D01*
X125630304Y-84648926D01*
X125062563Y-85028278D01*
X124683211Y-85596019D01*
X124550000Y-86265715D01*
X51637094Y-86265715D01*
X51672689Y-86240255D01*
X51965241Y-85802369D01*
X51853336Y-85565000D01*
X50925000Y-85565000D01*
X50075000Y-85565000D01*
X49146664Y-85565000D01*
X49034759Y-85802369D01*
X34467109Y-85802369D01*
X34600000Y-85134285D01*
X34600000Y-85065715D01*
X34466789Y-84396019D01*
X34087437Y-83828278D01*
X33519696Y-83448926D01*
X32850000Y-83315715D01*
X32180304Y-83448926D01*
X31612563Y-83828278D01*
X31233211Y-84396019D01*
X31100000Y-85065715D01*
X30825000Y-85065715D01*
X30825000Y-79150000D01*
X34985307Y-79150000D01*
X34985307Y-82150000D01*
X35037604Y-82427933D01*
X35201862Y-82683198D01*
X35452492Y-82854446D01*
X35750000Y-82914693D01*
X38750000Y-82914693D01*
X39027933Y-82862396D01*
X39283198Y-82698138D01*
X39454446Y-82447508D01*
X39514693Y-82150000D01*
X39514693Y-81750000D01*
X48885307Y-81750000D01*
X48885307Y-83450000D01*
X48937604Y-83727933D01*
X49101862Y-83983198D01*
X49249998Y-84084415D01*
X49249998Y-84155466D01*
X49034759Y-84477631D01*
X49146664Y-84715000D01*
X50075000Y-84715000D01*
X50075000Y-84290000D01*
X50925000Y-84290000D01*
X50925000Y-84715000D01*
X51853336Y-84715000D01*
X51965241Y-84477631D01*
X51750002Y-84155466D01*
X51750002Y-84083846D01*
X51883198Y-83998138D01*
X52054446Y-83747508D01*
X52114693Y-83450000D01*
X52114693Y-81800000D01*
X53499634Y-81800000D01*
X53617621Y-82393159D01*
X53953618Y-82896016D01*
X54456475Y-83232013D01*
X55049634Y-83350000D01*
X55110366Y-83350000D01*
X55703525Y-83232013D01*
X56206382Y-82896016D01*
X56542379Y-82393159D01*
X56599307Y-82106961D01*
X61149732Y-82106961D01*
X61385208Y-82676857D01*
X61820849Y-83113260D01*
X62390333Y-83349730D01*
X63006961Y-83350268D01*
X63576857Y-83114792D01*
X63691849Y-83000000D01*
X70999634Y-83000000D01*
X71117621Y-83593159D01*
X71453618Y-84096016D01*
X71956475Y-84432013D01*
X72549634Y-84550000D01*
X72610366Y-84550000D01*
X73203525Y-84432013D01*
X73706382Y-84096016D01*
X74042379Y-83593159D01*
X74099307Y-83306961D01*
X78649732Y-83306961D01*
X78885208Y-83876857D01*
X79320849Y-84313260D01*
X79890333Y-84549730D01*
X80506961Y-84550268D01*
X81076857Y-84314792D01*
X81077149Y-84314500D01*
X96992000Y-84314500D01*
X96992000Y-84700775D01*
X97107398Y-84979372D01*
X97320627Y-85192601D01*
X97599224Y-85308000D01*
X97985500Y-85308000D01*
X98175000Y-85118500D01*
X98175000Y-84125000D01*
X99025000Y-84125000D01*
X99025000Y-85118500D01*
X99214500Y-85308000D01*
X99600776Y-85308000D01*
X99879373Y-85192601D01*
X100092602Y-84979372D01*
X100208000Y-84700775D01*
X100208000Y-84314500D01*
X100018500Y-84125000D01*
X99025000Y-84125000D01*
X98175000Y-84125000D01*
X97181500Y-84125000D01*
X96992000Y-84314500D01*
X81077149Y-84314500D01*
X81513260Y-83879151D01*
X81749730Y-83309667D01*
X81750212Y-82756961D01*
X82849732Y-82756961D01*
X83085208Y-83326857D01*
X83520849Y-83763260D01*
X84090333Y-83999730D01*
X84706961Y-84000268D01*
X85276857Y-83764792D01*
X85713260Y-83329151D01*
X85930091Y-82806961D01*
X88349732Y-82806961D01*
X88585208Y-83376857D01*
X89020849Y-83813260D01*
X89590333Y-84049730D01*
X90206961Y-84050268D01*
X90776857Y-83814792D01*
X91213260Y-83379151D01*
X91449730Y-82809667D01*
X91450268Y-82193039D01*
X91214792Y-81623143D01*
X90779151Y-81186740D01*
X90714754Y-81160000D01*
X96968654Y-81160000D01*
X97090447Y-81772293D01*
X97349998Y-82160739D01*
X97349998Y-82195233D01*
X97320627Y-82207399D01*
X97107398Y-82420628D01*
X96992000Y-82699225D01*
X96992000Y-83085500D01*
X97181500Y-83275000D01*
X98175000Y-83275000D01*
X98175000Y-82850000D01*
X99025000Y-82850000D01*
X99025000Y-83275000D01*
X100018500Y-83275000D01*
X100208000Y-83085500D01*
X100208000Y-82699225D01*
X100152699Y-82565715D01*
X124650000Y-82565715D01*
X124650000Y-82634285D01*
X124783211Y-83303981D01*
X125162563Y-83871722D01*
X125730304Y-84251074D01*
X126400000Y-84384285D01*
X127069696Y-84251074D01*
X127637437Y-83871722D01*
X128016789Y-83303981D01*
X128150000Y-82634285D01*
X128150000Y-82565715D01*
X128016789Y-81896019D01*
X127637437Y-81328278D01*
X127069696Y-80948926D01*
X126400000Y-80815715D01*
X125730304Y-80948926D01*
X125162563Y-81328278D01*
X124783211Y-81896019D01*
X124650000Y-82565715D01*
X100152699Y-82565715D01*
X100092602Y-82420628D01*
X99879373Y-82207399D01*
X99850002Y-82195233D01*
X99850002Y-82160739D01*
X100109553Y-81772293D01*
X100231346Y-81160000D01*
X100109553Y-80547707D01*
X99762717Y-80028629D01*
X99243639Y-79681793D01*
X98631346Y-79560000D01*
X98568654Y-79560000D01*
X97956361Y-79681793D01*
X97437283Y-80028629D01*
X97090447Y-80547707D01*
X96968654Y-81160000D01*
X90714754Y-81160000D01*
X90209667Y-80950270D01*
X89593039Y-80949732D01*
X89023143Y-81185208D01*
X88586740Y-81620849D01*
X88350270Y-82190333D01*
X88349732Y-82806961D01*
X85930091Y-82806961D01*
X85949730Y-82759667D01*
X85950268Y-82143039D01*
X85714792Y-81573143D01*
X85279151Y-81136740D01*
X84709667Y-80900270D01*
X84093039Y-80899732D01*
X83523143Y-81135208D01*
X83086740Y-81570849D01*
X82850270Y-82140333D01*
X82849732Y-82756961D01*
X81750212Y-82756961D01*
X81750268Y-82693039D01*
X81514792Y-82123143D01*
X81079151Y-81686740D01*
X80509667Y-81450270D01*
X79893039Y-81449732D01*
X79323143Y-81685208D01*
X78886740Y-82120849D01*
X78650270Y-82690333D01*
X78649732Y-83306961D01*
X74099307Y-83306961D01*
X74160366Y-83000000D01*
X74042379Y-82406841D01*
X73706382Y-81903984D01*
X73203525Y-81567987D01*
X72610366Y-81450000D01*
X72549634Y-81450000D01*
X71956475Y-81567987D01*
X71453618Y-81903984D01*
X71117621Y-82406841D01*
X70999634Y-83000000D01*
X63691849Y-83000000D01*
X64013260Y-82679151D01*
X64249730Y-82109667D01*
X64250268Y-81493039D01*
X64014792Y-80923143D01*
X63579151Y-80486740D01*
X63009667Y-80250270D01*
X62393039Y-80249732D01*
X61823143Y-80485208D01*
X61386740Y-80920849D01*
X61150270Y-81490333D01*
X61149732Y-82106961D01*
X56599307Y-82106961D01*
X56660366Y-81800000D01*
X56542379Y-81206841D01*
X56206382Y-80703984D01*
X55703525Y-80367987D01*
X55110366Y-80250000D01*
X55049634Y-80250000D01*
X54456475Y-80367987D01*
X53953618Y-80703984D01*
X53617621Y-81206841D01*
X53499634Y-81800000D01*
X52114693Y-81800000D01*
X52114693Y-81750000D01*
X52062396Y-81472067D01*
X51898138Y-81216802D01*
X51647508Y-81045554D01*
X51350000Y-80985307D01*
X49650000Y-80985307D01*
X49372067Y-81037604D01*
X49116802Y-81201862D01*
X48945554Y-81452492D01*
X48885307Y-81750000D01*
X39514693Y-81750000D01*
X39514693Y-79150000D01*
X39462396Y-78872067D01*
X39298138Y-78616802D01*
X39047508Y-78445554D01*
X38750000Y-78385307D01*
X35750000Y-78385307D01*
X35472067Y-78437604D01*
X35216802Y-78601862D01*
X35045554Y-78852492D01*
X34985307Y-79150000D01*
X30825000Y-79150000D01*
X30825000Y-77496961D01*
X36383699Y-77496961D01*
X36577361Y-77771784D01*
X37471149Y-77861592D01*
X37922639Y-77771784D01*
X38116301Y-77496961D01*
X37250000Y-76630660D01*
X36383699Y-77496961D01*
X30825000Y-77496961D01*
X30825000Y-75791149D01*
X34958408Y-75791149D01*
X35048216Y-76242639D01*
X35323039Y-76436301D01*
X36189340Y-75570000D01*
X38310660Y-75570000D01*
X39176961Y-76436301D01*
X39451784Y-76242639D01*
X39541592Y-75348851D01*
X39451784Y-74897361D01*
X39176961Y-74703699D01*
X38310660Y-75570000D01*
X36189340Y-75570000D01*
X35323039Y-74703699D01*
X35048216Y-74897361D01*
X34958408Y-75791149D01*
X30825000Y-75791149D01*
X30825000Y-73643039D01*
X36383699Y-73643039D01*
X37250000Y-74509340D01*
X37469706Y-74289634D01*
X49850000Y-74289634D01*
X49850000Y-74350366D01*
X49967987Y-74943525D01*
X50303984Y-75446382D01*
X50806841Y-75782379D01*
X51400000Y-75900366D01*
X51993159Y-75782379D01*
X52496016Y-75446382D01*
X52832013Y-74943525D01*
X52898959Y-74606961D01*
X53149732Y-74606961D01*
X53385208Y-75176857D01*
X53820849Y-75613260D01*
X54390333Y-75849730D01*
X55006961Y-75850268D01*
X55576857Y-75614792D01*
X56013260Y-75179151D01*
X56249730Y-74609667D01*
X56250035Y-74260000D01*
X56268654Y-74260000D01*
X56390447Y-74872293D01*
X56675891Y-75299491D01*
X56516802Y-75401862D01*
X56345554Y-75652492D01*
X56285307Y-75950000D01*
X56285307Y-77650000D01*
X56337604Y-77927933D01*
X56501862Y-78183198D01*
X56752492Y-78354446D01*
X57050000Y-78414693D01*
X58750000Y-78414693D01*
X59027933Y-78362396D01*
X59283198Y-78198138D01*
X59454446Y-77947508D01*
X59514693Y-77650000D01*
X59514693Y-77489634D01*
X66650000Y-77489634D01*
X66650000Y-77550366D01*
X66767987Y-78143525D01*
X67103984Y-78646382D01*
X67606841Y-78982379D01*
X68200000Y-79100366D01*
X68793159Y-78982379D01*
X69296016Y-78646382D01*
X69632013Y-78143525D01*
X69750000Y-77550366D01*
X69750000Y-77489634D01*
X69730109Y-77389634D01*
X70350000Y-77389634D01*
X70350000Y-77450366D01*
X70467987Y-78043525D01*
X70803984Y-78546382D01*
X71306841Y-78882379D01*
X71900000Y-79000366D01*
X72493159Y-78882379D01*
X72996016Y-78546382D01*
X73294277Y-78100000D01*
X115351022Y-78100000D01*
X115503263Y-78865367D01*
X115936808Y-79514214D01*
X116585655Y-79947759D01*
X117351022Y-80100000D01*
X118448978Y-80100000D01*
X119214345Y-79947759D01*
X119863192Y-79514214D01*
X120025398Y-79271454D01*
X121057774Y-79271454D01*
X121454959Y-79925332D01*
X121984178Y-80386990D01*
X122275000Y-80307723D01*
X122275000Y-78975000D01*
X123525000Y-78975000D01*
X123525000Y-80307723D01*
X123815822Y-80386990D01*
X124345041Y-79925332D01*
X124742226Y-79271454D01*
X124635084Y-78975000D01*
X123525000Y-78975000D01*
X122275000Y-78975000D01*
X121164916Y-78975000D01*
X121057774Y-79271454D01*
X120025398Y-79271454D01*
X120296737Y-78865367D01*
X120448978Y-78100000D01*
X120296737Y-77334633D01*
X120025399Y-76928546D01*
X121057774Y-76928546D01*
X121164916Y-77225000D01*
X122275000Y-77225000D01*
X122275000Y-75892277D01*
X123525000Y-75892277D01*
X123525000Y-77225000D01*
X124635084Y-77225000D01*
X124742226Y-76928546D01*
X124345041Y-76274668D01*
X123815822Y-75813010D01*
X123525000Y-75892277D01*
X122275000Y-75892277D01*
X121984178Y-75813010D01*
X121454959Y-76274668D01*
X121057774Y-76928546D01*
X120025399Y-76928546D01*
X119863192Y-76685786D01*
X119214345Y-76252241D01*
X118448978Y-76100000D01*
X117351022Y-76100000D01*
X116585655Y-76252241D01*
X115936808Y-76685786D01*
X115503263Y-77334633D01*
X115351022Y-78100000D01*
X73294277Y-78100000D01*
X73332013Y-78043525D01*
X73450000Y-77450366D01*
X73450000Y-77389634D01*
X73332013Y-76796475D01*
X72996016Y-76293618D01*
X72493159Y-75957621D01*
X71900000Y-75839634D01*
X71306841Y-75957621D01*
X70803984Y-76293618D01*
X70467987Y-76796475D01*
X70350000Y-77389634D01*
X69730109Y-77389634D01*
X69632013Y-76896475D01*
X69296016Y-76393618D01*
X68793159Y-76057621D01*
X68200000Y-75939634D01*
X67606841Y-76057621D01*
X67103984Y-76393618D01*
X66767987Y-76896475D01*
X66650000Y-77489634D01*
X59514693Y-77489634D01*
X59514693Y-75950000D01*
X59462396Y-75672067D01*
X59298138Y-75416802D01*
X59124842Y-75298394D01*
X59409553Y-74872293D01*
X59531346Y-74260000D01*
X59409553Y-73647707D01*
X59062717Y-73128629D01*
X58543639Y-72781793D01*
X57931346Y-72660000D01*
X57868654Y-72660000D01*
X57256361Y-72781793D01*
X56737283Y-73128629D01*
X56390447Y-73647707D01*
X56268654Y-74260000D01*
X56250035Y-74260000D01*
X56250268Y-73993039D01*
X56014792Y-73423143D01*
X55579151Y-72986740D01*
X55009667Y-72750270D01*
X54393039Y-72749732D01*
X53823143Y-72985208D01*
X53386740Y-73420849D01*
X53150270Y-73990333D01*
X53149732Y-74606961D01*
X52898959Y-74606961D01*
X52950000Y-74350366D01*
X52950000Y-74289634D01*
X52832013Y-73696475D01*
X52496016Y-73193618D01*
X51993159Y-72857621D01*
X51400000Y-72739634D01*
X50806841Y-72857621D01*
X50303984Y-73193618D01*
X49967987Y-73696475D01*
X49850000Y-74289634D01*
X37469706Y-74289634D01*
X38116301Y-73643039D01*
X37922639Y-73368216D01*
X37028851Y-73278408D01*
X36577361Y-73368216D01*
X36383699Y-73643039D01*
X30825000Y-73643039D01*
X30825000Y-70815715D01*
X30950000Y-70815715D01*
X30950000Y-70884285D01*
X31083211Y-71553981D01*
X31462563Y-72121722D01*
X32030304Y-72501074D01*
X32700000Y-72634285D01*
X33369696Y-72501074D01*
X33937437Y-72121722D01*
X34316789Y-71553981D01*
X34450000Y-70884285D01*
X34450000Y-70815715D01*
X34347418Y-70300000D01*
X55799634Y-70300000D01*
X55917621Y-70893159D01*
X56253618Y-71396016D01*
X56756475Y-71732013D01*
X57349634Y-71850000D01*
X57410366Y-71850000D01*
X57586764Y-71814912D01*
X58425926Y-72654074D01*
X58726017Y-72854589D01*
X59080000Y-72925000D01*
X65700000Y-72925000D01*
X66053983Y-72854589D01*
X66354074Y-72654074D01*
X67655803Y-71352345D01*
X67890333Y-71449730D01*
X68506961Y-71450268D01*
X69076857Y-71214792D01*
X69513260Y-70779151D01*
X69749730Y-70209667D01*
X69749819Y-70106961D01*
X70349732Y-70106961D01*
X70585208Y-70676857D01*
X71020849Y-71113260D01*
X71590333Y-71349730D01*
X72206961Y-71350268D01*
X72473830Y-71240000D01*
X74368654Y-71240000D01*
X74490447Y-71852293D01*
X74837283Y-72371371D01*
X75356361Y-72718207D01*
X75968654Y-72840000D01*
X76031346Y-72840000D01*
X76643639Y-72718207D01*
X77162717Y-72371371D01*
X77509553Y-71852293D01*
X77631346Y-71240000D01*
X77509553Y-70627707D01*
X77224109Y-70200509D01*
X77383198Y-70098138D01*
X77554446Y-69847508D01*
X77580267Y-69720000D01*
X88168654Y-69720000D01*
X88290447Y-70332293D01*
X88637283Y-70851371D01*
X88844756Y-70990000D01*
X88637283Y-71128629D01*
X88290447Y-71647707D01*
X88168654Y-72260000D01*
X88290447Y-72872293D01*
X88575891Y-73299491D01*
X88416802Y-73401862D01*
X88245554Y-73652492D01*
X88185307Y-73950000D01*
X88185307Y-75650000D01*
X88237604Y-75927933D01*
X88401862Y-76183198D01*
X88652492Y-76354446D01*
X88950000Y-76414693D01*
X90650000Y-76414693D01*
X90927933Y-76362396D01*
X91183198Y-76198138D01*
X91354446Y-75947508D01*
X91414693Y-75650000D01*
X91414693Y-73950000D01*
X91362396Y-73672067D01*
X91293961Y-73565715D01*
X124650000Y-73565715D01*
X124650000Y-73634285D01*
X124783211Y-74303981D01*
X125162563Y-74871722D01*
X125730304Y-75251074D01*
X126400000Y-75384285D01*
X127069696Y-75251074D01*
X127637437Y-74871722D01*
X128016789Y-74303981D01*
X128150000Y-73634285D01*
X128150000Y-73565715D01*
X128016789Y-72896019D01*
X127637437Y-72328278D01*
X127069696Y-71948926D01*
X126400000Y-71815715D01*
X125730304Y-71948926D01*
X125162563Y-72328278D01*
X124783211Y-72896019D01*
X124650000Y-73565715D01*
X91293961Y-73565715D01*
X91198138Y-73416802D01*
X91024842Y-73298394D01*
X91309553Y-72872293D01*
X91431346Y-72260000D01*
X91309553Y-71647707D01*
X90962717Y-71128629D01*
X90755244Y-70990000D01*
X90962717Y-70851371D01*
X91309553Y-70332293D01*
X91431346Y-69720000D01*
X91309553Y-69107707D01*
X90962717Y-68588629D01*
X90443639Y-68241793D01*
X89831346Y-68120000D01*
X89768654Y-68120000D01*
X89156361Y-68241793D01*
X88637283Y-68588629D01*
X88290447Y-69107707D01*
X88168654Y-69720000D01*
X77580267Y-69720000D01*
X77614693Y-69550000D01*
X77614693Y-68100000D01*
X77699634Y-68100000D01*
X77817621Y-68693159D01*
X78153618Y-69196016D01*
X78656475Y-69532013D01*
X79249634Y-69650000D01*
X79310366Y-69650000D01*
X79903525Y-69532013D01*
X80406382Y-69196016D01*
X80742379Y-68693159D01*
X80799307Y-68406961D01*
X85349732Y-68406961D01*
X85585208Y-68976857D01*
X86020849Y-69413260D01*
X86590333Y-69649730D01*
X87206961Y-69650268D01*
X87776857Y-69414792D01*
X88213260Y-68979151D01*
X88449730Y-68409667D01*
X88450268Y-67793039D01*
X88214792Y-67223143D01*
X87779151Y-66786740D01*
X87209667Y-66550270D01*
X86593039Y-66549732D01*
X86023143Y-66785208D01*
X85586740Y-67220849D01*
X85350270Y-67790333D01*
X85349732Y-68406961D01*
X80799307Y-68406961D01*
X80860366Y-68100000D01*
X80742379Y-67506841D01*
X80406382Y-67003984D01*
X79903525Y-66667987D01*
X79310366Y-66550000D01*
X79249634Y-66550000D01*
X78656475Y-66667987D01*
X78153618Y-67003984D01*
X77817621Y-67506841D01*
X77699634Y-68100000D01*
X77614693Y-68100000D01*
X77614693Y-67850000D01*
X77562396Y-67572067D01*
X77398138Y-67316802D01*
X77147508Y-67145554D01*
X76850000Y-67085307D01*
X75150000Y-67085307D01*
X74872067Y-67137604D01*
X74616802Y-67301862D01*
X74445554Y-67552492D01*
X74385307Y-67850000D01*
X74385307Y-69550000D01*
X74437604Y-69827933D01*
X74601862Y-70083198D01*
X74775158Y-70201606D01*
X74490447Y-70627707D01*
X74368654Y-71240000D01*
X72473830Y-71240000D01*
X72776857Y-71114792D01*
X73213260Y-70679151D01*
X73449730Y-70109667D01*
X73450268Y-69493039D01*
X73214792Y-68923143D01*
X72779151Y-68486740D01*
X72209667Y-68250270D01*
X71593039Y-68249732D01*
X71023143Y-68485208D01*
X70586740Y-68920849D01*
X70350270Y-69490333D01*
X70349732Y-70106961D01*
X69749819Y-70106961D01*
X69750268Y-69593039D01*
X69514792Y-69023143D01*
X69079151Y-68586740D01*
X68509667Y-68350270D01*
X67893039Y-68349732D01*
X67323143Y-68585208D01*
X66886740Y-69020849D01*
X66650270Y-69590333D01*
X66650138Y-69741715D01*
X66505986Y-69885867D01*
X66314792Y-69423143D01*
X65879151Y-68986740D01*
X65309667Y-68750270D01*
X64693039Y-68749732D01*
X64123143Y-68985208D01*
X63686740Y-69420849D01*
X63450270Y-69990333D01*
X63449732Y-70606961D01*
X63643122Y-71075000D01*
X59463148Y-71075000D01*
X58915202Y-70527054D01*
X58960366Y-70300000D01*
X58842379Y-69706841D01*
X58506382Y-69203984D01*
X58003525Y-68867987D01*
X57410366Y-68750000D01*
X57349634Y-68750000D01*
X56756475Y-68867987D01*
X56253618Y-69203984D01*
X55917621Y-69706841D01*
X55799634Y-70300000D01*
X34347418Y-70300000D01*
X34316789Y-70146019D01*
X33937437Y-69578278D01*
X33369696Y-69198926D01*
X32700000Y-69065715D01*
X32030304Y-69198926D01*
X31462563Y-69578278D01*
X31083211Y-70146019D01*
X30950000Y-70815715D01*
X30825000Y-70815715D01*
X30825000Y-67521454D01*
X34357774Y-67521454D01*
X34754959Y-68175332D01*
X35284178Y-68636990D01*
X35575000Y-68557723D01*
X35575000Y-67225000D01*
X36825000Y-67225000D01*
X36825000Y-68557723D01*
X37115822Y-68636990D01*
X37645041Y-68175332D01*
X38042226Y-67521454D01*
X37935084Y-67225000D01*
X36825000Y-67225000D01*
X35575000Y-67225000D01*
X34464916Y-67225000D01*
X34357774Y-67521454D01*
X30825000Y-67521454D01*
X30825000Y-66350000D01*
X38651022Y-66350000D01*
X38803263Y-67115367D01*
X39236808Y-67764214D01*
X39885655Y-68197759D01*
X40651022Y-68350000D01*
X41748978Y-68350000D01*
X42514345Y-68197759D01*
X43163192Y-67764214D01*
X43596737Y-67115367D01*
X43748978Y-66350000D01*
X43596737Y-65584633D01*
X43163192Y-64935786D01*
X42645139Y-64589634D01*
X48750000Y-64589634D01*
X48750000Y-64650366D01*
X48867987Y-65243525D01*
X49203984Y-65746382D01*
X49706841Y-66082379D01*
X49957445Y-66132227D01*
X49850270Y-66390333D01*
X49849732Y-67006961D01*
X50085208Y-67576857D01*
X50520849Y-68013260D01*
X51090333Y-68249730D01*
X51706961Y-68250268D01*
X52276857Y-68014792D01*
X52713260Y-67579151D01*
X52949730Y-67009667D01*
X52950044Y-66649634D01*
X53150000Y-66649634D01*
X53150000Y-66710366D01*
X53267987Y-67303525D01*
X53603984Y-67806382D01*
X54106841Y-68142379D01*
X54700000Y-68260366D01*
X55293159Y-68142379D01*
X55796016Y-67806382D01*
X56132013Y-67303525D01*
X56250000Y-66710366D01*
X56250000Y-66649634D01*
X56142056Y-66106961D01*
X63049732Y-66106961D01*
X63285208Y-66676857D01*
X63720849Y-67113260D01*
X64290333Y-67349730D01*
X64906961Y-67350268D01*
X65476857Y-67114792D01*
X65913260Y-66679151D01*
X66149730Y-66109667D01*
X66150000Y-65800000D01*
X70639634Y-65800000D01*
X70757621Y-66393159D01*
X71093618Y-66896016D01*
X71596475Y-67232013D01*
X72189634Y-67350000D01*
X72250366Y-67350000D01*
X72843525Y-67232013D01*
X73346382Y-66896016D01*
X73682379Y-66393159D01*
X73800366Y-65800000D01*
X73682379Y-65206841D01*
X73346382Y-64703984D01*
X72843525Y-64367987D01*
X72250366Y-64250000D01*
X72189634Y-64250000D01*
X71596475Y-64367987D01*
X71093618Y-64703984D01*
X70757621Y-65206841D01*
X70639634Y-65800000D01*
X66150000Y-65800000D01*
X66150268Y-65493039D01*
X65914792Y-64923143D01*
X65479151Y-64486740D01*
X64909667Y-64250270D01*
X64293039Y-64249732D01*
X63723143Y-64485208D01*
X63286740Y-64920849D01*
X63050270Y-65490333D01*
X63049732Y-66106961D01*
X56142056Y-66106961D01*
X56132013Y-66056475D01*
X55796016Y-65553618D01*
X55293159Y-65217621D01*
X54700000Y-65099634D01*
X54106841Y-65217621D01*
X53603984Y-65553618D01*
X53267987Y-66056475D01*
X53150000Y-66649634D01*
X52950044Y-66649634D01*
X52950268Y-66393039D01*
X52714792Y-65823143D01*
X52279151Y-65386740D01*
X51747443Y-65165956D01*
X51850000Y-64650366D01*
X51850000Y-64589634D01*
X51732013Y-63996475D01*
X51396016Y-63493618D01*
X50893159Y-63157621D01*
X50300000Y-63039634D01*
X49706841Y-63157621D01*
X49203984Y-63493618D01*
X48867987Y-63996475D01*
X48750000Y-64589634D01*
X42645139Y-64589634D01*
X42514345Y-64502241D01*
X41748978Y-64350000D01*
X40651022Y-64350000D01*
X39885655Y-64502241D01*
X39236808Y-64935786D01*
X38803263Y-65584633D01*
X38651022Y-66350000D01*
X30825000Y-66350000D01*
X30825000Y-65178546D01*
X34357774Y-65178546D01*
X34464916Y-65475000D01*
X35575000Y-65475000D01*
X35575000Y-64142277D01*
X36825000Y-64142277D01*
X36825000Y-65475000D01*
X37935084Y-65475000D01*
X38042226Y-65178546D01*
X37645041Y-64524668D01*
X37115822Y-64063010D01*
X36825000Y-64142277D01*
X35575000Y-64142277D01*
X35284178Y-64063010D01*
X34754959Y-64524668D01*
X34357774Y-65178546D01*
X30825000Y-65178546D01*
X30825000Y-58665715D01*
X30900000Y-58665715D01*
X30900000Y-58734285D01*
X31033211Y-59403981D01*
X31412563Y-59971722D01*
X31891451Y-60291704D01*
X31462563Y-60578278D01*
X31083211Y-61146019D01*
X30950000Y-61815715D01*
X30950000Y-61884285D01*
X31083211Y-62553981D01*
X31462563Y-63121722D01*
X32030304Y-63501074D01*
X32700000Y-63634285D01*
X33369696Y-63501074D01*
X33937437Y-63121722D01*
X34316789Y-62553981D01*
X34450000Y-61884285D01*
X34450000Y-61815715D01*
X34316789Y-61146019D01*
X33937437Y-60578278D01*
X33458549Y-60258296D01*
X33887437Y-59971722D01*
X34266789Y-59403981D01*
X34299406Y-59240000D01*
X52068654Y-59240000D01*
X52190447Y-59852293D01*
X52537283Y-60371371D01*
X53056361Y-60718207D01*
X53668654Y-60840000D01*
X53731346Y-60840000D01*
X54343639Y-60718207D01*
X54862717Y-60371371D01*
X55209553Y-59852293D01*
X55331346Y-59240000D01*
X55295542Y-59060000D01*
X71268654Y-59060000D01*
X71390447Y-59672293D01*
X71675891Y-60099491D01*
X71516802Y-60201862D01*
X71345554Y-60452492D01*
X71285307Y-60750000D01*
X71285307Y-62450000D01*
X71337604Y-62727933D01*
X71501862Y-62983198D01*
X71752492Y-63154446D01*
X72050000Y-63214693D01*
X73750000Y-63214693D01*
X74027933Y-63162396D01*
X74283198Y-62998138D01*
X74454446Y-62747508D01*
X74514693Y-62450000D01*
X74514693Y-61189634D01*
X84150000Y-61189634D01*
X84150000Y-61250366D01*
X84267987Y-61843525D01*
X84603984Y-62346382D01*
X85106841Y-62682379D01*
X85700000Y-62800366D01*
X86293159Y-62682379D01*
X86796016Y-62346382D01*
X87132013Y-61843525D01*
X87250000Y-61250366D01*
X87250000Y-61189634D01*
X87132013Y-60596475D01*
X86796016Y-60093618D01*
X86293159Y-59757621D01*
X85700000Y-59639634D01*
X85106841Y-59757621D01*
X84603984Y-60093618D01*
X84267987Y-60596475D01*
X84150000Y-61189634D01*
X74514693Y-61189634D01*
X74514693Y-60750000D01*
X74462396Y-60472067D01*
X74298138Y-60216802D01*
X74124842Y-60098394D01*
X74409553Y-59672293D01*
X74531346Y-59060000D01*
X74409553Y-58447707D01*
X74190587Y-58120000D01*
X88068654Y-58120000D01*
X88190447Y-58732293D01*
X88537283Y-59251371D01*
X88744756Y-59390000D01*
X88537283Y-59528629D01*
X88190447Y-60047707D01*
X88068654Y-60660000D01*
X88190447Y-61272293D01*
X88475891Y-61699491D01*
X88316802Y-61801862D01*
X88145554Y-62052492D01*
X88085307Y-62350000D01*
X88085307Y-64050000D01*
X88137604Y-64327933D01*
X88301862Y-64583198D01*
X88552492Y-64754446D01*
X88850000Y-64814693D01*
X90550000Y-64814693D01*
X90827933Y-64762396D01*
X91041453Y-64625000D01*
X92010104Y-64625000D01*
X91806000Y-64709334D01*
X91510372Y-65004446D01*
X91350182Y-65390226D01*
X91349818Y-65807942D01*
X91509334Y-66194000D01*
X91699309Y-66384308D01*
X91745926Y-66454074D01*
X92145924Y-66854071D01*
X92145926Y-66854074D01*
X92446018Y-67054589D01*
X92800000Y-67125000D01*
X94789631Y-67125000D01*
X95090226Y-67249818D01*
X95507942Y-67250182D01*
X95894000Y-67090666D01*
X96189628Y-66795554D01*
X96349818Y-66409774D01*
X96350182Y-65992058D01*
X96190666Y-65606000D01*
X95895554Y-65310372D01*
X95509774Y-65150182D01*
X95133175Y-65149854D01*
X95149818Y-65109774D01*
X95150182Y-64692058D01*
X94990666Y-64306000D01*
X94695554Y-64010372D01*
X94392809Y-63884661D01*
X93554074Y-63045926D01*
X93253983Y-62845411D01*
X92900000Y-62775000D01*
X91314693Y-62775000D01*
X91314693Y-62350000D01*
X91262396Y-62072067D01*
X91098138Y-61816802D01*
X90924842Y-61698394D01*
X91209553Y-61272293D01*
X91331346Y-60660000D01*
X91209553Y-60047707D01*
X90862717Y-59528629D01*
X90655244Y-59390000D01*
X90862717Y-59251371D01*
X91209553Y-58732293D01*
X91331346Y-58120000D01*
X91209553Y-57507707D01*
X90862717Y-56988629D01*
X90343639Y-56641793D01*
X90173460Y-56607942D01*
X110899818Y-56607942D01*
X111059334Y-56994000D01*
X111354446Y-57289628D01*
X111740226Y-57449818D01*
X112157942Y-57450182D01*
X112544000Y-57290666D01*
X112839628Y-56995554D01*
X112965339Y-56692809D01*
X113383148Y-56275000D01*
X113489631Y-56275000D01*
X113790226Y-56399818D01*
X114207942Y-56400182D01*
X114594000Y-56240666D01*
X114889628Y-55945554D01*
X115049818Y-55559774D01*
X115050182Y-55142058D01*
X114890666Y-54756000D01*
X114595554Y-54460372D01*
X114209774Y-54300182D01*
X113792058Y-54299818D01*
X113489095Y-54425000D01*
X113000000Y-54425000D01*
X112646017Y-54495411D01*
X112345926Y-54695926D01*
X111656810Y-55385042D01*
X111356000Y-55509334D01*
X111060372Y-55804446D01*
X110900182Y-56190226D01*
X110899818Y-56607942D01*
X90173460Y-56607942D01*
X89731346Y-56520000D01*
X89668654Y-56520000D01*
X89056361Y-56641793D01*
X88537283Y-56988629D01*
X88190447Y-57507707D01*
X88068654Y-58120000D01*
X74190587Y-58120000D01*
X74062717Y-57928629D01*
X73543639Y-57581793D01*
X72931346Y-57460000D01*
X72868654Y-57460000D01*
X72256361Y-57581793D01*
X71737283Y-57928629D01*
X71390447Y-58447707D01*
X71268654Y-59060000D01*
X55295542Y-59060000D01*
X55209553Y-58627707D01*
X54924109Y-58200509D01*
X55083198Y-58098138D01*
X55254446Y-57847508D01*
X55314693Y-57550000D01*
X55314693Y-55850000D01*
X55306595Y-55806961D01*
X65249732Y-55806961D01*
X65485208Y-56376857D01*
X65920849Y-56813260D01*
X66490333Y-57049730D01*
X67106961Y-57050268D01*
X67676857Y-56814792D01*
X68113260Y-56379151D01*
X68349730Y-55809667D01*
X68350009Y-55489634D01*
X69050000Y-55489634D01*
X69050000Y-55550366D01*
X69167987Y-56143525D01*
X69503984Y-56646382D01*
X70006841Y-56982379D01*
X70600000Y-57100366D01*
X71193159Y-56982379D01*
X71696016Y-56646382D01*
X72032013Y-56143525D01*
X72150000Y-55550366D01*
X72150000Y-55489634D01*
X72032013Y-54896475D01*
X71696016Y-54393618D01*
X71193159Y-54057621D01*
X70600000Y-53939634D01*
X70006841Y-54057621D01*
X69503984Y-54393618D01*
X69167987Y-54896475D01*
X69050000Y-55489634D01*
X68350009Y-55489634D01*
X68350268Y-55193039D01*
X68114792Y-54623143D01*
X67679151Y-54186740D01*
X67109667Y-53950270D01*
X66493039Y-53949732D01*
X65923143Y-54185208D01*
X65486740Y-54620849D01*
X65250270Y-55190333D01*
X65249732Y-55806961D01*
X55306595Y-55806961D01*
X55262396Y-55572067D01*
X55098138Y-55316802D01*
X54847508Y-55145554D01*
X54550000Y-55085307D01*
X52850000Y-55085307D01*
X52572067Y-55137604D01*
X52316802Y-55301862D01*
X52145554Y-55552492D01*
X52085307Y-55850000D01*
X52085307Y-57550000D01*
X52137604Y-57827933D01*
X52301862Y-58083198D01*
X52475158Y-58201606D01*
X52190447Y-58627707D01*
X52068654Y-59240000D01*
X34299406Y-59240000D01*
X34400000Y-58734285D01*
X34400000Y-58665715D01*
X34266789Y-57996019D01*
X33887437Y-57428278D01*
X33705874Y-57306961D01*
X48749732Y-57306961D01*
X48985208Y-57876857D01*
X49420849Y-58313260D01*
X49990333Y-58549730D01*
X50606961Y-58550268D01*
X51176857Y-58314792D01*
X51613260Y-57879151D01*
X51849730Y-57309667D01*
X51850268Y-56693039D01*
X51614792Y-56123143D01*
X51179151Y-55686740D01*
X50609667Y-55450270D01*
X49993039Y-55449732D01*
X49423143Y-55685208D01*
X48986740Y-56120849D01*
X48750270Y-56690333D01*
X48749732Y-57306961D01*
X33705874Y-57306961D01*
X33319696Y-57048926D01*
X32650000Y-56915715D01*
X31980304Y-57048926D01*
X31412563Y-57428278D01*
X31033211Y-57996019D01*
X30900000Y-58665715D01*
X30825000Y-58665715D01*
X30825000Y-55371454D01*
X34307774Y-55371454D01*
X34704959Y-56025332D01*
X35234178Y-56486990D01*
X35525000Y-56407723D01*
X35525000Y-55075000D01*
X36775000Y-55075000D01*
X36775000Y-56407723D01*
X37065822Y-56486990D01*
X37595041Y-56025332D01*
X37992226Y-55371454D01*
X37885084Y-55075000D01*
X36775000Y-55075000D01*
X35525000Y-55075000D01*
X34414916Y-55075000D01*
X34307774Y-55371454D01*
X30825000Y-55371454D01*
X30825000Y-54200000D01*
X38601022Y-54200000D01*
X38753263Y-54965367D01*
X39186808Y-55614214D01*
X39835655Y-56047759D01*
X40601022Y-56200000D01*
X41698978Y-56200000D01*
X42464345Y-56047759D01*
X43113192Y-55614214D01*
X43546737Y-54965367D01*
X43698978Y-54200000D01*
X43546737Y-53434633D01*
X43113192Y-52785786D01*
X42669969Y-52489634D01*
X50150000Y-52489634D01*
X50150000Y-52550366D01*
X50267987Y-53143525D01*
X50603984Y-53646382D01*
X51106841Y-53982379D01*
X51700000Y-54100366D01*
X52293159Y-53982379D01*
X52406030Y-53906961D01*
X84149732Y-53906961D01*
X84385208Y-54476857D01*
X84820849Y-54913260D01*
X85390333Y-55149730D01*
X86006961Y-55150268D01*
X86576857Y-54914792D01*
X87013260Y-54479151D01*
X87249730Y-53909667D01*
X87250268Y-53293039D01*
X87014792Y-52723143D01*
X86579151Y-52286740D01*
X86009667Y-52050270D01*
X85393039Y-52049732D01*
X84823143Y-52285208D01*
X84386740Y-52720849D01*
X84150270Y-53290333D01*
X84149732Y-53906961D01*
X52406030Y-53906961D01*
X52796016Y-53646382D01*
X53132013Y-53143525D01*
X53250000Y-52550366D01*
X53250000Y-52489634D01*
X53132013Y-51896475D01*
X52796016Y-51393618D01*
X52293159Y-51057621D01*
X51700000Y-50939634D01*
X51106841Y-51057621D01*
X50603984Y-51393618D01*
X50267987Y-51896475D01*
X50150000Y-52489634D01*
X42669969Y-52489634D01*
X42464345Y-52352241D01*
X41698978Y-52200000D01*
X40601022Y-52200000D01*
X39835655Y-52352241D01*
X39186808Y-52785786D01*
X38753263Y-53434633D01*
X38601022Y-54200000D01*
X30825000Y-54200000D01*
X30825000Y-53028546D01*
X34307774Y-53028546D01*
X34414916Y-53325000D01*
X35525000Y-53325000D01*
X35525000Y-51992277D01*
X36775000Y-51992277D01*
X36775000Y-53325000D01*
X37885084Y-53325000D01*
X37992226Y-53028546D01*
X37595041Y-52374668D01*
X37065822Y-51913010D01*
X36775000Y-51992277D01*
X35525000Y-51992277D01*
X35234178Y-51913010D01*
X34704959Y-52374668D01*
X34307774Y-53028546D01*
X30825000Y-53028546D01*
X30825000Y-49665715D01*
X30900000Y-49665715D01*
X30900000Y-49734285D01*
X31033211Y-50403981D01*
X31412563Y-50971722D01*
X31980304Y-51351074D01*
X32650000Y-51484285D01*
X33319696Y-51351074D01*
X33887437Y-50971722D01*
X34266789Y-50403981D01*
X34400000Y-49734285D01*
X34400000Y-49665715D01*
X34266789Y-48996019D01*
X33887437Y-48428278D01*
X33319696Y-48048926D01*
X32650000Y-47915715D01*
X31980304Y-48048926D01*
X31412563Y-48428278D01*
X31033211Y-48996019D01*
X30900000Y-49665715D01*
X30825000Y-49665715D01*
X30825000Y-47250000D01*
X46285307Y-47250000D01*
X46285307Y-48950000D01*
X46337604Y-49227933D01*
X46501862Y-49483198D01*
X46752492Y-49654446D01*
X47050000Y-49714693D01*
X48750000Y-49714693D01*
X49027933Y-49662396D01*
X49283198Y-49498138D01*
X49454446Y-49247508D01*
X49514693Y-48950000D01*
X49514693Y-47849634D01*
X65250000Y-47849634D01*
X65250000Y-47910366D01*
X65367987Y-48503525D01*
X65703984Y-49006382D01*
X66206841Y-49342379D01*
X66800000Y-49460366D01*
X67393159Y-49342379D01*
X67896016Y-49006382D01*
X68232013Y-48503525D01*
X68291003Y-48206961D01*
X69049732Y-48206961D01*
X69285208Y-48776857D01*
X69720849Y-49213260D01*
X70290333Y-49449730D01*
X70906961Y-49450268D01*
X71476857Y-49214792D01*
X71913260Y-48779151D01*
X72149730Y-48209667D01*
X72150268Y-47593039D01*
X71914792Y-47023143D01*
X71479151Y-46586740D01*
X70909667Y-46350270D01*
X70293039Y-46349732D01*
X69723143Y-46585208D01*
X69286740Y-47020849D01*
X69050270Y-47590333D01*
X69049732Y-48206961D01*
X68291003Y-48206961D01*
X68350000Y-47910366D01*
X68350000Y-47849634D01*
X68232013Y-47256475D01*
X67896016Y-46753618D01*
X67393159Y-46417621D01*
X66800000Y-46299634D01*
X66206841Y-46417621D01*
X65703984Y-46753618D01*
X65367987Y-47256475D01*
X65250000Y-47849634D01*
X49514693Y-47849634D01*
X49514693Y-47250000D01*
X49462396Y-46972067D01*
X49298138Y-46716802D01*
X49150002Y-46615585D01*
X49150002Y-46544534D01*
X49365241Y-46222369D01*
X49253336Y-45985000D01*
X48325000Y-45985000D01*
X48325000Y-46410000D01*
X47475000Y-46410000D01*
X47475000Y-45985000D01*
X46546664Y-45985000D01*
X46434759Y-46222369D01*
X46649998Y-46544534D01*
X46649998Y-46616154D01*
X46516802Y-46701862D01*
X46345554Y-46952492D01*
X46285307Y-47250000D01*
X30825000Y-47250000D01*
X30825000Y-43200000D01*
X34585307Y-43200000D01*
X34585307Y-46200000D01*
X34637604Y-46477933D01*
X34801862Y-46733198D01*
X35052492Y-46904446D01*
X35350000Y-46964693D01*
X38350000Y-46964693D01*
X38627933Y-46912396D01*
X38883198Y-46748138D01*
X39054446Y-46497508D01*
X39114693Y-46200000D01*
X39114693Y-45206961D01*
X50149732Y-45206961D01*
X50385208Y-45776857D01*
X50820849Y-46213260D01*
X51390333Y-46449730D01*
X52006961Y-46450268D01*
X52576857Y-46214792D01*
X53013260Y-45779151D01*
X53249730Y-45209667D01*
X53250268Y-44593039D01*
X53014792Y-44023143D01*
X52579151Y-43586740D01*
X52009667Y-43350270D01*
X51393039Y-43349732D01*
X50823143Y-43585208D01*
X50386740Y-44020849D01*
X50150270Y-44590333D01*
X50149732Y-45206961D01*
X39114693Y-45206961D01*
X39114693Y-44897631D01*
X46434759Y-44897631D01*
X46546664Y-45135000D01*
X47475000Y-45135000D01*
X47475000Y-44198650D01*
X48325000Y-44198650D01*
X48325000Y-45135000D01*
X49253336Y-45135000D01*
X49365241Y-44897631D01*
X49072689Y-44459745D01*
X48562374Y-44094728D01*
X48325000Y-44198650D01*
X47475000Y-44198650D01*
X47237626Y-44094728D01*
X46727311Y-44459745D01*
X46434759Y-44897631D01*
X39114693Y-44897631D01*
X39114693Y-43200000D01*
X39062396Y-42922067D01*
X38898138Y-42666802D01*
X38647508Y-42495554D01*
X38350000Y-42435307D01*
X35350000Y-42435307D01*
X35072067Y-42487604D01*
X34816802Y-42651862D01*
X34645554Y-42902492D01*
X34585307Y-43200000D01*
X30825000Y-43200000D01*
X30825000Y-41546961D01*
X35983699Y-41546961D01*
X36177361Y-41821784D01*
X37071149Y-41911592D01*
X37522639Y-41821784D01*
X37716301Y-41546961D01*
X36850000Y-40680660D01*
X35983699Y-41546961D01*
X30825000Y-41546961D01*
X30825000Y-39841149D01*
X34558408Y-39841149D01*
X34648216Y-40292639D01*
X34923039Y-40486301D01*
X35789340Y-39620000D01*
X37910660Y-39620000D01*
X38776961Y-40486301D01*
X39051784Y-40292639D01*
X39141592Y-39398851D01*
X39051784Y-38947361D01*
X38776961Y-38753699D01*
X37910660Y-39620000D01*
X35789340Y-39620000D01*
X34923039Y-38753699D01*
X34648216Y-38947361D01*
X34558408Y-39841149D01*
X30825000Y-39841149D01*
X30825000Y-37693039D01*
X35983699Y-37693039D01*
X36850000Y-38559340D01*
X37716301Y-37693039D01*
X37522639Y-37418216D01*
X36628851Y-37328408D01*
X36177361Y-37418216D01*
X35983699Y-37693039D01*
X30825000Y-37693039D01*
X30825000Y-34758981D01*
X31422066Y-35357090D01*
X32444198Y-35781516D01*
X33550946Y-35782482D01*
X34573818Y-35359840D01*
X35184723Y-34750000D01*
X42235307Y-34750000D01*
X42235307Y-36750000D01*
X42287604Y-37027933D01*
X42451862Y-37283198D01*
X42702492Y-37454446D01*
X43000000Y-37514693D01*
X45000000Y-37514693D01*
X45277933Y-37462396D01*
X45533198Y-37298138D01*
X45613609Y-37180452D01*
X48276655Y-37180452D01*
X48392759Y-37436448D01*
X49084358Y-37540455D01*
X49607241Y-37436448D01*
X49723345Y-37180452D01*
X49000000Y-36457107D01*
X48276655Y-37180452D01*
X45613609Y-37180452D01*
X45704446Y-37047508D01*
X45764693Y-36750000D01*
X45764693Y-35834358D01*
X47209545Y-35834358D01*
X47313552Y-36357241D01*
X47569548Y-36473345D01*
X48292893Y-35750000D01*
X49707107Y-35750000D01*
X50430452Y-36473345D01*
X50686448Y-36357241D01*
X50790455Y-35665642D01*
X50686448Y-35142759D01*
X50430452Y-35026655D01*
X49707107Y-35750000D01*
X48292893Y-35750000D01*
X47569548Y-35026655D01*
X47313552Y-35142759D01*
X47209545Y-35834358D01*
X45764693Y-35834358D01*
X45764693Y-34750000D01*
X45712396Y-34472067D01*
X45614254Y-34319548D01*
X48276655Y-34319548D01*
X49000000Y-35042893D01*
X49392893Y-34650000D01*
X52985307Y-34650000D01*
X52985307Y-36650000D01*
X53037604Y-36927933D01*
X53201862Y-37183198D01*
X53452492Y-37354446D01*
X53750000Y-37414693D01*
X55750000Y-37414693D01*
X56027933Y-37362396D01*
X56283198Y-37198138D01*
X56363609Y-37080452D01*
X59026655Y-37080452D01*
X59142759Y-37336448D01*
X59834358Y-37440455D01*
X60357241Y-37336448D01*
X60473345Y-37080452D01*
X59892893Y-36500000D01*
X62535307Y-36500000D01*
X62535307Y-40000000D01*
X62587604Y-40277933D01*
X62751862Y-40533198D01*
X63002492Y-40704446D01*
X63300000Y-40764693D01*
X66800000Y-40764693D01*
X67077933Y-40712396D01*
X67235307Y-40611129D01*
X67235307Y-43000000D01*
X67287604Y-43277933D01*
X67451862Y-43533198D01*
X67702492Y-43704446D01*
X68000000Y-43764693D01*
X71500000Y-43764693D01*
X71777933Y-43712396D01*
X72033198Y-43548138D01*
X72204446Y-43297508D01*
X72222583Y-43207942D01*
X94449818Y-43207942D01*
X94609334Y-43594000D01*
X94904446Y-43889628D01*
X95290226Y-44049818D01*
X95707942Y-44050182D01*
X96094000Y-43890666D01*
X96389628Y-43595554D01*
X96440022Y-43474192D01*
X97834214Y-42080000D01*
X97999504Y-42080000D01*
X98087283Y-42211371D01*
X98606361Y-42558207D01*
X99218654Y-42680000D01*
X99281346Y-42680000D01*
X99893639Y-42558207D01*
X100412717Y-42211371D01*
X100759553Y-41692293D01*
X100881346Y-41080000D01*
X100759553Y-40467707D01*
X100412717Y-39948629D01*
X100205244Y-39810000D01*
X100412717Y-39671371D01*
X100759553Y-39152293D01*
X100881346Y-38540000D01*
X100759553Y-37927707D01*
X100474109Y-37500509D01*
X100633198Y-37398138D01*
X100804446Y-37147508D01*
X100864693Y-36850000D01*
X100864693Y-35707069D01*
X106025161Y-35707069D01*
X106841235Y-36523143D01*
X106720630Y-36643537D01*
X106490262Y-37198325D01*
X106489738Y-37799040D01*
X106719138Y-38354229D01*
X107143537Y-38779370D01*
X107698325Y-39009738D01*
X108299040Y-39010262D01*
X108854229Y-38780862D01*
X109270353Y-38365464D01*
X109683537Y-38779370D01*
X110238325Y-39009738D01*
X110839040Y-39010262D01*
X111394229Y-38780862D01*
X111819370Y-38356463D01*
X112049738Y-37801675D01*
X112050262Y-37200960D01*
X111820862Y-36645771D01*
X111675464Y-36500118D01*
X111819370Y-36356463D01*
X112049738Y-35801675D01*
X112050262Y-35200960D01*
X111820862Y-34645771D01*
X111753503Y-34578294D01*
X114446301Y-34578294D01*
X114616679Y-34847597D01*
X115449992Y-34941748D01*
X115923321Y-34847597D01*
X116093699Y-34578294D01*
X115270000Y-33754594D01*
X114446301Y-34578294D01*
X111753503Y-34578294D01*
X111396463Y-34220630D01*
X110841675Y-33990262D01*
X110240960Y-33989738D01*
X109685771Y-34219138D01*
X109260630Y-34643537D01*
X109166022Y-34871379D01*
X108537401Y-35500000D01*
X108806102Y-35768701D01*
X108501546Y-36073256D01*
X108301675Y-35990262D01*
X107700960Y-35989738D01*
X107498564Y-36073366D01*
X107193899Y-35768701D01*
X107462599Y-35500000D01*
X106809233Y-34846634D01*
X106562821Y-34925534D01*
X106507089Y-35225141D01*
X106025161Y-35707069D01*
X100864693Y-35707069D01*
X100864693Y-35150000D01*
X100812396Y-34872067D01*
X100648138Y-34616802D01*
X100591780Y-34578294D01*
X102446301Y-34578294D01*
X102616679Y-34847597D01*
X103449992Y-34941748D01*
X103923321Y-34847597D01*
X104093699Y-34578294D01*
X103824639Y-34309233D01*
X107346634Y-34309233D01*
X108000000Y-34962599D01*
X108653366Y-34309233D01*
X108574466Y-34062821D01*
X107980753Y-33952381D01*
X107425534Y-34062821D01*
X107346634Y-34309233D01*
X103824639Y-34309233D01*
X103270000Y-33754594D01*
X102446301Y-34578294D01*
X100591780Y-34578294D01*
X100397508Y-34445554D01*
X100100000Y-34385307D01*
X98400000Y-34385307D01*
X98122067Y-34437604D01*
X97866802Y-34601862D01*
X97695554Y-34852492D01*
X97635307Y-35150000D01*
X97635307Y-36850000D01*
X97687604Y-37127933D01*
X97851862Y-37383198D01*
X98025158Y-37501606D01*
X97740447Y-37927707D01*
X97618654Y-38540000D01*
X97740447Y-39152293D01*
X98087283Y-39671371D01*
X98294756Y-39810000D01*
X98087283Y-39948629D01*
X97999504Y-40080000D01*
X97420000Y-40080000D01*
X97037316Y-40156120D01*
X96712893Y-40372893D01*
X95026060Y-42059726D01*
X94906000Y-42109334D01*
X94610372Y-42404446D01*
X94450182Y-42790226D01*
X94449818Y-43207942D01*
X72222583Y-43207942D01*
X72264693Y-43000000D01*
X72264693Y-39500000D01*
X72212396Y-39222067D01*
X72048138Y-38966802D01*
X71797508Y-38795554D01*
X71500000Y-38735307D01*
X68000000Y-38735307D01*
X67722067Y-38787604D01*
X67564693Y-38888871D01*
X67564693Y-37636667D01*
X67570628Y-37642602D01*
X67849225Y-37758000D01*
X68685500Y-37758000D01*
X68875000Y-37568500D01*
X68875000Y-36125000D01*
X70625000Y-36125000D01*
X70625000Y-37568500D01*
X70814500Y-37758000D01*
X71650775Y-37758000D01*
X71929372Y-37642602D01*
X72142601Y-37429373D01*
X72258000Y-37150776D01*
X72258000Y-36314500D01*
X72068500Y-36125000D01*
X70625000Y-36125000D01*
X68875000Y-36125000D01*
X67449935Y-36125000D01*
X67348138Y-35966802D01*
X67097508Y-35795554D01*
X66800000Y-35735307D01*
X63300000Y-35735307D01*
X63022067Y-35787604D01*
X62766802Y-35951862D01*
X62595554Y-36202492D01*
X62535307Y-36500000D01*
X59892893Y-36500000D01*
X59750000Y-36357107D01*
X59026655Y-37080452D01*
X56363609Y-37080452D01*
X56454446Y-36947508D01*
X56514693Y-36650000D01*
X56514693Y-35734358D01*
X57959545Y-35734358D01*
X58063552Y-36257241D01*
X58319548Y-36373345D01*
X59042893Y-35650000D01*
X60457107Y-35650000D01*
X61180452Y-36373345D01*
X61436448Y-36257241D01*
X61540455Y-35565642D01*
X61436448Y-35042759D01*
X61180452Y-34926655D01*
X60457107Y-35650000D01*
X59042893Y-35650000D01*
X58319548Y-34926655D01*
X58063552Y-35042759D01*
X57959545Y-35734358D01*
X56514693Y-35734358D01*
X56514693Y-34650000D01*
X56462396Y-34372067D01*
X56364254Y-34219548D01*
X59026655Y-34219548D01*
X59750000Y-34942893D01*
X60473345Y-34219548D01*
X60357241Y-33963552D01*
X59665642Y-33859545D01*
X59142759Y-33963552D01*
X59026655Y-34219548D01*
X56364254Y-34219548D01*
X56298138Y-34116802D01*
X56047508Y-33945554D01*
X55750000Y-33885307D01*
X53750000Y-33885307D01*
X53472067Y-33937604D01*
X53216802Y-34101862D01*
X53045554Y-34352492D01*
X52985307Y-34650000D01*
X49392893Y-34650000D01*
X49723345Y-34319548D01*
X49607241Y-34063552D01*
X48915642Y-33959545D01*
X48392759Y-34063552D01*
X48276655Y-34319548D01*
X45614254Y-34319548D01*
X45548138Y-34216802D01*
X45297508Y-34045554D01*
X45000000Y-33985307D01*
X43000000Y-33985307D01*
X42722067Y-34037604D01*
X42466802Y-34201862D01*
X42295554Y-34452492D01*
X42235307Y-34750000D01*
X35184723Y-34750000D01*
X35357090Y-34577934D01*
X35781516Y-33555802D01*
X35781696Y-33349224D01*
X67242000Y-33349224D01*
X67242000Y-34185500D01*
X67431500Y-34375000D01*
X68875000Y-34375000D01*
X68875000Y-32931500D01*
X70625000Y-32931500D01*
X70625000Y-34375000D01*
X72068500Y-34375000D01*
X72258000Y-34185500D01*
X72258000Y-33349224D01*
X72142601Y-33070627D01*
X72051966Y-32979992D01*
X101128252Y-32979992D01*
X101222403Y-33453321D01*
X101491706Y-33623699D01*
X102315406Y-32800000D01*
X104224594Y-32800000D01*
X105048294Y-33623699D01*
X105317597Y-33453321D01*
X105371075Y-32979992D01*
X113128252Y-32979992D01*
X113222403Y-33453321D01*
X113491706Y-33623699D01*
X114315406Y-32800000D01*
X116224594Y-32800000D01*
X117048294Y-33623699D01*
X117317597Y-33453321D01*
X117411748Y-32620008D01*
X117317597Y-32146679D01*
X117048294Y-31976301D01*
X116224594Y-32800000D01*
X114315406Y-32800000D01*
X113491706Y-31976301D01*
X113222403Y-32146679D01*
X113128252Y-32979992D01*
X105371075Y-32979992D01*
X105411748Y-32620008D01*
X105317597Y-32146679D01*
X105048294Y-31976301D01*
X104224594Y-32800000D01*
X102315406Y-32800000D01*
X101491706Y-31976301D01*
X101222403Y-32146679D01*
X101128252Y-32979992D01*
X72051966Y-32979992D01*
X71929372Y-32857398D01*
X71650775Y-32742000D01*
X70814500Y-32742000D01*
X70625000Y-32931500D01*
X68875000Y-32931500D01*
X68685500Y-32742000D01*
X67849225Y-32742000D01*
X67570628Y-32857398D01*
X67357399Y-33070627D01*
X67242000Y-33349224D01*
X35781696Y-33349224D01*
X35782482Y-32449054D01*
X35359840Y-31426182D01*
X34759706Y-30825000D01*
X102570750Y-30825000D01*
X102446301Y-31021706D01*
M02*
