M48
;DRILL file {KiCad 4.0.7} date 01/03/21 13:27:50
;FORMAT={-:-/ absolute / metric / decimal}
FMAT,2
METRIC,TZ
T1C2.000
T2C3.048
%
G90
G05
M71
T2
X33.Y-33.
X33.Y-127.
X127.Y-33.
X127.Y-127.
T1
X32.1Y-39.6G85X32.1Y-39.6
G05
X32.1Y-48.6G85X32.1Y-48.6
G05
X32.2Y-51.8G85X32.2Y-51.8
G05
X32.2Y-60.8G85X32.2Y-60.8
G05
X32.7Y-102.G85X32.7Y-102.
G05
X32.7Y-111.G85X32.7Y-111.
G05
X32.9Y-89.8G85X32.9Y-89.8
G05
X32.9Y-98.8G85X32.9Y-98.8
G05
X126.3Y-86.3G85X126.3Y-86.3
G05
X126.3Y-95.3G85X126.3Y-95.3
G05
X126.4Y-73.6G85X126.4Y-73.6
G05
X126.4Y-82.6G85X126.4Y-82.6
G05
X126.4Y-98.8G85X126.4Y-98.8
G05
X126.4Y-107.8G85X126.4Y-107.8
G05
X126.5Y-112.3G85X126.5Y-112.3
G05
X126.5Y-121.3G85X126.5Y-121.3
G05
T0
M30
