M48
;DRILL file {KiCad 4.0.7} date 01/16/21 00:41:08
;FORMAT={-:-/ absolute / metric / decimal}
FMAT,2
METRIC,TZ
T1C0.400
T2C0.800
T3C0.810
T4C1.000
T5C1.500
T6C1.520
T7C2.300
%
G90
G05
M71
T1
X37.8Y-125.8
X40.7Y-123.2
X44.1Y-93.5
X45.632Y-60.004
X45.8Y-93.1
X47.732Y-59.704
X48.3Y-115.8
X49.4Y-116.9
X49.7Y-118.4
X50.8Y-123.7
X50.9Y-116.8
X50.9Y-125.3
X51.632Y-49.304
X53.432Y-50.604
X55.532Y-62.404
X56.532Y-66.204
X62.832Y-77.004
X64.Y-47.75
X64.25Y-49.
X65.Y-51.
X66.Y-95.4
X66.Y-116.1
X66.3Y-114.1
X66.732Y-79.904
X66.832Y-74.904
X67.032Y-54.854
X67.25Y-44.25
X67.25Y-46.25
X67.8Y-93.1
X68.25Y-51.
X68.282Y-78.854
X68.532Y-54.604
X70.032Y-76.104
X70.25Y-48.
X70.25Y-49.75
X70.282Y-53.854
X70.612Y-84.582
X70.612Y-86.614
X70.782Y-57.354
X72.4Y-105.3
X73.3Y-104.3
X74.282Y-65.854
X75.Y-36.5
X75.782Y-65.604
X80.282Y-49.354
X80.782Y-51.354
X81.3Y-101.6
X82.8Y-101.
X83.25Y-36.25
X85.2Y-106.4
X86.4Y-104.3
X87.5Y-110.5
X88.138Y-67.056
X89.1Y-112.
X89.6Y-115.1
X89.662Y-65.278
X91.5Y-40.75
X92.6Y-102.1
X93.4Y-104.3
X93.75Y-32.75
X93.9Y-115.2
X94.2Y-111.2
X95.Y-41.25
X95.5Y-43.
X96.1Y-51.9
X96.5Y-50.4
X96.6Y-47.9
X96.8Y-55.
X98.1Y-109.4
X104.Y-68.1
X105.32Y-78.98
X105.9Y-67.5
X105.9Y-68.5
X106.46Y-77.05
X107.2Y-57.8
X107.6Y-49.7
X108.2Y-54.3
X108.4Y-41.9
X109.7Y-42.1
X109.8Y-57.8
X110.Y-66.8
X110.99Y-79.28
X111.6Y-54.2
X112.5Y-57.7
X112.6Y-45.6
X112.9Y-54.1
X113.17Y-76.87
X113.9Y-72.5
X114.Y-45.2
X115.3Y-69.8
X116.2Y-72.6
X118.9Y-64.7
X118.9Y-68.
X119.6Y-57.2
X119.7Y-46.8
X121.Y-59.4
T2
X38.1Y-113.28
X38.1Y-120.9
X46.8Y-106.1
X46.8Y-113.72
X50.812Y-71.004
X53.18Y-126.3
X53.5Y-101.9
X53.5Y-106.2
X53.7Y-114.6
X55.3Y-93.5
X56.632Y-48.204
X56.632Y-55.824
X58.432Y-71.004
X58.612Y-64.404
X58.7Y-114.6
X60.3Y-93.5
X60.8Y-126.3
X61.1Y-98.2
X61.12Y-101.9
X61.12Y-106.2
X61.5Y-110.4
X61.932Y-71.484
X61.932Y-79.104
X62.6Y-120.9
X66.232Y-64.404
X68.72Y-98.2
X69.12Y-110.4
X69.282Y-74.604
X69.412Y-71.104
X70.22Y-120.9
X72.782Y-48.104
X72.782Y-55.724
X74.58Y-120.8
X74.58Y-124.3
X74.9Y-97.4
X74.9Y-102.4
X75.6Y-110.3
X75.6Y-115.3
X76.902Y-74.604
X77.032Y-71.104
X79.Y-96.
X79.Y-103.62
X79.5Y-107.68
X79.5Y-115.3
X80.232Y-64.604
X80.232Y-72.224
X82.2Y-120.8
X82.2Y-124.3
T3
X108.Y-35.5
X108.Y-37.5
X110.54Y-35.5
X110.54Y-37.5
T4
X42.Y-36.25
X47.Y-36.25
X53.132Y-78.304
X53.25Y-36.
X55.672Y-78.304
X58.25Y-36.
X63.832Y-58.164
X63.832Y-60.704
X82.55Y-81.788
X85.032Y-59.774
X85.032Y-62.314
X85.032Y-64.854
X85.032Y-71.024
X85.032Y-73.564
X85.032Y-76.104
X85.09Y-81.788
X85.132Y-49.704
X85.132Y-52.244
X98.7Y-66.5
X98.7Y-69.04
X99.25Y-36.
X99.25Y-38.54
X99.25Y-41.08
T6
X37.25Y-80.42
X37.25Y-85.5
X38.Y-45.92
X38.Y-51.
X95.52Y-125.7
X100.6Y-125.7
X122.25Y-99.75
X122.25Y-104.83
T7
X103.27Y-32.8
X115.27Y-32.8
T4
X63.8Y-37.25G85X63.8Y-39.25
G05
X69.5Y-35.25G85X67.5Y-35.25
G05
X69.5Y-41.25G85X67.5Y-41.25
G05
T5
X36.Y-72.25G85X36.Y-71.25
G05
X36.2Y-107.G85X36.2Y-106.
G05
X36.25Y-60.75G85X36.25Y-59.75
G05
X36.4Y-94.8G85X36.4Y-93.8
G05
X40.5Y-71.75G85X41.5Y-71.75
G05
X40.7Y-106.5G85X41.7Y-106.5
G05
X40.75Y-60.25G85X41.75Y-60.25
G05
X40.9Y-94.3G85X41.9Y-94.3
G05
X110.5Y-119.5G85X110.5Y-118.5
G05
X111.Y-124.G85X110.Y-124.
G05
X118.3Y-90.8G85X117.3Y-90.8
G05
X118.4Y-78.1G85X117.4Y-78.1
G05
X119.Y-113.75G85X118.Y-113.75
G05
X122.8Y-90.3G85X122.8Y-91.3
G05
X122.9Y-77.6G85X122.9Y-78.6
G05
X123.5Y-113.25G85X123.5Y-114.25
G05
T0
M30
