M48
;DRILL file {KiCad 4.0.7} date 02/09/21 22:21:41
;FORMAT={-:-/ absolute / metric / decimal}
FMAT,2
METRIC,TZ
T1C0.400
T2C0.800
T3C0.810
T4C1.000
T5C1.500
T6C1.520
T7C2.300
%
G90
G05
M71
T1
X45.1Y-113.2
X45.7Y-98.4
X46.2Y-116.2
X47.4Y-98.6
X56.2Y-113.2
X57.1Y-108.4
X58.7Y-48.5
X58.7Y-113.4
X60.6Y-107.6
X61.1Y-43.7
X61.6Y-61.4
X62.2Y-44.9
X62.7Y-61.3
X71.4Y-120.
X71.6Y-44.3
X76.1Y-44.7
X78.1Y-48.8
X79.4Y-47.5
X81.4Y-61.6
X82.5Y-61.4
X88.9Y-127.3
X91.5Y-40.6
X91.5Y-126.9
X92.4Y-65.6
X93.1Y-42.1
X94.1Y-64.9
X95.3Y-66.2
X95.5Y-43.
X96.Y-51.9
X96.8Y-55.1
X97.3Y-105.9
X97.4Y-107.3
X102.4Y-67.4
X103.3Y-90.1
X103.9Y-68.1
X104.8Y-118.4
X104.9Y-69.2
X105.3Y-101.2
X105.9Y-88.4
X106.Y-68.
X106.1Y-103.2
X106.4Y-76.8
X106.6Y-115.7
X106.7Y-43.2
X107.6Y-54.5
X107.6Y-57.7
X109.1Y-94.5
X109.3Y-41.9
X110.3Y-58.
X110.4Y-106.8
X111.1Y-79.
X111.1Y-95.9
X111.1Y-107.7
X111.2Y-66.9
X111.3Y-111.5
X111.6Y-108.6
X112.3Y-54.5
X112.6Y-57.8
X113.Y-77.4
X113.3Y-113.94
X114.Y-45.3
X114.1Y-72.4
X115.17Y-114.86
X117.5Y-71.9
X119.1Y-64.5
X119.5Y-67.6
X119.7Y-46.6
X119.9Y-57.6
X120.7Y-59.4
T2
X50.3Y-57.
X50.3Y-64.62
X51.4Y-66.7
X51.4Y-74.32
X51.7Y-44.9
X51.7Y-52.52
X54.7Y-66.68
X54.7Y-74.3
X57.38Y-70.3
X63.28Y-126.
X64.6Y-65.8
X65.Y-70.3
X65.94Y-122.43
X66.8Y-47.88
X66.8Y-55.5
X68.2Y-69.9
X68.2Y-77.52
X70.18Y-115.98
X70.6Y-47.9
X70.6Y-55.52
X70.9Y-126.
X70.94Y-122.43
X71.9Y-69.8
X71.9Y-77.42
X72.22Y-65.8
X73.99Y-126.03
X74.1Y-122.68
X77.69Y-111.94
X77.8Y-115.98
X79.28Y-68.1
X81.61Y-126.03
X81.72Y-122.68
X82.67Y-104.8
X85.31Y-111.94
X85.7Y-53.6
X85.7Y-61.22
X86.68Y-115.48
X86.9Y-68.1
X87.4Y-108.13
X88.88Y-92.93
X88.88Y-97.93
X90.29Y-104.8
X92.62Y-93.92
X92.62Y-101.54
X94.3Y-115.48
X95.02Y-108.13
X96.76Y-100.75
X98.4Y-116.73
X101.76Y-100.75
X103.4Y-116.73
T3
X108.Y-35.5
X108.Y-37.5
X110.54Y-35.5
X110.54Y-37.5
T4
X42.Y-36.25
X47.Y-36.25
X47.9Y-45.56
X47.9Y-48.1
X50.12Y-82.48
X50.12Y-85.02
X53.25Y-36.
X53.7Y-56.7
X53.7Y-59.24
X57.9Y-74.26
X57.9Y-76.8
X58.25Y-36.
X72.9Y-59.06
X72.9Y-61.6
X76.Y-68.7
X76.Y-71.24
X89.7Y-58.12
X89.7Y-60.66
X89.7Y-63.2
X89.8Y-69.72
X89.8Y-72.26
X89.8Y-74.8
X98.6Y-81.16
X98.6Y-83.7
X99.25Y-36.
X99.25Y-38.54
X99.25Y-41.08
T6
X36.4Y-80.52
X36.4Y-85.6
X36.6Y-46.22
X36.6Y-51.3
X37.4Y-109.32
X37.4Y-114.4
X53.72Y-123.2
X58.8Y-123.2
X95.42Y-123.9
X100.5Y-123.9
X122.9Y-99.9
X122.9Y-104.98
T7
X103.27Y-32.8
X115.27Y-32.8
T4
X63.8Y-37.25G85X63.8Y-39.25
G05
X69.5Y-35.25G85X67.5Y-35.25
G05
X69.5Y-41.25G85X67.5Y-41.25
G05
T5
X36.Y-72.25G85X36.Y-71.25
G05
X36.25Y-60.75G85X36.25Y-59.75
G05
X36.9Y-99.9G85X36.9Y-98.9
G05
X40.5Y-71.75G85X41.5Y-71.75
G05
X40.75Y-60.25G85X41.75Y-60.25
G05
X41.4Y-99.4G85X42.4Y-99.4
G05
X44.2Y-119.4G85X44.2Y-118.4
G05
X44.7Y-123.9G85X43.7Y-123.9
G05
X110.5Y-119.5G85X110.5Y-118.5
G05
X111.Y-124.G85X110.Y-124.
G05
X118.3Y-90.8G85X117.3Y-90.8
G05
X118.4Y-78.1G85X117.4Y-78.1
G05
X119.Y-113.75G85X118.Y-113.75
G05
X122.8Y-90.3G85X122.8Y-91.3
G05
X122.9Y-77.6G85X122.9Y-78.6
G05
X123.5Y-113.25G85X123.5Y-114.25
G05
T0
M30
