G04 #@! TF.FileFunction,Soldermask,Bot*
%FSLAX46Y46*%
G04 Gerber Fmt 4.6, Leading zero omitted, Abs format (unit mm)*
G04 Created by KiCad (PCBNEW 4.0.7) date 01/14/21 23:37:04*
%MOMM*%
%LPD*%
G01*
G04 APERTURE LIST*
%ADD10C,0.100000*%
%ADD11O,2.400000X2.400000*%
%ADD12O,2.900000X3.900000*%
%ADD13O,3.900000X2.900000*%
%ADD14C,2.000000*%
%ADD15C,1.920000*%
%ADD16C,3.100000*%
%ADD17R,3.400000X3.400000*%
%ADD18C,3.400000*%
%ADD19O,2.000000X2.000000*%
%ADD20R,2.100000X2.100000*%
%ADD21O,2.100000X2.100000*%
%ADD22C,4.464000*%
%ADD23R,2.400000X2.400000*%
%ADD24C,2.400000*%
%ADD25R,3.900000X3.900000*%
G04 APERTURE END LIST*
D10*
D11*
X32500000Y-76250000D03*
X32500000Y-67250000D03*
D12*
X36000000Y-71750000D03*
D13*
X41000000Y-71750000D03*
D14*
X53700000Y-114600000D03*
X58700000Y-114600000D03*
X75600000Y-115300000D03*
X75600000Y-110300000D03*
D15*
X110540000Y-37500000D03*
X108000000Y-37500000D03*
X108000000Y-35500000D03*
X110540000Y-35500000D03*
D16*
X115270000Y-32800000D03*
X103270000Y-32800000D03*
D17*
X100600000Y-125700000D03*
D18*
X95520000Y-125700000D03*
D14*
X53500000Y-106200000D03*
D19*
X61120000Y-106200000D03*
D14*
X79500000Y-115300000D03*
D19*
X79500000Y-107680000D03*
D14*
X61500000Y-110400000D03*
D19*
X69120000Y-110400000D03*
D14*
X55300000Y-93500000D03*
X60300000Y-93500000D03*
X74900000Y-97400000D03*
X74900000Y-102400000D03*
D17*
X122250000Y-99750000D03*
D18*
X122250000Y-104830000D03*
D14*
X53500000Y-101900000D03*
D19*
X61120000Y-101900000D03*
D14*
X79000000Y-96000000D03*
D19*
X79000000Y-103620000D03*
D14*
X61100000Y-98200000D03*
D19*
X68720000Y-98200000D03*
D14*
X46800000Y-106100000D03*
D19*
X46800000Y-113720000D03*
D14*
X62600000Y-120900000D03*
D19*
X70220000Y-120900000D03*
D14*
X82200000Y-120800000D03*
D19*
X74580000Y-120800000D03*
D14*
X82200000Y-124300000D03*
D19*
X74580000Y-124300000D03*
D14*
X38100000Y-120900000D03*
D19*
X38100000Y-113280000D03*
D17*
X38000000Y-51000000D03*
D18*
X38000000Y-45920000D03*
D20*
X85032000Y-64854000D03*
D21*
X85032000Y-62314000D03*
X85032000Y-59774000D03*
D14*
X56632000Y-48204000D03*
D19*
X56632000Y-55824000D03*
D14*
X66232000Y-64404000D03*
D19*
X58612000Y-64404000D03*
D17*
X37250000Y-85500000D03*
D18*
X37250000Y-80420000D03*
D20*
X85032000Y-76104000D03*
D21*
X85032000Y-73564000D03*
X85032000Y-71024000D03*
D14*
X61932000Y-79104000D03*
D19*
X61932000Y-71484000D03*
D14*
X58432000Y-71004000D03*
D19*
X50812000Y-71004000D03*
D22*
X33000000Y-33000000D03*
X127000000Y-33000000D03*
X127000000Y-127000000D03*
X33000000Y-127000000D03*
D14*
X72782000Y-48104000D03*
D19*
X72782000Y-55724000D03*
D14*
X69282000Y-74604000D03*
D19*
X76902000Y-74604000D03*
D14*
X80232000Y-64604000D03*
D19*
X80232000Y-72224000D03*
D14*
X77032000Y-71104000D03*
D19*
X69412000Y-71104000D03*
D20*
X63832000Y-60704000D03*
D21*
X63832000Y-58164000D03*
D20*
X53132000Y-78304000D03*
D21*
X55672000Y-78304000D03*
D20*
X85132000Y-49704000D03*
D21*
X85132000Y-52244000D03*
D20*
X85090000Y-81788000D03*
D21*
X82550000Y-81788000D03*
D20*
X98700000Y-66500000D03*
D21*
X98700000Y-69040000D03*
D14*
X60800000Y-126300000D03*
D19*
X53180000Y-126300000D03*
D11*
X32750000Y-64750000D03*
X32750000Y-55750000D03*
D12*
X36250000Y-60250000D03*
D13*
X41250000Y-60250000D03*
D11*
X32900000Y-98800000D03*
X32900000Y-89800000D03*
D12*
X36400000Y-94300000D03*
D13*
X41400000Y-94300000D03*
D11*
X32700000Y-111000000D03*
X32700000Y-102000000D03*
D12*
X36200000Y-106500000D03*
D13*
X41200000Y-106500000D03*
D11*
X126300000Y-86300000D03*
X126300000Y-95300000D03*
D12*
X122800000Y-90800000D03*
D13*
X117800000Y-90800000D03*
D11*
X126400000Y-73600000D03*
X126400000Y-82600000D03*
D12*
X122900000Y-78100000D03*
D13*
X117900000Y-78100000D03*
D11*
X127000000Y-109250000D03*
X127000000Y-118250000D03*
D12*
X123500000Y-113750000D03*
D13*
X118500000Y-113750000D03*
D11*
X115000000Y-127500000D03*
X106000000Y-127500000D03*
D13*
X110500000Y-124000000D03*
D12*
X110500000Y-119000000D03*
D23*
X42000000Y-36250000D03*
D24*
X47000000Y-36250000D03*
D23*
X53250000Y-36000000D03*
D24*
X58250000Y-36000000D03*
D25*
X68500000Y-41250000D03*
X68500000Y-35250000D03*
X63800000Y-38250000D03*
D20*
X99250000Y-36000000D03*
D21*
X99250000Y-38540000D03*
X99250000Y-41080000D03*
M02*
