G04 #@! TF.FileFunction,Legend,Top*
%FSLAX46Y46*%
G04 Gerber Fmt 4.6, Leading zero omitted, Abs format (unit mm)*
G04 Created by KiCad (PCBNEW 4.0.7) date 12/28/20 23:57:47*
%MOMM*%
%LPD*%
G01*
G04 APERTURE LIST*
%ADD10C,0.100000*%
%ADD11C,0.300000*%
%ADD12C,0.150000*%
%ADD13C,0.120000*%
%ADD14C,0.200000*%
G04 APERTURE END LIST*
D10*
D11*
X43175000Y-124814286D02*
X43175000Y-124100000D01*
X43603571Y-124957143D02*
X42103571Y-124457143D01*
X43603571Y-123957143D01*
X42103571Y-123457143D02*
X43317857Y-123457143D01*
X43460714Y-123385715D01*
X43532143Y-123314286D01*
X43603571Y-123171429D01*
X43603571Y-122885715D01*
X43532143Y-122742857D01*
X43460714Y-122671429D01*
X43317857Y-122600000D01*
X42103571Y-122600000D01*
X43603571Y-121885714D02*
X42103571Y-121885714D01*
X42103571Y-121528571D01*
X42175000Y-121314286D01*
X42317857Y-121171428D01*
X42460714Y-121100000D01*
X42746429Y-121028571D01*
X42960714Y-121028571D01*
X43246429Y-121100000D01*
X43389286Y-121171428D01*
X43532143Y-121314286D01*
X43603571Y-121528571D01*
X43603571Y-121885714D01*
X43603571Y-120385714D02*
X42103571Y-120385714D01*
X42103571Y-119385714D02*
X42103571Y-119100000D01*
X42175000Y-118957142D01*
X42317857Y-118814285D01*
X42603571Y-118742857D01*
X43103571Y-118742857D01*
X43389286Y-118814285D01*
X43532143Y-118957142D01*
X43603571Y-119100000D01*
X43603571Y-119385714D01*
X43532143Y-119528571D01*
X43389286Y-119671428D01*
X43103571Y-119742857D01*
X42603571Y-119742857D01*
X42317857Y-119671428D01*
X42175000Y-119528571D01*
X42103571Y-119385714D01*
X43603571Y-118099999D02*
X42103571Y-118099999D01*
X43175000Y-117599999D01*
X42103571Y-117099999D01*
X43603571Y-117099999D01*
X43175000Y-116457142D02*
X43175000Y-115742856D01*
X43603571Y-116599999D02*
X42103571Y-116099999D01*
X43603571Y-115599999D01*
X43603571Y-115099999D02*
X42103571Y-115099999D01*
X42103571Y-114528571D01*
X42175000Y-114385713D01*
X42246429Y-114314285D01*
X42389286Y-114242856D01*
X42603571Y-114242856D01*
X42746429Y-114314285D01*
X42817857Y-114385713D01*
X42889286Y-114528571D01*
X42889286Y-115099999D01*
X43603571Y-113599999D02*
X42103571Y-113599999D01*
X42103571Y-113028571D01*
X42175000Y-112885713D01*
X42246429Y-112814285D01*
X42389286Y-112742856D01*
X42603571Y-112742856D01*
X42746429Y-112814285D01*
X42817857Y-112885713D01*
X42889286Y-113028571D01*
X42889286Y-113599999D01*
X42817857Y-112099999D02*
X42817857Y-111599999D01*
X43603571Y-111385713D02*
X43603571Y-112099999D01*
X42103571Y-112099999D01*
X42103571Y-111385713D01*
X43603571Y-109885713D02*
X42889286Y-110385713D01*
X43603571Y-110742856D02*
X42103571Y-110742856D01*
X42103571Y-110171428D01*
X42175000Y-110028570D01*
X42246429Y-109957142D01*
X42389286Y-109885713D01*
X42603571Y-109885713D01*
X42746429Y-109957142D01*
X42817857Y-110028570D01*
X42889286Y-110171428D01*
X42889286Y-110742856D01*
X42103571Y-108099999D02*
X43317857Y-108099999D01*
X43460714Y-108028571D01*
X43532143Y-107957142D01*
X43603571Y-107814285D01*
X43603571Y-107528571D01*
X43532143Y-107385713D01*
X43460714Y-107314285D01*
X43317857Y-107242856D01*
X42103571Y-107242856D01*
X43532143Y-106599999D02*
X43603571Y-106385713D01*
X43603571Y-106028570D01*
X43532143Y-105885713D01*
X43460714Y-105814284D01*
X43317857Y-105742856D01*
X43175000Y-105742856D01*
X43032143Y-105814284D01*
X42960714Y-105885713D01*
X42889286Y-106028570D01*
X42817857Y-106314284D01*
X42746429Y-106457142D01*
X42675000Y-106528570D01*
X42532143Y-106599999D01*
X42389286Y-106599999D01*
X42246429Y-106528570D01*
X42175000Y-106457142D01*
X42103571Y-106314284D01*
X42103571Y-105957142D01*
X42175000Y-105742856D01*
X42817857Y-104599999D02*
X42889286Y-104385713D01*
X42960714Y-104314285D01*
X43103571Y-104242856D01*
X43317857Y-104242856D01*
X43460714Y-104314285D01*
X43532143Y-104385713D01*
X43603571Y-104528571D01*
X43603571Y-105099999D01*
X42103571Y-105099999D01*
X42103571Y-104599999D01*
X42175000Y-104457142D01*
X42246429Y-104385713D01*
X42389286Y-104314285D01*
X42532143Y-104314285D01*
X42675000Y-104385713D01*
X42746429Y-104457142D01*
X42817857Y-104599999D01*
X42817857Y-105099999D01*
X43603571Y-102457142D02*
X42103571Y-102457142D01*
X43603571Y-101742856D02*
X42103571Y-101742856D01*
X43603571Y-100885713D01*
X42103571Y-100885713D01*
X42103571Y-100385713D02*
X42103571Y-99528570D01*
X43603571Y-99957141D02*
X42103571Y-99957141D01*
X42817857Y-99028570D02*
X42817857Y-98528570D01*
X43603571Y-98314284D02*
X43603571Y-99028570D01*
X42103571Y-99028570D01*
X42103571Y-98314284D01*
X43603571Y-96814284D02*
X42889286Y-97314284D01*
X43603571Y-97671427D02*
X42103571Y-97671427D01*
X42103571Y-97099999D01*
X42175000Y-96957141D01*
X42246429Y-96885713D01*
X42389286Y-96814284D01*
X42603571Y-96814284D01*
X42746429Y-96885713D01*
X42817857Y-96957141D01*
X42889286Y-97099999D01*
X42889286Y-97671427D01*
X42817857Y-95671427D02*
X42817857Y-96171427D01*
X43603571Y-96171427D02*
X42103571Y-96171427D01*
X42103571Y-95457141D01*
X43175000Y-94957142D02*
X43175000Y-94242856D01*
X43603571Y-95099999D02*
X42103571Y-94599999D01*
X43603571Y-94099999D01*
X43460714Y-92742856D02*
X43532143Y-92814285D01*
X43603571Y-93028571D01*
X43603571Y-93171428D01*
X43532143Y-93385713D01*
X43389286Y-93528571D01*
X43246429Y-93599999D01*
X42960714Y-93671428D01*
X42746429Y-93671428D01*
X42460714Y-93599999D01*
X42317857Y-93528571D01*
X42175000Y-93385713D01*
X42103571Y-93171428D01*
X42103571Y-93028571D01*
X42175000Y-92814285D01*
X42246429Y-92742856D01*
X42817857Y-92099999D02*
X42817857Y-91599999D01*
X43603571Y-91385713D02*
X43603571Y-92099999D01*
X42103571Y-92099999D01*
X42103571Y-91385713D01*
X45367857Y-126349999D02*
X45439286Y-126135713D01*
X45510714Y-126064285D01*
X45653571Y-125992856D01*
X45867857Y-125992856D01*
X46010714Y-126064285D01*
X46082143Y-126135713D01*
X46153571Y-126278571D01*
X46153571Y-126849999D01*
X44653571Y-126849999D01*
X44653571Y-126349999D01*
X44725000Y-126207142D01*
X44796429Y-126135713D01*
X44939286Y-126064285D01*
X45082143Y-126064285D01*
X45225000Y-126135713D01*
X45296429Y-126207142D01*
X45367857Y-126349999D01*
X45367857Y-126849999D01*
X45439286Y-125064285D02*
X46153571Y-125064285D01*
X44653571Y-125564285D02*
X45439286Y-125064285D01*
X44653571Y-124564285D01*
X46153571Y-122921428D02*
X44653571Y-122921428D01*
X44653571Y-122564285D01*
X44725000Y-122350000D01*
X44867857Y-122207142D01*
X45010714Y-122135714D01*
X45296429Y-122064285D01*
X45510714Y-122064285D01*
X45796429Y-122135714D01*
X45939286Y-122207142D01*
X46082143Y-122350000D01*
X46153571Y-122564285D01*
X46153571Y-122921428D01*
X45725000Y-121492857D02*
X45725000Y-120778571D01*
X46153571Y-121635714D02*
X44653571Y-121135714D01*
X46153571Y-120635714D01*
X46153571Y-120135714D02*
X44653571Y-120135714D01*
X46153571Y-119278571D01*
X44653571Y-119278571D01*
X46153571Y-118564285D02*
X44653571Y-118564285D01*
X45367857Y-117849999D02*
X45367857Y-117349999D01*
X46153571Y-117135713D02*
X46153571Y-117849999D01*
X44653571Y-117849999D01*
X44653571Y-117135713D01*
X46153571Y-115778570D02*
X46153571Y-116492856D01*
X44653571Y-116492856D01*
X46153571Y-114135713D02*
X44653571Y-114135713D01*
X45725000Y-113635713D01*
X44653571Y-113135713D01*
X46153571Y-113135713D01*
X45725000Y-112492856D02*
X45725000Y-111778570D01*
X46153571Y-112635713D02*
X44653571Y-112135713D01*
X46153571Y-111635713D01*
X46153571Y-110278570D02*
X45439286Y-110778570D01*
X46153571Y-111135713D02*
X44653571Y-111135713D01*
X44653571Y-110564285D01*
X44725000Y-110421427D01*
X44796429Y-110349999D01*
X44939286Y-110278570D01*
X45153571Y-110278570D01*
X45296429Y-110349999D01*
X45367857Y-110421427D01*
X45439286Y-110564285D01*
X45439286Y-111135713D01*
X46153571Y-109635713D02*
X44653571Y-109635713D01*
X46153571Y-108778570D02*
X45296429Y-109421427D01*
X44653571Y-108778570D02*
X45510714Y-109635713D01*
X46082143Y-108207142D02*
X46153571Y-107992856D01*
X46153571Y-107635713D01*
X46082143Y-107492856D01*
X46010714Y-107421427D01*
X45867857Y-107349999D01*
X45725000Y-107349999D01*
X45582143Y-107421427D01*
X45510714Y-107492856D01*
X45439286Y-107635713D01*
X45367857Y-107921427D01*
X45296429Y-108064285D01*
X45225000Y-108135713D01*
X45082143Y-108207142D01*
X44939286Y-108207142D01*
X44796429Y-108135713D01*
X44725000Y-108064285D01*
X44653571Y-107921427D01*
X44653571Y-107564285D01*
X44725000Y-107349999D01*
X46010714Y-104707142D02*
X46082143Y-104778571D01*
X46153571Y-104992857D01*
X46153571Y-105135714D01*
X46082143Y-105349999D01*
X45939286Y-105492857D01*
X45796429Y-105564285D01*
X45510714Y-105635714D01*
X45296429Y-105635714D01*
X45010714Y-105564285D01*
X44867857Y-105492857D01*
X44725000Y-105349999D01*
X44653571Y-105135714D01*
X44653571Y-104992857D01*
X44725000Y-104778571D01*
X44796429Y-104707142D01*
X46010714Y-103207142D02*
X46082143Y-103278571D01*
X46153571Y-103492857D01*
X46153571Y-103635714D01*
X46082143Y-103849999D01*
X45939286Y-103992857D01*
X45796429Y-104064285D01*
X45510714Y-104135714D01*
X45296429Y-104135714D01*
X45010714Y-104064285D01*
X44867857Y-103992857D01*
X44725000Y-103849999D01*
X44653571Y-103635714D01*
X44653571Y-103492857D01*
X44725000Y-103278571D01*
X44796429Y-103207142D01*
X45582143Y-102564285D02*
X45582143Y-101421428D01*
X45367857Y-100207142D02*
X45439286Y-99992856D01*
X45510714Y-99921428D01*
X45653571Y-99849999D01*
X45867857Y-99849999D01*
X46010714Y-99921428D01*
X46082143Y-99992856D01*
X46153571Y-100135714D01*
X46153571Y-100707142D01*
X44653571Y-100707142D01*
X44653571Y-100207142D01*
X44725000Y-100064285D01*
X44796429Y-99992856D01*
X44939286Y-99921428D01*
X45082143Y-99921428D01*
X45225000Y-99992856D01*
X45296429Y-100064285D01*
X45367857Y-100207142D01*
X45367857Y-100707142D01*
X45439286Y-98921428D02*
X46153571Y-98921428D01*
X44653571Y-99421428D02*
X45439286Y-98921428D01*
X44653571Y-98421428D01*
X45582143Y-97921428D02*
X45582143Y-96778571D01*
X46082143Y-96135714D02*
X46153571Y-95921428D01*
X46153571Y-95564285D01*
X46082143Y-95421428D01*
X46010714Y-95349999D01*
X45867857Y-95278571D01*
X45725000Y-95278571D01*
X45582143Y-95349999D01*
X45510714Y-95421428D01*
X45439286Y-95564285D01*
X45367857Y-95849999D01*
X45296429Y-95992857D01*
X45225000Y-96064285D01*
X45082143Y-96135714D01*
X44939286Y-96135714D01*
X44796429Y-96064285D01*
X44725000Y-95992857D01*
X44653571Y-95849999D01*
X44653571Y-95492857D01*
X44725000Y-95278571D01*
X45725000Y-94707143D02*
X45725000Y-93992857D01*
X46153571Y-94850000D02*
X44653571Y-94350000D01*
X46153571Y-93850000D01*
X45153571Y-91564286D02*
X46153571Y-91564286D01*
X44582143Y-91921429D02*
X45653571Y-92278572D01*
X45653571Y-91350000D01*
X46010714Y-90778572D02*
X46082143Y-90707144D01*
X46153571Y-90778572D01*
X46082143Y-90850001D01*
X46010714Y-90778572D01*
X46153571Y-90778572D01*
X44653571Y-89778572D02*
X44653571Y-89635715D01*
X44725000Y-89492858D01*
X44796429Y-89421429D01*
X44939286Y-89350000D01*
X45225000Y-89278572D01*
X45582143Y-89278572D01*
X45867857Y-89350000D01*
X46010714Y-89421429D01*
X46082143Y-89492858D01*
X46153571Y-89635715D01*
X46153571Y-89778572D01*
X46082143Y-89921429D01*
X46010714Y-89992858D01*
X45867857Y-90064286D01*
X45582143Y-90135715D01*
X45225000Y-90135715D01*
X44939286Y-90064286D01*
X44796429Y-89992858D01*
X44725000Y-89921429D01*
X44653571Y-89778572D01*
X71507143Y-54078571D02*
X71507143Y-52578571D01*
X72221429Y-54078571D02*
X72221429Y-52578571D01*
X73078572Y-54078571D01*
X73078572Y-52578571D01*
X73792858Y-54078571D02*
X73792858Y-52578571D01*
X74364286Y-52578571D01*
X74507144Y-52650000D01*
X74578572Y-52721429D01*
X74650001Y-52864286D01*
X74650001Y-53078571D01*
X74578572Y-53221429D01*
X74507144Y-53292857D01*
X74364286Y-53364286D01*
X73792858Y-53364286D01*
X75292858Y-52578571D02*
X75292858Y-53792857D01*
X75364286Y-53935714D01*
X75435715Y-54007143D01*
X75578572Y-54078571D01*
X75864286Y-54078571D01*
X76007144Y-54007143D01*
X76078572Y-53935714D01*
X76150001Y-53792857D01*
X76150001Y-52578571D01*
X76650001Y-52578571D02*
X77507144Y-52578571D01*
X77078573Y-54078571D02*
X77078573Y-52578571D01*
X72207143Y-65778571D02*
X72207143Y-64278571D01*
X72921429Y-65778571D02*
X72921429Y-64278571D01*
X73778572Y-65778571D01*
X73778572Y-64278571D01*
X74492858Y-65778571D02*
X74492858Y-64278571D01*
X75064286Y-64278571D01*
X75207144Y-64350000D01*
X75278572Y-64421429D01*
X75350001Y-64564286D01*
X75350001Y-64778571D01*
X75278572Y-64921429D01*
X75207144Y-64992857D01*
X75064286Y-65064286D01*
X74492858Y-65064286D01*
X75992858Y-64278571D02*
X75992858Y-65492857D01*
X76064286Y-65635714D01*
X76135715Y-65707143D01*
X76278572Y-65778571D01*
X76564286Y-65778571D01*
X76707144Y-65707143D01*
X76778572Y-65635714D01*
X76850001Y-65492857D01*
X76850001Y-64278571D01*
X77350001Y-64278571D02*
X78207144Y-64278571D01*
X77778573Y-65778571D02*
X77778573Y-64278571D01*
X72114286Y-58692857D02*
X71614286Y-58692857D01*
X71614286Y-59478571D02*
X71614286Y-57978571D01*
X72328572Y-57978571D01*
X72900000Y-58692857D02*
X73400000Y-58692857D01*
X73614286Y-59478571D02*
X72900000Y-59478571D01*
X72900000Y-57978571D01*
X73614286Y-57978571D01*
X74257143Y-58692857D02*
X74757143Y-58692857D01*
X74971429Y-59478571D02*
X74257143Y-59478571D01*
X74257143Y-57978571D01*
X74971429Y-57978571D01*
X75614286Y-59478571D02*
X75614286Y-57978571D01*
X75971429Y-57978571D01*
X76185714Y-58050000D01*
X76328572Y-58192857D01*
X76400000Y-58335714D01*
X76471429Y-58621429D01*
X76471429Y-58835714D01*
X76400000Y-59121429D01*
X76328572Y-59264286D01*
X76185714Y-59407143D01*
X75971429Y-59478571D01*
X75614286Y-59478571D01*
X77614286Y-58692857D02*
X77828572Y-58764286D01*
X77900000Y-58835714D01*
X77971429Y-58978571D01*
X77971429Y-59192857D01*
X77900000Y-59335714D01*
X77828572Y-59407143D01*
X77685714Y-59478571D01*
X77114286Y-59478571D01*
X77114286Y-57978571D01*
X77614286Y-57978571D01*
X77757143Y-58050000D01*
X77828572Y-58121429D01*
X77900000Y-58264286D01*
X77900000Y-58407143D01*
X77828572Y-58550000D01*
X77757143Y-58621429D01*
X77614286Y-58692857D01*
X77114286Y-58692857D01*
X78542857Y-59050000D02*
X79257143Y-59050000D01*
X78400000Y-59478571D02*
X78900000Y-57978571D01*
X79400000Y-59478571D01*
X80757143Y-59335714D02*
X80685714Y-59407143D01*
X80471428Y-59478571D01*
X80328571Y-59478571D01*
X80114286Y-59407143D01*
X79971428Y-59264286D01*
X79900000Y-59121429D01*
X79828571Y-58835714D01*
X79828571Y-58621429D01*
X79900000Y-58335714D01*
X79971428Y-58192857D01*
X80114286Y-58050000D01*
X80328571Y-57978571D01*
X80471428Y-57978571D01*
X80685714Y-58050000D01*
X80757143Y-58121429D01*
X81400000Y-59478571D02*
X81400000Y-57978571D01*
X82257143Y-59478571D02*
X81614286Y-58621429D01*
X82257143Y-57978571D02*
X81400000Y-58835714D01*
X72514286Y-70292857D02*
X72014286Y-70292857D01*
X72014286Y-71078571D02*
X72014286Y-69578571D01*
X72728572Y-69578571D01*
X73300000Y-70292857D02*
X73800000Y-70292857D01*
X74014286Y-71078571D02*
X73300000Y-71078571D01*
X73300000Y-69578571D01*
X74014286Y-69578571D01*
X74657143Y-70292857D02*
X75157143Y-70292857D01*
X75371429Y-71078571D02*
X74657143Y-71078571D01*
X74657143Y-69578571D01*
X75371429Y-69578571D01*
X76014286Y-71078571D02*
X76014286Y-69578571D01*
X76371429Y-69578571D01*
X76585714Y-69650000D01*
X76728572Y-69792857D01*
X76800000Y-69935714D01*
X76871429Y-70221429D01*
X76871429Y-70435714D01*
X76800000Y-70721429D01*
X76728572Y-70864286D01*
X76585714Y-71007143D01*
X76371429Y-71078571D01*
X76014286Y-71078571D01*
X78014286Y-70292857D02*
X78228572Y-70364286D01*
X78300000Y-70435714D01*
X78371429Y-70578571D01*
X78371429Y-70792857D01*
X78300000Y-70935714D01*
X78228572Y-71007143D01*
X78085714Y-71078571D01*
X77514286Y-71078571D01*
X77514286Y-69578571D01*
X78014286Y-69578571D01*
X78157143Y-69650000D01*
X78228572Y-69721429D01*
X78300000Y-69864286D01*
X78300000Y-70007143D01*
X78228572Y-70150000D01*
X78157143Y-70221429D01*
X78014286Y-70292857D01*
X77514286Y-70292857D01*
X78942857Y-70650000D02*
X79657143Y-70650000D01*
X78800000Y-71078571D02*
X79300000Y-69578571D01*
X79800000Y-71078571D01*
X81157143Y-70935714D02*
X81085714Y-71007143D01*
X80871428Y-71078571D01*
X80728571Y-71078571D01*
X80514286Y-71007143D01*
X80371428Y-70864286D01*
X80300000Y-70721429D01*
X80228571Y-70435714D01*
X80228571Y-70221429D01*
X80300000Y-69935714D01*
X80371428Y-69792857D01*
X80514286Y-69650000D01*
X80728571Y-69578571D01*
X80871428Y-69578571D01*
X81085714Y-69650000D01*
X81157143Y-69721429D01*
X81800000Y-71078571D02*
X81800000Y-69578571D01*
X82657143Y-71078571D02*
X82014286Y-70221429D01*
X82657143Y-69578571D02*
X81800000Y-70435714D01*
X32350000Y-68064286D02*
X32421429Y-67921429D01*
X32421429Y-67707143D01*
X32350000Y-67492858D01*
X32207143Y-67350000D01*
X32064286Y-67278572D01*
X31778571Y-67207143D01*
X31564286Y-67207143D01*
X31278571Y-67278572D01*
X31135714Y-67350000D01*
X30992857Y-67492858D01*
X30921429Y-67707143D01*
X30921429Y-67850000D01*
X30992857Y-68064286D01*
X31064286Y-68135715D01*
X31564286Y-68135715D01*
X31564286Y-67850000D01*
X30921429Y-68778572D02*
X32421429Y-68778572D01*
X30921429Y-69635715D01*
X32421429Y-69635715D01*
X30921429Y-70350001D02*
X32421429Y-70350001D01*
X32421429Y-70707144D01*
X32350000Y-70921429D01*
X32207143Y-71064287D01*
X32064286Y-71135715D01*
X31778571Y-71207144D01*
X31564286Y-71207144D01*
X31278571Y-71135715D01*
X31135714Y-71064287D01*
X30992857Y-70921429D01*
X30921429Y-70707144D01*
X30921429Y-70350001D01*
X30992857Y-72921429D02*
X30921429Y-73135715D01*
X30921429Y-73492858D01*
X30992857Y-73635715D01*
X31064286Y-73707144D01*
X31207143Y-73778572D01*
X31350000Y-73778572D01*
X31492857Y-73707144D01*
X31564286Y-73635715D01*
X31635714Y-73492858D01*
X31707143Y-73207144D01*
X31778571Y-73064286D01*
X31850000Y-72992858D01*
X31992857Y-72921429D01*
X32135714Y-72921429D01*
X32278571Y-72992858D01*
X32350000Y-73064286D01*
X32421429Y-73207144D01*
X32421429Y-73564286D01*
X32350000Y-73778572D01*
X30921429Y-74421429D02*
X32421429Y-74421429D01*
X32350000Y-75921429D02*
X32421429Y-75778572D01*
X32421429Y-75564286D01*
X32350000Y-75350001D01*
X32207143Y-75207143D01*
X32064286Y-75135715D01*
X31778571Y-75064286D01*
X31564286Y-75064286D01*
X31278571Y-75135715D01*
X31135714Y-75207143D01*
X30992857Y-75350001D01*
X30921429Y-75564286D01*
X30921429Y-75707143D01*
X30992857Y-75921429D01*
X31064286Y-75992858D01*
X31564286Y-75992858D01*
X31564286Y-75707143D01*
X32250000Y-47564286D02*
X32321429Y-47421429D01*
X32321429Y-47207143D01*
X32250000Y-46992858D01*
X32107143Y-46850000D01*
X31964286Y-46778572D01*
X31678571Y-46707143D01*
X31464286Y-46707143D01*
X31178571Y-46778572D01*
X31035714Y-46850000D01*
X30892857Y-46992858D01*
X30821429Y-47207143D01*
X30821429Y-47350000D01*
X30892857Y-47564286D01*
X30964286Y-47635715D01*
X31464286Y-47635715D01*
X31464286Y-47350000D01*
X30821429Y-48278572D02*
X32321429Y-48278572D01*
X30821429Y-49135715D01*
X32321429Y-49135715D01*
X30821429Y-49850001D02*
X32321429Y-49850001D01*
X32321429Y-50207144D01*
X32250000Y-50421429D01*
X32107143Y-50564287D01*
X31964286Y-50635715D01*
X31678571Y-50707144D01*
X31464286Y-50707144D01*
X31178571Y-50635715D01*
X31035714Y-50564287D01*
X30892857Y-50421429D01*
X30821429Y-50207144D01*
X30821429Y-49850001D01*
X30892857Y-52421429D02*
X30821429Y-52635715D01*
X30821429Y-52992858D01*
X30892857Y-53135715D01*
X30964286Y-53207144D01*
X31107143Y-53278572D01*
X31250000Y-53278572D01*
X31392857Y-53207144D01*
X31464286Y-53135715D01*
X31535714Y-52992858D01*
X31607143Y-52707144D01*
X31678571Y-52564286D01*
X31750000Y-52492858D01*
X31892857Y-52421429D01*
X32035714Y-52421429D01*
X32178571Y-52492858D01*
X32250000Y-52564286D01*
X32321429Y-52707144D01*
X32321429Y-53064286D01*
X32250000Y-53278572D01*
X30821429Y-53921429D02*
X32321429Y-53921429D01*
X32250000Y-55421429D02*
X32321429Y-55278572D01*
X32321429Y-55064286D01*
X32250000Y-54850001D01*
X32107143Y-54707143D01*
X31964286Y-54635715D01*
X31678571Y-54564286D01*
X31464286Y-54564286D01*
X31178571Y-54635715D01*
X31035714Y-54707143D01*
X30892857Y-54850001D01*
X30821429Y-55064286D01*
X30821429Y-55207143D01*
X30892857Y-55421429D01*
X30964286Y-55492858D01*
X31464286Y-55492858D01*
X31464286Y-55207143D01*
X32907143Y-79503571D02*
X32907143Y-78003571D01*
X33621429Y-79503571D02*
X33621429Y-78003571D01*
X34478572Y-79503571D01*
X34478572Y-78003571D01*
X35192858Y-79503571D02*
X35192858Y-78003571D01*
X35764286Y-78003571D01*
X35907144Y-78075000D01*
X35978572Y-78146429D01*
X36050001Y-78289286D01*
X36050001Y-78503571D01*
X35978572Y-78646429D01*
X35907144Y-78717857D01*
X35764286Y-78789286D01*
X35192858Y-78789286D01*
X36692858Y-78003571D02*
X36692858Y-79217857D01*
X36764286Y-79360714D01*
X36835715Y-79432143D01*
X36978572Y-79503571D01*
X37264286Y-79503571D01*
X37407144Y-79432143D01*
X37478572Y-79360714D01*
X37550001Y-79217857D01*
X37550001Y-78003571D01*
X38050001Y-78003571D02*
X38907144Y-78003571D01*
X38478573Y-79503571D02*
X38478573Y-78003571D01*
X33800000Y-82053571D02*
X33300000Y-81339286D01*
X32942857Y-82053571D02*
X32942857Y-80553571D01*
X33514285Y-80553571D01*
X33657143Y-80625000D01*
X33728571Y-80696429D01*
X33800000Y-80839286D01*
X33800000Y-81053571D01*
X33728571Y-81196429D01*
X33657143Y-81267857D01*
X33514285Y-81339286D01*
X32942857Y-81339286D01*
X34442857Y-82053571D02*
X34442857Y-80553571D01*
X35942857Y-80625000D02*
X35800000Y-80553571D01*
X35585714Y-80553571D01*
X35371429Y-80625000D01*
X35228571Y-80767857D01*
X35157143Y-80910714D01*
X35085714Y-81196429D01*
X35085714Y-81410714D01*
X35157143Y-81696429D01*
X35228571Y-81839286D01*
X35371429Y-81982143D01*
X35585714Y-82053571D01*
X35728571Y-82053571D01*
X35942857Y-81982143D01*
X36014286Y-81910714D01*
X36014286Y-81410714D01*
X35728571Y-81410714D01*
X36657143Y-82053571D02*
X36657143Y-80553571D01*
X36657143Y-81267857D02*
X37514286Y-81267857D01*
X37514286Y-82053571D02*
X37514286Y-80553571D01*
X38014286Y-80553571D02*
X38871429Y-80553571D01*
X38442858Y-82053571D02*
X38442858Y-80553571D01*
X38792857Y-44196429D02*
X38792857Y-45696429D01*
X38078571Y-44196429D02*
X38078571Y-45696429D01*
X37221428Y-44196429D01*
X37221428Y-45696429D01*
X36507142Y-44196429D02*
X36507142Y-45696429D01*
X35935714Y-45696429D01*
X35792856Y-45625000D01*
X35721428Y-45553571D01*
X35649999Y-45410714D01*
X35649999Y-45196429D01*
X35721428Y-45053571D01*
X35792856Y-44982143D01*
X35935714Y-44910714D01*
X36507142Y-44910714D01*
X35007142Y-45696429D02*
X35007142Y-44482143D01*
X34935714Y-44339286D01*
X34864285Y-44267857D01*
X34721428Y-44196429D01*
X34435714Y-44196429D01*
X34292856Y-44267857D01*
X34221428Y-44339286D01*
X34149999Y-44482143D01*
X34149999Y-45696429D01*
X33649999Y-45696429D02*
X32792856Y-45696429D01*
X33221427Y-44196429D02*
X33221427Y-45696429D01*
X37328571Y-41646429D02*
X38042857Y-41646429D01*
X38042857Y-43146429D01*
X36828571Y-42432143D02*
X36328571Y-42432143D01*
X36114285Y-41646429D02*
X36828571Y-41646429D01*
X36828571Y-43146429D01*
X36114285Y-43146429D01*
X34971428Y-42432143D02*
X35471428Y-42432143D01*
X35471428Y-41646429D02*
X35471428Y-43146429D01*
X34757142Y-43146429D01*
X34400000Y-43146429D02*
X33542857Y-43146429D01*
X33971428Y-41646429D02*
X33971428Y-43146429D01*
X118050000Y-105335714D02*
X117978571Y-105478571D01*
X117978571Y-105692857D01*
X118050000Y-105907142D01*
X118192857Y-106050000D01*
X118335714Y-106121428D01*
X118621429Y-106192857D01*
X118835714Y-106192857D01*
X119121429Y-106121428D01*
X119264286Y-106050000D01*
X119407143Y-105907142D01*
X119478571Y-105692857D01*
X119478571Y-105550000D01*
X119407143Y-105335714D01*
X119335714Y-105264285D01*
X118835714Y-105264285D01*
X118835714Y-105550000D01*
X119478571Y-104621428D02*
X117978571Y-104621428D01*
X119478571Y-103764285D01*
X117978571Y-103764285D01*
X119478571Y-103049999D02*
X117978571Y-103049999D01*
X117978571Y-102692856D01*
X118050000Y-102478571D01*
X118192857Y-102335713D01*
X118335714Y-102264285D01*
X118621429Y-102192856D01*
X118835714Y-102192856D01*
X119121429Y-102264285D01*
X119264286Y-102335713D01*
X119407143Y-102478571D01*
X119478571Y-102692856D01*
X119478571Y-103049999D01*
X119407143Y-100478571D02*
X119478571Y-100264285D01*
X119478571Y-99907142D01*
X119407143Y-99764285D01*
X119335714Y-99692856D01*
X119192857Y-99621428D01*
X119050000Y-99621428D01*
X118907143Y-99692856D01*
X118835714Y-99764285D01*
X118764286Y-99907142D01*
X118692857Y-100192856D01*
X118621429Y-100335714D01*
X118550000Y-100407142D01*
X118407143Y-100478571D01*
X118264286Y-100478571D01*
X118121429Y-100407142D01*
X118050000Y-100335714D01*
X117978571Y-100192856D01*
X117978571Y-99835714D01*
X118050000Y-99621428D01*
X119478571Y-98978571D02*
X117978571Y-98978571D01*
X118050000Y-97478571D02*
X117978571Y-97621428D01*
X117978571Y-97835714D01*
X118050000Y-98049999D01*
X118192857Y-98192857D01*
X118335714Y-98264285D01*
X118621429Y-98335714D01*
X118835714Y-98335714D01*
X119121429Y-98264285D01*
X119264286Y-98192857D01*
X119407143Y-98049999D01*
X119478571Y-97835714D01*
X119478571Y-97692857D01*
X119407143Y-97478571D01*
X119335714Y-97407142D01*
X118835714Y-97407142D01*
X118835714Y-97692857D01*
X118050000Y-79435714D02*
X117978571Y-79578571D01*
X117978571Y-79792857D01*
X118050000Y-80007142D01*
X118192857Y-80150000D01*
X118335714Y-80221428D01*
X118621429Y-80292857D01*
X118835714Y-80292857D01*
X119121429Y-80221428D01*
X119264286Y-80150000D01*
X119407143Y-80007142D01*
X119478571Y-79792857D01*
X119478571Y-79650000D01*
X119407143Y-79435714D01*
X119335714Y-79364285D01*
X118835714Y-79364285D01*
X118835714Y-79650000D01*
X119478571Y-78721428D02*
X117978571Y-78721428D01*
X119478571Y-77864285D01*
X117978571Y-77864285D01*
X119478571Y-77149999D02*
X117978571Y-77149999D01*
X117978571Y-76792856D01*
X118050000Y-76578571D01*
X118192857Y-76435713D01*
X118335714Y-76364285D01*
X118621429Y-76292856D01*
X118835714Y-76292856D01*
X119121429Y-76364285D01*
X119264286Y-76435713D01*
X119407143Y-76578571D01*
X119478571Y-76792856D01*
X119478571Y-77149999D01*
X119407143Y-74578571D02*
X119478571Y-74364285D01*
X119478571Y-74007142D01*
X119407143Y-73864285D01*
X119335714Y-73792856D01*
X119192857Y-73721428D01*
X119050000Y-73721428D01*
X118907143Y-73792856D01*
X118835714Y-73864285D01*
X118764286Y-74007142D01*
X118692857Y-74292856D01*
X118621429Y-74435714D01*
X118550000Y-74507142D01*
X118407143Y-74578571D01*
X118264286Y-74578571D01*
X118121429Y-74507142D01*
X118050000Y-74435714D01*
X117978571Y-74292856D01*
X117978571Y-73935714D01*
X118050000Y-73721428D01*
X119478571Y-73078571D02*
X117978571Y-73078571D01*
X118050000Y-71578571D02*
X117978571Y-71721428D01*
X117978571Y-71935714D01*
X118050000Y-72149999D01*
X118192857Y-72292857D01*
X118335714Y-72364285D01*
X118621429Y-72435714D01*
X118835714Y-72435714D01*
X119121429Y-72364285D01*
X119264286Y-72292857D01*
X119407143Y-72149999D01*
X119478571Y-71935714D01*
X119478571Y-71792857D01*
X119407143Y-71578571D01*
X119335714Y-71507142D01*
X118835714Y-71507142D01*
X118835714Y-71792857D01*
X128407143Y-69196429D02*
X128121429Y-69196429D01*
X127978571Y-69125000D01*
X127835714Y-68982143D01*
X127764286Y-68696429D01*
X127764286Y-68196429D01*
X127835714Y-67910714D01*
X127978571Y-67767857D01*
X128121429Y-67696429D01*
X128407143Y-67696429D01*
X128550000Y-67767857D01*
X128692857Y-67910714D01*
X128764286Y-68196429D01*
X128764286Y-68696429D01*
X128692857Y-68982143D01*
X128550000Y-69125000D01*
X128407143Y-69196429D01*
X127121428Y-69196429D02*
X127121428Y-67982143D01*
X127050000Y-67839286D01*
X126978571Y-67767857D01*
X126835714Y-67696429D01*
X126550000Y-67696429D01*
X126407142Y-67767857D01*
X126335714Y-67839286D01*
X126264285Y-67982143D01*
X126264285Y-69196429D01*
X125764285Y-69196429D02*
X124907142Y-69196429D01*
X125335713Y-67696429D02*
X125335713Y-69196429D01*
X124407142Y-67696429D02*
X124407142Y-69196429D01*
X123835714Y-69196429D01*
X123692856Y-69125000D01*
X123621428Y-69053571D01*
X123549999Y-68910714D01*
X123549999Y-68696429D01*
X123621428Y-68553571D01*
X123692856Y-68482143D01*
X123835714Y-68410714D01*
X124407142Y-68410714D01*
X122907142Y-69196429D02*
X122907142Y-67982143D01*
X122835714Y-67839286D01*
X122764285Y-67767857D01*
X122621428Y-67696429D01*
X122335714Y-67696429D01*
X122192856Y-67767857D01*
X122121428Y-67839286D01*
X122049999Y-67982143D01*
X122049999Y-69196429D01*
X121549999Y-69196429D02*
X120692856Y-69196429D01*
X121121427Y-67696429D02*
X121121427Y-69196429D01*
X126228571Y-65146429D02*
X126942857Y-65146429D01*
X126942857Y-66646429D01*
X125728571Y-65932143D02*
X125228571Y-65932143D01*
X125014285Y-65146429D02*
X125728571Y-65146429D01*
X125728571Y-66646429D01*
X125014285Y-66646429D01*
X123871428Y-65932143D02*
X124371428Y-65932143D01*
X124371428Y-65146429D02*
X124371428Y-66646429D01*
X123657142Y-66646429D01*
X123300000Y-66646429D02*
X122442857Y-66646429D01*
X122871428Y-65146429D02*
X122871428Y-66646429D01*
X119892857Y-120303571D02*
X120178571Y-120303571D01*
X120321429Y-120375000D01*
X120464286Y-120517857D01*
X120535714Y-120803571D01*
X120535714Y-121303571D01*
X120464286Y-121589286D01*
X120321429Y-121732143D01*
X120178571Y-121803571D01*
X119892857Y-121803571D01*
X119750000Y-121732143D01*
X119607143Y-121589286D01*
X119535714Y-121303571D01*
X119535714Y-120803571D01*
X119607143Y-120517857D01*
X119750000Y-120375000D01*
X119892857Y-120303571D01*
X121178572Y-120303571D02*
X121178572Y-121517857D01*
X121250000Y-121660714D01*
X121321429Y-121732143D01*
X121464286Y-121803571D01*
X121750000Y-121803571D01*
X121892858Y-121732143D01*
X121964286Y-121660714D01*
X122035715Y-121517857D01*
X122035715Y-120303571D01*
X122535715Y-120303571D02*
X123392858Y-120303571D01*
X122964287Y-121803571D02*
X122964287Y-120303571D01*
X123892858Y-121803571D02*
X123892858Y-120303571D01*
X124464286Y-120303571D01*
X124607144Y-120375000D01*
X124678572Y-120446429D01*
X124750001Y-120589286D01*
X124750001Y-120803571D01*
X124678572Y-120946429D01*
X124607144Y-121017857D01*
X124464286Y-121089286D01*
X123892858Y-121089286D01*
X125392858Y-120303571D02*
X125392858Y-121517857D01*
X125464286Y-121660714D01*
X125535715Y-121732143D01*
X125678572Y-121803571D01*
X125964286Y-121803571D01*
X126107144Y-121732143D01*
X126178572Y-121660714D01*
X126250001Y-121517857D01*
X126250001Y-120303571D01*
X126750001Y-120303571D02*
X127607144Y-120303571D01*
X127178573Y-121803571D02*
X127178573Y-120303571D01*
X121500000Y-124353571D02*
X121000000Y-123639286D01*
X120642857Y-124353571D02*
X120642857Y-122853571D01*
X121214285Y-122853571D01*
X121357143Y-122925000D01*
X121428571Y-122996429D01*
X121500000Y-123139286D01*
X121500000Y-123353571D01*
X121428571Y-123496429D01*
X121357143Y-123567857D01*
X121214285Y-123639286D01*
X120642857Y-123639286D01*
X122142857Y-124353571D02*
X122142857Y-122853571D01*
X123642857Y-122925000D02*
X123500000Y-122853571D01*
X123285714Y-122853571D01*
X123071429Y-122925000D01*
X122928571Y-123067857D01*
X122857143Y-123210714D01*
X122785714Y-123496429D01*
X122785714Y-123710714D01*
X122857143Y-123996429D01*
X122928571Y-124139286D01*
X123071429Y-124282143D01*
X123285714Y-124353571D01*
X123428571Y-124353571D01*
X123642857Y-124282143D01*
X123714286Y-124210714D01*
X123714286Y-123710714D01*
X123428571Y-123710714D01*
X124357143Y-124353571D02*
X124357143Y-122853571D01*
X124357143Y-123567857D02*
X125214286Y-123567857D01*
X125214286Y-124353571D02*
X125214286Y-122853571D01*
X125714286Y-122853571D02*
X126571429Y-122853571D01*
X126142858Y-124353571D02*
X126142858Y-122853571D01*
D12*
X97704762Y-104452381D02*
X97895239Y-104452381D01*
X97990477Y-104500000D01*
X98085715Y-104595238D01*
X98133334Y-104785714D01*
X98133334Y-105119048D01*
X98085715Y-105309524D01*
X97990477Y-105404762D01*
X97895239Y-105452381D01*
X97704762Y-105452381D01*
X97609524Y-105404762D01*
X97514286Y-105309524D01*
X97466667Y-105119048D01*
X97466667Y-104785714D01*
X97514286Y-104595238D01*
X97609524Y-104500000D01*
X97704762Y-104452381D01*
X98561905Y-105452381D02*
X98561905Y-104452381D01*
X98942858Y-104452381D01*
X99038096Y-104500000D01*
X99085715Y-104547619D01*
X99133334Y-104642857D01*
X99133334Y-104785714D01*
X99085715Y-104880952D01*
X99038096Y-104928571D01*
X98942858Y-104976190D01*
X98561905Y-104976190D01*
X99514286Y-105166667D02*
X99990477Y-105166667D01*
X99419048Y-105452381D02*
X99752381Y-104452381D01*
X100085715Y-105452381D01*
X100419048Y-105452381D02*
X100419048Y-104452381D01*
X100752382Y-105166667D01*
X101085715Y-104452381D01*
X101085715Y-105452381D01*
X101561905Y-105452381D02*
X101561905Y-104452381D01*
X101942858Y-104452381D01*
X102038096Y-104500000D01*
X102085715Y-104547619D01*
X102133334Y-104642857D01*
X102133334Y-104785714D01*
X102085715Y-104880952D01*
X102038096Y-104928571D01*
X101942858Y-104976190D01*
X101561905Y-104976190D01*
X59152381Y-120895238D02*
X59152381Y-120704761D01*
X59200000Y-120609523D01*
X59295238Y-120514285D01*
X59485714Y-120466666D01*
X59819048Y-120466666D01*
X60009524Y-120514285D01*
X60104762Y-120609523D01*
X60152381Y-120704761D01*
X60152381Y-120895238D01*
X60104762Y-120990476D01*
X60009524Y-121085714D01*
X59819048Y-121133333D01*
X59485714Y-121133333D01*
X59295238Y-121085714D01*
X59200000Y-120990476D01*
X59152381Y-120895238D01*
X60152381Y-120038095D02*
X59152381Y-120038095D01*
X59152381Y-119657142D01*
X59200000Y-119561904D01*
X59247619Y-119514285D01*
X59342857Y-119466666D01*
X59485714Y-119466666D01*
X59580952Y-119514285D01*
X59628571Y-119561904D01*
X59676190Y-119657142D01*
X59676190Y-120038095D01*
X59866667Y-119085714D02*
X59866667Y-118609523D01*
X60152381Y-119180952D02*
X59152381Y-118847619D01*
X60152381Y-118514285D01*
X60152381Y-118180952D02*
X59152381Y-118180952D01*
X59866667Y-117847618D01*
X59152381Y-117514285D01*
X60152381Y-117514285D01*
X60152381Y-117038095D02*
X59152381Y-117038095D01*
X59152381Y-116657142D01*
X59200000Y-116561904D01*
X59247619Y-116514285D01*
X59342857Y-116466666D01*
X59485714Y-116466666D01*
X59580952Y-116514285D01*
X59628571Y-116561904D01*
X59676190Y-116657142D01*
X59676190Y-117038095D01*
X49604762Y-54252381D02*
X49795239Y-54252381D01*
X49890477Y-54300000D01*
X49985715Y-54395238D01*
X50033334Y-54585714D01*
X50033334Y-54919048D01*
X49985715Y-55109524D01*
X49890477Y-55204762D01*
X49795239Y-55252381D01*
X49604762Y-55252381D01*
X49509524Y-55204762D01*
X49414286Y-55109524D01*
X49366667Y-54919048D01*
X49366667Y-54585714D01*
X49414286Y-54395238D01*
X49509524Y-54300000D01*
X49604762Y-54252381D01*
X50461905Y-55252381D02*
X50461905Y-54252381D01*
X50842858Y-54252381D01*
X50938096Y-54300000D01*
X50985715Y-54347619D01*
X51033334Y-54442857D01*
X51033334Y-54585714D01*
X50985715Y-54680952D01*
X50938096Y-54728571D01*
X50842858Y-54776190D01*
X50461905Y-54776190D01*
X51414286Y-54966667D02*
X51890477Y-54966667D01*
X51319048Y-55252381D02*
X51652381Y-54252381D01*
X51985715Y-55252381D01*
X52319048Y-55252381D02*
X52319048Y-54252381D01*
X52652382Y-54966667D01*
X52985715Y-54252381D01*
X52985715Y-55252381D01*
X53461905Y-55252381D02*
X53461905Y-54252381D01*
X53842858Y-54252381D01*
X53938096Y-54300000D01*
X53985715Y-54347619D01*
X54033334Y-54442857D01*
X54033334Y-54585714D01*
X53985715Y-54680952D01*
X53938096Y-54728571D01*
X53842858Y-54776190D01*
X53461905Y-54776190D01*
X106661905Y-56552381D02*
X106661905Y-55552381D01*
X107042858Y-55552381D01*
X107138096Y-55600000D01*
X107185715Y-55647619D01*
X107233334Y-55742857D01*
X107233334Y-55885714D01*
X107185715Y-55980952D01*
X107138096Y-56028571D01*
X107042858Y-56076190D01*
X106661905Y-56076190D01*
X108233334Y-56457143D02*
X108185715Y-56504762D01*
X108042858Y-56552381D01*
X107947620Y-56552381D01*
X107804762Y-56504762D01*
X107709524Y-56409524D01*
X107661905Y-56314286D01*
X107614286Y-56123810D01*
X107614286Y-55980952D01*
X107661905Y-55790476D01*
X107709524Y-55695238D01*
X107804762Y-55600000D01*
X107947620Y-55552381D01*
X108042858Y-55552381D01*
X108185715Y-55600000D01*
X108233334Y-55647619D01*
X108661905Y-56552381D02*
X108661905Y-55552381D01*
X108995239Y-56266667D01*
X109328572Y-55552381D01*
X109328572Y-56552381D01*
X109757143Y-55647619D02*
X109804762Y-55600000D01*
X109900000Y-55552381D01*
X110138096Y-55552381D01*
X110233334Y-55600000D01*
X110280953Y-55647619D01*
X110328572Y-55742857D01*
X110328572Y-55838095D01*
X110280953Y-55980952D01*
X109709524Y-56552381D01*
X110328572Y-56552381D01*
X110804762Y-56552381D02*
X110995238Y-56552381D01*
X111090477Y-56504762D01*
X111138096Y-56457143D01*
X111233334Y-56314286D01*
X111280953Y-56123810D01*
X111280953Y-55742857D01*
X111233334Y-55647619D01*
X111185715Y-55600000D01*
X111090477Y-55552381D01*
X110900000Y-55552381D01*
X110804762Y-55600000D01*
X110757143Y-55647619D01*
X110709524Y-55742857D01*
X110709524Y-55980952D01*
X110757143Y-56076190D01*
X110804762Y-56123810D01*
X110900000Y-56171429D01*
X111090477Y-56171429D01*
X111185715Y-56123810D01*
X111233334Y-56076190D01*
X111280953Y-55980952D01*
X111900000Y-55552381D02*
X111995239Y-55552381D01*
X112090477Y-55600000D01*
X112138096Y-55647619D01*
X112185715Y-55742857D01*
X112233334Y-55933333D01*
X112233334Y-56171429D01*
X112185715Y-56361905D01*
X112138096Y-56457143D01*
X112090477Y-56504762D01*
X111995239Y-56552381D01*
X111900000Y-56552381D01*
X111804762Y-56504762D01*
X111757143Y-56457143D01*
X111709524Y-56361905D01*
X111661905Y-56171429D01*
X111661905Y-55933333D01*
X111709524Y-55742857D01*
X111757143Y-55647619D01*
X111804762Y-55600000D01*
X111900000Y-55552381D01*
X112852381Y-55552381D02*
X112947620Y-55552381D01*
X113042858Y-55600000D01*
X113090477Y-55647619D01*
X113138096Y-55742857D01*
X113185715Y-55933333D01*
X113185715Y-56171429D01*
X113138096Y-56361905D01*
X113090477Y-56457143D01*
X113042858Y-56504762D01*
X112947620Y-56552381D01*
X112852381Y-56552381D01*
X112757143Y-56504762D01*
X112709524Y-56457143D01*
X112661905Y-56361905D01*
X112614286Y-56171429D01*
X112614286Y-55933333D01*
X112661905Y-55742857D01*
X112709524Y-55647619D01*
X112757143Y-55600000D01*
X112852381Y-55552381D01*
X62685715Y-122752381D02*
X62114286Y-122752381D01*
X62400000Y-122752381D02*
X62400000Y-121752381D01*
X62304762Y-121895238D01*
X62209524Y-121990476D01*
X62114286Y-122038095D01*
X48585715Y-57752381D02*
X48014286Y-57752381D01*
X48300000Y-57752381D02*
X48300000Y-56752381D01*
X48204762Y-56895238D01*
X48109524Y-56990476D01*
X48014286Y-57038095D01*
X103585715Y-102652381D02*
X103014286Y-102652381D01*
X103300000Y-102652381D02*
X103300000Y-101652381D01*
X103204762Y-101795238D01*
X103109524Y-101890476D01*
X103014286Y-101938095D01*
X116485715Y-52752381D02*
X115914286Y-52752381D01*
X116200000Y-52752381D02*
X116200000Y-51752381D01*
X116104762Y-51895238D01*
X116009524Y-51990476D01*
X115914286Y-52038095D01*
D13*
X94500000Y-34020000D02*
X96500000Y-34020000D01*
X96500000Y-31980000D02*
X94500000Y-31980000D01*
X107480000Y-45000000D02*
X107480000Y-47000000D01*
X109520000Y-47000000D02*
X109520000Y-45000000D01*
X112650000Y-47500000D02*
X112650000Y-48500000D01*
X114350000Y-48500000D02*
X114350000Y-47500000D01*
X45600000Y-47280000D02*
X43600000Y-47280000D01*
X43600000Y-49320000D02*
X45600000Y-49320000D01*
X98000000Y-54720000D02*
X100000000Y-54720000D01*
X100000000Y-52680000D02*
X98000000Y-52680000D01*
X103150000Y-63500000D02*
X103150000Y-64500000D01*
X104850000Y-64500000D02*
X104850000Y-63500000D01*
X118500000Y-59150000D02*
X117500000Y-59150000D01*
X117500000Y-60850000D02*
X118500000Y-60850000D01*
X117500000Y-64850000D02*
X118500000Y-64850000D01*
X118500000Y-63150000D02*
X117500000Y-63150000D01*
X106650000Y-63500000D02*
X106650000Y-64500000D01*
X108350000Y-64500000D02*
X108350000Y-63500000D01*
X117350000Y-69000000D02*
X117350000Y-68000000D01*
X115650000Y-68000000D02*
X115650000Y-69000000D01*
X106650000Y-68500000D02*
X106650000Y-69500000D01*
X108350000Y-69500000D02*
X108350000Y-68500000D01*
X77800000Y-114950000D02*
X78800000Y-114950000D01*
X78800000Y-113250000D02*
X77800000Y-113250000D01*
X68740000Y-112890000D02*
X73860000Y-112890000D01*
X68740000Y-115510000D02*
X73860000Y-115510000D01*
X68740000Y-112890000D02*
X68740000Y-113204000D01*
X68740000Y-115196000D02*
X68740000Y-115510000D01*
X73860000Y-112890000D02*
X73860000Y-113204000D01*
X73860000Y-115196000D02*
X73860000Y-115510000D01*
X86250000Y-110800000D02*
X86250000Y-111800000D01*
X87950000Y-111800000D02*
X87950000Y-110800000D01*
X89390000Y-114960000D02*
X89390000Y-109840000D01*
X92010000Y-114960000D02*
X92010000Y-109840000D01*
X89390000Y-114960000D02*
X89704000Y-114960000D01*
X91696000Y-114960000D02*
X92010000Y-114960000D01*
X89390000Y-109840000D02*
X89704000Y-109840000D01*
X91696000Y-109840000D02*
X92010000Y-109840000D01*
X107300000Y-112180000D02*
X105300000Y-112180000D01*
X105300000Y-114220000D02*
X107300000Y-114220000D01*
X103050000Y-108600000D02*
X103050000Y-109600000D01*
X104750000Y-109600000D02*
X104750000Y-108600000D01*
X113400000Y-115480000D02*
X111400000Y-115480000D01*
X111400000Y-117520000D02*
X113400000Y-117520000D01*
X122750000Y-43500000D02*
X122750000Y-40300000D01*
X124250000Y-40300000D02*
X124250000Y-43500000D01*
X124250000Y-40300000D02*
X122750000Y-40300000D01*
X115370000Y-31150000D02*
X115370000Y-22510000D01*
X115370000Y-39530000D02*
X115370000Y-34450000D01*
X103170000Y-31150000D02*
X103170000Y-22510000D01*
X103170000Y-39530000D02*
X103170000Y-34450000D01*
X103170000Y-22510000D02*
X115370000Y-22510000D01*
X115370000Y-39530000D02*
X103170000Y-39530000D01*
X121960000Y-106620000D02*
X121960000Y-96460000D01*
X120690000Y-106620000D02*
X128310000Y-106620000D01*
X128310000Y-106620000D02*
X128310000Y-96460000D01*
X128310000Y-96460000D02*
X120690000Y-96460000D01*
X120690000Y-96460000D02*
X120690000Y-106620000D01*
X120580000Y-48240000D02*
X119650000Y-48240000D01*
X117420000Y-48240000D02*
X118350000Y-48240000D01*
X117420000Y-48240000D02*
X117420000Y-50400000D01*
X120580000Y-48240000D02*
X120580000Y-49700000D01*
X120600000Y-36380000D02*
X119400000Y-36380000D01*
X119400000Y-34620000D02*
X120600000Y-34620000D01*
X113380000Y-41900000D02*
X113380000Y-43100000D01*
X111620000Y-43100000D02*
X111620000Y-41900000D01*
X120380000Y-41900000D02*
X120380000Y-43100000D01*
X118620000Y-43100000D02*
X118620000Y-41900000D01*
X116880000Y-41900000D02*
X116880000Y-43100000D01*
X115120000Y-43100000D02*
X115120000Y-41900000D01*
X118880000Y-53900000D02*
X118880000Y-55100000D01*
X117120000Y-55100000D02*
X117120000Y-53900000D01*
X112100000Y-64880000D02*
X110900000Y-64880000D01*
X110900000Y-63120000D02*
X112100000Y-63120000D01*
X122620000Y-49600000D02*
X122620000Y-48400000D01*
X124380000Y-48400000D02*
X124380000Y-49600000D01*
X69200000Y-104820000D02*
X69200000Y-104490000D01*
X69200000Y-104490000D02*
X75620000Y-104490000D01*
X75620000Y-104490000D02*
X75620000Y-104820000D01*
X69200000Y-106780000D02*
X69200000Y-107110000D01*
X69200000Y-107110000D02*
X75620000Y-107110000D01*
X75620000Y-107110000D02*
X75620000Y-106780000D01*
X72800000Y-110380000D02*
X71600000Y-110380000D01*
X71600000Y-108620000D02*
X72800000Y-108620000D01*
X93620000Y-114300000D02*
X93290000Y-114300000D01*
X93290000Y-114300000D02*
X93290000Y-107880000D01*
X93290000Y-107880000D02*
X93620000Y-107880000D01*
X95580000Y-114300000D02*
X95910000Y-114300000D01*
X95910000Y-114300000D02*
X95910000Y-107880000D01*
X95910000Y-107880000D02*
X95580000Y-107880000D01*
X99700000Y-115480000D02*
X98500000Y-115480000D01*
X98500000Y-113720000D02*
X99700000Y-113720000D01*
X81500000Y-106180000D02*
X80300000Y-106180000D01*
X80300000Y-104420000D02*
X81500000Y-104420000D01*
X77200000Y-109020000D02*
X77200000Y-108690000D01*
X77200000Y-108690000D02*
X83620000Y-108690000D01*
X83620000Y-108690000D02*
X83620000Y-109020000D01*
X77200000Y-110980000D02*
X77200000Y-111310000D01*
X77200000Y-111310000D02*
X83620000Y-111310000D01*
X83620000Y-111310000D02*
X83620000Y-110980000D01*
X106300000Y-117280000D02*
X105100000Y-117280000D01*
X105100000Y-115520000D02*
X106300000Y-115520000D01*
X93590000Y-35090000D02*
X93590000Y-36350000D01*
X93590000Y-41910000D02*
X93590000Y-40650000D01*
X97350000Y-35090000D02*
X93590000Y-35090000D01*
X99600000Y-41910000D02*
X93590000Y-41910000D01*
D12*
X115325000Y-53125000D02*
X114750000Y-53125000D01*
X115325000Y-58875000D02*
X114675000Y-58875000D01*
X104675000Y-58875000D02*
X105325000Y-58875000D01*
X104675000Y-53125000D02*
X105325000Y-53125000D01*
X115325000Y-53125000D02*
X115325000Y-58875000D01*
X104675000Y-53125000D02*
X104675000Y-58875000D01*
X114750000Y-53125000D02*
X114750000Y-51525000D01*
X102275000Y-102825000D02*
X102225000Y-102825000D01*
X102275000Y-106975000D02*
X102130000Y-106975000D01*
X97125000Y-106975000D02*
X97270000Y-106975000D01*
X97125000Y-102825000D02*
X97270000Y-102825000D01*
X102275000Y-102825000D02*
X102275000Y-106975000D01*
X97125000Y-102825000D02*
X97125000Y-106975000D01*
X102225000Y-102825000D02*
X102225000Y-101425000D01*
D13*
X114700000Y-70750000D02*
X114700000Y-66250000D01*
X114700000Y-66250000D02*
X109300000Y-66250000D01*
D14*
X128300000Y-108700000D02*
X128300000Y-118700000D01*
X128300000Y-118700000D02*
X118300000Y-118700000D01*
X118300000Y-118700000D02*
X118300000Y-108700000D01*
X118300000Y-108700000D02*
X128300000Y-108700000D01*
D13*
X79500000Y-94450000D02*
X80500000Y-94450000D01*
X80500000Y-92750000D02*
X79500000Y-92750000D01*
X70340000Y-91790000D02*
X75460000Y-91790000D01*
X70340000Y-94410000D02*
X75460000Y-94410000D01*
X70340000Y-91790000D02*
X70340000Y-92104000D01*
X70340000Y-94096000D02*
X70340000Y-94410000D01*
X75460000Y-91790000D02*
X75460000Y-92104000D01*
X75460000Y-94096000D02*
X75460000Y-94410000D01*
X87550000Y-98800000D02*
X87550000Y-97800000D01*
X85850000Y-97800000D02*
X85850000Y-98800000D01*
X91310000Y-96940000D02*
X91310000Y-102060000D01*
X88690000Y-96940000D02*
X88690000Y-102060000D01*
X91310000Y-96940000D02*
X90996000Y-96940000D01*
X89004000Y-96940000D02*
X88690000Y-96940000D01*
X91310000Y-102060000D02*
X90996000Y-102060000D01*
X89004000Y-102060000D02*
X88690000Y-102060000D01*
X113200000Y-97980000D02*
X111200000Y-97980000D01*
X111200000Y-100020000D02*
X113200000Y-100020000D01*
D14*
X127900000Y-82900000D02*
X127900000Y-92900000D01*
X127900000Y-92900000D02*
X117900000Y-92900000D01*
X117900000Y-92900000D02*
X117900000Y-82900000D01*
X117900000Y-82900000D02*
X127900000Y-82900000D01*
D13*
X122260000Y-80620000D02*
X122260000Y-70460000D01*
X120990000Y-80620000D02*
X128610000Y-80620000D01*
X128610000Y-80620000D02*
X128610000Y-70460000D01*
X128610000Y-70460000D02*
X120990000Y-70460000D01*
X120990000Y-70460000D02*
X120990000Y-80620000D01*
X69200000Y-100520000D02*
X69200000Y-100190000D01*
X69200000Y-100190000D02*
X75620000Y-100190000D01*
X75620000Y-100190000D02*
X75620000Y-100520000D01*
X69200000Y-102480000D02*
X69200000Y-102810000D01*
X69200000Y-102810000D02*
X75620000Y-102810000D01*
X75620000Y-102810000D02*
X75620000Y-102480000D01*
X72800000Y-99080000D02*
X71600000Y-99080000D01*
X71600000Y-97320000D02*
X72800000Y-97320000D01*
X95080000Y-96200000D02*
X95410000Y-96200000D01*
X95410000Y-96200000D02*
X95410000Y-102620000D01*
X95410000Y-102620000D02*
X95080000Y-102620000D01*
X93120000Y-96200000D02*
X92790000Y-96200000D01*
X92790000Y-96200000D02*
X92790000Y-102620000D01*
X92790000Y-102620000D02*
X93120000Y-102620000D01*
X99900000Y-97080000D02*
X98700000Y-97080000D01*
X98700000Y-95320000D02*
X99900000Y-95320000D01*
X81600000Y-102280000D02*
X80400000Y-102280000D01*
X80400000Y-100520000D02*
X81600000Y-100520000D01*
X76800000Y-96820000D02*
X76800000Y-96490000D01*
X76800000Y-96490000D02*
X83220000Y-96490000D01*
X83220000Y-96490000D02*
X83220000Y-96820000D01*
X76800000Y-98780000D02*
X76800000Y-99110000D01*
X76800000Y-99110000D02*
X83220000Y-99110000D01*
X83220000Y-99110000D02*
X83220000Y-98780000D01*
X106000000Y-99880000D02*
X104800000Y-99880000D01*
X104800000Y-98120000D02*
X106000000Y-98120000D01*
X90600000Y-104450000D02*
X89600000Y-104450000D01*
X89600000Y-106150000D02*
X90600000Y-106150000D01*
X68800000Y-119450000D02*
X67800000Y-119450000D01*
X67800000Y-121150000D02*
X68800000Y-121150000D01*
X63200000Y-123080000D02*
X61200000Y-123080000D01*
X61200000Y-125120000D02*
X63200000Y-125120000D01*
X56100000Y-123250000D02*
X55100000Y-123250000D01*
X55100000Y-124950000D02*
X56100000Y-124950000D01*
X62880000Y-106300000D02*
X63210000Y-106300000D01*
X63210000Y-106300000D02*
X63210000Y-112720000D01*
X63210000Y-112720000D02*
X62880000Y-112720000D01*
X60920000Y-106300000D02*
X60590000Y-106300000D01*
X60590000Y-106300000D02*
X60590000Y-112720000D01*
X60590000Y-112720000D02*
X60920000Y-112720000D01*
X66980000Y-111200000D02*
X66980000Y-112400000D01*
X65220000Y-112400000D02*
X65220000Y-111200000D01*
X78300000Y-119520000D02*
X78300000Y-119190000D01*
X78300000Y-119190000D02*
X84720000Y-119190000D01*
X84720000Y-119190000D02*
X84720000Y-119520000D01*
X78300000Y-121480000D02*
X78300000Y-121810000D01*
X78300000Y-121810000D02*
X84720000Y-121810000D01*
X84720000Y-121810000D02*
X84720000Y-121480000D01*
X72800000Y-119520000D02*
X74000000Y-119520000D01*
X74000000Y-121280000D02*
X72800000Y-121280000D01*
X100900000Y-119520000D02*
X102100000Y-119520000D01*
X102100000Y-121280000D02*
X100900000Y-121280000D01*
X96700000Y-121380000D02*
X96700000Y-121710000D01*
X96700000Y-121710000D02*
X90280000Y-121710000D01*
X90280000Y-121710000D02*
X90280000Y-121380000D01*
X96700000Y-119420000D02*
X96700000Y-119090000D01*
X96700000Y-119090000D02*
X90280000Y-119090000D01*
X90280000Y-119090000D02*
X90280000Y-119420000D01*
X96700000Y-124880000D02*
X96700000Y-125210000D01*
X96700000Y-125210000D02*
X90280000Y-125210000D01*
X90280000Y-125210000D02*
X90280000Y-124880000D01*
X96700000Y-122920000D02*
X96700000Y-122590000D01*
X96700000Y-122590000D02*
X90280000Y-122590000D01*
X90280000Y-122590000D02*
X90280000Y-122920000D01*
X100900000Y-123120000D02*
X102100000Y-123120000D01*
X102100000Y-124880000D02*
X100900000Y-124880000D01*
X51600000Y-108520000D02*
X51600000Y-108190000D01*
X51600000Y-108190000D02*
X58020000Y-108190000D01*
X58020000Y-108190000D02*
X58020000Y-108520000D01*
X51600000Y-110480000D02*
X51600000Y-110810000D01*
X51600000Y-110810000D02*
X58020000Y-110810000D01*
X58020000Y-110810000D02*
X58020000Y-110480000D01*
X56500000Y-112620000D02*
X57700000Y-112620000D01*
X57700000Y-114380000D02*
X56500000Y-114380000D01*
D12*
X61675000Y-121375000D02*
X61675000Y-121325000D01*
X57525000Y-121375000D02*
X57525000Y-121230000D01*
X57525000Y-116225000D02*
X57525000Y-116370000D01*
X61675000Y-116225000D02*
X61675000Y-116370000D01*
X61675000Y-121375000D02*
X57525000Y-121375000D01*
X61675000Y-116225000D02*
X57525000Y-116225000D01*
X61675000Y-121325000D02*
X63075000Y-121325000D01*
D13*
X39340000Y-46480000D02*
X39340000Y-56640000D01*
X40610000Y-46480000D02*
X32990000Y-46480000D01*
X32990000Y-46480000D02*
X32990000Y-56640000D01*
X32990000Y-56640000D02*
X40610000Y-56640000D01*
X40610000Y-56640000D02*
X40610000Y-46480000D01*
X113820000Y-112200000D02*
X113820000Y-111000000D01*
X115580000Y-111000000D02*
X115580000Y-112200000D01*
X111700000Y-102980000D02*
X110500000Y-102980000D01*
X110500000Y-101220000D02*
X111700000Y-101220000D01*
X59000000Y-44950000D02*
X60000000Y-44950000D01*
X60000000Y-43250000D02*
X59000000Y-43250000D01*
X49380000Y-39900000D02*
X49380000Y-41900000D01*
X51420000Y-41900000D02*
X51420000Y-39900000D01*
X70730000Y-52190000D02*
X68070000Y-52190000D01*
X70730000Y-57330000D02*
X70730000Y-52190000D01*
X68070000Y-57330000D02*
X68070000Y-52190000D01*
X70730000Y-57330000D02*
X68070000Y-57330000D01*
X70730000Y-58600000D02*
X70730000Y-59930000D01*
X70730000Y-59930000D02*
X69400000Y-59930000D01*
X45200000Y-45480000D02*
X44000000Y-45480000D01*
X44000000Y-43720000D02*
X45200000Y-43720000D01*
X61780000Y-47300000D02*
X61780000Y-48500000D01*
X60020000Y-48500000D02*
X60020000Y-47300000D01*
X58480000Y-47200000D02*
X58480000Y-48400000D01*
X56720000Y-48400000D02*
X56720000Y-47200000D01*
X55580000Y-42200000D02*
X55910000Y-42200000D01*
X55910000Y-42200000D02*
X55910000Y-48620000D01*
X55910000Y-48620000D02*
X55580000Y-48620000D01*
X53620000Y-42200000D02*
X53290000Y-42200000D01*
X53290000Y-42200000D02*
X53290000Y-48620000D01*
X53290000Y-48620000D02*
X53620000Y-48620000D01*
X62400000Y-54080000D02*
X61200000Y-54080000D01*
X61200000Y-52320000D02*
X62400000Y-52320000D01*
X64900000Y-57280000D02*
X64900000Y-57610000D01*
X64900000Y-57610000D02*
X58480000Y-57610000D01*
X58480000Y-57610000D02*
X58480000Y-57280000D01*
X64900000Y-55320000D02*
X64900000Y-54990000D01*
X64900000Y-54990000D02*
X58480000Y-54990000D01*
X58480000Y-54990000D02*
X58480000Y-55320000D01*
D12*
X49225000Y-56675000D02*
X49275000Y-56675000D01*
X49225000Y-52525000D02*
X49370000Y-52525000D01*
X54375000Y-52525000D02*
X54230000Y-52525000D01*
X54375000Y-56675000D02*
X54230000Y-56675000D01*
X49225000Y-56675000D02*
X49225000Y-52525000D01*
X54375000Y-56675000D02*
X54375000Y-52525000D01*
X49275000Y-56675000D02*
X49275000Y-58075000D01*
D13*
X46400000Y-50950000D02*
X45400000Y-50950000D01*
X45400000Y-52650000D02*
X46400000Y-52650000D01*
X46300000Y-68080000D02*
X44300000Y-68080000D01*
X44300000Y-70120000D02*
X46300000Y-70120000D01*
X63550000Y-67900000D02*
X63550000Y-66900000D01*
X61850000Y-66900000D02*
X61850000Y-67900000D01*
X39340000Y-67080000D02*
X39340000Y-77240000D01*
X40610000Y-67080000D02*
X32990000Y-67080000D01*
X32990000Y-67080000D02*
X32990000Y-77240000D01*
X32990000Y-77240000D02*
X40610000Y-77240000D01*
X40610000Y-77240000D02*
X40610000Y-67080000D01*
X70830000Y-63890000D02*
X68170000Y-63890000D01*
X70830000Y-69030000D02*
X70830000Y-63890000D01*
X68170000Y-69030000D02*
X68170000Y-63890000D01*
X70830000Y-69030000D02*
X68170000Y-69030000D01*
X70830000Y-70300000D02*
X70830000Y-71630000D01*
X70830000Y-71630000D02*
X69500000Y-71630000D01*
X44700000Y-65880000D02*
X43500000Y-65880000D01*
X43500000Y-64120000D02*
X44700000Y-64120000D01*
X61820000Y-63200000D02*
X61820000Y-62000000D01*
X63580000Y-62000000D02*
X63580000Y-63200000D01*
X61800000Y-71780000D02*
X60600000Y-71780000D01*
X60600000Y-70020000D02*
X61800000Y-70020000D01*
X58720000Y-68100000D02*
X58390000Y-68100000D01*
X58390000Y-68100000D02*
X58390000Y-61680000D01*
X58390000Y-61680000D02*
X58720000Y-61680000D01*
X60680000Y-68100000D02*
X61010000Y-68100000D01*
X61010000Y-68100000D02*
X61010000Y-61680000D01*
X61010000Y-61680000D02*
X60680000Y-61680000D01*
X51600000Y-62380000D02*
X50400000Y-62380000D01*
X50400000Y-60620000D02*
X51600000Y-60620000D01*
X55800000Y-65380000D02*
X55800000Y-65710000D01*
X55800000Y-65710000D02*
X49380000Y-65710000D01*
X49380000Y-65710000D02*
X49380000Y-65380000D01*
X55800000Y-63420000D02*
X55800000Y-63090000D01*
X55800000Y-63090000D02*
X49380000Y-63090000D01*
X49380000Y-63090000D02*
X49380000Y-63420000D01*
X35286000Y-33000000D02*
G75*
G03X35286000Y-33000000I-2286000J0D01*
G01*
X129286000Y-33000000D02*
G75*
G03X129286000Y-33000000I-2286000J0D01*
G01*
X129286000Y-127000000D02*
G75*
G03X129286000Y-127000000I-2286000J0D01*
G01*
X35286000Y-127000000D02*
G75*
G03X35286000Y-127000000I-2286000J0D01*
G01*
D12*
X95233334Y-31457143D02*
X95185715Y-31504762D01*
X95042858Y-31552381D01*
X94947620Y-31552381D01*
X94804762Y-31504762D01*
X94709524Y-31409524D01*
X94661905Y-31314286D01*
X94614286Y-31123810D01*
X94614286Y-30980952D01*
X94661905Y-30790476D01*
X94709524Y-30695238D01*
X94804762Y-30600000D01*
X94947620Y-30552381D01*
X95042858Y-30552381D01*
X95185715Y-30600000D01*
X95233334Y-30647619D01*
X96185715Y-31552381D02*
X95614286Y-31552381D01*
X95900000Y-31552381D02*
X95900000Y-30552381D01*
X95804762Y-30695238D01*
X95709524Y-30790476D01*
X95614286Y-30838095D01*
X107107143Y-46166666D02*
X107154762Y-46214285D01*
X107202381Y-46357142D01*
X107202381Y-46452380D01*
X107154762Y-46595238D01*
X107059524Y-46690476D01*
X106964286Y-46738095D01*
X106773810Y-46785714D01*
X106630952Y-46785714D01*
X106440476Y-46738095D01*
X106345238Y-46690476D01*
X106250000Y-46595238D01*
X106202381Y-46452380D01*
X106202381Y-46357142D01*
X106250000Y-46214285D01*
X106297619Y-46166666D01*
X106297619Y-45785714D02*
X106250000Y-45738095D01*
X106202381Y-45642857D01*
X106202381Y-45404761D01*
X106250000Y-45309523D01*
X106297619Y-45261904D01*
X106392857Y-45214285D01*
X106488095Y-45214285D01*
X106630952Y-45261904D01*
X107202381Y-45833333D01*
X107202381Y-45214285D01*
X112107143Y-48166666D02*
X112154762Y-48214285D01*
X112202381Y-48357142D01*
X112202381Y-48452380D01*
X112154762Y-48595238D01*
X112059524Y-48690476D01*
X111964286Y-48738095D01*
X111773810Y-48785714D01*
X111630952Y-48785714D01*
X111440476Y-48738095D01*
X111345238Y-48690476D01*
X111250000Y-48595238D01*
X111202381Y-48452380D01*
X111202381Y-48357142D01*
X111250000Y-48214285D01*
X111297619Y-48166666D01*
X111202381Y-47833333D02*
X111202381Y-47214285D01*
X111583333Y-47547619D01*
X111583333Y-47404761D01*
X111630952Y-47309523D01*
X111678571Y-47261904D01*
X111773810Y-47214285D01*
X112011905Y-47214285D01*
X112107143Y-47261904D01*
X112154762Y-47309523D01*
X112202381Y-47404761D01*
X112202381Y-47690476D01*
X112154762Y-47785714D01*
X112107143Y-47833333D01*
X44433334Y-46907143D02*
X44385715Y-46954762D01*
X44242858Y-47002381D01*
X44147620Y-47002381D01*
X44004762Y-46954762D01*
X43909524Y-46859524D01*
X43861905Y-46764286D01*
X43814286Y-46573810D01*
X43814286Y-46430952D01*
X43861905Y-46240476D01*
X43909524Y-46145238D01*
X44004762Y-46050000D01*
X44147620Y-46002381D01*
X44242858Y-46002381D01*
X44385715Y-46050000D01*
X44433334Y-46097619D01*
X45290477Y-46335714D02*
X45290477Y-47002381D01*
X45052381Y-45954762D02*
X44814286Y-46669048D01*
X45433334Y-46669048D01*
X98833334Y-55807143D02*
X98785715Y-55854762D01*
X98642858Y-55902381D01*
X98547620Y-55902381D01*
X98404762Y-55854762D01*
X98309524Y-55759524D01*
X98261905Y-55664286D01*
X98214286Y-55473810D01*
X98214286Y-55330952D01*
X98261905Y-55140476D01*
X98309524Y-55045238D01*
X98404762Y-54950000D01*
X98547620Y-54902381D01*
X98642858Y-54902381D01*
X98785715Y-54950000D01*
X98833334Y-54997619D01*
X99690477Y-54902381D02*
X99500000Y-54902381D01*
X99404762Y-54950000D01*
X99357143Y-54997619D01*
X99261905Y-55140476D01*
X99214286Y-55330952D01*
X99214286Y-55711905D01*
X99261905Y-55807143D01*
X99309524Y-55854762D01*
X99404762Y-55902381D01*
X99595239Y-55902381D01*
X99690477Y-55854762D01*
X99738096Y-55807143D01*
X99785715Y-55711905D01*
X99785715Y-55473810D01*
X99738096Y-55378571D01*
X99690477Y-55330952D01*
X99595239Y-55283333D01*
X99404762Y-55283333D01*
X99309524Y-55330952D01*
X99261905Y-55378571D01*
X99214286Y-55473810D01*
X102607143Y-64166666D02*
X102654762Y-64214285D01*
X102702381Y-64357142D01*
X102702381Y-64452380D01*
X102654762Y-64595238D01*
X102559524Y-64690476D01*
X102464286Y-64738095D01*
X102273810Y-64785714D01*
X102130952Y-64785714D01*
X101940476Y-64738095D01*
X101845238Y-64690476D01*
X101750000Y-64595238D01*
X101702381Y-64452380D01*
X101702381Y-64357142D01*
X101750000Y-64214285D01*
X101797619Y-64166666D01*
X101702381Y-63833333D02*
X101702381Y-63166666D01*
X102702381Y-63595238D01*
X117833334Y-58607143D02*
X117785715Y-58654762D01*
X117642858Y-58702381D01*
X117547620Y-58702381D01*
X117404762Y-58654762D01*
X117309524Y-58559524D01*
X117261905Y-58464286D01*
X117214286Y-58273810D01*
X117214286Y-58130952D01*
X117261905Y-57940476D01*
X117309524Y-57845238D01*
X117404762Y-57750000D01*
X117547620Y-57702381D01*
X117642858Y-57702381D01*
X117785715Y-57750000D01*
X117833334Y-57797619D01*
X118404762Y-58130952D02*
X118309524Y-58083333D01*
X118261905Y-58035714D01*
X118214286Y-57940476D01*
X118214286Y-57892857D01*
X118261905Y-57797619D01*
X118309524Y-57750000D01*
X118404762Y-57702381D01*
X118595239Y-57702381D01*
X118690477Y-57750000D01*
X118738096Y-57797619D01*
X118785715Y-57892857D01*
X118785715Y-57940476D01*
X118738096Y-58035714D01*
X118690477Y-58083333D01*
X118595239Y-58130952D01*
X118404762Y-58130952D01*
X118309524Y-58178571D01*
X118261905Y-58226190D01*
X118214286Y-58321429D01*
X118214286Y-58511905D01*
X118261905Y-58607143D01*
X118309524Y-58654762D01*
X118404762Y-58702381D01*
X118595239Y-58702381D01*
X118690477Y-58654762D01*
X118738096Y-58607143D01*
X118785715Y-58511905D01*
X118785715Y-58321429D01*
X118738096Y-58226190D01*
X118690477Y-58178571D01*
X118595239Y-58130952D01*
X117833334Y-62357143D02*
X117785715Y-62404762D01*
X117642858Y-62452381D01*
X117547620Y-62452381D01*
X117404762Y-62404762D01*
X117309524Y-62309524D01*
X117261905Y-62214286D01*
X117214286Y-62023810D01*
X117214286Y-61880952D01*
X117261905Y-61690476D01*
X117309524Y-61595238D01*
X117404762Y-61500000D01*
X117547620Y-61452381D01*
X117642858Y-61452381D01*
X117785715Y-61500000D01*
X117833334Y-61547619D01*
X118309524Y-62452381D02*
X118500000Y-62452381D01*
X118595239Y-62404762D01*
X118642858Y-62357143D01*
X118738096Y-62214286D01*
X118785715Y-62023810D01*
X118785715Y-61642857D01*
X118738096Y-61547619D01*
X118690477Y-61500000D01*
X118595239Y-61452381D01*
X118404762Y-61452381D01*
X118309524Y-61500000D01*
X118261905Y-61547619D01*
X118214286Y-61642857D01*
X118214286Y-61880952D01*
X118261905Y-61976190D01*
X118309524Y-62023810D01*
X118404762Y-62071429D01*
X118595239Y-62071429D01*
X118690477Y-62023810D01*
X118738096Y-61976190D01*
X118785715Y-61880952D01*
X106107143Y-64642857D02*
X106154762Y-64690476D01*
X106202381Y-64833333D01*
X106202381Y-64928571D01*
X106154762Y-65071429D01*
X106059524Y-65166667D01*
X105964286Y-65214286D01*
X105773810Y-65261905D01*
X105630952Y-65261905D01*
X105440476Y-65214286D01*
X105345238Y-65166667D01*
X105250000Y-65071429D01*
X105202381Y-64928571D01*
X105202381Y-64833333D01*
X105250000Y-64690476D01*
X105297619Y-64642857D01*
X106202381Y-63690476D02*
X106202381Y-64261905D01*
X106202381Y-63976191D02*
X105202381Y-63976191D01*
X105345238Y-64071429D01*
X105440476Y-64166667D01*
X105488095Y-64261905D01*
X105202381Y-63071429D02*
X105202381Y-62976190D01*
X105250000Y-62880952D01*
X105297619Y-62833333D01*
X105392857Y-62785714D01*
X105583333Y-62738095D01*
X105821429Y-62738095D01*
X106011905Y-62785714D01*
X106107143Y-62833333D01*
X106154762Y-62880952D01*
X106202381Y-62976190D01*
X106202381Y-63071429D01*
X106154762Y-63166667D01*
X106107143Y-63214286D01*
X106011905Y-63261905D01*
X105821429Y-63309524D01*
X105583333Y-63309524D01*
X105392857Y-63261905D01*
X105297619Y-63214286D01*
X105250000Y-63166667D01*
X105202381Y-63071429D01*
X118607143Y-69142857D02*
X118654762Y-69190476D01*
X118702381Y-69333333D01*
X118702381Y-69428571D01*
X118654762Y-69571429D01*
X118559524Y-69666667D01*
X118464286Y-69714286D01*
X118273810Y-69761905D01*
X118130952Y-69761905D01*
X117940476Y-69714286D01*
X117845238Y-69666667D01*
X117750000Y-69571429D01*
X117702381Y-69428571D01*
X117702381Y-69333333D01*
X117750000Y-69190476D01*
X117797619Y-69142857D01*
X118702381Y-68190476D02*
X118702381Y-68761905D01*
X118702381Y-68476191D02*
X117702381Y-68476191D01*
X117845238Y-68571429D01*
X117940476Y-68666667D01*
X117988095Y-68761905D01*
X117702381Y-67857143D02*
X117702381Y-67238095D01*
X118083333Y-67571429D01*
X118083333Y-67428571D01*
X118130952Y-67333333D01*
X118178571Y-67285714D01*
X118273810Y-67238095D01*
X118511905Y-67238095D01*
X118607143Y-67285714D01*
X118654762Y-67333333D01*
X118702381Y-67428571D01*
X118702381Y-67714286D01*
X118654762Y-67809524D01*
X118607143Y-67857143D01*
X106107143Y-69642857D02*
X106154762Y-69690476D01*
X106202381Y-69833333D01*
X106202381Y-69928571D01*
X106154762Y-70071429D01*
X106059524Y-70166667D01*
X105964286Y-70214286D01*
X105773810Y-70261905D01*
X105630952Y-70261905D01*
X105440476Y-70214286D01*
X105345238Y-70166667D01*
X105250000Y-70071429D01*
X105202381Y-69928571D01*
X105202381Y-69833333D01*
X105250000Y-69690476D01*
X105297619Y-69642857D01*
X106202381Y-68690476D02*
X106202381Y-69261905D01*
X106202381Y-68976191D02*
X105202381Y-68976191D01*
X105345238Y-69071429D01*
X105440476Y-69166667D01*
X105488095Y-69261905D01*
X105535714Y-67833333D02*
X106202381Y-67833333D01*
X105154762Y-68071429D02*
X105869048Y-68309524D01*
X105869048Y-67690476D01*
X77657143Y-116207143D02*
X77609524Y-116254762D01*
X77466667Y-116302381D01*
X77371429Y-116302381D01*
X77228571Y-116254762D01*
X77133333Y-116159524D01*
X77085714Y-116064286D01*
X77038095Y-115873810D01*
X77038095Y-115730952D01*
X77085714Y-115540476D01*
X77133333Y-115445238D01*
X77228571Y-115350000D01*
X77371429Y-115302381D01*
X77466667Y-115302381D01*
X77609524Y-115350000D01*
X77657143Y-115397619D01*
X78609524Y-116302381D02*
X78038095Y-116302381D01*
X78323809Y-116302381D02*
X78323809Y-115302381D01*
X78228571Y-115445238D01*
X78133333Y-115540476D01*
X78038095Y-115588095D01*
X79514286Y-115302381D02*
X79038095Y-115302381D01*
X78990476Y-115778571D01*
X79038095Y-115730952D01*
X79133333Y-115683333D01*
X79371429Y-115683333D01*
X79466667Y-115730952D01*
X79514286Y-115778571D01*
X79561905Y-115873810D01*
X79561905Y-116111905D01*
X79514286Y-116207143D01*
X79466667Y-116254762D01*
X79371429Y-116302381D01*
X79133333Y-116302381D01*
X79038095Y-116254762D01*
X78990476Y-116207143D01*
X70657143Y-114557143D02*
X70609524Y-114604762D01*
X70466667Y-114652381D01*
X70371429Y-114652381D01*
X70228571Y-114604762D01*
X70133333Y-114509524D01*
X70085714Y-114414286D01*
X70038095Y-114223810D01*
X70038095Y-114080952D01*
X70085714Y-113890476D01*
X70133333Y-113795238D01*
X70228571Y-113700000D01*
X70371429Y-113652381D01*
X70466667Y-113652381D01*
X70609524Y-113700000D01*
X70657143Y-113747619D01*
X71609524Y-114652381D02*
X71038095Y-114652381D01*
X71323809Y-114652381D02*
X71323809Y-113652381D01*
X71228571Y-113795238D01*
X71133333Y-113890476D01*
X71038095Y-113938095D01*
X72466667Y-113652381D02*
X72276190Y-113652381D01*
X72180952Y-113700000D01*
X72133333Y-113747619D01*
X72038095Y-113890476D01*
X71990476Y-114080952D01*
X71990476Y-114461905D01*
X72038095Y-114557143D01*
X72085714Y-114604762D01*
X72180952Y-114652381D01*
X72371429Y-114652381D01*
X72466667Y-114604762D01*
X72514286Y-114557143D01*
X72561905Y-114461905D01*
X72561905Y-114223810D01*
X72514286Y-114128571D01*
X72466667Y-114080952D01*
X72371429Y-114033333D01*
X72180952Y-114033333D01*
X72085714Y-114080952D01*
X72038095Y-114128571D01*
X71990476Y-114223810D01*
X86457143Y-114757143D02*
X86409524Y-114804762D01*
X86266667Y-114852381D01*
X86171429Y-114852381D01*
X86028571Y-114804762D01*
X85933333Y-114709524D01*
X85885714Y-114614286D01*
X85838095Y-114423810D01*
X85838095Y-114280952D01*
X85885714Y-114090476D01*
X85933333Y-113995238D01*
X86028571Y-113900000D01*
X86171429Y-113852381D01*
X86266667Y-113852381D01*
X86409524Y-113900000D01*
X86457143Y-113947619D01*
X87409524Y-114852381D02*
X86838095Y-114852381D01*
X87123809Y-114852381D02*
X87123809Y-113852381D01*
X87028571Y-113995238D01*
X86933333Y-114090476D01*
X86838095Y-114138095D01*
X87742857Y-113852381D02*
X88409524Y-113852381D01*
X87980952Y-114852381D01*
X91057143Y-113042857D02*
X91104762Y-113090476D01*
X91152381Y-113233333D01*
X91152381Y-113328571D01*
X91104762Y-113471429D01*
X91009524Y-113566667D01*
X90914286Y-113614286D01*
X90723810Y-113661905D01*
X90580952Y-113661905D01*
X90390476Y-113614286D01*
X90295238Y-113566667D01*
X90200000Y-113471429D01*
X90152381Y-113328571D01*
X90152381Y-113233333D01*
X90200000Y-113090476D01*
X90247619Y-113042857D01*
X91152381Y-112090476D02*
X91152381Y-112661905D01*
X91152381Y-112376191D02*
X90152381Y-112376191D01*
X90295238Y-112471429D01*
X90390476Y-112566667D01*
X90438095Y-112661905D01*
X90580952Y-111519048D02*
X90533333Y-111614286D01*
X90485714Y-111661905D01*
X90390476Y-111709524D01*
X90342857Y-111709524D01*
X90247619Y-111661905D01*
X90200000Y-111614286D01*
X90152381Y-111519048D01*
X90152381Y-111328571D01*
X90200000Y-111233333D01*
X90247619Y-111185714D01*
X90342857Y-111138095D01*
X90390476Y-111138095D01*
X90485714Y-111185714D01*
X90533333Y-111233333D01*
X90580952Y-111328571D01*
X90580952Y-111519048D01*
X90628571Y-111614286D01*
X90676190Y-111661905D01*
X90771429Y-111709524D01*
X90961905Y-111709524D01*
X91057143Y-111661905D01*
X91104762Y-111614286D01*
X91152381Y-111519048D01*
X91152381Y-111328571D01*
X91104762Y-111233333D01*
X91057143Y-111185714D01*
X90961905Y-111138095D01*
X90771429Y-111138095D01*
X90676190Y-111185714D01*
X90628571Y-111233333D01*
X90580952Y-111328571D01*
X105657143Y-111807143D02*
X105609524Y-111854762D01*
X105466667Y-111902381D01*
X105371429Y-111902381D01*
X105228571Y-111854762D01*
X105133333Y-111759524D01*
X105085714Y-111664286D01*
X105038095Y-111473810D01*
X105038095Y-111330952D01*
X105085714Y-111140476D01*
X105133333Y-111045238D01*
X105228571Y-110950000D01*
X105371429Y-110902381D01*
X105466667Y-110902381D01*
X105609524Y-110950000D01*
X105657143Y-110997619D01*
X106609524Y-111902381D02*
X106038095Y-111902381D01*
X106323809Y-111902381D02*
X106323809Y-110902381D01*
X106228571Y-111045238D01*
X106133333Y-111140476D01*
X106038095Y-111188095D01*
X107085714Y-111902381D02*
X107276190Y-111902381D01*
X107371429Y-111854762D01*
X107419048Y-111807143D01*
X107514286Y-111664286D01*
X107561905Y-111473810D01*
X107561905Y-111092857D01*
X107514286Y-110997619D01*
X107466667Y-110950000D01*
X107371429Y-110902381D01*
X107180952Y-110902381D01*
X107085714Y-110950000D01*
X107038095Y-110997619D01*
X106990476Y-111092857D01*
X106990476Y-111330952D01*
X107038095Y-111426190D01*
X107085714Y-111473810D01*
X107180952Y-111521429D01*
X107371429Y-111521429D01*
X107466667Y-111473810D01*
X107514286Y-111426190D01*
X107561905Y-111330952D01*
X106057143Y-110042857D02*
X106104762Y-110090476D01*
X106152381Y-110233333D01*
X106152381Y-110328571D01*
X106104762Y-110471429D01*
X106009524Y-110566667D01*
X105914286Y-110614286D01*
X105723810Y-110661905D01*
X105580952Y-110661905D01*
X105390476Y-110614286D01*
X105295238Y-110566667D01*
X105200000Y-110471429D01*
X105152381Y-110328571D01*
X105152381Y-110233333D01*
X105200000Y-110090476D01*
X105247619Y-110042857D01*
X105247619Y-109661905D02*
X105200000Y-109614286D01*
X105152381Y-109519048D01*
X105152381Y-109280952D01*
X105200000Y-109185714D01*
X105247619Y-109138095D01*
X105342857Y-109090476D01*
X105438095Y-109090476D01*
X105580952Y-109138095D01*
X106152381Y-109709524D01*
X106152381Y-109090476D01*
X105152381Y-108471429D02*
X105152381Y-108376190D01*
X105200000Y-108280952D01*
X105247619Y-108233333D01*
X105342857Y-108185714D01*
X105533333Y-108138095D01*
X105771429Y-108138095D01*
X105961905Y-108185714D01*
X106057143Y-108233333D01*
X106104762Y-108280952D01*
X106152381Y-108376190D01*
X106152381Y-108471429D01*
X106104762Y-108566667D01*
X106057143Y-108614286D01*
X105961905Y-108661905D01*
X105771429Y-108709524D01*
X105533333Y-108709524D01*
X105342857Y-108661905D01*
X105247619Y-108614286D01*
X105200000Y-108566667D01*
X105152381Y-108471429D01*
X111757143Y-115107143D02*
X111709524Y-115154762D01*
X111566667Y-115202381D01*
X111471429Y-115202381D01*
X111328571Y-115154762D01*
X111233333Y-115059524D01*
X111185714Y-114964286D01*
X111138095Y-114773810D01*
X111138095Y-114630952D01*
X111185714Y-114440476D01*
X111233333Y-114345238D01*
X111328571Y-114250000D01*
X111471429Y-114202381D01*
X111566667Y-114202381D01*
X111709524Y-114250000D01*
X111757143Y-114297619D01*
X112138095Y-114297619D02*
X112185714Y-114250000D01*
X112280952Y-114202381D01*
X112519048Y-114202381D01*
X112614286Y-114250000D01*
X112661905Y-114297619D01*
X112709524Y-114392857D01*
X112709524Y-114488095D01*
X112661905Y-114630952D01*
X112090476Y-115202381D01*
X112709524Y-115202381D01*
X113661905Y-115202381D02*
X113090476Y-115202381D01*
X113376190Y-115202381D02*
X113376190Y-114202381D01*
X113280952Y-114345238D01*
X113185714Y-114440476D01*
X113090476Y-114488095D01*
X125652381Y-43238095D02*
X124652381Y-43238095D01*
X124652381Y-43000000D01*
X124700000Y-42857142D01*
X124795238Y-42761904D01*
X124890476Y-42714285D01*
X125080952Y-42666666D01*
X125223810Y-42666666D01*
X125414286Y-42714285D01*
X125509524Y-42761904D01*
X125604762Y-42857142D01*
X125652381Y-43000000D01*
X125652381Y-43238095D01*
X125652381Y-41714285D02*
X125652381Y-42285714D01*
X125652381Y-42000000D02*
X124652381Y-42000000D01*
X124795238Y-42095238D01*
X124890476Y-42190476D01*
X124938095Y-42285714D01*
X108936667Y-25902381D02*
X108936667Y-26616667D01*
X108889047Y-26759524D01*
X108793809Y-26854762D01*
X108650952Y-26902381D01*
X108555714Y-26902381D01*
X109936667Y-26902381D02*
X109365238Y-26902381D01*
X109650952Y-26902381D02*
X109650952Y-25902381D01*
X109555714Y-26045238D01*
X109460476Y-26140476D01*
X109365238Y-26188095D01*
X129032381Y-101873333D02*
X129746667Y-101873333D01*
X129889524Y-101920953D01*
X129984762Y-102016191D01*
X130032381Y-102159048D01*
X130032381Y-102254286D01*
X129032381Y-101492381D02*
X129032381Y-100873333D01*
X129413333Y-101206667D01*
X129413333Y-101063809D01*
X129460952Y-100968571D01*
X129508571Y-100920952D01*
X129603810Y-100873333D01*
X129841905Y-100873333D01*
X129937143Y-100920952D01*
X129984762Y-100968571D01*
X130032381Y-101063809D01*
X130032381Y-101349524D01*
X129984762Y-101444762D01*
X129937143Y-101492381D01*
X117047619Y-49095238D02*
X117000000Y-49190476D01*
X116904762Y-49285714D01*
X116761905Y-49428571D01*
X116714286Y-49523810D01*
X116714286Y-49619048D01*
X116952381Y-49571429D02*
X116904762Y-49666667D01*
X116809524Y-49761905D01*
X116619048Y-49809524D01*
X116285714Y-49809524D01*
X116095238Y-49761905D01*
X116000000Y-49666667D01*
X115952381Y-49571429D01*
X115952381Y-49380952D01*
X116000000Y-49285714D01*
X116095238Y-49190476D01*
X116285714Y-49142857D01*
X116619048Y-49142857D01*
X116809524Y-49190476D01*
X116904762Y-49285714D01*
X116952381Y-49380952D01*
X116952381Y-49571429D01*
X116952381Y-48190476D02*
X116952381Y-48761905D01*
X116952381Y-48476191D02*
X115952381Y-48476191D01*
X116095238Y-48571429D01*
X116190476Y-48666667D01*
X116238095Y-48761905D01*
X119833334Y-37952381D02*
X119500000Y-37476190D01*
X119261905Y-37952381D02*
X119261905Y-36952381D01*
X119642858Y-36952381D01*
X119738096Y-37000000D01*
X119785715Y-37047619D01*
X119833334Y-37142857D01*
X119833334Y-37285714D01*
X119785715Y-37380952D01*
X119738096Y-37428571D01*
X119642858Y-37476190D01*
X119261905Y-37476190D01*
X120785715Y-37952381D02*
X120214286Y-37952381D01*
X120500000Y-37952381D02*
X120500000Y-36952381D01*
X120404762Y-37095238D01*
X120309524Y-37190476D01*
X120214286Y-37238095D01*
X111252381Y-42666666D02*
X110776190Y-43000000D01*
X111252381Y-43238095D02*
X110252381Y-43238095D01*
X110252381Y-42857142D01*
X110300000Y-42761904D01*
X110347619Y-42714285D01*
X110442857Y-42666666D01*
X110585714Y-42666666D01*
X110680952Y-42714285D01*
X110728571Y-42761904D01*
X110776190Y-42857142D01*
X110776190Y-43238095D01*
X110347619Y-42285714D02*
X110300000Y-42238095D01*
X110252381Y-42142857D01*
X110252381Y-41904761D01*
X110300000Y-41809523D01*
X110347619Y-41761904D01*
X110442857Y-41714285D01*
X110538095Y-41714285D01*
X110680952Y-41761904D01*
X111252381Y-42333333D01*
X111252381Y-41714285D01*
X118252381Y-42666666D02*
X117776190Y-43000000D01*
X118252381Y-43238095D02*
X117252381Y-43238095D01*
X117252381Y-42857142D01*
X117300000Y-42761904D01*
X117347619Y-42714285D01*
X117442857Y-42666666D01*
X117585714Y-42666666D01*
X117680952Y-42714285D01*
X117728571Y-42761904D01*
X117776190Y-42857142D01*
X117776190Y-43238095D01*
X117252381Y-42333333D02*
X117252381Y-41714285D01*
X117633333Y-42047619D01*
X117633333Y-41904761D01*
X117680952Y-41809523D01*
X117728571Y-41761904D01*
X117823810Y-41714285D01*
X118061905Y-41714285D01*
X118157143Y-41761904D01*
X118204762Y-41809523D01*
X118252381Y-41904761D01*
X118252381Y-42190476D01*
X118204762Y-42285714D01*
X118157143Y-42333333D01*
X114752381Y-42666666D02*
X114276190Y-43000000D01*
X114752381Y-43238095D02*
X113752381Y-43238095D01*
X113752381Y-42857142D01*
X113800000Y-42761904D01*
X113847619Y-42714285D01*
X113942857Y-42666666D01*
X114085714Y-42666666D01*
X114180952Y-42714285D01*
X114228571Y-42761904D01*
X114276190Y-42857142D01*
X114276190Y-43238095D01*
X114085714Y-41809523D02*
X114752381Y-41809523D01*
X113704762Y-42047619D02*
X114419048Y-42285714D01*
X114419048Y-41666666D01*
X120452381Y-54666666D02*
X119976190Y-55000000D01*
X120452381Y-55238095D02*
X119452381Y-55238095D01*
X119452381Y-54857142D01*
X119500000Y-54761904D01*
X119547619Y-54714285D01*
X119642857Y-54666666D01*
X119785714Y-54666666D01*
X119880952Y-54714285D01*
X119928571Y-54761904D01*
X119976190Y-54857142D01*
X119976190Y-55238095D01*
X119452381Y-53761904D02*
X119452381Y-54238095D01*
X119928571Y-54285714D01*
X119880952Y-54238095D01*
X119833333Y-54142857D01*
X119833333Y-53904761D01*
X119880952Y-53809523D01*
X119928571Y-53761904D01*
X120023810Y-53714285D01*
X120261905Y-53714285D01*
X120357143Y-53761904D01*
X120404762Y-53809523D01*
X120452381Y-53904761D01*
X120452381Y-54142857D01*
X120404762Y-54238095D01*
X120357143Y-54285714D01*
X111333334Y-62752381D02*
X111000000Y-62276190D01*
X110761905Y-62752381D02*
X110761905Y-61752381D01*
X111142858Y-61752381D01*
X111238096Y-61800000D01*
X111285715Y-61847619D01*
X111333334Y-61942857D01*
X111333334Y-62085714D01*
X111285715Y-62180952D01*
X111238096Y-62228571D01*
X111142858Y-62276190D01*
X110761905Y-62276190D01*
X112190477Y-61752381D02*
X112000000Y-61752381D01*
X111904762Y-61800000D01*
X111857143Y-61847619D01*
X111761905Y-61990476D01*
X111714286Y-62180952D01*
X111714286Y-62561905D01*
X111761905Y-62657143D01*
X111809524Y-62704762D01*
X111904762Y-62752381D01*
X112095239Y-62752381D01*
X112190477Y-62704762D01*
X112238096Y-62657143D01*
X112285715Y-62561905D01*
X112285715Y-62323810D01*
X112238096Y-62228571D01*
X112190477Y-62180952D01*
X112095239Y-62133333D01*
X111904762Y-62133333D01*
X111809524Y-62180952D01*
X111761905Y-62228571D01*
X111714286Y-62323810D01*
X125652381Y-49166666D02*
X125176190Y-49500000D01*
X125652381Y-49738095D02*
X124652381Y-49738095D01*
X124652381Y-49357142D01*
X124700000Y-49261904D01*
X124747619Y-49214285D01*
X124842857Y-49166666D01*
X124985714Y-49166666D01*
X125080952Y-49214285D01*
X125128571Y-49261904D01*
X125176190Y-49357142D01*
X125176190Y-49738095D01*
X124652381Y-48833333D02*
X124652381Y-48166666D01*
X125652381Y-48595238D01*
X72133334Y-106252381D02*
X71800000Y-105776190D01*
X71561905Y-106252381D02*
X71561905Y-105252381D01*
X71942858Y-105252381D01*
X72038096Y-105300000D01*
X72085715Y-105347619D01*
X72133334Y-105442857D01*
X72133334Y-105585714D01*
X72085715Y-105680952D01*
X72038096Y-105728571D01*
X71942858Y-105776190D01*
X71561905Y-105776190D01*
X72704762Y-105680952D02*
X72609524Y-105633333D01*
X72561905Y-105585714D01*
X72514286Y-105490476D01*
X72514286Y-105442857D01*
X72561905Y-105347619D01*
X72609524Y-105300000D01*
X72704762Y-105252381D01*
X72895239Y-105252381D01*
X72990477Y-105300000D01*
X73038096Y-105347619D01*
X73085715Y-105442857D01*
X73085715Y-105490476D01*
X73038096Y-105585714D01*
X72990477Y-105633333D01*
X72895239Y-105680952D01*
X72704762Y-105680952D01*
X72609524Y-105728571D01*
X72561905Y-105776190D01*
X72514286Y-105871429D01*
X72514286Y-106061905D01*
X72561905Y-106157143D01*
X72609524Y-106204762D01*
X72704762Y-106252381D01*
X72895239Y-106252381D01*
X72990477Y-106204762D01*
X73038096Y-106157143D01*
X73085715Y-106061905D01*
X73085715Y-105871429D01*
X73038096Y-105776190D01*
X72990477Y-105728571D01*
X72895239Y-105680952D01*
X72133334Y-111652381D02*
X71800000Y-111176190D01*
X71561905Y-111652381D02*
X71561905Y-110652381D01*
X71942858Y-110652381D01*
X72038096Y-110700000D01*
X72085715Y-110747619D01*
X72133334Y-110842857D01*
X72133334Y-110985714D01*
X72085715Y-111080952D01*
X72038096Y-111128571D01*
X71942858Y-111176190D01*
X71561905Y-111176190D01*
X72609524Y-111652381D02*
X72800000Y-111652381D01*
X72895239Y-111604762D01*
X72942858Y-111557143D01*
X73038096Y-111414286D01*
X73085715Y-111223810D01*
X73085715Y-110842857D01*
X73038096Y-110747619D01*
X72990477Y-110700000D01*
X72895239Y-110652381D01*
X72704762Y-110652381D01*
X72609524Y-110700000D01*
X72561905Y-110747619D01*
X72514286Y-110842857D01*
X72514286Y-111080952D01*
X72561905Y-111176190D01*
X72609524Y-111223810D01*
X72704762Y-111271429D01*
X72895239Y-111271429D01*
X72990477Y-111223810D01*
X73038096Y-111176190D01*
X73085715Y-111080952D01*
X95052381Y-111542857D02*
X94576190Y-111876191D01*
X95052381Y-112114286D02*
X94052381Y-112114286D01*
X94052381Y-111733333D01*
X94100000Y-111638095D01*
X94147619Y-111590476D01*
X94242857Y-111542857D01*
X94385714Y-111542857D01*
X94480952Y-111590476D01*
X94528571Y-111638095D01*
X94576190Y-111733333D01*
X94576190Y-112114286D01*
X95052381Y-110590476D02*
X95052381Y-111161905D01*
X95052381Y-110876191D02*
X94052381Y-110876191D01*
X94195238Y-110971429D01*
X94290476Y-111066667D01*
X94338095Y-111161905D01*
X94052381Y-109971429D02*
X94052381Y-109876190D01*
X94100000Y-109780952D01*
X94147619Y-109733333D01*
X94242857Y-109685714D01*
X94433333Y-109638095D01*
X94671429Y-109638095D01*
X94861905Y-109685714D01*
X94957143Y-109733333D01*
X95004762Y-109780952D01*
X95052381Y-109876190D01*
X95052381Y-109971429D01*
X95004762Y-110066667D01*
X94957143Y-110114286D01*
X94861905Y-110161905D01*
X94671429Y-110209524D01*
X94433333Y-110209524D01*
X94242857Y-110161905D01*
X94147619Y-110114286D01*
X94100000Y-110066667D01*
X94052381Y-109971429D01*
X98357143Y-113052381D02*
X98023809Y-112576190D01*
X97785714Y-113052381D02*
X97785714Y-112052381D01*
X98166667Y-112052381D01*
X98261905Y-112100000D01*
X98309524Y-112147619D01*
X98357143Y-112242857D01*
X98357143Y-112385714D01*
X98309524Y-112480952D01*
X98261905Y-112528571D01*
X98166667Y-112576190D01*
X97785714Y-112576190D01*
X99309524Y-113052381D02*
X98738095Y-113052381D01*
X99023809Y-113052381D02*
X99023809Y-112052381D01*
X98928571Y-112195238D01*
X98833333Y-112290476D01*
X98738095Y-112338095D01*
X100261905Y-113052381D02*
X99690476Y-113052381D01*
X99976190Y-113052381D02*
X99976190Y-112052381D01*
X99880952Y-112195238D01*
X99785714Y-112290476D01*
X99690476Y-112338095D01*
X80357143Y-107852381D02*
X80023809Y-107376190D01*
X79785714Y-107852381D02*
X79785714Y-106852381D01*
X80166667Y-106852381D01*
X80261905Y-106900000D01*
X80309524Y-106947619D01*
X80357143Y-107042857D01*
X80357143Y-107185714D01*
X80309524Y-107280952D01*
X80261905Y-107328571D01*
X80166667Y-107376190D01*
X79785714Y-107376190D01*
X81309524Y-107852381D02*
X80738095Y-107852381D01*
X81023809Y-107852381D02*
X81023809Y-106852381D01*
X80928571Y-106995238D01*
X80833333Y-107090476D01*
X80738095Y-107138095D01*
X81690476Y-106947619D02*
X81738095Y-106900000D01*
X81833333Y-106852381D01*
X82071429Y-106852381D01*
X82166667Y-106900000D01*
X82214286Y-106947619D01*
X82261905Y-107042857D01*
X82261905Y-107138095D01*
X82214286Y-107280952D01*
X81642857Y-107852381D01*
X82261905Y-107852381D01*
X79957143Y-110452381D02*
X79623809Y-109976190D01*
X79385714Y-110452381D02*
X79385714Y-109452381D01*
X79766667Y-109452381D01*
X79861905Y-109500000D01*
X79909524Y-109547619D01*
X79957143Y-109642857D01*
X79957143Y-109785714D01*
X79909524Y-109880952D01*
X79861905Y-109928571D01*
X79766667Y-109976190D01*
X79385714Y-109976190D01*
X80909524Y-110452381D02*
X80338095Y-110452381D01*
X80623809Y-110452381D02*
X80623809Y-109452381D01*
X80528571Y-109595238D01*
X80433333Y-109690476D01*
X80338095Y-109738095D01*
X81242857Y-109452381D02*
X81861905Y-109452381D01*
X81528571Y-109833333D01*
X81671429Y-109833333D01*
X81766667Y-109880952D01*
X81814286Y-109928571D01*
X81861905Y-110023810D01*
X81861905Y-110261905D01*
X81814286Y-110357143D01*
X81766667Y-110404762D01*
X81671429Y-110452381D01*
X81385714Y-110452381D01*
X81290476Y-110404762D01*
X81242857Y-110357143D01*
X105057143Y-118952381D02*
X104723809Y-118476190D01*
X104485714Y-118952381D02*
X104485714Y-117952381D01*
X104866667Y-117952381D01*
X104961905Y-118000000D01*
X105009524Y-118047619D01*
X105057143Y-118142857D01*
X105057143Y-118285714D01*
X105009524Y-118380952D01*
X104961905Y-118428571D01*
X104866667Y-118476190D01*
X104485714Y-118476190D01*
X106009524Y-118952381D02*
X105438095Y-118952381D01*
X105723809Y-118952381D02*
X105723809Y-117952381D01*
X105628571Y-118095238D01*
X105533333Y-118190476D01*
X105438095Y-118238095D01*
X106866667Y-118285714D02*
X106866667Y-118952381D01*
X106628571Y-117904762D02*
X106390476Y-118619048D01*
X107009524Y-118619048D01*
X94738095Y-42452381D02*
X94738095Y-43261905D01*
X94785714Y-43357143D01*
X94833333Y-43404762D01*
X94928571Y-43452381D01*
X95119048Y-43452381D01*
X95214286Y-43404762D01*
X95261905Y-43357143D01*
X95309524Y-43261905D01*
X95309524Y-42452381D01*
X96309524Y-43452381D02*
X95738095Y-43452381D01*
X96023809Y-43452381D02*
X96023809Y-42452381D01*
X95928571Y-42595238D01*
X95833333Y-42690476D01*
X95738095Y-42738095D01*
X115702381Y-56761905D02*
X116511905Y-56761905D01*
X116607143Y-56714286D01*
X116654762Y-56666667D01*
X116702381Y-56571429D01*
X116702381Y-56380952D01*
X116654762Y-56285714D01*
X116607143Y-56238095D01*
X116511905Y-56190476D01*
X115702381Y-56190476D01*
X115797619Y-55761905D02*
X115750000Y-55714286D01*
X115702381Y-55619048D01*
X115702381Y-55380952D01*
X115750000Y-55285714D01*
X115797619Y-55238095D01*
X115892857Y-55190476D01*
X115988095Y-55190476D01*
X116130952Y-55238095D01*
X116702381Y-55809524D01*
X116702381Y-55190476D01*
X102652381Y-105661905D02*
X103461905Y-105661905D01*
X103557143Y-105614286D01*
X103604762Y-105566667D01*
X103652381Y-105471429D01*
X103652381Y-105280952D01*
X103604762Y-105185714D01*
X103557143Y-105138095D01*
X103461905Y-105090476D01*
X102652381Y-105090476D01*
X102652381Y-104709524D02*
X102652381Y-104090476D01*
X103033333Y-104423810D01*
X103033333Y-104280952D01*
X103080952Y-104185714D01*
X103128571Y-104138095D01*
X103223810Y-104090476D01*
X103461905Y-104090476D01*
X103557143Y-104138095D01*
X103604762Y-104185714D01*
X103652381Y-104280952D01*
X103652381Y-104566667D01*
X103604762Y-104661905D01*
X103557143Y-104709524D01*
X111523809Y-71526190D02*
X111523809Y-72002381D01*
X111190476Y-71002381D02*
X111523809Y-71526190D01*
X111857143Y-71002381D01*
X112714286Y-72002381D02*
X112142857Y-72002381D01*
X112428571Y-72002381D02*
X112428571Y-71002381D01*
X112333333Y-71145238D01*
X112238095Y-71240476D01*
X112142857Y-71288095D01*
X122252381Y-114033333D02*
X122966667Y-114033333D01*
X123109524Y-114080953D01*
X123204762Y-114176191D01*
X123252381Y-114319048D01*
X123252381Y-114414286D01*
X122347619Y-113604762D02*
X122300000Y-113557143D01*
X122252381Y-113461905D01*
X122252381Y-113223809D01*
X122300000Y-113128571D01*
X122347619Y-113080952D01*
X122442857Y-113033333D01*
X122538095Y-113033333D01*
X122680952Y-113080952D01*
X123252381Y-113652381D01*
X123252381Y-113033333D01*
X79357143Y-95707143D02*
X79309524Y-95754762D01*
X79166667Y-95802381D01*
X79071429Y-95802381D01*
X78928571Y-95754762D01*
X78833333Y-95659524D01*
X78785714Y-95564286D01*
X78738095Y-95373810D01*
X78738095Y-95230952D01*
X78785714Y-95040476D01*
X78833333Y-94945238D01*
X78928571Y-94850000D01*
X79071429Y-94802381D01*
X79166667Y-94802381D01*
X79309524Y-94850000D01*
X79357143Y-94897619D01*
X80309524Y-95802381D02*
X79738095Y-95802381D01*
X80023809Y-95802381D02*
X80023809Y-94802381D01*
X79928571Y-94945238D01*
X79833333Y-95040476D01*
X79738095Y-95088095D01*
X81261905Y-95802381D02*
X80690476Y-95802381D01*
X80976190Y-95802381D02*
X80976190Y-94802381D01*
X80880952Y-94945238D01*
X80785714Y-95040476D01*
X80690476Y-95088095D01*
X72257143Y-93457143D02*
X72209524Y-93504762D01*
X72066667Y-93552381D01*
X71971429Y-93552381D01*
X71828571Y-93504762D01*
X71733333Y-93409524D01*
X71685714Y-93314286D01*
X71638095Y-93123810D01*
X71638095Y-92980952D01*
X71685714Y-92790476D01*
X71733333Y-92695238D01*
X71828571Y-92600000D01*
X71971429Y-92552381D01*
X72066667Y-92552381D01*
X72209524Y-92600000D01*
X72257143Y-92647619D01*
X73209524Y-93552381D02*
X72638095Y-93552381D01*
X72923809Y-93552381D02*
X72923809Y-92552381D01*
X72828571Y-92695238D01*
X72733333Y-92790476D01*
X72638095Y-92838095D01*
X73590476Y-92647619D02*
X73638095Y-92600000D01*
X73733333Y-92552381D01*
X73971429Y-92552381D01*
X74066667Y-92600000D01*
X74114286Y-92647619D01*
X74161905Y-92742857D01*
X74161905Y-92838095D01*
X74114286Y-92980952D01*
X73542857Y-93552381D01*
X74161905Y-93552381D01*
X86157143Y-95257143D02*
X86109524Y-95304762D01*
X85966667Y-95352381D01*
X85871429Y-95352381D01*
X85728571Y-95304762D01*
X85633333Y-95209524D01*
X85585714Y-95114286D01*
X85538095Y-94923810D01*
X85538095Y-94780952D01*
X85585714Y-94590476D01*
X85633333Y-94495238D01*
X85728571Y-94400000D01*
X85871429Y-94352381D01*
X85966667Y-94352381D01*
X86109524Y-94400000D01*
X86157143Y-94447619D01*
X86538095Y-94447619D02*
X86585714Y-94400000D01*
X86680952Y-94352381D01*
X86919048Y-94352381D01*
X87014286Y-94400000D01*
X87061905Y-94447619D01*
X87109524Y-94542857D01*
X87109524Y-94638095D01*
X87061905Y-94780952D01*
X86490476Y-95352381D01*
X87109524Y-95352381D01*
X87490476Y-94447619D02*
X87538095Y-94400000D01*
X87633333Y-94352381D01*
X87871429Y-94352381D01*
X87966667Y-94400000D01*
X88014286Y-94447619D01*
X88061905Y-94542857D01*
X88061905Y-94638095D01*
X88014286Y-94780952D01*
X87442857Y-95352381D01*
X88061905Y-95352381D01*
X90357143Y-100142857D02*
X90404762Y-100190476D01*
X90452381Y-100333333D01*
X90452381Y-100428571D01*
X90404762Y-100571429D01*
X90309524Y-100666667D01*
X90214286Y-100714286D01*
X90023810Y-100761905D01*
X89880952Y-100761905D01*
X89690476Y-100714286D01*
X89595238Y-100666667D01*
X89500000Y-100571429D01*
X89452381Y-100428571D01*
X89452381Y-100333333D01*
X89500000Y-100190476D01*
X89547619Y-100142857D01*
X89547619Y-99761905D02*
X89500000Y-99714286D01*
X89452381Y-99619048D01*
X89452381Y-99380952D01*
X89500000Y-99285714D01*
X89547619Y-99238095D01*
X89642857Y-99190476D01*
X89738095Y-99190476D01*
X89880952Y-99238095D01*
X90452381Y-99809524D01*
X90452381Y-99190476D01*
X89452381Y-98857143D02*
X89452381Y-98238095D01*
X89833333Y-98571429D01*
X89833333Y-98428571D01*
X89880952Y-98333333D01*
X89928571Y-98285714D01*
X90023810Y-98238095D01*
X90261905Y-98238095D01*
X90357143Y-98285714D01*
X90404762Y-98333333D01*
X90452381Y-98428571D01*
X90452381Y-98714286D01*
X90404762Y-98809524D01*
X90357143Y-98857143D01*
X111557143Y-97607143D02*
X111509524Y-97654762D01*
X111366667Y-97702381D01*
X111271429Y-97702381D01*
X111128571Y-97654762D01*
X111033333Y-97559524D01*
X110985714Y-97464286D01*
X110938095Y-97273810D01*
X110938095Y-97130952D01*
X110985714Y-96940476D01*
X111033333Y-96845238D01*
X111128571Y-96750000D01*
X111271429Y-96702381D01*
X111366667Y-96702381D01*
X111509524Y-96750000D01*
X111557143Y-96797619D01*
X111938095Y-96797619D02*
X111985714Y-96750000D01*
X112080952Y-96702381D01*
X112319048Y-96702381D01*
X112414286Y-96750000D01*
X112461905Y-96797619D01*
X112509524Y-96892857D01*
X112509524Y-96988095D01*
X112461905Y-97130952D01*
X111890476Y-97702381D01*
X112509524Y-97702381D01*
X113366667Y-97035714D02*
X113366667Y-97702381D01*
X113128571Y-96654762D02*
X112890476Y-97369048D01*
X113509524Y-97369048D01*
X121852381Y-88233333D02*
X122566667Y-88233333D01*
X122709524Y-88280953D01*
X122804762Y-88376191D01*
X122852381Y-88519048D01*
X122852381Y-88614286D01*
X122185714Y-87328571D02*
X122852381Y-87328571D01*
X121804762Y-87566667D02*
X122519048Y-87804762D01*
X122519048Y-87185714D01*
X128852381Y-75633333D02*
X129566667Y-75633333D01*
X129709524Y-75680953D01*
X129804762Y-75776191D01*
X129852381Y-75919048D01*
X129852381Y-76014286D01*
X128852381Y-74680952D02*
X128852381Y-75157143D01*
X129328571Y-75204762D01*
X129280952Y-75157143D01*
X129233333Y-75061905D01*
X129233333Y-74823809D01*
X129280952Y-74728571D01*
X129328571Y-74680952D01*
X129423810Y-74633333D01*
X129661905Y-74633333D01*
X129757143Y-74680952D01*
X129804762Y-74728571D01*
X129852381Y-74823809D01*
X129852381Y-75061905D01*
X129804762Y-75157143D01*
X129757143Y-75204762D01*
X71757143Y-102052381D02*
X71423809Y-101576190D01*
X71185714Y-102052381D02*
X71185714Y-101052381D01*
X71566667Y-101052381D01*
X71661905Y-101100000D01*
X71709524Y-101147619D01*
X71757143Y-101242857D01*
X71757143Y-101385714D01*
X71709524Y-101480952D01*
X71661905Y-101528571D01*
X71566667Y-101576190D01*
X71185714Y-101576190D01*
X72709524Y-102052381D02*
X72138095Y-102052381D01*
X72423809Y-102052381D02*
X72423809Y-101052381D01*
X72328571Y-101195238D01*
X72233333Y-101290476D01*
X72138095Y-101338095D01*
X73614286Y-101052381D02*
X73138095Y-101052381D01*
X73090476Y-101528571D01*
X73138095Y-101480952D01*
X73233333Y-101433333D01*
X73471429Y-101433333D01*
X73566667Y-101480952D01*
X73614286Y-101528571D01*
X73661905Y-101623810D01*
X73661905Y-101861905D01*
X73614286Y-101957143D01*
X73566667Y-102004762D01*
X73471429Y-102052381D01*
X73233333Y-102052381D01*
X73138095Y-102004762D01*
X73090476Y-101957143D01*
X71557143Y-96952381D02*
X71223809Y-96476190D01*
X70985714Y-96952381D02*
X70985714Y-95952381D01*
X71366667Y-95952381D01*
X71461905Y-96000000D01*
X71509524Y-96047619D01*
X71557143Y-96142857D01*
X71557143Y-96285714D01*
X71509524Y-96380952D01*
X71461905Y-96428571D01*
X71366667Y-96476190D01*
X70985714Y-96476190D01*
X72509524Y-96952381D02*
X71938095Y-96952381D01*
X72223809Y-96952381D02*
X72223809Y-95952381D01*
X72128571Y-96095238D01*
X72033333Y-96190476D01*
X71938095Y-96238095D01*
X73366667Y-95952381D02*
X73176190Y-95952381D01*
X73080952Y-96000000D01*
X73033333Y-96047619D01*
X72938095Y-96190476D01*
X72890476Y-96380952D01*
X72890476Y-96761905D01*
X72938095Y-96857143D01*
X72985714Y-96904762D01*
X73080952Y-96952381D01*
X73271429Y-96952381D01*
X73366667Y-96904762D01*
X73414286Y-96857143D01*
X73461905Y-96761905D01*
X73461905Y-96523810D01*
X73414286Y-96428571D01*
X73366667Y-96380952D01*
X73271429Y-96333333D01*
X73080952Y-96333333D01*
X72985714Y-96380952D01*
X72938095Y-96428571D01*
X72890476Y-96523810D01*
X94552381Y-100042857D02*
X94076190Y-100376191D01*
X94552381Y-100614286D02*
X93552381Y-100614286D01*
X93552381Y-100233333D01*
X93600000Y-100138095D01*
X93647619Y-100090476D01*
X93742857Y-100042857D01*
X93885714Y-100042857D01*
X93980952Y-100090476D01*
X94028571Y-100138095D01*
X94076190Y-100233333D01*
X94076190Y-100614286D01*
X94552381Y-99090476D02*
X94552381Y-99661905D01*
X94552381Y-99376191D02*
X93552381Y-99376191D01*
X93695238Y-99471429D01*
X93790476Y-99566667D01*
X93838095Y-99661905D01*
X93552381Y-98757143D02*
X93552381Y-98090476D01*
X94552381Y-98519048D01*
X98657143Y-94952381D02*
X98323809Y-94476190D01*
X98085714Y-94952381D02*
X98085714Y-93952381D01*
X98466667Y-93952381D01*
X98561905Y-94000000D01*
X98609524Y-94047619D01*
X98657143Y-94142857D01*
X98657143Y-94285714D01*
X98609524Y-94380952D01*
X98561905Y-94428571D01*
X98466667Y-94476190D01*
X98085714Y-94476190D01*
X99609524Y-94952381D02*
X99038095Y-94952381D01*
X99323809Y-94952381D02*
X99323809Y-93952381D01*
X99228571Y-94095238D01*
X99133333Y-94190476D01*
X99038095Y-94238095D01*
X100180952Y-94380952D02*
X100085714Y-94333333D01*
X100038095Y-94285714D01*
X99990476Y-94190476D01*
X99990476Y-94142857D01*
X100038095Y-94047619D01*
X100085714Y-94000000D01*
X100180952Y-93952381D01*
X100371429Y-93952381D01*
X100466667Y-94000000D01*
X100514286Y-94047619D01*
X100561905Y-94142857D01*
X100561905Y-94190476D01*
X100514286Y-94285714D01*
X100466667Y-94333333D01*
X100371429Y-94380952D01*
X100180952Y-94380952D01*
X100085714Y-94428571D01*
X100038095Y-94476190D01*
X99990476Y-94571429D01*
X99990476Y-94761905D01*
X100038095Y-94857143D01*
X100085714Y-94904762D01*
X100180952Y-94952381D01*
X100371429Y-94952381D01*
X100466667Y-94904762D01*
X100514286Y-94857143D01*
X100561905Y-94761905D01*
X100561905Y-94571429D01*
X100514286Y-94476190D01*
X100466667Y-94428571D01*
X100371429Y-94380952D01*
X80457143Y-103652381D02*
X80123809Y-103176190D01*
X79885714Y-103652381D02*
X79885714Y-102652381D01*
X80266667Y-102652381D01*
X80361905Y-102700000D01*
X80409524Y-102747619D01*
X80457143Y-102842857D01*
X80457143Y-102985714D01*
X80409524Y-103080952D01*
X80361905Y-103128571D01*
X80266667Y-103176190D01*
X79885714Y-103176190D01*
X81409524Y-103652381D02*
X80838095Y-103652381D01*
X81123809Y-103652381D02*
X81123809Y-102652381D01*
X81028571Y-102795238D01*
X80933333Y-102890476D01*
X80838095Y-102938095D01*
X81885714Y-103652381D02*
X82076190Y-103652381D01*
X82171429Y-103604762D01*
X82219048Y-103557143D01*
X82314286Y-103414286D01*
X82361905Y-103223810D01*
X82361905Y-102842857D01*
X82314286Y-102747619D01*
X82266667Y-102700000D01*
X82171429Y-102652381D01*
X81980952Y-102652381D01*
X81885714Y-102700000D01*
X81838095Y-102747619D01*
X81790476Y-102842857D01*
X81790476Y-103080952D01*
X81838095Y-103176190D01*
X81885714Y-103223810D01*
X81980952Y-103271429D01*
X82171429Y-103271429D01*
X82266667Y-103223810D01*
X82314286Y-103176190D01*
X82361905Y-103080952D01*
X79157143Y-98152381D02*
X78823809Y-97676190D01*
X78585714Y-98152381D02*
X78585714Y-97152381D01*
X78966667Y-97152381D01*
X79061905Y-97200000D01*
X79109524Y-97247619D01*
X79157143Y-97342857D01*
X79157143Y-97485714D01*
X79109524Y-97580952D01*
X79061905Y-97628571D01*
X78966667Y-97676190D01*
X78585714Y-97676190D01*
X79538095Y-97247619D02*
X79585714Y-97200000D01*
X79680952Y-97152381D01*
X79919048Y-97152381D01*
X80014286Y-97200000D01*
X80061905Y-97247619D01*
X80109524Y-97342857D01*
X80109524Y-97438095D01*
X80061905Y-97580952D01*
X79490476Y-98152381D01*
X80109524Y-98152381D01*
X80728571Y-97152381D02*
X80823810Y-97152381D01*
X80919048Y-97200000D01*
X80966667Y-97247619D01*
X81014286Y-97342857D01*
X81061905Y-97533333D01*
X81061905Y-97771429D01*
X81014286Y-97961905D01*
X80966667Y-98057143D01*
X80919048Y-98104762D01*
X80823810Y-98152381D01*
X80728571Y-98152381D01*
X80633333Y-98104762D01*
X80585714Y-98057143D01*
X80538095Y-97961905D01*
X80490476Y-97771429D01*
X80490476Y-97533333D01*
X80538095Y-97342857D01*
X80585714Y-97247619D01*
X80633333Y-97200000D01*
X80728571Y-97152381D01*
X104757143Y-97752381D02*
X104423809Y-97276190D01*
X104185714Y-97752381D02*
X104185714Y-96752381D01*
X104566667Y-96752381D01*
X104661905Y-96800000D01*
X104709524Y-96847619D01*
X104757143Y-96942857D01*
X104757143Y-97085714D01*
X104709524Y-97180952D01*
X104661905Y-97228571D01*
X104566667Y-97276190D01*
X104185714Y-97276190D01*
X105138095Y-96847619D02*
X105185714Y-96800000D01*
X105280952Y-96752381D01*
X105519048Y-96752381D01*
X105614286Y-96800000D01*
X105661905Y-96847619D01*
X105709524Y-96942857D01*
X105709524Y-97038095D01*
X105661905Y-97180952D01*
X105090476Y-97752381D01*
X105709524Y-97752381D01*
X106661905Y-97752381D02*
X106090476Y-97752381D01*
X106376190Y-97752381D02*
X106376190Y-96752381D01*
X106280952Y-96895238D01*
X106185714Y-96990476D01*
X106090476Y-97038095D01*
X89457143Y-103907143D02*
X89409524Y-103954762D01*
X89266667Y-104002381D01*
X89171429Y-104002381D01*
X89028571Y-103954762D01*
X88933333Y-103859524D01*
X88885714Y-103764286D01*
X88838095Y-103573810D01*
X88838095Y-103430952D01*
X88885714Y-103240476D01*
X88933333Y-103145238D01*
X89028571Y-103050000D01*
X89171429Y-103002381D01*
X89266667Y-103002381D01*
X89409524Y-103050000D01*
X89457143Y-103097619D01*
X89838095Y-103097619D02*
X89885714Y-103050000D01*
X89980952Y-103002381D01*
X90219048Y-103002381D01*
X90314286Y-103050000D01*
X90361905Y-103097619D01*
X90409524Y-103192857D01*
X90409524Y-103288095D01*
X90361905Y-103430952D01*
X89790476Y-104002381D01*
X90409524Y-104002381D01*
X91314286Y-103002381D02*
X90838095Y-103002381D01*
X90790476Y-103478571D01*
X90838095Y-103430952D01*
X90933333Y-103383333D01*
X91171429Y-103383333D01*
X91266667Y-103430952D01*
X91314286Y-103478571D01*
X91361905Y-103573810D01*
X91361905Y-103811905D01*
X91314286Y-103907143D01*
X91266667Y-103954762D01*
X91171429Y-104002381D01*
X90933333Y-104002381D01*
X90838095Y-103954762D01*
X90790476Y-103907143D01*
X67657143Y-118907143D02*
X67609524Y-118954762D01*
X67466667Y-119002381D01*
X67371429Y-119002381D01*
X67228571Y-118954762D01*
X67133333Y-118859524D01*
X67085714Y-118764286D01*
X67038095Y-118573810D01*
X67038095Y-118430952D01*
X67085714Y-118240476D01*
X67133333Y-118145238D01*
X67228571Y-118050000D01*
X67371429Y-118002381D01*
X67466667Y-118002381D01*
X67609524Y-118050000D01*
X67657143Y-118097619D01*
X68038095Y-118097619D02*
X68085714Y-118050000D01*
X68180952Y-118002381D01*
X68419048Y-118002381D01*
X68514286Y-118050000D01*
X68561905Y-118097619D01*
X68609524Y-118192857D01*
X68609524Y-118288095D01*
X68561905Y-118430952D01*
X67990476Y-119002381D01*
X68609524Y-119002381D01*
X69466667Y-118002381D02*
X69276190Y-118002381D01*
X69180952Y-118050000D01*
X69133333Y-118097619D01*
X69038095Y-118240476D01*
X68990476Y-118430952D01*
X68990476Y-118811905D01*
X69038095Y-118907143D01*
X69085714Y-118954762D01*
X69180952Y-119002381D01*
X69371429Y-119002381D01*
X69466667Y-118954762D01*
X69514286Y-118907143D01*
X69561905Y-118811905D01*
X69561905Y-118573810D01*
X69514286Y-118478571D01*
X69466667Y-118430952D01*
X69371429Y-118383333D01*
X69180952Y-118383333D01*
X69085714Y-118430952D01*
X69038095Y-118478571D01*
X68990476Y-118573810D01*
X61557143Y-126457143D02*
X61509524Y-126504762D01*
X61366667Y-126552381D01*
X61271429Y-126552381D01*
X61128571Y-126504762D01*
X61033333Y-126409524D01*
X60985714Y-126314286D01*
X60938095Y-126123810D01*
X60938095Y-125980952D01*
X60985714Y-125790476D01*
X61033333Y-125695238D01*
X61128571Y-125600000D01*
X61271429Y-125552381D01*
X61366667Y-125552381D01*
X61509524Y-125600000D01*
X61557143Y-125647619D01*
X61938095Y-125647619D02*
X61985714Y-125600000D01*
X62080952Y-125552381D01*
X62319048Y-125552381D01*
X62414286Y-125600000D01*
X62461905Y-125647619D01*
X62509524Y-125742857D01*
X62509524Y-125838095D01*
X62461905Y-125980952D01*
X61890476Y-126552381D01*
X62509524Y-126552381D01*
X62842857Y-125552381D02*
X63509524Y-125552381D01*
X63080952Y-126552381D01*
X55057143Y-126357143D02*
X55009524Y-126404762D01*
X54866667Y-126452381D01*
X54771429Y-126452381D01*
X54628571Y-126404762D01*
X54533333Y-126309524D01*
X54485714Y-126214286D01*
X54438095Y-126023810D01*
X54438095Y-125880952D01*
X54485714Y-125690476D01*
X54533333Y-125595238D01*
X54628571Y-125500000D01*
X54771429Y-125452381D01*
X54866667Y-125452381D01*
X55009524Y-125500000D01*
X55057143Y-125547619D01*
X55438095Y-125547619D02*
X55485714Y-125500000D01*
X55580952Y-125452381D01*
X55819048Y-125452381D01*
X55914286Y-125500000D01*
X55961905Y-125547619D01*
X56009524Y-125642857D01*
X56009524Y-125738095D01*
X55961905Y-125880952D01*
X55390476Y-126452381D01*
X56009524Y-126452381D01*
X56580952Y-125880952D02*
X56485714Y-125833333D01*
X56438095Y-125785714D01*
X56390476Y-125690476D01*
X56390476Y-125642857D01*
X56438095Y-125547619D01*
X56485714Y-125500000D01*
X56580952Y-125452381D01*
X56771429Y-125452381D01*
X56866667Y-125500000D01*
X56914286Y-125547619D01*
X56961905Y-125642857D01*
X56961905Y-125690476D01*
X56914286Y-125785714D01*
X56866667Y-125833333D01*
X56771429Y-125880952D01*
X56580952Y-125880952D01*
X56485714Y-125928571D01*
X56438095Y-125976190D01*
X56390476Y-126071429D01*
X56390476Y-126261905D01*
X56438095Y-126357143D01*
X56485714Y-126404762D01*
X56580952Y-126452381D01*
X56771429Y-126452381D01*
X56866667Y-126404762D01*
X56914286Y-126357143D01*
X56961905Y-126261905D01*
X56961905Y-126071429D01*
X56914286Y-125976190D01*
X56866667Y-125928571D01*
X56771429Y-125880952D01*
X62452381Y-110142857D02*
X61976190Y-110476191D01*
X62452381Y-110714286D02*
X61452381Y-110714286D01*
X61452381Y-110333333D01*
X61500000Y-110238095D01*
X61547619Y-110190476D01*
X61642857Y-110142857D01*
X61785714Y-110142857D01*
X61880952Y-110190476D01*
X61928571Y-110238095D01*
X61976190Y-110333333D01*
X61976190Y-110714286D01*
X61547619Y-109761905D02*
X61500000Y-109714286D01*
X61452381Y-109619048D01*
X61452381Y-109380952D01*
X61500000Y-109285714D01*
X61547619Y-109238095D01*
X61642857Y-109190476D01*
X61738095Y-109190476D01*
X61880952Y-109238095D01*
X62452381Y-109809524D01*
X62452381Y-109190476D01*
X61547619Y-108809524D02*
X61500000Y-108761905D01*
X61452381Y-108666667D01*
X61452381Y-108428571D01*
X61500000Y-108333333D01*
X61547619Y-108285714D01*
X61642857Y-108238095D01*
X61738095Y-108238095D01*
X61880952Y-108285714D01*
X62452381Y-108857143D01*
X62452381Y-108238095D01*
X64852381Y-112442857D02*
X64376190Y-112776191D01*
X64852381Y-113014286D02*
X63852381Y-113014286D01*
X63852381Y-112633333D01*
X63900000Y-112538095D01*
X63947619Y-112490476D01*
X64042857Y-112442857D01*
X64185714Y-112442857D01*
X64280952Y-112490476D01*
X64328571Y-112538095D01*
X64376190Y-112633333D01*
X64376190Y-113014286D01*
X63947619Y-112061905D02*
X63900000Y-112014286D01*
X63852381Y-111919048D01*
X63852381Y-111680952D01*
X63900000Y-111585714D01*
X63947619Y-111538095D01*
X64042857Y-111490476D01*
X64138095Y-111490476D01*
X64280952Y-111538095D01*
X64852381Y-112109524D01*
X64852381Y-111490476D01*
X63852381Y-111157143D02*
X63852381Y-110538095D01*
X64233333Y-110871429D01*
X64233333Y-110728571D01*
X64280952Y-110633333D01*
X64328571Y-110585714D01*
X64423810Y-110538095D01*
X64661905Y-110538095D01*
X64757143Y-110585714D01*
X64804762Y-110633333D01*
X64852381Y-110728571D01*
X64852381Y-111014286D01*
X64804762Y-111109524D01*
X64757143Y-111157143D01*
X80857143Y-120952381D02*
X80523809Y-120476190D01*
X80285714Y-120952381D02*
X80285714Y-119952381D01*
X80666667Y-119952381D01*
X80761905Y-120000000D01*
X80809524Y-120047619D01*
X80857143Y-120142857D01*
X80857143Y-120285714D01*
X80809524Y-120380952D01*
X80761905Y-120428571D01*
X80666667Y-120476190D01*
X80285714Y-120476190D01*
X81238095Y-120047619D02*
X81285714Y-120000000D01*
X81380952Y-119952381D01*
X81619048Y-119952381D01*
X81714286Y-120000000D01*
X81761905Y-120047619D01*
X81809524Y-120142857D01*
X81809524Y-120238095D01*
X81761905Y-120380952D01*
X81190476Y-120952381D01*
X81809524Y-120952381D01*
X82666667Y-120285714D02*
X82666667Y-120952381D01*
X82428571Y-119904762D02*
X82190476Y-120619048D01*
X82809524Y-120619048D01*
X72757143Y-122552381D02*
X72423809Y-122076190D01*
X72185714Y-122552381D02*
X72185714Y-121552381D01*
X72566667Y-121552381D01*
X72661905Y-121600000D01*
X72709524Y-121647619D01*
X72757143Y-121742857D01*
X72757143Y-121885714D01*
X72709524Y-121980952D01*
X72661905Y-122028571D01*
X72566667Y-122076190D01*
X72185714Y-122076190D01*
X73138095Y-121647619D02*
X73185714Y-121600000D01*
X73280952Y-121552381D01*
X73519048Y-121552381D01*
X73614286Y-121600000D01*
X73661905Y-121647619D01*
X73709524Y-121742857D01*
X73709524Y-121838095D01*
X73661905Y-121980952D01*
X73090476Y-122552381D01*
X73709524Y-122552381D01*
X74614286Y-121552381D02*
X74138095Y-121552381D01*
X74090476Y-122028571D01*
X74138095Y-121980952D01*
X74233333Y-121933333D01*
X74471429Y-121933333D01*
X74566667Y-121980952D01*
X74614286Y-122028571D01*
X74661905Y-122123810D01*
X74661905Y-122361905D01*
X74614286Y-122457143D01*
X74566667Y-122504762D01*
X74471429Y-122552381D01*
X74233333Y-122552381D01*
X74138095Y-122504762D01*
X74090476Y-122457143D01*
X100857143Y-122552381D02*
X100523809Y-122076190D01*
X100285714Y-122552381D02*
X100285714Y-121552381D01*
X100666667Y-121552381D01*
X100761905Y-121600000D01*
X100809524Y-121647619D01*
X100857143Y-121742857D01*
X100857143Y-121885714D01*
X100809524Y-121980952D01*
X100761905Y-122028571D01*
X100666667Y-122076190D01*
X100285714Y-122076190D01*
X101238095Y-121647619D02*
X101285714Y-121600000D01*
X101380952Y-121552381D01*
X101619048Y-121552381D01*
X101714286Y-121600000D01*
X101761905Y-121647619D01*
X101809524Y-121742857D01*
X101809524Y-121838095D01*
X101761905Y-121980952D01*
X101190476Y-122552381D01*
X101809524Y-122552381D01*
X102666667Y-121552381D02*
X102476190Y-121552381D01*
X102380952Y-121600000D01*
X102333333Y-121647619D01*
X102238095Y-121790476D01*
X102190476Y-121980952D01*
X102190476Y-122361905D01*
X102238095Y-122457143D01*
X102285714Y-122504762D01*
X102380952Y-122552381D01*
X102571429Y-122552381D01*
X102666667Y-122504762D01*
X102714286Y-122457143D01*
X102761905Y-122361905D01*
X102761905Y-122123810D01*
X102714286Y-122028571D01*
X102666667Y-121980952D01*
X102571429Y-121933333D01*
X102380952Y-121933333D01*
X102285714Y-121980952D01*
X102238095Y-122028571D01*
X102190476Y-122123810D01*
X92857143Y-120852381D02*
X92523809Y-120376190D01*
X92285714Y-120852381D02*
X92285714Y-119852381D01*
X92666667Y-119852381D01*
X92761905Y-119900000D01*
X92809524Y-119947619D01*
X92857143Y-120042857D01*
X92857143Y-120185714D01*
X92809524Y-120280952D01*
X92761905Y-120328571D01*
X92666667Y-120376190D01*
X92285714Y-120376190D01*
X93238095Y-119947619D02*
X93285714Y-119900000D01*
X93380952Y-119852381D01*
X93619048Y-119852381D01*
X93714286Y-119900000D01*
X93761905Y-119947619D01*
X93809524Y-120042857D01*
X93809524Y-120138095D01*
X93761905Y-120280952D01*
X93190476Y-120852381D01*
X93809524Y-120852381D01*
X94142857Y-119852381D02*
X94809524Y-119852381D01*
X94380952Y-120852381D01*
X92857143Y-124452381D02*
X92523809Y-123976190D01*
X92285714Y-124452381D02*
X92285714Y-123452381D01*
X92666667Y-123452381D01*
X92761905Y-123500000D01*
X92809524Y-123547619D01*
X92857143Y-123642857D01*
X92857143Y-123785714D01*
X92809524Y-123880952D01*
X92761905Y-123928571D01*
X92666667Y-123976190D01*
X92285714Y-123976190D01*
X93238095Y-123547619D02*
X93285714Y-123500000D01*
X93380952Y-123452381D01*
X93619048Y-123452381D01*
X93714286Y-123500000D01*
X93761905Y-123547619D01*
X93809524Y-123642857D01*
X93809524Y-123738095D01*
X93761905Y-123880952D01*
X93190476Y-124452381D01*
X93809524Y-124452381D01*
X94380952Y-123880952D02*
X94285714Y-123833333D01*
X94238095Y-123785714D01*
X94190476Y-123690476D01*
X94190476Y-123642857D01*
X94238095Y-123547619D01*
X94285714Y-123500000D01*
X94380952Y-123452381D01*
X94571429Y-123452381D01*
X94666667Y-123500000D01*
X94714286Y-123547619D01*
X94761905Y-123642857D01*
X94761905Y-123690476D01*
X94714286Y-123785714D01*
X94666667Y-123833333D01*
X94571429Y-123880952D01*
X94380952Y-123880952D01*
X94285714Y-123928571D01*
X94238095Y-123976190D01*
X94190476Y-124071429D01*
X94190476Y-124261905D01*
X94238095Y-124357143D01*
X94285714Y-124404762D01*
X94380952Y-124452381D01*
X94571429Y-124452381D01*
X94666667Y-124404762D01*
X94714286Y-124357143D01*
X94761905Y-124261905D01*
X94761905Y-124071429D01*
X94714286Y-123976190D01*
X94666667Y-123928571D01*
X94571429Y-123880952D01*
X100857143Y-126152381D02*
X100523809Y-125676190D01*
X100285714Y-126152381D02*
X100285714Y-125152381D01*
X100666667Y-125152381D01*
X100761905Y-125200000D01*
X100809524Y-125247619D01*
X100857143Y-125342857D01*
X100857143Y-125485714D01*
X100809524Y-125580952D01*
X100761905Y-125628571D01*
X100666667Y-125676190D01*
X100285714Y-125676190D01*
X101238095Y-125247619D02*
X101285714Y-125200000D01*
X101380952Y-125152381D01*
X101619048Y-125152381D01*
X101714286Y-125200000D01*
X101761905Y-125247619D01*
X101809524Y-125342857D01*
X101809524Y-125438095D01*
X101761905Y-125580952D01*
X101190476Y-126152381D01*
X101809524Y-126152381D01*
X102285714Y-126152381D02*
X102476190Y-126152381D01*
X102571429Y-126104762D01*
X102619048Y-126057143D01*
X102714286Y-125914286D01*
X102761905Y-125723810D01*
X102761905Y-125342857D01*
X102714286Y-125247619D01*
X102666667Y-125200000D01*
X102571429Y-125152381D01*
X102380952Y-125152381D01*
X102285714Y-125200000D01*
X102238095Y-125247619D01*
X102190476Y-125342857D01*
X102190476Y-125580952D01*
X102238095Y-125676190D01*
X102285714Y-125723810D01*
X102380952Y-125771429D01*
X102571429Y-125771429D01*
X102666667Y-125723810D01*
X102714286Y-125676190D01*
X102761905Y-125580952D01*
X54157143Y-109952381D02*
X53823809Y-109476190D01*
X53585714Y-109952381D02*
X53585714Y-108952381D01*
X53966667Y-108952381D01*
X54061905Y-109000000D01*
X54109524Y-109047619D01*
X54157143Y-109142857D01*
X54157143Y-109285714D01*
X54109524Y-109380952D01*
X54061905Y-109428571D01*
X53966667Y-109476190D01*
X53585714Y-109476190D01*
X54490476Y-108952381D02*
X55109524Y-108952381D01*
X54776190Y-109333333D01*
X54919048Y-109333333D01*
X55014286Y-109380952D01*
X55061905Y-109428571D01*
X55109524Y-109523810D01*
X55109524Y-109761905D01*
X55061905Y-109857143D01*
X55014286Y-109904762D01*
X54919048Y-109952381D01*
X54633333Y-109952381D01*
X54538095Y-109904762D01*
X54490476Y-109857143D01*
X55728571Y-108952381D02*
X55823810Y-108952381D01*
X55919048Y-109000000D01*
X55966667Y-109047619D01*
X56014286Y-109142857D01*
X56061905Y-109333333D01*
X56061905Y-109571429D01*
X56014286Y-109761905D01*
X55966667Y-109857143D01*
X55919048Y-109904762D01*
X55823810Y-109952381D01*
X55728571Y-109952381D01*
X55633333Y-109904762D01*
X55585714Y-109857143D01*
X55538095Y-109761905D01*
X55490476Y-109571429D01*
X55490476Y-109333333D01*
X55538095Y-109142857D01*
X55585714Y-109047619D01*
X55633333Y-109000000D01*
X55728571Y-108952381D01*
X56257143Y-112252381D02*
X55923809Y-111776190D01*
X55685714Y-112252381D02*
X55685714Y-111252381D01*
X56066667Y-111252381D01*
X56161905Y-111300000D01*
X56209524Y-111347619D01*
X56257143Y-111442857D01*
X56257143Y-111585714D01*
X56209524Y-111680952D01*
X56161905Y-111728571D01*
X56066667Y-111776190D01*
X55685714Y-111776190D01*
X56590476Y-111252381D02*
X57209524Y-111252381D01*
X56876190Y-111633333D01*
X57019048Y-111633333D01*
X57114286Y-111680952D01*
X57161905Y-111728571D01*
X57209524Y-111823810D01*
X57209524Y-112061905D01*
X57161905Y-112157143D01*
X57114286Y-112204762D01*
X57019048Y-112252381D01*
X56733333Y-112252381D01*
X56638095Y-112204762D01*
X56590476Y-112157143D01*
X58161905Y-112252381D02*
X57590476Y-112252381D01*
X57876190Y-112252381D02*
X57876190Y-111252381D01*
X57780952Y-111395238D01*
X57685714Y-111490476D01*
X57590476Y-111538095D01*
X58838095Y-121752381D02*
X58838095Y-122561905D01*
X58885714Y-122657143D01*
X58933333Y-122704762D01*
X59028571Y-122752381D01*
X59219048Y-122752381D01*
X59314286Y-122704762D01*
X59361905Y-122657143D01*
X59409524Y-122561905D01*
X59409524Y-121752381D01*
X60314286Y-122085714D02*
X60314286Y-122752381D01*
X60076190Y-121704762D02*
X59838095Y-122419048D01*
X60457143Y-122419048D01*
X41352381Y-51733333D02*
X42066667Y-51733333D01*
X42209524Y-51780953D01*
X42304762Y-51876191D01*
X42352381Y-52019048D01*
X42352381Y-52114286D01*
X41352381Y-50828571D02*
X41352381Y-51019048D01*
X41400000Y-51114286D01*
X41447619Y-51161905D01*
X41590476Y-51257143D01*
X41780952Y-51304762D01*
X42161905Y-51304762D01*
X42257143Y-51257143D01*
X42304762Y-51209524D01*
X42352381Y-51114286D01*
X42352381Y-50923809D01*
X42304762Y-50828571D01*
X42257143Y-50780952D01*
X42161905Y-50733333D01*
X41923810Y-50733333D01*
X41828571Y-50780952D01*
X41780952Y-50828571D01*
X41733333Y-50923809D01*
X41733333Y-51114286D01*
X41780952Y-51209524D01*
X41828571Y-51257143D01*
X41923810Y-51304762D01*
X116852381Y-112242857D02*
X116376190Y-112576191D01*
X116852381Y-112814286D02*
X115852381Y-112814286D01*
X115852381Y-112433333D01*
X115900000Y-112338095D01*
X115947619Y-112290476D01*
X116042857Y-112242857D01*
X116185714Y-112242857D01*
X116280952Y-112290476D01*
X116328571Y-112338095D01*
X116376190Y-112433333D01*
X116376190Y-112814286D01*
X115852381Y-111909524D02*
X115852381Y-111290476D01*
X116233333Y-111623810D01*
X116233333Y-111480952D01*
X116280952Y-111385714D01*
X116328571Y-111338095D01*
X116423810Y-111290476D01*
X116661905Y-111290476D01*
X116757143Y-111338095D01*
X116804762Y-111385714D01*
X116852381Y-111480952D01*
X116852381Y-111766667D01*
X116804762Y-111861905D01*
X116757143Y-111909524D01*
X115947619Y-110909524D02*
X115900000Y-110861905D01*
X115852381Y-110766667D01*
X115852381Y-110528571D01*
X115900000Y-110433333D01*
X115947619Y-110385714D01*
X116042857Y-110338095D01*
X116138095Y-110338095D01*
X116280952Y-110385714D01*
X116852381Y-110957143D01*
X116852381Y-110338095D01*
X110457143Y-104352381D02*
X110123809Y-103876190D01*
X109885714Y-104352381D02*
X109885714Y-103352381D01*
X110266667Y-103352381D01*
X110361905Y-103400000D01*
X110409524Y-103447619D01*
X110457143Y-103542857D01*
X110457143Y-103685714D01*
X110409524Y-103780952D01*
X110361905Y-103828571D01*
X110266667Y-103876190D01*
X109885714Y-103876190D01*
X110790476Y-103352381D02*
X111409524Y-103352381D01*
X111076190Y-103733333D01*
X111219048Y-103733333D01*
X111314286Y-103780952D01*
X111361905Y-103828571D01*
X111409524Y-103923810D01*
X111409524Y-104161905D01*
X111361905Y-104257143D01*
X111314286Y-104304762D01*
X111219048Y-104352381D01*
X110933333Y-104352381D01*
X110838095Y-104304762D01*
X110790476Y-104257143D01*
X111742857Y-103352381D02*
X112361905Y-103352381D01*
X112028571Y-103733333D01*
X112171429Y-103733333D01*
X112266667Y-103780952D01*
X112314286Y-103828571D01*
X112361905Y-103923810D01*
X112361905Y-104161905D01*
X112314286Y-104257143D01*
X112266667Y-104304762D01*
X112171429Y-104352381D01*
X111885714Y-104352381D01*
X111790476Y-104304762D01*
X111742857Y-104257143D01*
X58657143Y-42657143D02*
X58609524Y-42704762D01*
X58466667Y-42752381D01*
X58371429Y-42752381D01*
X58228571Y-42704762D01*
X58133333Y-42609524D01*
X58085714Y-42514286D01*
X58038095Y-42323810D01*
X58038095Y-42180952D01*
X58085714Y-41990476D01*
X58133333Y-41895238D01*
X58228571Y-41800000D01*
X58371429Y-41752381D01*
X58466667Y-41752381D01*
X58609524Y-41800000D01*
X58657143Y-41847619D01*
X59038095Y-41847619D02*
X59085714Y-41800000D01*
X59180952Y-41752381D01*
X59419048Y-41752381D01*
X59514286Y-41800000D01*
X59561905Y-41847619D01*
X59609524Y-41942857D01*
X59609524Y-42038095D01*
X59561905Y-42180952D01*
X58990476Y-42752381D01*
X59609524Y-42752381D01*
X60085714Y-42752381D02*
X60276190Y-42752381D01*
X60371429Y-42704762D01*
X60419048Y-42657143D01*
X60514286Y-42514286D01*
X60561905Y-42323810D01*
X60561905Y-41942857D01*
X60514286Y-41847619D01*
X60466667Y-41800000D01*
X60371429Y-41752381D01*
X60180952Y-41752381D01*
X60085714Y-41800000D01*
X60038095Y-41847619D01*
X59990476Y-41942857D01*
X59990476Y-42180952D01*
X60038095Y-42276190D01*
X60085714Y-42323810D01*
X60180952Y-42371429D01*
X60371429Y-42371429D01*
X60466667Y-42323810D01*
X60514286Y-42276190D01*
X60561905Y-42180952D01*
X52757143Y-41442857D02*
X52804762Y-41490476D01*
X52852381Y-41633333D01*
X52852381Y-41728571D01*
X52804762Y-41871429D01*
X52709524Y-41966667D01*
X52614286Y-42014286D01*
X52423810Y-42061905D01*
X52280952Y-42061905D01*
X52090476Y-42014286D01*
X51995238Y-41966667D01*
X51900000Y-41871429D01*
X51852381Y-41728571D01*
X51852381Y-41633333D01*
X51900000Y-41490476D01*
X51947619Y-41442857D01*
X51852381Y-41109524D02*
X51852381Y-40490476D01*
X52233333Y-40823810D01*
X52233333Y-40680952D01*
X52280952Y-40585714D01*
X52328571Y-40538095D01*
X52423810Y-40490476D01*
X52661905Y-40490476D01*
X52757143Y-40538095D01*
X52804762Y-40585714D01*
X52852381Y-40680952D01*
X52852381Y-40966667D01*
X52804762Y-41061905D01*
X52757143Y-41109524D01*
X51852381Y-39871429D02*
X51852381Y-39776190D01*
X51900000Y-39680952D01*
X51947619Y-39633333D01*
X52042857Y-39585714D01*
X52233333Y-39538095D01*
X52471429Y-39538095D01*
X52661905Y-39585714D01*
X52757143Y-39633333D01*
X52804762Y-39680952D01*
X52852381Y-39776190D01*
X52852381Y-39871429D01*
X52804762Y-39966667D01*
X52757143Y-40014286D01*
X52661905Y-40061905D01*
X52471429Y-40109524D01*
X52233333Y-40109524D01*
X52042857Y-40061905D01*
X51947619Y-40014286D01*
X51900000Y-39966667D01*
X51852381Y-39871429D01*
X68566667Y-60382381D02*
X68566667Y-61096667D01*
X68519047Y-61239524D01*
X68423809Y-61334762D01*
X68280952Y-61382381D01*
X68185714Y-61382381D01*
X69042857Y-61382381D02*
X69042857Y-60382381D01*
X69423810Y-60382381D01*
X69519048Y-60430000D01*
X69566667Y-60477619D01*
X69614286Y-60572857D01*
X69614286Y-60715714D01*
X69566667Y-60810952D01*
X69519048Y-60858571D01*
X69423810Y-60906190D01*
X69042857Y-60906190D01*
X70566667Y-61382381D02*
X69995238Y-61382381D01*
X70280952Y-61382381D02*
X70280952Y-60382381D01*
X70185714Y-60525238D01*
X70090476Y-60620476D01*
X69995238Y-60668095D01*
X43957143Y-43352381D02*
X43623809Y-42876190D01*
X43385714Y-43352381D02*
X43385714Y-42352381D01*
X43766667Y-42352381D01*
X43861905Y-42400000D01*
X43909524Y-42447619D01*
X43957143Y-42542857D01*
X43957143Y-42685714D01*
X43909524Y-42780952D01*
X43861905Y-42828571D01*
X43766667Y-42876190D01*
X43385714Y-42876190D01*
X44290476Y-42352381D02*
X44909524Y-42352381D01*
X44576190Y-42733333D01*
X44719048Y-42733333D01*
X44814286Y-42780952D01*
X44861905Y-42828571D01*
X44909524Y-42923810D01*
X44909524Y-43161905D01*
X44861905Y-43257143D01*
X44814286Y-43304762D01*
X44719048Y-43352381D01*
X44433333Y-43352381D01*
X44338095Y-43304762D01*
X44290476Y-43257143D01*
X45766667Y-42685714D02*
X45766667Y-43352381D01*
X45528571Y-42304762D02*
X45290476Y-43019048D01*
X45909524Y-43019048D01*
X63152381Y-48342857D02*
X62676190Y-48676191D01*
X63152381Y-48914286D02*
X62152381Y-48914286D01*
X62152381Y-48533333D01*
X62200000Y-48438095D01*
X62247619Y-48390476D01*
X62342857Y-48342857D01*
X62485714Y-48342857D01*
X62580952Y-48390476D01*
X62628571Y-48438095D01*
X62676190Y-48533333D01*
X62676190Y-48914286D01*
X62152381Y-48009524D02*
X62152381Y-47390476D01*
X62533333Y-47723810D01*
X62533333Y-47580952D01*
X62580952Y-47485714D01*
X62628571Y-47438095D01*
X62723810Y-47390476D01*
X62961905Y-47390476D01*
X63057143Y-47438095D01*
X63104762Y-47485714D01*
X63152381Y-47580952D01*
X63152381Y-47866667D01*
X63104762Y-47961905D01*
X63057143Y-48009524D01*
X62152381Y-46485714D02*
X62152381Y-46961905D01*
X62628571Y-47009524D01*
X62580952Y-46961905D01*
X62533333Y-46866667D01*
X62533333Y-46628571D01*
X62580952Y-46533333D01*
X62628571Y-46485714D01*
X62723810Y-46438095D01*
X62961905Y-46438095D01*
X63057143Y-46485714D01*
X63104762Y-46533333D01*
X63152381Y-46628571D01*
X63152381Y-46866667D01*
X63104762Y-46961905D01*
X63057143Y-47009524D01*
X59852381Y-48542857D02*
X59376190Y-48876191D01*
X59852381Y-49114286D02*
X58852381Y-49114286D01*
X58852381Y-48733333D01*
X58900000Y-48638095D01*
X58947619Y-48590476D01*
X59042857Y-48542857D01*
X59185714Y-48542857D01*
X59280952Y-48590476D01*
X59328571Y-48638095D01*
X59376190Y-48733333D01*
X59376190Y-49114286D01*
X58852381Y-48209524D02*
X58852381Y-47590476D01*
X59233333Y-47923810D01*
X59233333Y-47780952D01*
X59280952Y-47685714D01*
X59328571Y-47638095D01*
X59423810Y-47590476D01*
X59661905Y-47590476D01*
X59757143Y-47638095D01*
X59804762Y-47685714D01*
X59852381Y-47780952D01*
X59852381Y-48066667D01*
X59804762Y-48161905D01*
X59757143Y-48209524D01*
X58852381Y-46733333D02*
X58852381Y-46923810D01*
X58900000Y-47019048D01*
X58947619Y-47066667D01*
X59090476Y-47161905D01*
X59280952Y-47209524D01*
X59661905Y-47209524D01*
X59757143Y-47161905D01*
X59804762Y-47114286D01*
X59852381Y-47019048D01*
X59852381Y-46828571D01*
X59804762Y-46733333D01*
X59757143Y-46685714D01*
X59661905Y-46638095D01*
X59423810Y-46638095D01*
X59328571Y-46685714D01*
X59280952Y-46733333D01*
X59233333Y-46828571D01*
X59233333Y-47019048D01*
X59280952Y-47114286D01*
X59328571Y-47161905D01*
X59423810Y-47209524D01*
X55052381Y-46042857D02*
X54576190Y-46376191D01*
X55052381Y-46614286D02*
X54052381Y-46614286D01*
X54052381Y-46233333D01*
X54100000Y-46138095D01*
X54147619Y-46090476D01*
X54242857Y-46042857D01*
X54385714Y-46042857D01*
X54480952Y-46090476D01*
X54528571Y-46138095D01*
X54576190Y-46233333D01*
X54576190Y-46614286D01*
X54052381Y-45709524D02*
X54052381Y-45090476D01*
X54433333Y-45423810D01*
X54433333Y-45280952D01*
X54480952Y-45185714D01*
X54528571Y-45138095D01*
X54623810Y-45090476D01*
X54861905Y-45090476D01*
X54957143Y-45138095D01*
X55004762Y-45185714D01*
X55052381Y-45280952D01*
X55052381Y-45566667D01*
X55004762Y-45661905D01*
X54957143Y-45709524D01*
X54052381Y-44757143D02*
X54052381Y-44090476D01*
X55052381Y-44519048D01*
X61057143Y-51952381D02*
X60723809Y-51476190D01*
X60485714Y-51952381D02*
X60485714Y-50952381D01*
X60866667Y-50952381D01*
X60961905Y-51000000D01*
X61009524Y-51047619D01*
X61057143Y-51142857D01*
X61057143Y-51285714D01*
X61009524Y-51380952D01*
X60961905Y-51428571D01*
X60866667Y-51476190D01*
X60485714Y-51476190D01*
X61390476Y-50952381D02*
X62009524Y-50952381D01*
X61676190Y-51333333D01*
X61819048Y-51333333D01*
X61914286Y-51380952D01*
X61961905Y-51428571D01*
X62009524Y-51523810D01*
X62009524Y-51761905D01*
X61961905Y-51857143D01*
X61914286Y-51904762D01*
X61819048Y-51952381D01*
X61533333Y-51952381D01*
X61438095Y-51904762D01*
X61390476Y-51857143D01*
X62580952Y-51380952D02*
X62485714Y-51333333D01*
X62438095Y-51285714D01*
X62390476Y-51190476D01*
X62390476Y-51142857D01*
X62438095Y-51047619D01*
X62485714Y-51000000D01*
X62580952Y-50952381D01*
X62771429Y-50952381D01*
X62866667Y-51000000D01*
X62914286Y-51047619D01*
X62961905Y-51142857D01*
X62961905Y-51190476D01*
X62914286Y-51285714D01*
X62866667Y-51333333D01*
X62771429Y-51380952D01*
X62580952Y-51380952D01*
X62485714Y-51428571D01*
X62438095Y-51476190D01*
X62390476Y-51571429D01*
X62390476Y-51761905D01*
X62438095Y-51857143D01*
X62485714Y-51904762D01*
X62580952Y-51952381D01*
X62771429Y-51952381D01*
X62866667Y-51904762D01*
X62914286Y-51857143D01*
X62961905Y-51761905D01*
X62961905Y-51571429D01*
X62914286Y-51476190D01*
X62866667Y-51428571D01*
X62771429Y-51380952D01*
X61357143Y-56852381D02*
X61023809Y-56376190D01*
X60785714Y-56852381D02*
X60785714Y-55852381D01*
X61166667Y-55852381D01*
X61261905Y-55900000D01*
X61309524Y-55947619D01*
X61357143Y-56042857D01*
X61357143Y-56185714D01*
X61309524Y-56280952D01*
X61261905Y-56328571D01*
X61166667Y-56376190D01*
X60785714Y-56376190D01*
X61690476Y-55852381D02*
X62309524Y-55852381D01*
X61976190Y-56233333D01*
X62119048Y-56233333D01*
X62214286Y-56280952D01*
X62261905Y-56328571D01*
X62309524Y-56423810D01*
X62309524Y-56661905D01*
X62261905Y-56757143D01*
X62214286Y-56804762D01*
X62119048Y-56852381D01*
X61833333Y-56852381D01*
X61738095Y-56804762D01*
X61690476Y-56757143D01*
X62785714Y-56852381D02*
X62976190Y-56852381D01*
X63071429Y-56804762D01*
X63119048Y-56757143D01*
X63214286Y-56614286D01*
X63261905Y-56423810D01*
X63261905Y-56042857D01*
X63214286Y-55947619D01*
X63166667Y-55900000D01*
X63071429Y-55852381D01*
X62880952Y-55852381D01*
X62785714Y-55900000D01*
X62738095Y-55947619D01*
X62690476Y-56042857D01*
X62690476Y-56280952D01*
X62738095Y-56376190D01*
X62785714Y-56423810D01*
X62880952Y-56471429D01*
X63071429Y-56471429D01*
X63166667Y-56423810D01*
X63214286Y-56376190D01*
X63261905Y-56280952D01*
X47752381Y-55361905D02*
X48561905Y-55361905D01*
X48657143Y-55314286D01*
X48704762Y-55266667D01*
X48752381Y-55171429D01*
X48752381Y-54980952D01*
X48704762Y-54885714D01*
X48657143Y-54838095D01*
X48561905Y-54790476D01*
X47752381Y-54790476D01*
X47752381Y-53838095D02*
X47752381Y-54314286D01*
X48228571Y-54361905D01*
X48180952Y-54314286D01*
X48133333Y-54219048D01*
X48133333Y-53980952D01*
X48180952Y-53885714D01*
X48228571Y-53838095D01*
X48323810Y-53790476D01*
X48561905Y-53790476D01*
X48657143Y-53838095D01*
X48704762Y-53885714D01*
X48752381Y-53980952D01*
X48752381Y-54219048D01*
X48704762Y-54314286D01*
X48657143Y-54361905D01*
X45733334Y-50407143D02*
X45685715Y-50454762D01*
X45542858Y-50502381D01*
X45447620Y-50502381D01*
X45304762Y-50454762D01*
X45209524Y-50359524D01*
X45161905Y-50264286D01*
X45114286Y-50073810D01*
X45114286Y-49930952D01*
X45161905Y-49740476D01*
X45209524Y-49645238D01*
X45304762Y-49550000D01*
X45447620Y-49502381D01*
X45542858Y-49502381D01*
X45685715Y-49550000D01*
X45733334Y-49597619D01*
X46638096Y-49502381D02*
X46161905Y-49502381D01*
X46114286Y-49978571D01*
X46161905Y-49930952D01*
X46257143Y-49883333D01*
X46495239Y-49883333D01*
X46590477Y-49930952D01*
X46638096Y-49978571D01*
X46685715Y-50073810D01*
X46685715Y-50311905D01*
X46638096Y-50407143D01*
X46590477Y-50454762D01*
X46495239Y-50502381D01*
X46257143Y-50502381D01*
X46161905Y-50454762D01*
X46114286Y-50407143D01*
X44657143Y-67707143D02*
X44609524Y-67754762D01*
X44466667Y-67802381D01*
X44371429Y-67802381D01*
X44228571Y-67754762D01*
X44133333Y-67659524D01*
X44085714Y-67564286D01*
X44038095Y-67373810D01*
X44038095Y-67230952D01*
X44085714Y-67040476D01*
X44133333Y-66945238D01*
X44228571Y-66850000D01*
X44371429Y-66802381D01*
X44466667Y-66802381D01*
X44609524Y-66850000D01*
X44657143Y-66897619D01*
X44990476Y-66802381D02*
X45609524Y-66802381D01*
X45276190Y-67183333D01*
X45419048Y-67183333D01*
X45514286Y-67230952D01*
X45561905Y-67278571D01*
X45609524Y-67373810D01*
X45609524Y-67611905D01*
X45561905Y-67707143D01*
X45514286Y-67754762D01*
X45419048Y-67802381D01*
X45133333Y-67802381D01*
X45038095Y-67754762D01*
X44990476Y-67707143D01*
X46561905Y-67802381D02*
X45990476Y-67802381D01*
X46276190Y-67802381D02*
X46276190Y-66802381D01*
X46180952Y-66945238D01*
X46085714Y-67040476D01*
X45990476Y-67088095D01*
X64857143Y-68142857D02*
X64904762Y-68190476D01*
X64952381Y-68333333D01*
X64952381Y-68428571D01*
X64904762Y-68571429D01*
X64809524Y-68666667D01*
X64714286Y-68714286D01*
X64523810Y-68761905D01*
X64380952Y-68761905D01*
X64190476Y-68714286D01*
X64095238Y-68666667D01*
X64000000Y-68571429D01*
X63952381Y-68428571D01*
X63952381Y-68333333D01*
X64000000Y-68190476D01*
X64047619Y-68142857D01*
X63952381Y-67809524D02*
X63952381Y-67190476D01*
X64333333Y-67523810D01*
X64333333Y-67380952D01*
X64380952Y-67285714D01*
X64428571Y-67238095D01*
X64523810Y-67190476D01*
X64761905Y-67190476D01*
X64857143Y-67238095D01*
X64904762Y-67285714D01*
X64952381Y-67380952D01*
X64952381Y-67666667D01*
X64904762Y-67761905D01*
X64857143Y-67809524D01*
X64047619Y-66809524D02*
X64000000Y-66761905D01*
X63952381Y-66666667D01*
X63952381Y-66428571D01*
X64000000Y-66333333D01*
X64047619Y-66285714D01*
X64142857Y-66238095D01*
X64238095Y-66238095D01*
X64380952Y-66285714D01*
X64952381Y-66857143D01*
X64952381Y-66238095D01*
X41152381Y-73133333D02*
X41866667Y-73133333D01*
X42009524Y-73180953D01*
X42104762Y-73276191D01*
X42152381Y-73419048D01*
X42152381Y-73514286D01*
X41152381Y-72752381D02*
X41152381Y-72085714D01*
X42152381Y-72514286D01*
X68666667Y-72082381D02*
X68666667Y-72796667D01*
X68619047Y-72939524D01*
X68523809Y-73034762D01*
X68380952Y-73082381D01*
X68285714Y-73082381D01*
X69142857Y-73082381D02*
X69142857Y-72082381D01*
X69523810Y-72082381D01*
X69619048Y-72130000D01*
X69666667Y-72177619D01*
X69714286Y-72272857D01*
X69714286Y-72415714D01*
X69666667Y-72510952D01*
X69619048Y-72558571D01*
X69523810Y-72606190D01*
X69142857Y-72606190D01*
X70095238Y-72177619D02*
X70142857Y-72130000D01*
X70238095Y-72082381D01*
X70476191Y-72082381D01*
X70571429Y-72130000D01*
X70619048Y-72177619D01*
X70666667Y-72272857D01*
X70666667Y-72368095D01*
X70619048Y-72510952D01*
X70047619Y-73082381D01*
X70666667Y-73082381D01*
X43457143Y-63752381D02*
X43123809Y-63276190D01*
X42885714Y-63752381D02*
X42885714Y-62752381D01*
X43266667Y-62752381D01*
X43361905Y-62800000D01*
X43409524Y-62847619D01*
X43457143Y-62942857D01*
X43457143Y-63085714D01*
X43409524Y-63180952D01*
X43361905Y-63228571D01*
X43266667Y-63276190D01*
X42885714Y-63276190D01*
X44314286Y-63085714D02*
X44314286Y-63752381D01*
X44076190Y-62704762D02*
X43838095Y-63419048D01*
X44457143Y-63419048D01*
X45028571Y-62752381D02*
X45123810Y-62752381D01*
X45219048Y-62800000D01*
X45266667Y-62847619D01*
X45314286Y-62942857D01*
X45361905Y-63133333D01*
X45361905Y-63371429D01*
X45314286Y-63561905D01*
X45266667Y-63657143D01*
X45219048Y-63704762D01*
X45123810Y-63752381D01*
X45028571Y-63752381D01*
X44933333Y-63704762D01*
X44885714Y-63657143D01*
X44838095Y-63561905D01*
X44790476Y-63371429D01*
X44790476Y-63133333D01*
X44838095Y-62942857D01*
X44885714Y-62847619D01*
X44933333Y-62800000D01*
X45028571Y-62752381D01*
X64852381Y-63242857D02*
X64376190Y-63576191D01*
X64852381Y-63814286D02*
X63852381Y-63814286D01*
X63852381Y-63433333D01*
X63900000Y-63338095D01*
X63947619Y-63290476D01*
X64042857Y-63242857D01*
X64185714Y-63242857D01*
X64280952Y-63290476D01*
X64328571Y-63338095D01*
X64376190Y-63433333D01*
X64376190Y-63814286D01*
X64185714Y-62385714D02*
X64852381Y-62385714D01*
X63804762Y-62623810D02*
X64519048Y-62861905D01*
X64519048Y-62242857D01*
X64852381Y-61338095D02*
X64852381Y-61909524D01*
X64852381Y-61623810D02*
X63852381Y-61623810D01*
X63995238Y-61719048D01*
X64090476Y-61814286D01*
X64138095Y-61909524D01*
X60557143Y-73252381D02*
X60223809Y-72776190D01*
X59985714Y-73252381D02*
X59985714Y-72252381D01*
X60366667Y-72252381D01*
X60461905Y-72300000D01*
X60509524Y-72347619D01*
X60557143Y-72442857D01*
X60557143Y-72585714D01*
X60509524Y-72680952D01*
X60461905Y-72728571D01*
X60366667Y-72776190D01*
X59985714Y-72776190D01*
X61414286Y-72585714D02*
X61414286Y-73252381D01*
X61176190Y-72204762D02*
X60938095Y-72919048D01*
X61557143Y-72919048D01*
X61890476Y-72347619D02*
X61938095Y-72300000D01*
X62033333Y-72252381D01*
X62271429Y-72252381D01*
X62366667Y-72300000D01*
X62414286Y-72347619D01*
X62461905Y-72442857D01*
X62461905Y-72538095D01*
X62414286Y-72680952D01*
X61842857Y-73252381D01*
X62461905Y-73252381D01*
X59952381Y-65642857D02*
X59476190Y-65976191D01*
X59952381Y-66214286D02*
X58952381Y-66214286D01*
X58952381Y-65833333D01*
X59000000Y-65738095D01*
X59047619Y-65690476D01*
X59142857Y-65642857D01*
X59285714Y-65642857D01*
X59380952Y-65690476D01*
X59428571Y-65738095D01*
X59476190Y-65833333D01*
X59476190Y-66214286D01*
X59285714Y-64785714D02*
X59952381Y-64785714D01*
X58904762Y-65023810D02*
X59619048Y-65261905D01*
X59619048Y-64642857D01*
X58952381Y-64357143D02*
X58952381Y-63738095D01*
X59333333Y-64071429D01*
X59333333Y-63928571D01*
X59380952Y-63833333D01*
X59428571Y-63785714D01*
X59523810Y-63738095D01*
X59761905Y-63738095D01*
X59857143Y-63785714D01*
X59904762Y-63833333D01*
X59952381Y-63928571D01*
X59952381Y-64214286D01*
X59904762Y-64309524D01*
X59857143Y-64357143D01*
X50357143Y-60252381D02*
X50023809Y-59776190D01*
X49785714Y-60252381D02*
X49785714Y-59252381D01*
X50166667Y-59252381D01*
X50261905Y-59300000D01*
X50309524Y-59347619D01*
X50357143Y-59442857D01*
X50357143Y-59585714D01*
X50309524Y-59680952D01*
X50261905Y-59728571D01*
X50166667Y-59776190D01*
X49785714Y-59776190D01*
X51214286Y-59585714D02*
X51214286Y-60252381D01*
X50976190Y-59204762D02*
X50738095Y-59919048D01*
X51357143Y-59919048D01*
X52166667Y-59585714D02*
X52166667Y-60252381D01*
X51928571Y-59204762D02*
X51690476Y-59919048D01*
X52309524Y-59919048D01*
X51957143Y-64852381D02*
X51623809Y-64376190D01*
X51385714Y-64852381D02*
X51385714Y-63852381D01*
X51766667Y-63852381D01*
X51861905Y-63900000D01*
X51909524Y-63947619D01*
X51957143Y-64042857D01*
X51957143Y-64185714D01*
X51909524Y-64280952D01*
X51861905Y-64328571D01*
X51766667Y-64376190D01*
X51385714Y-64376190D01*
X52814286Y-64185714D02*
X52814286Y-64852381D01*
X52576190Y-63804762D02*
X52338095Y-64519048D01*
X52957143Y-64519048D01*
X53814286Y-63852381D02*
X53338095Y-63852381D01*
X53290476Y-64328571D01*
X53338095Y-64280952D01*
X53433333Y-64233333D01*
X53671429Y-64233333D01*
X53766667Y-64280952D01*
X53814286Y-64328571D01*
X53861905Y-64423810D01*
X53861905Y-64661905D01*
X53814286Y-64757143D01*
X53766667Y-64804762D01*
X53671429Y-64852381D01*
X53433333Y-64852381D01*
X53338095Y-64804762D01*
X53290476Y-64757143D01*
M02*
