M48
;DRILL file {KiCad 4.0.7} date 01/19/21 23:59:26
;FORMAT={-:-/ absolute / metric / decimal}
FMAT,2
METRIC,TZ
T1C2.000
T2C3.048
%
G90
G05
M71
T2
X33.Y-33.
X33.Y-127.
X127.Y-33.
X127.Y-127.
T1
X32.5Y-67.25G85X32.5Y-67.25
G05
X32.5Y-76.25G85X32.5Y-76.25
G05
X32.7Y-102.G85X32.7Y-102.
G05
X32.7Y-111.G85X32.7Y-111.
G05
X32.75Y-55.75G85X32.75Y-55.75
G05
X32.75Y-64.75G85X32.75Y-64.75
G05
X32.9Y-89.8G85X32.9Y-89.8
G05
X32.9Y-98.8G85X32.9Y-98.8
G05
X106.Y-127.5G85X106.Y-127.5
G05
X115.Y-127.5G85X115.Y-127.5
G05
X126.3Y-86.3G85X126.3Y-86.3
G05
X126.3Y-95.3G85X126.3Y-95.3
G05
X126.4Y-73.6G85X126.4Y-73.6
G05
X126.4Y-82.6G85X126.4Y-82.6
G05
X127.Y-109.25G85X127.Y-109.25
G05
X127.Y-118.25G85X127.Y-118.25
G05
T0
M30
