G04 #@! TF.FileFunction,Soldermask,Bot*
%FSLAX46Y46*%
G04 Gerber Fmt 4.6, Leading zero omitted, Abs format (unit mm)*
G04 Created by KiCad (PCBNEW 4.0.7) date 03/22/21 13:38:18*
%MOMM*%
%LPD*%
G01*
G04 APERTURE LIST*
%ADD10C,0.100000*%
%ADD11C,2.000000*%
%ADD12O,2.000000X2.000000*%
%ADD13R,3.400000X3.400000*%
%ADD14C,3.400000*%
%ADD15O,2.400000X2.400000*%
%ADD16O,2.900000X3.900000*%
%ADD17O,3.900000X2.900000*%
%ADD18C,1.920000*%
%ADD19C,3.100000*%
%ADD20R,2.100000X2.100000*%
%ADD21O,2.100000X2.100000*%
%ADD22C,4.464000*%
%ADD23R,2.400000X2.400000*%
%ADD24C,2.400000*%
%ADD25R,3.900000X3.900000*%
G04 APERTURE END LIST*
D10*
D11*
X47650000Y-103050000D03*
D12*
X47650000Y-110670000D03*
D11*
X84400000Y-82450000D03*
D12*
X84400000Y-90070000D03*
D13*
X41350000Y-125500000D03*
D14*
X41350000Y-120420000D03*
D13*
X122900000Y-99900000D03*
D14*
X122900000Y-104980000D03*
D15*
X32700000Y-70850000D03*
X32700000Y-61850000D03*
D16*
X36200000Y-66350000D03*
D17*
X41200000Y-66350000D03*
D11*
X78200000Y-93200000D03*
X83200000Y-93200000D03*
X96750000Y-116850000D03*
X101750000Y-116850000D03*
D18*
X110540000Y-37500000D03*
X108000000Y-37500000D03*
X108000000Y-35500000D03*
X110540000Y-35500000D03*
D19*
X115270000Y-32800000D03*
X103270000Y-32800000D03*
D13*
X100750000Y-123950000D03*
D14*
X95670000Y-123950000D03*
D11*
X87350000Y-111700000D03*
D12*
X94970000Y-111700000D03*
D11*
X85100000Y-98950000D03*
D12*
X85100000Y-106570000D03*
D11*
X88880000Y-92930000D03*
X88880000Y-97930000D03*
X96760000Y-100750000D03*
X101760000Y-100750000D03*
X89900000Y-82500000D03*
D12*
X89900000Y-90120000D03*
D11*
X92620000Y-101540000D03*
D12*
X92620000Y-93920000D03*
D11*
X87400000Y-108130000D03*
D12*
X95020000Y-108130000D03*
D11*
X80200000Y-83000000D03*
D12*
X72580000Y-83000000D03*
D11*
X62700000Y-81800000D03*
D12*
X55080000Y-81800000D03*
D13*
X36850000Y-44700000D03*
D14*
X36850000Y-39620000D03*
D20*
X89700000Y-63200000D03*
D21*
X89700000Y-60660000D03*
X89700000Y-58120000D03*
D11*
X50300000Y-57000000D03*
D12*
X50300000Y-64620000D03*
D11*
X66800000Y-55500000D03*
D12*
X66800000Y-47880000D03*
D13*
X37250000Y-80650000D03*
D14*
X37250000Y-75570000D03*
D20*
X89800000Y-74800000D03*
D21*
X89800000Y-72260000D03*
X89800000Y-69720000D03*
D11*
X51400000Y-66700000D03*
D12*
X51400000Y-74320000D03*
D11*
X65000000Y-70300000D03*
D12*
X57380000Y-70300000D03*
D22*
X33000000Y-33000000D03*
X127000000Y-33000000D03*
X127000000Y-127000000D03*
X33000000Y-127000000D03*
D11*
X70600000Y-47900000D03*
D12*
X70600000Y-55520000D03*
D11*
X68200000Y-69900000D03*
D12*
X68200000Y-77520000D03*
D11*
X85700000Y-53600000D03*
D12*
X85700000Y-61220000D03*
D11*
X86900000Y-68100000D03*
D12*
X79280000Y-68100000D03*
D20*
X53700000Y-56700000D03*
D21*
X53700000Y-59240000D03*
D20*
X57900000Y-76800000D03*
D21*
X57900000Y-74260000D03*
D20*
X72900000Y-61600000D03*
D21*
X72900000Y-59060000D03*
D20*
X76000000Y-68700000D03*
D21*
X76000000Y-71240000D03*
D20*
X98600000Y-83700000D03*
D21*
X98600000Y-81160000D03*
D15*
X32650000Y-58700000D03*
X32650000Y-49700000D03*
D16*
X36150000Y-54200000D03*
D17*
X41150000Y-54200000D03*
D15*
X32850000Y-94100000D03*
X32850000Y-85100000D03*
D16*
X36350000Y-89600000D03*
D17*
X41350000Y-89600000D03*
D15*
X33050000Y-116800000D03*
X33050000Y-107800000D03*
D16*
X36550000Y-112300000D03*
D17*
X41550000Y-112300000D03*
D15*
X126300000Y-86300000D03*
X126300000Y-95300000D03*
D16*
X122800000Y-90800000D03*
D17*
X117800000Y-90800000D03*
D15*
X126400000Y-73600000D03*
X126400000Y-82600000D03*
D16*
X122900000Y-78100000D03*
D17*
X117900000Y-78100000D03*
D15*
X127550000Y-109200000D03*
X127550000Y-118200000D03*
D16*
X124050000Y-113700000D03*
D17*
X119050000Y-113700000D03*
D15*
X115000000Y-127500000D03*
X106000000Y-127500000D03*
D17*
X110500000Y-124000000D03*
D16*
X110500000Y-119000000D03*
D23*
X44000000Y-35750000D03*
D24*
X49000000Y-35750000D03*
D23*
X54750000Y-35650000D03*
D24*
X59750000Y-35650000D03*
D25*
X69750000Y-41250000D03*
X69750000Y-35250000D03*
X65050000Y-38250000D03*
D20*
X99250000Y-36000000D03*
D21*
X99250000Y-38540000D03*
X99250000Y-41080000D03*
D20*
X47900000Y-48100000D03*
D21*
X47900000Y-45560000D03*
D20*
X50500000Y-82600000D03*
D21*
X50500000Y-85140000D03*
D11*
X51700000Y-44900000D03*
D12*
X51700000Y-52520000D03*
D11*
X54700000Y-74300000D03*
D12*
X54700000Y-66680000D03*
D11*
X64600000Y-65800000D03*
D12*
X72220000Y-65800000D03*
D11*
X71900000Y-69800000D03*
D12*
X71900000Y-77420000D03*
D13*
X37550000Y-103400000D03*
D14*
X37550000Y-98320000D03*
X55950000Y-113630000D03*
X52140000Y-113630000D03*
D24*
X59760000Y-127600000D03*
X52140000Y-122520000D03*
D14*
X59760000Y-113630000D03*
X55950000Y-118710000D03*
X79950000Y-113630000D03*
X76140000Y-113630000D03*
D24*
X83760000Y-127600000D03*
X76140000Y-122520000D03*
D14*
X83760000Y-113630000D03*
X79950000Y-118710000D03*
M02*
